G04 #@! TF.GenerationSoftware,KiCad,Pcbnew,(5.0.1)-3*
G04 #@! TF.CreationDate,2020-03-31T21:33:41+02:00*
G04 #@! TF.ProjectId,schema_pcb,736368656D615F7063622E6B69636164,rev?*
G04 #@! TF.SameCoordinates,Original*
G04 #@! TF.FileFunction,Soldermask,Top*
G04 #@! TF.FilePolarity,Negative*
%FSLAX46Y46*%
G04 Gerber Fmt 4.6, Leading zero omitted, Abs format (unit mm)*
G04 Created by KiCad (PCBNEW (5.0.1)-3) date 31/03/2020 21:33:41*
%MOMM*%
%LPD*%
G01*
G04 APERTURE LIST*
%ADD10C,0.152400*%
%ADD11C,0.020000*%
G04 APERTURE END LIST*
D10*
G04 #@! TO.C,*
X158161500Y-98611500D02*
X160338500Y-98611500D01*
X160338500Y-98611500D02*
X160338500Y-99106300D01*
X160338500Y-99106300D02*
X158161500Y-99106300D01*
X158161500Y-99106300D02*
X158161500Y-98611500D01*
X158161500Y-99506300D02*
X160338500Y-99506300D01*
X160338500Y-99506300D02*
X160338500Y-99893700D01*
X160338500Y-99893700D02*
X158161500Y-99893700D01*
X158161500Y-99893700D02*
X158161500Y-99506300D01*
X158161500Y-100293700D02*
X160338500Y-100293700D01*
X160338500Y-100293700D02*
X160338500Y-100788500D01*
X160338500Y-100788500D02*
X158161500Y-100788500D01*
X158161500Y-100788500D02*
X158161500Y-100293700D01*
X158161500Y-98611500D02*
X158656300Y-98611500D01*
X158656300Y-98611500D02*
X158656300Y-100788500D01*
X158656300Y-100788500D02*
X158161500Y-100788500D01*
X158161500Y-100788500D02*
X158161500Y-98611500D01*
X159443700Y-98611500D02*
X159056300Y-98611500D01*
X159056300Y-98611500D02*
X159056300Y-100788500D01*
X159056300Y-100788500D02*
X159443700Y-100788500D01*
X159443700Y-100788500D02*
X159443700Y-98611500D01*
X159843700Y-98611500D02*
X160338500Y-98611500D01*
X160338500Y-98611500D02*
X160338500Y-100788500D01*
X160338500Y-100788500D02*
X159843700Y-100788500D01*
X159843700Y-100788500D02*
X159843700Y-98611500D01*
D11*
G36*
X127470443Y-115605519D02*
X127536627Y-115612037D01*
X127649853Y-115646384D01*
X127706467Y-115663557D01*
X127845087Y-115737652D01*
X127862991Y-115747222D01*
X127898729Y-115776552D01*
X128000186Y-115859814D01*
X128083448Y-115961271D01*
X128112778Y-115997009D01*
X128112779Y-115997011D01*
X128196443Y-116153533D01*
X128196443Y-116153534D01*
X128247963Y-116323373D01*
X128265359Y-116500000D01*
X128247963Y-116676627D01*
X128213616Y-116789853D01*
X128196443Y-116846467D01*
X128122348Y-116985087D01*
X128112778Y-117002991D01*
X128083448Y-117038729D01*
X128000186Y-117140186D01*
X127898729Y-117223448D01*
X127862991Y-117252778D01*
X127862989Y-117252779D01*
X127706467Y-117336443D01*
X127649853Y-117353616D01*
X127536627Y-117387963D01*
X127470442Y-117394482D01*
X127404260Y-117401000D01*
X127315740Y-117401000D01*
X127249558Y-117394482D01*
X127183373Y-117387963D01*
X127070147Y-117353616D01*
X127013533Y-117336443D01*
X126857011Y-117252779D01*
X126857009Y-117252778D01*
X126821271Y-117223448D01*
X126719814Y-117140186D01*
X126636552Y-117038729D01*
X126607222Y-117002991D01*
X126597652Y-116985087D01*
X126523557Y-116846467D01*
X126506384Y-116789853D01*
X126472037Y-116676627D01*
X126454641Y-116500000D01*
X126472037Y-116323373D01*
X126523557Y-116153534D01*
X126523557Y-116153533D01*
X126607221Y-115997011D01*
X126607222Y-115997009D01*
X126636552Y-115961271D01*
X126719814Y-115859814D01*
X126821271Y-115776552D01*
X126857009Y-115747222D01*
X126874913Y-115737652D01*
X127013533Y-115663557D01*
X127070147Y-115646384D01*
X127183373Y-115612037D01*
X127249557Y-115605519D01*
X127315740Y-115599000D01*
X127404260Y-115599000D01*
X127470443Y-115605519D01*
X127470443Y-115605519D01*
G37*
G36*
X164690443Y-115605519D02*
X164756627Y-115612037D01*
X164869853Y-115646384D01*
X164926467Y-115663557D01*
X165065087Y-115737652D01*
X165082991Y-115747222D01*
X165118729Y-115776552D01*
X165220186Y-115859814D01*
X165303448Y-115961271D01*
X165332778Y-115997009D01*
X165332779Y-115997011D01*
X165416443Y-116153533D01*
X165416443Y-116153534D01*
X165467963Y-116323373D01*
X165485359Y-116500000D01*
X165467963Y-116676627D01*
X165433616Y-116789853D01*
X165416443Y-116846467D01*
X165342348Y-116985087D01*
X165332778Y-117002991D01*
X165303448Y-117038729D01*
X165220186Y-117140186D01*
X165118729Y-117223448D01*
X165082991Y-117252778D01*
X165082989Y-117252779D01*
X164926467Y-117336443D01*
X164869853Y-117353616D01*
X164756627Y-117387963D01*
X164690442Y-117394482D01*
X164624260Y-117401000D01*
X164535740Y-117401000D01*
X164469558Y-117394482D01*
X164403373Y-117387963D01*
X164290147Y-117353616D01*
X164233533Y-117336443D01*
X164077011Y-117252779D01*
X164077009Y-117252778D01*
X164041271Y-117223448D01*
X163939814Y-117140186D01*
X163856552Y-117038729D01*
X163827222Y-117002991D01*
X163817652Y-116985087D01*
X163743557Y-116846467D01*
X163726384Y-116789853D01*
X163692037Y-116676627D01*
X163674641Y-116500000D01*
X163692037Y-116323373D01*
X163743557Y-116153534D01*
X163743557Y-116153533D01*
X163827221Y-115997011D01*
X163827222Y-115997009D01*
X163856552Y-115961271D01*
X163939814Y-115859814D01*
X164041271Y-115776552D01*
X164077009Y-115747222D01*
X164094913Y-115737652D01*
X164233533Y-115663557D01*
X164290147Y-115646384D01*
X164403373Y-115612037D01*
X164469557Y-115605519D01*
X164535740Y-115599000D01*
X164624260Y-115599000D01*
X164690443Y-115605519D01*
X164690443Y-115605519D01*
G37*
G36*
X147701000Y-117401000D02*
X145899000Y-117401000D01*
X145899000Y-115599000D01*
X147701000Y-115599000D01*
X147701000Y-117401000D01*
X147701000Y-117401000D01*
G37*
G36*
X149450443Y-115605519D02*
X149516627Y-115612037D01*
X149629853Y-115646384D01*
X149686467Y-115663557D01*
X149825087Y-115737652D01*
X149842991Y-115747222D01*
X149878729Y-115776552D01*
X149980186Y-115859814D01*
X150063448Y-115961271D01*
X150092778Y-115997009D01*
X150092779Y-115997011D01*
X150176443Y-116153533D01*
X150176443Y-116153534D01*
X150227963Y-116323373D01*
X150245359Y-116500000D01*
X150227963Y-116676627D01*
X150193616Y-116789853D01*
X150176443Y-116846467D01*
X150102348Y-116985087D01*
X150092778Y-117002991D01*
X150063448Y-117038729D01*
X149980186Y-117140186D01*
X149878729Y-117223448D01*
X149842991Y-117252778D01*
X149842989Y-117252779D01*
X149686467Y-117336443D01*
X149629853Y-117353616D01*
X149516627Y-117387963D01*
X149450442Y-117394482D01*
X149384260Y-117401000D01*
X149295740Y-117401000D01*
X149229558Y-117394482D01*
X149163373Y-117387963D01*
X149050147Y-117353616D01*
X148993533Y-117336443D01*
X148837011Y-117252779D01*
X148837009Y-117252778D01*
X148801271Y-117223448D01*
X148699814Y-117140186D01*
X148616552Y-117038729D01*
X148587222Y-117002991D01*
X148577652Y-116985087D01*
X148503557Y-116846467D01*
X148486384Y-116789853D01*
X148452037Y-116676627D01*
X148434641Y-116500000D01*
X148452037Y-116323373D01*
X148503557Y-116153534D01*
X148503557Y-116153533D01*
X148587221Y-115997011D01*
X148587222Y-115997009D01*
X148616552Y-115961271D01*
X148699814Y-115859814D01*
X148801271Y-115776552D01*
X148837009Y-115747222D01*
X148854913Y-115737652D01*
X148993533Y-115663557D01*
X149050147Y-115646384D01*
X149163373Y-115612037D01*
X149229557Y-115605519D01*
X149295740Y-115599000D01*
X149384260Y-115599000D01*
X149450443Y-115605519D01*
X149450443Y-115605519D01*
G37*
G36*
X151990443Y-115605519D02*
X152056627Y-115612037D01*
X152169853Y-115646384D01*
X152226467Y-115663557D01*
X152365087Y-115737652D01*
X152382991Y-115747222D01*
X152418729Y-115776552D01*
X152520186Y-115859814D01*
X152603448Y-115961271D01*
X152632778Y-115997009D01*
X152632779Y-115997011D01*
X152716443Y-116153533D01*
X152716443Y-116153534D01*
X152767963Y-116323373D01*
X152785359Y-116500000D01*
X152767963Y-116676627D01*
X152733616Y-116789853D01*
X152716443Y-116846467D01*
X152642348Y-116985087D01*
X152632778Y-117002991D01*
X152603448Y-117038729D01*
X152520186Y-117140186D01*
X152418729Y-117223448D01*
X152382991Y-117252778D01*
X152382989Y-117252779D01*
X152226467Y-117336443D01*
X152169853Y-117353616D01*
X152056627Y-117387963D01*
X151990442Y-117394482D01*
X151924260Y-117401000D01*
X151835740Y-117401000D01*
X151769558Y-117394482D01*
X151703373Y-117387963D01*
X151590147Y-117353616D01*
X151533533Y-117336443D01*
X151377011Y-117252779D01*
X151377009Y-117252778D01*
X151341271Y-117223448D01*
X151239814Y-117140186D01*
X151156552Y-117038729D01*
X151127222Y-117002991D01*
X151117652Y-116985087D01*
X151043557Y-116846467D01*
X151026384Y-116789853D01*
X150992037Y-116676627D01*
X150974641Y-116500000D01*
X150992037Y-116323373D01*
X151043557Y-116153534D01*
X151043557Y-116153533D01*
X151127221Y-115997011D01*
X151127222Y-115997009D01*
X151156552Y-115961271D01*
X151239814Y-115859814D01*
X151341271Y-115776552D01*
X151377009Y-115747222D01*
X151394913Y-115737652D01*
X151533533Y-115663557D01*
X151590147Y-115646384D01*
X151703373Y-115612037D01*
X151769557Y-115605519D01*
X151835740Y-115599000D01*
X151924260Y-115599000D01*
X151990443Y-115605519D01*
X151990443Y-115605519D01*
G37*
G36*
X154530443Y-115605519D02*
X154596627Y-115612037D01*
X154709853Y-115646384D01*
X154766467Y-115663557D01*
X154905087Y-115737652D01*
X154922991Y-115747222D01*
X154958729Y-115776552D01*
X155060186Y-115859814D01*
X155143448Y-115961271D01*
X155172778Y-115997009D01*
X155172779Y-115997011D01*
X155256443Y-116153533D01*
X155256443Y-116153534D01*
X155307963Y-116323373D01*
X155325359Y-116500000D01*
X155307963Y-116676627D01*
X155273616Y-116789853D01*
X155256443Y-116846467D01*
X155182348Y-116985087D01*
X155172778Y-117002991D01*
X155143448Y-117038729D01*
X155060186Y-117140186D01*
X154958729Y-117223448D01*
X154922991Y-117252778D01*
X154922989Y-117252779D01*
X154766467Y-117336443D01*
X154709853Y-117353616D01*
X154596627Y-117387963D01*
X154530442Y-117394482D01*
X154464260Y-117401000D01*
X154375740Y-117401000D01*
X154309558Y-117394482D01*
X154243373Y-117387963D01*
X154130147Y-117353616D01*
X154073533Y-117336443D01*
X153917011Y-117252779D01*
X153917009Y-117252778D01*
X153881271Y-117223448D01*
X153779814Y-117140186D01*
X153696552Y-117038729D01*
X153667222Y-117002991D01*
X153657652Y-116985087D01*
X153583557Y-116846467D01*
X153566384Y-116789853D01*
X153532037Y-116676627D01*
X153514641Y-116500000D01*
X153532037Y-116323373D01*
X153583557Y-116153534D01*
X153583557Y-116153533D01*
X153667221Y-115997011D01*
X153667222Y-115997009D01*
X153696552Y-115961271D01*
X153779814Y-115859814D01*
X153881271Y-115776552D01*
X153917009Y-115747222D01*
X153934913Y-115737652D01*
X154073533Y-115663557D01*
X154130147Y-115646384D01*
X154243373Y-115612037D01*
X154309557Y-115605519D01*
X154375740Y-115599000D01*
X154464260Y-115599000D01*
X154530443Y-115605519D01*
X154530443Y-115605519D01*
G37*
G36*
X157070443Y-115605519D02*
X157136627Y-115612037D01*
X157249853Y-115646384D01*
X157306467Y-115663557D01*
X157445087Y-115737652D01*
X157462991Y-115747222D01*
X157498729Y-115776552D01*
X157600186Y-115859814D01*
X157683448Y-115961271D01*
X157712778Y-115997009D01*
X157712779Y-115997011D01*
X157796443Y-116153533D01*
X157796443Y-116153534D01*
X157847963Y-116323373D01*
X157865359Y-116500000D01*
X157847963Y-116676627D01*
X157813616Y-116789853D01*
X157796443Y-116846467D01*
X157722348Y-116985087D01*
X157712778Y-117002991D01*
X157683448Y-117038729D01*
X157600186Y-117140186D01*
X157498729Y-117223448D01*
X157462991Y-117252778D01*
X157462989Y-117252779D01*
X157306467Y-117336443D01*
X157249853Y-117353616D01*
X157136627Y-117387963D01*
X157070442Y-117394482D01*
X157004260Y-117401000D01*
X156915740Y-117401000D01*
X156849558Y-117394482D01*
X156783373Y-117387963D01*
X156670147Y-117353616D01*
X156613533Y-117336443D01*
X156457011Y-117252779D01*
X156457009Y-117252778D01*
X156421271Y-117223448D01*
X156319814Y-117140186D01*
X156236552Y-117038729D01*
X156207222Y-117002991D01*
X156197652Y-116985087D01*
X156123557Y-116846467D01*
X156106384Y-116789853D01*
X156072037Y-116676627D01*
X156054641Y-116500000D01*
X156072037Y-116323373D01*
X156123557Y-116153534D01*
X156123557Y-116153533D01*
X156207221Y-115997011D01*
X156207222Y-115997009D01*
X156236552Y-115961271D01*
X156319814Y-115859814D01*
X156421271Y-115776552D01*
X156457009Y-115747222D01*
X156474913Y-115737652D01*
X156613533Y-115663557D01*
X156670147Y-115646384D01*
X156783373Y-115612037D01*
X156849557Y-115605519D01*
X156915740Y-115599000D01*
X157004260Y-115599000D01*
X157070443Y-115605519D01*
X157070443Y-115605519D01*
G37*
G36*
X159610443Y-115605519D02*
X159676627Y-115612037D01*
X159789853Y-115646384D01*
X159846467Y-115663557D01*
X159985087Y-115737652D01*
X160002991Y-115747222D01*
X160038729Y-115776552D01*
X160140186Y-115859814D01*
X160223448Y-115961271D01*
X160252778Y-115997009D01*
X160252779Y-115997011D01*
X160336443Y-116153533D01*
X160336443Y-116153534D01*
X160387963Y-116323373D01*
X160405359Y-116500000D01*
X160387963Y-116676627D01*
X160353616Y-116789853D01*
X160336443Y-116846467D01*
X160262348Y-116985087D01*
X160252778Y-117002991D01*
X160223448Y-117038729D01*
X160140186Y-117140186D01*
X160038729Y-117223448D01*
X160002991Y-117252778D01*
X160002989Y-117252779D01*
X159846467Y-117336443D01*
X159789853Y-117353616D01*
X159676627Y-117387963D01*
X159610442Y-117394482D01*
X159544260Y-117401000D01*
X159455740Y-117401000D01*
X159389558Y-117394482D01*
X159323373Y-117387963D01*
X159210147Y-117353616D01*
X159153533Y-117336443D01*
X158997011Y-117252779D01*
X158997009Y-117252778D01*
X158961271Y-117223448D01*
X158859814Y-117140186D01*
X158776552Y-117038729D01*
X158747222Y-117002991D01*
X158737652Y-116985087D01*
X158663557Y-116846467D01*
X158646384Y-116789853D01*
X158612037Y-116676627D01*
X158594641Y-116500000D01*
X158612037Y-116323373D01*
X158663557Y-116153534D01*
X158663557Y-116153533D01*
X158747221Y-115997011D01*
X158747222Y-115997009D01*
X158776552Y-115961271D01*
X158859814Y-115859814D01*
X158961271Y-115776552D01*
X158997009Y-115747222D01*
X159014913Y-115737652D01*
X159153533Y-115663557D01*
X159210147Y-115646384D01*
X159323373Y-115612037D01*
X159389557Y-115605519D01*
X159455740Y-115599000D01*
X159544260Y-115599000D01*
X159610443Y-115605519D01*
X159610443Y-115605519D01*
G37*
G36*
X162150443Y-115605519D02*
X162216627Y-115612037D01*
X162329853Y-115646384D01*
X162386467Y-115663557D01*
X162525087Y-115737652D01*
X162542991Y-115747222D01*
X162578729Y-115776552D01*
X162680186Y-115859814D01*
X162763448Y-115961271D01*
X162792778Y-115997009D01*
X162792779Y-115997011D01*
X162876443Y-116153533D01*
X162876443Y-116153534D01*
X162927963Y-116323373D01*
X162945359Y-116500000D01*
X162927963Y-116676627D01*
X162893616Y-116789853D01*
X162876443Y-116846467D01*
X162802348Y-116985087D01*
X162792778Y-117002991D01*
X162763448Y-117038729D01*
X162680186Y-117140186D01*
X162578729Y-117223448D01*
X162542991Y-117252778D01*
X162542989Y-117252779D01*
X162386467Y-117336443D01*
X162329853Y-117353616D01*
X162216627Y-117387963D01*
X162150442Y-117394482D01*
X162084260Y-117401000D01*
X161995740Y-117401000D01*
X161929558Y-117394482D01*
X161863373Y-117387963D01*
X161750147Y-117353616D01*
X161693533Y-117336443D01*
X161537011Y-117252779D01*
X161537009Y-117252778D01*
X161501271Y-117223448D01*
X161399814Y-117140186D01*
X161316552Y-117038729D01*
X161287222Y-117002991D01*
X161277652Y-116985087D01*
X161203557Y-116846467D01*
X161186384Y-116789853D01*
X161152037Y-116676627D01*
X161134641Y-116500000D01*
X161152037Y-116323373D01*
X161203557Y-116153534D01*
X161203557Y-116153533D01*
X161287221Y-115997011D01*
X161287222Y-115997009D01*
X161316552Y-115961271D01*
X161399814Y-115859814D01*
X161501271Y-115776552D01*
X161537009Y-115747222D01*
X161554913Y-115737652D01*
X161693533Y-115663557D01*
X161750147Y-115646384D01*
X161863373Y-115612037D01*
X161929557Y-115605519D01*
X161995740Y-115599000D01*
X162084260Y-115599000D01*
X162150443Y-115605519D01*
X162150443Y-115605519D01*
G37*
G36*
X143501000Y-117401000D02*
X141699000Y-117401000D01*
X141699000Y-115599000D01*
X143501000Y-115599000D01*
X143501000Y-117401000D01*
X143501000Y-117401000D01*
G37*
G36*
X140170443Y-115605519D02*
X140236627Y-115612037D01*
X140349853Y-115646384D01*
X140406467Y-115663557D01*
X140545087Y-115737652D01*
X140562991Y-115747222D01*
X140598729Y-115776552D01*
X140700186Y-115859814D01*
X140783448Y-115961271D01*
X140812778Y-115997009D01*
X140812779Y-115997011D01*
X140896443Y-116153533D01*
X140896443Y-116153534D01*
X140947963Y-116323373D01*
X140965359Y-116500000D01*
X140947963Y-116676627D01*
X140913616Y-116789853D01*
X140896443Y-116846467D01*
X140822348Y-116985087D01*
X140812778Y-117002991D01*
X140783448Y-117038729D01*
X140700186Y-117140186D01*
X140598729Y-117223448D01*
X140562991Y-117252778D01*
X140562989Y-117252779D01*
X140406467Y-117336443D01*
X140349853Y-117353616D01*
X140236627Y-117387963D01*
X140170442Y-117394482D01*
X140104260Y-117401000D01*
X140015740Y-117401000D01*
X139949558Y-117394482D01*
X139883373Y-117387963D01*
X139770147Y-117353616D01*
X139713533Y-117336443D01*
X139557011Y-117252779D01*
X139557009Y-117252778D01*
X139521271Y-117223448D01*
X139419814Y-117140186D01*
X139336552Y-117038729D01*
X139307222Y-117002991D01*
X139297652Y-116985087D01*
X139223557Y-116846467D01*
X139206384Y-116789853D01*
X139172037Y-116676627D01*
X139154641Y-116500000D01*
X139172037Y-116323373D01*
X139223557Y-116153534D01*
X139223557Y-116153533D01*
X139307221Y-115997011D01*
X139307222Y-115997009D01*
X139336552Y-115961271D01*
X139419814Y-115859814D01*
X139521271Y-115776552D01*
X139557009Y-115747222D01*
X139574913Y-115737652D01*
X139713533Y-115663557D01*
X139770147Y-115646384D01*
X139883373Y-115612037D01*
X139949557Y-115605519D01*
X140015740Y-115599000D01*
X140104260Y-115599000D01*
X140170443Y-115605519D01*
X140170443Y-115605519D01*
G37*
G36*
X137630443Y-115605519D02*
X137696627Y-115612037D01*
X137809853Y-115646384D01*
X137866467Y-115663557D01*
X138005087Y-115737652D01*
X138022991Y-115747222D01*
X138058729Y-115776552D01*
X138160186Y-115859814D01*
X138243448Y-115961271D01*
X138272778Y-115997009D01*
X138272779Y-115997011D01*
X138356443Y-116153533D01*
X138356443Y-116153534D01*
X138407963Y-116323373D01*
X138425359Y-116500000D01*
X138407963Y-116676627D01*
X138373616Y-116789853D01*
X138356443Y-116846467D01*
X138282348Y-116985087D01*
X138272778Y-117002991D01*
X138243448Y-117038729D01*
X138160186Y-117140186D01*
X138058729Y-117223448D01*
X138022991Y-117252778D01*
X138022989Y-117252779D01*
X137866467Y-117336443D01*
X137809853Y-117353616D01*
X137696627Y-117387963D01*
X137630442Y-117394482D01*
X137564260Y-117401000D01*
X137475740Y-117401000D01*
X137409558Y-117394482D01*
X137343373Y-117387963D01*
X137230147Y-117353616D01*
X137173533Y-117336443D01*
X137017011Y-117252779D01*
X137017009Y-117252778D01*
X136981271Y-117223448D01*
X136879814Y-117140186D01*
X136796552Y-117038729D01*
X136767222Y-117002991D01*
X136757652Y-116985087D01*
X136683557Y-116846467D01*
X136666384Y-116789853D01*
X136632037Y-116676627D01*
X136614641Y-116500000D01*
X136632037Y-116323373D01*
X136683557Y-116153534D01*
X136683557Y-116153533D01*
X136767221Y-115997011D01*
X136767222Y-115997009D01*
X136796552Y-115961271D01*
X136879814Y-115859814D01*
X136981271Y-115776552D01*
X137017009Y-115747222D01*
X137034913Y-115737652D01*
X137173533Y-115663557D01*
X137230147Y-115646384D01*
X137343373Y-115612037D01*
X137409557Y-115605519D01*
X137475740Y-115599000D01*
X137564260Y-115599000D01*
X137630443Y-115605519D01*
X137630443Y-115605519D01*
G37*
G36*
X135090443Y-115605519D02*
X135156627Y-115612037D01*
X135269853Y-115646384D01*
X135326467Y-115663557D01*
X135465087Y-115737652D01*
X135482991Y-115747222D01*
X135518729Y-115776552D01*
X135620186Y-115859814D01*
X135703448Y-115961271D01*
X135732778Y-115997009D01*
X135732779Y-115997011D01*
X135816443Y-116153533D01*
X135816443Y-116153534D01*
X135867963Y-116323373D01*
X135885359Y-116500000D01*
X135867963Y-116676627D01*
X135833616Y-116789853D01*
X135816443Y-116846467D01*
X135742348Y-116985087D01*
X135732778Y-117002991D01*
X135703448Y-117038729D01*
X135620186Y-117140186D01*
X135518729Y-117223448D01*
X135482991Y-117252778D01*
X135482989Y-117252779D01*
X135326467Y-117336443D01*
X135269853Y-117353616D01*
X135156627Y-117387963D01*
X135090442Y-117394482D01*
X135024260Y-117401000D01*
X134935740Y-117401000D01*
X134869558Y-117394482D01*
X134803373Y-117387963D01*
X134690147Y-117353616D01*
X134633533Y-117336443D01*
X134477011Y-117252779D01*
X134477009Y-117252778D01*
X134441271Y-117223448D01*
X134339814Y-117140186D01*
X134256552Y-117038729D01*
X134227222Y-117002991D01*
X134217652Y-116985087D01*
X134143557Y-116846467D01*
X134126384Y-116789853D01*
X134092037Y-116676627D01*
X134074641Y-116500000D01*
X134092037Y-116323373D01*
X134143557Y-116153534D01*
X134143557Y-116153533D01*
X134227221Y-115997011D01*
X134227222Y-115997009D01*
X134256552Y-115961271D01*
X134339814Y-115859814D01*
X134441271Y-115776552D01*
X134477009Y-115747222D01*
X134494913Y-115737652D01*
X134633533Y-115663557D01*
X134690147Y-115646384D01*
X134803373Y-115612037D01*
X134869557Y-115605519D01*
X134935740Y-115599000D01*
X135024260Y-115599000D01*
X135090443Y-115605519D01*
X135090443Y-115605519D01*
G37*
G36*
X132550443Y-115605519D02*
X132616627Y-115612037D01*
X132729853Y-115646384D01*
X132786467Y-115663557D01*
X132925087Y-115737652D01*
X132942991Y-115747222D01*
X132978729Y-115776552D01*
X133080186Y-115859814D01*
X133163448Y-115961271D01*
X133192778Y-115997009D01*
X133192779Y-115997011D01*
X133276443Y-116153533D01*
X133276443Y-116153534D01*
X133327963Y-116323373D01*
X133345359Y-116500000D01*
X133327963Y-116676627D01*
X133293616Y-116789853D01*
X133276443Y-116846467D01*
X133202348Y-116985087D01*
X133192778Y-117002991D01*
X133163448Y-117038729D01*
X133080186Y-117140186D01*
X132978729Y-117223448D01*
X132942991Y-117252778D01*
X132942989Y-117252779D01*
X132786467Y-117336443D01*
X132729853Y-117353616D01*
X132616627Y-117387963D01*
X132550442Y-117394482D01*
X132484260Y-117401000D01*
X132395740Y-117401000D01*
X132329558Y-117394482D01*
X132263373Y-117387963D01*
X132150147Y-117353616D01*
X132093533Y-117336443D01*
X131937011Y-117252779D01*
X131937009Y-117252778D01*
X131901271Y-117223448D01*
X131799814Y-117140186D01*
X131716552Y-117038729D01*
X131687222Y-117002991D01*
X131677652Y-116985087D01*
X131603557Y-116846467D01*
X131586384Y-116789853D01*
X131552037Y-116676627D01*
X131534641Y-116500000D01*
X131552037Y-116323373D01*
X131603557Y-116153534D01*
X131603557Y-116153533D01*
X131687221Y-115997011D01*
X131687222Y-115997009D01*
X131716552Y-115961271D01*
X131799814Y-115859814D01*
X131901271Y-115776552D01*
X131937009Y-115747222D01*
X131954913Y-115737652D01*
X132093533Y-115663557D01*
X132150147Y-115646384D01*
X132263373Y-115612037D01*
X132329557Y-115605519D01*
X132395740Y-115599000D01*
X132484260Y-115599000D01*
X132550443Y-115605519D01*
X132550443Y-115605519D01*
G37*
G36*
X130010443Y-115605519D02*
X130076627Y-115612037D01*
X130189853Y-115646384D01*
X130246467Y-115663557D01*
X130385087Y-115737652D01*
X130402991Y-115747222D01*
X130438729Y-115776552D01*
X130540186Y-115859814D01*
X130623448Y-115961271D01*
X130652778Y-115997009D01*
X130652779Y-115997011D01*
X130736443Y-116153533D01*
X130736443Y-116153534D01*
X130787963Y-116323373D01*
X130805359Y-116500000D01*
X130787963Y-116676627D01*
X130753616Y-116789853D01*
X130736443Y-116846467D01*
X130662348Y-116985087D01*
X130652778Y-117002991D01*
X130623448Y-117038729D01*
X130540186Y-117140186D01*
X130438729Y-117223448D01*
X130402991Y-117252778D01*
X130402989Y-117252779D01*
X130246467Y-117336443D01*
X130189853Y-117353616D01*
X130076627Y-117387963D01*
X130010442Y-117394482D01*
X129944260Y-117401000D01*
X129855740Y-117401000D01*
X129789558Y-117394482D01*
X129723373Y-117387963D01*
X129610147Y-117353616D01*
X129553533Y-117336443D01*
X129397011Y-117252779D01*
X129397009Y-117252778D01*
X129361271Y-117223448D01*
X129259814Y-117140186D01*
X129176552Y-117038729D01*
X129147222Y-117002991D01*
X129137652Y-116985087D01*
X129063557Y-116846467D01*
X129046384Y-116789853D01*
X129012037Y-116676627D01*
X128994641Y-116500000D01*
X129012037Y-116323373D01*
X129063557Y-116153534D01*
X129063557Y-116153533D01*
X129147221Y-115997011D01*
X129147222Y-115997009D01*
X129176552Y-115961271D01*
X129259814Y-115859814D01*
X129361271Y-115776552D01*
X129397009Y-115747222D01*
X129414913Y-115737652D01*
X129553533Y-115663557D01*
X129610147Y-115646384D01*
X129723373Y-115612037D01*
X129789557Y-115605519D01*
X129855740Y-115599000D01*
X129944260Y-115599000D01*
X130010443Y-115605519D01*
X130010443Y-115605519D01*
G37*
G36*
X124930443Y-115605519D02*
X124996627Y-115612037D01*
X125109853Y-115646384D01*
X125166467Y-115663557D01*
X125305087Y-115737652D01*
X125322991Y-115747222D01*
X125358729Y-115776552D01*
X125460186Y-115859814D01*
X125543448Y-115961271D01*
X125572778Y-115997009D01*
X125572779Y-115997011D01*
X125656443Y-116153533D01*
X125656443Y-116153534D01*
X125707963Y-116323373D01*
X125725359Y-116500000D01*
X125707963Y-116676627D01*
X125673616Y-116789853D01*
X125656443Y-116846467D01*
X125582348Y-116985087D01*
X125572778Y-117002991D01*
X125543448Y-117038729D01*
X125460186Y-117140186D01*
X125358729Y-117223448D01*
X125322991Y-117252778D01*
X125322989Y-117252779D01*
X125166467Y-117336443D01*
X125109853Y-117353616D01*
X124996627Y-117387963D01*
X124930442Y-117394482D01*
X124864260Y-117401000D01*
X124775740Y-117401000D01*
X124709558Y-117394482D01*
X124643373Y-117387963D01*
X124530147Y-117353616D01*
X124473533Y-117336443D01*
X124317011Y-117252779D01*
X124317009Y-117252778D01*
X124281271Y-117223448D01*
X124179814Y-117140186D01*
X124096552Y-117038729D01*
X124067222Y-117002991D01*
X124057652Y-116985087D01*
X123983557Y-116846467D01*
X123966384Y-116789853D01*
X123932037Y-116676627D01*
X123914641Y-116500000D01*
X123932037Y-116323373D01*
X123983557Y-116153534D01*
X123983557Y-116153533D01*
X124067221Y-115997011D01*
X124067222Y-115997009D01*
X124096552Y-115961271D01*
X124179814Y-115859814D01*
X124281271Y-115776552D01*
X124317009Y-115747222D01*
X124334913Y-115737652D01*
X124473533Y-115663557D01*
X124530147Y-115646384D01*
X124643373Y-115612037D01*
X124709557Y-115605519D01*
X124775740Y-115599000D01*
X124864260Y-115599000D01*
X124930443Y-115605519D01*
X124930443Y-115605519D01*
G37*
G36*
X137630442Y-111705518D02*
X137696627Y-111712037D01*
X137809853Y-111746384D01*
X137866467Y-111763557D01*
X138005087Y-111837652D01*
X138022991Y-111847222D01*
X138058729Y-111876552D01*
X138160186Y-111959814D01*
X138243448Y-112061271D01*
X138272778Y-112097009D01*
X138272779Y-112097011D01*
X138356443Y-112253533D01*
X138356443Y-112253534D01*
X138407963Y-112423373D01*
X138425359Y-112600000D01*
X138407963Y-112776627D01*
X138373616Y-112889853D01*
X138356443Y-112946467D01*
X138282348Y-113085087D01*
X138272778Y-113102991D01*
X138243448Y-113138729D01*
X138160186Y-113240186D01*
X138058729Y-113323448D01*
X138022991Y-113352778D01*
X138022989Y-113352779D01*
X137866467Y-113436443D01*
X137809853Y-113453616D01*
X137696627Y-113487963D01*
X137630442Y-113494482D01*
X137564260Y-113501000D01*
X137475740Y-113501000D01*
X137409558Y-113494482D01*
X137343373Y-113487963D01*
X137230147Y-113453616D01*
X137173533Y-113436443D01*
X137017011Y-113352779D01*
X137017009Y-113352778D01*
X136981271Y-113323448D01*
X136879814Y-113240186D01*
X136796552Y-113138729D01*
X136767222Y-113102991D01*
X136757652Y-113085087D01*
X136683557Y-112946467D01*
X136666384Y-112889853D01*
X136632037Y-112776627D01*
X136614641Y-112600000D01*
X136632037Y-112423373D01*
X136683557Y-112253534D01*
X136683557Y-112253533D01*
X136767221Y-112097011D01*
X136767222Y-112097009D01*
X136796552Y-112061271D01*
X136879814Y-111959814D01*
X136981271Y-111876552D01*
X137017009Y-111847222D01*
X137034913Y-111837652D01*
X137173533Y-111763557D01*
X137230147Y-111746384D01*
X137343373Y-111712037D01*
X137409558Y-111705518D01*
X137475740Y-111699000D01*
X137564260Y-111699000D01*
X137630442Y-111705518D01*
X137630442Y-111705518D01*
G37*
G36*
X135090442Y-111705518D02*
X135156627Y-111712037D01*
X135269853Y-111746384D01*
X135326467Y-111763557D01*
X135465087Y-111837652D01*
X135482991Y-111847222D01*
X135518729Y-111876552D01*
X135620186Y-111959814D01*
X135703448Y-112061271D01*
X135732778Y-112097009D01*
X135732779Y-112097011D01*
X135816443Y-112253533D01*
X135816443Y-112253534D01*
X135867963Y-112423373D01*
X135885359Y-112600000D01*
X135867963Y-112776627D01*
X135833616Y-112889853D01*
X135816443Y-112946467D01*
X135742348Y-113085087D01*
X135732778Y-113102991D01*
X135703448Y-113138729D01*
X135620186Y-113240186D01*
X135518729Y-113323448D01*
X135482991Y-113352778D01*
X135482989Y-113352779D01*
X135326467Y-113436443D01*
X135269853Y-113453616D01*
X135156627Y-113487963D01*
X135090442Y-113494482D01*
X135024260Y-113501000D01*
X134935740Y-113501000D01*
X134869558Y-113494482D01*
X134803373Y-113487963D01*
X134690147Y-113453616D01*
X134633533Y-113436443D01*
X134477011Y-113352779D01*
X134477009Y-113352778D01*
X134441271Y-113323448D01*
X134339814Y-113240186D01*
X134256552Y-113138729D01*
X134227222Y-113102991D01*
X134217652Y-113085087D01*
X134143557Y-112946467D01*
X134126384Y-112889853D01*
X134092037Y-112776627D01*
X134074641Y-112600000D01*
X134092037Y-112423373D01*
X134143557Y-112253534D01*
X134143557Y-112253533D01*
X134227221Y-112097011D01*
X134227222Y-112097009D01*
X134256552Y-112061271D01*
X134339814Y-111959814D01*
X134441271Y-111876552D01*
X134477009Y-111847222D01*
X134494913Y-111837652D01*
X134633533Y-111763557D01*
X134690147Y-111746384D01*
X134803373Y-111712037D01*
X134869558Y-111705518D01*
X134935740Y-111699000D01*
X135024260Y-111699000D01*
X135090442Y-111705518D01*
X135090442Y-111705518D01*
G37*
G36*
X132550442Y-111705518D02*
X132616627Y-111712037D01*
X132729853Y-111746384D01*
X132786467Y-111763557D01*
X132925087Y-111837652D01*
X132942991Y-111847222D01*
X132978729Y-111876552D01*
X133080186Y-111959814D01*
X133163448Y-112061271D01*
X133192778Y-112097009D01*
X133192779Y-112097011D01*
X133276443Y-112253533D01*
X133276443Y-112253534D01*
X133327963Y-112423373D01*
X133345359Y-112600000D01*
X133327963Y-112776627D01*
X133293616Y-112889853D01*
X133276443Y-112946467D01*
X133202348Y-113085087D01*
X133192778Y-113102991D01*
X133163448Y-113138729D01*
X133080186Y-113240186D01*
X132978729Y-113323448D01*
X132942991Y-113352778D01*
X132942989Y-113352779D01*
X132786467Y-113436443D01*
X132729853Y-113453616D01*
X132616627Y-113487963D01*
X132550442Y-113494482D01*
X132484260Y-113501000D01*
X132395740Y-113501000D01*
X132329558Y-113494482D01*
X132263373Y-113487963D01*
X132150147Y-113453616D01*
X132093533Y-113436443D01*
X131937011Y-113352779D01*
X131937009Y-113352778D01*
X131901271Y-113323448D01*
X131799814Y-113240186D01*
X131716552Y-113138729D01*
X131687222Y-113102991D01*
X131677652Y-113085087D01*
X131603557Y-112946467D01*
X131586384Y-112889853D01*
X131552037Y-112776627D01*
X131534641Y-112600000D01*
X131552037Y-112423373D01*
X131603557Y-112253534D01*
X131603557Y-112253533D01*
X131687221Y-112097011D01*
X131687222Y-112097009D01*
X131716552Y-112061271D01*
X131799814Y-111959814D01*
X131901271Y-111876552D01*
X131937009Y-111847222D01*
X131954913Y-111837652D01*
X132093533Y-111763557D01*
X132150147Y-111746384D01*
X132263373Y-111712037D01*
X132329558Y-111705518D01*
X132395740Y-111699000D01*
X132484260Y-111699000D01*
X132550442Y-111705518D01*
X132550442Y-111705518D01*
G37*
G36*
X130010442Y-111705518D02*
X130076627Y-111712037D01*
X130189853Y-111746384D01*
X130246467Y-111763557D01*
X130385087Y-111837652D01*
X130402991Y-111847222D01*
X130438729Y-111876552D01*
X130540186Y-111959814D01*
X130623448Y-112061271D01*
X130652778Y-112097009D01*
X130652779Y-112097011D01*
X130736443Y-112253533D01*
X130736443Y-112253534D01*
X130787963Y-112423373D01*
X130805359Y-112600000D01*
X130787963Y-112776627D01*
X130753616Y-112889853D01*
X130736443Y-112946467D01*
X130662348Y-113085087D01*
X130652778Y-113102991D01*
X130623448Y-113138729D01*
X130540186Y-113240186D01*
X130438729Y-113323448D01*
X130402991Y-113352778D01*
X130402989Y-113352779D01*
X130246467Y-113436443D01*
X130189853Y-113453616D01*
X130076627Y-113487963D01*
X130010442Y-113494482D01*
X129944260Y-113501000D01*
X129855740Y-113501000D01*
X129789558Y-113494482D01*
X129723373Y-113487963D01*
X129610147Y-113453616D01*
X129553533Y-113436443D01*
X129397011Y-113352779D01*
X129397009Y-113352778D01*
X129361271Y-113323448D01*
X129259814Y-113240186D01*
X129176552Y-113138729D01*
X129147222Y-113102991D01*
X129137652Y-113085087D01*
X129063557Y-112946467D01*
X129046384Y-112889853D01*
X129012037Y-112776627D01*
X128994641Y-112600000D01*
X129012037Y-112423373D01*
X129063557Y-112253534D01*
X129063557Y-112253533D01*
X129147221Y-112097011D01*
X129147222Y-112097009D01*
X129176552Y-112061271D01*
X129259814Y-111959814D01*
X129361271Y-111876552D01*
X129397009Y-111847222D01*
X129414913Y-111837652D01*
X129553533Y-111763557D01*
X129610147Y-111746384D01*
X129723373Y-111712037D01*
X129789558Y-111705518D01*
X129855740Y-111699000D01*
X129944260Y-111699000D01*
X130010442Y-111705518D01*
X130010442Y-111705518D01*
G37*
G36*
X127470442Y-111705518D02*
X127536627Y-111712037D01*
X127649853Y-111746384D01*
X127706467Y-111763557D01*
X127845087Y-111837652D01*
X127862991Y-111847222D01*
X127898729Y-111876552D01*
X128000186Y-111959814D01*
X128083448Y-112061271D01*
X128112778Y-112097009D01*
X128112779Y-112097011D01*
X128196443Y-112253533D01*
X128196443Y-112253534D01*
X128247963Y-112423373D01*
X128265359Y-112600000D01*
X128247963Y-112776627D01*
X128213616Y-112889853D01*
X128196443Y-112946467D01*
X128122348Y-113085087D01*
X128112778Y-113102991D01*
X128083448Y-113138729D01*
X128000186Y-113240186D01*
X127898729Y-113323448D01*
X127862991Y-113352778D01*
X127862989Y-113352779D01*
X127706467Y-113436443D01*
X127649853Y-113453616D01*
X127536627Y-113487963D01*
X127470442Y-113494482D01*
X127404260Y-113501000D01*
X127315740Y-113501000D01*
X127249558Y-113494482D01*
X127183373Y-113487963D01*
X127070147Y-113453616D01*
X127013533Y-113436443D01*
X126857011Y-113352779D01*
X126857009Y-113352778D01*
X126821271Y-113323448D01*
X126719814Y-113240186D01*
X126636552Y-113138729D01*
X126607222Y-113102991D01*
X126597652Y-113085087D01*
X126523557Y-112946467D01*
X126506384Y-112889853D01*
X126472037Y-112776627D01*
X126454641Y-112600000D01*
X126472037Y-112423373D01*
X126523557Y-112253534D01*
X126523557Y-112253533D01*
X126607221Y-112097011D01*
X126607222Y-112097009D01*
X126636552Y-112061271D01*
X126719814Y-111959814D01*
X126821271Y-111876552D01*
X126857009Y-111847222D01*
X126874913Y-111837652D01*
X127013533Y-111763557D01*
X127070147Y-111746384D01*
X127183373Y-111712037D01*
X127249558Y-111705518D01*
X127315740Y-111699000D01*
X127404260Y-111699000D01*
X127470442Y-111705518D01*
X127470442Y-111705518D01*
G37*
G36*
X124930442Y-111705518D02*
X124996627Y-111712037D01*
X125109853Y-111746384D01*
X125166467Y-111763557D01*
X125305087Y-111837652D01*
X125322991Y-111847222D01*
X125358729Y-111876552D01*
X125460186Y-111959814D01*
X125543448Y-112061271D01*
X125572778Y-112097009D01*
X125572779Y-112097011D01*
X125656443Y-112253533D01*
X125656443Y-112253534D01*
X125707963Y-112423373D01*
X125725359Y-112600000D01*
X125707963Y-112776627D01*
X125673616Y-112889853D01*
X125656443Y-112946467D01*
X125582348Y-113085087D01*
X125572778Y-113102991D01*
X125543448Y-113138729D01*
X125460186Y-113240186D01*
X125358729Y-113323448D01*
X125322991Y-113352778D01*
X125322989Y-113352779D01*
X125166467Y-113436443D01*
X125109853Y-113453616D01*
X124996627Y-113487963D01*
X124930442Y-113494482D01*
X124864260Y-113501000D01*
X124775740Y-113501000D01*
X124709558Y-113494482D01*
X124643373Y-113487963D01*
X124530147Y-113453616D01*
X124473533Y-113436443D01*
X124317011Y-113352779D01*
X124317009Y-113352778D01*
X124281271Y-113323448D01*
X124179814Y-113240186D01*
X124096552Y-113138729D01*
X124067222Y-113102991D01*
X124057652Y-113085087D01*
X123983557Y-112946467D01*
X123966384Y-112889853D01*
X123932037Y-112776627D01*
X123914641Y-112600000D01*
X123932037Y-112423373D01*
X123983557Y-112253534D01*
X123983557Y-112253533D01*
X124067221Y-112097011D01*
X124067222Y-112097009D01*
X124096552Y-112061271D01*
X124179814Y-111959814D01*
X124281271Y-111876552D01*
X124317009Y-111847222D01*
X124334913Y-111837652D01*
X124473533Y-111763557D01*
X124530147Y-111746384D01*
X124643373Y-111712037D01*
X124709558Y-111705518D01*
X124775740Y-111699000D01*
X124864260Y-111699000D01*
X124930442Y-111705518D01*
X124930442Y-111705518D01*
G37*
G36*
X143501000Y-113501000D02*
X141699000Y-113501000D01*
X141699000Y-111699000D01*
X143501000Y-111699000D01*
X143501000Y-113501000D01*
X143501000Y-113501000D01*
G37*
G36*
X164690442Y-111705518D02*
X164756627Y-111712037D01*
X164869853Y-111746384D01*
X164926467Y-111763557D01*
X165065087Y-111837652D01*
X165082991Y-111847222D01*
X165118729Y-111876552D01*
X165220186Y-111959814D01*
X165303448Y-112061271D01*
X165332778Y-112097009D01*
X165332779Y-112097011D01*
X165416443Y-112253533D01*
X165416443Y-112253534D01*
X165467963Y-112423373D01*
X165485359Y-112600000D01*
X165467963Y-112776627D01*
X165433616Y-112889853D01*
X165416443Y-112946467D01*
X165342348Y-113085087D01*
X165332778Y-113102991D01*
X165303448Y-113138729D01*
X165220186Y-113240186D01*
X165118729Y-113323448D01*
X165082991Y-113352778D01*
X165082989Y-113352779D01*
X164926467Y-113436443D01*
X164869853Y-113453616D01*
X164756627Y-113487963D01*
X164690442Y-113494482D01*
X164624260Y-113501000D01*
X164535740Y-113501000D01*
X164469558Y-113494482D01*
X164403373Y-113487963D01*
X164290147Y-113453616D01*
X164233533Y-113436443D01*
X164077011Y-113352779D01*
X164077009Y-113352778D01*
X164041271Y-113323448D01*
X163939814Y-113240186D01*
X163856552Y-113138729D01*
X163827222Y-113102991D01*
X163817652Y-113085087D01*
X163743557Y-112946467D01*
X163726384Y-112889853D01*
X163692037Y-112776627D01*
X163674641Y-112600000D01*
X163692037Y-112423373D01*
X163743557Y-112253534D01*
X163743557Y-112253533D01*
X163827221Y-112097011D01*
X163827222Y-112097009D01*
X163856552Y-112061271D01*
X163939814Y-111959814D01*
X164041271Y-111876552D01*
X164077009Y-111847222D01*
X164094913Y-111837652D01*
X164233533Y-111763557D01*
X164290147Y-111746384D01*
X164403373Y-111712037D01*
X164469558Y-111705518D01*
X164535740Y-111699000D01*
X164624260Y-111699000D01*
X164690442Y-111705518D01*
X164690442Y-111705518D01*
G37*
G36*
X159610442Y-111705518D02*
X159676627Y-111712037D01*
X159789853Y-111746384D01*
X159846467Y-111763557D01*
X159985087Y-111837652D01*
X160002991Y-111847222D01*
X160038729Y-111876552D01*
X160140186Y-111959814D01*
X160223448Y-112061271D01*
X160252778Y-112097009D01*
X160252779Y-112097011D01*
X160336443Y-112253533D01*
X160336443Y-112253534D01*
X160387963Y-112423373D01*
X160405359Y-112600000D01*
X160387963Y-112776627D01*
X160353616Y-112889853D01*
X160336443Y-112946467D01*
X160262348Y-113085087D01*
X160252778Y-113102991D01*
X160223448Y-113138729D01*
X160140186Y-113240186D01*
X160038729Y-113323448D01*
X160002991Y-113352778D01*
X160002989Y-113352779D01*
X159846467Y-113436443D01*
X159789853Y-113453616D01*
X159676627Y-113487963D01*
X159610442Y-113494482D01*
X159544260Y-113501000D01*
X159455740Y-113501000D01*
X159389558Y-113494482D01*
X159323373Y-113487963D01*
X159210147Y-113453616D01*
X159153533Y-113436443D01*
X158997011Y-113352779D01*
X158997009Y-113352778D01*
X158961271Y-113323448D01*
X158859814Y-113240186D01*
X158776552Y-113138729D01*
X158747222Y-113102991D01*
X158737652Y-113085087D01*
X158663557Y-112946467D01*
X158646384Y-112889853D01*
X158612037Y-112776627D01*
X158594641Y-112600000D01*
X158612037Y-112423373D01*
X158663557Y-112253534D01*
X158663557Y-112253533D01*
X158747221Y-112097011D01*
X158747222Y-112097009D01*
X158776552Y-112061271D01*
X158859814Y-111959814D01*
X158961271Y-111876552D01*
X158997009Y-111847222D01*
X159014913Y-111837652D01*
X159153533Y-111763557D01*
X159210147Y-111746384D01*
X159323373Y-111712037D01*
X159389558Y-111705518D01*
X159455740Y-111699000D01*
X159544260Y-111699000D01*
X159610442Y-111705518D01*
X159610442Y-111705518D01*
G37*
G36*
X157070442Y-111705518D02*
X157136627Y-111712037D01*
X157249853Y-111746384D01*
X157306467Y-111763557D01*
X157445087Y-111837652D01*
X157462991Y-111847222D01*
X157498729Y-111876552D01*
X157600186Y-111959814D01*
X157683448Y-112061271D01*
X157712778Y-112097009D01*
X157712779Y-112097011D01*
X157796443Y-112253533D01*
X157796443Y-112253534D01*
X157847963Y-112423373D01*
X157865359Y-112600000D01*
X157847963Y-112776627D01*
X157813616Y-112889853D01*
X157796443Y-112946467D01*
X157722348Y-113085087D01*
X157712778Y-113102991D01*
X157683448Y-113138729D01*
X157600186Y-113240186D01*
X157498729Y-113323448D01*
X157462991Y-113352778D01*
X157462989Y-113352779D01*
X157306467Y-113436443D01*
X157249853Y-113453616D01*
X157136627Y-113487963D01*
X157070442Y-113494482D01*
X157004260Y-113501000D01*
X156915740Y-113501000D01*
X156849558Y-113494482D01*
X156783373Y-113487963D01*
X156670147Y-113453616D01*
X156613533Y-113436443D01*
X156457011Y-113352779D01*
X156457009Y-113352778D01*
X156421271Y-113323448D01*
X156319814Y-113240186D01*
X156236552Y-113138729D01*
X156207222Y-113102991D01*
X156197652Y-113085087D01*
X156123557Y-112946467D01*
X156106384Y-112889853D01*
X156072037Y-112776627D01*
X156054641Y-112600000D01*
X156072037Y-112423373D01*
X156123557Y-112253534D01*
X156123557Y-112253533D01*
X156207221Y-112097011D01*
X156207222Y-112097009D01*
X156236552Y-112061271D01*
X156319814Y-111959814D01*
X156421271Y-111876552D01*
X156457009Y-111847222D01*
X156474913Y-111837652D01*
X156613533Y-111763557D01*
X156670147Y-111746384D01*
X156783373Y-111712037D01*
X156849558Y-111705518D01*
X156915740Y-111699000D01*
X157004260Y-111699000D01*
X157070442Y-111705518D01*
X157070442Y-111705518D01*
G37*
G36*
X154530442Y-111705518D02*
X154596627Y-111712037D01*
X154709853Y-111746384D01*
X154766467Y-111763557D01*
X154905087Y-111837652D01*
X154922991Y-111847222D01*
X154958729Y-111876552D01*
X155060186Y-111959814D01*
X155143448Y-112061271D01*
X155172778Y-112097009D01*
X155172779Y-112097011D01*
X155256443Y-112253533D01*
X155256443Y-112253534D01*
X155307963Y-112423373D01*
X155325359Y-112600000D01*
X155307963Y-112776627D01*
X155273616Y-112889853D01*
X155256443Y-112946467D01*
X155182348Y-113085087D01*
X155172778Y-113102991D01*
X155143448Y-113138729D01*
X155060186Y-113240186D01*
X154958729Y-113323448D01*
X154922991Y-113352778D01*
X154922989Y-113352779D01*
X154766467Y-113436443D01*
X154709853Y-113453616D01*
X154596627Y-113487963D01*
X154530442Y-113494482D01*
X154464260Y-113501000D01*
X154375740Y-113501000D01*
X154309558Y-113494482D01*
X154243373Y-113487963D01*
X154130147Y-113453616D01*
X154073533Y-113436443D01*
X153917011Y-113352779D01*
X153917009Y-113352778D01*
X153881271Y-113323448D01*
X153779814Y-113240186D01*
X153696552Y-113138729D01*
X153667222Y-113102991D01*
X153657652Y-113085087D01*
X153583557Y-112946467D01*
X153566384Y-112889853D01*
X153532037Y-112776627D01*
X153514641Y-112600000D01*
X153532037Y-112423373D01*
X153583557Y-112253534D01*
X153583557Y-112253533D01*
X153667221Y-112097011D01*
X153667222Y-112097009D01*
X153696552Y-112061271D01*
X153779814Y-111959814D01*
X153881271Y-111876552D01*
X153917009Y-111847222D01*
X153934913Y-111837652D01*
X154073533Y-111763557D01*
X154130147Y-111746384D01*
X154243373Y-111712037D01*
X154309558Y-111705518D01*
X154375740Y-111699000D01*
X154464260Y-111699000D01*
X154530442Y-111705518D01*
X154530442Y-111705518D01*
G37*
G36*
X151990442Y-111705518D02*
X152056627Y-111712037D01*
X152169853Y-111746384D01*
X152226467Y-111763557D01*
X152365087Y-111837652D01*
X152382991Y-111847222D01*
X152418729Y-111876552D01*
X152520186Y-111959814D01*
X152603448Y-112061271D01*
X152632778Y-112097009D01*
X152632779Y-112097011D01*
X152716443Y-112253533D01*
X152716443Y-112253534D01*
X152767963Y-112423373D01*
X152785359Y-112600000D01*
X152767963Y-112776627D01*
X152733616Y-112889853D01*
X152716443Y-112946467D01*
X152642348Y-113085087D01*
X152632778Y-113102991D01*
X152603448Y-113138729D01*
X152520186Y-113240186D01*
X152418729Y-113323448D01*
X152382991Y-113352778D01*
X152382989Y-113352779D01*
X152226467Y-113436443D01*
X152169853Y-113453616D01*
X152056627Y-113487963D01*
X151990442Y-113494482D01*
X151924260Y-113501000D01*
X151835740Y-113501000D01*
X151769558Y-113494482D01*
X151703373Y-113487963D01*
X151590147Y-113453616D01*
X151533533Y-113436443D01*
X151377011Y-113352779D01*
X151377009Y-113352778D01*
X151341271Y-113323448D01*
X151239814Y-113240186D01*
X151156552Y-113138729D01*
X151127222Y-113102991D01*
X151117652Y-113085087D01*
X151043557Y-112946467D01*
X151026384Y-112889853D01*
X150992037Y-112776627D01*
X150974641Y-112600000D01*
X150992037Y-112423373D01*
X151043557Y-112253534D01*
X151043557Y-112253533D01*
X151127221Y-112097011D01*
X151127222Y-112097009D01*
X151156552Y-112061271D01*
X151239814Y-111959814D01*
X151341271Y-111876552D01*
X151377009Y-111847222D01*
X151394913Y-111837652D01*
X151533533Y-111763557D01*
X151590147Y-111746384D01*
X151703373Y-111712037D01*
X151769558Y-111705518D01*
X151835740Y-111699000D01*
X151924260Y-111699000D01*
X151990442Y-111705518D01*
X151990442Y-111705518D01*
G37*
G36*
X149450442Y-111705518D02*
X149516627Y-111712037D01*
X149629853Y-111746384D01*
X149686467Y-111763557D01*
X149825087Y-111837652D01*
X149842991Y-111847222D01*
X149878729Y-111876552D01*
X149980186Y-111959814D01*
X150063448Y-112061271D01*
X150092778Y-112097009D01*
X150092779Y-112097011D01*
X150176443Y-112253533D01*
X150176443Y-112253534D01*
X150227963Y-112423373D01*
X150245359Y-112600000D01*
X150227963Y-112776627D01*
X150193616Y-112889853D01*
X150176443Y-112946467D01*
X150102348Y-113085087D01*
X150092778Y-113102991D01*
X150063448Y-113138729D01*
X149980186Y-113240186D01*
X149878729Y-113323448D01*
X149842991Y-113352778D01*
X149842989Y-113352779D01*
X149686467Y-113436443D01*
X149629853Y-113453616D01*
X149516627Y-113487963D01*
X149450442Y-113494482D01*
X149384260Y-113501000D01*
X149295740Y-113501000D01*
X149229558Y-113494482D01*
X149163373Y-113487963D01*
X149050147Y-113453616D01*
X148993533Y-113436443D01*
X148837011Y-113352779D01*
X148837009Y-113352778D01*
X148801271Y-113323448D01*
X148699814Y-113240186D01*
X148616552Y-113138729D01*
X148587222Y-113102991D01*
X148577652Y-113085087D01*
X148503557Y-112946467D01*
X148486384Y-112889853D01*
X148452037Y-112776627D01*
X148434641Y-112600000D01*
X148452037Y-112423373D01*
X148503557Y-112253534D01*
X148503557Y-112253533D01*
X148587221Y-112097011D01*
X148587222Y-112097009D01*
X148616552Y-112061271D01*
X148699814Y-111959814D01*
X148801271Y-111876552D01*
X148837009Y-111847222D01*
X148854913Y-111837652D01*
X148993533Y-111763557D01*
X149050147Y-111746384D01*
X149163373Y-111712037D01*
X149229558Y-111705518D01*
X149295740Y-111699000D01*
X149384260Y-111699000D01*
X149450442Y-111705518D01*
X149450442Y-111705518D01*
G37*
G36*
X147701000Y-113501000D02*
X145899000Y-113501000D01*
X145899000Y-111699000D01*
X147701000Y-111699000D01*
X147701000Y-113501000D01*
X147701000Y-113501000D01*
G37*
G36*
X140170442Y-111705518D02*
X140236627Y-111712037D01*
X140349853Y-111746384D01*
X140406467Y-111763557D01*
X140545087Y-111837652D01*
X140562991Y-111847222D01*
X140598729Y-111876552D01*
X140700186Y-111959814D01*
X140783448Y-112061271D01*
X140812778Y-112097009D01*
X140812779Y-112097011D01*
X140896443Y-112253533D01*
X140896443Y-112253534D01*
X140947963Y-112423373D01*
X140965359Y-112600000D01*
X140947963Y-112776627D01*
X140913616Y-112889853D01*
X140896443Y-112946467D01*
X140822348Y-113085087D01*
X140812778Y-113102991D01*
X140783448Y-113138729D01*
X140700186Y-113240186D01*
X140598729Y-113323448D01*
X140562991Y-113352778D01*
X140562989Y-113352779D01*
X140406467Y-113436443D01*
X140349853Y-113453616D01*
X140236627Y-113487963D01*
X140170442Y-113494482D01*
X140104260Y-113501000D01*
X140015740Y-113501000D01*
X139949558Y-113494482D01*
X139883373Y-113487963D01*
X139770147Y-113453616D01*
X139713533Y-113436443D01*
X139557011Y-113352779D01*
X139557009Y-113352778D01*
X139521271Y-113323448D01*
X139419814Y-113240186D01*
X139336552Y-113138729D01*
X139307222Y-113102991D01*
X139297652Y-113085087D01*
X139223557Y-112946467D01*
X139206384Y-112889853D01*
X139172037Y-112776627D01*
X139154641Y-112600000D01*
X139172037Y-112423373D01*
X139223557Y-112253534D01*
X139223557Y-112253533D01*
X139307221Y-112097011D01*
X139307222Y-112097009D01*
X139336552Y-112061271D01*
X139419814Y-111959814D01*
X139521271Y-111876552D01*
X139557009Y-111847222D01*
X139574913Y-111837652D01*
X139713533Y-111763557D01*
X139770147Y-111746384D01*
X139883373Y-111712037D01*
X139949558Y-111705518D01*
X140015740Y-111699000D01*
X140104260Y-111699000D01*
X140170442Y-111705518D01*
X140170442Y-111705518D01*
G37*
G36*
X162150442Y-111705518D02*
X162216627Y-111712037D01*
X162329853Y-111746384D01*
X162386467Y-111763557D01*
X162525087Y-111837652D01*
X162542991Y-111847222D01*
X162578729Y-111876552D01*
X162680186Y-111959814D01*
X162763448Y-112061271D01*
X162792778Y-112097009D01*
X162792779Y-112097011D01*
X162876443Y-112253533D01*
X162876443Y-112253534D01*
X162927963Y-112423373D01*
X162945359Y-112600000D01*
X162927963Y-112776627D01*
X162893616Y-112889853D01*
X162876443Y-112946467D01*
X162802348Y-113085087D01*
X162792778Y-113102991D01*
X162763448Y-113138729D01*
X162680186Y-113240186D01*
X162578729Y-113323448D01*
X162542991Y-113352778D01*
X162542989Y-113352779D01*
X162386467Y-113436443D01*
X162329853Y-113453616D01*
X162216627Y-113487963D01*
X162150442Y-113494482D01*
X162084260Y-113501000D01*
X161995740Y-113501000D01*
X161929558Y-113494482D01*
X161863373Y-113487963D01*
X161750147Y-113453616D01*
X161693533Y-113436443D01*
X161537011Y-113352779D01*
X161537009Y-113352778D01*
X161501271Y-113323448D01*
X161399814Y-113240186D01*
X161316552Y-113138729D01*
X161287222Y-113102991D01*
X161277652Y-113085087D01*
X161203557Y-112946467D01*
X161186384Y-112889853D01*
X161152037Y-112776627D01*
X161134641Y-112600000D01*
X161152037Y-112423373D01*
X161203557Y-112253534D01*
X161203557Y-112253533D01*
X161287221Y-112097011D01*
X161287222Y-112097009D01*
X161316552Y-112061271D01*
X161399814Y-111959814D01*
X161501271Y-111876552D01*
X161537009Y-111847222D01*
X161554913Y-111837652D01*
X161693533Y-111763557D01*
X161750147Y-111746384D01*
X161863373Y-111712037D01*
X161929558Y-111705518D01*
X161995740Y-111699000D01*
X162084260Y-111699000D01*
X162150442Y-111705518D01*
X162150442Y-111705518D01*
G37*
G36*
X173389499Y-110178445D02*
X173426993Y-110189819D01*
X173461557Y-110208294D01*
X173491847Y-110233153D01*
X173516706Y-110263443D01*
X173535181Y-110298007D01*
X173546555Y-110335501D01*
X173551000Y-110380638D01*
X173551000Y-111019362D01*
X173546555Y-111064499D01*
X173535181Y-111101993D01*
X173516706Y-111136557D01*
X173491847Y-111166847D01*
X173461557Y-111191706D01*
X173426993Y-111210181D01*
X173389499Y-111221555D01*
X173344362Y-111226000D01*
X172605638Y-111226000D01*
X172560501Y-111221555D01*
X172523007Y-111210181D01*
X172488443Y-111191706D01*
X172458153Y-111166847D01*
X172433294Y-111136557D01*
X172414819Y-111101993D01*
X172403445Y-111064499D01*
X172399000Y-111019362D01*
X172399000Y-110380638D01*
X172403445Y-110335501D01*
X172414819Y-110298007D01*
X172433294Y-110263443D01*
X172458153Y-110233153D01*
X172488443Y-110208294D01*
X172523007Y-110189819D01*
X172560501Y-110178445D01*
X172605638Y-110174000D01*
X173344362Y-110174000D01*
X173389499Y-110178445D01*
X173389499Y-110178445D01*
G37*
G36*
X171639499Y-110178445D02*
X171676993Y-110189819D01*
X171711557Y-110208294D01*
X171741847Y-110233153D01*
X171766706Y-110263443D01*
X171785181Y-110298007D01*
X171796555Y-110335501D01*
X171801000Y-110380638D01*
X171801000Y-111019362D01*
X171796555Y-111064499D01*
X171785181Y-111101993D01*
X171766706Y-111136557D01*
X171741847Y-111166847D01*
X171711557Y-111191706D01*
X171676993Y-111210181D01*
X171639499Y-111221555D01*
X171594362Y-111226000D01*
X170855638Y-111226000D01*
X170810501Y-111221555D01*
X170773007Y-111210181D01*
X170738443Y-111191706D01*
X170708153Y-111166847D01*
X170683294Y-111136557D01*
X170664819Y-111101993D01*
X170653445Y-111064499D01*
X170649000Y-111019362D01*
X170649000Y-110380638D01*
X170653445Y-110335501D01*
X170664819Y-110298007D01*
X170683294Y-110263443D01*
X170708153Y-110233153D01*
X170738443Y-110208294D01*
X170773007Y-110189819D01*
X170810501Y-110178445D01*
X170855638Y-110174000D01*
X171594362Y-110174000D01*
X171639499Y-110178445D01*
X171639499Y-110178445D01*
G37*
G36*
X146351000Y-109301000D02*
X144649000Y-109301000D01*
X144649000Y-105699000D01*
X146351000Y-105699000D01*
X146351000Y-109301000D01*
X146351000Y-109301000D01*
G37*
G36*
X165175562Y-107528181D02*
X165210477Y-107538773D01*
X165242665Y-107555978D01*
X165270873Y-107579127D01*
X165294022Y-107607335D01*
X165311227Y-107639523D01*
X165321819Y-107674438D01*
X165326000Y-107716895D01*
X165326000Y-108858105D01*
X165321819Y-108900562D01*
X165311227Y-108935477D01*
X165294022Y-108967665D01*
X165270873Y-108995873D01*
X165242665Y-109019022D01*
X165210477Y-109036227D01*
X165175562Y-109046819D01*
X165133105Y-109051000D01*
X163666895Y-109051000D01*
X163624438Y-109046819D01*
X163589523Y-109036227D01*
X163557335Y-109019022D01*
X163529127Y-108995873D01*
X163505978Y-108967665D01*
X163488773Y-108935477D01*
X163478181Y-108900562D01*
X163474000Y-108858105D01*
X163474000Y-107716895D01*
X163478181Y-107674438D01*
X163488773Y-107639523D01*
X163505978Y-107607335D01*
X163529127Y-107579127D01*
X163557335Y-107555978D01*
X163589523Y-107538773D01*
X163624438Y-107528181D01*
X163666895Y-107524000D01*
X165133105Y-107524000D01*
X165175562Y-107528181D01*
X165175562Y-107528181D01*
G37*
G36*
X159675562Y-107528181D02*
X159710477Y-107538773D01*
X159742665Y-107555978D01*
X159770873Y-107579127D01*
X159794022Y-107607335D01*
X159811227Y-107639523D01*
X159821819Y-107674438D01*
X159826000Y-107716895D01*
X159826000Y-108858105D01*
X159821819Y-108900562D01*
X159811227Y-108935477D01*
X159794022Y-108967665D01*
X159770873Y-108995873D01*
X159742665Y-109019022D01*
X159710477Y-109036227D01*
X159675562Y-109046819D01*
X159633105Y-109051000D01*
X158166895Y-109051000D01*
X158124438Y-109046819D01*
X158089523Y-109036227D01*
X158057335Y-109019022D01*
X158029127Y-108995873D01*
X158005978Y-108967665D01*
X157988773Y-108935477D01*
X157978181Y-108900562D01*
X157974000Y-108858105D01*
X157974000Y-107716895D01*
X157978181Y-107674438D01*
X157988773Y-107639523D01*
X158005978Y-107607335D01*
X158029127Y-107579127D01*
X158057335Y-107555978D01*
X158089523Y-107538773D01*
X158124438Y-107528181D01*
X158166895Y-107524000D01*
X159633105Y-107524000D01*
X159675562Y-107528181D01*
X159675562Y-107528181D01*
G37*
G36*
X153201000Y-108901000D02*
X151399000Y-108901000D01*
X151399000Y-107099000D01*
X153201000Y-107099000D01*
X153201000Y-108901000D01*
X153201000Y-108901000D01*
G37*
G36*
X173276401Y-108806600D02*
X172623601Y-108806600D01*
X172623601Y-107393400D01*
X173276401Y-107393400D01*
X173276401Y-108806600D01*
X173276401Y-108806600D01*
G37*
G36*
X171376399Y-108806600D02*
X170723599Y-108806600D01*
X170723599Y-107393400D01*
X171376399Y-107393400D01*
X171376399Y-108806600D01*
X171376399Y-108806600D01*
G37*
G36*
X138275562Y-107128181D02*
X138310477Y-107138773D01*
X138342665Y-107155978D01*
X138370873Y-107179127D01*
X138394022Y-107207335D01*
X138411227Y-107239523D01*
X138421819Y-107274438D01*
X138426000Y-107316895D01*
X138426000Y-108458105D01*
X138421819Y-108500562D01*
X138411227Y-108535477D01*
X138394022Y-108567665D01*
X138370873Y-108595873D01*
X138342665Y-108619022D01*
X138310477Y-108636227D01*
X138275562Y-108646819D01*
X138233105Y-108651000D01*
X136766895Y-108651000D01*
X136724438Y-108646819D01*
X136689523Y-108636227D01*
X136657335Y-108619022D01*
X136629127Y-108595873D01*
X136605978Y-108567665D01*
X136588773Y-108535477D01*
X136578181Y-108500562D01*
X136574000Y-108458105D01*
X136574000Y-107316895D01*
X136578181Y-107274438D01*
X136588773Y-107239523D01*
X136605978Y-107207335D01*
X136629127Y-107179127D01*
X136657335Y-107155978D01*
X136689523Y-107138773D01*
X136724438Y-107128181D01*
X136766895Y-107124000D01*
X138233105Y-107124000D01*
X138275562Y-107128181D01*
X138275562Y-107128181D01*
G37*
G36*
X156788677Y-106903465D02*
X156826364Y-106914898D01*
X156861103Y-106933466D01*
X156891548Y-106958452D01*
X156916534Y-106988897D01*
X156935102Y-107023636D01*
X156946535Y-107061323D01*
X156951000Y-107106661D01*
X156951000Y-107943339D01*
X156946535Y-107988677D01*
X156935102Y-108026364D01*
X156916534Y-108061103D01*
X156891548Y-108091548D01*
X156861103Y-108116534D01*
X156826364Y-108135102D01*
X156788677Y-108146535D01*
X156743339Y-108151000D01*
X155656661Y-108151000D01*
X155611323Y-108146535D01*
X155573636Y-108135102D01*
X155538897Y-108116534D01*
X155508452Y-108091548D01*
X155483466Y-108061103D01*
X155464898Y-108026364D01*
X155453465Y-107988677D01*
X155449000Y-107943339D01*
X155449000Y-107106661D01*
X155453465Y-107061323D01*
X155464898Y-107023636D01*
X155483466Y-106988897D01*
X155508452Y-106958452D01*
X155538897Y-106933466D01*
X155573636Y-106914898D01*
X155611323Y-106903465D01*
X155656661Y-106899000D01*
X156743339Y-106899000D01*
X156788677Y-106903465D01*
X156788677Y-106903465D01*
G37*
G36*
X162188677Y-106803465D02*
X162226364Y-106814898D01*
X162261103Y-106833466D01*
X162291548Y-106858452D01*
X162316534Y-106888897D01*
X162335102Y-106923636D01*
X162346535Y-106961323D01*
X162351000Y-107006661D01*
X162351000Y-107843339D01*
X162346535Y-107888677D01*
X162335102Y-107926364D01*
X162316534Y-107961103D01*
X162291548Y-107991548D01*
X162261103Y-108016534D01*
X162226364Y-108035102D01*
X162188677Y-108046535D01*
X162143339Y-108051000D01*
X161056661Y-108051000D01*
X161011323Y-108046535D01*
X160973636Y-108035102D01*
X160938897Y-108016534D01*
X160908452Y-107991548D01*
X160883466Y-107961103D01*
X160864898Y-107926364D01*
X160853465Y-107888677D01*
X160849000Y-107843339D01*
X160849000Y-107006661D01*
X160853465Y-106961323D01*
X160864898Y-106923636D01*
X160883466Y-106888897D01*
X160908452Y-106858452D01*
X160938897Y-106833466D01*
X160973636Y-106814898D01*
X161011323Y-106803465D01*
X161056661Y-106799000D01*
X162143339Y-106799000D01*
X162188677Y-106803465D01*
X162188677Y-106803465D01*
G37*
G36*
X167688677Y-106803465D02*
X167726364Y-106814898D01*
X167761103Y-106833466D01*
X167791548Y-106858452D01*
X167816534Y-106888897D01*
X167835102Y-106923636D01*
X167846535Y-106961323D01*
X167851000Y-107006661D01*
X167851000Y-107843339D01*
X167846535Y-107888677D01*
X167835102Y-107926364D01*
X167816534Y-107961103D01*
X167791548Y-107991548D01*
X167761103Y-108016534D01*
X167726364Y-108035102D01*
X167688677Y-108046535D01*
X167643339Y-108051000D01*
X166556661Y-108051000D01*
X166511323Y-108046535D01*
X166473636Y-108035102D01*
X166438897Y-108016534D01*
X166408452Y-107991548D01*
X166383466Y-107961103D01*
X166364898Y-107926364D01*
X166353465Y-107888677D01*
X166349000Y-107843339D01*
X166349000Y-107006661D01*
X166353465Y-106961323D01*
X166364898Y-106923636D01*
X166383466Y-106888897D01*
X166408452Y-106858452D01*
X166438897Y-106833466D01*
X166473636Y-106814898D01*
X166511323Y-106803465D01*
X166556661Y-106799000D01*
X167643339Y-106799000D01*
X167688677Y-106803465D01*
X167688677Y-106803465D01*
G37*
G36*
X171376399Y-106406600D02*
X170723599Y-106406600D01*
X170723599Y-104993400D01*
X171376399Y-104993400D01*
X171376399Y-106406600D01*
X171376399Y-106406600D01*
G37*
G36*
X172326400Y-106406600D02*
X171673600Y-106406600D01*
X171673600Y-104993400D01*
X172326400Y-104993400D01*
X172326400Y-106406600D01*
X172326400Y-106406600D01*
G37*
G36*
X173276401Y-106406600D02*
X172623601Y-106406600D01*
X172623601Y-104993400D01*
X173276401Y-104993400D01*
X173276401Y-106406600D01*
X173276401Y-106406600D01*
G37*
G36*
X152392720Y-104563773D02*
X152476627Y-104572037D01*
X152549517Y-104594148D01*
X152646467Y-104623557D01*
X152785087Y-104697652D01*
X152802991Y-104707222D01*
X152811708Y-104714376D01*
X152940186Y-104819814D01*
X153012928Y-104908452D01*
X153052778Y-104957009D01*
X153052779Y-104957011D01*
X153136443Y-105113533D01*
X153153616Y-105170147D01*
X153187963Y-105283373D01*
X153205359Y-105460000D01*
X153187963Y-105636627D01*
X153176019Y-105676000D01*
X153136443Y-105806467D01*
X153090008Y-105893339D01*
X153052778Y-105962991D01*
X153034632Y-105985102D01*
X152940186Y-106100186D01*
X152838729Y-106183448D01*
X152802991Y-106212778D01*
X152802989Y-106212779D01*
X152646467Y-106296443D01*
X152589853Y-106313616D01*
X152476627Y-106347963D01*
X152410443Y-106354481D01*
X152344260Y-106361000D01*
X152255740Y-106361000D01*
X152189557Y-106354481D01*
X152123373Y-106347963D01*
X152010147Y-106313616D01*
X151953533Y-106296443D01*
X151797011Y-106212779D01*
X151797009Y-106212778D01*
X151761271Y-106183448D01*
X151659814Y-106100186D01*
X151565368Y-105985102D01*
X151547222Y-105962991D01*
X151509992Y-105893339D01*
X151463557Y-105806467D01*
X151423981Y-105676000D01*
X151412037Y-105636627D01*
X151394641Y-105460000D01*
X151412037Y-105283373D01*
X151446384Y-105170147D01*
X151463557Y-105113533D01*
X151547221Y-104957011D01*
X151547222Y-104957009D01*
X151587072Y-104908452D01*
X151659814Y-104819814D01*
X151788292Y-104714376D01*
X151797009Y-104707222D01*
X151814913Y-104697652D01*
X151953533Y-104623557D01*
X152050483Y-104594148D01*
X152123373Y-104572037D01*
X152207280Y-104563773D01*
X152255740Y-104559000D01*
X152344260Y-104559000D01*
X152392720Y-104563773D01*
X152392720Y-104563773D01*
G37*
G36*
X156788677Y-104853465D02*
X156826364Y-104864898D01*
X156861103Y-104883466D01*
X156891548Y-104908452D01*
X156916534Y-104938897D01*
X156935102Y-104973636D01*
X156946535Y-105011323D01*
X156951000Y-105056661D01*
X156951000Y-105893339D01*
X156946535Y-105938677D01*
X156935102Y-105976364D01*
X156916534Y-106011103D01*
X156891548Y-106041548D01*
X156861103Y-106066534D01*
X156826364Y-106085102D01*
X156788677Y-106096535D01*
X156743339Y-106101000D01*
X155656661Y-106101000D01*
X155611323Y-106096535D01*
X155573636Y-106085102D01*
X155538897Y-106066534D01*
X155508452Y-106041548D01*
X155483466Y-106011103D01*
X155464898Y-105976364D01*
X155453465Y-105938677D01*
X155449000Y-105893339D01*
X155449000Y-105056661D01*
X155453465Y-105011323D01*
X155464898Y-104973636D01*
X155483466Y-104938897D01*
X155508452Y-104908452D01*
X155538897Y-104883466D01*
X155573636Y-104864898D01*
X155611323Y-104853465D01*
X155656661Y-104849000D01*
X156743339Y-104849000D01*
X156788677Y-104853465D01*
X156788677Y-104853465D01*
G37*
G36*
X165175562Y-104553181D02*
X165210477Y-104563773D01*
X165242665Y-104580978D01*
X165270873Y-104604127D01*
X165294022Y-104632335D01*
X165311227Y-104664523D01*
X165321819Y-104699438D01*
X165326000Y-104741895D01*
X165326000Y-105883105D01*
X165321819Y-105925562D01*
X165311227Y-105960477D01*
X165294022Y-105992665D01*
X165270873Y-106020873D01*
X165242665Y-106044022D01*
X165210477Y-106061227D01*
X165175562Y-106071819D01*
X165133105Y-106076000D01*
X163666895Y-106076000D01*
X163624438Y-106071819D01*
X163589523Y-106061227D01*
X163557335Y-106044022D01*
X163529127Y-106020873D01*
X163505978Y-105992665D01*
X163488773Y-105960477D01*
X163478181Y-105925562D01*
X163474000Y-105883105D01*
X163474000Y-104741895D01*
X163478181Y-104699438D01*
X163488773Y-104664523D01*
X163505978Y-104632335D01*
X163529127Y-104604127D01*
X163557335Y-104580978D01*
X163589523Y-104563773D01*
X163624438Y-104553181D01*
X163666895Y-104549000D01*
X165133105Y-104549000D01*
X165175562Y-104553181D01*
X165175562Y-104553181D01*
G37*
G36*
X159675562Y-104553181D02*
X159710477Y-104563773D01*
X159742665Y-104580978D01*
X159770873Y-104604127D01*
X159794022Y-104632335D01*
X159811227Y-104664523D01*
X159821819Y-104699438D01*
X159826000Y-104741895D01*
X159826000Y-105883105D01*
X159821819Y-105925562D01*
X159811227Y-105960477D01*
X159794022Y-105992665D01*
X159770873Y-106020873D01*
X159742665Y-106044022D01*
X159710477Y-106061227D01*
X159675562Y-106071819D01*
X159633105Y-106076000D01*
X158166895Y-106076000D01*
X158124438Y-106071819D01*
X158089523Y-106061227D01*
X158057335Y-106044022D01*
X158029127Y-106020873D01*
X158005978Y-105992665D01*
X157988773Y-105960477D01*
X157978181Y-105925562D01*
X157974000Y-105883105D01*
X157974000Y-104741895D01*
X157978181Y-104699438D01*
X157988773Y-104664523D01*
X158005978Y-104632335D01*
X158029127Y-104604127D01*
X158057335Y-104580978D01*
X158089523Y-104563773D01*
X158124438Y-104553181D01*
X158166895Y-104549000D01*
X159633105Y-104549000D01*
X159675562Y-104553181D01*
X159675562Y-104553181D01*
G37*
G36*
X162188677Y-104753465D02*
X162226364Y-104764898D01*
X162261103Y-104783466D01*
X162291548Y-104808452D01*
X162316534Y-104838897D01*
X162335102Y-104873636D01*
X162346535Y-104911323D01*
X162351000Y-104956661D01*
X162351000Y-105793339D01*
X162346535Y-105838677D01*
X162335102Y-105876364D01*
X162316534Y-105911103D01*
X162291548Y-105941548D01*
X162261103Y-105966534D01*
X162226364Y-105985102D01*
X162188677Y-105996535D01*
X162143339Y-106001000D01*
X161056661Y-106001000D01*
X161011323Y-105996535D01*
X160973636Y-105985102D01*
X160938897Y-105966534D01*
X160908452Y-105941548D01*
X160883466Y-105911103D01*
X160864898Y-105876364D01*
X160853465Y-105838677D01*
X160849000Y-105793339D01*
X160849000Y-104956661D01*
X160853465Y-104911323D01*
X160864898Y-104873636D01*
X160883466Y-104838897D01*
X160908452Y-104808452D01*
X160938897Y-104783466D01*
X160973636Y-104764898D01*
X161011323Y-104753465D01*
X161056661Y-104749000D01*
X162143339Y-104749000D01*
X162188677Y-104753465D01*
X162188677Y-104753465D01*
G37*
G36*
X167688677Y-104753465D02*
X167726364Y-104764898D01*
X167761103Y-104783466D01*
X167791548Y-104808452D01*
X167816534Y-104838897D01*
X167835102Y-104873636D01*
X167846535Y-104911323D01*
X167851000Y-104956661D01*
X167851000Y-105793339D01*
X167846535Y-105838677D01*
X167835102Y-105876364D01*
X167816534Y-105911103D01*
X167791548Y-105941548D01*
X167761103Y-105966534D01*
X167726364Y-105985102D01*
X167688677Y-105996535D01*
X167643339Y-106001000D01*
X166556661Y-106001000D01*
X166511323Y-105996535D01*
X166473636Y-105985102D01*
X166438897Y-105966534D01*
X166408452Y-105941548D01*
X166383466Y-105911103D01*
X166364898Y-105876364D01*
X166353465Y-105838677D01*
X166349000Y-105793339D01*
X166349000Y-104956661D01*
X166353465Y-104911323D01*
X166364898Y-104873636D01*
X166383466Y-104838897D01*
X166408452Y-104808452D01*
X166438897Y-104783466D01*
X166473636Y-104764898D01*
X166511323Y-104753465D01*
X166556661Y-104749000D01*
X167643339Y-104749000D01*
X167688677Y-104753465D01*
X167688677Y-104753465D01*
G37*
G36*
X138275562Y-104153181D02*
X138310477Y-104163773D01*
X138342665Y-104180978D01*
X138370873Y-104204127D01*
X138394022Y-104232335D01*
X138411227Y-104264523D01*
X138421819Y-104299438D01*
X138426000Y-104341895D01*
X138426000Y-105483105D01*
X138421819Y-105525562D01*
X138411227Y-105560477D01*
X138394022Y-105592665D01*
X138370873Y-105620873D01*
X138342665Y-105644022D01*
X138310477Y-105661227D01*
X138275562Y-105671819D01*
X138233105Y-105676000D01*
X136766895Y-105676000D01*
X136724438Y-105671819D01*
X136689523Y-105661227D01*
X136657335Y-105644022D01*
X136629127Y-105620873D01*
X136605978Y-105592665D01*
X136588773Y-105560477D01*
X136578181Y-105525562D01*
X136574000Y-105483105D01*
X136574000Y-104341895D01*
X136578181Y-104299438D01*
X136588773Y-104264523D01*
X136605978Y-104232335D01*
X136629127Y-104204127D01*
X136657335Y-104180978D01*
X136689523Y-104163773D01*
X136724438Y-104153181D01*
X136766895Y-104149000D01*
X138233105Y-104149000D01*
X138275562Y-104153181D01*
X138275562Y-104153181D01*
G37*
G36*
X125551000Y-105401000D02*
X123849000Y-105401000D01*
X123849000Y-101799000D01*
X125551000Y-101799000D01*
X125551000Y-105401000D01*
X125551000Y-105401000D01*
G37*
G36*
X134501000Y-104901000D02*
X132699000Y-104901000D01*
X132699000Y-103099000D01*
X134501000Y-103099000D01*
X134501000Y-104901000D01*
X134501000Y-104901000D01*
G37*
G36*
X130675562Y-103028181D02*
X130710477Y-103038773D01*
X130742665Y-103055978D01*
X130770873Y-103079127D01*
X130794022Y-103107335D01*
X130811227Y-103139523D01*
X130821819Y-103174438D01*
X130826000Y-103216895D01*
X130826000Y-104358105D01*
X130821819Y-104400562D01*
X130811227Y-104435477D01*
X130794022Y-104467665D01*
X130770873Y-104495873D01*
X130742665Y-104519022D01*
X130710477Y-104536227D01*
X130675562Y-104546819D01*
X130633105Y-104551000D01*
X129166895Y-104551000D01*
X129124438Y-104546819D01*
X129089523Y-104536227D01*
X129057335Y-104519022D01*
X129029127Y-104495873D01*
X129005978Y-104467665D01*
X128988773Y-104435477D01*
X128978181Y-104400562D01*
X128974000Y-104358105D01*
X128974000Y-103216895D01*
X128978181Y-103174438D01*
X128988773Y-103139523D01*
X129005978Y-103107335D01*
X129029127Y-103079127D01*
X129057335Y-103055978D01*
X129089523Y-103038773D01*
X129124438Y-103028181D01*
X129166895Y-103024000D01*
X130633105Y-103024000D01*
X130675562Y-103028181D01*
X130675562Y-103028181D01*
G37*
G36*
X146351000Y-103701000D02*
X144649000Y-103701000D01*
X144649000Y-100099000D01*
X146351000Y-100099000D01*
X146351000Y-103701000D01*
X146351000Y-103701000D01*
G37*
G36*
X166225562Y-101778181D02*
X166260477Y-101788773D01*
X166292665Y-101805978D01*
X166320873Y-101829127D01*
X166344022Y-101857335D01*
X166361227Y-101889523D01*
X166371819Y-101924438D01*
X166376000Y-101966895D01*
X166376000Y-103433105D01*
X166371819Y-103475562D01*
X166361227Y-103510477D01*
X166344022Y-103542665D01*
X166320873Y-103570873D01*
X166292665Y-103594022D01*
X166260477Y-103611227D01*
X166225562Y-103621819D01*
X166183105Y-103626000D01*
X165041895Y-103626000D01*
X164999438Y-103621819D01*
X164964523Y-103611227D01*
X164932335Y-103594022D01*
X164904127Y-103570873D01*
X164880978Y-103542665D01*
X164863773Y-103510477D01*
X164853181Y-103475562D01*
X164849000Y-103433105D01*
X164849000Y-101966895D01*
X164853181Y-101924438D01*
X164863773Y-101889523D01*
X164880978Y-101857335D01*
X164904127Y-101829127D01*
X164932335Y-101805978D01*
X164964523Y-101788773D01*
X164999438Y-101778181D01*
X165041895Y-101774000D01*
X166183105Y-101774000D01*
X166225562Y-101778181D01*
X166225562Y-101778181D01*
G37*
G36*
X169200562Y-101778181D02*
X169235477Y-101788773D01*
X169267665Y-101805978D01*
X169295873Y-101829127D01*
X169319022Y-101857335D01*
X169336227Y-101889523D01*
X169346819Y-101924438D01*
X169351000Y-101966895D01*
X169351000Y-103433105D01*
X169346819Y-103475562D01*
X169336227Y-103510477D01*
X169319022Y-103542665D01*
X169295873Y-103570873D01*
X169267665Y-103594022D01*
X169235477Y-103611227D01*
X169200562Y-103621819D01*
X169158105Y-103626000D01*
X168016895Y-103626000D01*
X167974438Y-103621819D01*
X167939523Y-103611227D01*
X167907335Y-103594022D01*
X167879127Y-103570873D01*
X167855978Y-103542665D01*
X167838773Y-103510477D01*
X167828181Y-103475562D01*
X167824000Y-103433105D01*
X167824000Y-101966895D01*
X167828181Y-101924438D01*
X167838773Y-101889523D01*
X167855978Y-101857335D01*
X167879127Y-101829127D01*
X167907335Y-101805978D01*
X167939523Y-101788773D01*
X167974438Y-101778181D01*
X168016895Y-101774000D01*
X169158105Y-101774000D01*
X169200562Y-101778181D01*
X169200562Y-101778181D01*
G37*
G36*
X141075562Y-101928181D02*
X141110477Y-101938773D01*
X141142665Y-101955978D01*
X141170873Y-101979127D01*
X141194022Y-102007335D01*
X141211227Y-102039523D01*
X141221819Y-102074438D01*
X141226000Y-102116895D01*
X141226000Y-103258105D01*
X141221819Y-103300562D01*
X141211227Y-103335477D01*
X141194022Y-103367665D01*
X141170873Y-103395873D01*
X141142665Y-103419022D01*
X141110477Y-103436227D01*
X141075562Y-103446819D01*
X141033105Y-103451000D01*
X139566895Y-103451000D01*
X139524438Y-103446819D01*
X139489523Y-103436227D01*
X139457335Y-103419022D01*
X139429127Y-103395873D01*
X139405978Y-103367665D01*
X139388773Y-103335477D01*
X139378181Y-103300562D01*
X139374000Y-103258105D01*
X139374000Y-102116895D01*
X139378181Y-102074438D01*
X139388773Y-102039523D01*
X139405978Y-102007335D01*
X139429127Y-101979127D01*
X139457335Y-101955978D01*
X139489523Y-101938773D01*
X139524438Y-101928181D01*
X139566895Y-101924000D01*
X141033105Y-101924000D01*
X141075562Y-101928181D01*
X141075562Y-101928181D01*
G37*
G36*
X138275562Y-101928181D02*
X138310477Y-101938773D01*
X138342665Y-101955978D01*
X138370873Y-101979127D01*
X138394022Y-102007335D01*
X138411227Y-102039523D01*
X138421819Y-102074438D01*
X138426000Y-102116895D01*
X138426000Y-103258105D01*
X138421819Y-103300562D01*
X138411227Y-103335477D01*
X138394022Y-103367665D01*
X138370873Y-103395873D01*
X138342665Y-103419022D01*
X138310477Y-103436227D01*
X138275562Y-103446819D01*
X138233105Y-103451000D01*
X136766895Y-103451000D01*
X136724438Y-103446819D01*
X136689523Y-103436227D01*
X136657335Y-103419022D01*
X136629127Y-103395873D01*
X136605978Y-103367665D01*
X136588773Y-103335477D01*
X136578181Y-103300562D01*
X136574000Y-103258105D01*
X136574000Y-102116895D01*
X136578181Y-102074438D01*
X136588773Y-102039523D01*
X136605978Y-102007335D01*
X136629127Y-101979127D01*
X136657335Y-101955978D01*
X136689523Y-101938773D01*
X136724438Y-101928181D01*
X136766895Y-101924000D01*
X138233105Y-101924000D01*
X138275562Y-101928181D01*
X138275562Y-101928181D01*
G37*
G36*
X171539499Y-102178445D02*
X171576993Y-102189819D01*
X171611557Y-102208294D01*
X171641847Y-102233153D01*
X171666706Y-102263443D01*
X171685181Y-102298007D01*
X171696555Y-102335501D01*
X171701000Y-102380638D01*
X171701000Y-103019362D01*
X171696555Y-103064499D01*
X171685181Y-103101993D01*
X171666706Y-103136557D01*
X171641847Y-103166847D01*
X171611557Y-103191706D01*
X171576993Y-103210181D01*
X171539499Y-103221555D01*
X171494362Y-103226000D01*
X170755638Y-103226000D01*
X170710501Y-103221555D01*
X170673007Y-103210181D01*
X170638443Y-103191706D01*
X170608153Y-103166847D01*
X170583294Y-103136557D01*
X170564819Y-103101993D01*
X170553445Y-103064499D01*
X170549000Y-103019362D01*
X170549000Y-102380638D01*
X170553445Y-102335501D01*
X170564819Y-102298007D01*
X170583294Y-102263443D01*
X170608153Y-102233153D01*
X170638443Y-102208294D01*
X170673007Y-102189819D01*
X170710501Y-102178445D01*
X170755638Y-102174000D01*
X171494362Y-102174000D01*
X171539499Y-102178445D01*
X171539499Y-102178445D01*
G37*
G36*
X173289499Y-102178445D02*
X173326993Y-102189819D01*
X173361557Y-102208294D01*
X173391847Y-102233153D01*
X173416706Y-102263443D01*
X173435181Y-102298007D01*
X173446555Y-102335501D01*
X173451000Y-102380638D01*
X173451000Y-103019362D01*
X173446555Y-103064499D01*
X173435181Y-103101993D01*
X173416706Y-103136557D01*
X173391847Y-103166847D01*
X173361557Y-103191706D01*
X173326993Y-103210181D01*
X173289499Y-103221555D01*
X173244362Y-103226000D01*
X172505638Y-103226000D01*
X172460501Y-103221555D01*
X172423007Y-103210181D01*
X172388443Y-103191706D01*
X172358153Y-103166847D01*
X172333294Y-103136557D01*
X172314819Y-103101993D01*
X172303445Y-103064499D01*
X172299000Y-103019362D01*
X172299000Y-102380638D01*
X172303445Y-102335501D01*
X172314819Y-102298007D01*
X172333294Y-102263443D01*
X172358153Y-102233153D01*
X172388443Y-102208294D01*
X172423007Y-102189819D01*
X172460501Y-102178445D01*
X172505638Y-102174000D01*
X173244362Y-102174000D01*
X173289499Y-102178445D01*
X173289499Y-102178445D01*
G37*
G36*
X151188677Y-101703465D02*
X151226364Y-101714898D01*
X151261103Y-101733466D01*
X151291548Y-101758452D01*
X151316534Y-101788897D01*
X151335102Y-101823636D01*
X151346535Y-101861323D01*
X151351000Y-101906661D01*
X151351000Y-102993339D01*
X151346535Y-103038677D01*
X151335102Y-103076364D01*
X151316534Y-103111103D01*
X151291548Y-103141548D01*
X151261103Y-103166534D01*
X151226364Y-103185102D01*
X151188677Y-103196535D01*
X151143339Y-103201000D01*
X150306661Y-103201000D01*
X150261323Y-103196535D01*
X150223636Y-103185102D01*
X150188897Y-103166534D01*
X150158452Y-103141548D01*
X150133466Y-103111103D01*
X150114898Y-103076364D01*
X150103465Y-103038677D01*
X150099000Y-102993339D01*
X150099000Y-101906661D01*
X150103465Y-101861323D01*
X150114898Y-101823636D01*
X150133466Y-101788897D01*
X150158452Y-101758452D01*
X150188897Y-101733466D01*
X150223636Y-101714898D01*
X150261323Y-101703465D01*
X150306661Y-101699000D01*
X151143339Y-101699000D01*
X151188677Y-101703465D01*
X151188677Y-101703465D01*
G37*
G36*
X153238677Y-101703465D02*
X153276364Y-101714898D01*
X153311103Y-101733466D01*
X153341548Y-101758452D01*
X153366534Y-101788897D01*
X153385102Y-101823636D01*
X153396535Y-101861323D01*
X153401000Y-101906661D01*
X153401000Y-102993339D01*
X153396535Y-103038677D01*
X153385102Y-103076364D01*
X153366534Y-103111103D01*
X153341548Y-103141548D01*
X153311103Y-103166534D01*
X153276364Y-103185102D01*
X153238677Y-103196535D01*
X153193339Y-103201000D01*
X152356661Y-103201000D01*
X152311323Y-103196535D01*
X152273636Y-103185102D01*
X152238897Y-103166534D01*
X152208452Y-103141548D01*
X152183466Y-103111103D01*
X152164898Y-103076364D01*
X152153465Y-103038677D01*
X152149000Y-102993339D01*
X152149000Y-101906661D01*
X152153465Y-101861323D01*
X152164898Y-101823636D01*
X152183466Y-101788897D01*
X152208452Y-101758452D01*
X152238897Y-101733466D01*
X152273636Y-101714898D01*
X152311323Y-101703465D01*
X152356661Y-101699000D01*
X153193339Y-101699000D01*
X153238677Y-101703465D01*
X153238677Y-101703465D01*
G37*
G36*
X133710443Y-100565519D02*
X133776627Y-100572037D01*
X133889853Y-100606384D01*
X133946467Y-100623557D01*
X134085087Y-100697652D01*
X134102991Y-100707222D01*
X134138729Y-100736552D01*
X134240186Y-100819814D01*
X134300578Y-100893403D01*
X134352778Y-100957009D01*
X134352779Y-100957011D01*
X134436443Y-101113533D01*
X134436443Y-101113534D01*
X134487963Y-101283373D01*
X134505359Y-101460000D01*
X134487963Y-101636627D01*
X134469042Y-101699000D01*
X134436443Y-101806467D01*
X134370868Y-101929148D01*
X134352778Y-101962991D01*
X134347725Y-101969148D01*
X134240186Y-102100186D01*
X134150242Y-102174000D01*
X134102991Y-102212778D01*
X134102989Y-102212779D01*
X133946467Y-102296443D01*
X133889853Y-102313616D01*
X133776627Y-102347963D01*
X133710442Y-102354482D01*
X133644260Y-102361000D01*
X133555740Y-102361000D01*
X133489557Y-102354481D01*
X133423373Y-102347963D01*
X133310147Y-102313616D01*
X133253533Y-102296443D01*
X133097011Y-102212779D01*
X133097009Y-102212778D01*
X133049758Y-102174000D01*
X132959814Y-102100186D01*
X132852275Y-101969148D01*
X132847222Y-101962991D01*
X132829132Y-101929148D01*
X132763557Y-101806467D01*
X132730958Y-101699000D01*
X132712037Y-101636627D01*
X132694641Y-101460000D01*
X132712037Y-101283373D01*
X132763557Y-101113534D01*
X132763557Y-101113533D01*
X132847221Y-100957011D01*
X132847222Y-100957009D01*
X132899422Y-100893403D01*
X132959814Y-100819814D01*
X133061271Y-100736552D01*
X133097009Y-100707222D01*
X133114913Y-100697652D01*
X133253533Y-100623557D01*
X133310147Y-100606384D01*
X133423373Y-100572037D01*
X133489557Y-100565519D01*
X133555740Y-100559000D01*
X133644260Y-100559000D01*
X133710443Y-100565519D01*
X133710443Y-100565519D01*
G37*
G36*
X160441252Y-98383999D02*
X160443654Y-98408385D01*
X160450767Y-98431834D01*
X160462318Y-98453445D01*
X160477864Y-98472387D01*
X160496806Y-98487933D01*
X160518417Y-98499484D01*
X160541866Y-98506597D01*
X160566252Y-98508999D01*
X161451000Y-98508999D01*
X161451000Y-100891001D01*
X160566252Y-100891001D01*
X160541866Y-100893403D01*
X160518417Y-100900516D01*
X160496806Y-100912067D01*
X160477864Y-100927613D01*
X160462318Y-100946555D01*
X160450767Y-100968166D01*
X160443654Y-100991615D01*
X160441252Y-101016001D01*
X160441252Y-101901000D01*
X158058748Y-101901000D01*
X158058748Y-101016001D01*
X158056346Y-100991615D01*
X158049233Y-100968166D01*
X158037682Y-100946555D01*
X158022136Y-100927613D01*
X158003194Y-100912067D01*
X157981583Y-100900516D01*
X157958134Y-100893403D01*
X157933748Y-100891001D01*
X157049000Y-100891001D01*
X157049000Y-98508999D01*
X157933748Y-98508999D01*
X157958134Y-98506597D01*
X157981583Y-98499484D01*
X158003194Y-98487933D01*
X158022136Y-98472387D01*
X158037682Y-98453445D01*
X158049233Y-98431834D01*
X158056346Y-98408385D01*
X158058748Y-98383999D01*
X158058748Y-97499000D01*
X160441252Y-97499000D01*
X160441252Y-98383999D01*
X160441252Y-98383999D01*
G37*
G36*
X130675562Y-100053181D02*
X130710477Y-100063773D01*
X130742665Y-100080978D01*
X130770873Y-100104127D01*
X130794022Y-100132335D01*
X130811227Y-100164523D01*
X130821819Y-100199438D01*
X130826000Y-100241895D01*
X130826000Y-101383105D01*
X130821819Y-101425562D01*
X130811227Y-101460477D01*
X130794022Y-101492665D01*
X130770873Y-101520873D01*
X130742665Y-101544022D01*
X130710477Y-101561227D01*
X130675562Y-101571819D01*
X130633105Y-101576000D01*
X129166895Y-101576000D01*
X129124438Y-101571819D01*
X129089523Y-101561227D01*
X129057335Y-101544022D01*
X129029127Y-101520873D01*
X129005978Y-101492665D01*
X128988773Y-101460477D01*
X128978181Y-101425562D01*
X128974000Y-101383105D01*
X128974000Y-100241895D01*
X128978181Y-100199438D01*
X128988773Y-100164523D01*
X129005978Y-100132335D01*
X129029127Y-100104127D01*
X129057335Y-100080978D01*
X129089523Y-100063773D01*
X129124438Y-100053181D01*
X129166895Y-100049000D01*
X130633105Y-100049000D01*
X130675562Y-100053181D01*
X130675562Y-100053181D01*
G37*
G36*
X138275562Y-98953181D02*
X138310477Y-98963773D01*
X138342665Y-98980978D01*
X138370873Y-99004127D01*
X138394022Y-99032335D01*
X138411227Y-99064523D01*
X138421819Y-99099438D01*
X138426000Y-99141895D01*
X138426000Y-100283105D01*
X138421819Y-100325562D01*
X138411227Y-100360477D01*
X138394022Y-100392665D01*
X138370873Y-100420873D01*
X138342665Y-100444022D01*
X138310477Y-100461227D01*
X138275562Y-100471819D01*
X138233105Y-100476000D01*
X136766895Y-100476000D01*
X136724438Y-100471819D01*
X136689523Y-100461227D01*
X136657335Y-100444022D01*
X136629127Y-100420873D01*
X136605978Y-100392665D01*
X136588773Y-100360477D01*
X136578181Y-100325562D01*
X136574000Y-100283105D01*
X136574000Y-99141895D01*
X136578181Y-99099438D01*
X136588773Y-99064523D01*
X136605978Y-99032335D01*
X136629127Y-99004127D01*
X136657335Y-98980978D01*
X136689523Y-98963773D01*
X136724438Y-98953181D01*
X136766895Y-98949000D01*
X138233105Y-98949000D01*
X138275562Y-98953181D01*
X138275562Y-98953181D01*
G37*
G36*
X141075562Y-98953181D02*
X141110477Y-98963773D01*
X141142665Y-98980978D01*
X141170873Y-99004127D01*
X141194022Y-99032335D01*
X141211227Y-99064523D01*
X141221819Y-99099438D01*
X141226000Y-99141895D01*
X141226000Y-100283105D01*
X141221819Y-100325562D01*
X141211227Y-100360477D01*
X141194022Y-100392665D01*
X141170873Y-100420873D01*
X141142665Y-100444022D01*
X141110477Y-100461227D01*
X141075562Y-100471819D01*
X141033105Y-100476000D01*
X139566895Y-100476000D01*
X139524438Y-100471819D01*
X139489523Y-100461227D01*
X139457335Y-100444022D01*
X139429127Y-100420873D01*
X139405978Y-100392665D01*
X139388773Y-100360477D01*
X139378181Y-100325562D01*
X139374000Y-100283105D01*
X139374000Y-99141895D01*
X139378181Y-99099438D01*
X139388773Y-99064523D01*
X139405978Y-99032335D01*
X139429127Y-99004127D01*
X139457335Y-98980978D01*
X139489523Y-98963773D01*
X139524438Y-98953181D01*
X139566895Y-98949000D01*
X141033105Y-98949000D01*
X141075562Y-98953181D01*
X141075562Y-98953181D01*
G37*
G36*
X164610443Y-98245519D02*
X164676627Y-98252037D01*
X164789853Y-98286384D01*
X164846467Y-98303557D01*
X164985087Y-98377652D01*
X165002991Y-98387222D01*
X165028778Y-98408385D01*
X165140186Y-98499814D01*
X165198837Y-98571282D01*
X165252778Y-98637009D01*
X165252779Y-98637011D01*
X165336443Y-98793533D01*
X165336443Y-98793534D01*
X165387963Y-98963373D01*
X165405359Y-99140000D01*
X165387963Y-99316627D01*
X165381983Y-99336340D01*
X165336443Y-99486467D01*
X165275982Y-99599579D01*
X165252778Y-99642991D01*
X165223448Y-99678729D01*
X165140186Y-99780186D01*
X165046841Y-99856791D01*
X165002991Y-99892778D01*
X165002989Y-99892779D01*
X164846467Y-99976443D01*
X164789853Y-99993616D01*
X164676627Y-100027963D01*
X164610443Y-100034481D01*
X164544260Y-100041000D01*
X164455740Y-100041000D01*
X164389557Y-100034481D01*
X164323373Y-100027963D01*
X164210147Y-99993616D01*
X164153533Y-99976443D01*
X163997011Y-99892779D01*
X163997009Y-99892778D01*
X163953159Y-99856791D01*
X163859814Y-99780186D01*
X163776552Y-99678729D01*
X163747222Y-99642991D01*
X163724018Y-99599579D01*
X163663557Y-99486467D01*
X163618017Y-99336340D01*
X163612037Y-99316627D01*
X163594641Y-99140000D01*
X163612037Y-98963373D01*
X163663557Y-98793534D01*
X163663557Y-98793533D01*
X163747221Y-98637011D01*
X163747222Y-98637009D01*
X163801163Y-98571282D01*
X163859814Y-98499814D01*
X163971222Y-98408385D01*
X163997009Y-98387222D01*
X164014913Y-98377652D01*
X164153533Y-98303557D01*
X164210147Y-98286384D01*
X164323373Y-98252037D01*
X164389558Y-98245518D01*
X164455740Y-98239000D01*
X164544260Y-98239000D01*
X164610443Y-98245519D01*
X164610443Y-98245519D01*
G37*
G36*
X168910443Y-98245519D02*
X168976627Y-98252037D01*
X169089853Y-98286384D01*
X169146467Y-98303557D01*
X169285087Y-98377652D01*
X169302991Y-98387222D01*
X169328778Y-98408385D01*
X169440186Y-98499814D01*
X169498837Y-98571282D01*
X169552778Y-98637009D01*
X169552779Y-98637011D01*
X169636443Y-98793533D01*
X169636443Y-98793534D01*
X169687963Y-98963373D01*
X169705359Y-99140000D01*
X169687963Y-99316627D01*
X169681983Y-99336340D01*
X169636443Y-99486467D01*
X169575982Y-99599579D01*
X169552778Y-99642991D01*
X169523448Y-99678729D01*
X169440186Y-99780186D01*
X169346841Y-99856791D01*
X169302991Y-99892778D01*
X169302989Y-99892779D01*
X169146467Y-99976443D01*
X169089853Y-99993616D01*
X168976627Y-100027963D01*
X168910443Y-100034481D01*
X168844260Y-100041000D01*
X168755740Y-100041000D01*
X168689557Y-100034481D01*
X168623373Y-100027963D01*
X168510147Y-99993616D01*
X168453533Y-99976443D01*
X168297011Y-99892779D01*
X168297009Y-99892778D01*
X168253159Y-99856791D01*
X168159814Y-99780186D01*
X168076552Y-99678729D01*
X168047222Y-99642991D01*
X168024018Y-99599579D01*
X167963557Y-99486467D01*
X167918017Y-99336340D01*
X167912037Y-99316627D01*
X167894641Y-99140000D01*
X167912037Y-98963373D01*
X167963557Y-98793534D01*
X167963557Y-98793533D01*
X168047221Y-98637011D01*
X168047222Y-98637009D01*
X168101163Y-98571282D01*
X168159814Y-98499814D01*
X168271222Y-98408385D01*
X168297009Y-98387222D01*
X168314913Y-98377652D01*
X168453533Y-98303557D01*
X168510147Y-98286384D01*
X168623373Y-98252037D01*
X168689558Y-98245518D01*
X168755740Y-98239000D01*
X168844260Y-98239000D01*
X168910443Y-98245519D01*
X168910443Y-98245519D01*
G37*
G36*
X125551000Y-99801000D02*
X123849000Y-99801000D01*
X123849000Y-96199000D01*
X125551000Y-96199000D01*
X125551000Y-99801000D01*
X125551000Y-99801000D01*
G37*
G36*
X148051000Y-98751000D02*
X146249000Y-98751000D01*
X146249000Y-96949000D01*
X148051000Y-96949000D01*
X148051000Y-98751000D01*
X148051000Y-98751000D01*
G37*
G36*
X130288677Y-97403465D02*
X130326364Y-97414898D01*
X130361103Y-97433466D01*
X130391548Y-97458452D01*
X130416534Y-97488897D01*
X130435102Y-97523636D01*
X130446535Y-97561323D01*
X130451000Y-97606661D01*
X130451000Y-98443339D01*
X130446535Y-98488677D01*
X130435102Y-98526364D01*
X130416534Y-98561103D01*
X130391548Y-98591548D01*
X130361103Y-98616534D01*
X130326364Y-98635102D01*
X130288677Y-98646535D01*
X130243339Y-98651000D01*
X129156661Y-98651000D01*
X129111323Y-98646535D01*
X129073636Y-98635102D01*
X129038897Y-98616534D01*
X129008452Y-98591548D01*
X128983466Y-98561103D01*
X128964898Y-98526364D01*
X128953465Y-98488677D01*
X128949000Y-98443339D01*
X128949000Y-97606661D01*
X128953465Y-97561323D01*
X128964898Y-97523636D01*
X128983466Y-97488897D01*
X129008452Y-97458452D01*
X129038897Y-97433466D01*
X129073636Y-97414898D01*
X129111323Y-97403465D01*
X129156661Y-97399000D01*
X130243339Y-97399000D01*
X130288677Y-97403465D01*
X130288677Y-97403465D01*
G37*
G36*
X152056000Y-98156700D02*
X150974000Y-98156700D01*
X150974000Y-94654700D01*
X152056000Y-94654700D01*
X152056000Y-98156700D01*
X152056000Y-98156700D01*
G37*
G36*
X154426000Y-98156700D02*
X153344000Y-98156700D01*
X153344000Y-94654700D01*
X154426000Y-94654700D01*
X154426000Y-98156700D01*
X154426000Y-98156700D01*
G37*
G36*
X144588677Y-96903465D02*
X144626364Y-96914898D01*
X144661103Y-96933466D01*
X144691548Y-96958452D01*
X144716534Y-96988897D01*
X144735102Y-97023636D01*
X144746535Y-97061323D01*
X144751000Y-97106661D01*
X144751000Y-97943339D01*
X144746535Y-97988677D01*
X144735102Y-98026364D01*
X144716534Y-98061103D01*
X144691548Y-98091548D01*
X144661103Y-98116534D01*
X144626364Y-98135102D01*
X144588677Y-98146535D01*
X144543339Y-98151000D01*
X143456661Y-98151000D01*
X143411323Y-98146535D01*
X143373636Y-98135102D01*
X143338897Y-98116534D01*
X143308452Y-98091548D01*
X143283466Y-98061103D01*
X143264898Y-98026364D01*
X143253465Y-97988677D01*
X143249000Y-97943339D01*
X143249000Y-97106661D01*
X143253465Y-97061323D01*
X143264898Y-97023636D01*
X143283466Y-96988897D01*
X143308452Y-96958452D01*
X143338897Y-96933466D01*
X143373636Y-96914898D01*
X143411323Y-96903465D01*
X143456661Y-96899000D01*
X144543339Y-96899000D01*
X144588677Y-96903465D01*
X144588677Y-96903465D01*
G37*
G36*
X139788677Y-96653465D02*
X139826364Y-96664898D01*
X139861103Y-96683466D01*
X139891548Y-96708452D01*
X139916534Y-96738897D01*
X139935102Y-96773636D01*
X139946535Y-96811323D01*
X139951000Y-96856661D01*
X139951000Y-97943339D01*
X139946535Y-97988677D01*
X139935102Y-98026364D01*
X139916534Y-98061103D01*
X139891548Y-98091548D01*
X139861103Y-98116534D01*
X139826364Y-98135102D01*
X139788677Y-98146535D01*
X139743339Y-98151000D01*
X138906661Y-98151000D01*
X138861323Y-98146535D01*
X138823636Y-98135102D01*
X138788897Y-98116534D01*
X138758452Y-98091548D01*
X138733466Y-98061103D01*
X138714898Y-98026364D01*
X138703465Y-97988677D01*
X138699000Y-97943339D01*
X138699000Y-96856661D01*
X138703465Y-96811323D01*
X138714898Y-96773636D01*
X138733466Y-96738897D01*
X138758452Y-96708452D01*
X138788897Y-96683466D01*
X138823636Y-96664898D01*
X138861323Y-96653465D01*
X138906661Y-96649000D01*
X139743339Y-96649000D01*
X139788677Y-96653465D01*
X139788677Y-96653465D01*
G37*
G36*
X142088677Y-96903465D02*
X142126364Y-96914898D01*
X142161103Y-96933466D01*
X142191548Y-96958452D01*
X142216534Y-96988897D01*
X142235102Y-97023636D01*
X142246535Y-97061323D01*
X142251000Y-97106661D01*
X142251000Y-97943339D01*
X142246535Y-97988677D01*
X142235102Y-98026364D01*
X142216534Y-98061103D01*
X142191548Y-98091548D01*
X142161103Y-98116534D01*
X142126364Y-98135102D01*
X142088677Y-98146535D01*
X142043339Y-98151000D01*
X140956661Y-98151000D01*
X140911323Y-98146535D01*
X140873636Y-98135102D01*
X140838897Y-98116534D01*
X140808452Y-98091548D01*
X140783466Y-98061103D01*
X140764898Y-98026364D01*
X140753465Y-97988677D01*
X140749000Y-97943339D01*
X140749000Y-97106661D01*
X140753465Y-97061323D01*
X140764898Y-97023636D01*
X140783466Y-96988897D01*
X140808452Y-96958452D01*
X140838897Y-96933466D01*
X140873636Y-96914898D01*
X140911323Y-96903465D01*
X140956661Y-96899000D01*
X142043339Y-96899000D01*
X142088677Y-96903465D01*
X142088677Y-96903465D01*
G37*
G36*
X137738677Y-96653465D02*
X137776364Y-96664898D01*
X137811103Y-96683466D01*
X137841548Y-96708452D01*
X137866534Y-96738897D01*
X137885102Y-96773636D01*
X137896535Y-96811323D01*
X137901000Y-96856661D01*
X137901000Y-97943339D01*
X137896535Y-97988677D01*
X137885102Y-98026364D01*
X137866534Y-98061103D01*
X137841548Y-98091548D01*
X137811103Y-98116534D01*
X137776364Y-98135102D01*
X137738677Y-98146535D01*
X137693339Y-98151000D01*
X136856661Y-98151000D01*
X136811323Y-98146535D01*
X136773636Y-98135102D01*
X136738897Y-98116534D01*
X136708452Y-98091548D01*
X136683466Y-98061103D01*
X136664898Y-98026364D01*
X136653465Y-97988677D01*
X136649000Y-97943339D01*
X136649000Y-96856661D01*
X136653465Y-96811323D01*
X136664898Y-96773636D01*
X136683466Y-96738897D01*
X136708452Y-96708452D01*
X136738897Y-96683466D01*
X136773636Y-96664898D01*
X136811323Y-96653465D01*
X136856661Y-96649000D01*
X137693339Y-96649000D01*
X137738677Y-96653465D01*
X137738677Y-96653465D01*
G37*
G36*
X169701000Y-97501000D02*
X167899000Y-97501000D01*
X167899000Y-95699000D01*
X169701000Y-95699000D01*
X169701000Y-97501000D01*
X169701000Y-97501000D01*
G37*
G36*
X165401000Y-97501000D02*
X163599000Y-97501000D01*
X163599000Y-95699000D01*
X165401000Y-95699000D01*
X165401000Y-97501000D01*
X165401000Y-97501000D01*
G37*
G36*
X134351000Y-94124000D02*
X134353402Y-94148386D01*
X134360515Y-94171835D01*
X134372066Y-94193446D01*
X134387612Y-94212388D01*
X134406554Y-94227934D01*
X134428165Y-94239485D01*
X134451614Y-94246598D01*
X134476000Y-94249000D01*
X135376000Y-94249000D01*
X135376000Y-96151000D01*
X134476000Y-96151000D01*
X134451614Y-96153402D01*
X134428165Y-96160515D01*
X134406554Y-96172066D01*
X134387612Y-96187612D01*
X134372066Y-96206554D01*
X134360515Y-96228165D01*
X134353402Y-96251614D01*
X134351000Y-96276000D01*
X134351000Y-97176000D01*
X132449000Y-97176000D01*
X132449000Y-96276000D01*
X132446598Y-96251614D01*
X132439485Y-96228165D01*
X132427934Y-96206554D01*
X132412388Y-96187612D01*
X132393446Y-96172066D01*
X132371835Y-96160515D01*
X132348386Y-96153402D01*
X132324000Y-96151000D01*
X131424000Y-96151000D01*
X131424000Y-94249000D01*
X132324000Y-94249000D01*
X132348386Y-94246598D01*
X132371835Y-94239485D01*
X132393446Y-94227934D01*
X132412388Y-94212388D01*
X132427934Y-94193446D01*
X132439485Y-94171835D01*
X132446598Y-94148386D01*
X132449000Y-94124000D01*
X132449000Y-93224000D01*
X134351000Y-93224000D01*
X134351000Y-94124000D01*
X134351000Y-94124000D01*
G37*
G36*
X130288677Y-95353465D02*
X130326364Y-95364898D01*
X130361103Y-95383466D01*
X130391548Y-95408452D01*
X130416534Y-95438897D01*
X130435102Y-95473636D01*
X130446535Y-95511323D01*
X130451000Y-95556661D01*
X130451000Y-96393339D01*
X130446535Y-96438677D01*
X130435102Y-96476364D01*
X130416534Y-96511103D01*
X130391548Y-96541548D01*
X130361103Y-96566534D01*
X130326364Y-96585102D01*
X130288677Y-96596535D01*
X130243339Y-96601000D01*
X129156661Y-96601000D01*
X129111323Y-96596535D01*
X129073636Y-96585102D01*
X129038897Y-96566534D01*
X129008452Y-96541548D01*
X128983466Y-96511103D01*
X128964898Y-96476364D01*
X128953465Y-96438677D01*
X128949000Y-96393339D01*
X128949000Y-95556661D01*
X128953465Y-95511323D01*
X128964898Y-95473636D01*
X128983466Y-95438897D01*
X129008452Y-95408452D01*
X129038897Y-95383466D01*
X129073636Y-95364898D01*
X129111323Y-95353465D01*
X129156661Y-95349000D01*
X130243339Y-95349000D01*
X130288677Y-95353465D01*
X130288677Y-95353465D01*
G37*
G36*
X147260442Y-94415518D02*
X147326627Y-94422037D01*
X147439853Y-94456384D01*
X147496467Y-94473557D01*
X147635087Y-94547652D01*
X147652991Y-94557222D01*
X147688729Y-94586552D01*
X147790186Y-94669814D01*
X147873448Y-94771271D01*
X147902778Y-94807009D01*
X147902779Y-94807011D01*
X147986443Y-94963533D01*
X148000940Y-95011323D01*
X148037963Y-95133373D01*
X148055359Y-95310000D01*
X148037963Y-95486627D01*
X148028744Y-95517017D01*
X147986443Y-95656467D01*
X147963708Y-95699000D01*
X147902778Y-95812991D01*
X147873448Y-95848729D01*
X147790186Y-95950186D01*
X147715957Y-96011103D01*
X147652991Y-96062778D01*
X147652989Y-96062779D01*
X147496467Y-96146443D01*
X147450077Y-96160515D01*
X147326627Y-96197963D01*
X147260443Y-96204481D01*
X147194260Y-96211000D01*
X147105740Y-96211000D01*
X147039557Y-96204481D01*
X146973373Y-96197963D01*
X146849923Y-96160515D01*
X146803533Y-96146443D01*
X146647011Y-96062779D01*
X146647009Y-96062778D01*
X146584043Y-96011103D01*
X146509814Y-95950186D01*
X146426552Y-95848729D01*
X146397222Y-95812991D01*
X146336292Y-95699000D01*
X146313557Y-95656467D01*
X146271256Y-95517017D01*
X146262037Y-95486627D01*
X146244641Y-95310000D01*
X146262037Y-95133373D01*
X146299060Y-95011323D01*
X146313557Y-94963533D01*
X146397221Y-94807011D01*
X146397222Y-94807009D01*
X146426552Y-94771271D01*
X146509814Y-94669814D01*
X146611271Y-94586552D01*
X146647009Y-94557222D01*
X146664913Y-94547652D01*
X146803533Y-94473557D01*
X146860147Y-94456384D01*
X146973373Y-94422037D01*
X147039558Y-94415518D01*
X147105740Y-94409000D01*
X147194260Y-94409000D01*
X147260442Y-94415518D01*
X147260442Y-94415518D01*
G37*
G36*
X144588677Y-94853465D02*
X144626364Y-94864898D01*
X144661103Y-94883466D01*
X144691548Y-94908452D01*
X144716534Y-94938897D01*
X144735102Y-94973636D01*
X144746535Y-95011323D01*
X144751000Y-95056661D01*
X144751000Y-95893339D01*
X144746535Y-95938677D01*
X144735102Y-95976364D01*
X144716534Y-96011103D01*
X144691548Y-96041548D01*
X144661103Y-96066534D01*
X144626364Y-96085102D01*
X144588677Y-96096535D01*
X144543339Y-96101000D01*
X143456661Y-96101000D01*
X143411323Y-96096535D01*
X143373636Y-96085102D01*
X143338897Y-96066534D01*
X143308452Y-96041548D01*
X143283466Y-96011103D01*
X143264898Y-95976364D01*
X143253465Y-95938677D01*
X143249000Y-95893339D01*
X143249000Y-95056661D01*
X143253465Y-95011323D01*
X143264898Y-94973636D01*
X143283466Y-94938897D01*
X143308452Y-94908452D01*
X143338897Y-94883466D01*
X143373636Y-94864898D01*
X143411323Y-94853465D01*
X143456661Y-94849000D01*
X144543339Y-94849000D01*
X144588677Y-94853465D01*
X144588677Y-94853465D01*
G37*
G36*
X142088677Y-94853465D02*
X142126364Y-94864898D01*
X142161103Y-94883466D01*
X142191548Y-94908452D01*
X142216534Y-94938897D01*
X142235102Y-94973636D01*
X142246535Y-95011323D01*
X142251000Y-95056661D01*
X142251000Y-95893339D01*
X142246535Y-95938677D01*
X142235102Y-95976364D01*
X142216534Y-96011103D01*
X142191548Y-96041548D01*
X142161103Y-96066534D01*
X142126364Y-96085102D01*
X142088677Y-96096535D01*
X142043339Y-96101000D01*
X140956661Y-96101000D01*
X140911323Y-96096535D01*
X140873636Y-96085102D01*
X140838897Y-96066534D01*
X140808452Y-96041548D01*
X140783466Y-96011103D01*
X140764898Y-95976364D01*
X140753465Y-95938677D01*
X140749000Y-95893339D01*
X140749000Y-95056661D01*
X140753465Y-95011323D01*
X140764898Y-94973636D01*
X140783466Y-94938897D01*
X140808452Y-94908452D01*
X140838897Y-94883466D01*
X140873636Y-94864898D01*
X140911323Y-94853465D01*
X140956661Y-94849000D01*
X142043339Y-94849000D01*
X142088677Y-94853465D01*
X142088677Y-94853465D01*
G37*
G36*
X172351000Y-94301000D02*
X170649000Y-94301000D01*
X170649000Y-90699000D01*
X172351000Y-90699000D01*
X172351000Y-94301000D01*
X172351000Y-94301000D01*
G37*
G36*
X125175562Y-92528181D02*
X125210477Y-92538773D01*
X125242665Y-92555978D01*
X125270873Y-92579127D01*
X125294022Y-92607335D01*
X125311227Y-92639523D01*
X125321819Y-92674438D01*
X125326000Y-92716895D01*
X125326000Y-93858105D01*
X125321819Y-93900562D01*
X125311227Y-93935477D01*
X125294022Y-93967665D01*
X125270873Y-93995873D01*
X125242665Y-94019022D01*
X125210477Y-94036227D01*
X125175562Y-94046819D01*
X125133105Y-94051000D01*
X123666895Y-94051000D01*
X123624438Y-94046819D01*
X123589523Y-94036227D01*
X123557335Y-94019022D01*
X123529127Y-93995873D01*
X123505978Y-93967665D01*
X123488773Y-93935477D01*
X123478181Y-93900562D01*
X123474000Y-93858105D01*
X123474000Y-92716895D01*
X123478181Y-92674438D01*
X123488773Y-92639523D01*
X123505978Y-92607335D01*
X123529127Y-92579127D01*
X123557335Y-92555978D01*
X123589523Y-92538773D01*
X123624438Y-92528181D01*
X123666895Y-92524000D01*
X125133105Y-92524000D01*
X125175562Y-92528181D01*
X125175562Y-92528181D01*
G37*
G36*
X130375562Y-92528181D02*
X130410477Y-92538773D01*
X130442665Y-92555978D01*
X130470873Y-92579127D01*
X130494022Y-92607335D01*
X130511227Y-92639523D01*
X130521819Y-92674438D01*
X130526000Y-92716895D01*
X130526000Y-93858105D01*
X130521819Y-93900562D01*
X130511227Y-93935477D01*
X130494022Y-93967665D01*
X130470873Y-93995873D01*
X130442665Y-94019022D01*
X130410477Y-94036227D01*
X130375562Y-94046819D01*
X130333105Y-94051000D01*
X128866895Y-94051000D01*
X128824438Y-94046819D01*
X128789523Y-94036227D01*
X128757335Y-94019022D01*
X128729127Y-93995873D01*
X128705978Y-93967665D01*
X128688773Y-93935477D01*
X128678181Y-93900562D01*
X128674000Y-93858105D01*
X128674000Y-92716895D01*
X128678181Y-92674438D01*
X128688773Y-92639523D01*
X128705978Y-92607335D01*
X128729127Y-92579127D01*
X128757335Y-92555978D01*
X128789523Y-92538773D01*
X128824438Y-92528181D01*
X128866895Y-92524000D01*
X130333105Y-92524000D01*
X130375562Y-92528181D01*
X130375562Y-92528181D01*
G37*
G36*
X127775562Y-92528181D02*
X127810477Y-92538773D01*
X127842665Y-92555978D01*
X127870873Y-92579127D01*
X127894022Y-92607335D01*
X127911227Y-92639523D01*
X127921819Y-92674438D01*
X127926000Y-92716895D01*
X127926000Y-93858105D01*
X127921819Y-93900562D01*
X127911227Y-93935477D01*
X127894022Y-93967665D01*
X127870873Y-93995873D01*
X127842665Y-94019022D01*
X127810477Y-94036227D01*
X127775562Y-94046819D01*
X127733105Y-94051000D01*
X126266895Y-94051000D01*
X126224438Y-94046819D01*
X126189523Y-94036227D01*
X126157335Y-94019022D01*
X126129127Y-93995873D01*
X126105978Y-93967665D01*
X126088773Y-93935477D01*
X126078181Y-93900562D01*
X126074000Y-93858105D01*
X126074000Y-92716895D01*
X126078181Y-92674438D01*
X126088773Y-92639523D01*
X126105978Y-92607335D01*
X126129127Y-92579127D01*
X126157335Y-92555978D01*
X126189523Y-92538773D01*
X126224438Y-92528181D01*
X126266895Y-92524000D01*
X127733105Y-92524000D01*
X127775562Y-92528181D01*
X127775562Y-92528181D01*
G37*
G36*
X132364499Y-91203445D02*
X132401993Y-91214819D01*
X132436557Y-91233294D01*
X132466847Y-91258153D01*
X132491706Y-91288443D01*
X132510181Y-91323007D01*
X132521555Y-91360501D01*
X132526000Y-91405638D01*
X132526000Y-92144362D01*
X132521555Y-92189499D01*
X132510181Y-92226993D01*
X132491706Y-92261557D01*
X132466847Y-92291847D01*
X132436557Y-92316706D01*
X132401993Y-92335181D01*
X132364499Y-92346555D01*
X132319362Y-92351000D01*
X131680638Y-92351000D01*
X131635501Y-92346555D01*
X131598007Y-92335181D01*
X131563443Y-92316706D01*
X131533153Y-92291847D01*
X131508294Y-92261557D01*
X131489819Y-92226993D01*
X131478445Y-92189499D01*
X131474000Y-92144362D01*
X131474000Y-91405638D01*
X131478445Y-91360501D01*
X131489819Y-91323007D01*
X131508294Y-91288443D01*
X131533153Y-91258153D01*
X131563443Y-91233294D01*
X131598007Y-91214819D01*
X131635501Y-91203445D01*
X131680638Y-91199000D01*
X132319362Y-91199000D01*
X132364499Y-91203445D01*
X132364499Y-91203445D01*
G37*
G36*
X144551000Y-91451000D02*
X142849000Y-91451000D01*
X142849000Y-89749000D01*
X144551000Y-89749000D01*
X144551000Y-91451000D01*
X144551000Y-91451000D01*
G37*
G36*
X127775562Y-89553181D02*
X127810477Y-89563773D01*
X127842665Y-89580978D01*
X127870873Y-89604127D01*
X127894022Y-89632335D01*
X127911227Y-89664523D01*
X127921819Y-89699438D01*
X127926000Y-89741895D01*
X127926000Y-90883105D01*
X127921819Y-90925562D01*
X127911227Y-90960477D01*
X127894022Y-90992665D01*
X127870873Y-91020873D01*
X127842665Y-91044022D01*
X127810477Y-91061227D01*
X127775562Y-91071819D01*
X127733105Y-91076000D01*
X126266895Y-91076000D01*
X126224438Y-91071819D01*
X126189523Y-91061227D01*
X126157335Y-91044022D01*
X126129127Y-91020873D01*
X126105978Y-90992665D01*
X126088773Y-90960477D01*
X126078181Y-90925562D01*
X126074000Y-90883105D01*
X126074000Y-89741895D01*
X126078181Y-89699438D01*
X126088773Y-89664523D01*
X126105978Y-89632335D01*
X126129127Y-89604127D01*
X126157335Y-89580978D01*
X126189523Y-89563773D01*
X126224438Y-89553181D01*
X126266895Y-89549000D01*
X127733105Y-89549000D01*
X127775562Y-89553181D01*
X127775562Y-89553181D01*
G37*
G36*
X125175562Y-89553181D02*
X125210477Y-89563773D01*
X125242665Y-89580978D01*
X125270873Y-89604127D01*
X125294022Y-89632335D01*
X125311227Y-89664523D01*
X125321819Y-89699438D01*
X125326000Y-89741895D01*
X125326000Y-90883105D01*
X125321819Y-90925562D01*
X125311227Y-90960477D01*
X125294022Y-90992665D01*
X125270873Y-91020873D01*
X125242665Y-91044022D01*
X125210477Y-91061227D01*
X125175562Y-91071819D01*
X125133105Y-91076000D01*
X123666895Y-91076000D01*
X123624438Y-91071819D01*
X123589523Y-91061227D01*
X123557335Y-91044022D01*
X123529127Y-91020873D01*
X123505978Y-90992665D01*
X123488773Y-90960477D01*
X123478181Y-90925562D01*
X123474000Y-90883105D01*
X123474000Y-89741895D01*
X123478181Y-89699438D01*
X123488773Y-89664523D01*
X123505978Y-89632335D01*
X123529127Y-89604127D01*
X123557335Y-89580978D01*
X123589523Y-89563773D01*
X123624438Y-89553181D01*
X123666895Y-89549000D01*
X125133105Y-89549000D01*
X125175562Y-89553181D01*
X125175562Y-89553181D01*
G37*
G36*
X130375562Y-89553181D02*
X130410477Y-89563773D01*
X130442665Y-89580978D01*
X130470873Y-89604127D01*
X130494022Y-89632335D01*
X130511227Y-89664523D01*
X130521819Y-89699438D01*
X130526000Y-89741895D01*
X130526000Y-90883105D01*
X130521819Y-90925562D01*
X130511227Y-90960477D01*
X130494022Y-90992665D01*
X130470873Y-91020873D01*
X130442665Y-91044022D01*
X130410477Y-91061227D01*
X130375562Y-91071819D01*
X130333105Y-91076000D01*
X128866895Y-91076000D01*
X128824438Y-91071819D01*
X128789523Y-91061227D01*
X128757335Y-91044022D01*
X128729127Y-91020873D01*
X128705978Y-90992665D01*
X128688773Y-90960477D01*
X128678181Y-90925562D01*
X128674000Y-90883105D01*
X128674000Y-89741895D01*
X128678181Y-89699438D01*
X128688773Y-89664523D01*
X128705978Y-89632335D01*
X128729127Y-89604127D01*
X128757335Y-89580978D01*
X128789523Y-89563773D01*
X128824438Y-89553181D01*
X128866895Y-89549000D01*
X130333105Y-89549000D01*
X130375562Y-89553181D01*
X130375562Y-89553181D01*
G37*
G36*
X136006000Y-90901000D02*
X134924000Y-90901000D01*
X134924000Y-87399000D01*
X136006000Y-87399000D01*
X136006000Y-90901000D01*
X136006000Y-90901000D01*
G37*
G36*
X138376000Y-90901000D02*
X137294000Y-90901000D01*
X137294000Y-87399000D01*
X138376000Y-87399000D01*
X138376000Y-90901000D01*
X138376000Y-90901000D01*
G37*
G36*
X132364499Y-89453445D02*
X132401993Y-89464819D01*
X132436557Y-89483294D01*
X132466847Y-89508153D01*
X132491706Y-89538443D01*
X132510181Y-89573007D01*
X132521555Y-89610501D01*
X132526000Y-89655638D01*
X132526000Y-90394362D01*
X132521555Y-90439499D01*
X132510181Y-90476993D01*
X132491706Y-90511557D01*
X132466847Y-90541847D01*
X132436557Y-90566706D01*
X132401993Y-90585181D01*
X132364499Y-90596555D01*
X132319362Y-90601000D01*
X131680638Y-90601000D01*
X131635501Y-90596555D01*
X131598007Y-90585181D01*
X131563443Y-90566706D01*
X131533153Y-90541847D01*
X131508294Y-90511557D01*
X131489819Y-90476993D01*
X131478445Y-90439499D01*
X131474000Y-90394362D01*
X131474000Y-89655638D01*
X131478445Y-89610501D01*
X131489819Y-89573007D01*
X131508294Y-89538443D01*
X131533153Y-89508153D01*
X131563443Y-89483294D01*
X131598007Y-89464819D01*
X131635501Y-89453445D01*
X131680638Y-89449000D01*
X132319362Y-89449000D01*
X132364499Y-89453445D01*
X132364499Y-89453445D01*
G37*
G36*
X172351000Y-88701000D02*
X170649000Y-88701000D01*
X170649000Y-85099000D01*
X172351000Y-85099000D01*
X172351000Y-88701000D01*
X172351000Y-88701000D01*
G37*
G36*
X131801000Y-88001000D02*
X129999000Y-88001000D01*
X129999000Y-86199000D01*
X131801000Y-86199000D01*
X131801000Y-88001000D01*
X131801000Y-88001000D01*
G37*
G36*
X128470443Y-86205519D02*
X128536627Y-86212037D01*
X128649853Y-86246384D01*
X128706467Y-86263557D01*
X128845087Y-86337652D01*
X128862991Y-86347222D01*
X128898729Y-86376552D01*
X129000186Y-86459814D01*
X129080369Y-86557519D01*
X129112778Y-86597009D01*
X129112779Y-86597011D01*
X129196443Y-86753533D01*
X129196443Y-86753534D01*
X129247963Y-86923373D01*
X129265359Y-87100000D01*
X129247963Y-87276627D01*
X129226243Y-87348228D01*
X129196443Y-87446467D01*
X129122348Y-87585087D01*
X129112778Y-87602991D01*
X129083448Y-87638729D01*
X129000186Y-87740186D01*
X128898729Y-87823448D01*
X128862991Y-87852778D01*
X128862989Y-87852779D01*
X128706467Y-87936443D01*
X128658478Y-87951000D01*
X128536627Y-87987963D01*
X128470442Y-87994482D01*
X128404260Y-88001000D01*
X128315740Y-88001000D01*
X128249558Y-87994482D01*
X128183373Y-87987963D01*
X128061522Y-87951000D01*
X128013533Y-87936443D01*
X127857011Y-87852779D01*
X127857009Y-87852778D01*
X127821271Y-87823448D01*
X127719814Y-87740186D01*
X127636552Y-87638729D01*
X127607222Y-87602991D01*
X127597652Y-87585087D01*
X127523557Y-87446467D01*
X127493757Y-87348228D01*
X127472037Y-87276627D01*
X127454641Y-87100000D01*
X127472037Y-86923373D01*
X127523557Y-86753534D01*
X127523557Y-86753533D01*
X127607221Y-86597011D01*
X127607222Y-86597009D01*
X127639631Y-86557519D01*
X127719814Y-86459814D01*
X127821271Y-86376552D01*
X127857009Y-86347222D01*
X127874913Y-86337652D01*
X128013533Y-86263557D01*
X128070147Y-86246384D01*
X128183373Y-86212037D01*
X128249557Y-86205519D01*
X128315740Y-86199000D01*
X128404260Y-86199000D01*
X128470443Y-86205519D01*
X128470443Y-86205519D01*
G37*
G36*
X122901000Y-88001000D02*
X121099000Y-88001000D01*
X121099000Y-86199000D01*
X122901000Y-86199000D01*
X122901000Y-88001000D01*
X122901000Y-88001000D01*
G37*
G36*
X124650443Y-86205519D02*
X124716627Y-86212037D01*
X124829853Y-86246384D01*
X124886467Y-86263557D01*
X125025087Y-86337652D01*
X125042991Y-86347222D01*
X125078729Y-86376552D01*
X125180186Y-86459814D01*
X125260369Y-86557519D01*
X125292778Y-86597009D01*
X125292779Y-86597011D01*
X125376443Y-86753533D01*
X125376443Y-86753534D01*
X125427963Y-86923373D01*
X125445359Y-87100000D01*
X125427963Y-87276627D01*
X125406243Y-87348228D01*
X125376443Y-87446467D01*
X125302348Y-87585087D01*
X125292778Y-87602991D01*
X125263448Y-87638729D01*
X125180186Y-87740186D01*
X125078729Y-87823448D01*
X125042991Y-87852778D01*
X125042989Y-87852779D01*
X124886467Y-87936443D01*
X124838478Y-87951000D01*
X124716627Y-87987963D01*
X124650442Y-87994482D01*
X124584260Y-88001000D01*
X124495740Y-88001000D01*
X124429558Y-87994482D01*
X124363373Y-87987963D01*
X124241522Y-87951000D01*
X124193533Y-87936443D01*
X124037011Y-87852779D01*
X124037009Y-87852778D01*
X124001271Y-87823448D01*
X123899814Y-87740186D01*
X123816552Y-87638729D01*
X123787222Y-87602991D01*
X123777652Y-87585087D01*
X123703557Y-87446467D01*
X123673757Y-87348228D01*
X123652037Y-87276627D01*
X123634641Y-87100000D01*
X123652037Y-86923373D01*
X123703557Y-86753534D01*
X123703557Y-86753533D01*
X123787221Y-86597011D01*
X123787222Y-86597009D01*
X123819631Y-86557519D01*
X123899814Y-86459814D01*
X124001271Y-86376552D01*
X124037009Y-86347222D01*
X124054913Y-86337652D01*
X124193533Y-86263557D01*
X124250147Y-86246384D01*
X124363373Y-86212037D01*
X124429557Y-86205519D01*
X124495740Y-86199000D01*
X124584260Y-86199000D01*
X124650443Y-86205519D01*
X124650443Y-86205519D01*
G37*
G36*
X143948228Y-86281703D02*
X144103100Y-86345853D01*
X144242481Y-86438985D01*
X144361015Y-86557519D01*
X144454147Y-86696900D01*
X144518297Y-86851772D01*
X144551000Y-87016184D01*
X144551000Y-87183816D01*
X144518297Y-87348228D01*
X144454147Y-87503100D01*
X144361015Y-87642481D01*
X144242481Y-87761015D01*
X144103100Y-87854147D01*
X143948228Y-87918297D01*
X143783816Y-87951000D01*
X143616184Y-87951000D01*
X143451772Y-87918297D01*
X143296900Y-87854147D01*
X143157519Y-87761015D01*
X143038985Y-87642481D01*
X142945853Y-87503100D01*
X142881703Y-87348228D01*
X142849000Y-87183816D01*
X142849000Y-87016184D01*
X142881703Y-86851772D01*
X142945853Y-86696900D01*
X143038985Y-86557519D01*
X143157519Y-86438985D01*
X143296900Y-86345853D01*
X143451772Y-86281703D01*
X143616184Y-86249000D01*
X143783816Y-86249000D01*
X143948228Y-86281703D01*
X143948228Y-86281703D01*
G37*
M02*
