G75*
%MOIN*%
%OFA0B0*%
%FSLAX25Y25*%
%IPPOS*%
%LPD*%
%AMOC8*
5,1,8,0,0,1.08239X$1,22.5*
%
%ADD10C,0.01000*%
%ADD11C,0.00000*%
%ADD12C,0.04337*%
%ADD13R,0.05400X0.02900*%
%ADD14R,0.02959X0.02211*%
%ADD15R,0.02211X0.02959*%
%ADD16R,0.01581X0.06109*%
%ADD17R,0.06109X0.01581*%
%ADD18R,0.04337X0.07487*%
%ADD19R,0.04337X0.04731*%
%ADD20R,0.03156X0.04337*%
%ADD21R,0.04140X0.04337*%
%ADD22R,0.04731X0.04337*%
%ADD23R,0.05124X0.07487*%
%ADD24R,0.05124X0.05124*%
%ADD25R,0.08274X0.08274*%
%ADD26R,0.01150X0.02349*%
%ADD27R,0.01150X0.02762*%
%ADD28R,0.02349X0.01150*%
%ADD29R,0.02762X0.01150*%
%ADD30C,0.06400*%
%ADD31OC8,0.06400*%
%ADD32R,0.06400X0.04400*%
%ADD33R,0.04400X0.06400*%
%ADD34R,0.04534X0.04652*%
%ADD35R,0.03943X0.03550*%
D10*
X0011500Y0010780D02*
X0011500Y0148780D01*
X0232500Y0148780D01*
X0232500Y0181780D01*
X0275500Y0181780D01*
X0275500Y0148780D01*
X0302500Y0148780D01*
X0302500Y0010780D01*
X0011500Y0010780D01*
D11*
X0017531Y0018780D02*
X0017533Y0018868D01*
X0017539Y0018956D01*
X0017549Y0019044D01*
X0017563Y0019132D01*
X0017580Y0019218D01*
X0017602Y0019304D01*
X0017627Y0019388D01*
X0017657Y0019472D01*
X0017689Y0019554D01*
X0017726Y0019634D01*
X0017766Y0019713D01*
X0017810Y0019790D01*
X0017857Y0019865D01*
X0017907Y0019937D01*
X0017961Y0020008D01*
X0018017Y0020075D01*
X0018077Y0020141D01*
X0018139Y0020203D01*
X0018205Y0020263D01*
X0018272Y0020319D01*
X0018343Y0020373D01*
X0018415Y0020423D01*
X0018490Y0020470D01*
X0018567Y0020514D01*
X0018646Y0020554D01*
X0018726Y0020591D01*
X0018808Y0020623D01*
X0018892Y0020653D01*
X0018976Y0020678D01*
X0019062Y0020700D01*
X0019148Y0020717D01*
X0019236Y0020731D01*
X0019324Y0020741D01*
X0019412Y0020747D01*
X0019500Y0020749D01*
X0019588Y0020747D01*
X0019676Y0020741D01*
X0019764Y0020731D01*
X0019852Y0020717D01*
X0019938Y0020700D01*
X0020024Y0020678D01*
X0020108Y0020653D01*
X0020192Y0020623D01*
X0020274Y0020591D01*
X0020354Y0020554D01*
X0020433Y0020514D01*
X0020510Y0020470D01*
X0020585Y0020423D01*
X0020657Y0020373D01*
X0020728Y0020319D01*
X0020795Y0020263D01*
X0020861Y0020203D01*
X0020923Y0020141D01*
X0020983Y0020075D01*
X0021039Y0020008D01*
X0021093Y0019937D01*
X0021143Y0019865D01*
X0021190Y0019790D01*
X0021234Y0019713D01*
X0021274Y0019634D01*
X0021311Y0019554D01*
X0021343Y0019472D01*
X0021373Y0019388D01*
X0021398Y0019304D01*
X0021420Y0019218D01*
X0021437Y0019132D01*
X0021451Y0019044D01*
X0021461Y0018956D01*
X0021467Y0018868D01*
X0021469Y0018780D01*
X0021467Y0018692D01*
X0021461Y0018604D01*
X0021451Y0018516D01*
X0021437Y0018428D01*
X0021420Y0018342D01*
X0021398Y0018256D01*
X0021373Y0018172D01*
X0021343Y0018088D01*
X0021311Y0018006D01*
X0021274Y0017926D01*
X0021234Y0017847D01*
X0021190Y0017770D01*
X0021143Y0017695D01*
X0021093Y0017623D01*
X0021039Y0017552D01*
X0020983Y0017485D01*
X0020923Y0017419D01*
X0020861Y0017357D01*
X0020795Y0017297D01*
X0020728Y0017241D01*
X0020657Y0017187D01*
X0020585Y0017137D01*
X0020510Y0017090D01*
X0020433Y0017046D01*
X0020354Y0017006D01*
X0020274Y0016969D01*
X0020192Y0016937D01*
X0020108Y0016907D01*
X0020024Y0016882D01*
X0019938Y0016860D01*
X0019852Y0016843D01*
X0019764Y0016829D01*
X0019676Y0016819D01*
X0019588Y0016813D01*
X0019500Y0016811D01*
X0019412Y0016813D01*
X0019324Y0016819D01*
X0019236Y0016829D01*
X0019148Y0016843D01*
X0019062Y0016860D01*
X0018976Y0016882D01*
X0018892Y0016907D01*
X0018808Y0016937D01*
X0018726Y0016969D01*
X0018646Y0017006D01*
X0018567Y0017046D01*
X0018490Y0017090D01*
X0018415Y0017137D01*
X0018343Y0017187D01*
X0018272Y0017241D01*
X0018205Y0017297D01*
X0018139Y0017357D01*
X0018077Y0017419D01*
X0018017Y0017485D01*
X0017961Y0017552D01*
X0017907Y0017623D01*
X0017857Y0017695D01*
X0017810Y0017770D01*
X0017766Y0017847D01*
X0017726Y0017926D01*
X0017689Y0018006D01*
X0017657Y0018088D01*
X0017627Y0018172D01*
X0017602Y0018256D01*
X0017580Y0018342D01*
X0017563Y0018428D01*
X0017549Y0018516D01*
X0017539Y0018604D01*
X0017533Y0018692D01*
X0017531Y0018780D01*
X0017531Y0140780D02*
X0017533Y0140868D01*
X0017539Y0140956D01*
X0017549Y0141044D01*
X0017563Y0141132D01*
X0017580Y0141218D01*
X0017602Y0141304D01*
X0017627Y0141388D01*
X0017657Y0141472D01*
X0017689Y0141554D01*
X0017726Y0141634D01*
X0017766Y0141713D01*
X0017810Y0141790D01*
X0017857Y0141865D01*
X0017907Y0141937D01*
X0017961Y0142008D01*
X0018017Y0142075D01*
X0018077Y0142141D01*
X0018139Y0142203D01*
X0018205Y0142263D01*
X0018272Y0142319D01*
X0018343Y0142373D01*
X0018415Y0142423D01*
X0018490Y0142470D01*
X0018567Y0142514D01*
X0018646Y0142554D01*
X0018726Y0142591D01*
X0018808Y0142623D01*
X0018892Y0142653D01*
X0018976Y0142678D01*
X0019062Y0142700D01*
X0019148Y0142717D01*
X0019236Y0142731D01*
X0019324Y0142741D01*
X0019412Y0142747D01*
X0019500Y0142749D01*
X0019588Y0142747D01*
X0019676Y0142741D01*
X0019764Y0142731D01*
X0019852Y0142717D01*
X0019938Y0142700D01*
X0020024Y0142678D01*
X0020108Y0142653D01*
X0020192Y0142623D01*
X0020274Y0142591D01*
X0020354Y0142554D01*
X0020433Y0142514D01*
X0020510Y0142470D01*
X0020585Y0142423D01*
X0020657Y0142373D01*
X0020728Y0142319D01*
X0020795Y0142263D01*
X0020861Y0142203D01*
X0020923Y0142141D01*
X0020983Y0142075D01*
X0021039Y0142008D01*
X0021093Y0141937D01*
X0021143Y0141865D01*
X0021190Y0141790D01*
X0021234Y0141713D01*
X0021274Y0141634D01*
X0021311Y0141554D01*
X0021343Y0141472D01*
X0021373Y0141388D01*
X0021398Y0141304D01*
X0021420Y0141218D01*
X0021437Y0141132D01*
X0021451Y0141044D01*
X0021461Y0140956D01*
X0021467Y0140868D01*
X0021469Y0140780D01*
X0021467Y0140692D01*
X0021461Y0140604D01*
X0021451Y0140516D01*
X0021437Y0140428D01*
X0021420Y0140342D01*
X0021398Y0140256D01*
X0021373Y0140172D01*
X0021343Y0140088D01*
X0021311Y0140006D01*
X0021274Y0139926D01*
X0021234Y0139847D01*
X0021190Y0139770D01*
X0021143Y0139695D01*
X0021093Y0139623D01*
X0021039Y0139552D01*
X0020983Y0139485D01*
X0020923Y0139419D01*
X0020861Y0139357D01*
X0020795Y0139297D01*
X0020728Y0139241D01*
X0020657Y0139187D01*
X0020585Y0139137D01*
X0020510Y0139090D01*
X0020433Y0139046D01*
X0020354Y0139006D01*
X0020274Y0138969D01*
X0020192Y0138937D01*
X0020108Y0138907D01*
X0020024Y0138882D01*
X0019938Y0138860D01*
X0019852Y0138843D01*
X0019764Y0138829D01*
X0019676Y0138819D01*
X0019588Y0138813D01*
X0019500Y0138811D01*
X0019412Y0138813D01*
X0019324Y0138819D01*
X0019236Y0138829D01*
X0019148Y0138843D01*
X0019062Y0138860D01*
X0018976Y0138882D01*
X0018892Y0138907D01*
X0018808Y0138937D01*
X0018726Y0138969D01*
X0018646Y0139006D01*
X0018567Y0139046D01*
X0018490Y0139090D01*
X0018415Y0139137D01*
X0018343Y0139187D01*
X0018272Y0139241D01*
X0018205Y0139297D01*
X0018139Y0139357D01*
X0018077Y0139419D01*
X0018017Y0139485D01*
X0017961Y0139552D01*
X0017907Y0139623D01*
X0017857Y0139695D01*
X0017810Y0139770D01*
X0017766Y0139847D01*
X0017726Y0139926D01*
X0017689Y0140006D01*
X0017657Y0140088D01*
X0017627Y0140172D01*
X0017602Y0140256D01*
X0017580Y0140342D01*
X0017563Y0140428D01*
X0017549Y0140516D01*
X0017539Y0140604D01*
X0017533Y0140692D01*
X0017531Y0140780D01*
X0292531Y0140780D02*
X0292533Y0140868D01*
X0292539Y0140956D01*
X0292549Y0141044D01*
X0292563Y0141132D01*
X0292580Y0141218D01*
X0292602Y0141304D01*
X0292627Y0141388D01*
X0292657Y0141472D01*
X0292689Y0141554D01*
X0292726Y0141634D01*
X0292766Y0141713D01*
X0292810Y0141790D01*
X0292857Y0141865D01*
X0292907Y0141937D01*
X0292961Y0142008D01*
X0293017Y0142075D01*
X0293077Y0142141D01*
X0293139Y0142203D01*
X0293205Y0142263D01*
X0293272Y0142319D01*
X0293343Y0142373D01*
X0293415Y0142423D01*
X0293490Y0142470D01*
X0293567Y0142514D01*
X0293646Y0142554D01*
X0293726Y0142591D01*
X0293808Y0142623D01*
X0293892Y0142653D01*
X0293976Y0142678D01*
X0294062Y0142700D01*
X0294148Y0142717D01*
X0294236Y0142731D01*
X0294324Y0142741D01*
X0294412Y0142747D01*
X0294500Y0142749D01*
X0294588Y0142747D01*
X0294676Y0142741D01*
X0294764Y0142731D01*
X0294852Y0142717D01*
X0294938Y0142700D01*
X0295024Y0142678D01*
X0295108Y0142653D01*
X0295192Y0142623D01*
X0295274Y0142591D01*
X0295354Y0142554D01*
X0295433Y0142514D01*
X0295510Y0142470D01*
X0295585Y0142423D01*
X0295657Y0142373D01*
X0295728Y0142319D01*
X0295795Y0142263D01*
X0295861Y0142203D01*
X0295923Y0142141D01*
X0295983Y0142075D01*
X0296039Y0142008D01*
X0296093Y0141937D01*
X0296143Y0141865D01*
X0296190Y0141790D01*
X0296234Y0141713D01*
X0296274Y0141634D01*
X0296311Y0141554D01*
X0296343Y0141472D01*
X0296373Y0141388D01*
X0296398Y0141304D01*
X0296420Y0141218D01*
X0296437Y0141132D01*
X0296451Y0141044D01*
X0296461Y0140956D01*
X0296467Y0140868D01*
X0296469Y0140780D01*
X0296467Y0140692D01*
X0296461Y0140604D01*
X0296451Y0140516D01*
X0296437Y0140428D01*
X0296420Y0140342D01*
X0296398Y0140256D01*
X0296373Y0140172D01*
X0296343Y0140088D01*
X0296311Y0140006D01*
X0296274Y0139926D01*
X0296234Y0139847D01*
X0296190Y0139770D01*
X0296143Y0139695D01*
X0296093Y0139623D01*
X0296039Y0139552D01*
X0295983Y0139485D01*
X0295923Y0139419D01*
X0295861Y0139357D01*
X0295795Y0139297D01*
X0295728Y0139241D01*
X0295657Y0139187D01*
X0295585Y0139137D01*
X0295510Y0139090D01*
X0295433Y0139046D01*
X0295354Y0139006D01*
X0295274Y0138969D01*
X0295192Y0138937D01*
X0295108Y0138907D01*
X0295024Y0138882D01*
X0294938Y0138860D01*
X0294852Y0138843D01*
X0294764Y0138829D01*
X0294676Y0138819D01*
X0294588Y0138813D01*
X0294500Y0138811D01*
X0294412Y0138813D01*
X0294324Y0138819D01*
X0294236Y0138829D01*
X0294148Y0138843D01*
X0294062Y0138860D01*
X0293976Y0138882D01*
X0293892Y0138907D01*
X0293808Y0138937D01*
X0293726Y0138969D01*
X0293646Y0139006D01*
X0293567Y0139046D01*
X0293490Y0139090D01*
X0293415Y0139137D01*
X0293343Y0139187D01*
X0293272Y0139241D01*
X0293205Y0139297D01*
X0293139Y0139357D01*
X0293077Y0139419D01*
X0293017Y0139485D01*
X0292961Y0139552D01*
X0292907Y0139623D01*
X0292857Y0139695D01*
X0292810Y0139770D01*
X0292766Y0139847D01*
X0292726Y0139926D01*
X0292689Y0140006D01*
X0292657Y0140088D01*
X0292627Y0140172D01*
X0292602Y0140256D01*
X0292580Y0140342D01*
X0292563Y0140428D01*
X0292549Y0140516D01*
X0292539Y0140604D01*
X0292533Y0140692D01*
X0292531Y0140780D01*
X0292531Y0018780D02*
X0292533Y0018868D01*
X0292539Y0018956D01*
X0292549Y0019044D01*
X0292563Y0019132D01*
X0292580Y0019218D01*
X0292602Y0019304D01*
X0292627Y0019388D01*
X0292657Y0019472D01*
X0292689Y0019554D01*
X0292726Y0019634D01*
X0292766Y0019713D01*
X0292810Y0019790D01*
X0292857Y0019865D01*
X0292907Y0019937D01*
X0292961Y0020008D01*
X0293017Y0020075D01*
X0293077Y0020141D01*
X0293139Y0020203D01*
X0293205Y0020263D01*
X0293272Y0020319D01*
X0293343Y0020373D01*
X0293415Y0020423D01*
X0293490Y0020470D01*
X0293567Y0020514D01*
X0293646Y0020554D01*
X0293726Y0020591D01*
X0293808Y0020623D01*
X0293892Y0020653D01*
X0293976Y0020678D01*
X0294062Y0020700D01*
X0294148Y0020717D01*
X0294236Y0020731D01*
X0294324Y0020741D01*
X0294412Y0020747D01*
X0294500Y0020749D01*
X0294588Y0020747D01*
X0294676Y0020741D01*
X0294764Y0020731D01*
X0294852Y0020717D01*
X0294938Y0020700D01*
X0295024Y0020678D01*
X0295108Y0020653D01*
X0295192Y0020623D01*
X0295274Y0020591D01*
X0295354Y0020554D01*
X0295433Y0020514D01*
X0295510Y0020470D01*
X0295585Y0020423D01*
X0295657Y0020373D01*
X0295728Y0020319D01*
X0295795Y0020263D01*
X0295861Y0020203D01*
X0295923Y0020141D01*
X0295983Y0020075D01*
X0296039Y0020008D01*
X0296093Y0019937D01*
X0296143Y0019865D01*
X0296190Y0019790D01*
X0296234Y0019713D01*
X0296274Y0019634D01*
X0296311Y0019554D01*
X0296343Y0019472D01*
X0296373Y0019388D01*
X0296398Y0019304D01*
X0296420Y0019218D01*
X0296437Y0019132D01*
X0296451Y0019044D01*
X0296461Y0018956D01*
X0296467Y0018868D01*
X0296469Y0018780D01*
X0296467Y0018692D01*
X0296461Y0018604D01*
X0296451Y0018516D01*
X0296437Y0018428D01*
X0296420Y0018342D01*
X0296398Y0018256D01*
X0296373Y0018172D01*
X0296343Y0018088D01*
X0296311Y0018006D01*
X0296274Y0017926D01*
X0296234Y0017847D01*
X0296190Y0017770D01*
X0296143Y0017695D01*
X0296093Y0017623D01*
X0296039Y0017552D01*
X0295983Y0017485D01*
X0295923Y0017419D01*
X0295861Y0017357D01*
X0295795Y0017297D01*
X0295728Y0017241D01*
X0295657Y0017187D01*
X0295585Y0017137D01*
X0295510Y0017090D01*
X0295433Y0017046D01*
X0295354Y0017006D01*
X0295274Y0016969D01*
X0295192Y0016937D01*
X0295108Y0016907D01*
X0295024Y0016882D01*
X0294938Y0016860D01*
X0294852Y0016843D01*
X0294764Y0016829D01*
X0294676Y0016819D01*
X0294588Y0016813D01*
X0294500Y0016811D01*
X0294412Y0016813D01*
X0294324Y0016819D01*
X0294236Y0016829D01*
X0294148Y0016843D01*
X0294062Y0016860D01*
X0293976Y0016882D01*
X0293892Y0016907D01*
X0293808Y0016937D01*
X0293726Y0016969D01*
X0293646Y0017006D01*
X0293567Y0017046D01*
X0293490Y0017090D01*
X0293415Y0017137D01*
X0293343Y0017187D01*
X0293272Y0017241D01*
X0293205Y0017297D01*
X0293139Y0017357D01*
X0293077Y0017419D01*
X0293017Y0017485D01*
X0292961Y0017552D01*
X0292907Y0017623D01*
X0292857Y0017695D01*
X0292810Y0017770D01*
X0292766Y0017847D01*
X0292726Y0017926D01*
X0292689Y0018006D01*
X0292657Y0018088D01*
X0292627Y0018172D01*
X0292602Y0018256D01*
X0292580Y0018342D01*
X0292563Y0018428D01*
X0292549Y0018516D01*
X0292539Y0018604D01*
X0292533Y0018692D01*
X0292531Y0018780D01*
D12*
X0294500Y0018780D03*
X0200500Y0025780D03*
X0172500Y0025780D03*
X0208500Y0085780D03*
X0208500Y0096780D03*
X0198500Y0108780D03*
X0198500Y0133780D03*
X0149500Y0121780D03*
X0110500Y0109780D03*
X0095868Y0108432D03*
X0045500Y0088280D03*
X0065500Y0078280D03*
X0045500Y0070780D03*
X0042500Y0108780D03*
X0036000Y0108780D03*
X0019500Y0140780D03*
X0019500Y0018780D03*
X0294500Y0140780D03*
D13*
X0099000Y0118880D03*
X0099000Y0115680D03*
D14*
X0047331Y0100248D03*
X0047331Y0096311D03*
X0042803Y0098280D03*
X0047331Y0082748D03*
X0047331Y0078811D03*
X0042803Y0080780D03*
D15*
X0071031Y0077611D03*
X0074969Y0077611D03*
X0073000Y0073083D03*
D16*
X0127173Y0064146D03*
X0129142Y0064146D03*
X0131110Y0064146D03*
X0133079Y0064146D03*
X0135047Y0064146D03*
X0137016Y0064146D03*
X0138984Y0064146D03*
X0140953Y0064146D03*
X0142921Y0064146D03*
X0144890Y0064146D03*
X0146858Y0064146D03*
X0148827Y0064146D03*
X0148827Y0097414D03*
X0146858Y0097414D03*
X0144890Y0097414D03*
X0142921Y0097414D03*
X0140953Y0097414D03*
X0138984Y0097414D03*
X0137016Y0097414D03*
X0135047Y0097414D03*
X0133079Y0097414D03*
X0131110Y0097414D03*
X0129142Y0097414D03*
X0127173Y0097414D03*
D17*
X0121366Y0091607D03*
X0121366Y0089638D03*
X0121366Y0087670D03*
X0121366Y0085701D03*
X0121366Y0083733D03*
X0121366Y0081764D03*
X0121366Y0079796D03*
X0121366Y0077827D03*
X0121366Y0075859D03*
X0121366Y0073890D03*
X0121366Y0071922D03*
X0121366Y0069953D03*
X0154634Y0069953D03*
X0154634Y0071922D03*
X0154634Y0073890D03*
X0154634Y0075859D03*
X0154634Y0077827D03*
X0154634Y0079796D03*
X0154634Y0081764D03*
X0154634Y0083733D03*
X0154634Y0085701D03*
X0154634Y0087670D03*
X0154634Y0089638D03*
X0154634Y0091607D03*
D18*
X0160579Y0050780D03*
X0170421Y0050780D03*
X0236941Y0158780D03*
X0264500Y0158780D03*
D19*
X0173000Y0124126D03*
X0165500Y0124126D03*
X0165500Y0117433D03*
X0173000Y0117433D03*
X0158000Y0117433D03*
X0158000Y0124126D03*
X0140500Y0119126D03*
X0140500Y0112433D03*
X0133000Y0112433D03*
X0133000Y0119126D03*
X0090500Y0121126D03*
X0083000Y0121626D03*
X0075500Y0121626D03*
X0065500Y0121626D03*
X0058000Y0121626D03*
X0050500Y0121626D03*
X0042677Y0121631D03*
X0042677Y0114938D03*
X0050500Y0114933D03*
X0058000Y0114933D03*
X0065500Y0114933D03*
X0075500Y0114933D03*
X0083000Y0114933D03*
X0090500Y0114433D03*
X0053000Y0101626D03*
X0053000Y0094933D03*
X0053000Y0084126D03*
X0053000Y0077433D03*
X0035500Y0077433D03*
X0035500Y0084126D03*
X0035500Y0094933D03*
X0035500Y0101626D03*
X0105500Y0081626D03*
X0105500Y0074933D03*
X0067500Y0057126D03*
X0067500Y0050433D03*
X0037500Y0050433D03*
X0037500Y0057126D03*
X0163000Y0041626D03*
X0170500Y0041626D03*
X0170500Y0034933D03*
X0163000Y0034933D03*
X0173500Y0077433D03*
X0173500Y0084126D03*
D20*
X0056732Y0062638D03*
X0048268Y0062638D03*
X0048268Y0044922D03*
X0056732Y0044922D03*
D21*
X0164850Y0108280D03*
X0171150Y0108280D03*
D22*
X0182654Y0103280D03*
X0189346Y0103280D03*
X0171346Y0100780D03*
X0164654Y0100780D03*
X0182654Y0068280D03*
X0189346Y0068280D03*
X0131846Y0048280D03*
X0125154Y0048280D03*
X0125154Y0040780D03*
X0131846Y0040780D03*
X0076346Y0065780D03*
X0069654Y0065780D03*
X0069654Y0083280D03*
X0076346Y0083280D03*
X0038346Y0041280D03*
X0031654Y0041280D03*
D23*
X0181276Y0077906D03*
X0190724Y0077906D03*
X0190724Y0093654D03*
X0181276Y0093654D03*
D24*
X0105134Y0098280D03*
X0096866Y0098280D03*
D25*
X0186000Y0136780D03*
X0212110Y0021525D03*
D26*
X0076437Y0092668D03*
X0068563Y0092668D03*
X0068563Y0104892D03*
X0076437Y0104892D03*
D27*
X0074862Y0104685D03*
X0073287Y0104685D03*
X0071713Y0104685D03*
X0070138Y0104685D03*
X0070138Y0092874D03*
X0071713Y0092874D03*
X0073287Y0092874D03*
X0074862Y0092874D03*
D28*
X0078612Y0094843D03*
X0066388Y0094843D03*
X0066388Y0102717D03*
X0078612Y0102717D03*
D29*
X0078406Y0101142D03*
X0078406Y0099567D03*
X0078406Y0097992D03*
X0078406Y0096418D03*
X0066594Y0096418D03*
X0066594Y0097992D03*
X0066594Y0099567D03*
X0066594Y0101142D03*
D30*
X0026500Y0097780D02*
X0020500Y0097780D01*
X0020500Y0107780D02*
X0026500Y0107780D01*
X0026500Y0117780D02*
X0020500Y0117780D01*
X0020500Y0127780D02*
X0026500Y0127780D01*
X0082500Y0130780D02*
X0082500Y0136780D01*
X0092500Y0136780D02*
X0092500Y0130780D01*
X0109500Y0130780D02*
X0109500Y0136780D01*
X0119500Y0136780D02*
X0119500Y0130780D01*
X0129500Y0130780D02*
X0129500Y0136780D01*
X0139500Y0136780D02*
X0139500Y0130780D01*
X0149500Y0130780D02*
X0149500Y0136780D01*
X0206500Y0125780D02*
X0212500Y0125780D01*
X0212500Y0115780D02*
X0206500Y0115780D01*
X0206500Y0075780D02*
X0212500Y0075780D01*
X0212500Y0065780D02*
X0206500Y0065780D01*
X0191500Y0028780D02*
X0191500Y0022780D01*
X0181500Y0022780D02*
X0181500Y0028780D01*
X0152500Y0028780D02*
X0152500Y0022780D01*
X0142500Y0022780D02*
X0142500Y0028780D01*
X0132500Y0028780D02*
X0132500Y0022780D01*
X0122500Y0022780D02*
X0122500Y0028780D01*
X0110500Y0040780D02*
X0110500Y0046780D01*
X0100500Y0046780D02*
X0100500Y0040780D01*
X0090500Y0040780D02*
X0090500Y0046780D01*
X0080500Y0046780D02*
X0080500Y0040780D01*
X0071500Y0028780D02*
X0071500Y0022780D01*
X0061500Y0022780D02*
X0061500Y0028780D01*
X0044500Y0028780D02*
X0044500Y0022780D01*
X0034500Y0022780D02*
X0034500Y0028780D01*
X0026500Y0050780D02*
X0020500Y0050780D01*
X0020500Y0060780D02*
X0026500Y0060780D01*
X0026500Y0070780D02*
X0020500Y0070780D01*
X0020500Y0087780D02*
X0026500Y0087780D01*
X0090500Y0028780D02*
X0090500Y0022780D01*
X0100500Y0022780D02*
X0100500Y0028780D01*
D31*
X0209500Y0051780D03*
D32*
X0223500Y0052780D03*
X0223500Y0047780D03*
X0223500Y0042780D03*
X0223500Y0037780D03*
X0223500Y0032780D03*
X0223500Y0027780D03*
X0223500Y0057780D03*
X0223500Y0062780D03*
X0223500Y0067780D03*
X0223500Y0072780D03*
X0223500Y0077780D03*
X0223500Y0082780D03*
X0223500Y0087780D03*
X0223500Y0092780D03*
X0223500Y0097780D03*
X0223500Y0102780D03*
X0223500Y0107780D03*
X0223500Y0112780D03*
X0223500Y0117780D03*
X0223500Y0122780D03*
X0293500Y0122780D03*
X0293500Y0117780D03*
X0293500Y0112780D03*
X0293500Y0107780D03*
X0293500Y0102780D03*
X0293500Y0097780D03*
X0293500Y0092780D03*
X0293500Y0087780D03*
X0293500Y0082780D03*
X0293500Y0077780D03*
X0293500Y0072780D03*
X0293500Y0067780D03*
X0293500Y0062780D03*
X0293500Y0057780D03*
X0293500Y0052780D03*
X0293500Y0047780D03*
X0293500Y0042780D03*
X0293500Y0037780D03*
X0293500Y0032780D03*
X0293500Y0027780D03*
D33*
X0273500Y0127780D03*
X0268500Y0127780D03*
X0263500Y0127780D03*
X0258500Y0127780D03*
X0253500Y0127780D03*
X0248500Y0127780D03*
X0243500Y0127780D03*
D34*
X0264055Y0134780D03*
X0270945Y0134780D03*
X0270945Y0152780D03*
X0264055Y0152780D03*
D35*
X0264500Y0145929D03*
X0264500Y0139630D03*
M02*
