%
M48
M72
T01C0.01378
T02C0.02165
T03C0.03937
T04C0.04000
%
T01
X31500Y36780
X24500Y42780
X17500Y44780
X36500Y67780
X31500Y78780
X36689Y89591
X40500Y91780
X48500Y92169
X57500Y96780
X50500Y108780
X37500Y115780
X59612Y130892
X56500Y135780
X48500Y134780
X70500Y126780
X70500Y110780
X85500Y102780
X83500Y94780
X88500Y90780
X93689Y92969
X111111Y97780
X110500Y103780
X120500Y98780
X129500Y106780
X137558Y105343
X145500Y107780
X147500Y104780
X151111Y103780
X153500Y97780
X160500Y93780
X146500Y90059
X146500Y85281
X143500Y83780
X132500Y83780
X132500Y87780
X134500Y75780
X129500Y73780
X142500Y72780
X163500Y75780
X166311Y73591
X169500Y69780
X166500Y64780
X139500Y54780
X115500Y58780
X115500Y64780
X100500Y74780
X94500Y75780
X94500Y70780
X81500Y72780
X80500Y79780
X58500Y79780
X81500Y64780
X91500Y58780
X73500Y54780
X71500Y41780
X81500Y19780
X114500Y22780
X126689Y35969
X197500Y57780
X211500Y82780
X203500Y88780
X202500Y93780
X216500Y93780
X229500Y91780
X229500Y97780
X241500Y103780
X265500Y109780
X287500Y82780
X266500Y71780
X276500Y62780
X281500Y52780
X197500Y111433
X177500Y110780
X177500Y129780
X195500Y129780
X107500Y111780
X133500Y124780
X113500Y83780
T02
X231500Y63780
X235500Y74780
X263500Y81780
T03
X19500Y18780
X19500Y140780
X294500Y140780
X294500Y18780
T04
X34500Y25780
X44500Y25780
X61500Y25780
X71500Y25780
X90500Y25780
X100500Y25780
X122500Y25780
X132500Y25780
X142500Y25780
X152500Y25780
X181500Y25780
X191500Y25780
X209500Y51780
X209500Y65780
X209500Y75780
X209500Y115780
X209500Y125780
X23500Y117780
X23500Y107780
X23500Y97780
X23500Y87780
X23500Y70780
X23500Y60780
X23500Y50780
X80500Y43780
X90500Y43780
X100500Y43780
X110500Y43780
X109500Y133780
X119500Y133780
X129500Y133780
X139500Y133780
X149500Y133780
X92500Y133780
X82500Y133780
M30
