G75*
%MOIN*%
%OFA0B0*%
%FSLAX25Y25*%
%IPPOS*%
%LPD*%
%AMOC8*
5,1,8,0,0,1.08239X$1,22.5*
%
%ADD10C,0.01000*%
%ADD11C,0.00000*%
%ADD12R,0.04921X0.02362*%
%ADD13R,0.02500X0.05000*%
%ADD14R,0.03937X0.04331*%
%ADD15R,0.04331X0.03937*%
%ADD16C,0.03937*%
%ADD17C,0.06000*%
%ADD18R,0.05000X0.02500*%
%ADD19OC8,0.06000*%
%ADD20R,0.07874X0.07874*%
%ADD21R,0.06299X0.05118*%
%ADD22C,0.02578*%
%ADD23C,0.02000*%
%ADD24C,0.00800*%
%ADD25C,0.03365*%
D10*
X0011500Y0010780D02*
X0011500Y0148780D01*
X0232500Y0148780D01*
X0232500Y0181780D01*
X0275500Y0181780D01*
X0275500Y0148780D01*
X0302500Y0148780D01*
X0302500Y0010780D01*
X0011500Y0010780D01*
X0013500Y0012780D02*
X0013500Y0027810D01*
X0019062Y0022248D01*
X0018810Y0022248D01*
X0017535Y0021720D01*
X0016560Y0020745D01*
X0016031Y0019470D01*
X0016031Y0018090D01*
X0016560Y0016815D01*
X0017535Y0015839D01*
X0018810Y0015311D01*
X0020190Y0015311D01*
X0021465Y0015839D01*
X0022440Y0016815D01*
X0022968Y0018090D01*
X0022968Y0018342D01*
X0027830Y0013480D01*
X0191675Y0013480D01*
X0192905Y0014710D01*
X0205600Y0027405D01*
X0205600Y0039256D01*
X0207370Y0041026D01*
X0211716Y0041026D01*
X0212946Y0042256D01*
X0231687Y0060997D01*
X0232054Y0060997D01*
X0233076Y0061421D01*
X0233859Y0062204D01*
X0234283Y0063226D01*
X0234283Y0063580D01*
X0246837Y0063580D01*
X0251550Y0058867D01*
X0251550Y0055824D01*
X0252194Y0055180D01*
X0258806Y0055180D01*
X0259450Y0055824D01*
X0259450Y0057180D01*
X0274837Y0057180D01*
X0279111Y0052906D01*
X0279111Y0051790D01*
X0280510Y0050391D01*
X0282490Y0050391D01*
X0283889Y0051790D01*
X0283889Y0053769D01*
X0282490Y0055169D01*
X0281374Y0055169D01*
X0276163Y0060380D01*
X0259450Y0060380D01*
X0259450Y0061736D01*
X0258806Y0062380D01*
X0252563Y0062380D01*
X0249100Y0065843D01*
X0248163Y0066780D01*
X0234763Y0066780D01*
X0211163Y0090380D01*
X0205279Y0090380D01*
X0204490Y0091169D01*
X0202510Y0091169D01*
X0201721Y0090380D01*
X0161163Y0090380D01*
X0160152Y0091391D01*
X0161490Y0091391D01*
X0162279Y0092180D01*
X0200721Y0092180D01*
X0201510Y0091391D01*
X0203490Y0091391D01*
X0204279Y0092180D01*
X0210575Y0092180D01*
X0234575Y0068180D01*
X0251550Y0068180D01*
X0251550Y0066824D01*
X0252194Y0066180D01*
X0258437Y0066180D01*
X0262500Y0062117D01*
X0263437Y0061180D01*
X0274721Y0061180D01*
X0275510Y0060391D01*
X0277490Y0060391D01*
X0278889Y0061790D01*
X0278889Y0063769D01*
X0277490Y0065169D01*
X0275510Y0065169D01*
X0274721Y0064380D01*
X0264763Y0064380D01*
X0259450Y0069693D01*
X0259450Y0072736D01*
X0258806Y0073380D01*
X0252194Y0073380D01*
X0251550Y0072736D01*
X0251550Y0071380D01*
X0235900Y0071380D01*
X0235283Y0071997D01*
X0236054Y0071997D01*
X0237076Y0072421D01*
X0237335Y0072680D01*
X0247770Y0072680D01*
X0249000Y0073910D01*
X0253270Y0078180D01*
X0258806Y0078180D01*
X0259450Y0078824D01*
X0259450Y0080180D01*
X0261165Y0080180D01*
X0261924Y0079421D01*
X0262946Y0078997D01*
X0264054Y0078997D01*
X0265076Y0079421D01*
X0265859Y0080204D01*
X0266283Y0081226D01*
X0266283Y0082333D01*
X0265859Y0083356D01*
X0265076Y0084139D01*
X0264054Y0084563D01*
X0262946Y0084563D01*
X0261924Y0084139D01*
X0261165Y0083380D01*
X0259450Y0083380D01*
X0259450Y0084736D01*
X0258806Y0085380D01*
X0252194Y0085380D01*
X0251550Y0084736D01*
X0251550Y0082400D01*
X0246030Y0076880D01*
X0237335Y0076880D01*
X0237076Y0077139D01*
X0236054Y0077563D01*
X0234946Y0077563D01*
X0233924Y0077139D01*
X0233141Y0076356D01*
X0232717Y0075333D01*
X0232717Y0074563D01*
X0215889Y0091391D01*
X0216626Y0091391D01*
X0225900Y0082117D01*
X0226837Y0081180D01*
X0246300Y0081180D01*
X0247237Y0082117D01*
X0254300Y0089180D01*
X0258806Y0089180D01*
X0259450Y0089824D01*
X0259450Y0095736D01*
X0258806Y0096380D01*
X0258700Y0096380D01*
X0258700Y0101843D01*
X0255163Y0105380D01*
X0243279Y0105380D01*
X0242490Y0106169D01*
X0240510Y0106169D01*
X0239111Y0104769D01*
X0239111Y0102790D01*
X0239125Y0102776D01*
X0238153Y0102776D01*
X0238000Y0102735D01*
X0237847Y0102776D01*
X0235000Y0102776D01*
X0235000Y0099217D01*
X0234000Y0099217D01*
X0234000Y0102776D01*
X0231153Y0102776D01*
X0230771Y0102674D01*
X0230429Y0102476D01*
X0230150Y0102197D01*
X0229953Y0101855D01*
X0229850Y0101473D01*
X0229850Y0099217D01*
X0234000Y0099217D01*
X0234000Y0098217D01*
X0229850Y0098217D01*
X0229850Y0095960D01*
X0229953Y0095579D01*
X0230150Y0095237D01*
X0230429Y0094958D01*
X0230771Y0094760D01*
X0231153Y0094658D01*
X0234000Y0094658D01*
X0234000Y0098217D01*
X0235000Y0098217D01*
X0235000Y0099217D01*
X0236850Y0099217D01*
X0241000Y0099217D01*
X0241000Y0098217D01*
X0235000Y0098217D01*
X0235000Y0094658D01*
X0237847Y0094658D01*
X0238000Y0094699D01*
X0238153Y0094658D01*
X0241000Y0094658D01*
X0241000Y0098217D01*
X0242000Y0098217D01*
X0242000Y0099217D01*
X0246150Y0099217D01*
X0246150Y0101473D01*
X0246047Y0101855D01*
X0245860Y0102180D01*
X0253837Y0102180D01*
X0255500Y0100517D01*
X0255500Y0096380D01*
X0252194Y0096380D01*
X0251550Y0095736D01*
X0251550Y0090955D01*
X0244975Y0084380D01*
X0228163Y0084380D01*
X0218889Y0093654D01*
X0218889Y0094769D01*
X0217490Y0096169D01*
X0215510Y0096169D01*
X0214111Y0094769D01*
X0214111Y0093169D01*
X0212837Y0094443D01*
X0211900Y0095380D01*
X0204279Y0095380D01*
X0203490Y0096169D01*
X0201510Y0096169D01*
X0200721Y0095380D01*
X0162279Y0095380D01*
X0161490Y0096169D01*
X0159510Y0096169D01*
X0158111Y0094769D01*
X0158111Y0093432D01*
X0158100Y0093443D01*
X0158100Y0099054D01*
X0157163Y0099991D01*
X0153500Y0103654D01*
X0153500Y0104580D01*
X0184900Y0104580D01*
X0184900Y0104474D01*
X0185544Y0103830D01*
X0191456Y0103830D01*
X0192100Y0104474D01*
X0192100Y0110717D01*
X0192816Y0111433D01*
X0193754Y0112371D01*
X0193754Y0112917D01*
X0195111Y0111560D01*
X0195111Y0110444D01*
X0196510Y0109044D01*
X0198490Y0109044D01*
X0199889Y0110444D01*
X0199889Y0112423D01*
X0198601Y0113711D01*
X0201467Y0113711D01*
X0202112Y0114356D01*
X0202112Y0115180D01*
X0202400Y0115180D01*
X0202400Y0114964D01*
X0203024Y0113457D01*
X0204178Y0112304D01*
X0205684Y0111680D01*
X0213316Y0111680D01*
X0214822Y0112304D01*
X0215976Y0113457D01*
X0216600Y0114964D01*
X0216600Y0116595D01*
X0215976Y0118102D01*
X0214822Y0119256D01*
X0213316Y0119880D01*
X0205684Y0119880D01*
X0204178Y0119256D01*
X0203302Y0118380D01*
X0202112Y0118380D01*
X0202112Y0119204D01*
X0201467Y0119848D01*
X0196225Y0119848D01*
X0195581Y0119204D01*
X0195581Y0115615D01*
X0195419Y0115777D01*
X0195419Y0119204D01*
X0194775Y0119848D01*
X0189533Y0119848D01*
X0188888Y0119204D01*
X0188888Y0118380D01*
X0187112Y0118380D01*
X0187112Y0119204D01*
X0186467Y0119848D01*
X0181225Y0119848D01*
X0180712Y0119335D01*
X0180519Y0119669D01*
X0180240Y0119949D01*
X0179898Y0120146D01*
X0179516Y0120248D01*
X0177638Y0120248D01*
X0177638Y0117264D01*
X0176669Y0117264D01*
X0176669Y0116296D01*
X0173488Y0116296D01*
X0173488Y0114614D01*
X0173590Y0114232D01*
X0173788Y0113890D01*
X0174067Y0113611D01*
X0174409Y0113414D01*
X0174791Y0113311D01*
X0176669Y0113311D01*
X0176669Y0116296D01*
X0177638Y0116296D01*
X0177638Y0113311D01*
X0179516Y0113311D01*
X0179898Y0113414D01*
X0180240Y0113611D01*
X0180519Y0113890D01*
X0180712Y0114225D01*
X0181225Y0113711D01*
X0186467Y0113711D01*
X0187112Y0114356D01*
X0187112Y0115180D01*
X0188888Y0115180D01*
X0188888Y0114356D01*
X0189533Y0113711D01*
X0190554Y0113711D01*
X0190554Y0113696D01*
X0188587Y0111730D01*
X0185544Y0111730D01*
X0184900Y0111086D01*
X0184900Y0107780D01*
X0148237Y0107780D01*
X0147889Y0107432D01*
X0147889Y0108769D01*
X0147303Y0109356D01*
X0171195Y0133248D01*
X0175112Y0133248D01*
X0175180Y0133180D01*
X0184550Y0133180D01*
X0184550Y0130824D01*
X0185194Y0130180D01*
X0188500Y0130180D01*
X0188500Y0126380D01*
X0187112Y0126380D01*
X0187112Y0127204D01*
X0186467Y0127848D01*
X0181225Y0127848D01*
X0180712Y0127335D01*
X0180519Y0127669D01*
X0180240Y0127949D01*
X0179898Y0128146D01*
X0179516Y0128248D01*
X0177638Y0128248D01*
X0177638Y0125264D01*
X0176669Y0125264D01*
X0176669Y0124296D01*
X0173488Y0124296D01*
X0173488Y0122614D01*
X0173590Y0122232D01*
X0173788Y0121890D01*
X0174067Y0121611D01*
X0174409Y0121414D01*
X0174791Y0121311D01*
X0176669Y0121311D01*
X0176669Y0124296D01*
X0177638Y0124296D01*
X0177638Y0121311D01*
X0179516Y0121311D01*
X0179898Y0121414D01*
X0180240Y0121611D01*
X0180519Y0121890D01*
X0180712Y0122225D01*
X0181225Y0121711D01*
X0186467Y0121711D01*
X0187112Y0122356D01*
X0187112Y0123180D01*
X0188888Y0123180D01*
X0188888Y0122356D01*
X0189533Y0121711D01*
X0194775Y0121711D01*
X0195419Y0122356D01*
X0195419Y0125782D01*
X0195581Y0125945D01*
X0195581Y0122356D01*
X0196225Y0121711D01*
X0201467Y0121711D01*
X0202112Y0122356D01*
X0202112Y0123180D01*
X0203302Y0123180D01*
X0204178Y0122304D01*
X0205684Y0121680D01*
X0213316Y0121680D01*
X0214822Y0122304D01*
X0215976Y0123457D01*
X0216600Y0124964D01*
X0216600Y0126595D01*
X0215976Y0128102D01*
X0214822Y0129256D01*
X0213316Y0129880D01*
X0205684Y0129880D01*
X0204178Y0129256D01*
X0203024Y0128102D01*
X0202400Y0126595D01*
X0202400Y0126380D01*
X0202112Y0126380D01*
X0202112Y0127204D01*
X0201467Y0127848D01*
X0197100Y0127848D01*
X0197100Y0128001D01*
X0197889Y0128790D01*
X0197889Y0130769D01*
X0196490Y0132169D01*
X0194510Y0132169D01*
X0193111Y0130769D01*
X0193111Y0128790D01*
X0193506Y0128395D01*
X0192959Y0127848D01*
X0191700Y0127848D01*
X0191700Y0130180D01*
X0191806Y0130180D01*
X0192450Y0130824D01*
X0192450Y0136736D01*
X0191806Y0137380D01*
X0185194Y0137380D01*
X0184550Y0136736D01*
X0184550Y0136380D01*
X0176506Y0136380D01*
X0176437Y0136448D01*
X0169870Y0136448D01*
X0144837Y0111416D01*
X0143900Y0110479D01*
X0143900Y0109558D01*
X0143111Y0108769D01*
X0143111Y0106790D01*
X0144510Y0105391D01*
X0145111Y0105391D01*
X0145111Y0103790D01*
X0146510Y0102391D01*
X0148490Y0102391D01*
X0148805Y0102707D01*
X0150121Y0101391D01*
X0151237Y0101391D01*
X0152485Y0100143D01*
X0151111Y0098769D01*
X0151111Y0096790D01*
X0151900Y0096001D01*
X0151900Y0085117D01*
X0161111Y0075906D01*
X0161111Y0074790D01*
X0162510Y0073391D01*
X0163922Y0073391D01*
X0163922Y0072601D01*
X0165321Y0071202D01*
X0167300Y0071202D01*
X0168089Y0071991D01*
X0168332Y0071991D01*
X0167111Y0070769D01*
X0167111Y0068790D01*
X0168510Y0067391D01*
X0170490Y0067391D01*
X0171279Y0068180D01*
X0196163Y0068180D01*
X0202163Y0074180D01*
X0202725Y0074180D01*
X0203024Y0073457D01*
X0204178Y0072304D01*
X0205684Y0071680D01*
X0213316Y0071680D01*
X0214822Y0072304D01*
X0215976Y0073457D01*
X0216600Y0074964D01*
X0216600Y0076595D01*
X0215976Y0078102D01*
X0214822Y0079256D01*
X0213316Y0079880D01*
X0205684Y0079880D01*
X0204178Y0079256D01*
X0203024Y0078102D01*
X0202725Y0077380D01*
X0200837Y0077380D01*
X0194837Y0071380D01*
X0171279Y0071380D01*
X0170668Y0071991D01*
X0189163Y0071991D01*
X0198352Y0081180D01*
X0209721Y0081180D01*
X0210510Y0080391D01*
X0212490Y0080391D01*
X0213889Y0081790D01*
X0213889Y0083128D01*
X0230599Y0066418D01*
X0229924Y0066139D01*
X0229141Y0065356D01*
X0228717Y0064333D01*
X0228717Y0063967D01*
X0209977Y0045226D01*
X0194754Y0045226D01*
X0194754Y0048711D01*
X0195775Y0048711D01*
X0196419Y0049356D01*
X0196419Y0054204D01*
X0195775Y0054848D01*
X0190533Y0054848D01*
X0189888Y0054204D01*
X0189888Y0053380D01*
X0176163Y0053380D01*
X0167152Y0062391D01*
X0167490Y0062391D01*
X0168279Y0063180D01*
X0203302Y0063180D01*
X0204178Y0062304D01*
X0205684Y0061680D01*
X0213316Y0061680D01*
X0214822Y0062304D01*
X0215976Y0063457D01*
X0216600Y0064964D01*
X0216600Y0066595D01*
X0215976Y0068102D01*
X0214822Y0069256D01*
X0213316Y0069880D01*
X0205684Y0069880D01*
X0204178Y0069256D01*
X0203024Y0068102D01*
X0202400Y0066595D01*
X0202400Y0066380D01*
X0168279Y0066380D01*
X0167490Y0067169D01*
X0165510Y0067169D01*
X0164111Y0065769D01*
X0164111Y0065432D01*
X0146651Y0082892D01*
X0147490Y0082892D01*
X0148889Y0084291D01*
X0148889Y0086270D01*
X0148100Y0087059D01*
X0148100Y0088280D01*
X0148889Y0089069D01*
X0148889Y0091048D01*
X0147490Y0092448D01*
X0145510Y0092448D01*
X0144111Y0091048D01*
X0144111Y0089069D01*
X0144900Y0088280D01*
X0144900Y0087059D01*
X0144111Y0086270D01*
X0144111Y0086169D01*
X0142510Y0086169D01*
X0141547Y0085205D01*
X0141547Y0106996D01*
X0140147Y0108395D01*
X0139210Y0109332D01*
X0135906Y0109332D01*
X0134968Y0108395D01*
X0120953Y0094380D01*
X0095657Y0094380D01*
X0094679Y0095358D01*
X0092700Y0095358D01*
X0091600Y0094258D01*
X0091600Y0106064D01*
X0090663Y0107001D01*
X0090663Y0107001D01*
X0090432Y0107232D01*
X0089495Y0108169D01*
X0068374Y0108169D01*
X0056774Y0119769D01*
X0035848Y0119769D01*
X0035459Y0119380D01*
X0032837Y0119380D01*
X0030600Y0117143D01*
X0030600Y0118595D01*
X0029976Y0120102D01*
X0029030Y0121048D01*
X0037275Y0129292D01*
X0057834Y0129292D01*
X0058623Y0128503D01*
X0060602Y0128503D01*
X0062001Y0129903D01*
X0062001Y0131882D01*
X0060602Y0133281D01*
X0058623Y0133281D01*
X0057834Y0132492D01*
X0049591Y0132492D01*
X0050279Y0133180D01*
X0056163Y0133180D01*
X0056374Y0133391D01*
X0057490Y0133391D01*
X0058889Y0134790D01*
X0058889Y0136769D01*
X0057490Y0138169D01*
X0055510Y0138169D01*
X0054111Y0136769D01*
X0054111Y0136380D01*
X0050279Y0136380D01*
X0049490Y0137169D01*
X0047510Y0137169D01*
X0046111Y0135769D01*
X0046111Y0133790D01*
X0047409Y0132492D01*
X0035950Y0132492D01*
X0025337Y0121880D01*
X0019684Y0121880D01*
X0018178Y0121256D01*
X0017024Y0120102D01*
X0016400Y0118595D01*
X0016400Y0116964D01*
X0017024Y0115457D01*
X0018178Y0114304D01*
X0019684Y0113680D01*
X0027137Y0113680D01*
X0025337Y0111880D01*
X0019684Y0111880D01*
X0018178Y0111256D01*
X0017024Y0110102D01*
X0016400Y0108595D01*
X0016400Y0106964D01*
X0017024Y0105457D01*
X0018178Y0104304D01*
X0019684Y0103680D01*
X0027316Y0103680D01*
X0028822Y0104304D01*
X0029976Y0105457D01*
X0030600Y0106964D01*
X0030600Y0108595D01*
X0029976Y0110102D01*
X0029030Y0111048D01*
X0034163Y0116180D01*
X0035111Y0116180D01*
X0035111Y0114790D01*
X0035900Y0114001D01*
X0035900Y0102506D01*
X0039932Y0098474D01*
X0034937Y0093480D01*
X0016937Y0093480D01*
X0016000Y0092543D01*
X0014800Y0091343D01*
X0014800Y0084815D01*
X0024498Y0075117D01*
X0024736Y0074880D01*
X0019684Y0074880D01*
X0018178Y0074256D01*
X0017024Y0073102D01*
X0016400Y0071595D01*
X0016400Y0071150D01*
X0013500Y0068250D01*
X0013500Y0146780D01*
X0233328Y0146780D01*
X0234500Y0147951D01*
X0234500Y0149780D01*
X0273500Y0149780D01*
X0273500Y0147951D01*
X0274672Y0146780D01*
X0300500Y0146780D01*
X0300500Y0012780D01*
X0013500Y0012780D01*
X0013500Y0012866D02*
X0300500Y0012866D01*
X0300500Y0013865D02*
X0192060Y0013865D01*
X0193059Y0014863D02*
X0300500Y0014863D01*
X0300500Y0015862D02*
X0296487Y0015862D01*
X0296465Y0015839D02*
X0297440Y0016815D01*
X0297968Y0018090D01*
X0297968Y0019470D01*
X0297440Y0020745D01*
X0296465Y0021720D01*
X0295190Y0022248D01*
X0293810Y0022248D01*
X0292535Y0021720D01*
X0291560Y0020745D01*
X0291031Y0019470D01*
X0291031Y0018090D01*
X0291560Y0016815D01*
X0292535Y0015839D01*
X0293810Y0015311D01*
X0295190Y0015311D01*
X0296465Y0015839D01*
X0297459Y0016860D02*
X0300500Y0016860D01*
X0300500Y0017859D02*
X0297873Y0017859D01*
X0297968Y0018857D02*
X0300500Y0018857D01*
X0300500Y0019856D02*
X0297809Y0019856D01*
X0297331Y0020854D02*
X0300500Y0020854D01*
X0300500Y0021853D02*
X0296145Y0021853D01*
X0292855Y0021853D02*
X0200048Y0021853D01*
X0199050Y0020854D02*
X0291669Y0020854D01*
X0291191Y0019856D02*
X0198051Y0019856D01*
X0197053Y0018857D02*
X0291031Y0018857D01*
X0291127Y0017859D02*
X0196054Y0017859D01*
X0195056Y0016860D02*
X0291541Y0016860D01*
X0292513Y0015862D02*
X0194057Y0015862D01*
X0201047Y0022851D02*
X0300500Y0022851D01*
X0300500Y0023850D02*
X0202045Y0023850D01*
X0203044Y0024848D02*
X0300500Y0024848D01*
X0300500Y0025847D02*
X0204042Y0025847D01*
X0205041Y0026845D02*
X0300500Y0026845D01*
X0300500Y0027844D02*
X0205600Y0027844D01*
X0205600Y0028842D02*
X0300500Y0028842D01*
X0300500Y0029841D02*
X0205600Y0029841D01*
X0205600Y0030839D02*
X0300500Y0030839D01*
X0300500Y0031838D02*
X0205600Y0031838D01*
X0205600Y0032836D02*
X0300500Y0032836D01*
X0300500Y0033835D02*
X0205600Y0033835D01*
X0205600Y0034833D02*
X0300500Y0034833D01*
X0300500Y0035832D02*
X0205600Y0035832D01*
X0205600Y0036830D02*
X0300500Y0036830D01*
X0300500Y0037829D02*
X0205600Y0037829D01*
X0205600Y0038828D02*
X0300500Y0038828D01*
X0300500Y0039826D02*
X0206170Y0039826D01*
X0207168Y0040825D02*
X0300500Y0040825D01*
X0300500Y0041823D02*
X0212513Y0041823D01*
X0213512Y0042822D02*
X0300500Y0042822D01*
X0300500Y0043820D02*
X0214510Y0043820D01*
X0215509Y0044819D02*
X0300500Y0044819D01*
X0300500Y0045817D02*
X0216507Y0045817D01*
X0217506Y0046816D02*
X0300500Y0046816D01*
X0300500Y0047814D02*
X0218504Y0047814D01*
X0219503Y0048813D02*
X0300500Y0048813D01*
X0300500Y0049811D02*
X0220501Y0049811D01*
X0221500Y0050810D02*
X0280092Y0050810D01*
X0279111Y0051808D02*
X0222498Y0051808D01*
X0223497Y0052807D02*
X0279111Y0052807D01*
X0278212Y0053805D02*
X0224495Y0053805D01*
X0225494Y0054804D02*
X0277213Y0054804D01*
X0276215Y0055802D02*
X0259428Y0055802D01*
X0259450Y0056801D02*
X0275216Y0056801D01*
X0278743Y0057799D02*
X0300500Y0057799D01*
X0300500Y0056801D02*
X0279742Y0056801D01*
X0280740Y0055802D02*
X0300500Y0055802D01*
X0300500Y0054804D02*
X0282855Y0054804D01*
X0283853Y0053805D02*
X0300500Y0053805D01*
X0300500Y0052807D02*
X0283889Y0052807D01*
X0283889Y0051808D02*
X0300500Y0051808D01*
X0300500Y0050810D02*
X0282908Y0050810D01*
X0281500Y0052780D02*
X0275500Y0058780D01*
X0257100Y0058780D01*
X0259450Y0060795D02*
X0275107Y0060795D01*
X0276746Y0059796D02*
X0300500Y0059796D01*
X0300500Y0058798D02*
X0277745Y0058798D01*
X0277893Y0060795D02*
X0300500Y0060795D01*
X0300500Y0061793D02*
X0278889Y0061793D01*
X0278889Y0062792D02*
X0300500Y0062792D01*
X0300500Y0063790D02*
X0278868Y0063790D01*
X0277870Y0064789D02*
X0300500Y0064789D01*
X0300500Y0065787D02*
X0263355Y0065787D01*
X0264354Y0064789D02*
X0275130Y0064789D01*
X0276500Y0062780D02*
X0264100Y0062780D01*
X0257100Y0069780D01*
X0259450Y0069781D02*
X0300500Y0069781D01*
X0300500Y0068783D02*
X0260360Y0068783D01*
X0261358Y0067784D02*
X0300500Y0067784D01*
X0300500Y0066786D02*
X0262357Y0066786D01*
X0259828Y0064789D02*
X0250154Y0064789D01*
X0251152Y0063790D02*
X0260827Y0063790D01*
X0261825Y0062792D02*
X0252151Y0062792D01*
X0249622Y0060795D02*
X0231485Y0060795D01*
X0230486Y0059796D02*
X0250621Y0059796D01*
X0251550Y0058798D02*
X0229488Y0058798D01*
X0228489Y0057799D02*
X0251550Y0057799D01*
X0251550Y0056801D02*
X0227491Y0056801D01*
X0226492Y0055802D02*
X0251572Y0055802D01*
X0253900Y0058780D02*
X0247500Y0065180D01*
X0234100Y0065180D01*
X0210500Y0088780D01*
X0203500Y0088780D01*
X0160500Y0088780D01*
X0156500Y0092780D01*
X0156500Y0098391D01*
X0151111Y0103780D01*
X0153500Y0103731D02*
X0239111Y0103731D01*
X0239111Y0104729D02*
X0192100Y0104729D01*
X0192100Y0105728D02*
X0240069Y0105728D01*
X0241500Y0103780D02*
X0254500Y0103780D01*
X0257100Y0101180D01*
X0257100Y0092780D01*
X0259450Y0092747D02*
X0300500Y0092747D01*
X0300500Y0091749D02*
X0259450Y0091749D01*
X0259450Y0090750D02*
X0300500Y0090750D01*
X0300500Y0089752D02*
X0259377Y0089752D01*
X0259426Y0084759D02*
X0271250Y0084759D01*
X0271250Y0085732D02*
X0271250Y0079702D01*
X0271895Y0079058D01*
X0279105Y0079058D01*
X0286105Y0079058D01*
X0286750Y0079702D01*
X0286750Y0080391D01*
X0288490Y0080391D01*
X0289889Y0081790D01*
X0289889Y0083769D01*
X0288490Y0085169D01*
X0286750Y0085169D01*
X0286750Y0085732D01*
X0286105Y0086376D01*
X0271895Y0086376D01*
X0271250Y0085732D01*
X0271276Y0085758D02*
X0250878Y0085758D01*
X0251574Y0084759D02*
X0249879Y0084759D01*
X0248881Y0083761D02*
X0251550Y0083761D01*
X0251550Y0082762D02*
X0247882Y0082762D01*
X0246884Y0081764D02*
X0250914Y0081764D01*
X0249915Y0080765D02*
X0226515Y0080765D01*
X0226254Y0081764D02*
X0225516Y0081764D01*
X0225255Y0082762D02*
X0224518Y0082762D01*
X0224257Y0083761D02*
X0223519Y0083761D01*
X0223258Y0084759D02*
X0222521Y0084759D01*
X0222260Y0085758D02*
X0221522Y0085758D01*
X0221261Y0086756D02*
X0220524Y0086756D01*
X0220263Y0087755D02*
X0219525Y0087755D01*
X0219264Y0088753D02*
X0218527Y0088753D01*
X0218266Y0089752D02*
X0217528Y0089752D01*
X0217267Y0090750D02*
X0216530Y0090750D01*
X0214001Y0088753D02*
X0212790Y0088753D01*
X0213003Y0089752D02*
X0211791Y0089752D01*
X0212004Y0090750D02*
X0204908Y0090750D01*
X0203847Y0091749D02*
X0211006Y0091749D01*
X0211237Y0093780D02*
X0202500Y0093780D01*
X0160500Y0093780D01*
X0158111Y0093746D02*
X0158100Y0093746D01*
X0158100Y0094744D02*
X0158111Y0094744D01*
X0158100Y0095743D02*
X0159084Y0095743D01*
X0158100Y0096741D02*
X0229850Y0096741D01*
X0229850Y0097740D02*
X0158100Y0097740D01*
X0158100Y0098738D02*
X0234000Y0098738D01*
X0234500Y0098717D02*
X0230437Y0098717D01*
X0229500Y0097780D01*
X0229850Y0099737D02*
X0157417Y0099737D01*
X0156418Y0100735D02*
X0229850Y0100735D01*
X0229920Y0101734D02*
X0155420Y0101734D01*
X0154421Y0102732D02*
X0230990Y0102732D01*
X0234000Y0102732D02*
X0235000Y0102732D01*
X0235000Y0101734D02*
X0234000Y0101734D01*
X0234000Y0100735D02*
X0235000Y0100735D01*
X0235000Y0099737D02*
X0234000Y0099737D01*
X0234500Y0098717D02*
X0241500Y0098717D01*
X0242000Y0098738D02*
X0255500Y0098738D01*
X0255500Y0097740D02*
X0246150Y0097740D01*
X0246150Y0098217D02*
X0242000Y0098217D01*
X0242000Y0094658D01*
X0244847Y0094658D01*
X0245229Y0094760D01*
X0245571Y0094958D01*
X0245850Y0095237D01*
X0246047Y0095579D01*
X0246150Y0095960D01*
X0246150Y0098217D01*
X0246150Y0096741D02*
X0255500Y0096741D01*
X0258700Y0096741D02*
X0300500Y0096741D01*
X0300500Y0095743D02*
X0259443Y0095743D01*
X0259450Y0094744D02*
X0300500Y0094744D01*
X0300500Y0093746D02*
X0259450Y0093746D01*
X0258700Y0097740D02*
X0300500Y0097740D01*
X0300500Y0098738D02*
X0258700Y0098738D01*
X0258700Y0099737D02*
X0300500Y0099737D01*
X0300500Y0100735D02*
X0258700Y0100735D01*
X0258700Y0101734D02*
X0300500Y0101734D01*
X0300500Y0102732D02*
X0257810Y0102732D01*
X0256812Y0103731D02*
X0300500Y0103731D01*
X0300500Y0104729D02*
X0255813Y0104729D01*
X0254283Y0101734D02*
X0246080Y0101734D01*
X0246150Y0100735D02*
X0255282Y0100735D01*
X0255500Y0099737D02*
X0246150Y0099737D01*
X0246091Y0095743D02*
X0251557Y0095743D01*
X0251550Y0094744D02*
X0245169Y0094744D01*
X0245105Y0094502D02*
X0245750Y0093858D01*
X0245750Y0087828D01*
X0245105Y0087184D01*
X0230895Y0087184D01*
X0230250Y0087828D01*
X0230250Y0089243D01*
X0229774Y0089243D01*
X0229626Y0089391D01*
X0228510Y0089391D01*
X0227111Y0090790D01*
X0227111Y0092769D01*
X0228510Y0094169D01*
X0230490Y0094169D01*
X0230526Y0094133D01*
X0230895Y0094502D01*
X0245105Y0094502D01*
X0245750Y0093746D02*
X0251550Y0093746D01*
X0251550Y0092747D02*
X0245750Y0092747D01*
X0245750Y0091749D02*
X0251550Y0091749D01*
X0251345Y0090750D02*
X0245750Y0090750D01*
X0245750Y0089752D02*
X0250346Y0089752D01*
X0249348Y0088753D02*
X0245750Y0088753D01*
X0245676Y0087755D02*
X0248349Y0087755D01*
X0247351Y0086756D02*
X0225787Y0086756D01*
X0226785Y0085758D02*
X0246352Y0085758D01*
X0245354Y0084759D02*
X0227784Y0084759D01*
X0227500Y0082780D02*
X0228500Y0082780D01*
X0245637Y0082780D01*
X0253900Y0091043D01*
X0253900Y0092780D01*
X0253873Y0088753D02*
X0300500Y0088753D01*
X0300500Y0087755D02*
X0252875Y0087755D01*
X0251876Y0086756D02*
X0300500Y0086756D01*
X0300500Y0085758D02*
X0286724Y0085758D01*
X0288899Y0084759D02*
X0300500Y0084759D01*
X0300500Y0083761D02*
X0289889Y0083761D01*
X0289889Y0082762D02*
X0300500Y0082762D01*
X0300500Y0081764D02*
X0289862Y0081764D01*
X0288864Y0080765D02*
X0300500Y0080765D01*
X0300500Y0079766D02*
X0286750Y0079766D01*
X0286229Y0078800D02*
X0285847Y0078902D01*
X0283000Y0078902D01*
X0283000Y0075343D01*
X0282000Y0075343D01*
X0282000Y0078902D01*
X0279153Y0078902D01*
X0279000Y0078861D01*
X0278847Y0078902D01*
X0276000Y0078902D01*
X0276000Y0075343D01*
X0275000Y0075343D01*
X0275000Y0078902D01*
X0272153Y0078902D01*
X0271771Y0078800D01*
X0271429Y0078602D01*
X0271150Y0078323D01*
X0270953Y0077981D01*
X0270850Y0077599D01*
X0270850Y0075343D01*
X0275000Y0075343D01*
X0275000Y0074343D01*
X0270850Y0074343D01*
X0270850Y0072086D01*
X0270953Y0071705D01*
X0271150Y0071363D01*
X0271429Y0071084D01*
X0271771Y0070886D01*
X0272153Y0070784D01*
X0275000Y0070784D01*
X0275000Y0074343D01*
X0276000Y0074343D01*
X0276000Y0075343D01*
X0280150Y0075343D01*
X0282000Y0075343D01*
X0282000Y0074343D01*
X0276000Y0074343D01*
X0276000Y0070784D01*
X0278847Y0070784D01*
X0279000Y0070825D01*
X0279153Y0070784D01*
X0282000Y0070784D01*
X0282000Y0074343D01*
X0283000Y0074343D01*
X0283000Y0075343D01*
X0287150Y0075343D01*
X0287150Y0077599D01*
X0287047Y0077981D01*
X0286850Y0078323D01*
X0286571Y0078602D01*
X0286229Y0078800D01*
X0286284Y0078768D02*
X0300500Y0078768D01*
X0300500Y0077769D02*
X0287104Y0077769D01*
X0287150Y0076771D02*
X0300500Y0076771D01*
X0300500Y0075772D02*
X0287150Y0075772D01*
X0287150Y0074343D02*
X0283000Y0074343D01*
X0283000Y0070784D01*
X0285847Y0070784D01*
X0286229Y0070886D01*
X0286571Y0071084D01*
X0286850Y0071363D01*
X0287047Y0071705D01*
X0287150Y0072086D01*
X0287150Y0074343D01*
X0287150Y0073775D02*
X0300500Y0073775D01*
X0300500Y0072777D02*
X0287150Y0072777D01*
X0287067Y0071778D02*
X0300500Y0071778D01*
X0300500Y0070780D02*
X0259450Y0070780D01*
X0259450Y0071778D02*
X0270933Y0071778D01*
X0270850Y0072777D02*
X0259409Y0072777D01*
X0253900Y0069780D02*
X0235237Y0069780D01*
X0211237Y0093780D01*
X0212536Y0094744D02*
X0214111Y0094744D01*
X0214111Y0093746D02*
X0213534Y0093746D01*
X0215084Y0095743D02*
X0203916Y0095743D01*
X0201084Y0095743D02*
X0161916Y0095743D01*
X0161847Y0091749D02*
X0201153Y0091749D01*
X0202092Y0090750D02*
X0160792Y0090750D01*
X0153500Y0085780D02*
X0163500Y0075780D01*
X0161111Y0075772D02*
X0153770Y0075772D01*
X0154769Y0074774D02*
X0161127Y0074774D01*
X0162126Y0073775D02*
X0155767Y0073775D01*
X0156766Y0072777D02*
X0163922Y0072777D01*
X0164744Y0071778D02*
X0157764Y0071778D01*
X0158763Y0070780D02*
X0167121Y0070780D01*
X0167111Y0069781D02*
X0159761Y0069781D01*
X0160760Y0068783D02*
X0167118Y0068783D01*
X0168117Y0067784D02*
X0161758Y0067784D01*
X0162757Y0066786D02*
X0165127Y0066786D01*
X0164129Y0065787D02*
X0163755Y0065787D01*
X0166500Y0064780D02*
X0208500Y0064780D01*
X0209500Y0065780D01*
X0213589Y0061793D02*
X0226544Y0061793D01*
X0227542Y0062792D02*
X0215310Y0062792D01*
X0216114Y0063790D02*
X0228541Y0063790D01*
X0228906Y0064789D02*
X0216527Y0064789D01*
X0216600Y0065787D02*
X0229572Y0065787D01*
X0230231Y0066786D02*
X0216521Y0066786D01*
X0216108Y0067784D02*
X0229233Y0067784D01*
X0228234Y0068783D02*
X0215295Y0068783D01*
X0213553Y0069781D02*
X0227236Y0069781D01*
X0226237Y0070780D02*
X0198763Y0070780D01*
X0199761Y0071778D02*
X0205447Y0071778D01*
X0205447Y0069781D02*
X0197764Y0069781D01*
X0196766Y0068783D02*
X0203705Y0068783D01*
X0202892Y0067784D02*
X0170883Y0067784D01*
X0167873Y0066786D02*
X0202479Y0066786D01*
X0203690Y0062792D02*
X0167890Y0062792D01*
X0167749Y0061793D02*
X0205411Y0061793D01*
X0199889Y0058769D02*
X0199889Y0057654D01*
X0201446Y0056096D01*
X0201446Y0054848D01*
X0202467Y0054848D01*
X0203112Y0054204D01*
X0203112Y0053380D01*
X0205400Y0053380D01*
X0205400Y0053478D01*
X0207802Y0055880D01*
X0211198Y0055880D01*
X0213600Y0053478D01*
X0213600Y0050082D01*
X0211198Y0047680D01*
X0207802Y0047680D01*
X0205400Y0050082D01*
X0205400Y0050180D01*
X0203112Y0050180D01*
X0203112Y0049356D01*
X0202467Y0048711D01*
X0197225Y0048711D01*
X0196581Y0049356D01*
X0196581Y0054204D01*
X0197225Y0054848D01*
X0198169Y0054848D01*
X0197626Y0055391D01*
X0196510Y0055391D01*
X0195111Y0056790D01*
X0195111Y0058769D01*
X0196510Y0060169D01*
X0198490Y0060169D01*
X0199889Y0058769D01*
X0199861Y0058798D02*
X0223548Y0058798D01*
X0224547Y0059796D02*
X0198862Y0059796D01*
X0199889Y0057799D02*
X0222550Y0057799D01*
X0221551Y0056801D02*
X0200742Y0056801D01*
X0201446Y0055802D02*
X0207724Y0055802D01*
X0206726Y0054804D02*
X0202512Y0054804D01*
X0203112Y0053805D02*
X0205727Y0053805D01*
X0209500Y0051780D02*
X0199846Y0051780D01*
X0199846Y0055433D01*
X0197500Y0057780D01*
X0195111Y0057799D02*
X0171743Y0057799D01*
X0170745Y0058798D02*
X0195139Y0058798D01*
X0196138Y0059796D02*
X0169746Y0059796D01*
X0168748Y0060795D02*
X0225545Y0060795D01*
X0220552Y0055802D02*
X0211276Y0055802D01*
X0212274Y0054804D02*
X0219554Y0054804D01*
X0218555Y0053805D02*
X0213273Y0053805D01*
X0213600Y0052807D02*
X0217557Y0052807D01*
X0216558Y0051808D02*
X0213600Y0051808D01*
X0213600Y0050810D02*
X0215560Y0050810D01*
X0214561Y0049811D02*
X0213330Y0049811D01*
X0213563Y0048813D02*
X0212331Y0048813D01*
X0212564Y0047814D02*
X0211333Y0047814D01*
X0211566Y0046816D02*
X0194754Y0046816D01*
X0194754Y0047814D02*
X0207667Y0047814D01*
X0206669Y0048813D02*
X0202569Y0048813D01*
X0203112Y0049811D02*
X0205670Y0049811D01*
X0210567Y0045817D02*
X0194754Y0045817D01*
X0193154Y0045780D02*
X0193154Y0051780D01*
X0175500Y0051780D01*
X0143500Y0083780D01*
X0142099Y0085758D02*
X0141547Y0085758D01*
X0141547Y0086756D02*
X0144597Y0086756D01*
X0144900Y0087755D02*
X0141547Y0087755D01*
X0141547Y0088753D02*
X0144427Y0088753D01*
X0144111Y0089752D02*
X0141547Y0089752D01*
X0141547Y0090750D02*
X0144111Y0090750D01*
X0144811Y0091749D02*
X0141547Y0091749D01*
X0141547Y0092747D02*
X0151900Y0092747D01*
X0151900Y0091749D02*
X0148189Y0091749D01*
X0148889Y0090750D02*
X0151900Y0090750D01*
X0151900Y0089752D02*
X0148889Y0089752D01*
X0148573Y0088753D02*
X0151900Y0088753D01*
X0151900Y0087755D02*
X0148100Y0087755D01*
X0148403Y0086756D02*
X0151900Y0086756D01*
X0151900Y0085758D02*
X0148889Y0085758D01*
X0148889Y0084759D02*
X0152258Y0084759D01*
X0153257Y0083761D02*
X0148358Y0083761D01*
X0146781Y0082762D02*
X0154255Y0082762D01*
X0155254Y0081764D02*
X0147779Y0081764D01*
X0148778Y0080765D02*
X0156252Y0080765D01*
X0157251Y0079766D02*
X0149776Y0079766D01*
X0150775Y0078768D02*
X0158249Y0078768D01*
X0159248Y0077769D02*
X0151773Y0077769D01*
X0152772Y0076771D02*
X0160246Y0076771D01*
X0166311Y0073591D02*
X0188500Y0073591D01*
X0197689Y0082780D01*
X0211500Y0082780D01*
X0213889Y0082762D02*
X0214255Y0082762D01*
X0213862Y0081764D02*
X0215254Y0081764D01*
X0216252Y0080765D02*
X0212864Y0080765D01*
X0213589Y0079766D02*
X0217251Y0079766D01*
X0218249Y0078768D02*
X0215310Y0078768D01*
X0216114Y0077769D02*
X0219248Y0077769D01*
X0220246Y0076771D02*
X0216527Y0076771D01*
X0216600Y0075772D02*
X0221245Y0075772D01*
X0222243Y0074774D02*
X0216521Y0074774D01*
X0216108Y0073775D02*
X0223242Y0073775D01*
X0224240Y0072777D02*
X0215295Y0072777D01*
X0213553Y0071778D02*
X0225239Y0071778D01*
X0227767Y0073775D02*
X0228979Y0073775D01*
X0228766Y0072777D02*
X0229977Y0072777D01*
X0229764Y0071778D02*
X0230976Y0071778D01*
X0230763Y0070780D02*
X0231975Y0070780D01*
X0231761Y0069781D02*
X0232973Y0069781D01*
X0232760Y0068783D02*
X0233972Y0068783D01*
X0233758Y0067784D02*
X0251550Y0067784D01*
X0251588Y0066786D02*
X0234757Y0066786D01*
X0234103Y0062792D02*
X0247625Y0062792D01*
X0248624Y0061793D02*
X0233449Y0061793D01*
X0249155Y0065787D02*
X0258830Y0065787D01*
X0259392Y0061793D02*
X0262824Y0061793D01*
X0262500Y0062117D02*
X0262500Y0062117D01*
X0266500Y0071780D02*
X0269563Y0074843D01*
X0275500Y0074843D01*
X0282500Y0074843D01*
X0283000Y0074774D02*
X0300500Y0074774D01*
X0287500Y0082780D02*
X0282563Y0082780D01*
X0282500Y0082717D01*
X0275500Y0082717D01*
X0271250Y0082762D02*
X0266105Y0082762D01*
X0266283Y0081764D02*
X0271250Y0081764D01*
X0271250Y0080765D02*
X0266092Y0080765D01*
X0265422Y0079766D02*
X0271250Y0079766D01*
X0271716Y0078768D02*
X0259394Y0078768D01*
X0259450Y0079766D02*
X0261578Y0079766D01*
X0263500Y0081780D02*
X0257100Y0081780D01*
X0259450Y0083761D02*
X0261545Y0083761D01*
X0265455Y0083761D02*
X0271250Y0083761D01*
X0270896Y0077769D02*
X0252859Y0077769D01*
X0251861Y0076771D02*
X0270850Y0076771D01*
X0270850Y0075772D02*
X0250862Y0075772D01*
X0249864Y0074774D02*
X0275000Y0074774D01*
X0275000Y0075772D02*
X0276000Y0075772D01*
X0276000Y0074774D02*
X0282000Y0074774D01*
X0282000Y0075772D02*
X0283000Y0075772D01*
X0283000Y0076771D02*
X0282000Y0076771D01*
X0282000Y0077769D02*
X0283000Y0077769D01*
X0283000Y0078768D02*
X0282000Y0078768D01*
X0282000Y0073775D02*
X0283000Y0073775D01*
X0283000Y0072777D02*
X0282000Y0072777D01*
X0282000Y0071778D02*
X0283000Y0071778D01*
X0276000Y0071778D02*
X0275000Y0071778D01*
X0275000Y0072777D02*
X0276000Y0072777D01*
X0276000Y0073775D02*
X0275000Y0073775D01*
X0275000Y0076771D02*
X0276000Y0076771D01*
X0276000Y0077769D02*
X0275000Y0077769D01*
X0275000Y0078768D02*
X0276000Y0078768D01*
X0270850Y0073775D02*
X0248865Y0073775D01*
X0247867Y0072777D02*
X0251591Y0072777D01*
X0251550Y0071778D02*
X0235501Y0071778D01*
X0232717Y0074774D02*
X0232506Y0074774D01*
X0232899Y0075772D02*
X0231507Y0075772D01*
X0230509Y0076771D02*
X0233556Y0076771D01*
X0229510Y0077769D02*
X0246920Y0077769D01*
X0247918Y0078768D02*
X0228512Y0078768D01*
X0227513Y0079766D02*
X0248917Y0079766D01*
X0266500Y0071780D02*
X0266500Y0092780D01*
X0261500Y0097780D01*
X0261500Y0105780D01*
X0265500Y0109780D01*
X0242931Y0105728D02*
X0300500Y0105728D01*
X0300500Y0106726D02*
X0192100Y0106726D01*
X0192100Y0107725D02*
X0300500Y0107725D01*
X0300500Y0108723D02*
X0192100Y0108723D01*
X0192100Y0109722D02*
X0195833Y0109722D01*
X0195111Y0110720D02*
X0192103Y0110720D01*
X0193102Y0111719D02*
X0194952Y0111719D01*
X0193953Y0112717D02*
X0193754Y0112717D01*
X0192154Y0113033D02*
X0192154Y0116780D01*
X0197500Y0111433D01*
X0199167Y0109722D02*
X0300500Y0109722D01*
X0300500Y0110720D02*
X0199889Y0110720D01*
X0199889Y0111719D02*
X0205590Y0111719D01*
X0203764Y0112717D02*
X0199595Y0112717D01*
X0201472Y0113716D02*
X0202917Y0113716D01*
X0202504Y0114714D02*
X0202112Y0114714D01*
X0198846Y0116780D02*
X0208500Y0116780D01*
X0209500Y0115780D01*
X0205267Y0119707D02*
X0201609Y0119707D01*
X0202112Y0118708D02*
X0203630Y0118708D01*
X0205626Y0121704D02*
X0180333Y0121704D01*
X0180482Y0119707D02*
X0181084Y0119707D01*
X0177638Y0119707D02*
X0176669Y0119707D01*
X0176669Y0120248D02*
X0174791Y0120248D01*
X0174409Y0120146D01*
X0174067Y0119949D01*
X0173788Y0119669D01*
X0173590Y0119327D01*
X0173488Y0118946D01*
X0173488Y0117264D01*
X0176669Y0117264D01*
X0176669Y0120248D01*
X0176669Y0121704D02*
X0177638Y0121704D01*
X0177638Y0122702D02*
X0176669Y0122702D01*
X0176669Y0123701D02*
X0177638Y0123701D01*
X0177154Y0124780D02*
X0177154Y0116780D01*
X0177154Y0111126D01*
X0177500Y0110780D01*
X0177638Y0113716D02*
X0176669Y0113716D01*
X0176669Y0114714D02*
X0177638Y0114714D01*
X0177638Y0115713D02*
X0176669Y0115713D01*
X0176669Y0116711D02*
X0154658Y0116711D01*
X0153660Y0115713D02*
X0173488Y0115713D01*
X0173488Y0114714D02*
X0152661Y0114714D01*
X0151663Y0113716D02*
X0173962Y0113716D01*
X0173488Y0117710D02*
X0155657Y0117710D01*
X0156655Y0118708D02*
X0173488Y0118708D01*
X0173825Y0119707D02*
X0157654Y0119707D01*
X0158652Y0120705D02*
X0300500Y0120705D01*
X0300500Y0119707D02*
X0213733Y0119707D01*
X0215370Y0118708D02*
X0300500Y0118708D01*
X0300500Y0117710D02*
X0216138Y0117710D01*
X0216552Y0116711D02*
X0300500Y0116711D01*
X0300500Y0115713D02*
X0216600Y0115713D01*
X0216496Y0114714D02*
X0300500Y0114714D01*
X0300500Y0113716D02*
X0216083Y0113716D01*
X0215236Y0112717D02*
X0300500Y0112717D01*
X0300500Y0111719D02*
X0213410Y0111719D01*
X0196084Y0119707D02*
X0194916Y0119707D01*
X0195419Y0118708D02*
X0195581Y0118708D01*
X0195581Y0117710D02*
X0195419Y0117710D01*
X0195419Y0116711D02*
X0195581Y0116711D01*
X0195581Y0115713D02*
X0195483Y0115713D01*
X0192154Y0116780D02*
X0183846Y0116780D01*
X0187112Y0118708D02*
X0188888Y0118708D01*
X0189391Y0119707D02*
X0186609Y0119707D01*
X0187112Y0122702D02*
X0188888Y0122702D01*
X0192154Y0124780D02*
X0183846Y0124780D01*
X0187112Y0126697D02*
X0188500Y0126697D01*
X0188500Y0127695D02*
X0186621Y0127695D01*
X0188500Y0128694D02*
X0166640Y0128694D01*
X0167639Y0129692D02*
X0188500Y0129692D01*
X0191700Y0129692D02*
X0193111Y0129692D01*
X0193111Y0130691D02*
X0192316Y0130691D01*
X0192450Y0131689D02*
X0194031Y0131689D01*
X0192450Y0132688D02*
X0300500Y0132688D01*
X0300500Y0133686D02*
X0192450Y0133686D01*
X0192450Y0134685D02*
X0300500Y0134685D01*
X0300500Y0135683D02*
X0192450Y0135683D01*
X0192450Y0136682D02*
X0300500Y0136682D01*
X0300500Y0137680D02*
X0296080Y0137680D01*
X0296465Y0137839D02*
X0297440Y0138815D01*
X0297968Y0140090D01*
X0297968Y0141470D01*
X0297440Y0142745D01*
X0296465Y0143720D01*
X0295190Y0144248D01*
X0293810Y0144248D01*
X0292535Y0143720D01*
X0291560Y0142745D01*
X0291031Y0141470D01*
X0291031Y0140090D01*
X0291560Y0138815D01*
X0292535Y0137839D01*
X0293810Y0137311D01*
X0295190Y0137311D01*
X0296465Y0137839D01*
X0297304Y0138679D02*
X0300500Y0138679D01*
X0300500Y0139677D02*
X0297798Y0139677D01*
X0297968Y0140676D02*
X0300500Y0140676D01*
X0300500Y0141674D02*
X0297884Y0141674D01*
X0297470Y0142673D02*
X0300500Y0142673D01*
X0300500Y0143671D02*
X0296514Y0143671D01*
X0292486Y0143671D02*
X0040937Y0143671D01*
X0040937Y0143914D02*
X0040835Y0144296D01*
X0040637Y0144638D01*
X0040358Y0144917D01*
X0040016Y0145115D01*
X0039634Y0145217D01*
X0036000Y0145217D01*
X0036000Y0140280D01*
X0035000Y0140280D01*
X0035000Y0145217D01*
X0031366Y0145217D01*
X0030984Y0145115D01*
X0030642Y0144917D01*
X0030363Y0144638D01*
X0030165Y0144296D01*
X0030063Y0143914D01*
X0030063Y0140280D01*
X0035000Y0140280D01*
X0035000Y0139280D01*
X0030063Y0139280D01*
X0030063Y0135645D01*
X0030165Y0135264D01*
X0030363Y0134922D01*
X0030642Y0134643D01*
X0030984Y0134445D01*
X0031366Y0134343D01*
X0035000Y0134343D01*
X0035000Y0139280D01*
X0036000Y0139280D01*
X0036000Y0140280D01*
X0040937Y0140280D01*
X0040937Y0143914D01*
X0040605Y0144670D02*
X0300500Y0144670D01*
X0300500Y0145668D02*
X0013500Y0145668D01*
X0013500Y0144670D02*
X0030395Y0144670D01*
X0030063Y0143671D02*
X0021514Y0143671D01*
X0021465Y0143720D02*
X0020190Y0144248D01*
X0018810Y0144248D01*
X0017535Y0143720D01*
X0016560Y0142745D01*
X0016031Y0141470D01*
X0016031Y0140090D01*
X0016560Y0138815D01*
X0017535Y0137839D01*
X0018810Y0137311D01*
X0020190Y0137311D01*
X0021465Y0137839D01*
X0022440Y0138815D01*
X0022968Y0140090D01*
X0022968Y0141470D01*
X0022440Y0142745D01*
X0021465Y0143720D01*
X0022470Y0142673D02*
X0030063Y0142673D01*
X0030063Y0141674D02*
X0022884Y0141674D01*
X0022968Y0140676D02*
X0030063Y0140676D01*
X0030063Y0138679D02*
X0022304Y0138679D01*
X0022798Y0139677D02*
X0035000Y0139677D01*
X0035500Y0139780D02*
X0057500Y0139780D01*
X0070500Y0126780D01*
X0070500Y0110780D01*
X0067819Y0108723D02*
X0097550Y0108723D01*
X0097550Y0107725D02*
X0089939Y0107725D01*
X0090432Y0107232D02*
X0090432Y0107232D01*
X0090938Y0106726D02*
X0097550Y0106726D01*
X0097550Y0106693D02*
X0096991Y0106133D01*
X0096054Y0105196D01*
X0096054Y0101348D01*
X0095033Y0101348D01*
X0094388Y0100704D01*
X0094388Y0095856D01*
X0095033Y0095211D01*
X0100275Y0095211D01*
X0100919Y0095856D01*
X0100919Y0100704D01*
X0100275Y0101348D01*
X0099254Y0101348D01*
X0099254Y0103180D01*
X0104806Y0103180D01*
X0105450Y0103824D01*
X0105450Y0105180D01*
X0108521Y0105180D01*
X0108111Y0104769D01*
X0108111Y0102790D01*
X0109510Y0101391D01*
X0111490Y0101391D01*
X0112279Y0102180D01*
X0114837Y0102180D01*
X0118111Y0098906D01*
X0118111Y0097790D01*
X0119510Y0096391D01*
X0121490Y0096391D01*
X0122889Y0097790D01*
X0122889Y0099769D01*
X0121490Y0101169D01*
X0120374Y0101169D01*
X0117100Y0104443D01*
X0116363Y0105180D01*
X0127721Y0105180D01*
X0128510Y0104391D01*
X0130490Y0104391D01*
X0131889Y0105790D01*
X0131889Y0107769D01*
X0130490Y0109169D01*
X0128510Y0109169D01*
X0127721Y0108380D01*
X0105450Y0108380D01*
X0105450Y0108780D01*
X0106763Y0108780D01*
X0107374Y0109391D01*
X0108490Y0109391D01*
X0109889Y0110790D01*
X0109889Y0112769D01*
X0109478Y0113180D01*
X0111163Y0113180D01*
X0112100Y0114117D01*
X0126232Y0128249D01*
X0127178Y0127304D01*
X0128684Y0126680D01*
X0130316Y0126680D01*
X0131822Y0127304D01*
X0132976Y0128457D01*
X0133600Y0129964D01*
X0133600Y0137595D01*
X0132976Y0139102D01*
X0131822Y0140256D01*
X0130316Y0140880D01*
X0128684Y0140880D01*
X0127178Y0140256D01*
X0126024Y0139102D01*
X0125400Y0137595D01*
X0125400Y0131943D01*
X0123600Y0130143D01*
X0123600Y0137595D01*
X0122976Y0139102D01*
X0121822Y0140256D01*
X0120316Y0140880D01*
X0118684Y0140880D01*
X0117178Y0140256D01*
X0116024Y0139102D01*
X0115400Y0137595D01*
X0115400Y0131943D01*
X0113600Y0130143D01*
X0113600Y0137595D01*
X0112976Y0139102D01*
X0111822Y0140256D01*
X0110316Y0140880D01*
X0108684Y0140880D01*
X0107178Y0140256D01*
X0106024Y0139102D01*
X0105400Y0137595D01*
X0105400Y0129964D01*
X0106024Y0128457D01*
X0107178Y0127304D01*
X0108684Y0126680D01*
X0110137Y0126680D01*
X0103237Y0119780D01*
X0096100Y0119780D01*
X0096100Y0123086D01*
X0095456Y0123730D01*
X0094100Y0123730D01*
X0094100Y0127005D01*
X0094822Y0127304D01*
X0095976Y0128457D01*
X0096600Y0129964D01*
X0096600Y0137595D01*
X0095976Y0139102D01*
X0094822Y0140256D01*
X0093316Y0140880D01*
X0091684Y0140880D01*
X0090178Y0140256D01*
X0089024Y0139102D01*
X0088400Y0137595D01*
X0088400Y0129964D01*
X0089024Y0128457D01*
X0090178Y0127304D01*
X0090900Y0127005D01*
X0090900Y0123730D01*
X0089544Y0123730D01*
X0088900Y0123086D01*
X0088900Y0116474D01*
X0088994Y0116380D01*
X0086563Y0116380D01*
X0086100Y0116843D01*
X0086100Y0123086D01*
X0085456Y0123730D01*
X0084100Y0123730D01*
X0084100Y0127005D01*
X0084822Y0127304D01*
X0085976Y0128457D01*
X0086600Y0129964D01*
X0086600Y0137595D01*
X0085976Y0139102D01*
X0084822Y0140256D01*
X0083316Y0140880D01*
X0081684Y0140880D01*
X0080178Y0140256D01*
X0079024Y0139102D01*
X0078400Y0137595D01*
X0078400Y0129964D01*
X0079024Y0128457D01*
X0080178Y0127304D01*
X0080900Y0127005D01*
X0080900Y0123730D01*
X0079544Y0123730D01*
X0078900Y0123086D01*
X0078900Y0116474D01*
X0079544Y0115830D01*
X0082587Y0115830D01*
X0084300Y0114117D01*
X0085237Y0113180D01*
X0105521Y0113180D01*
X0105111Y0112769D01*
X0105111Y0111980D01*
X0100732Y0111980D01*
X0099794Y0111043D01*
X0099150Y0110398D01*
X0099150Y0110380D01*
X0098194Y0110380D01*
X0097550Y0109736D01*
X0097550Y0106693D01*
X0096585Y0105728D02*
X0091600Y0105728D01*
X0091600Y0104729D02*
X0096054Y0104729D01*
X0096054Y0103731D02*
X0091600Y0103731D01*
X0091600Y0102732D02*
X0096054Y0102732D01*
X0096054Y0101734D02*
X0091600Y0101734D01*
X0091600Y0100735D02*
X0094419Y0100735D01*
X0094388Y0099737D02*
X0091600Y0099737D01*
X0091600Y0098738D02*
X0094388Y0098738D01*
X0094388Y0097740D02*
X0091600Y0097740D01*
X0091600Y0096741D02*
X0094388Y0096741D01*
X0094501Y0095743D02*
X0091600Y0095743D01*
X0091600Y0094744D02*
X0092086Y0094744D01*
X0093689Y0092969D02*
X0093879Y0092780D01*
X0121616Y0092780D01*
X0136568Y0107732D01*
X0138547Y0107732D01*
X0139947Y0106333D01*
X0139947Y0075333D01*
X0142500Y0072780D01*
X0137558Y0070838D02*
X0137558Y0105343D01*
X0135792Y0103731D02*
X0134829Y0103731D01*
X0135311Y0104212D02*
X0135958Y0103565D01*
X0135958Y0071501D01*
X0113768Y0049310D01*
X0112822Y0050256D01*
X0111316Y0050880D01*
X0109684Y0050880D01*
X0108178Y0050256D01*
X0108000Y0050078D01*
X0108000Y0055143D01*
X0094752Y0068391D01*
X0095490Y0068391D01*
X0096279Y0069180D01*
X0099837Y0069180D01*
X0111900Y0057117D01*
X0112837Y0056180D01*
X0114163Y0056180D01*
X0114442Y0056459D01*
X0114510Y0056391D01*
X0116490Y0056391D01*
X0117889Y0057790D01*
X0117889Y0059769D01*
X0116490Y0061169D01*
X0114510Y0061169D01*
X0113442Y0060100D01*
X0101163Y0072380D01*
X0096279Y0072380D01*
X0095490Y0073169D01*
X0093510Y0073169D01*
X0092111Y0071769D01*
X0092111Y0071032D01*
X0090884Y0072258D01*
X0091450Y0072824D01*
X0091450Y0078736D01*
X0090806Y0079380D01*
X0084194Y0079380D01*
X0083550Y0078736D01*
X0083550Y0077380D01*
X0035163Y0077380D01*
X0033889Y0078654D01*
X0033889Y0079769D01*
X0032631Y0081027D01*
X0033784Y0082180D01*
X0111721Y0082180D01*
X0112510Y0081391D01*
X0113900Y0081391D01*
X0113900Y0066558D01*
X0113111Y0065769D01*
X0113111Y0063790D01*
X0109752Y0063790D01*
X0110751Y0062792D02*
X0114110Y0062792D01*
X0114510Y0062391D02*
X0116490Y0062391D01*
X0117889Y0063790D01*
X0128248Y0063790D01*
X0129246Y0064789D02*
X0117889Y0064789D01*
X0117889Y0065769D02*
X0117100Y0066558D01*
X0117100Y0081739D01*
X0117489Y0082128D01*
X0117489Y0083169D01*
X0118479Y0082180D01*
X0130721Y0082180D01*
X0131510Y0081391D01*
X0133490Y0081391D01*
X0134889Y0082790D01*
X0134889Y0084769D01*
X0133879Y0085780D01*
X0134889Y0086790D01*
X0134889Y0088769D01*
X0133490Y0090169D01*
X0131510Y0090169D01*
X0130721Y0089380D01*
X0118067Y0089380D01*
X0117415Y0090032D01*
X0116478Y0090969D01*
X0095067Y0090969D01*
X0095279Y0091180D01*
X0122278Y0091180D01*
X0123216Y0092117D01*
X0123216Y0092117D01*
X0135311Y0104212D01*
X0135958Y0102732D02*
X0133831Y0102732D01*
X0132832Y0101734D02*
X0135958Y0101734D01*
X0135958Y0100735D02*
X0131834Y0100735D01*
X0130835Y0099737D02*
X0135958Y0099737D01*
X0135958Y0098738D02*
X0129837Y0098738D01*
X0128838Y0097740D02*
X0135958Y0097740D01*
X0135958Y0096741D02*
X0127840Y0096741D01*
X0126841Y0095743D02*
X0135958Y0095743D01*
X0135958Y0094744D02*
X0125843Y0094744D01*
X0124844Y0093746D02*
X0135958Y0093746D01*
X0135958Y0092747D02*
X0123846Y0092747D01*
X0122847Y0091749D02*
X0135958Y0091749D01*
X0135958Y0090750D02*
X0116697Y0090750D01*
X0117695Y0089752D02*
X0131093Y0089752D01*
X0132500Y0087780D02*
X0117404Y0087780D01*
X0115815Y0089369D01*
X0093911Y0089369D01*
X0090000Y0093280D01*
X0090000Y0105401D01*
X0088832Y0106569D01*
X0067711Y0106569D01*
X0056111Y0118169D01*
X0036510Y0118169D01*
X0036121Y0117780D01*
X0033500Y0117780D01*
X0023500Y0107780D01*
X0027438Y0103731D02*
X0035900Y0103731D01*
X0035900Y0104729D02*
X0029248Y0104729D01*
X0030088Y0105728D02*
X0035900Y0105728D01*
X0035900Y0106726D02*
X0030501Y0106726D01*
X0030600Y0107725D02*
X0035900Y0107725D01*
X0035900Y0108723D02*
X0030547Y0108723D01*
X0030133Y0109722D02*
X0035900Y0109722D01*
X0035900Y0110720D02*
X0029358Y0110720D01*
X0029702Y0111719D02*
X0035900Y0111719D01*
X0035900Y0112717D02*
X0030700Y0112717D01*
X0031699Y0113716D02*
X0035900Y0113716D01*
X0035187Y0114714D02*
X0032697Y0114714D01*
X0033696Y0115713D02*
X0035111Y0115713D01*
X0037500Y0115780D02*
X0037500Y0103169D01*
X0042194Y0098474D01*
X0035600Y0091880D01*
X0017600Y0091880D01*
X0016400Y0090680D01*
X0016400Y0085478D01*
X0026098Y0075780D01*
X0028500Y0075780D01*
X0033000Y0071280D01*
X0033000Y0061126D01*
X0033394Y0061520D01*
X0039500Y0061520D01*
X0036500Y0064520D01*
X0036500Y0067780D01*
X0038889Y0067784D02*
X0040550Y0067784D01*
X0040550Y0066824D02*
X0041194Y0066180D01*
X0047806Y0066180D01*
X0048450Y0066824D01*
X0048450Y0068180D01*
X0051841Y0068180D01*
X0051899Y0068042D01*
X0052762Y0067179D01*
X0052900Y0067121D01*
X0052900Y0062964D01*
X0053931Y0061932D01*
X0053931Y0060321D01*
X0052991Y0059380D01*
X0052194Y0059380D01*
X0052194Y0059417D01*
X0051550Y0060061D01*
X0045718Y0060061D01*
X0045073Y0059417D01*
X0045073Y0056143D01*
X0045718Y0055499D01*
X0051550Y0055499D01*
X0052194Y0056143D01*
X0052194Y0056180D01*
X0053531Y0056180D01*
X0053531Y0054918D01*
X0056516Y0054918D01*
X0056516Y0053949D01*
X0057484Y0053949D01*
X0057484Y0050768D01*
X0059166Y0050768D01*
X0059547Y0050870D01*
X0059890Y0051068D01*
X0060169Y0051347D01*
X0060366Y0051689D01*
X0060468Y0052071D01*
X0060468Y0053949D01*
X0057484Y0053949D01*
X0057484Y0054918D01*
X0060468Y0054918D01*
X0060468Y0056796D01*
X0060366Y0057178D01*
X0060169Y0057520D01*
X0059890Y0057799D01*
X0059555Y0057992D01*
X0060068Y0058505D01*
X0060068Y0059526D01*
X0061431Y0059526D01*
X0061431Y0058505D01*
X0061945Y0057992D01*
X0061610Y0057799D01*
X0061331Y0057520D01*
X0061134Y0057178D01*
X0061031Y0056796D01*
X0061031Y0054918D01*
X0064016Y0054918D01*
X0064016Y0053949D01*
X0064984Y0053949D01*
X0064984Y0050768D01*
X0066666Y0050768D01*
X0067047Y0050870D01*
X0067390Y0051068D01*
X0067669Y0051347D01*
X0067866Y0051689D01*
X0067968Y0052071D01*
X0067968Y0053949D01*
X0064984Y0053949D01*
X0064984Y0054918D01*
X0067968Y0054918D01*
X0067968Y0056796D01*
X0067866Y0057178D01*
X0067669Y0057520D01*
X0067390Y0057799D01*
X0067055Y0057992D01*
X0067568Y0058505D01*
X0067568Y0063747D01*
X0066924Y0064392D01*
X0062076Y0064392D01*
X0061431Y0063747D01*
X0061431Y0062726D01*
X0060068Y0062726D01*
X0060068Y0063747D01*
X0059424Y0064392D01*
X0056100Y0064392D01*
X0056100Y0067121D01*
X0056238Y0067179D01*
X0057101Y0068042D01*
X0057568Y0069170D01*
X0057568Y0070390D01*
X0057101Y0071518D01*
X0056238Y0072381D01*
X0055110Y0072848D01*
X0053890Y0072848D01*
X0052762Y0072381D01*
X0051899Y0071518D01*
X0051841Y0071380D01*
X0048450Y0071380D01*
X0048450Y0072736D01*
X0047806Y0073380D01*
X0041563Y0073380D01*
X0040763Y0074180D01*
X0083550Y0074180D01*
X0083550Y0072824D01*
X0084194Y0072180D01*
X0087500Y0072180D01*
X0087500Y0071117D01*
X0089237Y0069380D01*
X0084194Y0069380D01*
X0083550Y0068736D01*
X0083550Y0066380D01*
X0083279Y0066380D01*
X0082490Y0067169D01*
X0080510Y0067169D01*
X0079111Y0065769D01*
X0079111Y0063790D01*
X0067526Y0063790D01*
X0067568Y0062792D02*
X0080110Y0062792D01*
X0080510Y0062391D02*
X0082490Y0062391D01*
X0083279Y0063180D01*
X0083550Y0063180D01*
X0083550Y0062824D01*
X0084194Y0062180D01*
X0090437Y0062180D01*
X0091448Y0061169D01*
X0090510Y0061169D01*
X0089111Y0059769D01*
X0089111Y0058654D01*
X0082937Y0052480D01*
X0070032Y0052480D01*
X0069094Y0051543D01*
X0060532Y0042980D01*
X0060100Y0042980D01*
X0060100Y0043086D01*
X0059456Y0043730D01*
X0053544Y0043730D01*
X0052900Y0043086D01*
X0052900Y0042130D01*
X0052882Y0042130D01*
X0043837Y0033086D01*
X0043594Y0032843D01*
X0042178Y0032256D01*
X0041024Y0031102D01*
X0040400Y0029595D01*
X0040400Y0021964D01*
X0041024Y0020457D01*
X0042178Y0019304D01*
X0042236Y0019280D01*
X0041464Y0019280D01*
X0038600Y0022144D01*
X0038600Y0029595D01*
X0037976Y0031102D01*
X0036822Y0032256D01*
X0035316Y0032880D01*
X0033684Y0032880D01*
X0032178Y0032256D01*
X0031024Y0031102D01*
X0030400Y0029595D01*
X0030400Y0021964D01*
X0031024Y0020457D01*
X0032178Y0019304D01*
X0033684Y0018680D01*
X0035316Y0018680D01*
X0036822Y0019304D01*
X0036869Y0019350D01*
X0038539Y0017680D01*
X0029570Y0017680D01*
X0016100Y0031150D01*
X0016100Y0042801D01*
X0016510Y0042391D01*
X0018490Y0042391D01*
X0019279Y0043180D01*
X0021837Y0043180D01*
X0022111Y0042906D01*
X0022111Y0041790D01*
X0023510Y0040391D01*
X0025490Y0040391D01*
X0026889Y0041790D01*
X0026889Y0043769D01*
X0025490Y0045169D01*
X0024374Y0045169D01*
X0024100Y0045443D01*
X0023163Y0046380D01*
X0023000Y0046380D01*
X0023000Y0050280D01*
X0024000Y0050280D01*
X0024000Y0051280D01*
X0023000Y0051280D01*
X0023000Y0055280D01*
X0020146Y0055280D01*
X0019446Y0055169D01*
X0018773Y0054950D01*
X0018141Y0054629D01*
X0017568Y0054212D01*
X0017068Y0053711D01*
X0016651Y0053138D01*
X0016330Y0052507D01*
X0016111Y0051834D01*
X0016100Y0051765D01*
X0016100Y0059794D01*
X0016111Y0059726D01*
X0016330Y0059052D01*
X0016651Y0058421D01*
X0017068Y0057848D01*
X0017568Y0057347D01*
X0018141Y0056931D01*
X0018773Y0056610D01*
X0019446Y0056391D01*
X0020146Y0056280D01*
X0023000Y0056280D01*
X0023000Y0060280D01*
X0024000Y0060280D01*
X0024000Y0056280D01*
X0026854Y0056280D01*
X0027554Y0056391D01*
X0028227Y0056610D01*
X0028859Y0056931D01*
X0029432Y0057347D01*
X0029932Y0057848D01*
X0030208Y0058228D01*
X0030445Y0057992D01*
X0030110Y0057799D01*
X0029831Y0057520D01*
X0029634Y0057178D01*
X0029531Y0056796D01*
X0029531Y0054918D01*
X0032516Y0054918D01*
X0032516Y0053949D01*
X0033484Y0053949D01*
X0033484Y0050768D01*
X0035166Y0050768D01*
X0035547Y0050870D01*
X0035890Y0051068D01*
X0036169Y0051347D01*
X0036366Y0051689D01*
X0036468Y0052071D01*
X0036468Y0052426D01*
X0036508Y0052280D01*
X0036705Y0051938D01*
X0036984Y0051658D01*
X0037327Y0051461D01*
X0037708Y0051359D01*
X0040276Y0051359D01*
X0040276Y0053949D01*
X0040457Y0053949D01*
X0040457Y0054130D01*
X0044327Y0054130D01*
X0044327Y0055418D01*
X0044225Y0055800D01*
X0044027Y0056142D01*
X0043748Y0056421D01*
X0043406Y0056619D01*
X0043024Y0056721D01*
X0040457Y0056721D01*
X0040457Y0054130D01*
X0040276Y0054130D01*
X0040276Y0056721D01*
X0037708Y0056721D01*
X0037327Y0056619D01*
X0036984Y0056421D01*
X0036705Y0056142D01*
X0036508Y0055800D01*
X0036468Y0055653D01*
X0036468Y0056796D01*
X0036366Y0057178D01*
X0036169Y0057520D01*
X0035890Y0057799D01*
X0035555Y0057992D01*
X0036068Y0058505D01*
X0036068Y0059920D01*
X0036806Y0059920D01*
X0036806Y0059883D01*
X0037450Y0059239D01*
X0043282Y0059239D01*
X0043927Y0059883D01*
X0043927Y0063157D01*
X0043282Y0063801D01*
X0039482Y0063801D01*
X0038100Y0065183D01*
X0038100Y0066001D01*
X0038889Y0066790D01*
X0038889Y0068769D01*
X0037490Y0070169D01*
X0035510Y0070169D01*
X0034600Y0069258D01*
X0034600Y0071943D01*
X0033963Y0072580D01*
X0037837Y0072580D01*
X0040550Y0069867D01*
X0040550Y0066824D01*
X0040588Y0066786D02*
X0038884Y0066786D01*
X0038100Y0065787D02*
X0052900Y0065787D01*
X0052900Y0064789D02*
X0038494Y0064789D01*
X0043293Y0063790D02*
X0052900Y0063790D01*
X0053072Y0062792D02*
X0043927Y0062792D01*
X0043927Y0061793D02*
X0053931Y0061793D01*
X0053931Y0060795D02*
X0043927Y0060795D01*
X0043840Y0059796D02*
X0045453Y0059796D01*
X0045073Y0058798D02*
X0036068Y0058798D01*
X0036068Y0059796D02*
X0036893Y0059796D01*
X0035889Y0057799D02*
X0045073Y0057799D01*
X0045073Y0056801D02*
X0036467Y0056801D01*
X0036468Y0055802D02*
X0036509Y0055802D01*
X0036406Y0054918D02*
X0033484Y0054918D01*
X0033484Y0053949D01*
X0040276Y0053949D01*
X0040276Y0054130D01*
X0036406Y0054130D01*
X0036406Y0054918D01*
X0036406Y0054804D02*
X0033484Y0054804D01*
X0033000Y0054433D02*
X0033394Y0054040D01*
X0040366Y0054040D01*
X0056606Y0054040D01*
X0057000Y0054433D01*
X0064500Y0054433D01*
X0064846Y0054780D01*
X0073500Y0054780D01*
X0076500Y0054780D01*
X0079111Y0057391D01*
X0079111Y0065769D01*
X0081500Y0068158D01*
X0081500Y0072780D01*
X0083597Y0072777D02*
X0055283Y0072777D01*
X0053717Y0072777D02*
X0048409Y0072777D01*
X0048450Y0071778D02*
X0052159Y0071778D01*
X0053500Y0069780D02*
X0054500Y0068780D01*
X0054500Y0063626D01*
X0057000Y0061126D01*
X0064500Y0061126D01*
X0067568Y0060795D02*
X0090136Y0060795D01*
X0090824Y0061793D02*
X0067568Y0061793D01*
X0067568Y0059796D02*
X0089138Y0059796D01*
X0089111Y0058798D02*
X0067568Y0058798D01*
X0067389Y0057799D02*
X0088257Y0057799D01*
X0087258Y0056801D02*
X0067967Y0056801D01*
X0067968Y0055802D02*
X0086260Y0055802D01*
X0085261Y0054804D02*
X0064984Y0054804D01*
X0064016Y0054804D02*
X0057484Y0054804D01*
X0056516Y0054804D02*
X0044327Y0054804D01*
X0044327Y0053949D02*
X0040457Y0053949D01*
X0040457Y0051359D01*
X0043024Y0051359D01*
X0043406Y0051461D01*
X0043748Y0051658D01*
X0044027Y0051938D01*
X0044225Y0052280D01*
X0044327Y0052661D01*
X0044327Y0053949D01*
X0044327Y0053805D02*
X0053531Y0053805D01*
X0053531Y0053949D02*
X0053531Y0052071D01*
X0053634Y0051689D01*
X0053831Y0051347D01*
X0054110Y0051068D01*
X0054453Y0050870D01*
X0054834Y0050768D01*
X0056516Y0050768D01*
X0056516Y0053949D01*
X0053531Y0053949D01*
X0053531Y0052807D02*
X0044327Y0052807D01*
X0043898Y0051808D02*
X0053602Y0051808D01*
X0054679Y0050810D02*
X0035321Y0050810D01*
X0036398Y0051808D02*
X0036835Y0051808D01*
X0033484Y0051808D02*
X0032516Y0051808D01*
X0032516Y0050810D02*
X0033484Y0050810D01*
X0032516Y0050768D02*
X0032516Y0053949D01*
X0029695Y0053949D01*
X0029432Y0054212D01*
X0028859Y0054629D01*
X0028227Y0054950D01*
X0027554Y0055169D01*
X0026854Y0055280D01*
X0024000Y0055280D01*
X0024000Y0051280D01*
X0029898Y0051280D01*
X0030110Y0051068D01*
X0030453Y0050870D01*
X0030834Y0050768D01*
X0032516Y0050768D01*
X0030977Y0050280D02*
X0024000Y0050280D01*
X0024000Y0046280D01*
X0026854Y0046280D01*
X0027554Y0046391D01*
X0028227Y0046610D01*
X0028859Y0046931D01*
X0029432Y0047347D01*
X0029932Y0047848D01*
X0030349Y0048421D01*
X0030670Y0049052D01*
X0030889Y0049726D01*
X0030977Y0050280D01*
X0030903Y0049811D02*
X0067363Y0049811D01*
X0066821Y0050810D02*
X0068361Y0050810D01*
X0069094Y0051543D02*
X0069094Y0051543D01*
X0069360Y0051808D02*
X0067898Y0051808D01*
X0067968Y0052807D02*
X0083264Y0052807D01*
X0084263Y0053805D02*
X0067968Y0053805D01*
X0064984Y0053805D02*
X0064016Y0053805D01*
X0064016Y0053949D02*
X0064016Y0050768D01*
X0062334Y0050768D01*
X0061953Y0050870D01*
X0061610Y0051068D01*
X0061331Y0051347D01*
X0061134Y0051689D01*
X0061031Y0052071D01*
X0061031Y0053949D01*
X0064016Y0053949D01*
X0064016Y0052807D02*
X0064984Y0052807D01*
X0064984Y0051808D02*
X0064016Y0051808D01*
X0064016Y0050810D02*
X0064984Y0050810D01*
X0066364Y0048813D02*
X0030548Y0048813D01*
X0029898Y0047814D02*
X0065366Y0047814D01*
X0064367Y0046816D02*
X0028632Y0046816D01*
X0025840Y0044819D02*
X0062370Y0044819D01*
X0063369Y0045817D02*
X0023726Y0045817D01*
X0024000Y0046816D02*
X0023000Y0046816D01*
X0023000Y0047814D02*
X0024000Y0047814D01*
X0024000Y0048813D02*
X0023000Y0048813D01*
X0023000Y0049811D02*
X0024000Y0049811D01*
X0024000Y0050810D02*
X0030679Y0050810D01*
X0032516Y0052807D02*
X0033484Y0052807D01*
X0033484Y0053805D02*
X0032516Y0053805D01*
X0032516Y0054804D02*
X0028515Y0054804D01*
X0029531Y0055802D02*
X0016100Y0055802D01*
X0016100Y0054804D02*
X0018485Y0054804D01*
X0017161Y0053805D02*
X0016100Y0053805D01*
X0016100Y0052807D02*
X0016482Y0052807D01*
X0016107Y0051808D02*
X0016100Y0051808D01*
X0016100Y0056801D02*
X0018397Y0056801D01*
X0017117Y0057799D02*
X0016100Y0057799D01*
X0016100Y0058798D02*
X0016459Y0058798D01*
X0016100Y0061765D02*
X0016100Y0064910D01*
X0018401Y0067211D01*
X0019684Y0066680D01*
X0027316Y0066680D01*
X0028822Y0067304D01*
X0029976Y0068457D01*
X0030600Y0069964D01*
X0030600Y0071417D01*
X0031400Y0070617D01*
X0031400Y0064392D01*
X0030576Y0064392D01*
X0029931Y0063747D01*
X0029931Y0063712D01*
X0029432Y0064212D01*
X0028859Y0064629D01*
X0028227Y0064950D01*
X0027554Y0065169D01*
X0026854Y0065280D01*
X0024000Y0065280D01*
X0024000Y0061280D01*
X0023000Y0061280D01*
X0023000Y0065280D01*
X0020146Y0065280D01*
X0019446Y0065169D01*
X0018773Y0064950D01*
X0018141Y0064629D01*
X0017568Y0064212D01*
X0017068Y0063711D01*
X0016651Y0063138D01*
X0016330Y0062507D01*
X0016111Y0061834D01*
X0016100Y0061765D01*
X0016100Y0061793D02*
X0016104Y0061793D01*
X0016100Y0062792D02*
X0016475Y0062792D01*
X0016100Y0063790D02*
X0017146Y0063790D01*
X0016100Y0064789D02*
X0018456Y0064789D01*
X0016977Y0065787D02*
X0031400Y0065787D01*
X0031400Y0064789D02*
X0028544Y0064789D01*
X0029854Y0063790D02*
X0029974Y0063790D01*
X0031400Y0066786D02*
X0027571Y0066786D01*
X0029303Y0067784D02*
X0031400Y0067784D01*
X0031400Y0068783D02*
X0030111Y0068783D01*
X0030524Y0069781D02*
X0031400Y0069781D01*
X0031237Y0070780D02*
X0030600Y0070780D01*
X0034600Y0070780D02*
X0039637Y0070780D01*
X0040550Y0069781D02*
X0037877Y0069781D01*
X0038876Y0068783D02*
X0040550Y0068783D01*
X0042900Y0069780D02*
X0038500Y0074180D01*
X0032721Y0074180D01*
X0029111Y0077790D01*
X0029111Y0079769D01*
X0033121Y0083780D01*
X0050500Y0083780D01*
X0113500Y0083780D01*
X0115500Y0082401D02*
X0115500Y0064780D01*
X0113111Y0064789D02*
X0108754Y0064789D01*
X0107755Y0065787D02*
X0113129Y0065787D01*
X0113900Y0066786D02*
X0106757Y0066786D01*
X0105758Y0067784D02*
X0113900Y0067784D01*
X0113900Y0068783D02*
X0104760Y0068783D01*
X0103761Y0069781D02*
X0113900Y0069781D01*
X0113900Y0070780D02*
X0102763Y0070780D01*
X0101764Y0071778D02*
X0113900Y0071778D01*
X0113900Y0072777D02*
X0095881Y0072777D01*
X0095500Y0074780D02*
X0100500Y0074780D01*
X0100500Y0070780D02*
X0094500Y0070780D01*
X0093119Y0072777D02*
X0091403Y0072777D01*
X0091364Y0071778D02*
X0092120Y0071778D01*
X0091450Y0073775D02*
X0113900Y0073775D01*
X0113900Y0074774D02*
X0091450Y0074774D01*
X0091450Y0075772D02*
X0113900Y0075772D01*
X0113900Y0076771D02*
X0091450Y0076771D01*
X0091450Y0077769D02*
X0113900Y0077769D01*
X0113900Y0078768D02*
X0091418Y0078768D01*
X0089100Y0075780D02*
X0089100Y0071780D01*
X0106400Y0054480D01*
X0106400Y0039082D01*
X0109500Y0035982D01*
X0109500Y0032126D01*
X0106846Y0032126D01*
X0100500Y0025780D01*
X0100500Y0021780D01*
X0104500Y0017780D01*
X0134500Y0017780D01*
X0173500Y0017780D01*
X0181500Y0025780D01*
X0181500Y0035433D01*
X0182500Y0036433D01*
X0190500Y0036433D02*
X0191500Y0035433D01*
X0191500Y0025780D01*
X0190500Y0043126D02*
X0182500Y0043126D01*
X0190500Y0043126D02*
X0193154Y0045780D01*
X0195876Y0048813D02*
X0197124Y0048813D01*
X0196581Y0049811D02*
X0196419Y0049811D01*
X0196419Y0050810D02*
X0196581Y0050810D01*
X0196581Y0051808D02*
X0196419Y0051808D01*
X0196419Y0052807D02*
X0196581Y0052807D01*
X0196581Y0053805D02*
X0196419Y0053805D01*
X0195819Y0054804D02*
X0197181Y0054804D01*
X0196099Y0055802D02*
X0173740Y0055802D01*
X0172742Y0056801D02*
X0195111Y0056801D01*
X0190488Y0054804D02*
X0174739Y0054804D01*
X0175737Y0053805D02*
X0189888Y0053805D01*
X0195500Y0069780D02*
X0169500Y0069780D01*
X0168120Y0071778D02*
X0167877Y0071778D01*
X0170880Y0071778D02*
X0195236Y0071778D01*
X0196234Y0072777D02*
X0189949Y0072777D01*
X0190948Y0073775D02*
X0197233Y0073775D01*
X0198231Y0074774D02*
X0191946Y0074774D01*
X0192945Y0075772D02*
X0199230Y0075772D01*
X0200228Y0076771D02*
X0193943Y0076771D01*
X0194942Y0077769D02*
X0202886Y0077769D01*
X0203690Y0078768D02*
X0195940Y0078768D01*
X0196939Y0079766D02*
X0205411Y0079766D01*
X0210136Y0080765D02*
X0197937Y0080765D01*
X0201500Y0075780D02*
X0195500Y0069780D01*
X0200760Y0072777D02*
X0203705Y0072777D01*
X0202892Y0073775D02*
X0201758Y0073775D01*
X0201500Y0075780D02*
X0209500Y0075780D01*
X0219779Y0081764D02*
X0220991Y0081764D01*
X0220778Y0080765D02*
X0221989Y0080765D01*
X0221776Y0079766D02*
X0222988Y0079766D01*
X0222775Y0078768D02*
X0223986Y0078768D01*
X0223773Y0077769D02*
X0224985Y0077769D01*
X0224772Y0076771D02*
X0225983Y0076771D01*
X0225770Y0075772D02*
X0226982Y0075772D01*
X0226769Y0074774D02*
X0227980Y0074774D01*
X0227500Y0082780D02*
X0216500Y0093780D01*
X0218889Y0093746D02*
X0228087Y0093746D01*
X0227111Y0092747D02*
X0219795Y0092747D01*
X0220794Y0091749D02*
X0227111Y0091749D01*
X0227151Y0090750D02*
X0221792Y0090750D01*
X0222791Y0089752D02*
X0228150Y0089752D01*
X0230250Y0088753D02*
X0223790Y0088753D01*
X0224788Y0087755D02*
X0230324Y0087755D01*
X0230437Y0090843D02*
X0229500Y0091780D01*
X0230437Y0090843D02*
X0234500Y0090843D01*
X0241500Y0090843D01*
X0241000Y0094744D02*
X0242000Y0094744D01*
X0242000Y0095743D02*
X0241000Y0095743D01*
X0241000Y0096741D02*
X0242000Y0096741D01*
X0242000Y0097740D02*
X0241000Y0097740D01*
X0241000Y0098738D02*
X0235000Y0098738D01*
X0235000Y0097740D02*
X0234000Y0097740D01*
X0234000Y0096741D02*
X0235000Y0096741D01*
X0235000Y0095743D02*
X0234000Y0095743D01*
X0234000Y0094744D02*
X0235000Y0094744D01*
X0230831Y0094744D02*
X0218889Y0094744D01*
X0217916Y0095743D02*
X0229909Y0095743D01*
X0215998Y0086756D02*
X0214787Y0086756D01*
X0215000Y0087755D02*
X0213788Y0087755D01*
X0215785Y0085758D02*
X0216997Y0085758D01*
X0216784Y0084759D02*
X0217995Y0084759D01*
X0217782Y0083761D02*
X0218994Y0083761D01*
X0218781Y0082762D02*
X0219992Y0082762D01*
X0188500Y0106180D02*
X0148900Y0106180D01*
X0147500Y0104780D01*
X0145111Y0104729D02*
X0141547Y0104729D01*
X0141547Y0103731D02*
X0145171Y0103731D01*
X0146169Y0102732D02*
X0141547Y0102732D01*
X0141547Y0101734D02*
X0149779Y0101734D01*
X0151893Y0100735D02*
X0141547Y0100735D01*
X0141547Y0099737D02*
X0152078Y0099737D01*
X0151111Y0098738D02*
X0141547Y0098738D01*
X0141547Y0097740D02*
X0151111Y0097740D01*
X0151160Y0096741D02*
X0141547Y0096741D01*
X0141547Y0095743D02*
X0151900Y0095743D01*
X0151900Y0094744D02*
X0141547Y0094744D01*
X0141547Y0093746D02*
X0151900Y0093746D01*
X0153500Y0097780D02*
X0153500Y0085780D01*
X0146500Y0085281D02*
X0146500Y0090059D01*
X0135958Y0089752D02*
X0133907Y0089752D01*
X0134889Y0088753D02*
X0135958Y0088753D01*
X0135958Y0087755D02*
X0134889Y0087755D01*
X0134855Y0086756D02*
X0135958Y0086756D01*
X0135958Y0085758D02*
X0133901Y0085758D01*
X0134889Y0084759D02*
X0135958Y0084759D01*
X0135958Y0083761D02*
X0134889Y0083761D01*
X0134861Y0082762D02*
X0135958Y0082762D01*
X0135958Y0081764D02*
X0133862Y0081764D01*
X0135958Y0080765D02*
X0117100Y0080765D01*
X0117100Y0079766D02*
X0135958Y0079766D01*
X0135958Y0078768D02*
X0117100Y0078768D01*
X0117100Y0077769D02*
X0135958Y0077769D01*
X0135958Y0076771D02*
X0117100Y0076771D01*
X0117100Y0075772D02*
X0135958Y0075772D01*
X0135958Y0074774D02*
X0117100Y0074774D01*
X0117100Y0073775D02*
X0135958Y0073775D01*
X0135958Y0072777D02*
X0117100Y0072777D01*
X0117100Y0071778D02*
X0135958Y0071778D01*
X0135237Y0070780D02*
X0117100Y0070780D01*
X0117100Y0069781D02*
X0134239Y0069781D01*
X0133240Y0068783D02*
X0117100Y0068783D01*
X0117100Y0067784D02*
X0132242Y0067784D01*
X0131243Y0066786D02*
X0117100Y0066786D01*
X0117871Y0065787D02*
X0130245Y0065787D01*
X0127249Y0062792D02*
X0116890Y0062792D01*
X0117889Y0063790D02*
X0117889Y0065769D01*
X0114510Y0062391D02*
X0113111Y0063790D01*
X0111749Y0061793D02*
X0126251Y0061793D01*
X0125252Y0060795D02*
X0116864Y0060795D01*
X0117862Y0059796D02*
X0124254Y0059796D01*
X0123255Y0058798D02*
X0117889Y0058798D01*
X0117889Y0057799D02*
X0122257Y0057799D01*
X0121258Y0056801D02*
X0116899Y0056801D01*
X0119261Y0054804D02*
X0108000Y0054804D01*
X0108000Y0053805D02*
X0118263Y0053805D01*
X0117264Y0052807D02*
X0108000Y0052807D01*
X0108000Y0051808D02*
X0116266Y0051808D01*
X0115267Y0050810D02*
X0111485Y0050810D01*
X0109515Y0050810D02*
X0108000Y0050810D01*
X0113267Y0049811D02*
X0114269Y0049811D01*
X0112216Y0056801D02*
X0106342Y0056801D01*
X0105343Y0057799D02*
X0111218Y0057799D01*
X0110219Y0058798D02*
X0104345Y0058798D01*
X0103346Y0059796D02*
X0109221Y0059796D01*
X0108222Y0060795D02*
X0102348Y0060795D01*
X0101349Y0061793D02*
X0107224Y0061793D01*
X0106225Y0062792D02*
X0100351Y0062792D01*
X0099352Y0063790D02*
X0105227Y0063790D01*
X0104228Y0064789D02*
X0098354Y0064789D01*
X0097355Y0065787D02*
X0103230Y0065787D01*
X0102231Y0066786D02*
X0096357Y0066786D01*
X0095358Y0067784D02*
X0101233Y0067784D01*
X0100234Y0068783D02*
X0095881Y0068783D01*
X0100500Y0070780D02*
X0113500Y0057780D01*
X0114500Y0058780D01*
X0115500Y0058780D01*
X0114136Y0060795D02*
X0112748Y0060795D01*
X0107340Y0055802D02*
X0120260Y0055802D01*
X0139500Y0054780D02*
X0139500Y0032578D01*
X0138400Y0031478D01*
X0138400Y0021680D01*
X0134500Y0017780D01*
X0118400Y0026680D02*
X0118400Y0031478D01*
X0120802Y0033880D01*
X0124600Y0033880D01*
X0126689Y0035969D01*
X0118400Y0026680D02*
X0114500Y0022780D01*
X0109500Y0025433D01*
X0096500Y0031780D02*
X0096500Y0038982D01*
X0096400Y0039082D01*
X0096400Y0048478D01*
X0096500Y0048578D01*
X0096500Y0058380D01*
X0089100Y0065780D01*
X0085900Y0065780D02*
X0084900Y0064780D01*
X0081500Y0064780D01*
X0079111Y0064789D02*
X0056100Y0064789D01*
X0056100Y0065787D02*
X0079129Y0065787D01*
X0080127Y0066786D02*
X0056100Y0066786D01*
X0056844Y0067784D02*
X0083550Y0067784D01*
X0083550Y0066786D02*
X0082873Y0066786D01*
X0083597Y0068783D02*
X0057408Y0068783D01*
X0057568Y0069781D02*
X0088836Y0069781D01*
X0087837Y0070780D02*
X0057407Y0070780D01*
X0056841Y0071778D02*
X0087500Y0071778D01*
X0085900Y0075780D02*
X0034500Y0075780D01*
X0031500Y0078780D01*
X0033889Y0078768D02*
X0056133Y0078768D01*
X0056111Y0078790D02*
X0057510Y0077391D01*
X0059490Y0077391D01*
X0060279Y0078180D01*
X0078721Y0078180D01*
X0079510Y0077391D01*
X0081490Y0077391D01*
X0082889Y0078790D01*
X0082889Y0080769D01*
X0081490Y0082169D01*
X0079510Y0082169D01*
X0078721Y0081380D01*
X0060279Y0081380D01*
X0059490Y0082169D01*
X0057510Y0082169D01*
X0056111Y0080769D01*
X0056111Y0078790D01*
X0056111Y0079766D02*
X0033889Y0079766D01*
X0032893Y0080765D02*
X0056111Y0080765D01*
X0057105Y0081764D02*
X0033368Y0081764D01*
X0034773Y0077769D02*
X0057132Y0077769D01*
X0058500Y0079780D02*
X0080500Y0079780D01*
X0082889Y0079766D02*
X0113900Y0079766D01*
X0113900Y0080765D02*
X0082889Y0080765D01*
X0081895Y0081764D02*
X0112138Y0081764D01*
X0115500Y0082401D02*
X0115889Y0082790D01*
X0115889Y0084769D01*
X0114490Y0086169D01*
X0024732Y0086169D01*
X0023500Y0087401D01*
X0023500Y0087780D01*
X0016853Y0082762D02*
X0013500Y0082762D01*
X0013500Y0081764D02*
X0017852Y0081764D01*
X0018850Y0080765D02*
X0013500Y0080765D01*
X0013500Y0079766D02*
X0019849Y0079766D01*
X0020847Y0078768D02*
X0013500Y0078768D01*
X0013500Y0077769D02*
X0021846Y0077769D01*
X0022844Y0076771D02*
X0013500Y0076771D01*
X0013500Y0075772D02*
X0023843Y0075772D01*
X0019429Y0074774D02*
X0013500Y0074774D01*
X0013500Y0073775D02*
X0017697Y0073775D01*
X0016889Y0072777D02*
X0013500Y0072777D01*
X0013500Y0071778D02*
X0016476Y0071778D01*
X0016030Y0070780D02*
X0013500Y0070780D01*
X0013500Y0069781D02*
X0015032Y0069781D01*
X0014033Y0068783D02*
X0013500Y0068783D01*
X0017976Y0066786D02*
X0019429Y0066786D01*
X0023000Y0064789D02*
X0024000Y0064789D01*
X0024000Y0063790D02*
X0023000Y0063790D01*
X0023000Y0062792D02*
X0024000Y0062792D01*
X0024000Y0061793D02*
X0023000Y0061793D01*
X0023000Y0059796D02*
X0024000Y0059796D01*
X0024000Y0058798D02*
X0023000Y0058798D01*
X0023000Y0057799D02*
X0024000Y0057799D01*
X0024000Y0056801D02*
X0023000Y0056801D01*
X0023000Y0054804D02*
X0024000Y0054804D01*
X0024000Y0053805D02*
X0023000Y0053805D01*
X0023000Y0052807D02*
X0024000Y0052807D01*
X0024000Y0051808D02*
X0023000Y0051808D01*
X0028603Y0056801D02*
X0029533Y0056801D01*
X0029883Y0057799D02*
X0030111Y0057799D01*
X0039500Y0061520D02*
X0040366Y0061520D01*
X0040276Y0055802D02*
X0040457Y0055802D01*
X0040457Y0054804D02*
X0040276Y0054804D01*
X0040276Y0053805D02*
X0040457Y0053805D01*
X0040457Y0052807D02*
X0040276Y0052807D01*
X0040276Y0051808D02*
X0040457Y0051808D01*
X0044223Y0055802D02*
X0045414Y0055802D01*
X0048634Y0057780D02*
X0053654Y0057780D01*
X0057000Y0061126D01*
X0060068Y0062792D02*
X0061431Y0062792D01*
X0061474Y0063790D02*
X0060026Y0063790D01*
X0060068Y0058798D02*
X0061431Y0058798D01*
X0061611Y0057799D02*
X0059889Y0057799D01*
X0060467Y0056801D02*
X0061033Y0056801D01*
X0061031Y0055802D02*
X0060468Y0055802D01*
X0060468Y0053805D02*
X0061031Y0053805D01*
X0061031Y0052807D02*
X0060468Y0052807D01*
X0060398Y0051808D02*
X0061102Y0051808D01*
X0062179Y0050810D02*
X0059321Y0050810D01*
X0057484Y0050810D02*
X0056516Y0050810D01*
X0056516Y0051808D02*
X0057484Y0051808D01*
X0057484Y0052807D02*
X0056516Y0052807D01*
X0056516Y0053805D02*
X0057484Y0053805D01*
X0053531Y0055802D02*
X0051854Y0055802D01*
X0051815Y0059796D02*
X0053407Y0059796D01*
X0052900Y0066786D02*
X0048412Y0066786D01*
X0048450Y0067784D02*
X0052156Y0067784D01*
X0054500Y0068780D02*
X0054500Y0069780D01*
X0053500Y0069780D02*
X0046100Y0069780D01*
X0041167Y0073775D02*
X0083550Y0073775D01*
X0083550Y0077769D02*
X0081868Y0077769D01*
X0082867Y0078768D02*
X0083582Y0078768D01*
X0079132Y0077769D02*
X0059868Y0077769D01*
X0059895Y0081764D02*
X0079105Y0081764D01*
X0088500Y0090780D02*
X0052500Y0090780D01*
X0051089Y0089369D01*
X0042911Y0089369D01*
X0040500Y0091780D01*
X0038500Y0088780D02*
X0036689Y0089591D01*
X0038500Y0088780D02*
X0039511Y0087769D01*
X0115152Y0087769D01*
X0119141Y0083780D01*
X0132500Y0083780D01*
X0131138Y0081764D02*
X0117125Y0081764D01*
X0117489Y0082762D02*
X0117896Y0082762D01*
X0129500Y0073780D02*
X0131500Y0075780D01*
X0134500Y0075780D01*
X0137558Y0070838D02*
X0110500Y0043780D01*
X0096500Y0031780D02*
X0090500Y0025780D01*
X0084154Y0032126D01*
X0081500Y0032126D01*
X0075600Y0034386D02*
X0075600Y0021082D01*
X0072198Y0017680D01*
X0040802Y0017680D01*
X0034500Y0023982D01*
X0034500Y0025780D01*
X0038600Y0025847D02*
X0040400Y0025847D01*
X0040400Y0026845D02*
X0038600Y0026845D01*
X0038600Y0027844D02*
X0040400Y0027844D01*
X0040400Y0028842D02*
X0038600Y0028842D01*
X0038498Y0029841D02*
X0040502Y0029841D01*
X0040915Y0030839D02*
X0038085Y0030839D01*
X0037240Y0031838D02*
X0041760Y0031838D01*
X0043580Y0032836D02*
X0035420Y0032836D01*
X0033580Y0032836D02*
X0025000Y0032836D01*
X0025000Y0033280D02*
X0025000Y0032280D01*
X0029937Y0032280D01*
X0029937Y0028645D01*
X0029835Y0028264D01*
X0029637Y0027922D01*
X0029358Y0027643D01*
X0029016Y0027445D01*
X0028634Y0027343D01*
X0025000Y0027343D01*
X0025000Y0032280D01*
X0024000Y0032280D01*
X0019063Y0032280D01*
X0019063Y0028645D01*
X0019165Y0028264D01*
X0019363Y0027922D01*
X0019642Y0027643D01*
X0019984Y0027445D01*
X0020366Y0027343D01*
X0024000Y0027343D01*
X0024000Y0032280D01*
X0024000Y0033280D01*
X0024000Y0038217D01*
X0020366Y0038217D01*
X0019984Y0038115D01*
X0019642Y0037917D01*
X0019363Y0037638D01*
X0019165Y0037296D01*
X0019063Y0036914D01*
X0019063Y0033280D01*
X0024000Y0033280D01*
X0025000Y0033280D01*
X0025000Y0038217D01*
X0028634Y0038217D01*
X0029016Y0038115D01*
X0029358Y0037917D01*
X0029637Y0037638D01*
X0029835Y0037296D01*
X0029937Y0036914D01*
X0029937Y0033280D01*
X0025000Y0033280D01*
X0025000Y0033835D02*
X0024000Y0033835D01*
X0024000Y0034833D02*
X0025000Y0034833D01*
X0025000Y0035832D02*
X0024000Y0035832D01*
X0024000Y0036830D02*
X0025000Y0036830D01*
X0025000Y0037829D02*
X0024000Y0037829D01*
X0019554Y0037829D02*
X0016100Y0037829D01*
X0016100Y0036830D02*
X0019063Y0036830D01*
X0019063Y0035832D02*
X0016100Y0035832D01*
X0016100Y0034833D02*
X0019063Y0034833D01*
X0019063Y0033835D02*
X0016100Y0033835D01*
X0016100Y0032836D02*
X0024000Y0032836D01*
X0024500Y0032780D02*
X0027500Y0032780D01*
X0031500Y0036780D01*
X0029937Y0036830D02*
X0047582Y0036830D01*
X0046584Y0035832D02*
X0029937Y0035832D01*
X0029937Y0034833D02*
X0045585Y0034833D01*
X0044587Y0033835D02*
X0029937Y0033835D01*
X0029937Y0031838D02*
X0031760Y0031838D01*
X0030915Y0030839D02*
X0029937Y0030839D01*
X0029937Y0029841D02*
X0030502Y0029841D01*
X0030400Y0028842D02*
X0029937Y0028842D01*
X0029559Y0027844D02*
X0030400Y0027844D01*
X0030400Y0026845D02*
X0020404Y0026845D01*
X0019441Y0027844D02*
X0019406Y0027844D01*
X0019063Y0028842D02*
X0018407Y0028842D01*
X0019063Y0029841D02*
X0017409Y0029841D01*
X0016410Y0030839D02*
X0019063Y0030839D01*
X0019063Y0031838D02*
X0016100Y0031838D01*
X0024000Y0031838D02*
X0025000Y0031838D01*
X0025000Y0030839D02*
X0024000Y0030839D01*
X0024000Y0029841D02*
X0025000Y0029841D01*
X0025000Y0028842D02*
X0024000Y0028842D01*
X0024000Y0027844D02*
X0025000Y0027844D01*
X0021403Y0025847D02*
X0030400Y0025847D01*
X0030400Y0024848D02*
X0022401Y0024848D01*
X0023400Y0023850D02*
X0030400Y0023850D01*
X0030400Y0022851D02*
X0024398Y0022851D01*
X0025397Y0021853D02*
X0030446Y0021853D01*
X0030860Y0020854D02*
X0026395Y0020854D01*
X0027394Y0019856D02*
X0031626Y0019856D01*
X0033256Y0018857D02*
X0028392Y0018857D01*
X0029391Y0017859D02*
X0038360Y0017859D01*
X0037362Y0018857D02*
X0035744Y0018857D01*
X0038891Y0021853D02*
X0040446Y0021853D01*
X0040400Y0022851D02*
X0038600Y0022851D01*
X0038600Y0023850D02*
X0040400Y0023850D01*
X0040400Y0024848D02*
X0038600Y0024848D01*
X0039890Y0020854D02*
X0040860Y0020854D01*
X0040889Y0019856D02*
X0041626Y0019856D01*
X0044500Y0025780D02*
X0044500Y0031486D01*
X0053544Y0040530D01*
X0055650Y0040530D01*
X0056500Y0041380D01*
X0061194Y0041380D01*
X0070694Y0050880D01*
X0083600Y0050880D01*
X0091500Y0058780D01*
X0083582Y0062792D02*
X0082890Y0062792D01*
X0080510Y0062391D02*
X0079111Y0063790D01*
X0094500Y0075780D02*
X0095500Y0074780D01*
X0095293Y0094744D02*
X0121317Y0094744D01*
X0122316Y0095743D02*
X0112452Y0095743D01*
X0112101Y0095391D02*
X0113500Y0096790D01*
X0113500Y0098769D01*
X0112101Y0100169D01*
X0110121Y0100169D01*
X0109832Y0099880D01*
X0107612Y0099880D01*
X0107612Y0100704D01*
X0106967Y0101348D01*
X0101725Y0101348D01*
X0101081Y0100704D01*
X0101081Y0095856D01*
X0101725Y0095211D01*
X0106967Y0095211D01*
X0107612Y0095856D01*
X0107612Y0096680D01*
X0108832Y0096680D01*
X0110121Y0095391D01*
X0112101Y0095391D01*
X0113451Y0096741D02*
X0119160Y0096741D01*
X0118162Y0097740D02*
X0113500Y0097740D01*
X0113500Y0098738D02*
X0118111Y0098738D01*
X0117280Y0099737D02*
X0112533Y0099737D01*
X0111832Y0101734D02*
X0115283Y0101734D01*
X0116282Y0100735D02*
X0107581Y0100735D01*
X0109168Y0101734D02*
X0099254Y0101734D01*
X0099254Y0102732D02*
X0108169Y0102732D01*
X0108111Y0103731D02*
X0105357Y0103731D01*
X0105450Y0104729D02*
X0108111Y0104729D01*
X0110500Y0103780D02*
X0115500Y0103780D01*
X0120500Y0098780D01*
X0122889Y0098738D02*
X0125311Y0098738D01*
X0124313Y0097740D02*
X0122838Y0097740D01*
X0123314Y0096741D02*
X0121840Y0096741D01*
X0122889Y0099737D02*
X0126310Y0099737D01*
X0127308Y0100735D02*
X0121923Y0100735D01*
X0119809Y0101734D02*
X0128307Y0101734D01*
X0129305Y0102732D02*
X0118810Y0102732D01*
X0117812Y0103731D02*
X0130304Y0103731D01*
X0130828Y0104729D02*
X0131302Y0104729D01*
X0131826Y0105728D02*
X0132301Y0105728D01*
X0131889Y0106726D02*
X0133299Y0106726D01*
X0134298Y0107725D02*
X0131889Y0107725D01*
X0130935Y0108723D02*
X0135296Y0108723D01*
X0134968Y0108395D02*
X0134968Y0108395D01*
X0139819Y0108723D02*
X0143111Y0108723D01*
X0143111Y0107725D02*
X0140818Y0107725D01*
X0141547Y0106726D02*
X0143175Y0106726D01*
X0144174Y0105728D02*
X0141547Y0105728D01*
X0145500Y0107780D02*
X0145500Y0109816D01*
X0170533Y0134848D01*
X0175775Y0134848D01*
X0175843Y0134780D01*
X0185900Y0134780D01*
X0186900Y0133780D01*
X0184550Y0132688D02*
X0170634Y0132688D01*
X0169636Y0131689D02*
X0184550Y0131689D01*
X0184684Y0130691D02*
X0168637Y0130691D01*
X0166109Y0132688D02*
X0154000Y0132688D01*
X0154000Y0133280D02*
X0150000Y0133280D01*
X0150000Y0134280D01*
X0149000Y0134280D01*
X0149000Y0141257D01*
X0148446Y0141169D01*
X0147773Y0140950D01*
X0147141Y0140629D01*
X0146568Y0140212D01*
X0146068Y0139711D01*
X0145651Y0139138D01*
X0145330Y0138507D01*
X0145111Y0137834D01*
X0145000Y0137134D01*
X0145000Y0134280D01*
X0149000Y0134280D01*
X0149000Y0133280D01*
X0145000Y0133280D01*
X0145000Y0130426D01*
X0145111Y0129726D01*
X0145330Y0129052D01*
X0145651Y0128421D01*
X0146068Y0127848D01*
X0146568Y0127347D01*
X0147141Y0126931D01*
X0147773Y0126610D01*
X0148446Y0126391D01*
X0149000Y0126303D01*
X0149000Y0133280D01*
X0150000Y0133280D01*
X0150000Y0126303D01*
X0150554Y0126391D01*
X0151227Y0126610D01*
X0151859Y0126931D01*
X0152432Y0127347D01*
X0152932Y0127848D01*
X0153349Y0128421D01*
X0153670Y0129052D01*
X0153889Y0129726D01*
X0154000Y0130426D01*
X0154000Y0133280D01*
X0154000Y0134280D02*
X0150000Y0134280D01*
X0150000Y0141257D01*
X0150554Y0141169D01*
X0151227Y0140950D01*
X0151859Y0140629D01*
X0152432Y0140212D01*
X0152932Y0139711D01*
X0153349Y0139138D01*
X0153670Y0138507D01*
X0153889Y0137834D01*
X0154000Y0137134D01*
X0154000Y0134280D01*
X0154000Y0134685D02*
X0168106Y0134685D01*
X0169105Y0135683D02*
X0154000Y0135683D01*
X0154000Y0136682D02*
X0184550Y0136682D01*
X0190100Y0133780D02*
X0190100Y0126833D01*
X0192154Y0124780D01*
X0195500Y0128126D01*
X0195500Y0129780D01*
X0197889Y0129692D02*
X0205231Y0129692D01*
X0203615Y0128694D02*
X0197792Y0128694D01*
X0197889Y0130691D02*
X0300500Y0130691D01*
X0300500Y0131689D02*
X0196969Y0131689D01*
X0193208Y0128694D02*
X0191700Y0128694D01*
X0195419Y0125698D02*
X0195581Y0125698D01*
X0195581Y0124699D02*
X0195419Y0124699D01*
X0195419Y0123701D02*
X0195581Y0123701D01*
X0195581Y0122702D02*
X0195419Y0122702D01*
X0198846Y0124780D02*
X0208500Y0124780D01*
X0209500Y0125780D01*
X0213374Y0121704D02*
X0300500Y0121704D01*
X0300500Y0122702D02*
X0215221Y0122702D01*
X0216077Y0123701D02*
X0300500Y0123701D01*
X0300500Y0124699D02*
X0216490Y0124699D01*
X0216600Y0125698D02*
X0300500Y0125698D01*
X0300500Y0126697D02*
X0216558Y0126697D01*
X0216145Y0127695D02*
X0300500Y0127695D01*
X0300500Y0128694D02*
X0215385Y0128694D01*
X0213769Y0129692D02*
X0300500Y0129692D01*
X0292920Y0137680D02*
X0153913Y0137680D01*
X0153583Y0138679D02*
X0291696Y0138679D01*
X0291202Y0139677D02*
X0152957Y0139677D01*
X0151766Y0140676D02*
X0291031Y0140676D01*
X0291116Y0141674D02*
X0040937Y0141674D01*
X0040937Y0140676D02*
X0081191Y0140676D01*
X0079599Y0139677D02*
X0036000Y0139677D01*
X0036000Y0139280D02*
X0040937Y0139280D01*
X0040937Y0135645D01*
X0040835Y0135264D01*
X0040637Y0134922D01*
X0040358Y0134643D01*
X0040016Y0134445D01*
X0039634Y0134343D01*
X0036000Y0134343D01*
X0036000Y0139280D01*
X0036000Y0138679D02*
X0035000Y0138679D01*
X0035000Y0137680D02*
X0036000Y0137680D01*
X0036000Y0136682D02*
X0035000Y0136682D01*
X0035000Y0135683D02*
X0036000Y0135683D01*
X0036000Y0134685D02*
X0035000Y0134685D01*
X0040400Y0134685D02*
X0046111Y0134685D01*
X0046111Y0135683D02*
X0040937Y0135683D01*
X0040937Y0136682D02*
X0047023Y0136682D01*
X0048500Y0134780D02*
X0055500Y0134780D01*
X0056500Y0135780D01*
X0058889Y0135683D02*
X0078400Y0135683D01*
X0078400Y0134685D02*
X0058783Y0134685D01*
X0057785Y0133686D02*
X0078400Y0133686D01*
X0078400Y0132688D02*
X0061196Y0132688D01*
X0062001Y0131689D02*
X0078400Y0131689D01*
X0078400Y0130691D02*
X0062001Y0130691D01*
X0061791Y0129692D02*
X0078513Y0129692D01*
X0078926Y0128694D02*
X0060792Y0128694D01*
X0058433Y0128694D02*
X0036676Y0128694D01*
X0035678Y0127695D02*
X0079787Y0127695D01*
X0080900Y0126697D02*
X0034679Y0126697D01*
X0033681Y0125698D02*
X0080900Y0125698D01*
X0080900Y0124699D02*
X0032682Y0124699D01*
X0031684Y0123701D02*
X0079515Y0123701D01*
X0078900Y0122702D02*
X0030685Y0122702D01*
X0029687Y0121704D02*
X0078900Y0121704D01*
X0078900Y0120705D02*
X0029373Y0120705D01*
X0030140Y0119707D02*
X0035786Y0119707D01*
X0032166Y0118708D02*
X0030553Y0118708D01*
X0030600Y0117710D02*
X0031167Y0117710D01*
X0026160Y0122702D02*
X0013500Y0122702D01*
X0013500Y0121704D02*
X0019260Y0121704D01*
X0017627Y0120705D02*
X0013500Y0120705D01*
X0013500Y0119707D02*
X0016860Y0119707D01*
X0016447Y0118708D02*
X0013500Y0118708D01*
X0013500Y0117710D02*
X0016400Y0117710D01*
X0016505Y0116711D02*
X0013500Y0116711D01*
X0013500Y0115713D02*
X0016918Y0115713D01*
X0017767Y0114714D02*
X0013500Y0114714D01*
X0013500Y0113716D02*
X0019598Y0113716D01*
X0019296Y0111719D02*
X0013500Y0111719D01*
X0013500Y0112717D02*
X0026175Y0112717D01*
X0023500Y0117780D02*
X0036613Y0130892D01*
X0059612Y0130892D01*
X0058029Y0132688D02*
X0049786Y0132688D01*
X0047214Y0132688D02*
X0013500Y0132688D01*
X0013500Y0133686D02*
X0046215Y0133686D01*
X0049977Y0136682D02*
X0054111Y0136682D01*
X0055022Y0137680D02*
X0040937Y0137680D01*
X0040937Y0138679D02*
X0078849Y0138679D01*
X0078435Y0137680D02*
X0057978Y0137680D01*
X0058889Y0136682D02*
X0078400Y0136682D01*
X0082500Y0133780D02*
X0082500Y0121380D01*
X0086100Y0121704D02*
X0088900Y0121704D01*
X0088900Y0122702D02*
X0086100Y0122702D01*
X0085485Y0123701D02*
X0089515Y0123701D01*
X0090900Y0124699D02*
X0084100Y0124699D01*
X0084100Y0125698D02*
X0090900Y0125698D01*
X0090900Y0126697D02*
X0084100Y0126697D01*
X0085213Y0127695D02*
X0089787Y0127695D01*
X0088926Y0128694D02*
X0086074Y0128694D01*
X0086487Y0129692D02*
X0088513Y0129692D01*
X0088400Y0130691D02*
X0086600Y0130691D01*
X0086600Y0131689D02*
X0088400Y0131689D01*
X0088400Y0132688D02*
X0086600Y0132688D01*
X0086600Y0133686D02*
X0088400Y0133686D01*
X0088400Y0134685D02*
X0086600Y0134685D01*
X0086600Y0135683D02*
X0088400Y0135683D01*
X0088400Y0136682D02*
X0086600Y0136682D01*
X0086565Y0137680D02*
X0088435Y0137680D01*
X0088849Y0138679D02*
X0086151Y0138679D01*
X0085401Y0139677D02*
X0089599Y0139677D01*
X0091191Y0140676D02*
X0083809Y0140676D01*
X0093809Y0140676D02*
X0108191Y0140676D01*
X0106599Y0139677D02*
X0095401Y0139677D01*
X0096151Y0138679D02*
X0105849Y0138679D01*
X0105435Y0137680D02*
X0096565Y0137680D01*
X0096600Y0136682D02*
X0105400Y0136682D01*
X0105400Y0135683D02*
X0096600Y0135683D01*
X0096600Y0134685D02*
X0105400Y0134685D01*
X0105400Y0133686D02*
X0096600Y0133686D01*
X0096600Y0132688D02*
X0105400Y0132688D01*
X0105400Y0131689D02*
X0096600Y0131689D01*
X0096600Y0130691D02*
X0105400Y0130691D01*
X0105513Y0129692D02*
X0096487Y0129692D01*
X0096074Y0128694D02*
X0105926Y0128694D01*
X0106787Y0127695D02*
X0095213Y0127695D01*
X0094100Y0126697D02*
X0108644Y0126697D01*
X0109155Y0125698D02*
X0094100Y0125698D01*
X0094100Y0124699D02*
X0108157Y0124699D01*
X0107158Y0123701D02*
X0095485Y0123701D01*
X0096100Y0122702D02*
X0106160Y0122702D01*
X0105161Y0121704D02*
X0096100Y0121704D01*
X0096100Y0120705D02*
X0104163Y0120705D01*
X0103900Y0118180D02*
X0119500Y0133780D01*
X0123600Y0133686D02*
X0125400Y0133686D01*
X0125400Y0132688D02*
X0123600Y0132688D01*
X0123600Y0131689D02*
X0125146Y0131689D01*
X0124148Y0130691D02*
X0123600Y0130691D01*
X0125678Y0127695D02*
X0126787Y0127695D01*
X0128644Y0126697D02*
X0124679Y0126697D01*
X0123681Y0125698D02*
X0159119Y0125698D01*
X0158121Y0124699D02*
X0122682Y0124699D01*
X0121684Y0123701D02*
X0157122Y0123701D01*
X0156124Y0122702D02*
X0120685Y0122702D01*
X0119687Y0121704D02*
X0155125Y0121704D01*
X0154127Y0120705D02*
X0118688Y0120705D01*
X0117690Y0119707D02*
X0153128Y0119707D01*
X0152130Y0118708D02*
X0116691Y0118708D01*
X0115693Y0117710D02*
X0151131Y0117710D01*
X0150133Y0116711D02*
X0114694Y0116711D01*
X0113696Y0115713D02*
X0149134Y0115713D01*
X0148136Y0114714D02*
X0112697Y0114714D01*
X0111699Y0113716D02*
X0147137Y0113716D01*
X0146139Y0112717D02*
X0109889Y0112717D01*
X0109889Y0111719D02*
X0145140Y0111719D01*
X0144142Y0110720D02*
X0109819Y0110720D01*
X0108820Y0109722D02*
X0143900Y0109722D01*
X0147669Y0109722D02*
X0184900Y0109722D01*
X0184900Y0110720D02*
X0148667Y0110720D01*
X0149666Y0111719D02*
X0185533Y0111719D01*
X0184900Y0108723D02*
X0147889Y0108723D01*
X0147889Y0107725D02*
X0148182Y0107725D01*
X0150664Y0112717D02*
X0189575Y0112717D01*
X0189528Y0113716D02*
X0186472Y0113716D01*
X0187112Y0114714D02*
X0188888Y0114714D01*
X0192154Y0113033D02*
X0188500Y0109380D01*
X0181221Y0113716D02*
X0180345Y0113716D01*
X0177638Y0117710D02*
X0176669Y0117710D01*
X0176669Y0118708D02*
X0177638Y0118708D01*
X0173974Y0121704D02*
X0159651Y0121704D01*
X0160649Y0122702D02*
X0173488Y0122702D01*
X0173488Y0123701D02*
X0161648Y0123701D01*
X0162646Y0124699D02*
X0176669Y0124699D01*
X0177154Y0124780D02*
X0177154Y0129433D01*
X0177500Y0129780D01*
X0176669Y0128248D02*
X0174791Y0128248D01*
X0174409Y0128146D01*
X0174067Y0127949D01*
X0173788Y0127669D01*
X0173590Y0127327D01*
X0173488Y0126946D01*
X0173488Y0125264D01*
X0176669Y0125264D01*
X0176669Y0128248D01*
X0176669Y0127695D02*
X0177638Y0127695D01*
X0177638Y0126697D02*
X0176669Y0126697D01*
X0176669Y0125698D02*
X0177638Y0125698D01*
X0180494Y0127695D02*
X0181072Y0127695D01*
X0173814Y0127695D02*
X0165642Y0127695D01*
X0164643Y0126697D02*
X0173488Y0126697D01*
X0173488Y0125698D02*
X0163645Y0125698D01*
X0161116Y0127695D02*
X0152779Y0127695D01*
X0153487Y0128694D02*
X0162115Y0128694D01*
X0163113Y0129692D02*
X0153878Y0129692D01*
X0154000Y0130691D02*
X0164112Y0130691D01*
X0165111Y0131689D02*
X0154000Y0131689D01*
X0150000Y0131689D02*
X0149000Y0131689D01*
X0149000Y0130691D02*
X0150000Y0130691D01*
X0150000Y0129692D02*
X0149000Y0129692D01*
X0149000Y0128694D02*
X0150000Y0128694D01*
X0150000Y0127695D02*
X0149000Y0127695D01*
X0149000Y0126697D02*
X0150000Y0126697D01*
X0151398Y0126697D02*
X0160118Y0126697D01*
X0167108Y0133686D02*
X0150000Y0133686D01*
X0149500Y0133780D02*
X0140400Y0124680D01*
X0137802Y0124680D01*
X0137702Y0124780D01*
X0133500Y0124780D01*
X0132213Y0127695D02*
X0136787Y0127695D01*
X0137178Y0127304D02*
X0136024Y0128457D01*
X0135400Y0129964D01*
X0135400Y0137595D01*
X0136024Y0139102D01*
X0137178Y0140256D01*
X0138684Y0140880D01*
X0140316Y0140880D01*
X0141822Y0140256D01*
X0142976Y0139102D01*
X0143600Y0137595D01*
X0143600Y0129964D01*
X0142976Y0128457D01*
X0141822Y0127304D01*
X0140316Y0126680D01*
X0138684Y0126680D01*
X0137178Y0127304D01*
X0138644Y0126697D02*
X0130356Y0126697D01*
X0133074Y0128694D02*
X0135926Y0128694D01*
X0135513Y0129692D02*
X0133487Y0129692D01*
X0133600Y0130691D02*
X0135400Y0130691D01*
X0135400Y0131689D02*
X0133600Y0131689D01*
X0133600Y0132688D02*
X0135400Y0132688D01*
X0135400Y0133686D02*
X0133600Y0133686D01*
X0133600Y0134685D02*
X0135400Y0134685D01*
X0135400Y0135683D02*
X0133600Y0135683D01*
X0133600Y0136682D02*
X0135400Y0136682D01*
X0135435Y0137680D02*
X0133565Y0137680D01*
X0133151Y0138679D02*
X0135849Y0138679D01*
X0136599Y0139677D02*
X0132401Y0139677D01*
X0130809Y0140676D02*
X0138191Y0140676D01*
X0140809Y0140676D02*
X0147234Y0140676D01*
X0146043Y0139677D02*
X0142401Y0139677D01*
X0143151Y0138679D02*
X0145417Y0138679D01*
X0145087Y0137680D02*
X0143565Y0137680D01*
X0143600Y0136682D02*
X0145000Y0136682D01*
X0145000Y0135683D02*
X0143600Y0135683D01*
X0143600Y0134685D02*
X0145000Y0134685D01*
X0143600Y0133686D02*
X0149000Y0133686D01*
X0149000Y0132688D02*
X0150000Y0132688D01*
X0150000Y0134685D02*
X0149000Y0134685D01*
X0149000Y0135683D02*
X0150000Y0135683D01*
X0150000Y0136682D02*
X0149000Y0136682D01*
X0149000Y0137680D02*
X0150000Y0137680D01*
X0150000Y0138679D02*
X0149000Y0138679D01*
X0149000Y0139677D02*
X0150000Y0139677D01*
X0150000Y0140676D02*
X0149000Y0140676D01*
X0145000Y0132688D02*
X0143600Y0132688D01*
X0143600Y0131689D02*
X0145000Y0131689D01*
X0145000Y0130691D02*
X0143600Y0130691D01*
X0143487Y0129692D02*
X0145122Y0129692D01*
X0145513Y0128694D02*
X0143074Y0128694D01*
X0142213Y0127695D02*
X0146221Y0127695D01*
X0147602Y0126697D02*
X0140356Y0126697D01*
X0129500Y0133780D02*
X0110500Y0114780D01*
X0085900Y0114780D01*
X0082500Y0118180D01*
X0082704Y0115713D02*
X0060830Y0115713D01*
X0061828Y0114714D02*
X0083703Y0114714D01*
X0084701Y0113716D02*
X0062827Y0113716D01*
X0063825Y0112717D02*
X0105111Y0112717D01*
X0106100Y0110380D02*
X0101394Y0110380D01*
X0100750Y0109736D01*
X0100750Y0107630D01*
X0099900Y0106780D01*
X0097654Y0104533D01*
X0097654Y0098280D01*
X0100919Y0098738D02*
X0101081Y0098738D01*
X0101081Y0097740D02*
X0100919Y0097740D01*
X0100919Y0096741D02*
X0101081Y0096741D01*
X0101194Y0095743D02*
X0100806Y0095743D01*
X0104346Y0098280D02*
X0110611Y0098280D01*
X0111111Y0097780D01*
X0109770Y0095743D02*
X0107499Y0095743D01*
X0101081Y0099737D02*
X0100919Y0099737D01*
X0100888Y0100735D02*
X0101112Y0100735D01*
X0103100Y0106780D02*
X0129500Y0106780D01*
X0128065Y0108723D02*
X0105450Y0108723D01*
X0106100Y0110380D02*
X0107500Y0111780D01*
X0100471Y0111719D02*
X0064824Y0111719D01*
X0065822Y0110720D02*
X0099472Y0110720D01*
X0097550Y0109722D02*
X0066821Y0109722D01*
X0076500Y0102780D02*
X0070500Y0096780D01*
X0057500Y0096780D01*
X0048500Y0092169D02*
X0042194Y0098474D01*
X0039668Y0098738D02*
X0030541Y0098738D01*
X0030600Y0098595D02*
X0029976Y0100102D01*
X0028822Y0101256D01*
X0027316Y0101880D01*
X0019684Y0101880D01*
X0018178Y0101256D01*
X0017024Y0100102D01*
X0016400Y0098595D01*
X0016400Y0096964D01*
X0017024Y0095457D01*
X0018178Y0094304D01*
X0019684Y0093680D01*
X0027316Y0093680D01*
X0028822Y0094304D01*
X0029976Y0095457D01*
X0030600Y0096964D01*
X0030600Y0098595D01*
X0030600Y0097740D02*
X0039197Y0097740D01*
X0038199Y0096741D02*
X0030508Y0096741D01*
X0030094Y0095743D02*
X0037200Y0095743D01*
X0036202Y0094744D02*
X0029263Y0094744D01*
X0027474Y0093746D02*
X0035203Y0093746D01*
X0038669Y0099737D02*
X0030127Y0099737D01*
X0029343Y0100735D02*
X0037671Y0100735D01*
X0036672Y0101734D02*
X0027668Y0101734D01*
X0019332Y0101734D02*
X0013500Y0101734D01*
X0013500Y0102732D02*
X0035900Y0102732D01*
X0019562Y0103731D02*
X0013500Y0103731D01*
X0013500Y0104729D02*
X0017752Y0104729D01*
X0016912Y0105728D02*
X0013500Y0105728D01*
X0013500Y0106726D02*
X0016499Y0106726D01*
X0016400Y0107725D02*
X0013500Y0107725D01*
X0013500Y0108723D02*
X0016453Y0108723D01*
X0016867Y0109722D02*
X0013500Y0109722D01*
X0013500Y0110720D02*
X0017642Y0110720D01*
X0017657Y0100735D02*
X0013500Y0100735D01*
X0013500Y0099737D02*
X0016873Y0099737D01*
X0016459Y0098738D02*
X0013500Y0098738D01*
X0013500Y0097740D02*
X0016400Y0097740D01*
X0016492Y0096741D02*
X0013500Y0096741D01*
X0013500Y0095743D02*
X0016906Y0095743D01*
X0017737Y0094744D02*
X0013500Y0094744D01*
X0013500Y0093746D02*
X0019526Y0093746D01*
X0016205Y0092747D02*
X0013500Y0092747D01*
X0013500Y0091749D02*
X0015206Y0091749D01*
X0014800Y0090750D02*
X0013500Y0090750D01*
X0013500Y0089752D02*
X0014800Y0089752D01*
X0014800Y0088753D02*
X0013500Y0088753D01*
X0013500Y0087755D02*
X0014800Y0087755D01*
X0014800Y0086756D02*
X0013500Y0086756D01*
X0013500Y0085758D02*
X0014800Y0085758D01*
X0014856Y0084759D02*
X0013500Y0084759D01*
X0013500Y0083761D02*
X0015855Y0083761D01*
X0034600Y0071778D02*
X0038639Y0071778D01*
X0035123Y0069781D02*
X0034600Y0069781D01*
X0022500Y0044780D02*
X0017500Y0044780D01*
X0018920Y0042822D02*
X0022111Y0042822D01*
X0022111Y0041823D02*
X0016100Y0041823D01*
X0016100Y0040825D02*
X0023077Y0040825D01*
X0024500Y0042780D02*
X0022500Y0044780D01*
X0026838Y0043820D02*
X0061372Y0043820D01*
X0066500Y0041380D02*
X0067350Y0040530D01*
X0069456Y0040530D01*
X0075600Y0034386D01*
X0071500Y0025780D02*
X0066500Y0030780D01*
X0066500Y0038180D01*
X0066500Y0041380D02*
X0066900Y0041780D01*
X0071500Y0041780D01*
X0056500Y0038180D02*
X0056500Y0030780D01*
X0061500Y0025780D01*
X0048581Y0037829D02*
X0029446Y0037829D01*
X0025923Y0040825D02*
X0051576Y0040825D01*
X0052575Y0041823D02*
X0026889Y0041823D01*
X0026889Y0042822D02*
X0052900Y0042822D01*
X0050578Y0039826D02*
X0016100Y0039826D01*
X0016100Y0038828D02*
X0049579Y0038828D01*
X0018459Y0022851D02*
X0013500Y0022851D01*
X0013500Y0021853D02*
X0017855Y0021853D01*
X0016669Y0020854D02*
X0013500Y0020854D01*
X0013500Y0019856D02*
X0016191Y0019856D01*
X0016031Y0018857D02*
X0013500Y0018857D01*
X0013500Y0017859D02*
X0016127Y0017859D01*
X0016541Y0016860D02*
X0013500Y0016860D01*
X0013500Y0015862D02*
X0017513Y0015862D01*
X0021487Y0015862D02*
X0025448Y0015862D01*
X0024450Y0016860D02*
X0022459Y0016860D01*
X0022873Y0017859D02*
X0023451Y0017859D01*
X0026447Y0014863D02*
X0013500Y0014863D01*
X0013500Y0013865D02*
X0027445Y0013865D01*
X0017460Y0023850D02*
X0013500Y0023850D01*
X0013500Y0024848D02*
X0016462Y0024848D01*
X0015463Y0025847D02*
X0013500Y0025847D01*
X0013500Y0026845D02*
X0014465Y0026845D01*
X0081500Y0025433D02*
X0081500Y0019780D01*
X0085500Y0102780D02*
X0076500Y0102780D01*
X0078900Y0116711D02*
X0059831Y0116711D01*
X0058833Y0117710D02*
X0078900Y0117710D01*
X0078900Y0118708D02*
X0057834Y0118708D01*
X0056836Y0119707D02*
X0078900Y0119707D01*
X0086100Y0119707D02*
X0088900Y0119707D01*
X0088900Y0120705D02*
X0086100Y0120705D01*
X0086100Y0118708D02*
X0088900Y0118708D01*
X0088900Y0117710D02*
X0086100Y0117710D01*
X0086231Y0116711D02*
X0088900Y0116711D01*
X0092500Y0118180D02*
X0103900Y0118180D01*
X0092500Y0121380D02*
X0092500Y0133780D01*
X0110809Y0140676D02*
X0118191Y0140676D01*
X0116599Y0139677D02*
X0112401Y0139677D01*
X0113151Y0138679D02*
X0115849Y0138679D01*
X0115435Y0137680D02*
X0113565Y0137680D01*
X0113600Y0136682D02*
X0115400Y0136682D01*
X0115400Y0135683D02*
X0113600Y0135683D01*
X0113600Y0134685D02*
X0115400Y0134685D01*
X0115400Y0133686D02*
X0113600Y0133686D01*
X0113600Y0132688D02*
X0115400Y0132688D01*
X0115146Y0131689D02*
X0113600Y0131689D01*
X0113600Y0130691D02*
X0114148Y0130691D01*
X0123600Y0134685D02*
X0125400Y0134685D01*
X0125400Y0135683D02*
X0123600Y0135683D01*
X0123600Y0136682D02*
X0125400Y0136682D01*
X0125435Y0137680D02*
X0123565Y0137680D01*
X0123151Y0138679D02*
X0125849Y0138679D01*
X0126599Y0139677D02*
X0122401Y0139677D01*
X0120809Y0140676D02*
X0128191Y0140676D01*
X0128172Y0104729D02*
X0116813Y0104729D01*
X0040937Y0142673D02*
X0291530Y0142673D01*
X0300500Y0146667D02*
X0013500Y0146667D01*
X0013500Y0143671D02*
X0017486Y0143671D01*
X0016530Y0142673D02*
X0013500Y0142673D01*
X0013500Y0141674D02*
X0016116Y0141674D01*
X0016031Y0140676D02*
X0013500Y0140676D01*
X0013500Y0139677D02*
X0016202Y0139677D01*
X0016696Y0138679D02*
X0013500Y0138679D01*
X0013500Y0137680D02*
X0017920Y0137680D01*
X0021080Y0137680D02*
X0030063Y0137680D01*
X0030063Y0136682D02*
X0013500Y0136682D01*
X0013500Y0135683D02*
X0030063Y0135683D01*
X0030600Y0134685D02*
X0013500Y0134685D01*
X0013500Y0131689D02*
X0035146Y0131689D01*
X0034148Y0130691D02*
X0013500Y0130691D01*
X0013500Y0129692D02*
X0033149Y0129692D01*
X0032151Y0128694D02*
X0013500Y0128694D01*
X0013500Y0127695D02*
X0031152Y0127695D01*
X0030154Y0126697D02*
X0013500Y0126697D01*
X0013500Y0125698D02*
X0029155Y0125698D01*
X0028157Y0124699D02*
X0013500Y0124699D01*
X0013500Y0123701D02*
X0027158Y0123701D01*
X0035000Y0140676D02*
X0036000Y0140676D01*
X0036000Y0141674D02*
X0035000Y0141674D01*
X0035000Y0142673D02*
X0036000Y0142673D01*
X0036000Y0143671D02*
X0035000Y0143671D01*
X0035000Y0144670D02*
X0036000Y0144670D01*
X0201621Y0127695D02*
X0202855Y0127695D01*
X0202442Y0126697D02*
X0202112Y0126697D01*
X0202112Y0122702D02*
X0203779Y0122702D01*
X0234214Y0147665D02*
X0273786Y0147665D01*
X0273500Y0148664D02*
X0234500Y0148664D01*
X0234500Y0149662D02*
X0273500Y0149662D01*
D11*
X0292531Y0140780D02*
X0292533Y0140868D01*
X0292539Y0140956D01*
X0292549Y0141044D01*
X0292563Y0141132D01*
X0292580Y0141218D01*
X0292602Y0141304D01*
X0292627Y0141388D01*
X0292657Y0141472D01*
X0292689Y0141554D01*
X0292726Y0141634D01*
X0292766Y0141713D01*
X0292810Y0141790D01*
X0292857Y0141865D01*
X0292907Y0141937D01*
X0292961Y0142008D01*
X0293017Y0142075D01*
X0293077Y0142141D01*
X0293139Y0142203D01*
X0293205Y0142263D01*
X0293272Y0142319D01*
X0293343Y0142373D01*
X0293415Y0142423D01*
X0293490Y0142470D01*
X0293567Y0142514D01*
X0293646Y0142554D01*
X0293726Y0142591D01*
X0293808Y0142623D01*
X0293892Y0142653D01*
X0293976Y0142678D01*
X0294062Y0142700D01*
X0294148Y0142717D01*
X0294236Y0142731D01*
X0294324Y0142741D01*
X0294412Y0142747D01*
X0294500Y0142749D01*
X0294588Y0142747D01*
X0294676Y0142741D01*
X0294764Y0142731D01*
X0294852Y0142717D01*
X0294938Y0142700D01*
X0295024Y0142678D01*
X0295108Y0142653D01*
X0295192Y0142623D01*
X0295274Y0142591D01*
X0295354Y0142554D01*
X0295433Y0142514D01*
X0295510Y0142470D01*
X0295585Y0142423D01*
X0295657Y0142373D01*
X0295728Y0142319D01*
X0295795Y0142263D01*
X0295861Y0142203D01*
X0295923Y0142141D01*
X0295983Y0142075D01*
X0296039Y0142008D01*
X0296093Y0141937D01*
X0296143Y0141865D01*
X0296190Y0141790D01*
X0296234Y0141713D01*
X0296274Y0141634D01*
X0296311Y0141554D01*
X0296343Y0141472D01*
X0296373Y0141388D01*
X0296398Y0141304D01*
X0296420Y0141218D01*
X0296437Y0141132D01*
X0296451Y0141044D01*
X0296461Y0140956D01*
X0296467Y0140868D01*
X0296469Y0140780D01*
X0296467Y0140692D01*
X0296461Y0140604D01*
X0296451Y0140516D01*
X0296437Y0140428D01*
X0296420Y0140342D01*
X0296398Y0140256D01*
X0296373Y0140172D01*
X0296343Y0140088D01*
X0296311Y0140006D01*
X0296274Y0139926D01*
X0296234Y0139847D01*
X0296190Y0139770D01*
X0296143Y0139695D01*
X0296093Y0139623D01*
X0296039Y0139552D01*
X0295983Y0139485D01*
X0295923Y0139419D01*
X0295861Y0139357D01*
X0295795Y0139297D01*
X0295728Y0139241D01*
X0295657Y0139187D01*
X0295585Y0139137D01*
X0295510Y0139090D01*
X0295433Y0139046D01*
X0295354Y0139006D01*
X0295274Y0138969D01*
X0295192Y0138937D01*
X0295108Y0138907D01*
X0295024Y0138882D01*
X0294938Y0138860D01*
X0294852Y0138843D01*
X0294764Y0138829D01*
X0294676Y0138819D01*
X0294588Y0138813D01*
X0294500Y0138811D01*
X0294412Y0138813D01*
X0294324Y0138819D01*
X0294236Y0138829D01*
X0294148Y0138843D01*
X0294062Y0138860D01*
X0293976Y0138882D01*
X0293892Y0138907D01*
X0293808Y0138937D01*
X0293726Y0138969D01*
X0293646Y0139006D01*
X0293567Y0139046D01*
X0293490Y0139090D01*
X0293415Y0139137D01*
X0293343Y0139187D01*
X0293272Y0139241D01*
X0293205Y0139297D01*
X0293139Y0139357D01*
X0293077Y0139419D01*
X0293017Y0139485D01*
X0292961Y0139552D01*
X0292907Y0139623D01*
X0292857Y0139695D01*
X0292810Y0139770D01*
X0292766Y0139847D01*
X0292726Y0139926D01*
X0292689Y0140006D01*
X0292657Y0140088D01*
X0292627Y0140172D01*
X0292602Y0140256D01*
X0292580Y0140342D01*
X0292563Y0140428D01*
X0292549Y0140516D01*
X0292539Y0140604D01*
X0292533Y0140692D01*
X0292531Y0140780D01*
X0292531Y0018780D02*
X0292533Y0018868D01*
X0292539Y0018956D01*
X0292549Y0019044D01*
X0292563Y0019132D01*
X0292580Y0019218D01*
X0292602Y0019304D01*
X0292627Y0019388D01*
X0292657Y0019472D01*
X0292689Y0019554D01*
X0292726Y0019634D01*
X0292766Y0019713D01*
X0292810Y0019790D01*
X0292857Y0019865D01*
X0292907Y0019937D01*
X0292961Y0020008D01*
X0293017Y0020075D01*
X0293077Y0020141D01*
X0293139Y0020203D01*
X0293205Y0020263D01*
X0293272Y0020319D01*
X0293343Y0020373D01*
X0293415Y0020423D01*
X0293490Y0020470D01*
X0293567Y0020514D01*
X0293646Y0020554D01*
X0293726Y0020591D01*
X0293808Y0020623D01*
X0293892Y0020653D01*
X0293976Y0020678D01*
X0294062Y0020700D01*
X0294148Y0020717D01*
X0294236Y0020731D01*
X0294324Y0020741D01*
X0294412Y0020747D01*
X0294500Y0020749D01*
X0294588Y0020747D01*
X0294676Y0020741D01*
X0294764Y0020731D01*
X0294852Y0020717D01*
X0294938Y0020700D01*
X0295024Y0020678D01*
X0295108Y0020653D01*
X0295192Y0020623D01*
X0295274Y0020591D01*
X0295354Y0020554D01*
X0295433Y0020514D01*
X0295510Y0020470D01*
X0295585Y0020423D01*
X0295657Y0020373D01*
X0295728Y0020319D01*
X0295795Y0020263D01*
X0295861Y0020203D01*
X0295923Y0020141D01*
X0295983Y0020075D01*
X0296039Y0020008D01*
X0296093Y0019937D01*
X0296143Y0019865D01*
X0296190Y0019790D01*
X0296234Y0019713D01*
X0296274Y0019634D01*
X0296311Y0019554D01*
X0296343Y0019472D01*
X0296373Y0019388D01*
X0296398Y0019304D01*
X0296420Y0019218D01*
X0296437Y0019132D01*
X0296451Y0019044D01*
X0296461Y0018956D01*
X0296467Y0018868D01*
X0296469Y0018780D01*
X0296467Y0018692D01*
X0296461Y0018604D01*
X0296451Y0018516D01*
X0296437Y0018428D01*
X0296420Y0018342D01*
X0296398Y0018256D01*
X0296373Y0018172D01*
X0296343Y0018088D01*
X0296311Y0018006D01*
X0296274Y0017926D01*
X0296234Y0017847D01*
X0296190Y0017770D01*
X0296143Y0017695D01*
X0296093Y0017623D01*
X0296039Y0017552D01*
X0295983Y0017485D01*
X0295923Y0017419D01*
X0295861Y0017357D01*
X0295795Y0017297D01*
X0295728Y0017241D01*
X0295657Y0017187D01*
X0295585Y0017137D01*
X0295510Y0017090D01*
X0295433Y0017046D01*
X0295354Y0017006D01*
X0295274Y0016969D01*
X0295192Y0016937D01*
X0295108Y0016907D01*
X0295024Y0016882D01*
X0294938Y0016860D01*
X0294852Y0016843D01*
X0294764Y0016829D01*
X0294676Y0016819D01*
X0294588Y0016813D01*
X0294500Y0016811D01*
X0294412Y0016813D01*
X0294324Y0016819D01*
X0294236Y0016829D01*
X0294148Y0016843D01*
X0294062Y0016860D01*
X0293976Y0016882D01*
X0293892Y0016907D01*
X0293808Y0016937D01*
X0293726Y0016969D01*
X0293646Y0017006D01*
X0293567Y0017046D01*
X0293490Y0017090D01*
X0293415Y0017137D01*
X0293343Y0017187D01*
X0293272Y0017241D01*
X0293205Y0017297D01*
X0293139Y0017357D01*
X0293077Y0017419D01*
X0293017Y0017485D01*
X0292961Y0017552D01*
X0292907Y0017623D01*
X0292857Y0017695D01*
X0292810Y0017770D01*
X0292766Y0017847D01*
X0292726Y0017926D01*
X0292689Y0018006D01*
X0292657Y0018088D01*
X0292627Y0018172D01*
X0292602Y0018256D01*
X0292580Y0018342D01*
X0292563Y0018428D01*
X0292549Y0018516D01*
X0292539Y0018604D01*
X0292533Y0018692D01*
X0292531Y0018780D01*
X0017531Y0018780D02*
X0017533Y0018868D01*
X0017539Y0018956D01*
X0017549Y0019044D01*
X0017563Y0019132D01*
X0017580Y0019218D01*
X0017602Y0019304D01*
X0017627Y0019388D01*
X0017657Y0019472D01*
X0017689Y0019554D01*
X0017726Y0019634D01*
X0017766Y0019713D01*
X0017810Y0019790D01*
X0017857Y0019865D01*
X0017907Y0019937D01*
X0017961Y0020008D01*
X0018017Y0020075D01*
X0018077Y0020141D01*
X0018139Y0020203D01*
X0018205Y0020263D01*
X0018272Y0020319D01*
X0018343Y0020373D01*
X0018415Y0020423D01*
X0018490Y0020470D01*
X0018567Y0020514D01*
X0018646Y0020554D01*
X0018726Y0020591D01*
X0018808Y0020623D01*
X0018892Y0020653D01*
X0018976Y0020678D01*
X0019062Y0020700D01*
X0019148Y0020717D01*
X0019236Y0020731D01*
X0019324Y0020741D01*
X0019412Y0020747D01*
X0019500Y0020749D01*
X0019588Y0020747D01*
X0019676Y0020741D01*
X0019764Y0020731D01*
X0019852Y0020717D01*
X0019938Y0020700D01*
X0020024Y0020678D01*
X0020108Y0020653D01*
X0020192Y0020623D01*
X0020274Y0020591D01*
X0020354Y0020554D01*
X0020433Y0020514D01*
X0020510Y0020470D01*
X0020585Y0020423D01*
X0020657Y0020373D01*
X0020728Y0020319D01*
X0020795Y0020263D01*
X0020861Y0020203D01*
X0020923Y0020141D01*
X0020983Y0020075D01*
X0021039Y0020008D01*
X0021093Y0019937D01*
X0021143Y0019865D01*
X0021190Y0019790D01*
X0021234Y0019713D01*
X0021274Y0019634D01*
X0021311Y0019554D01*
X0021343Y0019472D01*
X0021373Y0019388D01*
X0021398Y0019304D01*
X0021420Y0019218D01*
X0021437Y0019132D01*
X0021451Y0019044D01*
X0021461Y0018956D01*
X0021467Y0018868D01*
X0021469Y0018780D01*
X0021467Y0018692D01*
X0021461Y0018604D01*
X0021451Y0018516D01*
X0021437Y0018428D01*
X0021420Y0018342D01*
X0021398Y0018256D01*
X0021373Y0018172D01*
X0021343Y0018088D01*
X0021311Y0018006D01*
X0021274Y0017926D01*
X0021234Y0017847D01*
X0021190Y0017770D01*
X0021143Y0017695D01*
X0021093Y0017623D01*
X0021039Y0017552D01*
X0020983Y0017485D01*
X0020923Y0017419D01*
X0020861Y0017357D01*
X0020795Y0017297D01*
X0020728Y0017241D01*
X0020657Y0017187D01*
X0020585Y0017137D01*
X0020510Y0017090D01*
X0020433Y0017046D01*
X0020354Y0017006D01*
X0020274Y0016969D01*
X0020192Y0016937D01*
X0020108Y0016907D01*
X0020024Y0016882D01*
X0019938Y0016860D01*
X0019852Y0016843D01*
X0019764Y0016829D01*
X0019676Y0016819D01*
X0019588Y0016813D01*
X0019500Y0016811D01*
X0019412Y0016813D01*
X0019324Y0016819D01*
X0019236Y0016829D01*
X0019148Y0016843D01*
X0019062Y0016860D01*
X0018976Y0016882D01*
X0018892Y0016907D01*
X0018808Y0016937D01*
X0018726Y0016969D01*
X0018646Y0017006D01*
X0018567Y0017046D01*
X0018490Y0017090D01*
X0018415Y0017137D01*
X0018343Y0017187D01*
X0018272Y0017241D01*
X0018205Y0017297D01*
X0018139Y0017357D01*
X0018077Y0017419D01*
X0018017Y0017485D01*
X0017961Y0017552D01*
X0017907Y0017623D01*
X0017857Y0017695D01*
X0017810Y0017770D01*
X0017766Y0017847D01*
X0017726Y0017926D01*
X0017689Y0018006D01*
X0017657Y0018088D01*
X0017627Y0018172D01*
X0017602Y0018256D01*
X0017580Y0018342D01*
X0017563Y0018428D01*
X0017549Y0018516D01*
X0017539Y0018604D01*
X0017533Y0018692D01*
X0017531Y0018780D01*
X0017531Y0140780D02*
X0017533Y0140868D01*
X0017539Y0140956D01*
X0017549Y0141044D01*
X0017563Y0141132D01*
X0017580Y0141218D01*
X0017602Y0141304D01*
X0017627Y0141388D01*
X0017657Y0141472D01*
X0017689Y0141554D01*
X0017726Y0141634D01*
X0017766Y0141713D01*
X0017810Y0141790D01*
X0017857Y0141865D01*
X0017907Y0141937D01*
X0017961Y0142008D01*
X0018017Y0142075D01*
X0018077Y0142141D01*
X0018139Y0142203D01*
X0018205Y0142263D01*
X0018272Y0142319D01*
X0018343Y0142373D01*
X0018415Y0142423D01*
X0018490Y0142470D01*
X0018567Y0142514D01*
X0018646Y0142554D01*
X0018726Y0142591D01*
X0018808Y0142623D01*
X0018892Y0142653D01*
X0018976Y0142678D01*
X0019062Y0142700D01*
X0019148Y0142717D01*
X0019236Y0142731D01*
X0019324Y0142741D01*
X0019412Y0142747D01*
X0019500Y0142749D01*
X0019588Y0142747D01*
X0019676Y0142741D01*
X0019764Y0142731D01*
X0019852Y0142717D01*
X0019938Y0142700D01*
X0020024Y0142678D01*
X0020108Y0142653D01*
X0020192Y0142623D01*
X0020274Y0142591D01*
X0020354Y0142554D01*
X0020433Y0142514D01*
X0020510Y0142470D01*
X0020585Y0142423D01*
X0020657Y0142373D01*
X0020728Y0142319D01*
X0020795Y0142263D01*
X0020861Y0142203D01*
X0020923Y0142141D01*
X0020983Y0142075D01*
X0021039Y0142008D01*
X0021093Y0141937D01*
X0021143Y0141865D01*
X0021190Y0141790D01*
X0021234Y0141713D01*
X0021274Y0141634D01*
X0021311Y0141554D01*
X0021343Y0141472D01*
X0021373Y0141388D01*
X0021398Y0141304D01*
X0021420Y0141218D01*
X0021437Y0141132D01*
X0021451Y0141044D01*
X0021461Y0140956D01*
X0021467Y0140868D01*
X0021469Y0140780D01*
X0021467Y0140692D01*
X0021461Y0140604D01*
X0021451Y0140516D01*
X0021437Y0140428D01*
X0021420Y0140342D01*
X0021398Y0140256D01*
X0021373Y0140172D01*
X0021343Y0140088D01*
X0021311Y0140006D01*
X0021274Y0139926D01*
X0021234Y0139847D01*
X0021190Y0139770D01*
X0021143Y0139695D01*
X0021093Y0139623D01*
X0021039Y0139552D01*
X0020983Y0139485D01*
X0020923Y0139419D01*
X0020861Y0139357D01*
X0020795Y0139297D01*
X0020728Y0139241D01*
X0020657Y0139187D01*
X0020585Y0139137D01*
X0020510Y0139090D01*
X0020433Y0139046D01*
X0020354Y0139006D01*
X0020274Y0138969D01*
X0020192Y0138937D01*
X0020108Y0138907D01*
X0020024Y0138882D01*
X0019938Y0138860D01*
X0019852Y0138843D01*
X0019764Y0138829D01*
X0019676Y0138819D01*
X0019588Y0138813D01*
X0019500Y0138811D01*
X0019412Y0138813D01*
X0019324Y0138819D01*
X0019236Y0138829D01*
X0019148Y0138843D01*
X0019062Y0138860D01*
X0018976Y0138882D01*
X0018892Y0138907D01*
X0018808Y0138937D01*
X0018726Y0138969D01*
X0018646Y0139006D01*
X0018567Y0139046D01*
X0018490Y0139090D01*
X0018415Y0139137D01*
X0018343Y0139187D01*
X0018272Y0139241D01*
X0018205Y0139297D01*
X0018139Y0139357D01*
X0018077Y0139419D01*
X0018017Y0139485D01*
X0017961Y0139552D01*
X0017907Y0139623D01*
X0017857Y0139695D01*
X0017810Y0139770D01*
X0017766Y0139847D01*
X0017726Y0139926D01*
X0017689Y0140006D01*
X0017657Y0140088D01*
X0017627Y0140172D01*
X0017602Y0140256D01*
X0017580Y0140342D01*
X0017563Y0140428D01*
X0017549Y0140516D01*
X0017539Y0140604D01*
X0017533Y0140692D01*
X0017531Y0140780D01*
D12*
X0040366Y0061520D03*
X0048634Y0057780D03*
X0040366Y0054040D03*
D13*
X0042900Y0069780D03*
X0046100Y0069780D03*
X0085900Y0065780D03*
X0089100Y0065780D03*
X0089100Y0075780D03*
X0085900Y0075780D03*
X0099900Y0106780D03*
X0103100Y0106780D03*
X0186900Y0133780D03*
X0190100Y0133780D03*
X0253900Y0092780D03*
X0257100Y0092780D03*
X0257100Y0081780D03*
X0253900Y0081780D03*
X0253900Y0069780D03*
X0257100Y0069780D03*
X0257100Y0058780D03*
X0253900Y0058780D03*
D14*
X0190500Y0043126D03*
X0182500Y0043126D03*
X0182500Y0036433D03*
X0190500Y0036433D03*
X0109500Y0032126D03*
X0109500Y0025433D03*
X0081500Y0025433D03*
X0081500Y0032126D03*
X0064500Y0054433D03*
X0057000Y0054433D03*
X0057000Y0061126D03*
X0064500Y0061126D03*
X0033000Y0061126D03*
X0033000Y0054433D03*
D15*
X0097654Y0098280D03*
X0104346Y0098280D03*
X0177154Y0116780D03*
X0183846Y0116780D03*
X0192154Y0116780D03*
X0198846Y0116780D03*
X0198846Y0124780D03*
X0192154Y0124780D03*
X0183846Y0124780D03*
X0177154Y0124780D03*
X0193154Y0051780D03*
X0199846Y0051780D03*
D16*
X0054500Y0069780D03*
D17*
X0026500Y0070780D02*
X0020500Y0070780D01*
X0020500Y0060780D02*
X0026500Y0060780D01*
X0026500Y0050780D02*
X0020500Y0050780D01*
X0034500Y0028780D02*
X0034500Y0022780D01*
X0044500Y0022780D02*
X0044500Y0028780D01*
X0061500Y0028780D02*
X0061500Y0022780D01*
X0071500Y0022780D02*
X0071500Y0028780D01*
X0080500Y0040780D02*
X0080500Y0046780D01*
X0090500Y0046780D02*
X0090500Y0040780D01*
X0100500Y0040780D02*
X0100500Y0046780D01*
X0110500Y0046780D02*
X0110500Y0040780D01*
X0100500Y0028780D02*
X0100500Y0022780D01*
X0090500Y0022780D02*
X0090500Y0028780D01*
X0122500Y0028780D02*
X0122500Y0022780D01*
X0132500Y0022780D02*
X0132500Y0028780D01*
X0142500Y0028780D02*
X0142500Y0022780D01*
X0152500Y0022780D02*
X0152500Y0028780D01*
X0181500Y0028780D02*
X0181500Y0022780D01*
X0191500Y0022780D02*
X0191500Y0028780D01*
X0206500Y0065780D02*
X0212500Y0065780D01*
X0212500Y0075780D02*
X0206500Y0075780D01*
X0206500Y0115780D02*
X0212500Y0115780D01*
X0212500Y0125780D02*
X0206500Y0125780D01*
X0149500Y0130780D02*
X0149500Y0136780D01*
X0139500Y0136780D02*
X0139500Y0130780D01*
X0129500Y0130780D02*
X0129500Y0136780D01*
X0119500Y0136780D02*
X0119500Y0130780D01*
X0109500Y0130780D02*
X0109500Y0136780D01*
X0092500Y0136780D02*
X0092500Y0130780D01*
X0082500Y0130780D02*
X0082500Y0136780D01*
X0026500Y0117780D02*
X0020500Y0117780D01*
X0020500Y0107780D02*
X0026500Y0107780D01*
X0026500Y0097780D02*
X0020500Y0097780D01*
X0020500Y0087780D02*
X0026500Y0087780D01*
D18*
X0082500Y0118180D03*
X0082500Y0121380D03*
X0092500Y0121380D03*
X0092500Y0118180D03*
X0188500Y0109380D03*
X0188500Y0106180D03*
X0066500Y0041380D03*
X0066500Y0038180D03*
X0056500Y0038180D03*
X0056500Y0041380D03*
D19*
X0209500Y0051780D03*
D20*
X0035500Y0139780D03*
X0024500Y0032780D03*
D21*
X0234500Y0090843D03*
X0241500Y0090843D03*
X0241500Y0098717D03*
X0234500Y0098717D03*
X0275500Y0082717D03*
X0282500Y0082717D03*
X0282500Y0074843D03*
X0275500Y0074843D03*
D22*
X0266500Y0071780D03*
X0276500Y0062780D03*
X0281500Y0052780D03*
X0287500Y0082780D03*
X0265500Y0109780D03*
X0241500Y0103780D03*
X0229500Y0097780D03*
X0229500Y0091780D03*
X0216500Y0093780D03*
X0203500Y0088780D03*
X0202500Y0093780D03*
X0211500Y0082780D03*
X0197500Y0057780D03*
X0169500Y0069780D03*
X0166311Y0073591D03*
X0163500Y0075780D03*
X0146500Y0085281D03*
X0143500Y0083780D03*
X0146500Y0090059D03*
X0153500Y0097780D03*
X0160500Y0093780D03*
X0151111Y0103780D03*
X0147500Y0104780D03*
X0145500Y0107780D03*
X0137558Y0105343D03*
X0129500Y0106780D03*
X0120500Y0098780D03*
X0111111Y0097780D03*
X0110500Y0103780D03*
X0107500Y0111780D03*
X0085500Y0102780D03*
X0083500Y0094780D03*
X0088500Y0090780D03*
X0093689Y0092969D03*
X0113500Y0083780D03*
X0100500Y0074780D03*
X0094500Y0075780D03*
X0094500Y0070780D03*
X0081500Y0072780D03*
X0080500Y0079780D03*
X0058500Y0079780D03*
X0048500Y0092169D03*
X0040500Y0091780D03*
X0036689Y0089591D03*
X0031500Y0078780D03*
X0036500Y0067780D03*
X0017500Y0044780D03*
X0024500Y0042780D03*
X0031500Y0036780D03*
X0071500Y0041780D03*
X0073500Y0054780D03*
X0081500Y0064780D03*
X0091500Y0058780D03*
X0115500Y0058780D03*
X0115500Y0064780D03*
X0129500Y0073780D03*
X0134500Y0075780D03*
X0142500Y0072780D03*
X0132500Y0083780D03*
X0132500Y0087780D03*
X0166500Y0064780D03*
X0139500Y0054780D03*
X0126689Y0035969D03*
X0114500Y0022780D03*
X0081500Y0019780D03*
X0057500Y0096780D03*
X0050500Y0108780D03*
X0037500Y0115780D03*
X0059612Y0130892D03*
X0056500Y0135780D03*
X0048500Y0134780D03*
X0070500Y0126780D03*
X0070500Y0110780D03*
X0133500Y0124780D03*
X0177500Y0129780D03*
X0195500Y0129780D03*
X0197500Y0111433D03*
X0177500Y0110780D03*
D23*
X0235500Y0074780D02*
X0246900Y0074780D01*
X0253900Y0081780D01*
X0231500Y0063780D02*
X0210846Y0043126D01*
X0206500Y0043126D01*
X0203500Y0040126D01*
X0203500Y0028274D01*
X0190805Y0015580D01*
X0028700Y0015580D01*
X0014000Y0030280D01*
X0014000Y0065780D01*
X0019000Y0070780D01*
X0023500Y0070780D01*
X0023500Y0060780D02*
X0029846Y0054433D01*
X0033000Y0054433D01*
X0029346Y0050780D01*
X0023500Y0050780D01*
X0190500Y0043126D02*
X0206500Y0043126D01*
D24*
X0088500Y0099780D02*
X0088500Y0104780D01*
X0086737Y0104780D01*
X0086448Y0105069D01*
X0084552Y0105069D01*
X0084263Y0104780D01*
X0054500Y0104780D01*
X0050500Y0108780D01*
X0083500Y0094780D02*
X0088500Y0099780D01*
D25*
X0231500Y0063780D03*
X0235500Y0074780D03*
X0263500Y0081780D03*
M02*
