G75*
%MOIN*%
%OFA0B0*%
%FSLAX25Y25*%
%IPPOS*%
%LPD*%
%AMOC8*
5,1,8,0,0,1.08239X$1,22.5*
%
%ADD10C,0.01000*%
%ADD11C,0.00000*%
%ADD12C,0.00787*%
%ADD13C,0.00400*%
%ADD14C,0.00800*%
%ADD15C,0.00500*%
%ADD16C,0.00600*%
%ADD17C,0.00300*%
%ADD18C,0.00200*%
D10*
X0011500Y0010780D02*
X0011500Y0148780D01*
X0232500Y0148780D01*
X0232500Y0181780D01*
X0275500Y0181780D01*
X0275500Y0148780D01*
X0302500Y0148780D01*
X0302500Y0010780D01*
X0011500Y0010780D01*
X0244097Y0163153D02*
X0244393Y0163393D01*
X0244694Y0163626D01*
X0245001Y0163851D01*
X0245313Y0164069D01*
X0245630Y0164279D01*
X0245953Y0164482D01*
X0246280Y0164676D01*
X0246612Y0164863D01*
X0246949Y0165041D01*
X0247289Y0165211D01*
X0247634Y0165373D01*
X0247982Y0165526D01*
X0248335Y0165671D01*
X0248690Y0165807D01*
X0249049Y0165935D01*
X0249411Y0166053D01*
X0249775Y0166163D01*
X0250142Y0166264D01*
X0250512Y0166356D01*
X0250884Y0166439D01*
X0251257Y0166513D01*
X0251632Y0166577D01*
X0252009Y0166633D01*
X0252387Y0166679D01*
X0252766Y0166716D01*
X0253146Y0166744D01*
X0253526Y0166763D01*
X0253907Y0166772D01*
X0254287Y0166772D01*
X0254668Y0166763D01*
X0255048Y0166744D01*
X0255428Y0166716D01*
X0255807Y0166679D01*
X0256185Y0166633D01*
X0256562Y0166577D01*
X0256937Y0166513D01*
X0257310Y0166439D01*
X0257682Y0166356D01*
X0258052Y0166264D01*
X0258419Y0166163D01*
X0258783Y0166053D01*
X0259145Y0165935D01*
X0259504Y0165807D01*
X0259859Y0165671D01*
X0260212Y0165526D01*
X0260560Y0165373D01*
X0260905Y0165211D01*
X0261245Y0165041D01*
X0261582Y0164863D01*
X0261914Y0164676D01*
X0262241Y0164482D01*
X0262564Y0164279D01*
X0262881Y0164069D01*
X0263193Y0163851D01*
X0263500Y0163626D01*
X0263801Y0163393D01*
X0264097Y0163153D01*
X0258724Y0157182D02*
X0258630Y0157300D01*
X0258533Y0157414D01*
X0258433Y0157527D01*
X0258331Y0157636D01*
X0258225Y0157743D01*
X0258116Y0157847D01*
X0258005Y0157949D01*
X0257891Y0158047D01*
X0257775Y0158142D01*
X0257656Y0158234D01*
X0257535Y0158323D01*
X0257412Y0158409D01*
X0257286Y0158491D01*
X0257158Y0158570D01*
X0257028Y0158646D01*
X0256896Y0158718D01*
X0256762Y0158787D01*
X0256627Y0158852D01*
X0256490Y0158913D01*
X0256351Y0158971D01*
X0256211Y0159026D01*
X0256069Y0159076D01*
X0255926Y0159123D01*
X0255782Y0159166D01*
X0255637Y0159205D01*
X0255491Y0159240D01*
X0255344Y0159272D01*
X0255196Y0159299D01*
X0255048Y0159323D01*
X0254899Y0159343D01*
X0254749Y0159359D01*
X0254600Y0159371D01*
X0254449Y0159379D01*
X0254299Y0159383D01*
X0254149Y0159383D01*
X0253999Y0159379D01*
X0253848Y0159371D01*
X0253699Y0159359D01*
X0253549Y0159343D01*
X0253400Y0159323D01*
X0253252Y0159299D01*
X0253104Y0159272D01*
X0252957Y0159240D01*
X0252811Y0159205D01*
X0252666Y0159166D01*
X0252522Y0159123D01*
X0252379Y0159076D01*
X0252237Y0159026D01*
X0252097Y0158971D01*
X0251958Y0158913D01*
X0251821Y0158852D01*
X0251686Y0158787D01*
X0251552Y0158718D01*
X0251420Y0158646D01*
X0251290Y0158570D01*
X0251162Y0158491D01*
X0251036Y0158409D01*
X0250913Y0158323D01*
X0250792Y0158234D01*
X0250673Y0158142D01*
X0250557Y0158047D01*
X0250443Y0157949D01*
X0250332Y0157847D01*
X0250223Y0157743D01*
X0250117Y0157636D01*
X0250015Y0157527D01*
X0249915Y0157414D01*
X0249818Y0157300D01*
X0249724Y0157182D01*
X0253292Y0152611D02*
X0253294Y0152674D01*
X0253300Y0152736D01*
X0253310Y0152798D01*
X0253323Y0152860D01*
X0253341Y0152920D01*
X0253362Y0152979D01*
X0253387Y0153037D01*
X0253416Y0153093D01*
X0253448Y0153147D01*
X0253483Y0153199D01*
X0253521Y0153248D01*
X0253563Y0153296D01*
X0253607Y0153340D01*
X0253655Y0153382D01*
X0253704Y0153420D01*
X0253756Y0153455D01*
X0253810Y0153487D01*
X0253866Y0153516D01*
X0253924Y0153541D01*
X0253983Y0153562D01*
X0254043Y0153580D01*
X0254105Y0153593D01*
X0254167Y0153603D01*
X0254229Y0153609D01*
X0254292Y0153611D01*
X0254355Y0153609D01*
X0254417Y0153603D01*
X0254479Y0153593D01*
X0254541Y0153580D01*
X0254601Y0153562D01*
X0254660Y0153541D01*
X0254718Y0153516D01*
X0254774Y0153487D01*
X0254828Y0153455D01*
X0254880Y0153420D01*
X0254929Y0153382D01*
X0254977Y0153340D01*
X0255021Y0153296D01*
X0255063Y0153248D01*
X0255101Y0153199D01*
X0255136Y0153147D01*
X0255168Y0153093D01*
X0255197Y0153037D01*
X0255222Y0152979D01*
X0255243Y0152920D01*
X0255261Y0152860D01*
X0255274Y0152798D01*
X0255284Y0152736D01*
X0255290Y0152674D01*
X0255292Y0152611D01*
X0255290Y0152548D01*
X0255284Y0152486D01*
X0255274Y0152424D01*
X0255261Y0152362D01*
X0255243Y0152302D01*
X0255222Y0152243D01*
X0255197Y0152185D01*
X0255168Y0152129D01*
X0255136Y0152075D01*
X0255101Y0152023D01*
X0255063Y0151974D01*
X0255021Y0151926D01*
X0254977Y0151882D01*
X0254929Y0151840D01*
X0254880Y0151802D01*
X0254828Y0151767D01*
X0254774Y0151735D01*
X0254718Y0151706D01*
X0254660Y0151681D01*
X0254601Y0151660D01*
X0254541Y0151642D01*
X0254479Y0151629D01*
X0254417Y0151619D01*
X0254355Y0151613D01*
X0254292Y0151611D01*
X0254229Y0151613D01*
X0254167Y0151619D01*
X0254105Y0151629D01*
X0254043Y0151642D01*
X0253983Y0151660D01*
X0253924Y0151681D01*
X0253866Y0151706D01*
X0253810Y0151735D01*
X0253756Y0151767D01*
X0253704Y0151802D01*
X0253655Y0151840D01*
X0253607Y0151882D01*
X0253563Y0151926D01*
X0253521Y0151974D01*
X0253483Y0152023D01*
X0253448Y0152075D01*
X0253416Y0152129D01*
X0253387Y0152185D01*
X0253362Y0152243D01*
X0253341Y0152302D01*
X0253323Y0152362D01*
X0253310Y0152424D01*
X0253300Y0152486D01*
X0253294Y0152548D01*
X0253292Y0152611D01*
X0238500Y0168780D02*
X0238917Y0169150D01*
X0239342Y0169511D01*
X0239776Y0169861D01*
X0240219Y0170200D01*
X0240669Y0170529D01*
X0241127Y0170846D01*
X0241593Y0171153D01*
X0242067Y0171448D01*
X0242547Y0171731D01*
X0243034Y0172003D01*
X0243527Y0172263D01*
X0244026Y0172511D01*
X0244532Y0172746D01*
X0245043Y0172970D01*
X0245559Y0173180D01*
X0246080Y0173379D01*
X0246606Y0173564D01*
X0247136Y0173737D01*
X0247670Y0173897D01*
X0248208Y0174044D01*
X0248749Y0174178D01*
X0249294Y0174298D01*
X0249841Y0174406D01*
X0250391Y0174500D01*
X0250942Y0174581D01*
X0251496Y0174648D01*
X0252051Y0174702D01*
X0252607Y0174743D01*
X0253164Y0174770D01*
X0253721Y0174783D01*
X0254279Y0174783D01*
X0254836Y0174770D01*
X0255393Y0174743D01*
X0255949Y0174702D01*
X0256504Y0174648D01*
X0257058Y0174581D01*
X0257609Y0174500D01*
X0258159Y0174406D01*
X0258706Y0174298D01*
X0259251Y0174178D01*
X0259792Y0174044D01*
X0260330Y0173897D01*
X0260864Y0173737D01*
X0261394Y0173564D01*
X0261920Y0173379D01*
X0262441Y0173180D01*
X0262957Y0172970D01*
X0263468Y0172746D01*
X0263974Y0172511D01*
X0264473Y0172263D01*
X0264966Y0172003D01*
X0265453Y0171731D01*
X0265933Y0171448D01*
X0266407Y0171153D01*
X0266873Y0170846D01*
X0267331Y0170529D01*
X0267781Y0170200D01*
X0268224Y0169861D01*
X0268658Y0169511D01*
X0269083Y0169150D01*
X0269500Y0168780D01*
D11*
X0292531Y0140780D02*
X0292533Y0140868D01*
X0292539Y0140956D01*
X0292549Y0141044D01*
X0292563Y0141132D01*
X0292580Y0141218D01*
X0292602Y0141304D01*
X0292627Y0141388D01*
X0292657Y0141472D01*
X0292689Y0141554D01*
X0292726Y0141634D01*
X0292766Y0141713D01*
X0292810Y0141790D01*
X0292857Y0141865D01*
X0292907Y0141937D01*
X0292961Y0142008D01*
X0293017Y0142075D01*
X0293077Y0142141D01*
X0293139Y0142203D01*
X0293205Y0142263D01*
X0293272Y0142319D01*
X0293343Y0142373D01*
X0293415Y0142423D01*
X0293490Y0142470D01*
X0293567Y0142514D01*
X0293646Y0142554D01*
X0293726Y0142591D01*
X0293808Y0142623D01*
X0293892Y0142653D01*
X0293976Y0142678D01*
X0294062Y0142700D01*
X0294148Y0142717D01*
X0294236Y0142731D01*
X0294324Y0142741D01*
X0294412Y0142747D01*
X0294500Y0142749D01*
X0294588Y0142747D01*
X0294676Y0142741D01*
X0294764Y0142731D01*
X0294852Y0142717D01*
X0294938Y0142700D01*
X0295024Y0142678D01*
X0295108Y0142653D01*
X0295192Y0142623D01*
X0295274Y0142591D01*
X0295354Y0142554D01*
X0295433Y0142514D01*
X0295510Y0142470D01*
X0295585Y0142423D01*
X0295657Y0142373D01*
X0295728Y0142319D01*
X0295795Y0142263D01*
X0295861Y0142203D01*
X0295923Y0142141D01*
X0295983Y0142075D01*
X0296039Y0142008D01*
X0296093Y0141937D01*
X0296143Y0141865D01*
X0296190Y0141790D01*
X0296234Y0141713D01*
X0296274Y0141634D01*
X0296311Y0141554D01*
X0296343Y0141472D01*
X0296373Y0141388D01*
X0296398Y0141304D01*
X0296420Y0141218D01*
X0296437Y0141132D01*
X0296451Y0141044D01*
X0296461Y0140956D01*
X0296467Y0140868D01*
X0296469Y0140780D01*
X0296467Y0140692D01*
X0296461Y0140604D01*
X0296451Y0140516D01*
X0296437Y0140428D01*
X0296420Y0140342D01*
X0296398Y0140256D01*
X0296373Y0140172D01*
X0296343Y0140088D01*
X0296311Y0140006D01*
X0296274Y0139926D01*
X0296234Y0139847D01*
X0296190Y0139770D01*
X0296143Y0139695D01*
X0296093Y0139623D01*
X0296039Y0139552D01*
X0295983Y0139485D01*
X0295923Y0139419D01*
X0295861Y0139357D01*
X0295795Y0139297D01*
X0295728Y0139241D01*
X0295657Y0139187D01*
X0295585Y0139137D01*
X0295510Y0139090D01*
X0295433Y0139046D01*
X0295354Y0139006D01*
X0295274Y0138969D01*
X0295192Y0138937D01*
X0295108Y0138907D01*
X0295024Y0138882D01*
X0294938Y0138860D01*
X0294852Y0138843D01*
X0294764Y0138829D01*
X0294676Y0138819D01*
X0294588Y0138813D01*
X0294500Y0138811D01*
X0294412Y0138813D01*
X0294324Y0138819D01*
X0294236Y0138829D01*
X0294148Y0138843D01*
X0294062Y0138860D01*
X0293976Y0138882D01*
X0293892Y0138907D01*
X0293808Y0138937D01*
X0293726Y0138969D01*
X0293646Y0139006D01*
X0293567Y0139046D01*
X0293490Y0139090D01*
X0293415Y0139137D01*
X0293343Y0139187D01*
X0293272Y0139241D01*
X0293205Y0139297D01*
X0293139Y0139357D01*
X0293077Y0139419D01*
X0293017Y0139485D01*
X0292961Y0139552D01*
X0292907Y0139623D01*
X0292857Y0139695D01*
X0292810Y0139770D01*
X0292766Y0139847D01*
X0292726Y0139926D01*
X0292689Y0140006D01*
X0292657Y0140088D01*
X0292627Y0140172D01*
X0292602Y0140256D01*
X0292580Y0140342D01*
X0292563Y0140428D01*
X0292549Y0140516D01*
X0292539Y0140604D01*
X0292533Y0140692D01*
X0292531Y0140780D01*
X0292531Y0018780D02*
X0292533Y0018868D01*
X0292539Y0018956D01*
X0292549Y0019044D01*
X0292563Y0019132D01*
X0292580Y0019218D01*
X0292602Y0019304D01*
X0292627Y0019388D01*
X0292657Y0019472D01*
X0292689Y0019554D01*
X0292726Y0019634D01*
X0292766Y0019713D01*
X0292810Y0019790D01*
X0292857Y0019865D01*
X0292907Y0019937D01*
X0292961Y0020008D01*
X0293017Y0020075D01*
X0293077Y0020141D01*
X0293139Y0020203D01*
X0293205Y0020263D01*
X0293272Y0020319D01*
X0293343Y0020373D01*
X0293415Y0020423D01*
X0293490Y0020470D01*
X0293567Y0020514D01*
X0293646Y0020554D01*
X0293726Y0020591D01*
X0293808Y0020623D01*
X0293892Y0020653D01*
X0293976Y0020678D01*
X0294062Y0020700D01*
X0294148Y0020717D01*
X0294236Y0020731D01*
X0294324Y0020741D01*
X0294412Y0020747D01*
X0294500Y0020749D01*
X0294588Y0020747D01*
X0294676Y0020741D01*
X0294764Y0020731D01*
X0294852Y0020717D01*
X0294938Y0020700D01*
X0295024Y0020678D01*
X0295108Y0020653D01*
X0295192Y0020623D01*
X0295274Y0020591D01*
X0295354Y0020554D01*
X0295433Y0020514D01*
X0295510Y0020470D01*
X0295585Y0020423D01*
X0295657Y0020373D01*
X0295728Y0020319D01*
X0295795Y0020263D01*
X0295861Y0020203D01*
X0295923Y0020141D01*
X0295983Y0020075D01*
X0296039Y0020008D01*
X0296093Y0019937D01*
X0296143Y0019865D01*
X0296190Y0019790D01*
X0296234Y0019713D01*
X0296274Y0019634D01*
X0296311Y0019554D01*
X0296343Y0019472D01*
X0296373Y0019388D01*
X0296398Y0019304D01*
X0296420Y0019218D01*
X0296437Y0019132D01*
X0296451Y0019044D01*
X0296461Y0018956D01*
X0296467Y0018868D01*
X0296469Y0018780D01*
X0296467Y0018692D01*
X0296461Y0018604D01*
X0296451Y0018516D01*
X0296437Y0018428D01*
X0296420Y0018342D01*
X0296398Y0018256D01*
X0296373Y0018172D01*
X0296343Y0018088D01*
X0296311Y0018006D01*
X0296274Y0017926D01*
X0296234Y0017847D01*
X0296190Y0017770D01*
X0296143Y0017695D01*
X0296093Y0017623D01*
X0296039Y0017552D01*
X0295983Y0017485D01*
X0295923Y0017419D01*
X0295861Y0017357D01*
X0295795Y0017297D01*
X0295728Y0017241D01*
X0295657Y0017187D01*
X0295585Y0017137D01*
X0295510Y0017090D01*
X0295433Y0017046D01*
X0295354Y0017006D01*
X0295274Y0016969D01*
X0295192Y0016937D01*
X0295108Y0016907D01*
X0295024Y0016882D01*
X0294938Y0016860D01*
X0294852Y0016843D01*
X0294764Y0016829D01*
X0294676Y0016819D01*
X0294588Y0016813D01*
X0294500Y0016811D01*
X0294412Y0016813D01*
X0294324Y0016819D01*
X0294236Y0016829D01*
X0294148Y0016843D01*
X0294062Y0016860D01*
X0293976Y0016882D01*
X0293892Y0016907D01*
X0293808Y0016937D01*
X0293726Y0016969D01*
X0293646Y0017006D01*
X0293567Y0017046D01*
X0293490Y0017090D01*
X0293415Y0017137D01*
X0293343Y0017187D01*
X0293272Y0017241D01*
X0293205Y0017297D01*
X0293139Y0017357D01*
X0293077Y0017419D01*
X0293017Y0017485D01*
X0292961Y0017552D01*
X0292907Y0017623D01*
X0292857Y0017695D01*
X0292810Y0017770D01*
X0292766Y0017847D01*
X0292726Y0017926D01*
X0292689Y0018006D01*
X0292657Y0018088D01*
X0292627Y0018172D01*
X0292602Y0018256D01*
X0292580Y0018342D01*
X0292563Y0018428D01*
X0292549Y0018516D01*
X0292539Y0018604D01*
X0292533Y0018692D01*
X0292531Y0018780D01*
X0017531Y0018780D02*
X0017533Y0018868D01*
X0017539Y0018956D01*
X0017549Y0019044D01*
X0017563Y0019132D01*
X0017580Y0019218D01*
X0017602Y0019304D01*
X0017627Y0019388D01*
X0017657Y0019472D01*
X0017689Y0019554D01*
X0017726Y0019634D01*
X0017766Y0019713D01*
X0017810Y0019790D01*
X0017857Y0019865D01*
X0017907Y0019937D01*
X0017961Y0020008D01*
X0018017Y0020075D01*
X0018077Y0020141D01*
X0018139Y0020203D01*
X0018205Y0020263D01*
X0018272Y0020319D01*
X0018343Y0020373D01*
X0018415Y0020423D01*
X0018490Y0020470D01*
X0018567Y0020514D01*
X0018646Y0020554D01*
X0018726Y0020591D01*
X0018808Y0020623D01*
X0018892Y0020653D01*
X0018976Y0020678D01*
X0019062Y0020700D01*
X0019148Y0020717D01*
X0019236Y0020731D01*
X0019324Y0020741D01*
X0019412Y0020747D01*
X0019500Y0020749D01*
X0019588Y0020747D01*
X0019676Y0020741D01*
X0019764Y0020731D01*
X0019852Y0020717D01*
X0019938Y0020700D01*
X0020024Y0020678D01*
X0020108Y0020653D01*
X0020192Y0020623D01*
X0020274Y0020591D01*
X0020354Y0020554D01*
X0020433Y0020514D01*
X0020510Y0020470D01*
X0020585Y0020423D01*
X0020657Y0020373D01*
X0020728Y0020319D01*
X0020795Y0020263D01*
X0020861Y0020203D01*
X0020923Y0020141D01*
X0020983Y0020075D01*
X0021039Y0020008D01*
X0021093Y0019937D01*
X0021143Y0019865D01*
X0021190Y0019790D01*
X0021234Y0019713D01*
X0021274Y0019634D01*
X0021311Y0019554D01*
X0021343Y0019472D01*
X0021373Y0019388D01*
X0021398Y0019304D01*
X0021420Y0019218D01*
X0021437Y0019132D01*
X0021451Y0019044D01*
X0021461Y0018956D01*
X0021467Y0018868D01*
X0021469Y0018780D01*
X0021467Y0018692D01*
X0021461Y0018604D01*
X0021451Y0018516D01*
X0021437Y0018428D01*
X0021420Y0018342D01*
X0021398Y0018256D01*
X0021373Y0018172D01*
X0021343Y0018088D01*
X0021311Y0018006D01*
X0021274Y0017926D01*
X0021234Y0017847D01*
X0021190Y0017770D01*
X0021143Y0017695D01*
X0021093Y0017623D01*
X0021039Y0017552D01*
X0020983Y0017485D01*
X0020923Y0017419D01*
X0020861Y0017357D01*
X0020795Y0017297D01*
X0020728Y0017241D01*
X0020657Y0017187D01*
X0020585Y0017137D01*
X0020510Y0017090D01*
X0020433Y0017046D01*
X0020354Y0017006D01*
X0020274Y0016969D01*
X0020192Y0016937D01*
X0020108Y0016907D01*
X0020024Y0016882D01*
X0019938Y0016860D01*
X0019852Y0016843D01*
X0019764Y0016829D01*
X0019676Y0016819D01*
X0019588Y0016813D01*
X0019500Y0016811D01*
X0019412Y0016813D01*
X0019324Y0016819D01*
X0019236Y0016829D01*
X0019148Y0016843D01*
X0019062Y0016860D01*
X0018976Y0016882D01*
X0018892Y0016907D01*
X0018808Y0016937D01*
X0018726Y0016969D01*
X0018646Y0017006D01*
X0018567Y0017046D01*
X0018490Y0017090D01*
X0018415Y0017137D01*
X0018343Y0017187D01*
X0018272Y0017241D01*
X0018205Y0017297D01*
X0018139Y0017357D01*
X0018077Y0017419D01*
X0018017Y0017485D01*
X0017961Y0017552D01*
X0017907Y0017623D01*
X0017857Y0017695D01*
X0017810Y0017770D01*
X0017766Y0017847D01*
X0017726Y0017926D01*
X0017689Y0018006D01*
X0017657Y0018088D01*
X0017627Y0018172D01*
X0017602Y0018256D01*
X0017580Y0018342D01*
X0017563Y0018428D01*
X0017549Y0018516D01*
X0017539Y0018604D01*
X0017533Y0018692D01*
X0017531Y0018780D01*
X0017531Y0140780D02*
X0017533Y0140868D01*
X0017539Y0140956D01*
X0017549Y0141044D01*
X0017563Y0141132D01*
X0017580Y0141218D01*
X0017602Y0141304D01*
X0017627Y0141388D01*
X0017657Y0141472D01*
X0017689Y0141554D01*
X0017726Y0141634D01*
X0017766Y0141713D01*
X0017810Y0141790D01*
X0017857Y0141865D01*
X0017907Y0141937D01*
X0017961Y0142008D01*
X0018017Y0142075D01*
X0018077Y0142141D01*
X0018139Y0142203D01*
X0018205Y0142263D01*
X0018272Y0142319D01*
X0018343Y0142373D01*
X0018415Y0142423D01*
X0018490Y0142470D01*
X0018567Y0142514D01*
X0018646Y0142554D01*
X0018726Y0142591D01*
X0018808Y0142623D01*
X0018892Y0142653D01*
X0018976Y0142678D01*
X0019062Y0142700D01*
X0019148Y0142717D01*
X0019236Y0142731D01*
X0019324Y0142741D01*
X0019412Y0142747D01*
X0019500Y0142749D01*
X0019588Y0142747D01*
X0019676Y0142741D01*
X0019764Y0142731D01*
X0019852Y0142717D01*
X0019938Y0142700D01*
X0020024Y0142678D01*
X0020108Y0142653D01*
X0020192Y0142623D01*
X0020274Y0142591D01*
X0020354Y0142554D01*
X0020433Y0142514D01*
X0020510Y0142470D01*
X0020585Y0142423D01*
X0020657Y0142373D01*
X0020728Y0142319D01*
X0020795Y0142263D01*
X0020861Y0142203D01*
X0020923Y0142141D01*
X0020983Y0142075D01*
X0021039Y0142008D01*
X0021093Y0141937D01*
X0021143Y0141865D01*
X0021190Y0141790D01*
X0021234Y0141713D01*
X0021274Y0141634D01*
X0021311Y0141554D01*
X0021343Y0141472D01*
X0021373Y0141388D01*
X0021398Y0141304D01*
X0021420Y0141218D01*
X0021437Y0141132D01*
X0021451Y0141044D01*
X0021461Y0140956D01*
X0021467Y0140868D01*
X0021469Y0140780D01*
X0021467Y0140692D01*
X0021461Y0140604D01*
X0021451Y0140516D01*
X0021437Y0140428D01*
X0021420Y0140342D01*
X0021398Y0140256D01*
X0021373Y0140172D01*
X0021343Y0140088D01*
X0021311Y0140006D01*
X0021274Y0139926D01*
X0021234Y0139847D01*
X0021190Y0139770D01*
X0021143Y0139695D01*
X0021093Y0139623D01*
X0021039Y0139552D01*
X0020983Y0139485D01*
X0020923Y0139419D01*
X0020861Y0139357D01*
X0020795Y0139297D01*
X0020728Y0139241D01*
X0020657Y0139187D01*
X0020585Y0139137D01*
X0020510Y0139090D01*
X0020433Y0139046D01*
X0020354Y0139006D01*
X0020274Y0138969D01*
X0020192Y0138937D01*
X0020108Y0138907D01*
X0020024Y0138882D01*
X0019938Y0138860D01*
X0019852Y0138843D01*
X0019764Y0138829D01*
X0019676Y0138819D01*
X0019588Y0138813D01*
X0019500Y0138811D01*
X0019412Y0138813D01*
X0019324Y0138819D01*
X0019236Y0138829D01*
X0019148Y0138843D01*
X0019062Y0138860D01*
X0018976Y0138882D01*
X0018892Y0138907D01*
X0018808Y0138937D01*
X0018726Y0138969D01*
X0018646Y0139006D01*
X0018567Y0139046D01*
X0018490Y0139090D01*
X0018415Y0139137D01*
X0018343Y0139187D01*
X0018272Y0139241D01*
X0018205Y0139297D01*
X0018139Y0139357D01*
X0018077Y0139419D01*
X0018017Y0139485D01*
X0017961Y0139552D01*
X0017907Y0139623D01*
X0017857Y0139695D01*
X0017810Y0139770D01*
X0017766Y0139847D01*
X0017726Y0139926D01*
X0017689Y0140006D01*
X0017657Y0140088D01*
X0017627Y0140172D01*
X0017602Y0140256D01*
X0017580Y0140342D01*
X0017563Y0140428D01*
X0017549Y0140516D01*
X0017539Y0140604D01*
X0017533Y0140692D01*
X0017531Y0140780D01*
D12*
X0044205Y0063528D02*
X0044205Y0052032D01*
X0044795Y0052032D01*
X0044795Y0063528D01*
X0044205Y0063528D01*
X0042827Y0051874D02*
X0037906Y0051874D01*
D13*
X0039431Y0049080D02*
X0041986Y0049080D01*
X0041986Y0047035D01*
X0040453Y0047035D01*
X0040391Y0047033D01*
X0040330Y0047028D01*
X0040269Y0047018D01*
X0040208Y0047005D01*
X0040149Y0046989D01*
X0040091Y0046969D01*
X0040034Y0046945D01*
X0039978Y0046918D01*
X0039924Y0046888D01*
X0039872Y0046854D01*
X0039823Y0046818D01*
X0039775Y0046778D01*
X0039730Y0046736D01*
X0039688Y0046691D01*
X0039648Y0046643D01*
X0039612Y0046594D01*
X0039578Y0046542D01*
X0039548Y0046488D01*
X0039521Y0046432D01*
X0039497Y0046375D01*
X0039477Y0046317D01*
X0039461Y0046258D01*
X0039448Y0046197D01*
X0039438Y0046136D01*
X0039433Y0046075D01*
X0039431Y0046013D01*
X0039431Y0045502D01*
X0039433Y0045440D01*
X0039438Y0045379D01*
X0039448Y0045318D01*
X0039461Y0045257D01*
X0039477Y0045198D01*
X0039497Y0045140D01*
X0039521Y0045083D01*
X0039548Y0045027D01*
X0039578Y0044973D01*
X0039612Y0044921D01*
X0039648Y0044872D01*
X0039688Y0044824D01*
X0039730Y0044779D01*
X0039775Y0044737D01*
X0039823Y0044697D01*
X0039872Y0044661D01*
X0039924Y0044627D01*
X0039978Y0044597D01*
X0040034Y0044570D01*
X0040091Y0044546D01*
X0040149Y0044526D01*
X0040208Y0044510D01*
X0040269Y0044497D01*
X0040330Y0044487D01*
X0040391Y0044482D01*
X0040453Y0044480D01*
X0041986Y0044480D01*
X0043705Y0044480D02*
X0044727Y0044480D01*
X0044789Y0044482D01*
X0044850Y0044487D01*
X0044911Y0044497D01*
X0044972Y0044510D01*
X0045031Y0044526D01*
X0045089Y0044546D01*
X0045146Y0044570D01*
X0045202Y0044597D01*
X0045256Y0044627D01*
X0045308Y0044661D01*
X0045357Y0044697D01*
X0045405Y0044737D01*
X0045450Y0044779D01*
X0045492Y0044824D01*
X0045532Y0044872D01*
X0045568Y0044921D01*
X0045602Y0044973D01*
X0045632Y0045027D01*
X0045659Y0045083D01*
X0045683Y0045140D01*
X0045703Y0045198D01*
X0045719Y0045257D01*
X0045732Y0045318D01*
X0045742Y0045379D01*
X0045747Y0045440D01*
X0045749Y0045502D01*
X0045749Y0048058D01*
X0045747Y0048120D01*
X0045742Y0048181D01*
X0045732Y0048242D01*
X0045719Y0048303D01*
X0045703Y0048362D01*
X0045683Y0048420D01*
X0045659Y0048477D01*
X0045632Y0048533D01*
X0045602Y0048587D01*
X0045568Y0048639D01*
X0045532Y0048688D01*
X0045492Y0048736D01*
X0045450Y0048781D01*
X0045405Y0048823D01*
X0045357Y0048863D01*
X0045308Y0048899D01*
X0045256Y0048933D01*
X0045202Y0048963D01*
X0045146Y0048990D01*
X0045089Y0049014D01*
X0045031Y0049034D01*
X0044972Y0049050D01*
X0044911Y0049063D01*
X0044850Y0049073D01*
X0044789Y0049078D01*
X0044727Y0049080D01*
X0043705Y0049080D01*
X0047547Y0049080D02*
X0048569Y0049080D01*
X0048058Y0049080D02*
X0048058Y0044480D01*
X0048569Y0044480D02*
X0047547Y0044480D01*
X0019166Y0034589D02*
X0019166Y0033311D01*
X0014566Y0033311D01*
X0014566Y0034589D01*
X0014568Y0034658D01*
X0014573Y0034727D01*
X0014583Y0034796D01*
X0014596Y0034864D01*
X0014613Y0034931D01*
X0014633Y0034997D01*
X0014657Y0035062D01*
X0014684Y0035126D01*
X0014715Y0035188D01*
X0014749Y0035248D01*
X0014786Y0035306D01*
X0014827Y0035362D01*
X0014870Y0035416D01*
X0014916Y0035468D01*
X0014965Y0035517D01*
X0015017Y0035563D01*
X0015071Y0035606D01*
X0015127Y0035647D01*
X0015185Y0035684D01*
X0015245Y0035718D01*
X0015307Y0035749D01*
X0015371Y0035776D01*
X0015436Y0035800D01*
X0015502Y0035820D01*
X0015569Y0035837D01*
X0015637Y0035850D01*
X0015706Y0035860D01*
X0015775Y0035865D01*
X0015844Y0035867D01*
X0017888Y0035867D01*
X0017957Y0035865D01*
X0018026Y0035860D01*
X0018095Y0035850D01*
X0018163Y0035837D01*
X0018230Y0035820D01*
X0018296Y0035800D01*
X0018361Y0035776D01*
X0018425Y0035749D01*
X0018487Y0035718D01*
X0018547Y0035684D01*
X0018605Y0035647D01*
X0018661Y0035606D01*
X0018715Y0035563D01*
X0018767Y0035517D01*
X0018816Y0035468D01*
X0018862Y0035416D01*
X0018905Y0035362D01*
X0018946Y0035306D01*
X0018983Y0035248D01*
X0019017Y0035188D01*
X0019048Y0035126D01*
X0019075Y0035062D01*
X0019099Y0034997D01*
X0019119Y0034931D01*
X0019136Y0034864D01*
X0019149Y0034796D01*
X0019159Y0034727D01*
X0019164Y0034658D01*
X0019166Y0034589D01*
X0019166Y0031067D02*
X0014566Y0031067D01*
X0019166Y0028511D01*
X0014566Y0028511D01*
X0014566Y0026267D02*
X0014566Y0024734D01*
X0014568Y0024672D01*
X0014573Y0024611D01*
X0014583Y0024550D01*
X0014596Y0024489D01*
X0014612Y0024430D01*
X0014632Y0024372D01*
X0014656Y0024315D01*
X0014683Y0024259D01*
X0014713Y0024205D01*
X0014747Y0024153D01*
X0014783Y0024104D01*
X0014823Y0024056D01*
X0014865Y0024011D01*
X0014910Y0023969D01*
X0014958Y0023929D01*
X0015007Y0023893D01*
X0015059Y0023859D01*
X0015113Y0023829D01*
X0015169Y0023802D01*
X0015226Y0023778D01*
X0015284Y0023758D01*
X0015343Y0023742D01*
X0015404Y0023729D01*
X0015465Y0023719D01*
X0015526Y0023714D01*
X0015588Y0023712D01*
X0015588Y0023711D02*
X0018144Y0023711D01*
X0018144Y0023712D02*
X0018206Y0023714D01*
X0018267Y0023719D01*
X0018328Y0023729D01*
X0018389Y0023742D01*
X0018448Y0023758D01*
X0018506Y0023778D01*
X0018563Y0023802D01*
X0018619Y0023829D01*
X0018673Y0023859D01*
X0018725Y0023893D01*
X0018774Y0023929D01*
X0018822Y0023969D01*
X0018867Y0024011D01*
X0018909Y0024056D01*
X0018948Y0024104D01*
X0018985Y0024153D01*
X0019019Y0024205D01*
X0019049Y0024259D01*
X0019076Y0024315D01*
X0019100Y0024372D01*
X0019120Y0024430D01*
X0019136Y0024489D01*
X0019149Y0024550D01*
X0019159Y0024611D01*
X0019164Y0024672D01*
X0019166Y0024734D01*
X0019166Y0026267D01*
X0017122Y0026267D02*
X0017122Y0025500D01*
X0017122Y0026267D02*
X0014566Y0026267D01*
X0015844Y0037961D02*
X0017122Y0037961D01*
X0017122Y0039495D01*
X0017122Y0037962D02*
X0017211Y0037964D01*
X0017300Y0037970D01*
X0017389Y0037979D01*
X0017477Y0037993D01*
X0017564Y0038010D01*
X0017651Y0038032D01*
X0017737Y0038057D01*
X0017821Y0038085D01*
X0017904Y0038118D01*
X0017986Y0038154D01*
X0018066Y0038193D01*
X0018144Y0038236D01*
X0018220Y0038282D01*
X0018294Y0038332D01*
X0018366Y0038384D01*
X0018436Y0038440D01*
X0018503Y0038499D01*
X0018567Y0038561D01*
X0018629Y0038625D01*
X0018688Y0038692D01*
X0018744Y0038762D01*
X0018796Y0038834D01*
X0018846Y0038908D01*
X0018892Y0038984D01*
X0018935Y0039062D01*
X0018974Y0039142D01*
X0019010Y0039224D01*
X0019043Y0039307D01*
X0019071Y0039391D01*
X0019096Y0039477D01*
X0019118Y0039564D01*
X0019135Y0039651D01*
X0019149Y0039739D01*
X0019158Y0039828D01*
X0019164Y0039917D01*
X0019166Y0040006D01*
X0016099Y0040517D02*
X0015844Y0040517D01*
X0016099Y0040517D02*
X0016161Y0040515D01*
X0016222Y0040510D01*
X0016283Y0040500D01*
X0016344Y0040487D01*
X0016403Y0040471D01*
X0016461Y0040451D01*
X0016518Y0040427D01*
X0016574Y0040400D01*
X0016628Y0040370D01*
X0016680Y0040336D01*
X0016729Y0040300D01*
X0016777Y0040260D01*
X0016822Y0040218D01*
X0016864Y0040173D01*
X0016904Y0040125D01*
X0016940Y0040076D01*
X0016974Y0040024D01*
X0017004Y0039970D01*
X0017031Y0039914D01*
X0017055Y0039857D01*
X0017075Y0039799D01*
X0017091Y0039740D01*
X0017104Y0039679D01*
X0017114Y0039618D01*
X0017119Y0039557D01*
X0017121Y0039495D01*
X0015844Y0040517D02*
X0015774Y0040515D01*
X0015703Y0040509D01*
X0015634Y0040500D01*
X0015565Y0040486D01*
X0015496Y0040469D01*
X0015429Y0040448D01*
X0015363Y0040423D01*
X0015299Y0040395D01*
X0015236Y0040363D01*
X0015175Y0040328D01*
X0015116Y0040289D01*
X0015059Y0040248D01*
X0015005Y0040203D01*
X0014953Y0040155D01*
X0014904Y0040105D01*
X0014857Y0040051D01*
X0014814Y0039996D01*
X0014774Y0039938D01*
X0014737Y0039878D01*
X0014704Y0039816D01*
X0014674Y0039752D01*
X0014647Y0039687D01*
X0014624Y0039621D01*
X0014605Y0039553D01*
X0014590Y0039484D01*
X0014578Y0039415D01*
X0014570Y0039345D01*
X0014566Y0039274D01*
X0014566Y0039204D01*
X0014570Y0039133D01*
X0014578Y0039063D01*
X0014590Y0038994D01*
X0014605Y0038925D01*
X0014624Y0038857D01*
X0014647Y0038791D01*
X0014674Y0038726D01*
X0014704Y0038662D01*
X0014737Y0038600D01*
X0014774Y0038540D01*
X0014814Y0038482D01*
X0014857Y0038427D01*
X0014904Y0038373D01*
X0014953Y0038323D01*
X0015005Y0038275D01*
X0015059Y0038230D01*
X0015116Y0038189D01*
X0015175Y0038150D01*
X0015236Y0038115D01*
X0015299Y0038083D01*
X0015363Y0038055D01*
X0015429Y0038030D01*
X0015496Y0038009D01*
X0015565Y0037992D01*
X0015634Y0037978D01*
X0015703Y0037969D01*
X0015774Y0037963D01*
X0015844Y0037961D01*
X0041831Y0138114D02*
X0044387Y0138114D01*
X0043109Y0138114D02*
X0043109Y0142714D01*
X0044387Y0141692D01*
X0046137Y0137603D02*
X0048181Y0137603D01*
X0050081Y0139392D02*
X0050081Y0141436D01*
X0050083Y0141505D01*
X0050088Y0141574D01*
X0050098Y0141643D01*
X0050111Y0141711D01*
X0050128Y0141778D01*
X0050148Y0141844D01*
X0050172Y0141909D01*
X0050199Y0141973D01*
X0050230Y0142035D01*
X0050264Y0142095D01*
X0050301Y0142153D01*
X0050342Y0142209D01*
X0050385Y0142263D01*
X0050431Y0142315D01*
X0050480Y0142364D01*
X0050532Y0142410D01*
X0050586Y0142453D01*
X0050642Y0142494D01*
X0050700Y0142531D01*
X0050760Y0142565D01*
X0050822Y0142596D01*
X0050886Y0142623D01*
X0050951Y0142647D01*
X0051017Y0142667D01*
X0051084Y0142684D01*
X0051152Y0142697D01*
X0051221Y0142707D01*
X0051290Y0142712D01*
X0051359Y0142714D01*
X0052637Y0142714D01*
X0052637Y0138114D01*
X0051359Y0138114D01*
X0051290Y0138116D01*
X0051221Y0138121D01*
X0051152Y0138131D01*
X0051084Y0138144D01*
X0051017Y0138161D01*
X0050951Y0138181D01*
X0050886Y0138205D01*
X0050822Y0138232D01*
X0050760Y0138263D01*
X0050700Y0138297D01*
X0050642Y0138334D01*
X0050586Y0138375D01*
X0050532Y0138418D01*
X0050480Y0138464D01*
X0050431Y0138513D01*
X0050385Y0138565D01*
X0050342Y0138619D01*
X0050301Y0138675D01*
X0050264Y0138733D01*
X0050230Y0138793D01*
X0050199Y0138855D01*
X0050172Y0138919D01*
X0050148Y0138984D01*
X0050128Y0139050D01*
X0050111Y0139117D01*
X0050098Y0139185D01*
X0050088Y0139254D01*
X0050083Y0139323D01*
X0050081Y0139392D01*
X0054881Y0138114D02*
X0054881Y0142714D01*
X0057437Y0142714D02*
X0054881Y0138114D01*
X0057437Y0138114D02*
X0057437Y0142714D01*
X0059681Y0142714D02*
X0061215Y0142714D01*
X0061277Y0142712D01*
X0061338Y0142707D01*
X0061399Y0142697D01*
X0061460Y0142684D01*
X0061519Y0142668D01*
X0061577Y0142648D01*
X0061634Y0142624D01*
X0061690Y0142597D01*
X0061744Y0142567D01*
X0061796Y0142533D01*
X0061845Y0142497D01*
X0061893Y0142457D01*
X0061938Y0142415D01*
X0061980Y0142370D01*
X0062020Y0142322D01*
X0062056Y0142273D01*
X0062090Y0142221D01*
X0062120Y0142167D01*
X0062147Y0142111D01*
X0062171Y0142054D01*
X0062191Y0141996D01*
X0062207Y0141937D01*
X0062220Y0141876D01*
X0062230Y0141815D01*
X0062235Y0141754D01*
X0062237Y0141692D01*
X0062237Y0139136D01*
X0062235Y0139074D01*
X0062230Y0139013D01*
X0062220Y0138952D01*
X0062207Y0138891D01*
X0062191Y0138832D01*
X0062171Y0138774D01*
X0062147Y0138717D01*
X0062120Y0138661D01*
X0062090Y0138607D01*
X0062056Y0138555D01*
X0062020Y0138506D01*
X0061980Y0138458D01*
X0061938Y0138413D01*
X0061893Y0138371D01*
X0061845Y0138331D01*
X0061796Y0138295D01*
X0061744Y0138261D01*
X0061690Y0138231D01*
X0061634Y0138204D01*
X0061577Y0138180D01*
X0061519Y0138160D01*
X0061460Y0138144D01*
X0061399Y0138131D01*
X0061338Y0138121D01*
X0061277Y0138116D01*
X0061215Y0138114D01*
X0059681Y0138114D01*
X0059681Y0140669D01*
X0060448Y0140669D01*
D14*
X0078500Y0123180D02*
X0078500Y0116380D01*
X0078502Y0116320D01*
X0078507Y0116259D01*
X0078516Y0116200D01*
X0078529Y0116141D01*
X0078545Y0116082D01*
X0078565Y0116025D01*
X0078588Y0115970D01*
X0078615Y0115915D01*
X0078644Y0115863D01*
X0078677Y0115812D01*
X0078713Y0115763D01*
X0078751Y0115717D01*
X0078793Y0115673D01*
X0078837Y0115631D01*
X0078883Y0115593D01*
X0078932Y0115557D01*
X0078983Y0115524D01*
X0079035Y0115495D01*
X0079090Y0115468D01*
X0079145Y0115445D01*
X0079202Y0115425D01*
X0079261Y0115409D01*
X0079320Y0115396D01*
X0079379Y0115387D01*
X0079440Y0115382D01*
X0079500Y0115380D01*
X0085500Y0115380D01*
X0085560Y0115382D01*
X0085621Y0115387D01*
X0085680Y0115396D01*
X0085739Y0115409D01*
X0085798Y0115425D01*
X0085855Y0115445D01*
X0085910Y0115468D01*
X0085965Y0115495D01*
X0086017Y0115524D01*
X0086068Y0115557D01*
X0086117Y0115593D01*
X0086163Y0115631D01*
X0086207Y0115673D01*
X0086249Y0115717D01*
X0086287Y0115763D01*
X0086323Y0115812D01*
X0086356Y0115863D01*
X0086385Y0115915D01*
X0086412Y0115970D01*
X0086435Y0116025D01*
X0086455Y0116082D01*
X0086471Y0116141D01*
X0086484Y0116200D01*
X0086493Y0116259D01*
X0086498Y0116320D01*
X0086500Y0116380D01*
X0086500Y0123180D01*
X0086498Y0123240D01*
X0086493Y0123301D01*
X0086484Y0123360D01*
X0086471Y0123419D01*
X0086455Y0123478D01*
X0086435Y0123535D01*
X0086412Y0123590D01*
X0086385Y0123645D01*
X0086356Y0123697D01*
X0086323Y0123748D01*
X0086287Y0123797D01*
X0086249Y0123843D01*
X0086207Y0123887D01*
X0086163Y0123929D01*
X0086117Y0123967D01*
X0086068Y0124003D01*
X0086017Y0124036D01*
X0085965Y0124065D01*
X0085910Y0124092D01*
X0085855Y0124115D01*
X0085798Y0124135D01*
X0085739Y0124151D01*
X0085680Y0124164D01*
X0085621Y0124173D01*
X0085560Y0124178D01*
X0085500Y0124180D01*
X0079500Y0124180D01*
X0079440Y0124178D01*
X0079379Y0124173D01*
X0079320Y0124164D01*
X0079261Y0124151D01*
X0079202Y0124135D01*
X0079145Y0124115D01*
X0079090Y0124092D01*
X0079035Y0124065D01*
X0078983Y0124036D01*
X0078932Y0124003D01*
X0078883Y0123967D01*
X0078837Y0123929D01*
X0078793Y0123887D01*
X0078751Y0123843D01*
X0078713Y0123797D01*
X0078677Y0123748D01*
X0078644Y0123697D01*
X0078615Y0123645D01*
X0078588Y0123590D01*
X0078565Y0123535D01*
X0078545Y0123478D01*
X0078529Y0123419D01*
X0078516Y0123360D01*
X0078507Y0123301D01*
X0078502Y0123240D01*
X0078500Y0123180D01*
X0088500Y0123180D02*
X0088500Y0116380D01*
X0088502Y0116320D01*
X0088507Y0116259D01*
X0088516Y0116200D01*
X0088529Y0116141D01*
X0088545Y0116082D01*
X0088565Y0116025D01*
X0088588Y0115970D01*
X0088615Y0115915D01*
X0088644Y0115863D01*
X0088677Y0115812D01*
X0088713Y0115763D01*
X0088751Y0115717D01*
X0088793Y0115673D01*
X0088837Y0115631D01*
X0088883Y0115593D01*
X0088932Y0115557D01*
X0088983Y0115524D01*
X0089035Y0115495D01*
X0089090Y0115468D01*
X0089145Y0115445D01*
X0089202Y0115425D01*
X0089261Y0115409D01*
X0089320Y0115396D01*
X0089379Y0115387D01*
X0089440Y0115382D01*
X0089500Y0115380D01*
X0095500Y0115380D01*
X0095560Y0115382D01*
X0095621Y0115387D01*
X0095680Y0115396D01*
X0095739Y0115409D01*
X0095798Y0115425D01*
X0095855Y0115445D01*
X0095910Y0115468D01*
X0095965Y0115495D01*
X0096017Y0115524D01*
X0096068Y0115557D01*
X0096117Y0115593D01*
X0096163Y0115631D01*
X0096207Y0115673D01*
X0096249Y0115717D01*
X0096287Y0115763D01*
X0096323Y0115812D01*
X0096356Y0115863D01*
X0096385Y0115915D01*
X0096412Y0115970D01*
X0096435Y0116025D01*
X0096455Y0116082D01*
X0096471Y0116141D01*
X0096484Y0116200D01*
X0096493Y0116259D01*
X0096498Y0116320D01*
X0096500Y0116380D01*
X0096500Y0123180D01*
X0096498Y0123240D01*
X0096493Y0123301D01*
X0096484Y0123360D01*
X0096471Y0123419D01*
X0096455Y0123478D01*
X0096435Y0123535D01*
X0096412Y0123590D01*
X0096385Y0123645D01*
X0096356Y0123697D01*
X0096323Y0123748D01*
X0096287Y0123797D01*
X0096249Y0123843D01*
X0096207Y0123887D01*
X0096163Y0123929D01*
X0096117Y0123967D01*
X0096068Y0124003D01*
X0096017Y0124036D01*
X0095965Y0124065D01*
X0095910Y0124092D01*
X0095855Y0124115D01*
X0095798Y0124135D01*
X0095739Y0124151D01*
X0095680Y0124164D01*
X0095621Y0124173D01*
X0095560Y0124178D01*
X0095500Y0124180D01*
X0089500Y0124180D01*
X0089440Y0124178D01*
X0089379Y0124173D01*
X0089320Y0124164D01*
X0089261Y0124151D01*
X0089202Y0124135D01*
X0089145Y0124115D01*
X0089090Y0124092D01*
X0089035Y0124065D01*
X0088983Y0124036D01*
X0088932Y0124003D01*
X0088883Y0123967D01*
X0088837Y0123929D01*
X0088793Y0123887D01*
X0088751Y0123843D01*
X0088713Y0123797D01*
X0088677Y0123748D01*
X0088644Y0123697D01*
X0088615Y0123645D01*
X0088588Y0123590D01*
X0088565Y0123535D01*
X0088545Y0123478D01*
X0088529Y0123419D01*
X0088516Y0123360D01*
X0088507Y0123301D01*
X0088502Y0123240D01*
X0088500Y0123180D01*
X0098100Y0110780D02*
X0104900Y0110780D01*
X0104960Y0110778D01*
X0105021Y0110773D01*
X0105080Y0110764D01*
X0105139Y0110751D01*
X0105198Y0110735D01*
X0105255Y0110715D01*
X0105310Y0110692D01*
X0105365Y0110665D01*
X0105417Y0110636D01*
X0105468Y0110603D01*
X0105517Y0110567D01*
X0105563Y0110529D01*
X0105607Y0110487D01*
X0105649Y0110443D01*
X0105687Y0110397D01*
X0105723Y0110348D01*
X0105756Y0110297D01*
X0105785Y0110245D01*
X0105812Y0110190D01*
X0105835Y0110135D01*
X0105855Y0110078D01*
X0105871Y0110019D01*
X0105884Y0109960D01*
X0105893Y0109901D01*
X0105898Y0109840D01*
X0105900Y0109780D01*
X0105900Y0103780D01*
X0105898Y0103720D01*
X0105893Y0103659D01*
X0105884Y0103600D01*
X0105871Y0103541D01*
X0105855Y0103482D01*
X0105835Y0103425D01*
X0105812Y0103370D01*
X0105785Y0103315D01*
X0105756Y0103263D01*
X0105723Y0103212D01*
X0105687Y0103163D01*
X0105649Y0103117D01*
X0105607Y0103073D01*
X0105563Y0103031D01*
X0105517Y0102993D01*
X0105468Y0102957D01*
X0105417Y0102924D01*
X0105365Y0102895D01*
X0105310Y0102868D01*
X0105255Y0102845D01*
X0105198Y0102825D01*
X0105139Y0102809D01*
X0105080Y0102796D01*
X0105021Y0102787D01*
X0104960Y0102782D01*
X0104900Y0102780D01*
X0098100Y0102780D01*
X0098040Y0102782D01*
X0097979Y0102787D01*
X0097920Y0102796D01*
X0097861Y0102809D01*
X0097802Y0102825D01*
X0097745Y0102845D01*
X0097690Y0102868D01*
X0097635Y0102895D01*
X0097583Y0102924D01*
X0097532Y0102957D01*
X0097483Y0102993D01*
X0097437Y0103031D01*
X0097393Y0103073D01*
X0097351Y0103117D01*
X0097313Y0103163D01*
X0097277Y0103212D01*
X0097244Y0103263D01*
X0097215Y0103315D01*
X0097188Y0103370D01*
X0097165Y0103425D01*
X0097145Y0103482D01*
X0097129Y0103541D01*
X0097116Y0103600D01*
X0097107Y0103659D01*
X0097102Y0103720D01*
X0097100Y0103780D01*
X0097100Y0109780D01*
X0097102Y0109840D01*
X0097107Y0109901D01*
X0097116Y0109960D01*
X0097129Y0110019D01*
X0097145Y0110078D01*
X0097165Y0110135D01*
X0097188Y0110190D01*
X0097215Y0110245D01*
X0097244Y0110297D01*
X0097277Y0110348D01*
X0097313Y0110397D01*
X0097351Y0110443D01*
X0097393Y0110487D01*
X0097437Y0110529D01*
X0097483Y0110567D01*
X0097532Y0110603D01*
X0097583Y0110636D01*
X0097635Y0110665D01*
X0097690Y0110692D01*
X0097745Y0110715D01*
X0097802Y0110735D01*
X0097861Y0110751D01*
X0097920Y0110764D01*
X0097979Y0110773D01*
X0098040Y0110778D01*
X0098100Y0110780D01*
X0094701Y0101036D02*
X0094701Y0095524D01*
X0107299Y0095524D01*
X0107299Y0101036D01*
X0094701Y0101036D01*
X0090900Y0079780D02*
X0084100Y0079780D01*
X0084040Y0079778D01*
X0083979Y0079773D01*
X0083920Y0079764D01*
X0083861Y0079751D01*
X0083802Y0079735D01*
X0083745Y0079715D01*
X0083690Y0079692D01*
X0083635Y0079665D01*
X0083583Y0079636D01*
X0083532Y0079603D01*
X0083483Y0079567D01*
X0083437Y0079529D01*
X0083393Y0079487D01*
X0083351Y0079443D01*
X0083313Y0079397D01*
X0083277Y0079348D01*
X0083244Y0079297D01*
X0083215Y0079245D01*
X0083188Y0079190D01*
X0083165Y0079135D01*
X0083145Y0079078D01*
X0083129Y0079019D01*
X0083116Y0078960D01*
X0083107Y0078901D01*
X0083102Y0078840D01*
X0083100Y0078780D01*
X0083100Y0072780D01*
X0083102Y0072720D01*
X0083107Y0072659D01*
X0083116Y0072600D01*
X0083129Y0072541D01*
X0083145Y0072482D01*
X0083165Y0072425D01*
X0083188Y0072370D01*
X0083215Y0072315D01*
X0083244Y0072263D01*
X0083277Y0072212D01*
X0083313Y0072163D01*
X0083351Y0072117D01*
X0083393Y0072073D01*
X0083437Y0072031D01*
X0083483Y0071993D01*
X0083532Y0071957D01*
X0083583Y0071924D01*
X0083635Y0071895D01*
X0083690Y0071868D01*
X0083745Y0071845D01*
X0083802Y0071825D01*
X0083861Y0071809D01*
X0083920Y0071796D01*
X0083979Y0071787D01*
X0084040Y0071782D01*
X0084100Y0071780D01*
X0090900Y0071780D01*
X0090960Y0071782D01*
X0091021Y0071787D01*
X0091080Y0071796D01*
X0091139Y0071809D01*
X0091198Y0071825D01*
X0091255Y0071845D01*
X0091310Y0071868D01*
X0091365Y0071895D01*
X0091417Y0071924D01*
X0091468Y0071957D01*
X0091517Y0071993D01*
X0091563Y0072031D01*
X0091607Y0072073D01*
X0091649Y0072117D01*
X0091687Y0072163D01*
X0091723Y0072212D01*
X0091756Y0072263D01*
X0091785Y0072315D01*
X0091812Y0072370D01*
X0091835Y0072425D01*
X0091855Y0072482D01*
X0091871Y0072541D01*
X0091884Y0072600D01*
X0091893Y0072659D01*
X0091898Y0072720D01*
X0091900Y0072780D01*
X0091900Y0078780D01*
X0091898Y0078840D01*
X0091893Y0078901D01*
X0091884Y0078960D01*
X0091871Y0079019D01*
X0091855Y0079078D01*
X0091835Y0079135D01*
X0091812Y0079190D01*
X0091785Y0079245D01*
X0091756Y0079297D01*
X0091723Y0079348D01*
X0091687Y0079397D01*
X0091649Y0079443D01*
X0091607Y0079487D01*
X0091563Y0079529D01*
X0091517Y0079567D01*
X0091468Y0079603D01*
X0091417Y0079636D01*
X0091365Y0079665D01*
X0091310Y0079692D01*
X0091255Y0079715D01*
X0091198Y0079735D01*
X0091139Y0079751D01*
X0091080Y0079764D01*
X0091021Y0079773D01*
X0090960Y0079778D01*
X0090900Y0079780D01*
X0090900Y0069780D02*
X0084100Y0069780D01*
X0084040Y0069778D01*
X0083979Y0069773D01*
X0083920Y0069764D01*
X0083861Y0069751D01*
X0083802Y0069735D01*
X0083745Y0069715D01*
X0083690Y0069692D01*
X0083635Y0069665D01*
X0083583Y0069636D01*
X0083532Y0069603D01*
X0083483Y0069567D01*
X0083437Y0069529D01*
X0083393Y0069487D01*
X0083351Y0069443D01*
X0083313Y0069397D01*
X0083277Y0069348D01*
X0083244Y0069297D01*
X0083215Y0069245D01*
X0083188Y0069190D01*
X0083165Y0069135D01*
X0083145Y0069078D01*
X0083129Y0069019D01*
X0083116Y0068960D01*
X0083107Y0068901D01*
X0083102Y0068840D01*
X0083100Y0068780D01*
X0083100Y0062780D01*
X0083102Y0062720D01*
X0083107Y0062659D01*
X0083116Y0062600D01*
X0083129Y0062541D01*
X0083145Y0062482D01*
X0083165Y0062425D01*
X0083188Y0062370D01*
X0083215Y0062315D01*
X0083244Y0062263D01*
X0083277Y0062212D01*
X0083313Y0062163D01*
X0083351Y0062117D01*
X0083393Y0062073D01*
X0083437Y0062031D01*
X0083483Y0061993D01*
X0083532Y0061957D01*
X0083583Y0061924D01*
X0083635Y0061895D01*
X0083690Y0061868D01*
X0083745Y0061845D01*
X0083802Y0061825D01*
X0083861Y0061809D01*
X0083920Y0061796D01*
X0083979Y0061787D01*
X0084040Y0061782D01*
X0084100Y0061780D01*
X0090900Y0061780D01*
X0090960Y0061782D01*
X0091021Y0061787D01*
X0091080Y0061796D01*
X0091139Y0061809D01*
X0091198Y0061825D01*
X0091255Y0061845D01*
X0091310Y0061868D01*
X0091365Y0061895D01*
X0091417Y0061924D01*
X0091468Y0061957D01*
X0091517Y0061993D01*
X0091563Y0062031D01*
X0091607Y0062073D01*
X0091649Y0062117D01*
X0091687Y0062163D01*
X0091723Y0062212D01*
X0091756Y0062263D01*
X0091785Y0062315D01*
X0091812Y0062370D01*
X0091835Y0062425D01*
X0091855Y0062482D01*
X0091871Y0062541D01*
X0091884Y0062600D01*
X0091893Y0062659D01*
X0091898Y0062720D01*
X0091900Y0062780D01*
X0091900Y0068780D01*
X0091898Y0068840D01*
X0091893Y0068901D01*
X0091884Y0068960D01*
X0091871Y0069019D01*
X0091855Y0069078D01*
X0091835Y0069135D01*
X0091812Y0069190D01*
X0091785Y0069245D01*
X0091756Y0069297D01*
X0091723Y0069348D01*
X0091687Y0069397D01*
X0091649Y0069443D01*
X0091607Y0069487D01*
X0091563Y0069529D01*
X0091517Y0069567D01*
X0091468Y0069603D01*
X0091417Y0069636D01*
X0091365Y0069665D01*
X0091310Y0069692D01*
X0091255Y0069715D01*
X0091198Y0069735D01*
X0091139Y0069751D01*
X0091080Y0069764D01*
X0091021Y0069773D01*
X0090960Y0069778D01*
X0090900Y0069780D01*
X0067256Y0064079D02*
X0061744Y0064079D01*
X0061744Y0051481D01*
X0067256Y0051481D01*
X0067256Y0064079D01*
X0059756Y0064079D02*
X0054244Y0064079D01*
X0054244Y0051481D01*
X0059756Y0051481D01*
X0059756Y0064079D01*
X0048900Y0066780D02*
X0048900Y0072780D01*
X0048898Y0072840D01*
X0048893Y0072901D01*
X0048884Y0072960D01*
X0048871Y0073019D01*
X0048855Y0073078D01*
X0048835Y0073135D01*
X0048812Y0073190D01*
X0048785Y0073245D01*
X0048756Y0073297D01*
X0048723Y0073348D01*
X0048687Y0073397D01*
X0048649Y0073443D01*
X0048607Y0073487D01*
X0048563Y0073529D01*
X0048517Y0073567D01*
X0048468Y0073603D01*
X0048417Y0073636D01*
X0048365Y0073665D01*
X0048310Y0073692D01*
X0048255Y0073715D01*
X0048198Y0073735D01*
X0048139Y0073751D01*
X0048080Y0073764D01*
X0048021Y0073773D01*
X0047960Y0073778D01*
X0047900Y0073780D01*
X0041100Y0073780D01*
X0041040Y0073778D01*
X0040979Y0073773D01*
X0040920Y0073764D01*
X0040861Y0073751D01*
X0040802Y0073735D01*
X0040745Y0073715D01*
X0040690Y0073692D01*
X0040635Y0073665D01*
X0040583Y0073636D01*
X0040532Y0073603D01*
X0040483Y0073567D01*
X0040437Y0073529D01*
X0040393Y0073487D01*
X0040351Y0073443D01*
X0040313Y0073397D01*
X0040277Y0073348D01*
X0040244Y0073297D01*
X0040215Y0073245D01*
X0040188Y0073190D01*
X0040165Y0073135D01*
X0040145Y0073078D01*
X0040129Y0073019D01*
X0040116Y0072960D01*
X0040107Y0072901D01*
X0040102Y0072840D01*
X0040100Y0072780D01*
X0040100Y0066780D01*
X0040102Y0066720D01*
X0040107Y0066659D01*
X0040116Y0066600D01*
X0040129Y0066541D01*
X0040145Y0066482D01*
X0040165Y0066425D01*
X0040188Y0066370D01*
X0040215Y0066315D01*
X0040244Y0066263D01*
X0040277Y0066212D01*
X0040313Y0066163D01*
X0040351Y0066117D01*
X0040393Y0066073D01*
X0040437Y0066031D01*
X0040483Y0065993D01*
X0040532Y0065957D01*
X0040583Y0065924D01*
X0040635Y0065895D01*
X0040690Y0065868D01*
X0040745Y0065845D01*
X0040802Y0065825D01*
X0040861Y0065809D01*
X0040920Y0065796D01*
X0040979Y0065787D01*
X0041040Y0065782D01*
X0041100Y0065780D01*
X0047900Y0065780D01*
X0047960Y0065782D01*
X0048021Y0065787D01*
X0048080Y0065796D01*
X0048139Y0065809D01*
X0048198Y0065825D01*
X0048255Y0065845D01*
X0048310Y0065868D01*
X0048365Y0065895D01*
X0048417Y0065924D01*
X0048468Y0065957D01*
X0048517Y0065993D01*
X0048563Y0066031D01*
X0048607Y0066073D01*
X0048649Y0066117D01*
X0048687Y0066163D01*
X0048723Y0066212D01*
X0048756Y0066263D01*
X0048785Y0066315D01*
X0048812Y0066370D01*
X0048835Y0066425D01*
X0048855Y0066482D01*
X0048871Y0066541D01*
X0048884Y0066600D01*
X0048893Y0066659D01*
X0048898Y0066720D01*
X0048900Y0066780D01*
X0035756Y0064079D02*
X0030244Y0064079D01*
X0030244Y0051481D01*
X0035756Y0051481D01*
X0035756Y0064079D01*
X0053500Y0044180D02*
X0059500Y0044180D01*
X0059560Y0044178D01*
X0059621Y0044173D01*
X0059680Y0044164D01*
X0059739Y0044151D01*
X0059798Y0044135D01*
X0059855Y0044115D01*
X0059910Y0044092D01*
X0059965Y0044065D01*
X0060017Y0044036D01*
X0060068Y0044003D01*
X0060117Y0043967D01*
X0060163Y0043929D01*
X0060207Y0043887D01*
X0060249Y0043843D01*
X0060287Y0043797D01*
X0060323Y0043748D01*
X0060356Y0043697D01*
X0060385Y0043645D01*
X0060412Y0043590D01*
X0060435Y0043535D01*
X0060455Y0043478D01*
X0060471Y0043419D01*
X0060484Y0043360D01*
X0060493Y0043301D01*
X0060498Y0043240D01*
X0060500Y0043180D01*
X0060500Y0036380D01*
X0060498Y0036320D01*
X0060493Y0036259D01*
X0060484Y0036200D01*
X0060471Y0036141D01*
X0060455Y0036082D01*
X0060435Y0036025D01*
X0060412Y0035970D01*
X0060385Y0035915D01*
X0060356Y0035863D01*
X0060323Y0035812D01*
X0060287Y0035763D01*
X0060249Y0035717D01*
X0060207Y0035673D01*
X0060163Y0035631D01*
X0060117Y0035593D01*
X0060068Y0035557D01*
X0060017Y0035524D01*
X0059965Y0035495D01*
X0059910Y0035468D01*
X0059855Y0035445D01*
X0059798Y0035425D01*
X0059739Y0035409D01*
X0059680Y0035396D01*
X0059621Y0035387D01*
X0059560Y0035382D01*
X0059500Y0035380D01*
X0053500Y0035380D01*
X0053440Y0035382D01*
X0053379Y0035387D01*
X0053320Y0035396D01*
X0053261Y0035409D01*
X0053202Y0035425D01*
X0053145Y0035445D01*
X0053090Y0035468D01*
X0053035Y0035495D01*
X0052983Y0035524D01*
X0052932Y0035557D01*
X0052883Y0035593D01*
X0052837Y0035631D01*
X0052793Y0035673D01*
X0052751Y0035717D01*
X0052713Y0035763D01*
X0052677Y0035812D01*
X0052644Y0035863D01*
X0052615Y0035915D01*
X0052588Y0035970D01*
X0052565Y0036025D01*
X0052545Y0036082D01*
X0052529Y0036141D01*
X0052516Y0036200D01*
X0052507Y0036259D01*
X0052502Y0036320D01*
X0052500Y0036380D01*
X0052500Y0043180D01*
X0052502Y0043240D01*
X0052507Y0043301D01*
X0052516Y0043360D01*
X0052529Y0043419D01*
X0052545Y0043478D01*
X0052565Y0043535D01*
X0052588Y0043590D01*
X0052615Y0043645D01*
X0052644Y0043697D01*
X0052677Y0043748D01*
X0052713Y0043797D01*
X0052751Y0043843D01*
X0052793Y0043887D01*
X0052837Y0043929D01*
X0052883Y0043967D01*
X0052932Y0044003D01*
X0052983Y0044036D01*
X0053035Y0044065D01*
X0053090Y0044092D01*
X0053145Y0044115D01*
X0053202Y0044135D01*
X0053261Y0044151D01*
X0053320Y0044164D01*
X0053379Y0044173D01*
X0053440Y0044178D01*
X0053500Y0044180D01*
X0062500Y0043180D02*
X0062500Y0036380D01*
X0062502Y0036320D01*
X0062507Y0036259D01*
X0062516Y0036200D01*
X0062529Y0036141D01*
X0062545Y0036082D01*
X0062565Y0036025D01*
X0062588Y0035970D01*
X0062615Y0035915D01*
X0062644Y0035863D01*
X0062677Y0035812D01*
X0062713Y0035763D01*
X0062751Y0035717D01*
X0062793Y0035673D01*
X0062837Y0035631D01*
X0062883Y0035593D01*
X0062932Y0035557D01*
X0062983Y0035524D01*
X0063035Y0035495D01*
X0063090Y0035468D01*
X0063145Y0035445D01*
X0063202Y0035425D01*
X0063261Y0035409D01*
X0063320Y0035396D01*
X0063379Y0035387D01*
X0063440Y0035382D01*
X0063500Y0035380D01*
X0069500Y0035380D01*
X0069560Y0035382D01*
X0069621Y0035387D01*
X0069680Y0035396D01*
X0069739Y0035409D01*
X0069798Y0035425D01*
X0069855Y0035445D01*
X0069910Y0035468D01*
X0069965Y0035495D01*
X0070017Y0035524D01*
X0070068Y0035557D01*
X0070117Y0035593D01*
X0070163Y0035631D01*
X0070207Y0035673D01*
X0070249Y0035717D01*
X0070287Y0035763D01*
X0070323Y0035812D01*
X0070356Y0035863D01*
X0070385Y0035915D01*
X0070412Y0035970D01*
X0070435Y0036025D01*
X0070455Y0036082D01*
X0070471Y0036141D01*
X0070484Y0036200D01*
X0070493Y0036259D01*
X0070498Y0036320D01*
X0070500Y0036380D01*
X0070500Y0043180D01*
X0070498Y0043240D01*
X0070493Y0043301D01*
X0070484Y0043360D01*
X0070471Y0043419D01*
X0070455Y0043478D01*
X0070435Y0043535D01*
X0070412Y0043590D01*
X0070385Y0043645D01*
X0070356Y0043697D01*
X0070323Y0043748D01*
X0070287Y0043797D01*
X0070249Y0043843D01*
X0070207Y0043887D01*
X0070163Y0043929D01*
X0070117Y0043967D01*
X0070068Y0044003D01*
X0070017Y0044036D01*
X0069965Y0044065D01*
X0069910Y0044092D01*
X0069855Y0044115D01*
X0069798Y0044135D01*
X0069739Y0044151D01*
X0069680Y0044164D01*
X0069621Y0044173D01*
X0069560Y0044178D01*
X0069500Y0044180D01*
X0063500Y0044180D01*
X0063440Y0044178D01*
X0063379Y0044173D01*
X0063320Y0044164D01*
X0063261Y0044151D01*
X0063202Y0044135D01*
X0063145Y0044115D01*
X0063090Y0044092D01*
X0063035Y0044065D01*
X0062983Y0044036D01*
X0062932Y0044003D01*
X0062883Y0043967D01*
X0062837Y0043929D01*
X0062793Y0043887D01*
X0062751Y0043843D01*
X0062713Y0043797D01*
X0062677Y0043748D01*
X0062644Y0043697D01*
X0062615Y0043645D01*
X0062588Y0043590D01*
X0062565Y0043535D01*
X0062545Y0043478D01*
X0062529Y0043419D01*
X0062516Y0043360D01*
X0062507Y0043301D01*
X0062502Y0043240D01*
X0062500Y0043180D01*
X0078744Y0035079D02*
X0084256Y0035079D01*
X0084256Y0022481D01*
X0078744Y0022481D01*
X0078744Y0035079D01*
X0106744Y0035079D02*
X0106744Y0022481D01*
X0112256Y0022481D01*
X0112256Y0035079D01*
X0106744Y0035079D01*
X0179744Y0033481D02*
X0185256Y0033481D01*
X0185256Y0046079D01*
X0179744Y0046079D01*
X0179744Y0033481D01*
X0187744Y0033481D02*
X0193256Y0033481D01*
X0193256Y0046079D01*
X0187744Y0046079D01*
X0187744Y0033481D01*
X0190201Y0049024D02*
X0202799Y0049024D01*
X0202799Y0054536D01*
X0190201Y0054536D01*
X0190201Y0049024D01*
X0251100Y0055780D02*
X0251100Y0061780D01*
X0251102Y0061840D01*
X0251107Y0061901D01*
X0251116Y0061960D01*
X0251129Y0062019D01*
X0251145Y0062078D01*
X0251165Y0062135D01*
X0251188Y0062190D01*
X0251215Y0062245D01*
X0251244Y0062297D01*
X0251277Y0062348D01*
X0251313Y0062397D01*
X0251351Y0062443D01*
X0251393Y0062487D01*
X0251437Y0062529D01*
X0251483Y0062567D01*
X0251532Y0062603D01*
X0251583Y0062636D01*
X0251635Y0062665D01*
X0251690Y0062692D01*
X0251745Y0062715D01*
X0251802Y0062735D01*
X0251861Y0062751D01*
X0251920Y0062764D01*
X0251979Y0062773D01*
X0252040Y0062778D01*
X0252100Y0062780D01*
X0258900Y0062780D01*
X0258960Y0062778D01*
X0259021Y0062773D01*
X0259080Y0062764D01*
X0259139Y0062751D01*
X0259198Y0062735D01*
X0259255Y0062715D01*
X0259310Y0062692D01*
X0259365Y0062665D01*
X0259417Y0062636D01*
X0259468Y0062603D01*
X0259517Y0062567D01*
X0259563Y0062529D01*
X0259607Y0062487D01*
X0259649Y0062443D01*
X0259687Y0062397D01*
X0259723Y0062348D01*
X0259756Y0062297D01*
X0259785Y0062245D01*
X0259812Y0062190D01*
X0259835Y0062135D01*
X0259855Y0062078D01*
X0259871Y0062019D01*
X0259884Y0061960D01*
X0259893Y0061901D01*
X0259898Y0061840D01*
X0259900Y0061780D01*
X0259900Y0055780D01*
X0259898Y0055720D01*
X0259893Y0055659D01*
X0259884Y0055600D01*
X0259871Y0055541D01*
X0259855Y0055482D01*
X0259835Y0055425D01*
X0259812Y0055370D01*
X0259785Y0055315D01*
X0259756Y0055263D01*
X0259723Y0055212D01*
X0259687Y0055163D01*
X0259649Y0055117D01*
X0259607Y0055073D01*
X0259563Y0055031D01*
X0259517Y0054993D01*
X0259468Y0054957D01*
X0259417Y0054924D01*
X0259365Y0054895D01*
X0259310Y0054868D01*
X0259255Y0054845D01*
X0259198Y0054825D01*
X0259139Y0054809D01*
X0259080Y0054796D01*
X0259021Y0054787D01*
X0258960Y0054782D01*
X0258900Y0054780D01*
X0252100Y0054780D01*
X0252040Y0054782D01*
X0251979Y0054787D01*
X0251920Y0054796D01*
X0251861Y0054809D01*
X0251802Y0054825D01*
X0251745Y0054845D01*
X0251690Y0054868D01*
X0251635Y0054895D01*
X0251583Y0054924D01*
X0251532Y0054957D01*
X0251483Y0054993D01*
X0251437Y0055031D01*
X0251393Y0055073D01*
X0251351Y0055117D01*
X0251313Y0055163D01*
X0251277Y0055212D01*
X0251244Y0055263D01*
X0251215Y0055315D01*
X0251188Y0055370D01*
X0251165Y0055425D01*
X0251145Y0055482D01*
X0251129Y0055541D01*
X0251116Y0055600D01*
X0251107Y0055659D01*
X0251102Y0055720D01*
X0251100Y0055780D01*
X0252100Y0065780D02*
X0258900Y0065780D01*
X0258960Y0065782D01*
X0259021Y0065787D01*
X0259080Y0065796D01*
X0259139Y0065809D01*
X0259198Y0065825D01*
X0259255Y0065845D01*
X0259310Y0065868D01*
X0259365Y0065895D01*
X0259417Y0065924D01*
X0259468Y0065957D01*
X0259517Y0065993D01*
X0259563Y0066031D01*
X0259607Y0066073D01*
X0259649Y0066117D01*
X0259687Y0066163D01*
X0259723Y0066212D01*
X0259756Y0066263D01*
X0259785Y0066315D01*
X0259812Y0066370D01*
X0259835Y0066425D01*
X0259855Y0066482D01*
X0259871Y0066541D01*
X0259884Y0066600D01*
X0259893Y0066659D01*
X0259898Y0066720D01*
X0259900Y0066780D01*
X0259900Y0072780D01*
X0259898Y0072840D01*
X0259893Y0072901D01*
X0259884Y0072960D01*
X0259871Y0073019D01*
X0259855Y0073078D01*
X0259835Y0073135D01*
X0259812Y0073190D01*
X0259785Y0073245D01*
X0259756Y0073297D01*
X0259723Y0073348D01*
X0259687Y0073397D01*
X0259649Y0073443D01*
X0259607Y0073487D01*
X0259563Y0073529D01*
X0259517Y0073567D01*
X0259468Y0073603D01*
X0259417Y0073636D01*
X0259365Y0073665D01*
X0259310Y0073692D01*
X0259255Y0073715D01*
X0259198Y0073735D01*
X0259139Y0073751D01*
X0259080Y0073764D01*
X0259021Y0073773D01*
X0258960Y0073778D01*
X0258900Y0073780D01*
X0252100Y0073780D01*
X0252040Y0073778D01*
X0251979Y0073773D01*
X0251920Y0073764D01*
X0251861Y0073751D01*
X0251802Y0073735D01*
X0251745Y0073715D01*
X0251690Y0073692D01*
X0251635Y0073665D01*
X0251583Y0073636D01*
X0251532Y0073603D01*
X0251483Y0073567D01*
X0251437Y0073529D01*
X0251393Y0073487D01*
X0251351Y0073443D01*
X0251313Y0073397D01*
X0251277Y0073348D01*
X0251244Y0073297D01*
X0251215Y0073245D01*
X0251188Y0073190D01*
X0251165Y0073135D01*
X0251145Y0073078D01*
X0251129Y0073019D01*
X0251116Y0072960D01*
X0251107Y0072901D01*
X0251102Y0072840D01*
X0251100Y0072780D01*
X0251100Y0066780D01*
X0251102Y0066720D01*
X0251107Y0066659D01*
X0251116Y0066600D01*
X0251129Y0066541D01*
X0251145Y0066482D01*
X0251165Y0066425D01*
X0251188Y0066370D01*
X0251215Y0066315D01*
X0251244Y0066263D01*
X0251277Y0066212D01*
X0251313Y0066163D01*
X0251351Y0066117D01*
X0251393Y0066073D01*
X0251437Y0066031D01*
X0251483Y0065993D01*
X0251532Y0065957D01*
X0251583Y0065924D01*
X0251635Y0065895D01*
X0251690Y0065868D01*
X0251745Y0065845D01*
X0251802Y0065825D01*
X0251861Y0065809D01*
X0251920Y0065796D01*
X0251979Y0065787D01*
X0252040Y0065782D01*
X0252100Y0065780D01*
X0252100Y0077780D02*
X0258900Y0077780D01*
X0258960Y0077782D01*
X0259021Y0077787D01*
X0259080Y0077796D01*
X0259139Y0077809D01*
X0259198Y0077825D01*
X0259255Y0077845D01*
X0259310Y0077868D01*
X0259365Y0077895D01*
X0259417Y0077924D01*
X0259468Y0077957D01*
X0259517Y0077993D01*
X0259563Y0078031D01*
X0259607Y0078073D01*
X0259649Y0078117D01*
X0259687Y0078163D01*
X0259723Y0078212D01*
X0259756Y0078263D01*
X0259785Y0078315D01*
X0259812Y0078370D01*
X0259835Y0078425D01*
X0259855Y0078482D01*
X0259871Y0078541D01*
X0259884Y0078600D01*
X0259893Y0078659D01*
X0259898Y0078720D01*
X0259900Y0078780D01*
X0259900Y0084780D01*
X0259898Y0084840D01*
X0259893Y0084901D01*
X0259884Y0084960D01*
X0259871Y0085019D01*
X0259855Y0085078D01*
X0259835Y0085135D01*
X0259812Y0085190D01*
X0259785Y0085245D01*
X0259756Y0085297D01*
X0259723Y0085348D01*
X0259687Y0085397D01*
X0259649Y0085443D01*
X0259607Y0085487D01*
X0259563Y0085529D01*
X0259517Y0085567D01*
X0259468Y0085603D01*
X0259417Y0085636D01*
X0259365Y0085665D01*
X0259310Y0085692D01*
X0259255Y0085715D01*
X0259198Y0085735D01*
X0259139Y0085751D01*
X0259080Y0085764D01*
X0259021Y0085773D01*
X0258960Y0085778D01*
X0258900Y0085780D01*
X0252100Y0085780D01*
X0252040Y0085778D01*
X0251979Y0085773D01*
X0251920Y0085764D01*
X0251861Y0085751D01*
X0251802Y0085735D01*
X0251745Y0085715D01*
X0251690Y0085692D01*
X0251635Y0085665D01*
X0251583Y0085636D01*
X0251532Y0085603D01*
X0251483Y0085567D01*
X0251437Y0085529D01*
X0251393Y0085487D01*
X0251351Y0085443D01*
X0251313Y0085397D01*
X0251277Y0085348D01*
X0251244Y0085297D01*
X0251215Y0085245D01*
X0251188Y0085190D01*
X0251165Y0085135D01*
X0251145Y0085078D01*
X0251129Y0085019D01*
X0251116Y0084960D01*
X0251107Y0084901D01*
X0251102Y0084840D01*
X0251100Y0084780D01*
X0251100Y0078780D01*
X0251102Y0078720D01*
X0251107Y0078659D01*
X0251116Y0078600D01*
X0251129Y0078541D01*
X0251145Y0078482D01*
X0251165Y0078425D01*
X0251188Y0078370D01*
X0251215Y0078315D01*
X0251244Y0078263D01*
X0251277Y0078212D01*
X0251313Y0078163D01*
X0251351Y0078117D01*
X0251393Y0078073D01*
X0251437Y0078031D01*
X0251483Y0077993D01*
X0251532Y0077957D01*
X0251583Y0077924D01*
X0251635Y0077895D01*
X0251690Y0077868D01*
X0251745Y0077845D01*
X0251802Y0077825D01*
X0251861Y0077809D01*
X0251920Y0077796D01*
X0251979Y0077787D01*
X0252040Y0077782D01*
X0252100Y0077780D01*
X0252100Y0088780D02*
X0258900Y0088780D01*
X0258960Y0088782D01*
X0259021Y0088787D01*
X0259080Y0088796D01*
X0259139Y0088809D01*
X0259198Y0088825D01*
X0259255Y0088845D01*
X0259310Y0088868D01*
X0259365Y0088895D01*
X0259417Y0088924D01*
X0259468Y0088957D01*
X0259517Y0088993D01*
X0259563Y0089031D01*
X0259607Y0089073D01*
X0259649Y0089117D01*
X0259687Y0089163D01*
X0259723Y0089212D01*
X0259756Y0089263D01*
X0259785Y0089315D01*
X0259812Y0089370D01*
X0259835Y0089425D01*
X0259855Y0089482D01*
X0259871Y0089541D01*
X0259884Y0089600D01*
X0259893Y0089659D01*
X0259898Y0089720D01*
X0259900Y0089780D01*
X0259900Y0095780D01*
X0259898Y0095840D01*
X0259893Y0095901D01*
X0259884Y0095960D01*
X0259871Y0096019D01*
X0259855Y0096078D01*
X0259835Y0096135D01*
X0259812Y0096190D01*
X0259785Y0096245D01*
X0259756Y0096297D01*
X0259723Y0096348D01*
X0259687Y0096397D01*
X0259649Y0096443D01*
X0259607Y0096487D01*
X0259563Y0096529D01*
X0259517Y0096567D01*
X0259468Y0096603D01*
X0259417Y0096636D01*
X0259365Y0096665D01*
X0259310Y0096692D01*
X0259255Y0096715D01*
X0259198Y0096735D01*
X0259139Y0096751D01*
X0259080Y0096764D01*
X0259021Y0096773D01*
X0258960Y0096778D01*
X0258900Y0096780D01*
X0252100Y0096780D01*
X0252040Y0096778D01*
X0251979Y0096773D01*
X0251920Y0096764D01*
X0251861Y0096751D01*
X0251802Y0096735D01*
X0251745Y0096715D01*
X0251690Y0096692D01*
X0251635Y0096665D01*
X0251583Y0096636D01*
X0251532Y0096603D01*
X0251483Y0096567D01*
X0251437Y0096529D01*
X0251393Y0096487D01*
X0251351Y0096443D01*
X0251313Y0096397D01*
X0251277Y0096348D01*
X0251244Y0096297D01*
X0251215Y0096245D01*
X0251188Y0096190D01*
X0251165Y0096135D01*
X0251145Y0096078D01*
X0251129Y0096019D01*
X0251116Y0095960D01*
X0251107Y0095901D01*
X0251102Y0095840D01*
X0251100Y0095780D01*
X0251100Y0089780D01*
X0251102Y0089720D01*
X0251107Y0089659D01*
X0251116Y0089600D01*
X0251129Y0089541D01*
X0251145Y0089482D01*
X0251165Y0089425D01*
X0251188Y0089370D01*
X0251215Y0089315D01*
X0251244Y0089263D01*
X0251277Y0089212D01*
X0251313Y0089163D01*
X0251351Y0089117D01*
X0251393Y0089073D01*
X0251437Y0089031D01*
X0251483Y0088993D01*
X0251532Y0088957D01*
X0251583Y0088924D01*
X0251635Y0088895D01*
X0251690Y0088868D01*
X0251745Y0088845D01*
X0251802Y0088825D01*
X0251861Y0088809D01*
X0251920Y0088796D01*
X0251979Y0088787D01*
X0252040Y0088782D01*
X0252100Y0088780D01*
X0201799Y0114024D02*
X0201799Y0119536D01*
X0189201Y0119536D01*
X0189201Y0114024D01*
X0201799Y0114024D01*
X0192500Y0111180D02*
X0192500Y0104380D01*
X0192498Y0104320D01*
X0192493Y0104259D01*
X0192484Y0104200D01*
X0192471Y0104141D01*
X0192455Y0104082D01*
X0192435Y0104025D01*
X0192412Y0103970D01*
X0192385Y0103915D01*
X0192356Y0103863D01*
X0192323Y0103812D01*
X0192287Y0103763D01*
X0192249Y0103717D01*
X0192207Y0103673D01*
X0192163Y0103631D01*
X0192117Y0103593D01*
X0192068Y0103557D01*
X0192017Y0103524D01*
X0191965Y0103495D01*
X0191910Y0103468D01*
X0191855Y0103445D01*
X0191798Y0103425D01*
X0191739Y0103409D01*
X0191680Y0103396D01*
X0191621Y0103387D01*
X0191560Y0103382D01*
X0191500Y0103380D01*
X0185500Y0103380D01*
X0185440Y0103382D01*
X0185379Y0103387D01*
X0185320Y0103396D01*
X0185261Y0103409D01*
X0185202Y0103425D01*
X0185145Y0103445D01*
X0185090Y0103468D01*
X0185035Y0103495D01*
X0184983Y0103524D01*
X0184932Y0103557D01*
X0184883Y0103593D01*
X0184837Y0103631D01*
X0184793Y0103673D01*
X0184751Y0103717D01*
X0184713Y0103763D01*
X0184677Y0103812D01*
X0184644Y0103863D01*
X0184615Y0103915D01*
X0184588Y0103970D01*
X0184565Y0104025D01*
X0184545Y0104082D01*
X0184529Y0104141D01*
X0184516Y0104200D01*
X0184507Y0104259D01*
X0184502Y0104320D01*
X0184500Y0104380D01*
X0184500Y0111180D01*
X0184502Y0111240D01*
X0184507Y0111301D01*
X0184516Y0111360D01*
X0184529Y0111419D01*
X0184545Y0111478D01*
X0184565Y0111535D01*
X0184588Y0111590D01*
X0184615Y0111645D01*
X0184644Y0111697D01*
X0184677Y0111748D01*
X0184713Y0111797D01*
X0184751Y0111843D01*
X0184793Y0111887D01*
X0184837Y0111929D01*
X0184883Y0111967D01*
X0184932Y0112003D01*
X0184983Y0112036D01*
X0185035Y0112065D01*
X0185090Y0112092D01*
X0185145Y0112115D01*
X0185202Y0112135D01*
X0185261Y0112151D01*
X0185320Y0112164D01*
X0185379Y0112173D01*
X0185440Y0112178D01*
X0185500Y0112180D01*
X0191500Y0112180D01*
X0191560Y0112178D01*
X0191621Y0112173D01*
X0191680Y0112164D01*
X0191739Y0112151D01*
X0191798Y0112135D01*
X0191855Y0112115D01*
X0191910Y0112092D01*
X0191965Y0112065D01*
X0192017Y0112036D01*
X0192068Y0112003D01*
X0192117Y0111967D01*
X0192163Y0111929D01*
X0192207Y0111887D01*
X0192249Y0111843D01*
X0192287Y0111797D01*
X0192323Y0111748D01*
X0192356Y0111697D01*
X0192385Y0111645D01*
X0192412Y0111590D01*
X0192435Y0111535D01*
X0192455Y0111478D01*
X0192471Y0111419D01*
X0192484Y0111360D01*
X0192493Y0111301D01*
X0192498Y0111240D01*
X0192500Y0111180D01*
X0186799Y0114024D02*
X0186799Y0119536D01*
X0174201Y0119536D01*
X0174201Y0114024D01*
X0186799Y0114024D01*
X0186799Y0122024D02*
X0174201Y0122024D01*
X0174201Y0127536D01*
X0186799Y0127536D01*
X0186799Y0122024D01*
X0189201Y0122024D02*
X0189201Y0127536D01*
X0201799Y0127536D01*
X0201799Y0122024D01*
X0189201Y0122024D01*
X0191900Y0129780D02*
X0185100Y0129780D01*
X0185040Y0129782D01*
X0184979Y0129787D01*
X0184920Y0129796D01*
X0184861Y0129809D01*
X0184802Y0129825D01*
X0184745Y0129845D01*
X0184690Y0129868D01*
X0184635Y0129895D01*
X0184583Y0129924D01*
X0184532Y0129957D01*
X0184483Y0129993D01*
X0184437Y0130031D01*
X0184393Y0130073D01*
X0184351Y0130117D01*
X0184313Y0130163D01*
X0184277Y0130212D01*
X0184244Y0130263D01*
X0184215Y0130315D01*
X0184188Y0130370D01*
X0184165Y0130425D01*
X0184145Y0130482D01*
X0184129Y0130541D01*
X0184116Y0130600D01*
X0184107Y0130659D01*
X0184102Y0130720D01*
X0184100Y0130780D01*
X0184100Y0136780D01*
X0184102Y0136840D01*
X0184107Y0136901D01*
X0184116Y0136960D01*
X0184129Y0137019D01*
X0184145Y0137078D01*
X0184165Y0137135D01*
X0184188Y0137190D01*
X0184215Y0137245D01*
X0184244Y0137297D01*
X0184277Y0137348D01*
X0184313Y0137397D01*
X0184351Y0137443D01*
X0184393Y0137487D01*
X0184437Y0137529D01*
X0184483Y0137567D01*
X0184532Y0137603D01*
X0184583Y0137636D01*
X0184635Y0137665D01*
X0184690Y0137692D01*
X0184745Y0137715D01*
X0184802Y0137735D01*
X0184861Y0137751D01*
X0184920Y0137764D01*
X0184979Y0137773D01*
X0185040Y0137778D01*
X0185100Y0137780D01*
X0191900Y0137780D01*
X0191960Y0137778D01*
X0192021Y0137773D01*
X0192080Y0137764D01*
X0192139Y0137751D01*
X0192198Y0137735D01*
X0192255Y0137715D01*
X0192310Y0137692D01*
X0192365Y0137665D01*
X0192417Y0137636D01*
X0192468Y0137603D01*
X0192517Y0137567D01*
X0192563Y0137529D01*
X0192607Y0137487D01*
X0192649Y0137443D01*
X0192687Y0137397D01*
X0192723Y0137348D01*
X0192756Y0137297D01*
X0192785Y0137245D01*
X0192812Y0137190D01*
X0192835Y0137135D01*
X0192855Y0137078D01*
X0192871Y0137019D01*
X0192884Y0136960D01*
X0192893Y0136901D01*
X0192898Y0136840D01*
X0192900Y0136780D01*
X0192900Y0130780D01*
X0192898Y0130720D01*
X0192893Y0130659D01*
X0192884Y0130600D01*
X0192871Y0130541D01*
X0192855Y0130482D01*
X0192835Y0130425D01*
X0192812Y0130370D01*
X0192785Y0130315D01*
X0192756Y0130263D01*
X0192723Y0130212D01*
X0192687Y0130163D01*
X0192649Y0130117D01*
X0192607Y0130073D01*
X0192563Y0130031D01*
X0192517Y0129993D01*
X0192468Y0129957D01*
X0192417Y0129924D01*
X0192365Y0129895D01*
X0192310Y0129868D01*
X0192255Y0129845D01*
X0192198Y0129825D01*
X0192139Y0129809D01*
X0192080Y0129796D01*
X0192021Y0129787D01*
X0191960Y0129782D01*
X0191900Y0129780D01*
D15*
X0191987Y0140530D02*
X0191354Y0142430D01*
X0190720Y0140530D01*
X0190879Y0141005D02*
X0191829Y0141005D01*
X0193384Y0140530D02*
X0193339Y0140532D01*
X0193295Y0140538D01*
X0193251Y0140547D01*
X0193208Y0140560D01*
X0193167Y0140577D01*
X0193126Y0140597D01*
X0193088Y0140621D01*
X0193052Y0140647D01*
X0193019Y0140677D01*
X0192988Y0140709D01*
X0192959Y0140744D01*
X0192934Y0140781D01*
X0192913Y0140820D01*
X0192894Y0140861D01*
X0192879Y0140903D01*
X0192868Y0140947D01*
X0192860Y0140991D01*
X0192856Y0141036D01*
X0192856Y0141080D01*
X0192860Y0141125D01*
X0192868Y0141169D01*
X0192879Y0141213D01*
X0192894Y0141255D01*
X0192913Y0141296D01*
X0192934Y0141335D01*
X0192959Y0141372D01*
X0192988Y0141407D01*
X0193019Y0141439D01*
X0193052Y0141469D01*
X0193088Y0141495D01*
X0193126Y0141519D01*
X0193167Y0141539D01*
X0193208Y0141556D01*
X0193251Y0141569D01*
X0193295Y0141578D01*
X0193339Y0141584D01*
X0193384Y0141586D01*
X0193384Y0141585D02*
X0193912Y0141585D01*
X0193384Y0141586D02*
X0193344Y0141588D01*
X0193304Y0141594D01*
X0193265Y0141603D01*
X0193227Y0141616D01*
X0193191Y0141633D01*
X0193156Y0141653D01*
X0193123Y0141676D01*
X0193093Y0141703D01*
X0193065Y0141732D01*
X0193040Y0141763D01*
X0193019Y0141797D01*
X0193000Y0141833D01*
X0192985Y0141870D01*
X0192974Y0141909D01*
X0192966Y0141948D01*
X0192962Y0141988D01*
X0192962Y0142028D01*
X0192966Y0142068D01*
X0192974Y0142107D01*
X0192985Y0142146D01*
X0193000Y0142183D01*
X0193019Y0142219D01*
X0193040Y0142253D01*
X0193065Y0142284D01*
X0193093Y0142313D01*
X0193123Y0142340D01*
X0193156Y0142363D01*
X0193191Y0142383D01*
X0193227Y0142400D01*
X0193265Y0142413D01*
X0193304Y0142422D01*
X0193344Y0142428D01*
X0193384Y0142430D01*
X0193912Y0142430D01*
X0193912Y0140530D01*
X0193384Y0140530D01*
X0189865Y0142430D02*
X0188810Y0142430D01*
X0189338Y0142430D02*
X0189338Y0140530D01*
X0187466Y0140530D02*
X0187466Y0142430D01*
X0187993Y0142430D02*
X0186938Y0142430D01*
X0186088Y0140319D02*
X0185243Y0140319D01*
X0183722Y0140530D02*
X0183088Y0142430D01*
X0184355Y0142430D02*
X0183722Y0140530D01*
X0183066Y0101030D02*
X0182433Y0099130D01*
X0181800Y0101030D01*
X0185768Y0099130D02*
X0186190Y0099974D01*
X0186296Y0099974D02*
X0186823Y0099974D01*
X0186296Y0099974D02*
X0186251Y0099976D01*
X0186207Y0099982D01*
X0186163Y0099991D01*
X0186120Y0100004D01*
X0186079Y0100021D01*
X0186038Y0100041D01*
X0186000Y0100065D01*
X0185964Y0100091D01*
X0185931Y0100121D01*
X0185900Y0100153D01*
X0185871Y0100188D01*
X0185846Y0100225D01*
X0185825Y0100264D01*
X0185806Y0100305D01*
X0185791Y0100347D01*
X0185780Y0100391D01*
X0185772Y0100435D01*
X0185768Y0100480D01*
X0185768Y0100524D01*
X0185772Y0100569D01*
X0185780Y0100613D01*
X0185791Y0100657D01*
X0185806Y0100699D01*
X0185825Y0100740D01*
X0185846Y0100779D01*
X0185871Y0100816D01*
X0185900Y0100851D01*
X0185931Y0100883D01*
X0185964Y0100913D01*
X0186000Y0100939D01*
X0186038Y0100963D01*
X0186079Y0100983D01*
X0186120Y0101000D01*
X0186163Y0101013D01*
X0186207Y0101022D01*
X0186251Y0101028D01*
X0186296Y0101030D01*
X0186823Y0101030D01*
X0186823Y0099130D01*
X0187919Y0099130D02*
X0188553Y0101030D01*
X0189186Y0099130D01*
X0189028Y0099605D02*
X0188078Y0099605D01*
X0190028Y0099130D02*
X0190873Y0099130D01*
X0190873Y0101030D01*
X0192057Y0100502D02*
X0192057Y0099658D01*
X0192059Y0099613D01*
X0192065Y0099569D01*
X0192074Y0099525D01*
X0192087Y0099482D01*
X0192104Y0099441D01*
X0192124Y0099400D01*
X0192148Y0099362D01*
X0192174Y0099326D01*
X0192204Y0099293D01*
X0192236Y0099262D01*
X0192271Y0099233D01*
X0192308Y0099208D01*
X0192347Y0099187D01*
X0192388Y0099168D01*
X0192430Y0099153D01*
X0192474Y0099142D01*
X0192518Y0099134D01*
X0192563Y0099130D01*
X0192607Y0099130D01*
X0192652Y0099134D01*
X0192696Y0099142D01*
X0192740Y0099153D01*
X0192782Y0099168D01*
X0192823Y0099187D01*
X0192862Y0099208D01*
X0192899Y0099233D01*
X0192934Y0099262D01*
X0192966Y0099293D01*
X0192996Y0099326D01*
X0193022Y0099362D01*
X0193046Y0099400D01*
X0193066Y0099441D01*
X0193083Y0099482D01*
X0193096Y0099525D01*
X0193105Y0099569D01*
X0193111Y0099613D01*
X0193113Y0099658D01*
X0193113Y0100502D01*
X0193111Y0100547D01*
X0193105Y0100591D01*
X0193096Y0100635D01*
X0193083Y0100678D01*
X0193066Y0100719D01*
X0193046Y0100760D01*
X0193022Y0100798D01*
X0192996Y0100834D01*
X0192966Y0100867D01*
X0192934Y0100898D01*
X0192899Y0100927D01*
X0192862Y0100952D01*
X0192823Y0100973D01*
X0192782Y0100992D01*
X0192740Y0101007D01*
X0192696Y0101018D01*
X0192652Y0101026D01*
X0192607Y0101030D01*
X0192563Y0101030D01*
X0192518Y0101026D01*
X0192474Y0101018D01*
X0192430Y0101007D01*
X0192388Y0100992D01*
X0192347Y0100973D01*
X0192308Y0100952D01*
X0192271Y0100927D01*
X0192236Y0100898D01*
X0192204Y0100867D01*
X0192174Y0100834D01*
X0192148Y0100798D01*
X0192124Y0100760D01*
X0192104Y0100719D01*
X0192087Y0100678D01*
X0192074Y0100635D01*
X0192065Y0100591D01*
X0192059Y0100547D01*
X0192057Y0100502D01*
X0194356Y0099922D02*
X0194937Y0100238D01*
X0194726Y0101030D02*
X0194675Y0101028D01*
X0194624Y0101023D01*
X0194574Y0101015D01*
X0194524Y0101004D01*
X0194476Y0100989D01*
X0194428Y0100972D01*
X0194381Y0100951D01*
X0194336Y0100927D01*
X0194293Y0100901D01*
X0194251Y0100872D01*
X0194937Y0100238D02*
X0194971Y0100261D01*
X0195002Y0100286D01*
X0195031Y0100314D01*
X0195058Y0100345D01*
X0195081Y0100378D01*
X0195101Y0100413D01*
X0195118Y0100450D01*
X0195131Y0100488D01*
X0195140Y0100527D01*
X0195146Y0100568D01*
X0195148Y0100608D01*
X0195146Y0100647D01*
X0195141Y0100686D01*
X0195132Y0100723D01*
X0195120Y0100760D01*
X0195104Y0100796D01*
X0195085Y0100830D01*
X0195063Y0100862D01*
X0195038Y0100892D01*
X0195010Y0100920D01*
X0194980Y0100945D01*
X0194948Y0100967D01*
X0194914Y0100986D01*
X0194878Y0101002D01*
X0194841Y0101014D01*
X0194804Y0101023D01*
X0194765Y0101028D01*
X0194726Y0101030D01*
X0195200Y0099394D02*
X0195158Y0099354D01*
X0195112Y0099316D01*
X0195065Y0099282D01*
X0195015Y0099251D01*
X0194963Y0099223D01*
X0194910Y0099199D01*
X0194855Y0099178D01*
X0194799Y0099161D01*
X0194742Y0099147D01*
X0194684Y0099138D01*
X0194626Y0099132D01*
X0194567Y0099130D01*
X0194528Y0099132D01*
X0194489Y0099137D01*
X0194452Y0099146D01*
X0194415Y0099158D01*
X0194379Y0099174D01*
X0194345Y0099193D01*
X0194313Y0099215D01*
X0194283Y0099240D01*
X0194255Y0099268D01*
X0194230Y0099298D01*
X0194208Y0099330D01*
X0194189Y0099364D01*
X0194173Y0099400D01*
X0194161Y0099437D01*
X0194152Y0099474D01*
X0194147Y0099513D01*
X0194145Y0099552D01*
X0194147Y0099592D01*
X0194153Y0099633D01*
X0194162Y0099672D01*
X0194175Y0099710D01*
X0194192Y0099747D01*
X0194212Y0099782D01*
X0194235Y0099815D01*
X0194262Y0099846D01*
X0194291Y0099874D01*
X0194322Y0099899D01*
X0194356Y0099922D01*
X0184799Y0098919D02*
X0183955Y0098919D01*
X0233668Y0082502D02*
X0233668Y0081658D01*
X0233670Y0081614D01*
X0233675Y0081571D01*
X0233684Y0081528D01*
X0233697Y0081487D01*
X0233712Y0081446D01*
X0233732Y0081407D01*
X0233754Y0081369D01*
X0233779Y0081334D01*
X0233808Y0081300D01*
X0233838Y0081270D01*
X0233872Y0081241D01*
X0233907Y0081216D01*
X0233945Y0081194D01*
X0233984Y0081174D01*
X0234025Y0081159D01*
X0234066Y0081146D01*
X0234109Y0081137D01*
X0234152Y0081132D01*
X0234196Y0081130D01*
X0234724Y0081130D01*
X0234724Y0083030D01*
X0234196Y0083030D01*
X0234152Y0083028D01*
X0234109Y0083023D01*
X0234066Y0083014D01*
X0234025Y0083001D01*
X0233984Y0082986D01*
X0233945Y0082966D01*
X0233907Y0082944D01*
X0233872Y0082919D01*
X0233838Y0082890D01*
X0233808Y0082860D01*
X0233779Y0082826D01*
X0233754Y0082791D01*
X0233732Y0082753D01*
X0233712Y0082714D01*
X0233697Y0082673D01*
X0233684Y0082632D01*
X0233675Y0082589D01*
X0233670Y0082546D01*
X0233668Y0082502D01*
X0235972Y0082502D02*
X0235972Y0081658D01*
X0235974Y0081614D01*
X0235979Y0081571D01*
X0235988Y0081528D01*
X0236001Y0081487D01*
X0236016Y0081446D01*
X0236036Y0081407D01*
X0236058Y0081369D01*
X0236083Y0081334D01*
X0236112Y0081300D01*
X0236142Y0081270D01*
X0236176Y0081241D01*
X0236211Y0081216D01*
X0236249Y0081194D01*
X0236288Y0081174D01*
X0236329Y0081159D01*
X0236370Y0081146D01*
X0236413Y0081137D01*
X0236456Y0081132D01*
X0236500Y0081130D01*
X0237028Y0081130D01*
X0237028Y0083030D01*
X0236500Y0083030D01*
X0236456Y0083028D01*
X0236413Y0083023D01*
X0236370Y0083014D01*
X0236329Y0083001D01*
X0236288Y0082986D01*
X0236249Y0082966D01*
X0236211Y0082944D01*
X0236176Y0082919D01*
X0236142Y0082890D01*
X0236112Y0082860D01*
X0236083Y0082826D01*
X0236058Y0082791D01*
X0236036Y0082753D01*
X0236016Y0082714D01*
X0236001Y0082673D01*
X0235988Y0082632D01*
X0235979Y0082589D01*
X0235974Y0082546D01*
X0235972Y0082502D01*
X0238099Y0083030D02*
X0238732Y0081130D01*
X0239365Y0083030D01*
X0240254Y0080919D02*
X0241098Y0080919D01*
X0241987Y0081130D02*
X0242620Y0083030D01*
X0243253Y0081130D01*
X0243095Y0081605D02*
X0242145Y0081605D01*
X0244227Y0081130D02*
X0244649Y0081974D01*
X0244755Y0081974D02*
X0245283Y0081974D01*
X0244755Y0081974D02*
X0244710Y0081976D01*
X0244666Y0081982D01*
X0244622Y0081991D01*
X0244579Y0082004D01*
X0244538Y0082021D01*
X0244497Y0082041D01*
X0244459Y0082065D01*
X0244423Y0082091D01*
X0244390Y0082121D01*
X0244359Y0082153D01*
X0244330Y0082188D01*
X0244305Y0082225D01*
X0244284Y0082264D01*
X0244265Y0082305D01*
X0244250Y0082347D01*
X0244239Y0082391D01*
X0244231Y0082435D01*
X0244227Y0082480D01*
X0244227Y0082524D01*
X0244231Y0082569D01*
X0244239Y0082613D01*
X0244250Y0082657D01*
X0244265Y0082699D01*
X0244284Y0082740D01*
X0244305Y0082779D01*
X0244330Y0082816D01*
X0244359Y0082851D01*
X0244390Y0082883D01*
X0244423Y0082913D01*
X0244459Y0082939D01*
X0244497Y0082963D01*
X0244538Y0082983D01*
X0244579Y0083000D01*
X0244622Y0083013D01*
X0244666Y0083022D01*
X0244710Y0083028D01*
X0244755Y0083030D01*
X0245283Y0083030D01*
X0245283Y0081130D01*
X0246484Y0081658D02*
X0246484Y0082502D01*
X0246486Y0082547D01*
X0246492Y0082591D01*
X0246501Y0082635D01*
X0246514Y0082678D01*
X0246531Y0082719D01*
X0246551Y0082760D01*
X0246575Y0082798D01*
X0246601Y0082834D01*
X0246631Y0082867D01*
X0246663Y0082898D01*
X0246698Y0082927D01*
X0246735Y0082952D01*
X0246774Y0082973D01*
X0246815Y0082992D01*
X0246857Y0083007D01*
X0246901Y0083018D01*
X0246945Y0083026D01*
X0246990Y0083030D01*
X0247034Y0083030D01*
X0247079Y0083026D01*
X0247123Y0083018D01*
X0247167Y0083007D01*
X0247209Y0082992D01*
X0247250Y0082973D01*
X0247289Y0082952D01*
X0247326Y0082927D01*
X0247361Y0082898D01*
X0247393Y0082867D01*
X0247423Y0082834D01*
X0247449Y0082798D01*
X0247473Y0082760D01*
X0247493Y0082719D01*
X0247510Y0082678D01*
X0247523Y0082635D01*
X0247532Y0082591D01*
X0247538Y0082547D01*
X0247540Y0082502D01*
X0247540Y0081658D01*
X0247538Y0081613D01*
X0247532Y0081569D01*
X0247523Y0081525D01*
X0247510Y0081482D01*
X0247493Y0081441D01*
X0247473Y0081400D01*
X0247449Y0081362D01*
X0247423Y0081326D01*
X0247393Y0081293D01*
X0247361Y0081262D01*
X0247326Y0081233D01*
X0247289Y0081208D01*
X0247250Y0081187D01*
X0247209Y0081168D01*
X0247167Y0081153D01*
X0247123Y0081142D01*
X0247079Y0081134D01*
X0247034Y0081130D01*
X0246990Y0081130D01*
X0246945Y0081134D01*
X0246901Y0081142D01*
X0246857Y0081153D01*
X0246815Y0081168D01*
X0246774Y0081187D01*
X0246735Y0081208D01*
X0246698Y0081233D01*
X0246663Y0081262D01*
X0246631Y0081293D01*
X0246601Y0081326D01*
X0246575Y0081362D01*
X0246551Y0081400D01*
X0246531Y0081441D01*
X0246514Y0081482D01*
X0246501Y0081525D01*
X0246492Y0081569D01*
X0246486Y0081613D01*
X0246484Y0081658D01*
X0248487Y0081130D02*
X0249332Y0081130D01*
X0249332Y0083030D01*
X0262540Y0092130D02*
X0262540Y0094030D01*
X0263068Y0094030D02*
X0262012Y0094030D01*
X0263872Y0094030D02*
X0264716Y0094030D01*
X0264716Y0092130D01*
X0263872Y0092130D01*
X0264083Y0093185D02*
X0264716Y0093185D01*
X0266039Y0092922D02*
X0266620Y0093238D01*
X0266409Y0094030D02*
X0266358Y0094028D01*
X0266307Y0094023D01*
X0266257Y0094015D01*
X0266207Y0094004D01*
X0266159Y0093989D01*
X0266111Y0093972D01*
X0266064Y0093951D01*
X0266019Y0093927D01*
X0265976Y0093901D01*
X0265934Y0093872D01*
X0266620Y0093238D02*
X0266654Y0093261D01*
X0266685Y0093286D01*
X0266714Y0093314D01*
X0266741Y0093345D01*
X0266764Y0093378D01*
X0266784Y0093413D01*
X0266801Y0093450D01*
X0266814Y0093488D01*
X0266823Y0093527D01*
X0266829Y0093568D01*
X0266831Y0093608D01*
X0266829Y0093647D01*
X0266824Y0093686D01*
X0266815Y0093723D01*
X0266803Y0093760D01*
X0266787Y0093796D01*
X0266768Y0093830D01*
X0266746Y0093862D01*
X0266721Y0093892D01*
X0266693Y0093920D01*
X0266663Y0093945D01*
X0266631Y0093967D01*
X0266597Y0093986D01*
X0266561Y0094002D01*
X0266524Y0094014D01*
X0266487Y0094023D01*
X0266448Y0094028D01*
X0266409Y0094030D01*
X0266883Y0092394D02*
X0266841Y0092354D01*
X0266795Y0092316D01*
X0266748Y0092282D01*
X0266698Y0092251D01*
X0266646Y0092223D01*
X0266593Y0092199D01*
X0266538Y0092178D01*
X0266482Y0092161D01*
X0266425Y0092147D01*
X0266367Y0092138D01*
X0266309Y0092132D01*
X0266250Y0092130D01*
X0266211Y0092132D01*
X0266172Y0092137D01*
X0266135Y0092146D01*
X0266098Y0092158D01*
X0266062Y0092174D01*
X0266028Y0092193D01*
X0265996Y0092215D01*
X0265966Y0092240D01*
X0265938Y0092268D01*
X0265913Y0092298D01*
X0265891Y0092330D01*
X0265872Y0092364D01*
X0265856Y0092400D01*
X0265844Y0092437D01*
X0265835Y0092474D01*
X0265830Y0092513D01*
X0265828Y0092552D01*
X0265830Y0092592D01*
X0265836Y0092633D01*
X0265845Y0092672D01*
X0265858Y0092710D01*
X0265875Y0092747D01*
X0265895Y0092782D01*
X0265918Y0092815D01*
X0265945Y0092846D01*
X0265974Y0092874D01*
X0266005Y0092899D01*
X0266039Y0092922D01*
X0267760Y0092130D02*
X0268604Y0092130D01*
X0268604Y0094030D01*
X0267760Y0094030D01*
X0267971Y0093185D02*
X0268604Y0093185D01*
X0269763Y0092130D02*
X0270185Y0092974D01*
X0270291Y0092974D02*
X0270819Y0092974D01*
X0270291Y0092974D02*
X0270246Y0092976D01*
X0270202Y0092982D01*
X0270158Y0092991D01*
X0270115Y0093004D01*
X0270074Y0093021D01*
X0270033Y0093041D01*
X0269995Y0093065D01*
X0269959Y0093091D01*
X0269926Y0093121D01*
X0269895Y0093153D01*
X0269866Y0093188D01*
X0269841Y0093225D01*
X0269820Y0093264D01*
X0269801Y0093305D01*
X0269786Y0093347D01*
X0269775Y0093391D01*
X0269767Y0093435D01*
X0269763Y0093480D01*
X0269763Y0093524D01*
X0269767Y0093569D01*
X0269775Y0093613D01*
X0269786Y0093657D01*
X0269801Y0093699D01*
X0269820Y0093740D01*
X0269841Y0093779D01*
X0269866Y0093816D01*
X0269895Y0093851D01*
X0269926Y0093883D01*
X0269959Y0093913D01*
X0269995Y0093939D01*
X0270033Y0093963D01*
X0270074Y0093983D01*
X0270115Y0094000D01*
X0270158Y0094013D01*
X0270202Y0094022D01*
X0270246Y0094028D01*
X0270291Y0094030D01*
X0270819Y0094030D01*
X0270819Y0092130D01*
X0271910Y0091919D02*
X0272754Y0091919D01*
X0273642Y0092130D02*
X0274276Y0094030D01*
X0274909Y0092130D01*
X0274751Y0092605D02*
X0273801Y0092605D01*
X0275883Y0092130D02*
X0276305Y0092974D01*
X0276411Y0092974D02*
X0276938Y0092974D01*
X0276411Y0092974D02*
X0276366Y0092976D01*
X0276322Y0092982D01*
X0276278Y0092991D01*
X0276235Y0093004D01*
X0276194Y0093021D01*
X0276153Y0093041D01*
X0276115Y0093065D01*
X0276079Y0093091D01*
X0276046Y0093121D01*
X0276015Y0093153D01*
X0275986Y0093188D01*
X0275961Y0093225D01*
X0275940Y0093264D01*
X0275921Y0093305D01*
X0275906Y0093347D01*
X0275895Y0093391D01*
X0275887Y0093435D01*
X0275883Y0093480D01*
X0275883Y0093524D01*
X0275887Y0093569D01*
X0275895Y0093613D01*
X0275906Y0093657D01*
X0275921Y0093699D01*
X0275940Y0093740D01*
X0275961Y0093779D01*
X0275986Y0093816D01*
X0276015Y0093851D01*
X0276046Y0093883D01*
X0276079Y0093913D01*
X0276115Y0093939D01*
X0276153Y0093963D01*
X0276194Y0093983D01*
X0276235Y0094000D01*
X0276278Y0094013D01*
X0276322Y0094022D01*
X0276366Y0094028D01*
X0276411Y0094030D01*
X0276938Y0094030D01*
X0276938Y0092130D01*
X0278140Y0092658D02*
X0278140Y0093502D01*
X0278142Y0093547D01*
X0278148Y0093591D01*
X0278157Y0093635D01*
X0278170Y0093678D01*
X0278187Y0093719D01*
X0278207Y0093760D01*
X0278231Y0093798D01*
X0278257Y0093834D01*
X0278287Y0093867D01*
X0278319Y0093898D01*
X0278354Y0093927D01*
X0278391Y0093952D01*
X0278430Y0093973D01*
X0278471Y0093992D01*
X0278513Y0094007D01*
X0278557Y0094018D01*
X0278601Y0094026D01*
X0278646Y0094030D01*
X0278690Y0094030D01*
X0278735Y0094026D01*
X0278779Y0094018D01*
X0278823Y0094007D01*
X0278865Y0093992D01*
X0278906Y0093973D01*
X0278945Y0093952D01*
X0278982Y0093927D01*
X0279017Y0093898D01*
X0279049Y0093867D01*
X0279079Y0093834D01*
X0279105Y0093798D01*
X0279129Y0093760D01*
X0279149Y0093719D01*
X0279166Y0093678D01*
X0279179Y0093635D01*
X0279188Y0093591D01*
X0279194Y0093547D01*
X0279196Y0093502D01*
X0279196Y0092658D01*
X0279194Y0092613D01*
X0279188Y0092569D01*
X0279179Y0092525D01*
X0279166Y0092482D01*
X0279149Y0092441D01*
X0279129Y0092400D01*
X0279105Y0092362D01*
X0279079Y0092326D01*
X0279049Y0092293D01*
X0279017Y0092262D01*
X0278982Y0092233D01*
X0278945Y0092208D01*
X0278906Y0092187D01*
X0278865Y0092168D01*
X0278823Y0092153D01*
X0278779Y0092142D01*
X0278735Y0092134D01*
X0278690Y0092130D01*
X0278646Y0092130D01*
X0278601Y0092134D01*
X0278557Y0092142D01*
X0278513Y0092153D01*
X0278471Y0092168D01*
X0278430Y0092187D01*
X0278391Y0092208D01*
X0278354Y0092233D01*
X0278319Y0092262D01*
X0278287Y0092293D01*
X0278257Y0092326D01*
X0278231Y0092362D01*
X0278207Y0092400D01*
X0278187Y0092441D01*
X0278170Y0092482D01*
X0278157Y0092525D01*
X0278148Y0092569D01*
X0278142Y0092613D01*
X0278140Y0092658D01*
X0280143Y0092130D02*
X0280988Y0092130D01*
X0280988Y0094030D01*
X0275233Y0070030D02*
X0275233Y0068130D01*
X0274388Y0068130D01*
X0273440Y0068658D02*
X0273440Y0069502D01*
X0273441Y0069502D02*
X0273439Y0069547D01*
X0273433Y0069591D01*
X0273424Y0069635D01*
X0273411Y0069678D01*
X0273394Y0069719D01*
X0273374Y0069760D01*
X0273350Y0069798D01*
X0273324Y0069834D01*
X0273294Y0069867D01*
X0273262Y0069898D01*
X0273227Y0069927D01*
X0273190Y0069952D01*
X0273151Y0069973D01*
X0273110Y0069992D01*
X0273068Y0070007D01*
X0273024Y0070018D01*
X0272980Y0070026D01*
X0272935Y0070030D01*
X0272891Y0070030D01*
X0272846Y0070026D01*
X0272802Y0070018D01*
X0272758Y0070007D01*
X0272716Y0069992D01*
X0272675Y0069973D01*
X0272636Y0069952D01*
X0272599Y0069927D01*
X0272564Y0069898D01*
X0272532Y0069867D01*
X0272502Y0069834D01*
X0272476Y0069798D01*
X0272452Y0069760D01*
X0272432Y0069719D01*
X0272415Y0069678D01*
X0272402Y0069635D01*
X0272393Y0069591D01*
X0272387Y0069547D01*
X0272385Y0069502D01*
X0272385Y0068658D01*
X0272387Y0068613D01*
X0272393Y0068569D01*
X0272402Y0068525D01*
X0272415Y0068482D01*
X0272432Y0068441D01*
X0272452Y0068400D01*
X0272476Y0068362D01*
X0272502Y0068326D01*
X0272532Y0068293D01*
X0272564Y0068262D01*
X0272599Y0068233D01*
X0272636Y0068208D01*
X0272675Y0068187D01*
X0272716Y0068168D01*
X0272758Y0068153D01*
X0272802Y0068142D01*
X0272846Y0068134D01*
X0272891Y0068130D01*
X0272935Y0068130D01*
X0272980Y0068134D01*
X0273024Y0068142D01*
X0273068Y0068153D01*
X0273110Y0068168D01*
X0273151Y0068187D01*
X0273190Y0068208D01*
X0273227Y0068233D01*
X0273262Y0068262D01*
X0273294Y0068293D01*
X0273324Y0068326D01*
X0273350Y0068362D01*
X0273374Y0068400D01*
X0273394Y0068441D01*
X0273411Y0068482D01*
X0273424Y0068525D01*
X0273433Y0068569D01*
X0273439Y0068613D01*
X0273441Y0068658D01*
X0271183Y0068974D02*
X0270656Y0068974D01*
X0270550Y0068974D02*
X0270128Y0068130D01*
X0269154Y0068130D02*
X0268521Y0070030D01*
X0267887Y0068130D01*
X0268046Y0068605D02*
X0268996Y0068605D01*
X0270656Y0068974D02*
X0270611Y0068976D01*
X0270567Y0068982D01*
X0270523Y0068991D01*
X0270480Y0069004D01*
X0270439Y0069021D01*
X0270398Y0069041D01*
X0270360Y0069065D01*
X0270324Y0069091D01*
X0270291Y0069121D01*
X0270260Y0069153D01*
X0270231Y0069188D01*
X0270206Y0069225D01*
X0270185Y0069264D01*
X0270166Y0069305D01*
X0270151Y0069347D01*
X0270140Y0069391D01*
X0270132Y0069435D01*
X0270128Y0069480D01*
X0270128Y0069524D01*
X0270132Y0069569D01*
X0270140Y0069613D01*
X0270151Y0069657D01*
X0270166Y0069699D01*
X0270185Y0069740D01*
X0270206Y0069779D01*
X0270231Y0069816D01*
X0270260Y0069851D01*
X0270291Y0069883D01*
X0270324Y0069913D01*
X0270360Y0069939D01*
X0270398Y0069963D01*
X0270439Y0069983D01*
X0270480Y0070000D01*
X0270523Y0070013D01*
X0270567Y0070022D01*
X0270611Y0070028D01*
X0270656Y0070030D01*
X0271183Y0070030D01*
X0271183Y0068130D01*
X0266999Y0067919D02*
X0266154Y0067919D01*
X0265063Y0068130D02*
X0265063Y0070030D01*
X0264536Y0070030D01*
X0264491Y0070028D01*
X0264447Y0070022D01*
X0264403Y0070013D01*
X0264360Y0070000D01*
X0264319Y0069983D01*
X0264278Y0069963D01*
X0264240Y0069939D01*
X0264204Y0069913D01*
X0264171Y0069883D01*
X0264140Y0069851D01*
X0264111Y0069816D01*
X0264086Y0069779D01*
X0264065Y0069740D01*
X0264046Y0069699D01*
X0264031Y0069657D01*
X0264020Y0069613D01*
X0264012Y0069569D01*
X0264008Y0069524D01*
X0264008Y0069480D01*
X0264012Y0069435D01*
X0264020Y0069391D01*
X0264031Y0069347D01*
X0264046Y0069305D01*
X0264065Y0069264D01*
X0264086Y0069225D01*
X0264111Y0069188D01*
X0264140Y0069153D01*
X0264171Y0069121D01*
X0264204Y0069091D01*
X0264240Y0069065D01*
X0264278Y0069041D01*
X0264319Y0069021D01*
X0264360Y0069004D01*
X0264403Y0068991D01*
X0264447Y0068982D01*
X0264491Y0068976D01*
X0264536Y0068974D01*
X0265063Y0068974D01*
X0264430Y0068974D02*
X0264008Y0068130D01*
X0263034Y0068130D02*
X0261767Y0070030D01*
X0263034Y0070030D02*
X0261767Y0068130D01*
X0261947Y0059030D02*
X0263214Y0057130D01*
X0261947Y0057130D02*
X0263214Y0059030D01*
X0264069Y0059030D02*
X0265124Y0059030D01*
X0264597Y0059030D02*
X0264597Y0057130D01*
X0265974Y0056919D02*
X0266819Y0056919D01*
X0267707Y0057130D02*
X0268341Y0059030D01*
X0268974Y0057130D01*
X0268816Y0057605D02*
X0267866Y0057605D01*
X0269948Y0057130D02*
X0270370Y0057974D01*
X0270476Y0057974D02*
X0271003Y0057974D01*
X0270476Y0057974D02*
X0270431Y0057976D01*
X0270387Y0057982D01*
X0270343Y0057991D01*
X0270300Y0058004D01*
X0270259Y0058021D01*
X0270218Y0058041D01*
X0270180Y0058065D01*
X0270144Y0058091D01*
X0270111Y0058121D01*
X0270080Y0058153D01*
X0270051Y0058188D01*
X0270026Y0058225D01*
X0270005Y0058264D01*
X0269986Y0058305D01*
X0269971Y0058347D01*
X0269960Y0058391D01*
X0269952Y0058435D01*
X0269948Y0058480D01*
X0269948Y0058524D01*
X0269952Y0058569D01*
X0269960Y0058613D01*
X0269971Y0058657D01*
X0269986Y0058699D01*
X0270005Y0058740D01*
X0270026Y0058779D01*
X0270051Y0058816D01*
X0270080Y0058851D01*
X0270111Y0058883D01*
X0270144Y0058913D01*
X0270180Y0058939D01*
X0270218Y0058963D01*
X0270259Y0058983D01*
X0270300Y0059000D01*
X0270343Y0059013D01*
X0270387Y0059022D01*
X0270431Y0059028D01*
X0270476Y0059030D01*
X0271003Y0059030D01*
X0271003Y0057130D01*
X0272205Y0057658D02*
X0272205Y0058502D01*
X0272207Y0058547D01*
X0272213Y0058591D01*
X0272222Y0058635D01*
X0272235Y0058678D01*
X0272252Y0058719D01*
X0272272Y0058760D01*
X0272296Y0058798D01*
X0272322Y0058834D01*
X0272352Y0058867D01*
X0272384Y0058898D01*
X0272419Y0058927D01*
X0272456Y0058952D01*
X0272495Y0058973D01*
X0272536Y0058992D01*
X0272578Y0059007D01*
X0272622Y0059018D01*
X0272666Y0059026D01*
X0272711Y0059030D01*
X0272755Y0059030D01*
X0272800Y0059026D01*
X0272844Y0059018D01*
X0272888Y0059007D01*
X0272930Y0058992D01*
X0272971Y0058973D01*
X0273010Y0058952D01*
X0273047Y0058927D01*
X0273082Y0058898D01*
X0273114Y0058867D01*
X0273144Y0058834D01*
X0273170Y0058798D01*
X0273194Y0058760D01*
X0273214Y0058719D01*
X0273231Y0058678D01*
X0273244Y0058635D01*
X0273253Y0058591D01*
X0273259Y0058547D01*
X0273261Y0058502D01*
X0273260Y0058502D02*
X0273260Y0057658D01*
X0273261Y0057658D02*
X0273259Y0057613D01*
X0273253Y0057569D01*
X0273244Y0057525D01*
X0273231Y0057482D01*
X0273214Y0057441D01*
X0273194Y0057400D01*
X0273170Y0057362D01*
X0273144Y0057326D01*
X0273114Y0057293D01*
X0273082Y0057262D01*
X0273047Y0057233D01*
X0273010Y0057208D01*
X0272971Y0057187D01*
X0272930Y0057168D01*
X0272888Y0057153D01*
X0272844Y0057142D01*
X0272800Y0057134D01*
X0272755Y0057130D01*
X0272711Y0057130D01*
X0272666Y0057134D01*
X0272622Y0057142D01*
X0272578Y0057153D01*
X0272536Y0057168D01*
X0272495Y0057187D01*
X0272456Y0057208D01*
X0272419Y0057233D01*
X0272384Y0057262D01*
X0272352Y0057293D01*
X0272322Y0057326D01*
X0272296Y0057362D01*
X0272272Y0057400D01*
X0272252Y0057441D01*
X0272235Y0057482D01*
X0272222Y0057525D01*
X0272213Y0057569D01*
X0272207Y0057613D01*
X0272205Y0057658D01*
X0274208Y0057130D02*
X0275053Y0057130D01*
X0275053Y0059030D01*
X0100750Y0117301D02*
X0100750Y0117829D01*
X0100748Y0117874D01*
X0100742Y0117918D01*
X0100733Y0117962D01*
X0100720Y0118005D01*
X0100703Y0118046D01*
X0100683Y0118087D01*
X0100659Y0118125D01*
X0100633Y0118161D01*
X0100603Y0118194D01*
X0100571Y0118225D01*
X0100536Y0118254D01*
X0100499Y0118279D01*
X0100460Y0118300D01*
X0100419Y0118319D01*
X0100377Y0118334D01*
X0100333Y0118345D01*
X0100289Y0118353D01*
X0100244Y0118357D01*
X0100200Y0118357D01*
X0100155Y0118353D01*
X0100111Y0118345D01*
X0100067Y0118334D01*
X0100025Y0118319D01*
X0099984Y0118300D01*
X0099945Y0118279D01*
X0099908Y0118254D01*
X0099873Y0118225D01*
X0099841Y0118194D01*
X0099811Y0118161D01*
X0099785Y0118125D01*
X0099761Y0118087D01*
X0099741Y0118046D01*
X0099724Y0118005D01*
X0099711Y0117962D01*
X0099702Y0117918D01*
X0099696Y0117874D01*
X0099694Y0117829D01*
X0099694Y0117301D01*
X0098850Y0117301D02*
X0100750Y0117301D01*
X0100750Y0119411D02*
X0098850Y0119411D01*
X0099906Y0119411D02*
X0099906Y0120255D01*
X0100750Y0120255D02*
X0100750Y0119411D01*
X0100328Y0121203D02*
X0100750Y0121731D01*
X0098850Y0121731D01*
X0098850Y0121203D02*
X0098850Y0122259D01*
X0075750Y0120255D02*
X0075750Y0119411D01*
X0073850Y0119411D01*
X0074906Y0119411D02*
X0074906Y0120255D01*
X0074800Y0122259D02*
X0074729Y0122257D01*
X0074658Y0122253D01*
X0074588Y0122245D01*
X0074517Y0122233D01*
X0074448Y0122219D01*
X0074379Y0122201D01*
X0074311Y0122181D01*
X0074244Y0122157D01*
X0074178Y0122130D01*
X0074114Y0122101D01*
X0074080Y0122087D01*
X0074046Y0122070D01*
X0074015Y0122050D01*
X0073986Y0122027D01*
X0073958Y0122001D01*
X0073934Y0121973D01*
X0073912Y0121943D01*
X0073894Y0121911D01*
X0073878Y0121877D01*
X0073866Y0121841D01*
X0073857Y0121805D01*
X0073852Y0121768D01*
X0073850Y0121731D01*
X0073852Y0121694D01*
X0073857Y0121657D01*
X0073866Y0121621D01*
X0073878Y0121585D01*
X0073894Y0121551D01*
X0073912Y0121519D01*
X0073934Y0121489D01*
X0073958Y0121461D01*
X0073986Y0121435D01*
X0074015Y0121412D01*
X0074046Y0121392D01*
X0074080Y0121375D01*
X0074114Y0121361D01*
X0074272Y0121309D02*
X0075328Y0122153D01*
X0075486Y0122101D02*
X0075520Y0122087D01*
X0075554Y0122070D01*
X0075585Y0122050D01*
X0075614Y0122027D01*
X0075641Y0122001D01*
X0075666Y0121973D01*
X0075688Y0121943D01*
X0075706Y0121911D01*
X0075722Y0121877D01*
X0075734Y0121841D01*
X0075743Y0121805D01*
X0075748Y0121768D01*
X0075750Y0121731D01*
X0075748Y0121694D01*
X0075743Y0121657D01*
X0075734Y0121621D01*
X0075722Y0121585D01*
X0075706Y0121551D01*
X0075688Y0121519D01*
X0075666Y0121489D01*
X0075641Y0121461D01*
X0075614Y0121435D01*
X0075585Y0121412D01*
X0075554Y0121392D01*
X0075520Y0121375D01*
X0075486Y0121361D01*
X0075486Y0122101D02*
X0075422Y0122130D01*
X0075356Y0122157D01*
X0075289Y0122181D01*
X0075221Y0122201D01*
X0075152Y0122219D01*
X0075083Y0122233D01*
X0075012Y0122245D01*
X0074942Y0122253D01*
X0074871Y0122257D01*
X0074800Y0122259D01*
X0074800Y0121203D02*
X0074871Y0121205D01*
X0074942Y0121209D01*
X0075012Y0121217D01*
X0075083Y0121229D01*
X0075152Y0121243D01*
X0075221Y0121261D01*
X0075289Y0121281D01*
X0075356Y0121305D01*
X0075422Y0121332D01*
X0075486Y0121361D01*
X0074800Y0121203D02*
X0074729Y0121205D01*
X0074658Y0121209D01*
X0074588Y0121217D01*
X0074517Y0121229D01*
X0074448Y0121243D01*
X0074379Y0121261D01*
X0074311Y0121281D01*
X0074244Y0121305D01*
X0074178Y0121332D01*
X0074114Y0121361D01*
X0074694Y0117829D02*
X0074694Y0117301D01*
X0074694Y0117829D02*
X0074696Y0117874D01*
X0074702Y0117918D01*
X0074711Y0117962D01*
X0074724Y0118005D01*
X0074741Y0118046D01*
X0074761Y0118087D01*
X0074785Y0118125D01*
X0074811Y0118161D01*
X0074841Y0118194D01*
X0074873Y0118225D01*
X0074908Y0118254D01*
X0074945Y0118279D01*
X0074984Y0118300D01*
X0075025Y0118319D01*
X0075067Y0118334D01*
X0075111Y0118345D01*
X0075155Y0118353D01*
X0075200Y0118357D01*
X0075244Y0118357D01*
X0075289Y0118353D01*
X0075333Y0118345D01*
X0075377Y0118334D01*
X0075419Y0118319D01*
X0075460Y0118300D01*
X0075499Y0118279D01*
X0075536Y0118254D01*
X0075571Y0118225D01*
X0075603Y0118194D01*
X0075633Y0118161D01*
X0075659Y0118125D01*
X0075683Y0118087D01*
X0075703Y0118046D01*
X0075720Y0118005D01*
X0075733Y0117962D01*
X0075742Y0117918D01*
X0075748Y0117874D01*
X0075750Y0117829D01*
X0075750Y0117301D01*
X0073850Y0117301D01*
X0090104Y0106502D02*
X0090104Y0105658D01*
X0090106Y0105614D01*
X0090111Y0105571D01*
X0090120Y0105528D01*
X0090133Y0105487D01*
X0090148Y0105446D01*
X0090168Y0105407D01*
X0090190Y0105369D01*
X0090215Y0105334D01*
X0090244Y0105300D01*
X0090274Y0105270D01*
X0090308Y0105241D01*
X0090343Y0105216D01*
X0090381Y0105194D01*
X0090420Y0105174D01*
X0090461Y0105159D01*
X0090502Y0105146D01*
X0090545Y0105137D01*
X0090588Y0105132D01*
X0090632Y0105130D01*
X0091160Y0105130D01*
X0091160Y0107030D01*
X0090632Y0107030D01*
X0090588Y0107028D01*
X0090545Y0107023D01*
X0090502Y0107014D01*
X0090461Y0107001D01*
X0090420Y0106986D01*
X0090381Y0106966D01*
X0090343Y0106944D01*
X0090308Y0106919D01*
X0090274Y0106890D01*
X0090244Y0106860D01*
X0090215Y0106826D01*
X0090190Y0106791D01*
X0090168Y0106753D01*
X0090148Y0106714D01*
X0090133Y0106673D01*
X0090120Y0106632D01*
X0090111Y0106589D01*
X0090106Y0106546D01*
X0090104Y0106502D01*
X0092180Y0107030D02*
X0093024Y0107030D01*
X0093024Y0105130D01*
X0092180Y0105130D01*
X0092391Y0106185D02*
X0093024Y0106185D01*
X0094051Y0105130D02*
X0094896Y0105130D01*
X0094896Y0107030D01*
X0089431Y0084030D02*
X0089470Y0084028D01*
X0089509Y0084023D01*
X0089546Y0084014D01*
X0089583Y0084002D01*
X0089619Y0083986D01*
X0089653Y0083967D01*
X0089685Y0083945D01*
X0089715Y0083920D01*
X0089743Y0083892D01*
X0089768Y0083862D01*
X0089790Y0083830D01*
X0089809Y0083796D01*
X0089825Y0083760D01*
X0089837Y0083723D01*
X0089846Y0083686D01*
X0089851Y0083647D01*
X0089853Y0083608D01*
X0089642Y0083238D02*
X0089062Y0082922D01*
X0089273Y0082130D02*
X0089332Y0082132D01*
X0089390Y0082138D01*
X0089448Y0082147D01*
X0089505Y0082161D01*
X0089561Y0082178D01*
X0089616Y0082199D01*
X0089669Y0082223D01*
X0089721Y0082251D01*
X0089771Y0082282D01*
X0089818Y0082316D01*
X0089864Y0082354D01*
X0089906Y0082394D01*
X0089061Y0082922D02*
X0089027Y0082899D01*
X0088996Y0082874D01*
X0088967Y0082846D01*
X0088940Y0082815D01*
X0088917Y0082782D01*
X0088897Y0082747D01*
X0088880Y0082710D01*
X0088867Y0082672D01*
X0088858Y0082633D01*
X0088852Y0082592D01*
X0088850Y0082552D01*
X0088851Y0082552D02*
X0088853Y0082513D01*
X0088858Y0082474D01*
X0088867Y0082437D01*
X0088879Y0082400D01*
X0088895Y0082364D01*
X0088914Y0082330D01*
X0088936Y0082298D01*
X0088961Y0082268D01*
X0088989Y0082240D01*
X0089019Y0082215D01*
X0089051Y0082193D01*
X0089085Y0082174D01*
X0089121Y0082158D01*
X0089158Y0082146D01*
X0089195Y0082137D01*
X0089234Y0082132D01*
X0089273Y0082130D01*
X0088956Y0083872D02*
X0088998Y0083901D01*
X0089041Y0083927D01*
X0089086Y0083951D01*
X0089133Y0083972D01*
X0089181Y0083989D01*
X0089229Y0084004D01*
X0089279Y0084015D01*
X0089329Y0084023D01*
X0089380Y0084028D01*
X0089431Y0084030D01*
X0089853Y0083608D02*
X0089851Y0083568D01*
X0089845Y0083527D01*
X0089836Y0083488D01*
X0089823Y0083450D01*
X0089806Y0083413D01*
X0089786Y0083378D01*
X0089763Y0083345D01*
X0089736Y0083314D01*
X0089707Y0083286D01*
X0089676Y0083261D01*
X0089642Y0083238D01*
X0087829Y0083608D02*
X0087829Y0082552D01*
X0087827Y0082513D01*
X0087822Y0082474D01*
X0087813Y0082437D01*
X0087801Y0082400D01*
X0087785Y0082364D01*
X0087766Y0082330D01*
X0087744Y0082298D01*
X0087719Y0082268D01*
X0087691Y0082240D01*
X0087661Y0082215D01*
X0087629Y0082193D01*
X0087595Y0082174D01*
X0087559Y0082158D01*
X0087522Y0082146D01*
X0087485Y0082137D01*
X0087446Y0082132D01*
X0087407Y0082130D01*
X0086985Y0082130D01*
X0085938Y0082130D02*
X0085094Y0082130D01*
X0085938Y0082130D02*
X0085938Y0084030D01*
X0086985Y0084030D02*
X0087407Y0084030D01*
X0087446Y0084028D01*
X0087485Y0084023D01*
X0087522Y0084014D01*
X0087559Y0084002D01*
X0087595Y0083986D01*
X0087629Y0083967D01*
X0087661Y0083945D01*
X0087691Y0083920D01*
X0087719Y0083892D01*
X0087744Y0083862D01*
X0087766Y0083830D01*
X0087785Y0083796D01*
X0087801Y0083760D01*
X0087813Y0083723D01*
X0087822Y0083686D01*
X0087827Y0083647D01*
X0087829Y0083608D01*
X0088117Y0059030D02*
X0087589Y0059030D01*
X0088117Y0059030D02*
X0088117Y0057130D01*
X0087589Y0057130D01*
X0087545Y0057132D01*
X0087502Y0057137D01*
X0087459Y0057146D01*
X0087418Y0057159D01*
X0087377Y0057174D01*
X0087338Y0057194D01*
X0087300Y0057216D01*
X0087265Y0057241D01*
X0087231Y0057270D01*
X0087201Y0057300D01*
X0087172Y0057334D01*
X0087147Y0057369D01*
X0087125Y0057407D01*
X0087105Y0057446D01*
X0087090Y0057487D01*
X0087077Y0057528D01*
X0087068Y0057571D01*
X0087063Y0057614D01*
X0087061Y0057658D01*
X0087061Y0058502D01*
X0087063Y0058546D01*
X0087068Y0058589D01*
X0087077Y0058632D01*
X0087090Y0058673D01*
X0087105Y0058714D01*
X0087125Y0058753D01*
X0087147Y0058791D01*
X0087172Y0058826D01*
X0087201Y0058860D01*
X0087231Y0058890D01*
X0087265Y0058919D01*
X0087300Y0058944D01*
X0087338Y0058966D01*
X0087377Y0058986D01*
X0087418Y0059001D01*
X0087459Y0059014D01*
X0087502Y0059023D01*
X0087545Y0059028D01*
X0087589Y0059030D01*
X0089432Y0057922D02*
X0090013Y0058238D01*
X0089802Y0059030D02*
X0089751Y0059028D01*
X0089700Y0059023D01*
X0089650Y0059015D01*
X0089600Y0059004D01*
X0089552Y0058989D01*
X0089504Y0058972D01*
X0089457Y0058951D01*
X0089412Y0058927D01*
X0089369Y0058901D01*
X0089327Y0058872D01*
X0090013Y0058238D02*
X0090047Y0058261D01*
X0090078Y0058286D01*
X0090107Y0058314D01*
X0090134Y0058345D01*
X0090157Y0058378D01*
X0090177Y0058413D01*
X0090194Y0058450D01*
X0090207Y0058488D01*
X0090216Y0058527D01*
X0090222Y0058568D01*
X0090224Y0058608D01*
X0090222Y0058647D01*
X0090217Y0058686D01*
X0090208Y0058723D01*
X0090196Y0058760D01*
X0090180Y0058796D01*
X0090161Y0058830D01*
X0090139Y0058862D01*
X0090114Y0058892D01*
X0090086Y0058920D01*
X0090056Y0058945D01*
X0090024Y0058967D01*
X0089990Y0058986D01*
X0089954Y0059002D01*
X0089917Y0059014D01*
X0089880Y0059023D01*
X0089841Y0059028D01*
X0089802Y0059030D01*
X0090276Y0057394D02*
X0090234Y0057354D01*
X0090188Y0057316D01*
X0090141Y0057282D01*
X0090091Y0057251D01*
X0090039Y0057223D01*
X0089986Y0057199D01*
X0089931Y0057178D01*
X0089875Y0057161D01*
X0089818Y0057147D01*
X0089760Y0057138D01*
X0089702Y0057132D01*
X0089643Y0057130D01*
X0089604Y0057132D01*
X0089565Y0057137D01*
X0089528Y0057146D01*
X0089491Y0057158D01*
X0089455Y0057174D01*
X0089421Y0057193D01*
X0089389Y0057215D01*
X0089359Y0057240D01*
X0089331Y0057268D01*
X0089306Y0057298D01*
X0089284Y0057330D01*
X0089265Y0057364D01*
X0089249Y0057400D01*
X0089237Y0057437D01*
X0089228Y0057474D01*
X0089223Y0057513D01*
X0089221Y0057552D01*
X0089223Y0057592D01*
X0089229Y0057633D01*
X0089238Y0057672D01*
X0089251Y0057710D01*
X0089268Y0057747D01*
X0089288Y0057782D01*
X0089311Y0057815D01*
X0089338Y0057846D01*
X0089367Y0057874D01*
X0089398Y0057899D01*
X0089432Y0057922D01*
X0085990Y0057130D02*
X0085357Y0059030D01*
X0084723Y0057130D01*
X0084882Y0057605D02*
X0085832Y0057605D01*
X0075750Y0041428D02*
X0073850Y0040161D01*
X0073850Y0039187D02*
X0074694Y0038765D01*
X0074694Y0038660D02*
X0074694Y0038132D01*
X0074694Y0038660D02*
X0074696Y0038705D01*
X0074702Y0038749D01*
X0074711Y0038793D01*
X0074724Y0038836D01*
X0074741Y0038877D01*
X0074761Y0038918D01*
X0074785Y0038956D01*
X0074811Y0038992D01*
X0074841Y0039025D01*
X0074873Y0039056D01*
X0074908Y0039085D01*
X0074945Y0039110D01*
X0074984Y0039131D01*
X0075025Y0039150D01*
X0075067Y0039165D01*
X0075111Y0039176D01*
X0075155Y0039184D01*
X0075200Y0039188D01*
X0075244Y0039188D01*
X0075289Y0039184D01*
X0075333Y0039176D01*
X0075377Y0039165D01*
X0075419Y0039150D01*
X0075460Y0039131D01*
X0075499Y0039110D01*
X0075536Y0039085D01*
X0075571Y0039056D01*
X0075603Y0039025D01*
X0075633Y0038992D01*
X0075659Y0038956D01*
X0075683Y0038918D01*
X0075703Y0038877D01*
X0075720Y0038836D01*
X0075733Y0038793D01*
X0075742Y0038749D01*
X0075748Y0038705D01*
X0075750Y0038660D01*
X0075750Y0038132D01*
X0073850Y0038132D01*
X0075750Y0040161D02*
X0073850Y0041428D01*
X0050150Y0041368D02*
X0048250Y0040102D01*
X0048250Y0041368D02*
X0050150Y0040102D01*
X0050150Y0039247D02*
X0050150Y0038191D01*
X0050150Y0038719D02*
X0048250Y0038719D01*
X0047065Y0075530D02*
X0046643Y0075530D01*
X0046854Y0075530D02*
X0046854Y0077430D01*
X0047065Y0077430D02*
X0046643Y0077430D01*
X0045544Y0077430D02*
X0044910Y0076374D01*
X0044277Y0077430D01*
X0044277Y0075530D01*
X0045544Y0075530D02*
X0045544Y0077430D01*
X0042990Y0077430D02*
X0042990Y0076058D01*
X0042988Y0076013D01*
X0042982Y0075969D01*
X0042973Y0075925D01*
X0042960Y0075882D01*
X0042943Y0075841D01*
X0042923Y0075800D01*
X0042899Y0075762D01*
X0042873Y0075726D01*
X0042843Y0075693D01*
X0042811Y0075662D01*
X0042776Y0075633D01*
X0042739Y0075608D01*
X0042700Y0075587D01*
X0042659Y0075568D01*
X0042617Y0075553D01*
X0042573Y0075542D01*
X0042529Y0075534D01*
X0042484Y0075530D01*
X0042440Y0075530D01*
X0042395Y0075534D01*
X0042351Y0075542D01*
X0042307Y0075553D01*
X0042265Y0075568D01*
X0042224Y0075587D01*
X0042185Y0075608D01*
X0042148Y0075633D01*
X0042113Y0075662D01*
X0042081Y0075693D01*
X0042051Y0075726D01*
X0042025Y0075762D01*
X0042001Y0075800D01*
X0041981Y0075841D01*
X0041964Y0075882D01*
X0041951Y0075925D01*
X0041942Y0075969D01*
X0041936Y0076013D01*
X0041934Y0076058D01*
X0041935Y0076058D02*
X0041935Y0077430D01*
D16*
X0056919Y0049680D02*
X0057786Y0049680D01*
X0056919Y0049680D02*
X0056872Y0049678D01*
X0056826Y0049673D01*
X0056781Y0049663D01*
X0056736Y0049650D01*
X0056692Y0049634D01*
X0056650Y0049614D01*
X0056610Y0049591D01*
X0056572Y0049564D01*
X0056536Y0049535D01*
X0056502Y0049502D01*
X0056471Y0049468D01*
X0056443Y0049430D01*
X0056418Y0049391D01*
X0056397Y0049350D01*
X0056379Y0049307D01*
X0056364Y0049263D01*
X0056353Y0049218D01*
X0056345Y0049172D01*
X0056341Y0049125D01*
X0056341Y0049079D01*
X0056345Y0049032D01*
X0056353Y0048986D01*
X0056364Y0048941D01*
X0056379Y0048897D01*
X0056397Y0048854D01*
X0056418Y0048813D01*
X0056443Y0048774D01*
X0056471Y0048736D01*
X0056502Y0048702D01*
X0056536Y0048669D01*
X0056572Y0048640D01*
X0056610Y0048613D01*
X0056650Y0048590D01*
X0056692Y0048570D01*
X0056736Y0048554D01*
X0056781Y0048541D01*
X0056826Y0048531D01*
X0056872Y0048526D01*
X0056919Y0048524D01*
X0057497Y0048524D01*
X0057064Y0048524D02*
X0057011Y0048522D01*
X0056959Y0048516D01*
X0056907Y0048507D01*
X0056856Y0048493D01*
X0056806Y0048476D01*
X0056758Y0048456D01*
X0056711Y0048432D01*
X0056666Y0048404D01*
X0056623Y0048373D01*
X0056582Y0048340D01*
X0056544Y0048303D01*
X0056509Y0048264D01*
X0056477Y0048222D01*
X0056448Y0048178D01*
X0056422Y0048132D01*
X0056400Y0048084D01*
X0056381Y0048035D01*
X0056365Y0047985D01*
X0056354Y0047933D01*
X0056346Y0047881D01*
X0056342Y0047828D01*
X0056342Y0047776D01*
X0056346Y0047723D01*
X0056354Y0047671D01*
X0056365Y0047619D01*
X0056381Y0047569D01*
X0056400Y0047520D01*
X0056422Y0047472D01*
X0056448Y0047426D01*
X0056477Y0047382D01*
X0056509Y0047340D01*
X0056544Y0047301D01*
X0056582Y0047264D01*
X0056623Y0047231D01*
X0056666Y0047200D01*
X0056711Y0047172D01*
X0056758Y0047148D01*
X0056806Y0047128D01*
X0056856Y0047111D01*
X0056907Y0047097D01*
X0056959Y0047088D01*
X0057011Y0047082D01*
X0057064Y0047080D01*
X0057786Y0047080D01*
X0059044Y0047080D02*
X0059622Y0047080D01*
X0059667Y0047082D01*
X0059712Y0047087D01*
X0059757Y0047096D01*
X0059801Y0047108D01*
X0059843Y0047124D01*
X0059884Y0047143D01*
X0059924Y0047165D01*
X0059962Y0047190D01*
X0059997Y0047218D01*
X0060031Y0047249D01*
X0060062Y0047283D01*
X0060090Y0047318D01*
X0060115Y0047356D01*
X0060137Y0047396D01*
X0060156Y0047437D01*
X0060172Y0047479D01*
X0060184Y0047523D01*
X0060193Y0047568D01*
X0060198Y0047613D01*
X0060200Y0047658D01*
X0060200Y0049102D01*
X0060198Y0049150D01*
X0060192Y0049197D01*
X0060182Y0049244D01*
X0060169Y0049290D01*
X0060151Y0049334D01*
X0060130Y0049377D01*
X0060106Y0049418D01*
X0060078Y0049457D01*
X0060047Y0049493D01*
X0060013Y0049527D01*
X0059977Y0049558D01*
X0059938Y0049586D01*
X0059897Y0049610D01*
X0059854Y0049631D01*
X0059810Y0049649D01*
X0059764Y0049662D01*
X0059717Y0049672D01*
X0059670Y0049678D01*
X0059622Y0049680D01*
X0059044Y0049680D01*
X0054762Y0049102D02*
X0054760Y0049055D01*
X0054755Y0049009D01*
X0054745Y0048964D01*
X0054732Y0048919D01*
X0054716Y0048875D01*
X0054696Y0048833D01*
X0054673Y0048793D01*
X0054646Y0048755D01*
X0054617Y0048719D01*
X0054584Y0048685D01*
X0054550Y0048654D01*
X0054512Y0048626D01*
X0054473Y0048601D01*
X0054432Y0048580D01*
X0054389Y0048562D01*
X0054345Y0048547D01*
X0054300Y0048536D01*
X0054254Y0048528D01*
X0054207Y0048524D01*
X0054161Y0048524D01*
X0054114Y0048528D01*
X0054068Y0048536D01*
X0054023Y0048547D01*
X0053979Y0048562D01*
X0053936Y0048580D01*
X0053895Y0048601D01*
X0053856Y0048626D01*
X0053818Y0048654D01*
X0053784Y0048685D01*
X0053751Y0048719D01*
X0053722Y0048755D01*
X0053695Y0048793D01*
X0053672Y0048833D01*
X0053652Y0048875D01*
X0053636Y0048919D01*
X0053623Y0048964D01*
X0053613Y0049009D01*
X0053608Y0049055D01*
X0053606Y0049102D01*
X0053608Y0049149D01*
X0053613Y0049195D01*
X0053623Y0049240D01*
X0053636Y0049285D01*
X0053652Y0049329D01*
X0053672Y0049371D01*
X0053695Y0049411D01*
X0053722Y0049449D01*
X0053751Y0049485D01*
X0053784Y0049519D01*
X0053818Y0049550D01*
X0053856Y0049578D01*
X0053895Y0049603D01*
X0053936Y0049624D01*
X0053979Y0049642D01*
X0054023Y0049657D01*
X0054068Y0049668D01*
X0054114Y0049676D01*
X0054161Y0049680D01*
X0054207Y0049680D01*
X0054254Y0049676D01*
X0054300Y0049668D01*
X0054345Y0049657D01*
X0054389Y0049642D01*
X0054432Y0049624D01*
X0054473Y0049603D01*
X0054512Y0049578D01*
X0054550Y0049550D01*
X0054584Y0049519D01*
X0054617Y0049485D01*
X0054646Y0049449D01*
X0054673Y0049411D01*
X0054696Y0049371D01*
X0054716Y0049329D01*
X0054732Y0049285D01*
X0054745Y0049240D01*
X0054755Y0049195D01*
X0054760Y0049149D01*
X0054762Y0049102D01*
X0054906Y0047802D02*
X0054904Y0047749D01*
X0054898Y0047697D01*
X0054889Y0047645D01*
X0054875Y0047594D01*
X0054858Y0047544D01*
X0054838Y0047496D01*
X0054814Y0047449D01*
X0054786Y0047404D01*
X0054755Y0047361D01*
X0054722Y0047320D01*
X0054685Y0047282D01*
X0054646Y0047247D01*
X0054604Y0047215D01*
X0054560Y0047186D01*
X0054514Y0047160D01*
X0054466Y0047138D01*
X0054417Y0047119D01*
X0054367Y0047103D01*
X0054315Y0047092D01*
X0054263Y0047084D01*
X0054210Y0047080D01*
X0054158Y0047080D01*
X0054105Y0047084D01*
X0054053Y0047092D01*
X0054001Y0047103D01*
X0053951Y0047119D01*
X0053902Y0047138D01*
X0053854Y0047160D01*
X0053808Y0047186D01*
X0053764Y0047215D01*
X0053722Y0047247D01*
X0053683Y0047282D01*
X0053646Y0047320D01*
X0053613Y0047361D01*
X0053582Y0047404D01*
X0053554Y0047449D01*
X0053530Y0047496D01*
X0053510Y0047544D01*
X0053493Y0047594D01*
X0053479Y0047645D01*
X0053470Y0047697D01*
X0053464Y0047749D01*
X0053462Y0047802D01*
X0053464Y0047855D01*
X0053470Y0047907D01*
X0053479Y0047959D01*
X0053493Y0048010D01*
X0053510Y0048060D01*
X0053530Y0048108D01*
X0053554Y0048155D01*
X0053582Y0048200D01*
X0053613Y0048243D01*
X0053646Y0048284D01*
X0053683Y0048322D01*
X0053722Y0048357D01*
X0053764Y0048389D01*
X0053808Y0048418D01*
X0053854Y0048444D01*
X0053902Y0048466D01*
X0053951Y0048485D01*
X0054001Y0048501D01*
X0054053Y0048512D01*
X0054105Y0048520D01*
X0054158Y0048524D01*
X0054210Y0048524D01*
X0054263Y0048520D01*
X0054315Y0048512D01*
X0054367Y0048501D01*
X0054417Y0048485D01*
X0054466Y0048466D01*
X0054514Y0048444D01*
X0054560Y0048418D01*
X0054604Y0048389D01*
X0054646Y0048357D01*
X0054685Y0048322D01*
X0054722Y0048284D01*
X0054755Y0048243D01*
X0054786Y0048200D01*
X0054814Y0048155D01*
X0054838Y0048108D01*
X0054858Y0048060D01*
X0054875Y0048010D01*
X0054889Y0047959D01*
X0054898Y0047907D01*
X0054904Y0047855D01*
X0054906Y0047802D01*
X0062342Y0047580D02*
X0063786Y0047580D01*
X0063064Y0047580D02*
X0063064Y0050180D01*
X0063786Y0049602D01*
X0065044Y0050180D02*
X0065622Y0050180D01*
X0065670Y0050178D01*
X0065717Y0050172D01*
X0065764Y0050162D01*
X0065810Y0050149D01*
X0065854Y0050131D01*
X0065897Y0050110D01*
X0065938Y0050086D01*
X0065977Y0050058D01*
X0066013Y0050027D01*
X0066047Y0049993D01*
X0066078Y0049957D01*
X0066106Y0049918D01*
X0066130Y0049877D01*
X0066151Y0049834D01*
X0066169Y0049790D01*
X0066182Y0049744D01*
X0066192Y0049697D01*
X0066198Y0049650D01*
X0066200Y0049602D01*
X0066200Y0048158D01*
X0066198Y0048113D01*
X0066193Y0048068D01*
X0066184Y0048023D01*
X0066172Y0047979D01*
X0066156Y0047937D01*
X0066137Y0047896D01*
X0066115Y0047856D01*
X0066090Y0047818D01*
X0066062Y0047783D01*
X0066031Y0047749D01*
X0065997Y0047718D01*
X0065962Y0047690D01*
X0065924Y0047665D01*
X0065884Y0047643D01*
X0065843Y0047624D01*
X0065801Y0047608D01*
X0065757Y0047596D01*
X0065712Y0047587D01*
X0065667Y0047582D01*
X0065622Y0047580D01*
X0065044Y0047580D01*
X0075822Y0030480D02*
X0075769Y0030478D01*
X0075717Y0030472D01*
X0075665Y0030463D01*
X0075614Y0030449D01*
X0075564Y0030432D01*
X0075516Y0030412D01*
X0075469Y0030388D01*
X0075424Y0030360D01*
X0075381Y0030329D01*
X0075340Y0030296D01*
X0075302Y0030259D01*
X0075267Y0030220D01*
X0075235Y0030178D01*
X0075206Y0030134D01*
X0075180Y0030088D01*
X0075158Y0030040D01*
X0075139Y0029991D01*
X0075123Y0029941D01*
X0075112Y0029889D01*
X0075104Y0029837D01*
X0075100Y0029784D01*
X0075100Y0029732D01*
X0075104Y0029679D01*
X0075112Y0029627D01*
X0075123Y0029575D01*
X0075139Y0029525D01*
X0075158Y0029476D01*
X0075180Y0029428D01*
X0075206Y0029382D01*
X0075235Y0029338D01*
X0075267Y0029296D01*
X0075302Y0029257D01*
X0075340Y0029220D01*
X0075381Y0029187D01*
X0075424Y0029156D01*
X0075469Y0029128D01*
X0075516Y0029104D01*
X0075564Y0029084D01*
X0075614Y0029067D01*
X0075665Y0029053D01*
X0075717Y0029044D01*
X0075769Y0029038D01*
X0075822Y0029036D01*
X0075875Y0029038D01*
X0075927Y0029044D01*
X0075979Y0029053D01*
X0076030Y0029067D01*
X0076080Y0029084D01*
X0076128Y0029104D01*
X0076175Y0029128D01*
X0076220Y0029156D01*
X0076263Y0029187D01*
X0076304Y0029220D01*
X0076342Y0029257D01*
X0076377Y0029296D01*
X0076409Y0029338D01*
X0076438Y0029382D01*
X0076464Y0029428D01*
X0076486Y0029476D01*
X0076505Y0029525D01*
X0076521Y0029575D01*
X0076532Y0029627D01*
X0076540Y0029679D01*
X0076544Y0029732D01*
X0076544Y0029784D01*
X0076540Y0029837D01*
X0076532Y0029889D01*
X0076521Y0029941D01*
X0076505Y0029991D01*
X0076486Y0030040D01*
X0076464Y0030088D01*
X0076438Y0030134D01*
X0076409Y0030178D01*
X0076377Y0030220D01*
X0076342Y0030259D01*
X0076304Y0030296D01*
X0076263Y0030329D01*
X0076220Y0030360D01*
X0076175Y0030388D01*
X0076128Y0030412D01*
X0076080Y0030432D01*
X0076030Y0030449D01*
X0075979Y0030463D01*
X0075927Y0030472D01*
X0075875Y0030478D01*
X0075822Y0030480D01*
X0077122Y0030336D02*
X0077075Y0030334D01*
X0077029Y0030329D01*
X0076984Y0030319D01*
X0076939Y0030306D01*
X0076895Y0030290D01*
X0076853Y0030270D01*
X0076813Y0030247D01*
X0076775Y0030220D01*
X0076739Y0030191D01*
X0076705Y0030158D01*
X0076674Y0030124D01*
X0076646Y0030086D01*
X0076621Y0030047D01*
X0076600Y0030006D01*
X0076582Y0029963D01*
X0076567Y0029919D01*
X0076556Y0029874D01*
X0076548Y0029828D01*
X0076544Y0029781D01*
X0076544Y0029735D01*
X0076548Y0029688D01*
X0076556Y0029642D01*
X0076567Y0029597D01*
X0076582Y0029553D01*
X0076600Y0029510D01*
X0076621Y0029469D01*
X0076646Y0029430D01*
X0076674Y0029392D01*
X0076705Y0029358D01*
X0076739Y0029325D01*
X0076775Y0029296D01*
X0076813Y0029269D01*
X0076853Y0029246D01*
X0076895Y0029226D01*
X0076939Y0029210D01*
X0076984Y0029197D01*
X0077029Y0029187D01*
X0077075Y0029182D01*
X0077122Y0029180D01*
X0077169Y0029182D01*
X0077215Y0029187D01*
X0077260Y0029197D01*
X0077305Y0029210D01*
X0077349Y0029226D01*
X0077391Y0029246D01*
X0077431Y0029269D01*
X0077469Y0029296D01*
X0077505Y0029325D01*
X0077539Y0029358D01*
X0077570Y0029392D01*
X0077598Y0029430D01*
X0077623Y0029469D01*
X0077644Y0029510D01*
X0077662Y0029553D01*
X0077677Y0029597D01*
X0077688Y0029642D01*
X0077696Y0029688D01*
X0077700Y0029735D01*
X0077700Y0029781D01*
X0077696Y0029828D01*
X0077688Y0029874D01*
X0077677Y0029919D01*
X0077662Y0029963D01*
X0077644Y0030006D01*
X0077623Y0030047D01*
X0077598Y0030086D01*
X0077570Y0030124D01*
X0077539Y0030158D01*
X0077505Y0030191D01*
X0077469Y0030220D01*
X0077431Y0030247D01*
X0077391Y0030270D01*
X0077349Y0030290D01*
X0077305Y0030306D01*
X0077260Y0030319D01*
X0077215Y0030329D01*
X0077169Y0030334D01*
X0077122Y0030336D01*
X0075100Y0027631D02*
X0076256Y0027053D01*
X0076256Y0026909D02*
X0076256Y0026186D01*
X0076256Y0026909D02*
X0076258Y0026962D01*
X0076264Y0027014D01*
X0076273Y0027066D01*
X0076287Y0027117D01*
X0076304Y0027167D01*
X0076324Y0027215D01*
X0076348Y0027262D01*
X0076376Y0027307D01*
X0076407Y0027350D01*
X0076440Y0027391D01*
X0076477Y0027429D01*
X0076516Y0027464D01*
X0076558Y0027496D01*
X0076602Y0027525D01*
X0076648Y0027551D01*
X0076696Y0027573D01*
X0076745Y0027592D01*
X0076795Y0027608D01*
X0076847Y0027619D01*
X0076899Y0027627D01*
X0076952Y0027631D01*
X0077004Y0027631D01*
X0077057Y0027627D01*
X0077109Y0027619D01*
X0077161Y0027608D01*
X0077211Y0027592D01*
X0077260Y0027573D01*
X0077308Y0027551D01*
X0077354Y0027525D01*
X0077398Y0027496D01*
X0077440Y0027464D01*
X0077479Y0027429D01*
X0077516Y0027391D01*
X0077549Y0027350D01*
X0077580Y0027307D01*
X0077608Y0027262D01*
X0077632Y0027215D01*
X0077652Y0027167D01*
X0077669Y0027117D01*
X0077683Y0027066D01*
X0077692Y0027014D01*
X0077698Y0026962D01*
X0077700Y0026909D01*
X0077700Y0026186D01*
X0075100Y0026186D01*
X0114100Y0027186D02*
X0116700Y0027186D01*
X0116700Y0027909D01*
X0116698Y0027962D01*
X0116692Y0028014D01*
X0116683Y0028066D01*
X0116669Y0028117D01*
X0116652Y0028167D01*
X0116632Y0028215D01*
X0116608Y0028262D01*
X0116580Y0028307D01*
X0116549Y0028350D01*
X0116516Y0028391D01*
X0116479Y0028429D01*
X0116440Y0028464D01*
X0116398Y0028496D01*
X0116354Y0028525D01*
X0116308Y0028551D01*
X0116260Y0028573D01*
X0116211Y0028592D01*
X0116161Y0028608D01*
X0116109Y0028619D01*
X0116057Y0028627D01*
X0116004Y0028631D01*
X0115952Y0028631D01*
X0115899Y0028627D01*
X0115847Y0028619D01*
X0115795Y0028608D01*
X0115745Y0028592D01*
X0115696Y0028573D01*
X0115648Y0028551D01*
X0115602Y0028525D01*
X0115558Y0028496D01*
X0115516Y0028464D01*
X0115477Y0028429D01*
X0115440Y0028391D01*
X0115407Y0028350D01*
X0115376Y0028307D01*
X0115348Y0028262D01*
X0115324Y0028215D01*
X0115304Y0028167D01*
X0115287Y0028117D01*
X0115273Y0028066D01*
X0115264Y0028014D01*
X0115258Y0027962D01*
X0115256Y0027909D01*
X0115256Y0027186D01*
X0115256Y0028053D02*
X0114100Y0028631D01*
X0114100Y0030758D02*
X0116700Y0031480D01*
X0116700Y0030035D01*
X0116411Y0030035D01*
X0175300Y0038080D02*
X0177900Y0038080D01*
X0177900Y0038802D01*
X0177898Y0038855D01*
X0177892Y0038907D01*
X0177883Y0038959D01*
X0177869Y0039010D01*
X0177852Y0039060D01*
X0177832Y0039108D01*
X0177808Y0039155D01*
X0177780Y0039200D01*
X0177749Y0039243D01*
X0177716Y0039284D01*
X0177679Y0039322D01*
X0177640Y0039357D01*
X0177598Y0039389D01*
X0177554Y0039418D01*
X0177508Y0039444D01*
X0177460Y0039466D01*
X0177411Y0039485D01*
X0177361Y0039501D01*
X0177309Y0039512D01*
X0177257Y0039520D01*
X0177204Y0039524D01*
X0177152Y0039524D01*
X0177099Y0039520D01*
X0177047Y0039512D01*
X0176995Y0039501D01*
X0176945Y0039485D01*
X0176896Y0039466D01*
X0176848Y0039444D01*
X0176802Y0039418D01*
X0176758Y0039389D01*
X0176716Y0039357D01*
X0176677Y0039322D01*
X0176640Y0039284D01*
X0176607Y0039243D01*
X0176576Y0039200D01*
X0176548Y0039155D01*
X0176524Y0039108D01*
X0176504Y0039060D01*
X0176487Y0039010D01*
X0176473Y0038959D01*
X0176464Y0038907D01*
X0176458Y0038855D01*
X0176456Y0038802D01*
X0176456Y0038080D01*
X0176456Y0038947D02*
X0175300Y0039524D01*
X0175300Y0041218D02*
X0175302Y0041285D01*
X0175308Y0041352D01*
X0175318Y0041419D01*
X0175331Y0041485D01*
X0175349Y0041550D01*
X0175370Y0041613D01*
X0175395Y0041676D01*
X0175423Y0041737D01*
X0175455Y0041796D01*
X0175490Y0041853D01*
X0175529Y0041908D01*
X0175570Y0041961D01*
X0175615Y0042011D01*
X0175663Y0042059D01*
X0175713Y0042104D01*
X0175766Y0042145D01*
X0175821Y0042184D01*
X0175878Y0042219D01*
X0175937Y0042251D01*
X0175998Y0042279D01*
X0176061Y0042304D01*
X0176124Y0042325D01*
X0176189Y0042343D01*
X0176255Y0042356D01*
X0176322Y0042366D01*
X0176389Y0042372D01*
X0176456Y0042374D01*
X0176456Y0042373D02*
X0177178Y0042373D01*
X0177231Y0042371D01*
X0177283Y0042365D01*
X0177335Y0042356D01*
X0177386Y0042342D01*
X0177436Y0042325D01*
X0177484Y0042305D01*
X0177531Y0042281D01*
X0177576Y0042253D01*
X0177619Y0042222D01*
X0177660Y0042189D01*
X0177698Y0042152D01*
X0177733Y0042113D01*
X0177765Y0042071D01*
X0177794Y0042027D01*
X0177820Y0041981D01*
X0177842Y0041933D01*
X0177861Y0041884D01*
X0177877Y0041834D01*
X0177888Y0041782D01*
X0177896Y0041730D01*
X0177900Y0041677D01*
X0177900Y0041625D01*
X0177896Y0041572D01*
X0177888Y0041520D01*
X0177877Y0041468D01*
X0177861Y0041418D01*
X0177842Y0041369D01*
X0177820Y0041321D01*
X0177794Y0041275D01*
X0177765Y0041231D01*
X0177733Y0041189D01*
X0177698Y0041150D01*
X0177660Y0041113D01*
X0177619Y0041080D01*
X0177576Y0041049D01*
X0177531Y0041021D01*
X0177484Y0040997D01*
X0177436Y0040977D01*
X0177386Y0040960D01*
X0177335Y0040946D01*
X0177283Y0040937D01*
X0177231Y0040931D01*
X0177178Y0040929D01*
X0177033Y0040929D01*
X0176988Y0040931D01*
X0176943Y0040936D01*
X0176898Y0040945D01*
X0176854Y0040957D01*
X0176812Y0040973D01*
X0176771Y0040992D01*
X0176731Y0041014D01*
X0176693Y0041039D01*
X0176658Y0041067D01*
X0176624Y0041098D01*
X0176593Y0041132D01*
X0176565Y0041167D01*
X0176540Y0041205D01*
X0176518Y0041245D01*
X0176499Y0041286D01*
X0176483Y0041328D01*
X0176471Y0041372D01*
X0176462Y0041417D01*
X0176457Y0041462D01*
X0176455Y0041507D01*
X0176456Y0041507D02*
X0176456Y0042373D01*
X0184340Y0050580D02*
X0184340Y0051735D01*
X0183907Y0051158D02*
X0185351Y0051158D01*
X0184773Y0053180D01*
X0187478Y0053180D02*
X0188200Y0053180D01*
X0188200Y0050580D01*
X0188200Y0051735D02*
X0187478Y0051735D01*
X0187333Y0051735D02*
X0186756Y0050580D01*
X0187478Y0051736D02*
X0187425Y0051738D01*
X0187373Y0051744D01*
X0187321Y0051753D01*
X0187270Y0051767D01*
X0187220Y0051784D01*
X0187172Y0051804D01*
X0187125Y0051828D01*
X0187080Y0051856D01*
X0187037Y0051887D01*
X0186996Y0051920D01*
X0186958Y0051957D01*
X0186923Y0051996D01*
X0186891Y0052038D01*
X0186862Y0052082D01*
X0186836Y0052128D01*
X0186814Y0052176D01*
X0186795Y0052225D01*
X0186779Y0052275D01*
X0186768Y0052327D01*
X0186760Y0052379D01*
X0186756Y0052432D01*
X0186756Y0052484D01*
X0186760Y0052537D01*
X0186768Y0052589D01*
X0186779Y0052641D01*
X0186795Y0052691D01*
X0186814Y0052740D01*
X0186836Y0052788D01*
X0186862Y0052834D01*
X0186891Y0052878D01*
X0186923Y0052920D01*
X0186958Y0052959D01*
X0186996Y0052996D01*
X0187037Y0053029D01*
X0187080Y0053060D01*
X0187125Y0053088D01*
X0187172Y0053112D01*
X0187220Y0053132D01*
X0187270Y0053149D01*
X0187321Y0053163D01*
X0187373Y0053172D01*
X0187425Y0053178D01*
X0187478Y0053180D01*
X0195661Y0044026D02*
X0195741Y0043989D01*
X0195823Y0043955D01*
X0195906Y0043925D01*
X0195990Y0043898D01*
X0196075Y0043874D01*
X0196161Y0043854D01*
X0196248Y0043838D01*
X0196336Y0043825D01*
X0196423Y0043816D01*
X0196512Y0043811D01*
X0196600Y0043809D01*
X0196600Y0045254D02*
X0196688Y0045252D01*
X0196777Y0045247D01*
X0196864Y0045238D01*
X0196952Y0045225D01*
X0197039Y0045209D01*
X0197125Y0045189D01*
X0197210Y0045165D01*
X0197294Y0045138D01*
X0197377Y0045108D01*
X0197459Y0045074D01*
X0197539Y0045037D01*
X0197322Y0045109D02*
X0195878Y0043953D01*
X0195300Y0044531D02*
X0195302Y0044575D01*
X0195307Y0044619D01*
X0195316Y0044662D01*
X0195329Y0044704D01*
X0195345Y0044746D01*
X0195364Y0044785D01*
X0195387Y0044823D01*
X0195413Y0044859D01*
X0195441Y0044893D01*
X0195472Y0044924D01*
X0195506Y0044953D01*
X0195542Y0044978D01*
X0195580Y0045001D01*
X0195620Y0045020D01*
X0195661Y0045036D01*
X0195300Y0044531D02*
X0195302Y0044487D01*
X0195307Y0044443D01*
X0195316Y0044400D01*
X0195329Y0044358D01*
X0195345Y0044316D01*
X0195364Y0044277D01*
X0195387Y0044239D01*
X0195413Y0044203D01*
X0195441Y0044169D01*
X0195472Y0044138D01*
X0195506Y0044110D01*
X0195542Y0044084D01*
X0195580Y0044061D01*
X0195620Y0044042D01*
X0195661Y0044026D01*
X0195661Y0045037D02*
X0195741Y0045074D01*
X0195823Y0045108D01*
X0195906Y0045138D01*
X0195990Y0045165D01*
X0196075Y0045189D01*
X0196161Y0045209D01*
X0196248Y0045225D01*
X0196336Y0045238D01*
X0196423Y0045247D01*
X0196512Y0045252D01*
X0196600Y0045254D01*
X0196600Y0043808D02*
X0196688Y0043810D01*
X0196777Y0043815D01*
X0196864Y0043824D01*
X0196952Y0043837D01*
X0197039Y0043853D01*
X0197125Y0043873D01*
X0197210Y0043897D01*
X0197294Y0043924D01*
X0197377Y0043954D01*
X0197459Y0043988D01*
X0197539Y0044025D01*
X0197900Y0044531D02*
X0197898Y0044575D01*
X0197893Y0044619D01*
X0197884Y0044662D01*
X0197871Y0044704D01*
X0197855Y0044746D01*
X0197836Y0044785D01*
X0197813Y0044823D01*
X0197787Y0044859D01*
X0197759Y0044893D01*
X0197728Y0044924D01*
X0197694Y0044953D01*
X0197658Y0044978D01*
X0197620Y0045001D01*
X0197580Y0045020D01*
X0197539Y0045036D01*
X0197900Y0044531D02*
X0197898Y0044487D01*
X0197893Y0044443D01*
X0197884Y0044400D01*
X0197871Y0044358D01*
X0197855Y0044316D01*
X0197836Y0044277D01*
X0197813Y0044239D01*
X0197787Y0044203D01*
X0197759Y0044169D01*
X0197728Y0044138D01*
X0197694Y0044110D01*
X0197658Y0044084D01*
X0197620Y0044061D01*
X0197580Y0044042D01*
X0197539Y0044026D01*
X0195300Y0042373D02*
X0195300Y0040929D01*
X0195300Y0041651D02*
X0197900Y0041651D01*
X0197322Y0040929D01*
X0197900Y0038802D02*
X0197898Y0038855D01*
X0197892Y0038907D01*
X0197883Y0038959D01*
X0197869Y0039010D01*
X0197852Y0039060D01*
X0197832Y0039108D01*
X0197808Y0039155D01*
X0197780Y0039200D01*
X0197749Y0039243D01*
X0197716Y0039284D01*
X0197679Y0039322D01*
X0197640Y0039357D01*
X0197598Y0039389D01*
X0197554Y0039418D01*
X0197508Y0039444D01*
X0197460Y0039466D01*
X0197411Y0039485D01*
X0197361Y0039501D01*
X0197309Y0039512D01*
X0197257Y0039520D01*
X0197204Y0039524D01*
X0197152Y0039524D01*
X0197099Y0039520D01*
X0197047Y0039512D01*
X0196995Y0039501D01*
X0196945Y0039485D01*
X0196896Y0039466D01*
X0196848Y0039444D01*
X0196802Y0039418D01*
X0196758Y0039389D01*
X0196716Y0039357D01*
X0196677Y0039322D01*
X0196640Y0039284D01*
X0196607Y0039243D01*
X0196576Y0039200D01*
X0196548Y0039155D01*
X0196524Y0039108D01*
X0196504Y0039060D01*
X0196487Y0039010D01*
X0196473Y0038959D01*
X0196464Y0038907D01*
X0196458Y0038855D01*
X0196456Y0038802D01*
X0196456Y0038080D01*
X0196456Y0038947D02*
X0195300Y0039524D01*
X0195300Y0038080D02*
X0197900Y0038080D01*
X0197900Y0038802D01*
X0113593Y0095880D02*
X0113593Y0098480D01*
X0112871Y0098480D01*
X0112818Y0098478D01*
X0112766Y0098472D01*
X0112714Y0098463D01*
X0112663Y0098449D01*
X0112613Y0098432D01*
X0112565Y0098412D01*
X0112518Y0098388D01*
X0112473Y0098360D01*
X0112430Y0098329D01*
X0112389Y0098296D01*
X0112351Y0098259D01*
X0112316Y0098220D01*
X0112284Y0098178D01*
X0112255Y0098134D01*
X0112229Y0098088D01*
X0112207Y0098040D01*
X0112188Y0097991D01*
X0112172Y0097941D01*
X0112161Y0097889D01*
X0112153Y0097837D01*
X0112149Y0097784D01*
X0112149Y0097732D01*
X0112153Y0097679D01*
X0112161Y0097627D01*
X0112172Y0097575D01*
X0112188Y0097525D01*
X0112207Y0097476D01*
X0112229Y0097428D01*
X0112255Y0097382D01*
X0112284Y0097338D01*
X0112316Y0097296D01*
X0112351Y0097257D01*
X0112389Y0097220D01*
X0112430Y0097187D01*
X0112473Y0097156D01*
X0112518Y0097128D01*
X0112565Y0097104D01*
X0112613Y0097084D01*
X0112663Y0097067D01*
X0112714Y0097053D01*
X0112766Y0097044D01*
X0112818Y0097038D01*
X0112871Y0097036D01*
X0112871Y0097035D02*
X0113593Y0097035D01*
X0112727Y0097035D02*
X0112149Y0095880D01*
X0110744Y0095880D02*
X0109300Y0095880D01*
X0110022Y0095880D02*
X0110022Y0098480D01*
X0110744Y0097902D01*
X0164800Y0124535D02*
X0164800Y0125258D01*
X0164802Y0125311D01*
X0164808Y0125363D01*
X0164817Y0125415D01*
X0164831Y0125466D01*
X0164848Y0125516D01*
X0164868Y0125564D01*
X0164892Y0125611D01*
X0164920Y0125656D01*
X0164951Y0125699D01*
X0164984Y0125740D01*
X0165021Y0125778D01*
X0165060Y0125813D01*
X0165102Y0125845D01*
X0165146Y0125874D01*
X0165192Y0125900D01*
X0165240Y0125922D01*
X0165289Y0125941D01*
X0165339Y0125957D01*
X0165391Y0125968D01*
X0165443Y0125976D01*
X0165496Y0125980D01*
X0165548Y0125980D01*
X0165601Y0125976D01*
X0165653Y0125968D01*
X0165705Y0125957D01*
X0165755Y0125941D01*
X0165804Y0125922D01*
X0165852Y0125900D01*
X0165898Y0125874D01*
X0165942Y0125845D01*
X0165984Y0125813D01*
X0166023Y0125778D01*
X0166060Y0125740D01*
X0166093Y0125699D01*
X0166124Y0125656D01*
X0166152Y0125611D01*
X0166176Y0125564D01*
X0166196Y0125516D01*
X0166213Y0125466D01*
X0166227Y0125415D01*
X0166236Y0125363D01*
X0166242Y0125311D01*
X0166244Y0125258D01*
X0166244Y0125113D01*
X0166245Y0125113D02*
X0166243Y0125068D01*
X0166238Y0125023D01*
X0166229Y0124978D01*
X0166217Y0124934D01*
X0166201Y0124892D01*
X0166182Y0124851D01*
X0166160Y0124811D01*
X0166135Y0124773D01*
X0166107Y0124738D01*
X0166076Y0124704D01*
X0166042Y0124673D01*
X0166007Y0124645D01*
X0165969Y0124620D01*
X0165929Y0124598D01*
X0165888Y0124579D01*
X0165846Y0124563D01*
X0165802Y0124551D01*
X0165757Y0124542D01*
X0165712Y0124537D01*
X0165667Y0124535D01*
X0164800Y0124535D01*
X0164802Y0124468D01*
X0164808Y0124401D01*
X0164818Y0124334D01*
X0164831Y0124268D01*
X0164849Y0124203D01*
X0164870Y0124140D01*
X0164895Y0124077D01*
X0164923Y0124016D01*
X0164955Y0123957D01*
X0164990Y0123900D01*
X0165029Y0123845D01*
X0165070Y0123792D01*
X0165115Y0123742D01*
X0165163Y0123694D01*
X0165213Y0123649D01*
X0165266Y0123608D01*
X0165321Y0123569D01*
X0165378Y0123534D01*
X0165437Y0123502D01*
X0165498Y0123474D01*
X0165561Y0123449D01*
X0165624Y0123428D01*
X0165689Y0123410D01*
X0165755Y0123397D01*
X0165822Y0123387D01*
X0165889Y0123381D01*
X0165956Y0123379D01*
X0167680Y0123380D02*
X0169124Y0123380D01*
X0167897Y0124824D01*
X0168330Y0125980D02*
X0168385Y0125978D01*
X0168440Y0125973D01*
X0168495Y0125964D01*
X0168548Y0125951D01*
X0168601Y0125935D01*
X0168653Y0125915D01*
X0168703Y0125892D01*
X0168752Y0125866D01*
X0168799Y0125836D01*
X0168843Y0125804D01*
X0168886Y0125768D01*
X0168926Y0125730D01*
X0168963Y0125689D01*
X0168998Y0125646D01*
X0169029Y0125601D01*
X0169058Y0125554D01*
X0169083Y0125505D01*
X0169106Y0125454D01*
X0169124Y0125402D01*
X0167897Y0124825D02*
X0167861Y0124861D01*
X0167828Y0124901D01*
X0167798Y0124942D01*
X0167771Y0124986D01*
X0167747Y0125032D01*
X0167727Y0125079D01*
X0167710Y0125127D01*
X0167697Y0125177D01*
X0167688Y0125228D01*
X0167682Y0125279D01*
X0167680Y0125330D01*
X0167682Y0125379D01*
X0167687Y0125427D01*
X0167696Y0125475D01*
X0167709Y0125522D01*
X0167725Y0125567D01*
X0167744Y0125612D01*
X0167767Y0125655D01*
X0167793Y0125696D01*
X0167822Y0125735D01*
X0167854Y0125772D01*
X0167888Y0125806D01*
X0167925Y0125838D01*
X0167964Y0125867D01*
X0168005Y0125893D01*
X0168048Y0125916D01*
X0168093Y0125935D01*
X0168138Y0125951D01*
X0168185Y0125964D01*
X0168233Y0125973D01*
X0168281Y0125978D01*
X0168330Y0125980D01*
X0171251Y0125980D02*
X0171973Y0125980D01*
X0171973Y0123380D01*
X0171973Y0124535D02*
X0171251Y0124535D01*
X0171107Y0124535D02*
X0170529Y0123380D01*
X0171251Y0124536D02*
X0171198Y0124538D01*
X0171146Y0124544D01*
X0171094Y0124553D01*
X0171043Y0124567D01*
X0170993Y0124584D01*
X0170945Y0124604D01*
X0170898Y0124628D01*
X0170853Y0124656D01*
X0170810Y0124687D01*
X0170769Y0124720D01*
X0170731Y0124757D01*
X0170696Y0124796D01*
X0170664Y0124838D01*
X0170635Y0124882D01*
X0170609Y0124928D01*
X0170587Y0124976D01*
X0170568Y0125025D01*
X0170552Y0125075D01*
X0170541Y0125127D01*
X0170533Y0125179D01*
X0170529Y0125232D01*
X0170529Y0125284D01*
X0170533Y0125337D01*
X0170541Y0125389D01*
X0170552Y0125441D01*
X0170568Y0125491D01*
X0170587Y0125540D01*
X0170609Y0125588D01*
X0170635Y0125634D01*
X0170664Y0125678D01*
X0170696Y0125720D01*
X0170731Y0125759D01*
X0170769Y0125796D01*
X0170810Y0125829D01*
X0170853Y0125860D01*
X0170898Y0125888D01*
X0170945Y0125912D01*
X0170993Y0125932D01*
X0171043Y0125949D01*
X0171094Y0125963D01*
X0171146Y0125972D01*
X0171198Y0125978D01*
X0171251Y0125980D01*
X0171371Y0117980D02*
X0172093Y0117980D01*
X0172093Y0115380D01*
X0172093Y0116535D02*
X0171371Y0116535D01*
X0171227Y0116535D02*
X0170649Y0115380D01*
X0169244Y0115380D02*
X0168378Y0115380D01*
X0168330Y0115382D01*
X0168283Y0115388D01*
X0168236Y0115398D01*
X0168190Y0115411D01*
X0168146Y0115429D01*
X0168103Y0115450D01*
X0168062Y0115474D01*
X0168023Y0115502D01*
X0167987Y0115533D01*
X0167953Y0115567D01*
X0167922Y0115603D01*
X0167894Y0115642D01*
X0167870Y0115683D01*
X0167849Y0115726D01*
X0167831Y0115770D01*
X0167818Y0115816D01*
X0167808Y0115863D01*
X0167802Y0115910D01*
X0167800Y0115958D01*
X0167800Y0116247D01*
X0167802Y0116292D01*
X0167807Y0116337D01*
X0167816Y0116382D01*
X0167828Y0116426D01*
X0167844Y0116468D01*
X0167863Y0116509D01*
X0167885Y0116549D01*
X0167910Y0116587D01*
X0167938Y0116622D01*
X0167969Y0116656D01*
X0168003Y0116687D01*
X0168038Y0116715D01*
X0168076Y0116740D01*
X0168116Y0116762D01*
X0168157Y0116781D01*
X0168199Y0116797D01*
X0168243Y0116809D01*
X0168288Y0116818D01*
X0168333Y0116823D01*
X0168378Y0116825D01*
X0168378Y0116824D02*
X0169244Y0116824D01*
X0169244Y0117980D01*
X0167800Y0117980D01*
X0171371Y0117980D02*
X0171318Y0117978D01*
X0171266Y0117972D01*
X0171214Y0117963D01*
X0171163Y0117949D01*
X0171113Y0117932D01*
X0171065Y0117912D01*
X0171018Y0117888D01*
X0170973Y0117860D01*
X0170930Y0117829D01*
X0170889Y0117796D01*
X0170851Y0117759D01*
X0170816Y0117720D01*
X0170784Y0117678D01*
X0170755Y0117634D01*
X0170729Y0117588D01*
X0170707Y0117540D01*
X0170688Y0117491D01*
X0170672Y0117441D01*
X0170661Y0117389D01*
X0170653Y0117337D01*
X0170649Y0117284D01*
X0170649Y0117232D01*
X0170653Y0117179D01*
X0170661Y0117127D01*
X0170672Y0117075D01*
X0170688Y0117025D01*
X0170707Y0116976D01*
X0170729Y0116928D01*
X0170755Y0116882D01*
X0170784Y0116838D01*
X0170816Y0116796D01*
X0170851Y0116757D01*
X0170889Y0116720D01*
X0170930Y0116687D01*
X0170973Y0116656D01*
X0171018Y0116628D01*
X0171065Y0116604D01*
X0171113Y0116584D01*
X0171163Y0116567D01*
X0171214Y0116553D01*
X0171266Y0116544D01*
X0171318Y0116538D01*
X0171371Y0116536D01*
X0194800Y0108247D02*
X0194800Y0108102D01*
X0194800Y0108247D02*
X0194802Y0108292D01*
X0194807Y0108337D01*
X0194816Y0108382D01*
X0194828Y0108426D01*
X0194844Y0108468D01*
X0194863Y0108509D01*
X0194885Y0108549D01*
X0194910Y0108587D01*
X0194938Y0108622D01*
X0194969Y0108656D01*
X0195003Y0108687D01*
X0195038Y0108715D01*
X0195076Y0108740D01*
X0195116Y0108762D01*
X0195157Y0108781D01*
X0195199Y0108797D01*
X0195243Y0108809D01*
X0195288Y0108818D01*
X0195333Y0108823D01*
X0195378Y0108825D01*
X0195378Y0108824D02*
X0196244Y0108824D01*
X0196244Y0108102D01*
X0196242Y0108049D01*
X0196236Y0107997D01*
X0196227Y0107945D01*
X0196213Y0107894D01*
X0196196Y0107844D01*
X0196176Y0107796D01*
X0196152Y0107749D01*
X0196124Y0107704D01*
X0196093Y0107661D01*
X0196060Y0107620D01*
X0196023Y0107582D01*
X0195984Y0107547D01*
X0195942Y0107515D01*
X0195898Y0107486D01*
X0195852Y0107460D01*
X0195804Y0107438D01*
X0195755Y0107419D01*
X0195705Y0107403D01*
X0195653Y0107392D01*
X0195601Y0107384D01*
X0195548Y0107380D01*
X0195496Y0107380D01*
X0195443Y0107384D01*
X0195391Y0107392D01*
X0195339Y0107403D01*
X0195289Y0107419D01*
X0195240Y0107438D01*
X0195192Y0107460D01*
X0195146Y0107486D01*
X0195102Y0107515D01*
X0195060Y0107547D01*
X0195021Y0107582D01*
X0194984Y0107620D01*
X0194951Y0107661D01*
X0194920Y0107704D01*
X0194892Y0107749D01*
X0194868Y0107796D01*
X0194848Y0107844D01*
X0194831Y0107894D01*
X0194817Y0107945D01*
X0194808Y0107997D01*
X0194802Y0108049D01*
X0194800Y0108102D01*
X0196245Y0108824D02*
X0196243Y0108891D01*
X0196237Y0108958D01*
X0196227Y0109025D01*
X0196214Y0109091D01*
X0196196Y0109156D01*
X0196175Y0109219D01*
X0196150Y0109282D01*
X0196122Y0109343D01*
X0196090Y0109402D01*
X0196055Y0109459D01*
X0196016Y0109514D01*
X0195975Y0109567D01*
X0195930Y0109617D01*
X0195882Y0109665D01*
X0195832Y0109710D01*
X0195779Y0109751D01*
X0195724Y0109790D01*
X0195667Y0109825D01*
X0195608Y0109857D01*
X0195547Y0109885D01*
X0195484Y0109910D01*
X0195421Y0109931D01*
X0195356Y0109949D01*
X0195290Y0109962D01*
X0195223Y0109972D01*
X0195156Y0109978D01*
X0195089Y0109980D01*
X0198371Y0109980D02*
X0199093Y0109980D01*
X0199093Y0107380D01*
X0199093Y0108535D02*
X0198371Y0108535D01*
X0198227Y0108535D02*
X0197649Y0107380D01*
X0198371Y0108536D02*
X0198318Y0108538D01*
X0198266Y0108544D01*
X0198214Y0108553D01*
X0198163Y0108567D01*
X0198113Y0108584D01*
X0198065Y0108604D01*
X0198018Y0108628D01*
X0197973Y0108656D01*
X0197930Y0108687D01*
X0197889Y0108720D01*
X0197851Y0108757D01*
X0197816Y0108796D01*
X0197784Y0108838D01*
X0197755Y0108882D01*
X0197729Y0108928D01*
X0197707Y0108976D01*
X0197688Y0109025D01*
X0197672Y0109075D01*
X0197661Y0109127D01*
X0197653Y0109179D01*
X0197649Y0109232D01*
X0197649Y0109284D01*
X0197653Y0109337D01*
X0197661Y0109389D01*
X0197672Y0109441D01*
X0197688Y0109491D01*
X0197707Y0109540D01*
X0197729Y0109588D01*
X0197755Y0109634D01*
X0197784Y0109678D01*
X0197816Y0109720D01*
X0197851Y0109759D01*
X0197889Y0109796D01*
X0197930Y0109829D01*
X0197973Y0109860D01*
X0198018Y0109888D01*
X0198065Y0109912D01*
X0198113Y0109932D01*
X0198163Y0109949D01*
X0198214Y0109963D01*
X0198266Y0109972D01*
X0198318Y0109978D01*
X0198371Y0109980D01*
X0198402Y0131380D02*
X0199124Y0131380D01*
X0198402Y0131380D02*
X0198349Y0131382D01*
X0198297Y0131388D01*
X0198245Y0131397D01*
X0198194Y0131411D01*
X0198144Y0131428D01*
X0198096Y0131448D01*
X0198049Y0131472D01*
X0198004Y0131500D01*
X0197961Y0131531D01*
X0197920Y0131564D01*
X0197882Y0131601D01*
X0197847Y0131640D01*
X0197815Y0131682D01*
X0197786Y0131726D01*
X0197760Y0131772D01*
X0197738Y0131820D01*
X0197719Y0131869D01*
X0197703Y0131919D01*
X0197692Y0131971D01*
X0197684Y0132023D01*
X0197680Y0132076D01*
X0197680Y0132128D01*
X0197684Y0132181D01*
X0197692Y0132233D01*
X0197703Y0132285D01*
X0197719Y0132335D01*
X0197738Y0132384D01*
X0197760Y0132432D01*
X0197786Y0132478D01*
X0197815Y0132522D01*
X0197847Y0132564D01*
X0197882Y0132603D01*
X0197920Y0132640D01*
X0197961Y0132673D01*
X0198004Y0132704D01*
X0198049Y0132732D01*
X0198096Y0132756D01*
X0198144Y0132776D01*
X0198194Y0132793D01*
X0198245Y0132807D01*
X0198297Y0132816D01*
X0198349Y0132822D01*
X0198402Y0132824D01*
X0198258Y0132824D02*
X0198836Y0132824D01*
X0198258Y0132824D02*
X0198211Y0132826D01*
X0198165Y0132831D01*
X0198120Y0132841D01*
X0198075Y0132854D01*
X0198031Y0132870D01*
X0197989Y0132890D01*
X0197949Y0132913D01*
X0197911Y0132940D01*
X0197875Y0132969D01*
X0197841Y0133002D01*
X0197810Y0133036D01*
X0197782Y0133074D01*
X0197757Y0133113D01*
X0197736Y0133154D01*
X0197718Y0133197D01*
X0197703Y0133241D01*
X0197692Y0133286D01*
X0197684Y0133332D01*
X0197680Y0133379D01*
X0197680Y0133425D01*
X0197684Y0133472D01*
X0197692Y0133518D01*
X0197703Y0133563D01*
X0197718Y0133607D01*
X0197736Y0133650D01*
X0197757Y0133691D01*
X0197782Y0133730D01*
X0197810Y0133768D01*
X0197841Y0133802D01*
X0197875Y0133835D01*
X0197911Y0133864D01*
X0197949Y0133891D01*
X0197989Y0133914D01*
X0198031Y0133934D01*
X0198075Y0133950D01*
X0198120Y0133963D01*
X0198165Y0133973D01*
X0198211Y0133978D01*
X0198258Y0133980D01*
X0199124Y0133980D01*
X0201251Y0133980D02*
X0201973Y0133980D01*
X0201973Y0131380D01*
X0201973Y0132535D02*
X0201251Y0132535D01*
X0201107Y0132535D02*
X0200529Y0131380D01*
X0201251Y0132536D02*
X0201198Y0132538D01*
X0201146Y0132544D01*
X0201094Y0132553D01*
X0201043Y0132567D01*
X0200993Y0132584D01*
X0200945Y0132604D01*
X0200898Y0132628D01*
X0200853Y0132656D01*
X0200810Y0132687D01*
X0200769Y0132720D01*
X0200731Y0132757D01*
X0200696Y0132796D01*
X0200664Y0132838D01*
X0200635Y0132882D01*
X0200609Y0132928D01*
X0200587Y0132976D01*
X0200568Y0133025D01*
X0200552Y0133075D01*
X0200541Y0133127D01*
X0200533Y0133179D01*
X0200529Y0133232D01*
X0200529Y0133284D01*
X0200533Y0133337D01*
X0200541Y0133389D01*
X0200552Y0133441D01*
X0200568Y0133491D01*
X0200587Y0133540D01*
X0200609Y0133588D01*
X0200635Y0133634D01*
X0200664Y0133678D01*
X0200696Y0133720D01*
X0200731Y0133759D01*
X0200769Y0133796D01*
X0200810Y0133829D01*
X0200853Y0133860D01*
X0200898Y0133888D01*
X0200945Y0133912D01*
X0200993Y0133932D01*
X0201043Y0133949D01*
X0201094Y0133963D01*
X0201146Y0133972D01*
X0201198Y0133978D01*
X0201251Y0133980D01*
X0196244Y0133258D02*
X0196244Y0133113D01*
X0196245Y0133113D02*
X0196243Y0133068D01*
X0196238Y0133023D01*
X0196229Y0132978D01*
X0196217Y0132934D01*
X0196201Y0132892D01*
X0196182Y0132851D01*
X0196160Y0132811D01*
X0196135Y0132773D01*
X0196107Y0132738D01*
X0196076Y0132704D01*
X0196042Y0132673D01*
X0196007Y0132645D01*
X0195969Y0132620D01*
X0195929Y0132598D01*
X0195888Y0132579D01*
X0195846Y0132563D01*
X0195802Y0132551D01*
X0195757Y0132542D01*
X0195712Y0132537D01*
X0195667Y0132535D01*
X0194800Y0132535D01*
X0194800Y0133258D01*
X0194802Y0133311D01*
X0194808Y0133363D01*
X0194817Y0133415D01*
X0194831Y0133466D01*
X0194848Y0133516D01*
X0194868Y0133564D01*
X0194892Y0133611D01*
X0194920Y0133656D01*
X0194951Y0133699D01*
X0194984Y0133740D01*
X0195021Y0133778D01*
X0195060Y0133813D01*
X0195102Y0133845D01*
X0195146Y0133874D01*
X0195192Y0133900D01*
X0195240Y0133922D01*
X0195289Y0133941D01*
X0195339Y0133957D01*
X0195391Y0133968D01*
X0195443Y0133976D01*
X0195496Y0133980D01*
X0195548Y0133980D01*
X0195601Y0133976D01*
X0195653Y0133968D01*
X0195705Y0133957D01*
X0195755Y0133941D01*
X0195804Y0133922D01*
X0195852Y0133900D01*
X0195898Y0133874D01*
X0195942Y0133845D01*
X0195984Y0133813D01*
X0196023Y0133778D01*
X0196060Y0133740D01*
X0196093Y0133699D01*
X0196124Y0133656D01*
X0196152Y0133611D01*
X0196176Y0133564D01*
X0196196Y0133516D01*
X0196213Y0133466D01*
X0196227Y0133415D01*
X0196236Y0133363D01*
X0196242Y0133311D01*
X0196244Y0133258D01*
X0194800Y0132535D02*
X0194802Y0132468D01*
X0194808Y0132401D01*
X0194818Y0132334D01*
X0194831Y0132268D01*
X0194849Y0132203D01*
X0194870Y0132140D01*
X0194895Y0132077D01*
X0194923Y0132016D01*
X0194955Y0131957D01*
X0194990Y0131900D01*
X0195029Y0131845D01*
X0195070Y0131792D01*
X0195115Y0131742D01*
X0195163Y0131694D01*
X0195213Y0131649D01*
X0195266Y0131608D01*
X0195321Y0131569D01*
X0195378Y0131534D01*
X0195437Y0131502D01*
X0195498Y0131474D01*
X0195561Y0131449D01*
X0195624Y0131428D01*
X0195689Y0131410D01*
X0195755Y0131397D01*
X0195822Y0131387D01*
X0195889Y0131381D01*
X0195956Y0131379D01*
X0034200Y0048758D02*
X0031600Y0048758D01*
X0031600Y0049480D02*
X0031600Y0048035D01*
X0032178Y0046600D02*
X0032178Y0045155D01*
X0034200Y0045733D01*
X0032756Y0046167D02*
X0031600Y0046167D01*
X0033622Y0048035D02*
X0034200Y0048758D01*
X0034200Y0043897D02*
X0034200Y0043319D01*
X0034198Y0043271D01*
X0034192Y0043224D01*
X0034182Y0043177D01*
X0034169Y0043131D01*
X0034151Y0043087D01*
X0034130Y0043044D01*
X0034106Y0043003D01*
X0034078Y0042964D01*
X0034047Y0042928D01*
X0034013Y0042894D01*
X0033977Y0042863D01*
X0033938Y0042835D01*
X0033897Y0042811D01*
X0033854Y0042790D01*
X0033810Y0042772D01*
X0033764Y0042759D01*
X0033717Y0042749D01*
X0033670Y0042743D01*
X0033622Y0042741D01*
X0032178Y0042741D01*
X0032133Y0042743D01*
X0032088Y0042748D01*
X0032043Y0042757D01*
X0031999Y0042769D01*
X0031957Y0042785D01*
X0031916Y0042804D01*
X0031876Y0042826D01*
X0031838Y0042851D01*
X0031803Y0042879D01*
X0031769Y0042910D01*
X0031738Y0042944D01*
X0031710Y0042979D01*
X0031685Y0043017D01*
X0031663Y0043057D01*
X0031644Y0043098D01*
X0031628Y0043140D01*
X0031616Y0043184D01*
X0031607Y0043229D01*
X0031602Y0043274D01*
X0031600Y0043319D01*
X0031600Y0043897D01*
D17*
X0052065Y0072095D02*
X0051260Y0074995D01*
X0052871Y0074995D01*
X0052871Y0074673D01*
X0054945Y0074995D02*
X0054945Y0072095D01*
X0054140Y0072095D02*
X0055751Y0072095D01*
X0055751Y0074350D02*
X0054945Y0074995D01*
X0057683Y0074995D02*
X0058489Y0074995D01*
X0058489Y0072095D01*
X0058489Y0073384D02*
X0057683Y0073384D01*
X0057683Y0073383D02*
X0057628Y0073385D01*
X0057573Y0073391D01*
X0057519Y0073400D01*
X0057466Y0073413D01*
X0057413Y0073430D01*
X0057362Y0073450D01*
X0057312Y0073473D01*
X0057264Y0073500D01*
X0057218Y0073531D01*
X0057174Y0073564D01*
X0057133Y0073600D01*
X0057094Y0073639D01*
X0057058Y0073680D01*
X0057025Y0073724D01*
X0056994Y0073770D01*
X0056967Y0073818D01*
X0056944Y0073868D01*
X0056924Y0073919D01*
X0056907Y0073972D01*
X0056894Y0074025D01*
X0056885Y0074079D01*
X0056879Y0074134D01*
X0056877Y0074189D01*
X0056879Y0074244D01*
X0056885Y0074299D01*
X0056894Y0074353D01*
X0056907Y0074406D01*
X0056924Y0074459D01*
X0056944Y0074510D01*
X0056967Y0074560D01*
X0056994Y0074608D01*
X0057025Y0074654D01*
X0057058Y0074698D01*
X0057094Y0074739D01*
X0057133Y0074778D01*
X0057174Y0074814D01*
X0057218Y0074847D01*
X0057264Y0074878D01*
X0057312Y0074905D01*
X0057362Y0074928D01*
X0057413Y0074948D01*
X0057466Y0074965D01*
X0057519Y0074978D01*
X0057573Y0074987D01*
X0057628Y0074993D01*
X0057683Y0074995D01*
X0059708Y0074995D02*
X0061319Y0074995D01*
X0060513Y0074995D02*
X0060513Y0072095D01*
D18*
X0234045Y0103432D02*
X0234045Y0103921D01*
X0234045Y0103432D02*
X0234047Y0103389D01*
X0234052Y0103347D01*
X0234062Y0103305D01*
X0234074Y0103265D01*
X0234091Y0103225D01*
X0234111Y0103188D01*
X0234133Y0103152D01*
X0234159Y0103118D01*
X0234188Y0103086D01*
X0234220Y0103057D01*
X0234254Y0103031D01*
X0234290Y0103009D01*
X0234327Y0102989D01*
X0234367Y0102972D01*
X0234407Y0102960D01*
X0234449Y0102950D01*
X0234491Y0102945D01*
X0234534Y0102943D01*
X0235756Y0102943D01*
X0235799Y0102945D01*
X0235841Y0102950D01*
X0235883Y0102960D01*
X0235923Y0102972D01*
X0235963Y0102989D01*
X0236000Y0103009D01*
X0236036Y0103031D01*
X0236070Y0103057D01*
X0236102Y0103086D01*
X0236131Y0103118D01*
X0236157Y0103152D01*
X0236179Y0103187D01*
X0236199Y0103225D01*
X0236216Y0103265D01*
X0236228Y0103305D01*
X0236238Y0103347D01*
X0236243Y0103389D01*
X0236245Y0103432D01*
X0236245Y0103921D01*
X0236245Y0104749D02*
X0236245Y0105483D01*
X0236243Y0105526D01*
X0236238Y0105568D01*
X0236228Y0105610D01*
X0236216Y0105650D01*
X0236199Y0105690D01*
X0236179Y0105728D01*
X0236157Y0105763D01*
X0236131Y0105797D01*
X0236102Y0105829D01*
X0236070Y0105858D01*
X0236036Y0105884D01*
X0236001Y0105906D01*
X0235963Y0105926D01*
X0235923Y0105943D01*
X0235883Y0105955D01*
X0235841Y0105965D01*
X0235799Y0105970D01*
X0235756Y0105972D01*
X0235713Y0105970D01*
X0235671Y0105965D01*
X0235629Y0105955D01*
X0235589Y0105943D01*
X0235549Y0105926D01*
X0235512Y0105906D01*
X0235476Y0105884D01*
X0235442Y0105858D01*
X0235410Y0105829D01*
X0235381Y0105797D01*
X0235355Y0105763D01*
X0235333Y0105728D01*
X0235313Y0105690D01*
X0235296Y0105650D01*
X0235284Y0105610D01*
X0235274Y0105568D01*
X0235269Y0105526D01*
X0235267Y0105483D01*
X0235267Y0104994D01*
X0235267Y0105360D02*
X0235265Y0105408D01*
X0235259Y0105456D01*
X0235250Y0105503D01*
X0235237Y0105549D01*
X0235220Y0105594D01*
X0235200Y0105637D01*
X0235177Y0105679D01*
X0235150Y0105719D01*
X0235121Y0105757D01*
X0235088Y0105792D01*
X0235053Y0105825D01*
X0235015Y0105854D01*
X0234975Y0105881D01*
X0234933Y0105904D01*
X0234890Y0105924D01*
X0234845Y0105941D01*
X0234799Y0105954D01*
X0234752Y0105963D01*
X0234704Y0105969D01*
X0234656Y0105971D01*
X0234608Y0105969D01*
X0234560Y0105963D01*
X0234513Y0105954D01*
X0234467Y0105941D01*
X0234422Y0105924D01*
X0234379Y0105904D01*
X0234337Y0105881D01*
X0234297Y0105854D01*
X0234259Y0105825D01*
X0234224Y0105792D01*
X0234191Y0105757D01*
X0234162Y0105719D01*
X0234135Y0105679D01*
X0234112Y0105637D01*
X0234092Y0105594D01*
X0234075Y0105549D01*
X0234062Y0105503D01*
X0234053Y0105456D01*
X0234047Y0105408D01*
X0234045Y0105360D01*
X0234045Y0104749D01*
X0240045Y0106432D02*
X0240045Y0106921D01*
X0240045Y0106432D02*
X0240047Y0106389D01*
X0240052Y0106347D01*
X0240062Y0106305D01*
X0240074Y0106265D01*
X0240091Y0106225D01*
X0240111Y0106188D01*
X0240133Y0106152D01*
X0240159Y0106118D01*
X0240188Y0106086D01*
X0240220Y0106057D01*
X0240254Y0106031D01*
X0240290Y0106009D01*
X0240327Y0105989D01*
X0240367Y0105972D01*
X0240407Y0105960D01*
X0240449Y0105950D01*
X0240491Y0105945D01*
X0240534Y0105943D01*
X0241756Y0105943D01*
X0241799Y0105945D01*
X0241841Y0105950D01*
X0241883Y0105960D01*
X0241923Y0105972D01*
X0241963Y0105989D01*
X0242000Y0106009D01*
X0242036Y0106031D01*
X0242070Y0106057D01*
X0242102Y0106086D01*
X0242131Y0106118D01*
X0242157Y0106152D01*
X0242179Y0106187D01*
X0242199Y0106225D01*
X0242216Y0106265D01*
X0242228Y0106305D01*
X0242238Y0106347D01*
X0242243Y0106389D01*
X0242245Y0106432D01*
X0242245Y0106921D01*
X0241267Y0108789D02*
X0241301Y0108822D01*
X0241338Y0108852D01*
X0241378Y0108880D01*
X0241419Y0108904D01*
X0241462Y0108924D01*
X0241507Y0108941D01*
X0241553Y0108955D01*
X0241600Y0108964D01*
X0241647Y0108970D01*
X0241695Y0108972D01*
X0241267Y0108788D02*
X0240045Y0107749D01*
X0240045Y0108971D01*
X0241756Y0107748D02*
X0241805Y0107766D01*
X0241853Y0107788D01*
X0241899Y0107813D01*
X0241942Y0107841D01*
X0241984Y0107873D01*
X0242024Y0107907D01*
X0242060Y0107944D01*
X0242094Y0107984D01*
X0242125Y0108027D01*
X0242152Y0108071D01*
X0242176Y0108117D01*
X0242197Y0108165D01*
X0242214Y0108215D01*
X0242228Y0108265D01*
X0242237Y0108317D01*
X0242243Y0108369D01*
X0242245Y0108421D01*
X0242243Y0108466D01*
X0242237Y0108512D01*
X0242228Y0108556D01*
X0242215Y0108600D01*
X0242199Y0108642D01*
X0242179Y0108683D01*
X0242155Y0108722D01*
X0242129Y0108759D01*
X0242100Y0108794D01*
X0242068Y0108826D01*
X0242033Y0108855D01*
X0241996Y0108881D01*
X0241957Y0108905D01*
X0241916Y0108925D01*
X0241874Y0108941D01*
X0241830Y0108954D01*
X0241786Y0108963D01*
X0241740Y0108969D01*
X0241695Y0108971D01*
X0273755Y0089006D02*
X0275955Y0089617D01*
X0275955Y0088395D01*
X0275711Y0088395D01*
X0275955Y0087566D02*
X0275955Y0087077D01*
X0275953Y0087034D01*
X0275948Y0086992D01*
X0275938Y0086950D01*
X0275926Y0086910D01*
X0275909Y0086870D01*
X0275889Y0086832D01*
X0275867Y0086797D01*
X0275841Y0086763D01*
X0275812Y0086731D01*
X0275780Y0086702D01*
X0275746Y0086676D01*
X0275710Y0086654D01*
X0275673Y0086634D01*
X0275633Y0086617D01*
X0275593Y0086605D01*
X0275551Y0086595D01*
X0275509Y0086590D01*
X0275466Y0086588D01*
X0274244Y0086588D01*
X0274201Y0086590D01*
X0274159Y0086595D01*
X0274117Y0086605D01*
X0274077Y0086617D01*
X0274037Y0086634D01*
X0274000Y0086654D01*
X0273964Y0086676D01*
X0273930Y0086702D01*
X0273898Y0086731D01*
X0273869Y0086763D01*
X0273843Y0086797D01*
X0273821Y0086833D01*
X0273801Y0086870D01*
X0273784Y0086910D01*
X0273772Y0086950D01*
X0273762Y0086992D01*
X0273757Y0087034D01*
X0273755Y0087077D01*
X0273755Y0087566D01*
X0280755Y0087566D02*
X0280755Y0087077D01*
X0280757Y0087034D01*
X0280762Y0086992D01*
X0280772Y0086950D01*
X0280784Y0086910D01*
X0280801Y0086870D01*
X0280821Y0086833D01*
X0280843Y0086797D01*
X0280869Y0086763D01*
X0280898Y0086731D01*
X0280930Y0086702D01*
X0280964Y0086676D01*
X0281000Y0086654D01*
X0281037Y0086634D01*
X0281077Y0086617D01*
X0281117Y0086605D01*
X0281159Y0086595D01*
X0281201Y0086590D01*
X0281244Y0086588D01*
X0282466Y0086588D01*
X0282509Y0086590D01*
X0282551Y0086595D01*
X0282593Y0086605D01*
X0282633Y0086617D01*
X0282673Y0086634D01*
X0282710Y0086654D01*
X0282746Y0086676D01*
X0282780Y0086702D01*
X0282812Y0086731D01*
X0282841Y0086763D01*
X0282867Y0086797D01*
X0282889Y0086832D01*
X0282909Y0086870D01*
X0282926Y0086910D01*
X0282938Y0086950D01*
X0282948Y0086992D01*
X0282953Y0087034D01*
X0282955Y0087077D01*
X0282955Y0087566D01*
X0281977Y0088395D02*
X0281366Y0088395D01*
X0281318Y0088397D01*
X0281270Y0088403D01*
X0281223Y0088412D01*
X0281177Y0088425D01*
X0281132Y0088442D01*
X0281089Y0088462D01*
X0281047Y0088485D01*
X0281007Y0088512D01*
X0280969Y0088541D01*
X0280934Y0088574D01*
X0280901Y0088609D01*
X0280872Y0088647D01*
X0280845Y0088687D01*
X0280822Y0088729D01*
X0280802Y0088772D01*
X0280785Y0088817D01*
X0280772Y0088863D01*
X0280763Y0088910D01*
X0280757Y0088958D01*
X0280755Y0089006D01*
X0280757Y0089054D01*
X0280763Y0089102D01*
X0280772Y0089149D01*
X0280785Y0089195D01*
X0280802Y0089240D01*
X0280822Y0089283D01*
X0280845Y0089325D01*
X0280872Y0089365D01*
X0280901Y0089403D01*
X0280934Y0089438D01*
X0280969Y0089471D01*
X0281007Y0089500D01*
X0281047Y0089527D01*
X0281089Y0089550D01*
X0281132Y0089570D01*
X0281177Y0089587D01*
X0281223Y0089600D01*
X0281270Y0089609D01*
X0281318Y0089615D01*
X0281366Y0089617D01*
X0281488Y0089617D01*
X0281531Y0089615D01*
X0281573Y0089610D01*
X0281615Y0089600D01*
X0281655Y0089588D01*
X0281695Y0089571D01*
X0281733Y0089551D01*
X0281768Y0089529D01*
X0281802Y0089503D01*
X0281834Y0089474D01*
X0281863Y0089442D01*
X0281889Y0089408D01*
X0281911Y0089373D01*
X0281931Y0089335D01*
X0281948Y0089295D01*
X0281960Y0089255D01*
X0281970Y0089213D01*
X0281975Y0089171D01*
X0281977Y0089128D01*
X0281977Y0088395D01*
X0281977Y0088394D02*
X0282038Y0088396D01*
X0282100Y0088402D01*
X0282160Y0088411D01*
X0282220Y0088425D01*
X0282279Y0088442D01*
X0282337Y0088463D01*
X0282393Y0088487D01*
X0282448Y0088515D01*
X0282501Y0088546D01*
X0282552Y0088581D01*
X0282600Y0088618D01*
X0282646Y0088659D01*
X0282690Y0088703D01*
X0282731Y0088749D01*
X0282768Y0088797D01*
X0282803Y0088848D01*
X0282834Y0088901D01*
X0282862Y0088956D01*
X0282886Y0089012D01*
X0282907Y0089070D01*
X0282924Y0089129D01*
X0282938Y0089189D01*
X0282947Y0089249D01*
X0282953Y0089311D01*
X0282955Y0089372D01*
M02*
