<svg version="1.1" xmlns="http://www.w3.org/2000/svg" xmlns:xlink="http://www.w3.org/1999/xlink" stroke-linecap="round" stroke-linejoin="round" stroke-width="0" fill-rule="evenodd" width="2.91in" height="1.71in" viewBox="115 107.8 2910 1710" id="icu8GmA5BgaWVfC_VQ3e"><g transform="translate(0,1925.6) scale(1,-1)" fill="currentColor" stroke="currentColor"><path d="M 115 107.8 115 1487.8 2325 1487.8 2325 1817.8 2755 1817.8 2755 1487.8 3025 1487.8 3025 107.8 115 107.8 M 175.31 187.8 175.33 188.68 175.39 189.56 175.49 190.44 175.63 191.32 175.8 192.18 176.02 193.04 176.27 193.88 176.57 194.72 176.89 195.54 177.26 196.34 177.66 197.13 178.1 197.9 178.57 198.65 179.07 199.37 179.61 200.08 180.17 200.75 180.77 201.41 181.39 202.03 182.05 202.63 182.72 203.19 183.43 203.73 184.15 204.23 184.9 204.7 185.67 205.14 186.46 205.54 187.26 205.91 188.08 206.23 188.92 206.53 189.76 206.78 190.62 207 191.48 207.17 192.36 207.31 193.24 207.41 194.12 207.47 195 207.49 195.88 207.47 196.76 207.41 197.64 207.31 198.52 207.17 199.38 207 200.24 206.78 201.08 206.53 201.92 206.23 202.74 205.91 203.54 205.54 204.33 205.14 205.1 204.7 205.85 204.23 206.57 203.73 207.28 203.19 207.95 202.63 208.61 202.03 209.23 201.41 209.83 200.75 210.39 200.08 210.93 199.37 211.43 198.65 211.9 197.9 212.34 197.13 212.74 196.34 213.11 195.54 213.43 194.72 213.73 193.88 213.98 193.04 214.2 192.18 214.37 191.32 214.51 190.44 214.61 189.56 214.67 188.68 214.69 187.8 214.67 186.92 214.61 186.04 214.51 185.16 214.37 184.28 214.2 183.42 213.98 182.56 213.73 181.72 213.43 180.88 213.11 180.06 212.74 179.26 212.34 178.47 211.9 177.7 211.43 176.95 210.93 176.23 210.39 175.52 209.83 174.85 209.23 174.19 208.61 173.57 207.95 172.97 207.28 172.41 206.57 171.87 205.85 171.37 205.1 170.9 204.33 170.46 203.54 170.06 202.74 169.69 201.92 169.37 201.08 169.07 200.24 168.82 199.38 168.6 198.52 168.43 197.64 168.29 196.76 168.19 195.88 168.13 195 168.11 194.12 168.13 193.24 168.19 192.36 168.29 191.48 168.43 190.62 168.6 189.76 168.82 188.92 169.07 188.08 169.37 187.26 169.69 186.46 170.06 185.67 170.46 184.9 170.9 184.15 171.37 183.43 171.87 182.72 172.41 182.05 172.97 181.39 173.57 180.77 174.19 180.17 174.85 179.61 175.52 179.07 176.23 178.57 176.95 178.1 177.7 177.66 178.47 177.26 179.26 176.89 180.06 176.57 180.88 176.27 181.72 176.02 182.56 175.8 183.42 175.63 184.28 175.49 185.16 175.39 186.04 175.33 186.92 175.31 187.8 M 175.31 1407.8 175.33 1408.68 175.39 1409.56 175.49 1410.44 175.63 1411.32 175.8 1412.18 176.02 1413.04 176.27 1413.88 176.57 1414.72 176.89 1415.54 177.26 1416.34 177.66 1417.13 178.1 1417.9 178.57 1418.65 179.07 1419.37 179.61 1420.08 180.17 1420.75 180.77 1421.41 181.39 1422.03 182.05 1422.63 182.72 1423.19 183.43 1423.73 184.15 1424.23 184.9 1424.7 185.67 1425.14 186.46 1425.54 187.26 1425.91 188.08 1426.23 188.92 1426.53 189.76 1426.78 190.62 1427 191.48 1427.17 192.36 1427.31 193.24 1427.41 194.12 1427.47 195 1427.49 195.88 1427.47 196.76 1427.41 197.64 1427.31 198.52 1427.17 199.38 1427 200.24 1426.78 201.08 1426.53 201.92 1426.23 202.74 1425.91 203.54 1425.54 204.33 1425.14 205.1 1424.7 205.85 1424.23 206.57 1423.73 207.28 1423.19 207.95 1422.63 208.61 1422.03 209.23 1421.41 209.83 1420.75 210.39 1420.08 210.93 1419.37 211.43 1418.65 211.9 1417.9 212.34 1417.13 212.74 1416.34 213.11 1415.54 213.43 1414.72 213.73 1413.88 213.98 1413.04 214.2 1412.18 214.37 1411.32 214.51 1410.44 214.61 1409.56 214.67 1408.68 214.69 1407.8 214.67 1406.92 214.61 1406.04 214.51 1405.16 214.37 1404.28 214.2 1403.42 213.98 1402.56 213.73 1401.72 213.43 1400.88 213.11 1400.06 212.74 1399.26 212.34 1398.47 211.9 1397.7 211.43 1396.95 210.93 1396.23 210.39 1395.52 209.83 1394.85 209.23 1394.19 208.61 1393.57 207.95 1392.97 207.28 1392.41 206.57 1391.87 205.85 1391.37 205.1 1390.9 204.33 1390.46 203.54 1390.06 202.74 1389.69 201.92 1389.37 201.08 1389.07 200.24 1388.82 199.38 1388.6 198.52 1388.43 197.64 1388.29 196.76 1388.19 195.88 1388.13 195 1388.11 194.12 1388.13 193.24 1388.19 192.36 1388.29 191.48 1388.43 190.62 1388.6 189.76 1388.82 188.92 1389.07 188.08 1389.37 187.26 1389.69 186.46 1390.06 185.67 1390.46 184.9 1390.9 184.15 1391.37 183.43 1391.87 182.72 1392.41 182.05 1392.97 181.39 1393.57 180.77 1394.19 180.17 1394.85 179.61 1395.52 179.07 1396.23 178.57 1396.95 178.1 1397.7 177.66 1398.47 177.26 1399.26 176.89 1400.06 176.57 1400.88 176.27 1401.72 176.02 1402.56 175.8 1403.42 175.63 1404.28 175.49 1405.16 175.39 1406.04 175.33 1406.92 175.31 1407.8 M 2925.31 1407.8 2925.33 1408.68 2925.39 1409.56 2925.49 1410.44 2925.63 1411.32 2925.8 1412.18 2926.02 1413.04 2926.27 1413.88 2926.57 1414.72 2926.89 1415.54 2927.26 1416.34 2927.66 1417.13 2928.1 1417.9 2928.57 1418.65 2929.07 1419.37 2929.61 1420.08 2930.17 1420.75 2930.77 1421.41 2931.39 1422.03 2932.05 1422.63 2932.72 1423.19 2933.43 1423.73 2934.15 1424.23 2934.9 1424.7 2935.67 1425.14 2936.46 1425.54 2937.26 1425.91 2938.08 1426.23 2938.92 1426.53 2939.76 1426.78 2940.62 1427 2941.48 1427.17 2942.36 1427.31 2943.24 1427.41 2944.12 1427.47 2945 1427.49 2945.88 1427.47 2946.76 1427.41 2947.64 1427.31 2948.52 1427.17 2949.38 1427 2950.24 1426.78 2951.08 1426.53 2951.92 1426.23 2952.74 1425.91 2953.54 1425.54 2954.33 1425.14 2955.1 1424.7 2955.85 1424.23 2956.57 1423.73 2957.28 1423.19 2957.95 1422.63 2958.61 1422.03 2959.23 1421.41 2959.83 1420.75 2960.39 1420.08 2960.93 1419.37 2961.43 1418.65 2961.9 1417.9 2962.34 1417.13 2962.74 1416.34 2963.11 1415.54 2963.43 1414.72 2963.73 1413.88 2963.98 1413.04 2964.2 1412.18 2964.37 1411.32 2964.51 1410.44 2964.61 1409.56 2964.67 1408.68 2964.69 1407.8 2964.67 1406.92 2964.61 1406.04 2964.51 1405.16 2964.37 1404.28 2964.2 1403.42 2963.98 1402.56 2963.73 1401.72 2963.43 1400.88 2963.11 1400.06 2962.74 1399.26 2962.34 1398.47 2961.9 1397.7 2961.43 1396.95 2960.93 1396.23 2960.39 1395.52 2959.83 1394.85 2959.23 1394.19 2958.61 1393.57 2957.95 1392.97 2957.28 1392.41 2956.57 1391.87 2955.85 1391.37 2955.1 1390.9 2954.33 1390.46 2953.54 1390.06 2952.74 1389.69 2951.92 1389.37 2951.08 1389.07 2950.24 1388.82 2949.38 1388.6 2948.52 1388.43 2947.64 1388.29 2946.76 1388.19 2945.88 1388.13 2945 1388.11 2944.12 1388.13 2943.24 1388.19 2942.36 1388.29 2941.48 1388.43 2940.62 1388.6 2939.76 1388.82 2938.92 1389.07 2938.08 1389.37 2937.26 1389.69 2936.46 1390.06 2935.67 1390.46 2934.9 1390.9 2934.15 1391.37 2933.43 1391.87 2932.72 1392.41 2932.05 1392.97 2931.39 1393.57 2930.77 1394.19 2930.17 1394.85 2929.61 1395.52 2929.07 1396.23 2928.57 1396.95 2928.1 1397.7 2927.66 1398.47 2927.26 1399.26 2926.89 1400.06 2926.57 1400.88 2926.27 1401.72 2926.02 1402.56 2925.8 1403.42 2925.63 1404.28 2925.49 1405.16 2925.39 1406.04 2925.33 1406.92 2925.31 1407.8 M 2925.31 187.8 2925.33 188.68 2925.39 189.56 2925.49 190.44 2925.63 191.32 2925.8 192.18 2926.02 193.04 2926.27 193.88 2926.57 194.72 2926.89 195.54 2927.26 196.34 2927.66 197.13 2928.1 197.9 2928.57 198.65 2929.07 199.37 2929.61 200.08 2930.17 200.75 2930.77 201.41 2931.39 202.03 2932.05 202.63 2932.72 203.19 2933.43 203.73 2934.15 204.23 2934.9 204.7 2935.67 205.14 2936.46 205.54 2937.26 205.91 2938.08 206.23 2938.92 206.53 2939.76 206.78 2940.62 207 2941.48 207.17 2942.36 207.31 2943.24 207.41 2944.12 207.47 2945 207.49 2945.88 207.47 2946.76 207.41 2947.64 207.31 2948.52 207.17 2949.38 207 2950.24 206.78 2951.08 206.53 2951.92 206.23 2952.74 205.91 2953.54 205.54 2954.33 205.14 2955.1 204.7 2955.85 204.23 2956.57 203.73 2957.28 203.19 2957.95 202.63 2958.61 202.03 2959.23 201.41 2959.83 200.75 2960.39 200.08 2960.93 199.37 2961.43 198.65 2961.9 197.9 2962.34 197.13 2962.74 196.34 2963.11 195.54 2963.43 194.72 2963.73 193.88 2963.98 193.04 2964.2 192.18 2964.37 191.32 2964.51 190.44 2964.61 189.56 2964.67 188.68 2964.69 187.8 2964.67 186.92 2964.61 186.04 2964.51 185.16 2964.37 184.28 2964.2 183.42 2963.98 182.56 2963.73 181.72 2963.43 180.88 2963.11 180.06 2962.74 179.26 2962.34 178.47 2961.9 177.7 2961.43 176.95 2960.93 176.23 2960.39 175.52 2959.83 174.85 2959.23 174.19 2958.61 173.57 2957.95 172.97 2957.28 172.41 2956.57 171.87 2955.85 171.37 2955.1 170.9 2954.33 170.46 2953.54 170.06 2952.74 169.69 2951.92 169.37 2951.08 169.07 2950.24 168.82 2949.38 168.6 2948.52 168.43 2947.64 168.29 2946.76 168.19 2945.88 168.13 2945 168.11 2944.12 168.13 2943.24 168.19 2942.36 168.29 2941.48 168.43 2940.62 168.6 2939.76 168.82 2938.92 169.07 2938.08 169.37 2937.26 169.69 2936.46 170.06 2935.67 170.46 2934.9 170.9 2934.15 171.37 2933.43 171.87 2932.72 172.41 2932.05 172.97 2931.39 173.57 2930.77 174.19 2930.17 174.85 2929.61 175.52 2929.07 176.23 2928.57 176.95 2928.1 177.7 2927.66 178.47 2927.26 179.26 2926.89 180.06 2926.57 180.88 2926.27 181.72 2926.02 182.56 2925.8 183.42 2925.63 184.28 2925.49 185.16 2925.39 186.04 2925.33 186.92 2925.31 187.8" fill="none" stroke-width="10"/></g></svg>