<svg version="1.1" xmlns="http://www.w3.org/2000/svg" xmlns:xlink="http://www.w3.org/1999/xlink" stroke-linecap="round" stroke-linejoin="round" stroke-width="0" fill-rule="evenodd" width="2.92in" height="1.72in" viewBox="110 102.8 2920 1720" id="TqhJzKD_ZfD_P6GYQ3HJ"><defs><rect x="-24.605" y="-11.81" width="49.21" height="23.62" id="TqhJzKD_ZfD_P6GYQ3HJ_pad-12"/><rect x="-12.5" y="-25" width="25" height="50" id="TqhJzKD_ZfD_P6GYQ3HJ_pad-13"/><rect x="-19.685" y="-21.655" width="39.37" height="43.31" id="TqhJzKD_ZfD_P6GYQ3HJ_pad-14"/><rect x="-21.655" y="-19.685" width="43.31" height="39.37" id="TqhJzKD_ZfD_P6GYQ3HJ_pad-15"/><circle cx="0" cy="0" r="19.685" id="TqhJzKD_ZfD_P6GYQ3HJ_pad-16"/><rect x="-25" y="-12.5" width="50" height="25" id="TqhJzKD_ZfD_P6GYQ3HJ_pad-18"/><polygon points="29.99994,12.42638 12.42638,29.99994 -12.42638,29.99994 -29.99994,12.42638 -29.99994,-12.42638 -12.42638,-29.99994 12.42638,-29.99994 29.99994,-12.42638" id="TqhJzKD_ZfD_P6GYQ3HJ_pad-19"/><rect x="-39.37" y="-39.37" width="78.74" height="78.74" id="TqhJzKD_ZfD_P6GYQ3HJ_pad-20"/><rect x="-31.495" y="-25.59" width="62.99" height="51.18" id="TqhJzKD_ZfD_P6GYQ3HJ_pad-21"/><circle cx="0" cy="0" r="12.89" id="TqhJzKD_ZfD_P6GYQ3HJ_pad-22"/><circle cx="0" cy="0" r="16.825" id="TqhJzKD_ZfD_P6GYQ3HJ_pad-25"/></defs><g transform="translate(0,1925.6) scale(1,-1)" fill="currentColor" stroke="currentColor"><path d="M 115 107.8 115 1487.8 2325 1487.8 2325 1817.8 2755 1817.8 2755 1487.8 3025 1487.8 3025 107.8 115 107.8 M 135 127.8 135 278.1 190.62 222.48 188.1 222.48 175.35 217.2 165.6 207.45 160.31 194.7 160.31 180.9 165.6 168.15 175.35 158.39 188.1 153.11 201.9 153.11 214.65 158.39 224.4 168.15 229.68 180.9 229.68 183.42 278.3 134.8 1916.75 134.8 1929.05 147.1 2056 274.05 2056 392.56 2073.7 410.26 2117.16 410.26 2129.46 422.56 2316.87 609.97 2320.54 609.97 2330.76 614.21 2338.59 622.04 2342.83 632.26 2342.83 635.8 2468.37 635.8 2515.5 588.67 2515.5 558.24 2521.94 551.8 2588.06 551.8 2594.5 558.24 2594.5 571.8 2748.37 571.8 2791.11 529.06 2791.11 517.9 2805.1 503.91 2824.9 503.91 2838.89 517.9 2838.89 537.69 2824.9 551.69 2813.74 551.69 2761.63 603.8 2594.5 603.8 2594.5 617.36 2588.06 623.8 2525.63 623.8 2491 658.43 2481.63 667.8 2347.63 667.8 2111.63 903.8 2052.79 903.8 2044.9 911.69 2025.1 911.69 2017.21 903.8 1611.63 903.8 1601.52 913.91 1614.9 913.91 1622.79 921.8 2007.21 921.8 2015.1 913.91 2034.9 913.91 2042.79 921.8 2105.75 921.8 2345.75 681.8 2515.5 681.8 2515.5 668.24 2521.94 661.8 2584.37 661.8 2625 621.17 2634.37 611.8 2747.21 611.8 2755.1 603.91 2774.9 603.91 2788.89 617.9 2788.89 637.69 2774.9 651.69 2755.1 651.69 2747.21 643.8 2647.63 643.8 2594.5 696.93 2594.5 727.36 2588.06 733.8 2521.94 733.8 2515.5 727.36 2515.5 713.8 2359 713.8 2352.83 719.97 2360.54 719.97 2370.76 724.21 2373.35 726.8 2477.7 726.8 2490 739.1 2532.7 781.8 2588.06 781.8 2594.5 788.24 2594.5 801.8 2611.65 801.8 2619.24 794.21 2629.46 789.97 2640.54 789.97 2650.76 794.21 2658.59 802.04 2662.83 812.26 2662.83 823.33 2658.59 833.56 2650.76 841.39 2640.54 845.63 2629.46 845.63 2619.24 841.39 2611.65 833.8 2594.5 833.8 2594.5 847.36 2588.06 853.8 2521.94 853.8 2515.5 847.36 2515.5 824 2460.3 768.8 2373.35 768.8 2370.76 771.39 2360.54 775.63 2349.46 775.63 2339.24 771.39 2331.41 763.56 2327.17 753.33 2327.17 745.63 2158.89 913.91 2166.26 913.91 2259 821.17 2268.37 811.8 2463 811.8 2472.37 821.17 2543 891.8 2588.06 891.8 2594.5 898.24 2594.5 957.36 2588.06 963.8 2587 963.8 2587 1018.43 2551.63 1053.8 2432.79 1053.8 2424.9 1061.69 2405.1 1061.69 2391.11 1047.69 2391.11 1027.9 2391.25 1027.76 2381.53 1027.76 2380 1027.35 2378.47 1027.76 2350 1027.76 2350 992.17 2340 992.17 2340 1027.76 2311.53 1027.76 2307.71 1026.74 2304.29 1024.76 2301.5 1021.97 2299.53 1018.55 2298.5 1014.73 2298.5 992.17 2340 992.17 2340 982.17 2298.5 982.17 2298.5 959.6 2299.53 955.79 2301.5 952.37 2304.29 949.58 2307.71 947.6 2311.53 946.58 2340 946.58 2340 982.17 2350 982.17 2350 992.17 2391.5 992.17 2410 992.17 2410 982.17 2350 982.17 2350 946.58 2378.47 946.58 2380 946.99 2381.53 946.58 2410 946.58 2410 982.17 2420 982.17 2420 992.17 2461.5 992.17 2461.5 1014.73 2460.47 1018.55 2458.6 1021.8 2538.37 1021.8 2555 1005.17 2555 963.8 2521.94 963.8 2515.5 957.36 2515.5 909.55 2449.75 843.8 2281.63 843.8 2188.89 936.54 2188.89 947.69 2174.9 961.69 2155.1 961.69 2141.11 947.69 2141.11 931.69 2128.37 944.43 2119 953.8 2042.79 953.8 2034.9 961.69 2015.1 961.69 2007.21 953.8 1622.79 953.8 1614.9 961.69 1595.1 961.69 1581.11 947.69 1581.11 934.32 1581 934.43 1581 990.54 1571.63 999.91 1535 1036.54 1535 1045.8 1849 1045.8 1849 1044.74 1855.44 1038.3 1914.56 1038.3 1921 1044.74 1921 1107.17 1928.16 1114.33 1937.54 1123.71 1937.54 1129.17 1951.11 1115.6 1951.11 1104.44 1965.1 1090.44 1984.9 1090.44 1998.89 1104.44 1998.89 1124.23 1986.01 1137.11 2014.67 1137.11 2021.12 1143.56 2021.12 1151.8 2024 1151.8 2024 1149.64 2030.24 1134.57 2041.78 1123.04 2056.84 1116.8 2133.16 1116.8 2148.22 1123.04 2159.76 1134.57 2166 1149.64 2166 1165.95 2159.76 1181.02 2148.22 1192.56 2133.16 1198.8 2056.84 1198.8 2041.78 1192.56 2033.02 1183.8 2021.12 1183.8 2021.12 1192.04 2014.67 1198.48 1962.25 1198.48 1955.81 1192.04 1955.81 1156.15 1954.19 1157.77 1954.19 1192.04 1947.75 1198.48 1895.33 1198.48 1888.88 1192.04 1888.88 1183.8 1871.12 1183.8 1871.12 1192.04 1864.67 1198.48 1812.25 1198.48 1807.12 1193.35 1805.19 1196.69 1802.4 1199.49 1798.98 1201.46 1795.16 1202.48 1776.38 1202.48 1776.38 1172.64 1766.69 1172.64 1766.69 1162.96 1734.88 1162.96 1734.88 1146.14 1735.9 1142.32 1737.88 1138.9 1740.67 1136.11 1744.09 1134.14 1747.91 1133.11 1766.69 1133.11 1766.69 1162.96 1776.38 1162.96 1776.38 1133.11 1795.16 1133.11 1798.98 1134.14 1802.4 1136.11 1805.19 1138.9 1807.12 1142.25 1812.25 1137.11 1864.67 1137.11 1871.12 1143.56 1871.12 1151.8 1888.88 1151.8 1888.88 1143.56 1895.33 1137.11 1905.54 1137.11 1905.54 1136.96 1885.87 1117.3 1855.44 1117.3 1849 1110.86 1849 1077.8 1482.37 1077.8 1478.89 1074.32 1478.89 1087.69 1473.03 1093.56 1711.95 1332.48 1751.12 1332.48 1751.8 1331.8 1845.5 1331.8 1845.5 1308.24 1851.94 1301.8 1885 1301.8 1885 1263.8 1871.12 1263.8 1871.12 1272.04 1864.67 1278.48 1812.25 1278.48 1807.12 1273.35 1805.19 1276.69 1802.4 1279.49 1798.98 1281.46 1795.16 1282.48 1776.38 1282.48 1776.38 1252.64 1766.69 1252.64 1766.69 1242.96 1734.88 1242.96 1734.88 1226.14 1735.9 1222.32 1737.88 1218.9 1740.67 1216.11 1744.09 1214.14 1747.91 1213.11 1766.69 1213.11 1766.69 1242.96 1776.38 1242.96 1776.38 1213.11 1795.16 1213.11 1798.98 1214.14 1802.4 1216.11 1805.19 1218.9 1807.12 1222.25 1812.25 1217.11 1864.67 1217.11 1871.12 1223.56 1871.12 1231.8 1888.88 1231.8 1888.88 1223.56 1895.33 1217.11 1947.75 1217.11 1954.19 1223.56 1954.19 1257.82 1955.81 1259.45 1955.81 1223.56 1962.25 1217.11 2014.67 1217.11 2021.12 1223.56 2021.12 1231.8 2033.02 1231.8 2041.78 1223.04 2056.84 1216.8 2133.16 1216.8 2148.22 1223.04 2159.76 1234.57 2166 1249.64 2166 1265.95 2159.76 1281.02 2148.22 1292.56 2133.16 1298.8 2056.84 1298.8 2041.78 1292.56 2030.24 1281.02 2024 1265.95 2024 1263.8 2021.12 1263.8 2021.12 1272.04 2014.67 1278.48 1971 1278.48 1971 1280.01 1978.89 1287.9 1978.89 1307.69 1964.9 1321.69 1945.1 1321.69 1931.11 1307.69 1931.11 1287.9 1935.06 1283.95 1929.59 1278.48 1917 1278.48 1917 1301.8 1918.06 1301.8 1924.5 1308.24 1924.5 1367.36 1918.06 1373.8 1851.94 1373.8 1845.5 1367.36 1845.5 1363.8 1765.06 1363.8 1764.37 1364.48 1698.7 1364.48 1448.37 1114.16 1439 1104.79 1439 1095.58 1431.11 1087.69 1431.11 1067.9 1445.1 1053.91 1451.11 1053.91 1451.11 1037.9 1465.1 1023.91 1484.9 1023.91 1488.05 1027.07 1501.21 1013.91 1512.37 1013.91 1524.85 1001.43 1511.11 987.69 1511.11 967.9 1519 960.01 1519 851.17 1611.11 759.06 1611.11 747.9 1625.1 733.91 1639.22 733.91 1639.22 726.01 1653.21 712.02 1673 712.02 1680.89 719.91 1683.32 719.91 1671.11 707.69 1671.11 687.9 1685.1 673.91 1704.9 673.91 1712.79 681.8 1961.63 681.8 2021.63 741.8 2027.25 741.8 2030.24 734.57 2041.78 723.04 2056.84 716.8 2133.16 716.8 2148.22 723.04 2159.76 734.57 2166 749.64 2166 765.95 2159.76 781.02 2148.22 792.56 2133.16 798.8 2056.84 798.8 2041.78 792.56 2030.24 781.02 2027.25 773.8 2008.37 773.8 1948.37 713.8 1712.79 713.8 1706.68 719.91 1891.63 719.91 1983.52 811.8 2097.21 811.8 2105.1 803.91 2124.9 803.91 2138.89 817.9 2138.89 831.28 2305.99 664.18 2299.24 661.39 2291.41 653.56 2287.17 643.33 2287.17 639.67 2099.77 452.26 1947.54 452.26 1947.54 487.11 1957.75 487.11 1964.19 493.56 1964.19 542.04 1957.75 548.48 1905.33 548.48 1898.88 542.04 1898.88 533.8 1761.63 533.8 1671.52 623.91 1674.9 623.91 1682.79 631.8 2033.02 631.8 2041.78 623.04 2056.84 616.8 2133.16 616.8 2148.22 623.04 2159.76 634.57 2166 649.64 2166 665.95 2159.76 681.02 2148.22 692.56 2133.16 698.8 2056.84 698.8 2041.78 692.56 2030.24 681.02 2024 665.95 2024 663.8 1682.79 663.8 1674.9 671.69 1655.1 671.69 1641.11 657.69 1641.11 654.32 1466.51 828.92 1474.9 828.92 1488.89 842.91 1488.89 862.7 1481 870.59 1481 882.8 1488.89 890.69 1488.89 910.48 1474.9 924.48 1455.1 924.48 1441.11 910.48 1441.11 890.69 1449 882.8 1449 870.59 1441.11 862.7 1441.11 861.69 1425.1 861.69 1415.47 852.05 1415.47 1069.96 1392.1 1093.32 1359.06 1093.32 1209.53 943.8 956.57 943.8 946.79 953.58 927 953.58 916 942.58 916 1060.64 906.63 1070.01 906.63 1070.01 904.32 1072.32 894.95 1081.69 683.74 1081.69 567.74 1197.69 358.48 1197.69 354.59 1193.8 352.79 1193.8 344.9 1201.69 325.1 1201.69 311.11 1187.69 311.11 1167.9 325.1 1153.91 344.9 1153.91 351.11 1160.12 351.11 1147.9 359 1140.01 359 1025.06 399.32 984.74 349.37 934.8 169.37 934.8 160 925.43 148 913.43 148 848.15 244.98 751.17 247.36 748.8 196.84 748.8 181.78 742.56 170.24 731.02 164 715.95 164 711.5 135 682.5 135 1467.8 2333.28 1467.8 2345 1479.51 2345 1497.8 2735 1497.8 2735 1479.51 2746.72 1467.8 3005 1467.8 3005 127.8 135 127.8 M 135 128.66 3005 128.66 M 3005 138.65 1920.6 138.65 M 1930.59 148.63 3005 148.63 M 3005 158.62 2964.87 158.62 M 2964.65 158.39 2974.4 168.15 2979.68 180.9 2979.68 194.7 2974.4 207.45 2964.65 217.2 2951.9 222.48 2938.1 222.48 2925.35 217.2 2915.6 207.45 2910.31 194.7 2910.31 180.9 2915.6 168.15 2925.35 158.39 2938.1 153.11 2951.9 153.11 2964.65 158.39 M 2974.59 168.6 3005 168.6 M 3005 178.59 2978.73 178.59 M 2979.68 188.57 3005 188.57 M 3005 198.56 2978.09 198.56 M 2973.31 208.54 3005 208.54 M 3005 218.53 2961.45 218.53 M 2928.55 218.53 2000.48 218.53 M 1990.5 208.54 2916.69 208.54 M 2911.91 198.56 1980.51 198.56 M 1970.53 188.57 2910.31 188.57 M 2911.27 178.59 1960.54 178.59 M 1950.56 168.6 2915.41 168.6 M 2925.13 158.62 1940.57 158.62 M 2010.47 228.51 3005 228.51 M 3005 238.5 2020.45 238.5 M 2030.44 248.48 3005 248.48 M 3005 258.47 2040.42 258.47 M 2050.41 268.45 3005 268.45 M 3005 278.44 2056 278.44 M 2056 288.42 3005 288.42 M 3005 298.41 2056 298.41 M 2056 308.39 3005 308.39 M 3005 318.38 2056 318.38 M 2056 328.36 3005 328.36 M 3005 338.35 2056 338.35 M 2056 348.33 3005 348.33 M 3005 358.32 2056 358.32 M 2056 368.3 3005 368.3 M 3005 378.29 2056 378.29 M 2056 388.28 3005 388.28 M 3005 398.26 2061.7 398.26 M 2071.68 408.25 3005 408.25 M 3005 418.23 2125.13 418.23 M 2135.12 428.22 3005 428.22 M 3005 438.2 2145.1 438.2 M 2155.09 448.19 3005 448.19 M 3005 458.17 2165.07 458.17 M 2175.06 468.16 3005 468.16 M 3005 478.14 2185.04 478.14 M 2195.03 488.13 3005 488.13 M 3005 498.11 2205.01 498.11 M 2215 508.1 2800.92 508.1 M 2791.11 518.08 2224.98 518.08 M 2234.97 528.07 2791.11 528.07 M 2782.12 538.05 2244.95 538.05 M 2254.94 548.04 2772.13 548.04 M 2762.15 558.02 2594.28 558.02 M 2594.5 568.01 2752.16 568.01 M 2787.43 577.99 3005 577.99 M 3005 568.01 2797.42 568.01 M 2807.4 558.02 3005 558.02 M 3005 548.04 2828.55 548.04 M 2838.53 538.05 3005 538.05 M 3005 528.07 2838.89 528.07 M 2838.89 518.08 3005 518.08 M 3005 508.1 2829.08 508.1 M 2815 527.8 2755 587.8 2571 587.8 M 2594.5 607.95 2751.07 607.95 M 2767.46 597.96 3005 597.96 M 3005 587.98 2777.45 587.98 M 2778.93 607.95 3005 607.95 M 3005 617.93 2788.89 617.93 M 2788.89 627.92 3005 627.92 M 3005 637.9 2788.68 637.9 M 2778.7 647.89 3005 647.89 M 3005 657.87 2633.55 657.87 M 2643.54 647.89 2751.3 647.89 M 2765 627.8 2641 627.8 2571 697.8 M 2594.5 697.81 3005 697.81 M 3005 687.83 2603.6 687.83 M 2613.58 677.84 3005 677.84 M 3005 667.86 2623.57 667.86 M 2598.28 647.89 2501.54 647.89 M 2511.52 637.9 2608.27 637.9 M 2618.25 627.92 2521.51 627.92 M 2496.22 607.95 2314.85 607.95 M 2304.86 597.96 2506.21 597.96 M 2515.5 587.98 2294.88 587.98 M 2284.89 577.99 2515.5 577.99 M 2515.5 568.01 2274.91 568.01 M 2264.92 558.02 2515.72 558.02 M 2539 587.8 2475 651.8 2341 651.8 2105 887.8 2035 887.8 1605 887.8 1565 927.8 1565 983.91 1511.11 1037.8 M 1535 1037.31 2391.11 1037.31 M 2391.11 1047.29 1921 1047.29 M 1921 1057.28 2400.69 1057.28 M 2415 1037.8 2545 1037.8 2571 1011.8 2571 927.8 M 2594.5 927.47 3005 927.47 M 3005 917.49 2594.5 917.49 M 2594.5 907.5 3005 907.5 M 3005 897.52 2593.77 897.52 M 2594.26 847.59 2712.5 847.59 M 2712.5 857.32 2712.5 797.02 2718.95 790.58 2791.05 790.58 2861.05 790.58 2867.5 797.02 2867.5 803.91 2884.9 803.91 2898.89 817.9 2898.89 837.69 2884.9 851.69 2867.5 851.69 2867.5 857.32 2861.05 863.76 2718.95 863.76 2712.5 857.32 M 2712.76 857.58 2508.78 857.58 M 2515.74 847.59 2498.79 847.59 M 2488.81 837.61 2515.5 837.61 M 2515.5 827.62 2478.82 827.62 M 2468.84 817.64 2509.14 817.64 M 2499.15 807.65 2265.15 807.65 M 2262.54 817.64 2255.16 817.64 M 2252.55 827.62 2245.18 827.62 M 2242.57 837.61 2235.19 837.61 M 2232.58 847.59 2225.21 847.59 M 2222.6 857.58 2215.22 857.58 M 2212.61 867.56 2205.24 867.56 M 2202.63 877.55 2195.25 877.55 M 2192.64 887.53 2185.27 887.53 M 2182.66 897.52 2175.28 897.52 M 2172.67 907.5 2165.3 907.5 M 2140.01 887.53 2127.9 887.53 M 2130.03 897.52 2117.91 897.52 M 2120.04 907.5 2049.08 907.5 M 2038.47 917.49 2110.06 917.49 M 2112.37 937.8 2025 937.8 1605 937.8 M 1581.11 937.46 1581 937.46 M 1581 947.44 1581.11 947.44 M 1581 957.43 1590.84 957.43 M 1581 967.41 2298.5 967.41 M 2298.5 977.4 1581 977.4 M 1581 987.38 2340 987.38 M 2345 987.17 2304.37 987.17 2295 977.8 M 2298.5 997.37 1574.17 997.37 M 1564.18 1007.35 2298.5 1007.35 M 2299.2 1017.34 1554.2 1017.34 M 1544.21 1027.32 2309.9 1027.32 M 2340 1027.32 2350 1027.32 M 2350 1017.34 2340 1017.34 M 2340 1007.35 2350 1007.35 M 2350 997.37 2340 997.37 M 2345 987.17 2415 987.17 M 2420 987.38 2555 987.38 M 2555 977.4 2461.5 977.4 M 2461.5 982.17 2420 982.17 2420 946.58 2448.47 946.58 2452.29 947.6 2455.71 949.58 2458.5 952.37 2460.47 955.79 2461.5 959.6 2461.5 982.17 M 2461.5 967.41 2555 967.41 M 2587 967.41 3005 967.41 M 3005 957.43 2594.43 957.43 M 2594.5 947.44 3005 947.44 M 3005 937.46 2594.5 937.46 M 2587 977.4 3005 977.4 M 3005 987.38 2587 987.38 M 2587 997.37 3005 997.37 M 3005 1007.35 2587 1007.35 M 2587 1017.34 3005 1017.34 M 3005 1027.32 2578.1 1027.32 M 2568.12 1037.31 3005 1037.31 M 3005 1047.29 2558.13 1047.29 M 2542.83 1017.34 2460.8 1017.34 M 2461.5 1007.35 2552.82 1007.35 M 2555 997.37 2461.5 997.37 M 2460.91 957.43 2515.57 957.43 M 2515.5 947.44 2451.69 947.44 M 2451.05 945.02 2457.5 938.58 2457.5 878.28 2451.05 871.84 2308.95 871.84 2302.5 878.28 2302.5 892.43 2297.74 892.43 2296.26 893.91 2285.1 893.91 2271.11 907.9 2271.11 927.69 2285.1 941.69 2304.9 941.69 2305.26 941.33 2308.95 945.02 2451.05 945.02 M 2457.5 937.46 2515.5 937.46 M 2515.5 927.47 2457.5 927.47 M 2457.5 917.49 2515.5 917.49 M 2513.45 907.5 2457.5 907.5 M 2457.5 897.52 2503.46 897.52 M 2493.48 887.53 2457.5 887.53 M 2456.76 877.55 2483.49 877.55 M 2473.51 867.56 2257.87 867.56 M 2267.85 857.58 2463.52 857.58 M 2453.54 847.59 2277.84 847.59 M 2275 827.8 2285 827.8 2456.37 827.8 2539 910.43 2539 927.8 M 2538.73 887.53 3005 887.53 M 3005 877.55 2528.75 877.55 M 2518.76 867.56 3005 867.56 M 3005 857.58 2867.24 857.58 M 2888.99 847.59 3005 847.59 M 3005 837.61 2898.89 837.61 M 2898.89 827.62 3005 827.62 M 3005 817.64 2898.62 817.64 M 2888.64 807.65 3005 807.65 M 3005 797.66 2867.5 797.66 M 2862.29 788 2858.47 789.02 2830 789.02 2830 753.43 2820 753.43 2820 789.02 2791.53 789.02 2790 788.61 2788.47 789.02 2760 789.02 2760 753.43 2750 753.43 2750 789.02 2721.53 789.02 2717.71 788 2714.29 786.02 2711.5 783.23 2709.53 779.81 2708.5 775.99 2708.5 753.43 2750 753.43 2750 743.43 2708.5 743.43 2708.5 720.86 2709.53 717.05 2711.5 713.63 2714.29 710.84 2717.71 708.86 2721.53 707.84 2750 707.84 2750 743.43 2760 743.43 2760 753.43 2801.5 753.43 2820 753.43 2820 743.43 2760 743.43 2760 707.84 2788.47 707.84 2790 708.25 2791.53 707.84 2820 707.84 2820 743.43 2830 743.43 2830 753.43 2871.5 753.43 2871.5 775.99 2870.47 779.81 2868.5 783.23 2865.71 786.02 2862.29 788 M 2862.84 787.68 3005 787.68 M 3005 777.69 2871.04 777.69 M 2871.5 767.71 3005 767.71 M 3005 757.72 2871.5 757.72 M 2871.5 743.43 2830 743.43 2830 707.84 2858.47 707.84 2862.29 708.86 2865.71 710.84 2868.5 713.63 2870.47 717.05 2871.5 720.86 2871.5 743.43 M 2871.5 737.75 3005 737.75 M 3005 727.77 2871.5 727.77 M 2870.67 717.78 3005 717.78 M 3005 707.8 2594.5 707.8 M 2594.5 717.78 2709.33 717.78 M 2708.5 727.77 2594.09 727.77 M 2539 697.8 2352.37 697.8 2112.37 937.8 M 2125.36 947.44 2141.11 947.44 M 2141.11 937.46 2135.34 937.46 M 2150.84 957.43 2039.16 957.43 M 2010.84 957.43 1619.16 957.43 M 1618.47 917.49 2011.53 917.49 M 2020.92 907.5 1607.92 907.5 M 1535 857.8 1635 757.8 M 1611.11 757.72 1537.7 757.72 M 1547.69 747.74 1611.27 747.74 M 1621.26 737.75 1557.67 737.75 M 1567.66 727.77 1639.22 727.77 M 1647.44 717.78 1577.64 717.78 M 1587.63 707.8 1671.21 707.8 M 1671.11 697.81 1597.61 697.81 M 1607.6 687.83 1671.18 687.83 M 1681.17 677.84 1617.58 677.84 M 1627.57 667.86 1651.27 667.86 M 1641.29 657.87 1637.55 657.87 M 1665 647.8 2085 647.8 2095 657.8 M 2135.89 617.93 2265.44 617.93 M 2275.42 627.92 2153.1 627.92 M 2161.14 637.9 2285.41 637.9 M 2289.06 647.89 2165.27 647.89 M 2166 657.87 2295.72 657.87 M 2302.31 667.86 2165.21 667.86 M 2161.08 677.84 2292.33 677.84 M 2282.34 687.83 2152.95 687.83 M 2135.53 697.81 2272.36 697.81 M 2262.37 707.8 1987.63 707.8 M 1997.61 717.78 2054.47 717.78 M 2054.47 697.81 1977.64 697.81 M 1967.66 687.83 2037.05 687.83 M 2028.92 677.84 1708.83 677.84 M 1678.73 667.86 2024.79 667.86 M 2036.9 627.92 1678.9 627.92 M 1677.49 617.93 2054.11 617.93 M 1998.89 587.69 1998.89 576.54 2014.46 560.96 2014.46 548.48 2024.67 548.48 2031.12 542.04 2031.12 533.8 2054 533.8 2054 534.78 2078.02 558.8 2111.98 558.8 2136 534.78 2136 500.82 2111.98 476.8 2078.02 476.8 2054 500.82 2054 501.8 2031.12 501.8 2031.12 493.56 2024.67 487.11 1972.25 487.11 1965.81 493.56 1965.81 542.04 1972.25 548.48 1981.69 548.48 1976.26 553.91 1965.1 553.91 1951.11 567.9 1951.11 587.69 1965.1 601.69 1984.9 601.69 1998.89 587.69 M 1998.61 587.98 2235.48 587.98 M 2245.47 597.96 1988.62 597.96 M 1998.89 577.99 2225.5 577.99 M 2215.51 568.01 2007.42 568.01 M 2014.46 558.02 2077.24 558.02 M 2067.26 548.04 2025.12 548.04 M 2031.12 538.05 2057.27 538.05 M 2095 517.8 1998.46 517.8 1998.46 554.33 1975 577.8 M 1951.11 577.99 1717.43 577.99 M 1707.45 587.98 1951.39 587.98 M 1961.38 597.96 1697.46 597.96 M 1687.48 607.95 2255.45 607.95 M 2205.52 558.02 2112.76 558.02 M 2122.74 548.04 2195.54 548.04 M 2185.55 538.05 2132.73 538.05 M 2136 528.07 2175.57 528.07 M 2165.58 518.08 2136 518.08 M 2136 508.1 2155.6 508.1 M 2145.61 498.11 2133.3 498.11 M 2135.63 488.13 2123.31 488.13 M 2125.64 478.14 2113.33 478.14 M 2115.66 468.16 1947.54 468.16 M 1947.54 478.14 2076.67 478.14 M 2066.69 488.13 2025.69 488.13 M 2031.12 498.11 2056.7 498.11 M 2105.67 458.17 1947.54 458.17 M 1931.54 457.8 1931.54 517.8 1755 517.8 1435 837.8 M 1420.99 857.58 1415.47 857.58 M 1415.47 867.56 1445.97 867.56 M 1449 877.55 1415.47 877.55 M 1415.47 887.53 1444.27 887.53 M 1441.11 897.52 1415.47 897.52 M 1415.47 907.5 1441.11 907.5 M 1448.11 917.49 1415.47 917.49 M 1415.47 927.47 1519 927.47 M 1519 917.49 1481.89 917.49 M 1488.89 907.5 1519 907.5 M 1519 897.52 1488.89 897.52 M 1485.73 887.53 1519 887.53 M 1519 877.55 1481 877.55 M 1484.03 867.56 1519 867.56 M 1519 857.58 1488.89 857.58 M 1488.89 847.59 1522.58 847.59 M 1532.57 837.61 1483.58 837.61 M 1467.81 827.62 1542.55 827.62 M 1552.54 817.64 1477.79 817.64 M 1487.78 807.65 1562.52 807.65 M 1572.51 797.66 1497.76 797.66 M 1507.75 787.68 1582.49 787.68 M 1592.48 777.69 1517.73 777.69 M 1527.72 767.71 1602.46 767.71 M 1663.11 735.91 1885 735.91 1976.89 827.8 2115 827.8 M 2138.89 827.62 2142.55 827.62 M 2138.62 817.64 2152.54 817.64 M 2162.52 807.65 2128.64 807.65 M 2135.89 797.66 2172.51 797.66 M 2182.49 787.68 2153.1 787.68 M 2161.14 777.69 2192.48 777.69 M 2202.46 767.71 2165.27 767.71 M 2166 757.72 2212.45 757.72 M 2222.43 747.74 2165.21 747.74 M 2161.08 737.75 2232.42 737.75 M 2242.4 727.77 2152.95 727.77 M 2135.53 717.78 2252.39 717.78 M 2277.67 737.75 2289.79 737.75 M 2287.66 727.77 2299.77 727.77 M 2297.64 717.78 2309.76 717.78 M 2307.63 707.8 2319.75 707.8 M 2317.61 697.81 2329.73 697.81 M 2327.6 687.83 2339.72 687.83 M 2337.58 677.84 2515.5 677.84 M 2515.88 667.86 2347.57 667.86 M 2341.03 627.92 2476.25 627.92 M 2486.24 617.93 2334.49 617.93 M 2491.55 657.87 2588.3 657.87 M 2593.92 617.93 2628.24 617.93 M 2625 621.17 2625 621.17 M 2665 717.8 2695.63 748.43 2755 748.43 2825 748.43 M 2830 747.74 3005 747.74 M 2875 827.8 2825.63 827.8 2825 827.17 2755 827.17 M 2712.5 827.62 2661.05 827.62 M 2662.83 817.64 2712.5 817.64 M 2712.5 807.65 2660.92 807.65 M 2654.22 797.66 2712.5 797.66 M 2717.16 787.68 2593.94 787.68 M 2594.5 797.66 2615.78 797.66 M 2635 817.8 2571 817.8 M 2594.5 837.61 2615.45 837.61 M 2654.55 837.61 2712.5 837.61 M 2708.96 777.69 2528.59 777.69 M 2518.61 767.71 2708.5 767.71 M 2708.5 757.72 2508.62 757.72 M 2498.64 747.74 2750 747.74 M 2750 757.72 2760 757.72 M 2760 747.74 2820 747.74 M 2820 757.72 2830 757.72 M 2830 767.71 2820 767.71 M 2820 777.69 2830 777.69 M 2830 787.68 2820 787.68 M 2820 737.75 2830 737.75 M 2830 727.77 2820 727.77 M 2820 717.78 2830 717.78 M 2760 717.78 2750 717.78 M 2750 727.77 2760 727.77 M 2760 737.75 2750 737.75 M 2750 767.71 2760 767.71 M 2760 777.69 2750 777.69 M 2750 787.68 2760 787.68 M 2708.5 737.75 2488.65 737.75 M 2478.67 727.77 2515.91 727.77 M 2515.5 717.78 2355.01 717.78 M 2327.17 747.74 2325.06 747.74 M 2328.99 757.72 2315.07 757.72 M 2305.09 767.71 2335.56 767.71 M 2295.1 777.69 2469.2 777.69 M 2479.18 787.68 2285.12 787.68 M 2275.13 797.66 2489.17 797.66 M 2665 717.8 2665 927.8 2615 977.8 2615 1057.8 2655 1097.8 M 2429.31 1057.28 3005 1057.28 M 3005 1067.26 1921 1067.26 M 1921 1077.25 3005 1077.25 M 3005 1087.23 1921 1087.23 M 1921 1097.22 1958.33 1097.22 M 1951.11 1107.2 1921.03 1107.2 M 1931.02 1117.19 1949.52 1117.19 M 1939.53 1127.17 1937.54 1127.17 M 1921.54 1130.33 1921.54 1167.8 1975 1114.33 M 1991.67 1097.22 3005 1097.22 M 3005 1107.2 1998.89 1107.2 M 1998.89 1117.19 2055.9 1117.19 M 2037.64 1127.17 1995.95 1127.17 M 2014.72 1137.16 2029.17 1137.16 M 2025.04 1147.14 2021.12 1147.14 M 1988.46 1167.8 2085 1167.8 2095 1157.8 M 2052.67 1197.07 2016.09 1197.07 M 2021.12 1187.08 2036.3 1187.08 M 2056.26 1217.04 1803.33 1217.04 M 1804.82 1197.07 1810.84 1197.07 M 1776.38 1197.07 1766.69 1197.07 M 1766.69 1202.48 1747.91 1202.48 1744.09 1201.46 1740.67 1199.49 1737.88 1196.69 1735.9 1193.27 1734.88 1189.46 1734.88 1172.64 1766.69 1172.64 1766.69 1202.48 M 1766.69 1217.04 1776.38 1217.04 M 1776.38 1227.02 1766.69 1227.02 M 1766.69 1237.01 1776.38 1237.01 M 1771.54 1247.8 1771.54 1167.8 1771.54 1111.26 1775 1107.8 M 1776.38 1137.16 1766.69 1137.16 M 1766.69 1147.14 1776.38 1147.14 M 1776.38 1157.13 1766.69 1157.13 M 1766.69 1167.11 1546.58 1167.11 M 1536.6 1157.13 1734.88 1157.13 M 1734.88 1147.14 1526.61 1147.14 M 1516.63 1137.16 1739.62 1137.16 M 1734.88 1177.1 1556.57 1177.1 M 1566.55 1187.08 1734.88 1187.08 M 1738.25 1197.07 1576.54 1197.07 M 1586.52 1207.05 3005 1207.05 M 3005 1197.07 2137.33 1197.07 M 2153.7 1187.08 3005 1187.08 M 3005 1177.1 2161.38 1177.1 M 2165.52 1167.11 3005 1167.11 M 3005 1157.13 2166 1157.13 M 2164.96 1147.14 3005 1147.14 M 3005 1137.16 2160.83 1137.16 M 2152.36 1127.17 3005 1127.17 M 3005 1117.19 2134.1 1117.19 M 1960.84 1197.07 1949.16 1197.07 M 1954.19 1187.08 1955.81 1187.08 M 1955.81 1177.1 1954.19 1177.1 M 1954.19 1167.11 1955.81 1167.11 M 1955.81 1157.13 1954.83 1157.13 M 1921.54 1167.8 1838.46 1167.8 M 1871.12 1187.08 1888.88 1187.08 M 1893.91 1197.07 1866.09 1197.07 M 1871.12 1227.02 1888.88 1227.02 M 1921.54 1247.8 1838.46 1247.8 M 1871.12 1266.97 1885 1266.97 M 1885 1276.95 1866.21 1276.95 M 1885 1286.94 1666.4 1286.94 M 1676.39 1296.92 1885 1296.92 M 1917 1296.92 1931.11 1296.92 M 1931.11 1306.91 1923.16 1306.91 M 1924.5 1316.89 1940.31 1316.89 M 1924.5 1326.88 3005 1326.88 M 3005 1336.86 1924.5 1336.86 M 1924.5 1346.85 3005 1346.85 M 3005 1356.83 1924.5 1356.83 M 1924.5 1366.82 3005 1366.82 M 3005 1376.8 2960.8 1376.8 M 2964.65 1378.39 2974.4 1388.15 2979.68 1400.9 2979.68 1414.7 2974.4 1427.45 2964.65 1437.2 2951.9 1442.48 2938.1 1442.48 2925.35 1437.2 2915.6 1427.45 2910.31 1414.7 2910.31 1400.9 2915.6 1388.15 2925.35 1378.39 2938.1 1373.11 2951.9 1373.11 2964.65 1378.39 M 2973.04 1386.79 3005 1386.79 M 3005 1396.77 2977.98 1396.77 M 2979.68 1406.76 3005 1406.76 M 3005 1416.74 2978.84 1416.74 M 2974.7 1426.73 3005 1426.73 M 3005 1436.71 2965.14 1436.71 M 2924.86 1436.71 409.37 1436.71 M 409.37 1439.14 408.35 1442.96 406.37 1446.38 403.58 1449.17 400.16 1451.15 396.34 1452.17 360 1452.17 360 1402.8 350 1402.8 350 1452.17 313.66 1452.17 309.84 1451.15 306.42 1449.17 303.63 1446.38 301.65 1442.96 300.63 1439.14 300.63 1402.8 350 1402.8 350 1392.8 300.63 1392.8 300.63 1356.45 301.65 1352.64 303.63 1349.22 306.42 1346.43 309.84 1344.45 313.66 1343.43 350 1343.43 350 1392.8 360 1392.8 360 1402.8 409.37 1402.8 409.37 1439.14 M 406.05 1446.7 3005 1446.7 M 3005 1456.68 135 1456.68 M 135 1446.7 303.95 1446.7 M 300.63 1436.71 215.14 1436.71 M 214.65 1437.2 201.9 1442.48 188.1 1442.48 175.35 1437.2 165.6 1427.45 160.31 1414.7 160.31 1400.9 165.6 1388.15 175.35 1378.39 188.1 1373.11 201.9 1373.11 214.65 1378.39 224.4 1388.15 229.68 1400.9 229.68 1414.7 224.4 1427.45 214.65 1437.2 M 224.7 1426.73 300.63 1426.73 M 300.63 1416.74 228.84 1416.74 M 229.68 1406.76 300.63 1406.76 M 300.63 1386.79 223.04 1386.79 M 227.98 1396.77 350 1396.77 M 355 1397.8 575 1397.8 705 1267.8 705 1107.8 M 678.19 1087.23 975.5 1087.23 M 975.5 1077.25 899.39 1077.25 M 904.32 1072.32 904.32 1072.32 M 909.38 1067.26 975.5 1067.26 M 975.5 1066.93 969.91 1061.33 960.54 1051.96 960.54 1013.48 950.33 1013.48 943.88 1007.04 943.88 958.56 950.33 952.11 1002.75 952.11 1009.19 958.56 1009.19 1007.04 1002.75 1013.48 992.54 1013.48 992.54 1031.8 1048.06 1031.8 1054.5 1038.24 1054.5 1051.8 1085.21 1051.8 1081.11 1047.69 1081.11 1027.9 1095.1 1013.91 1114.9 1013.91 1122.79 1021.8 1148.37 1021.8 1181.11 989.06 1181.11 977.9 1195.1 963.91 1214.9 963.91 1228.89 977.9 1228.89 997.69 1214.9 1011.69 1203.74 1011.69 1171 1044.43 1163.63 1051.8 1277.21 1051.8 1285.1 1043.91 1304.9 1043.91 1318.89 1057.9 1318.89 1077.69 1304.9 1091.69 1285.1 1091.69 1277.21 1083.8 1054.5 1083.8 1054.5 1087.8 1067.63 1087.8 1073.74 1093.91 1084.9 1093.91 1098.89 1107.9 1098.89 1127.69 1094.78 1131.8 1111.63 1131.8 1121 1141.17 1262.32 1282.49 1271.78 1273.04 1286.84 1266.8 1303.16 1266.8 1318.22 1273.04 1329.76 1284.57 1336 1299.64 1336 1375.95 1329.76 1391.02 1318.22 1402.56 1303.16 1408.8 1286.84 1408.8 1271.78 1402.56 1260.24 1391.02 1254 1375.95 1254 1319.43 1236 1301.43 1236 1375.95 1229.76 1391.02 1218.22 1402.56 1203.16 1408.8 1186.84 1408.8 1171.78 1402.56 1160.24 1391.02 1154 1375.95 1154 1319.43 1136 1301.43 1136 1375.95 1129.76 1391.02 1118.22 1402.56 1103.16 1408.8 1086.84 1408.8 1071.78 1402.56 1060.24 1391.02 1054 1375.95 1054 1299.64 1060.24 1284.57 1071.78 1273.04 1086.84 1266.8 1101.37 1266.8 1032.37 1197.8 961 1197.8 961 1230.86 954.56 1237.3 941 1237.3 941 1270.05 948.22 1273.04 959.76 1284.57 966 1299.64 966 1375.95 959.76 1391.02 948.22 1402.56 933.16 1408.8 916.84 1408.8 901.78 1402.56 890.24 1391.02 884 1375.95 884 1299.64 890.24 1284.57 901.78 1273.04 909 1270.05 909 1237.3 895.44 1237.3 889 1230.86 889 1164.74 889.94 1163.8 865.63 1163.8 861 1168.43 861 1230.86 854.56 1237.3 841 1237.3 841 1270.05 848.22 1273.04 859.76 1284.57 866 1299.64 866 1375.95 859.76 1391.02 848.22 1402.56 833.16 1408.8 816.84 1408.8 801.78 1402.56 790.24 1391.02 784 1375.95 784 1299.64 790.24 1284.57 801.78 1273.04 809 1270.05 809 1237.3 795.44 1237.3 789 1230.86 789 1164.74 795.44 1158.3 825.87 1158.3 843 1141.17 852.37 1131.8 1055.21 1131.8 1051.11 1127.69 1051.11 1119.8 1007.32 1119.8 997.94 1110.43 991.5 1103.98 991.5 1103.8 981.94 1103.8 975.5 1097.36 975.5 1066.93 M 965.85 1057.28 916 1057.28 M 916 1047.29 960.54 1047.29 M 960.54 1037.31 916 1037.31 M 916 1027.32 960.54 1027.32 M 960.54 1017.34 916 1017.34 M 916 1007.35 944.19 1007.35 M 943.88 997.37 916 997.37 M 916 987.38 943.88 987.38 M 943.88 977.4 916 977.4 M 916 967.41 943.88 967.41 M 945.01 957.43 916 957.43 M 916 947.44 920.86 947.44 M 936.89 929.69 938.79 927.8 1216.16 927.8 1365.68 1077.32 1385.47 1077.32 1399.47 1063.33 1399.47 703.33 1405 697.8 M 1375.58 708.38 1375.58 1053.43 M 1357.92 1037.31 1348.29 1037.31 M 1353.11 1042.12 1359.58 1035.65 1359.58 715.01 1137.68 493.1 1128.22 502.56 1113.16 508.8 1096.84 508.8 1081.78 502.56 1080 500.78 1080 551.43 947.52 683.91 954.9 683.91 962.79 691.8 998.37 691.8 1119 571.17 1128.37 561.8 1141.63 561.8 1144.42 564.59 1145.1 563.91 1164.9 563.91 1178.89 577.9 1178.89 597.69 1164.9 611.69 1145.1 611.69 1134.42 601 1011.63 723.8 962.79 723.8 954.9 731.69 935.1 731.69 921.11 717.69 921.11 710.32 908.84 722.58 914.5 728.24 914.5 787.36 908.06 793.8 841.94 793.8 835.5 787.36 835.5 773.8 351.63 773.8 338.89 786.54 338.89 797.69 326.31 810.27 337.84 821.8 1117.21 821.8 1125.1 813.91 1139 813.91 1139 665.58 1131.11 657.69 1131.11 637.9 1097.52 637.9 M 1107.51 627.92 1141.1 627.92 M 1145.1 623.91 1164.9 623.91 1178.89 637.9 1282.48 637.9 M 1292.46 647.89 1178.89 647.89 M 1178.89 657.69 1171 665.58 1171 817.39 1174.89 821.28 1174.89 831.69 1184.79 821.8 1307.21 821.8 1315.1 813.91 1334.9 813.91 1348.89 827.9 1348.89 847.69 1338.79 857.8 1348.89 867.9 1348.89 887.69 1334.9 901.69 1315.1 901.69 1307.21 893.8 1180.67 893.8 1174.15 900.32 1164.78 909.69 950.67 909.69 952.79 911.8 1222.78 911.8 1232.16 921.17 1232.16 921.17 1353.11 1042.12 M 1359.58 1027.32 1338.31 1027.32 M 1328.32 1017.34 1359.58 1017.34 M 1359.58 1007.35 1318.34 1007.35 M 1308.35 997.37 1359.58 997.37 M 1359.58 987.38 1298.37 987.38 M 1288.38 977.4 1359.58 977.4 M 1359.58 967.41 1278.4 967.41 M 1268.41 957.43 1359.58 957.43 M 1359.58 947.44 1258.43 947.44 M 1248.44 937.46 1359.58 937.46 M 1359.58 927.47 1238.46 927.47 M 1228.47 917.49 1359.58 917.49 M 1359.58 907.5 1166.97 907.5 M 1176.95 897.52 1310.93 897.52 M 1325 877.8 1174.04 877.8 1158.15 893.69 939.11 893.69 900 932.8 900 1054.01 888.32 1065.69 677.11 1065.69 561.11 1181.69 365.1 1181.69 361.21 1177.8 335 1177.8 M 311.11 1177.1 306 1177.1 M 306 1169.64 306 1185.95 299.76 1201.02 290.3 1210.48 372.75 1292.92 578.34 1292.92 586.23 1285.03 606.02 1285.03 620.01 1299.03 620.01 1318.82 606.02 1332.81 586.23 1332.81 578.34 1324.92 495.91 1324.92 502.79 1331.8 561.63 1331.8 563.74 1333.91 574.9 1333.91 588.89 1347.9 588.89 1367.69 574.9 1381.69 555.1 1381.69 541.11 1367.69 541.11 1363.8 502.79 1363.8 494.9 1371.69 475.1 1371.69 461.11 1357.69 461.11 1337.9 474.09 1324.92 359.5 1324.92 306 1271.43 306 1285.95 299.76 1301.02 288.22 1312.56 273.16 1318.8 196.84 1318.8 181.78 1312.56 170.24 1301.02 164 1285.95 164 1269.64 170.24 1254.57 181.78 1243.04 196.84 1236.8 271.37 1236.8 253.37 1218.8 196.84 1218.8 181.78 1212.56 170.24 1201.02 164 1185.95 164 1169.64 170.24 1154.57 181.78 1143.04 196.84 1136.8 273.16 1136.8 288.22 1143.04 299.76 1154.57 306 1169.64 M 304.95 1167.11 311.9 1167.11 M 321.88 1157.13 300.82 1157.13 M 292.33 1147.14 351.87 1147.14 M 351.11 1157.13 348.12 1157.13 M 359 1137.16 274.02 1137.16 M 273.16 1118.8 288.22 1112.56 299.76 1101.02 306 1085.95 306 1069.64 299.76 1054.57 288.22 1043.04 273.16 1036.8 196.84 1036.8 181.78 1043.04 170.24 1054.57 164 1069.64 164 1085.95 170.24 1101.02 181.78 1112.56 196.84 1118.8 273.16 1118.8 M 277.04 1117.19 359 1117.19 M 359 1127.17 135 1127.17 M 135 1117.19 192.96 1117.19 M 176.42 1107.2 135 1107.2 M 135 1097.22 168.67 1097.22 M 164.53 1087.23 135 1087.23 M 135 1077.25 164 1077.25 M 164.99 1067.26 135 1067.26 M 135 1057.28 169.12 1057.28 M 177.52 1047.29 135 1047.29 M 135 1037.31 195.62 1037.31 M 196.84 1018.8 181.78 1012.56 170.24 1001.02 164 985.95 164 969.64 170.24 954.57 181.78 943.04 196.84 936.8 273.16 936.8 288.22 943.04 299.76 954.57 306 969.64 306 985.95 299.76 1001.02 288.22 1012.56 273.16 1018.8 196.84 1018.8 M 193.32 1017.34 135 1017.34 M 135 1027.32 359 1027.32 M 359 1037.31 274.38 1037.31 M 276.68 1017.34 366.72 1017.34 M 376.71 1007.35 293.43 1007.35 M 301.27 997.37 386.69 997.37 M 396.68 987.38 305.41 987.38 M 306 977.4 391.97 977.4 M 381.99 967.41 305.08 967.41 M 300.94 957.43 372 957.43 M 362.02 947.44 292.63 947.44 M 274.74 937.46 352.03 937.46 M 356 918.8 421.94 984.74 485 921.69 M 510.89 893.69 525 907.8 885 907.8 M 952.93 947.44 1213.17 947.44 M 1223.16 957.43 1124.52 957.43 M 1121.01 953.91 1135 967.9 1135 987.69 1121.01 1001.69 1101.21 1001.69 1098.32 998.8 1076.12 998.8 1076.12 1007.04 1069.67 1013.48 1017.25 1013.48 1010.81 1007.04 1010.81 958.56 1017.25 952.11 1069.67 952.11 1076.12 958.56 1076.12 966.8 1088.32 966.8 1101.21 953.91 1121.01 953.91 M 1134.51 967.41 1191.6 967.41 M 1181.62 977.4 1135 977.4 M 1135 987.38 1181.11 987.38 M 1172.8 997.37 1125.33 997.37 M 1118.32 1017.34 1152.83 1017.34 M 1162.82 1007.35 1075.81 1007.35 M 1091.68 1017.34 992.54 1017.34 M 992.54 1027.32 1081.69 1027.32 M 1081.11 1037.31 1053.57 1037.31 M 1054.5 1047.29 1081.11 1047.29 M 1105 1037.8 1155 1037.8 1205 987.8 M 1228.89 987.38 1253.11 987.38 M 1243.13 977.4 1228.38 977.4 M 1233.14 967.41 1218.4 967.41 M 1228.89 997.37 1263.1 997.37 M 1273.08 1007.35 1219.23 1007.35 M 1198.09 1017.34 1283.07 1017.34 M 1293.05 1027.32 1188.1 1027.32 M 1178.12 1037.31 1303.04 1037.31 M 1308.28 1047.29 1313.02 1047.29 M 1318.26 1057.28 1323.01 1057.28 M 1318.89 1067.26 1332.99 1067.26 M 1342.98 1077.25 1318.89 1077.25 M 1309.35 1087.23 1352.96 1087.23 M 1398.19 1087.23 1431.11 1087.23 M 1431.11 1077.25 1408.18 1077.25 M 1415.47 1067.26 1431.75 1067.26 M 1441.74 1057.28 1415.47 1057.28 M 1415.47 1047.29 1451.11 1047.29 M 1451.71 1037.31 1415.47 1037.31 M 1415.47 1027.32 1461.69 1027.32 M 1475 1047.8 1489 1061.8 1885 1061.8 M 1885 1093.8 1921.54 1130.33 M 1895.75 1127.17 1506.64 1127.17 M 1496.66 1117.19 1855.33 1117.19 M 1849 1107.2 1486.67 1107.2 M 1476.69 1097.22 1849 1097.22 M 1849 1087.23 1478.89 1087.23 M 1478.89 1077.25 1481.82 1077.25 M 1455 1077.8 1455 1098.16 1705.33 1348.48 1757.75 1348.48 1758.43 1347.8 1859 1347.8 1869 1337.8 M 1845.5 1326.88 1706.34 1326.88 M 1696.36 1316.89 1845.5 1316.89 M 1846.84 1306.91 1686.37 1306.91 M 1661.09 1326.88 1540 1326.88 M 1540 1332.8 1500 1332.8 1500 1342.8 1490 1342.8 1490 1412.57 1484.46 1411.69 1477.73 1409.5 1471.41 1406.29 1465.68 1402.12 1460.68 1397.11 1456.51 1391.38 1453.3 1385.07 1451.11 1378.34 1450 1371.34 1450 1342.8 1490 1342.8 1490 1332.8 1450 1332.8 1450 1304.26 1451.11 1297.26 1453.3 1290.52 1456.51 1284.21 1460.68 1278.48 1465.68 1273.47 1471.41 1269.31 1477.73 1266.1 1484.46 1263.91 1490 1263.03 1490 1332.8 1500 1332.8 1500 1263.03 1505.54 1263.91 1512.27 1266.1 1518.59 1269.31 1524.32 1273.47 1529.32 1278.48 1533.49 1284.21 1536.7 1290.52 1538.89 1297.26 1540 1304.26 1540 1332.8 M 1540 1342.8 1500 1342.8 1500 1412.57 1505.54 1411.69 1512.27 1409.5 1518.59 1406.29 1524.32 1402.12 1529.32 1397.11 1533.49 1391.38 1536.7 1385.07 1538.89 1378.34 1540 1371.34 1540 1342.8 M 1540 1346.85 1681.06 1346.85 M 1691.05 1356.83 1540 1356.83 M 1540 1366.82 1845.5 1366.82 M 1901 1337.8 1901 1268.33 1921.54 1247.8 1955 1281.26 1955 1297.8 M 1978.89 1296.92 2052.31 1296.92 M 2036.15 1286.94 1977.92 1286.94 M 1978.89 1306.91 3005 1306.91 M 3005 1316.89 1969.69 1316.89 M 1932.08 1286.94 1917 1286.94 M 1954.19 1256.98 1955.81 1256.98 M 1955.81 1246.99 1954.19 1246.99 M 1954.19 1237.01 1955.81 1237.01 M 1955.81 1227.02 1954.19 1227.02 M 1988.46 1247.8 2085 1247.8 2095 1257.8 M 2133.74 1217.04 3005 1217.04 M 3005 1227.02 2152.21 1227.02 M 2160.77 1237.01 3005 1237.01 M 3005 1246.99 2164.9 1246.99 M 2166 1256.98 3005 1256.98 M 3005 1266.97 2165.58 1266.97 M 2161.45 1276.95 3005 1276.95 M 3005 1286.94 2153.85 1286.94 M 2137.69 1296.92 3005 1296.92 M 2929.2 1376.8 1539.13 1376.8 M 1535.83 1386.79 2916.96 1386.79 M 2912.02 1396.77 1529.57 1396.77 M 1517.66 1406.76 2910.31 1406.76 M 2911.16 1416.74 409.37 1416.74 M 409.37 1406.76 811.91 1406.76 M 795.99 1396.77 360 1396.77 M 360 1392.8 409.37 1392.8 409.37 1356.45 408.35 1352.64 406.37 1349.22 403.58 1346.43 400.16 1344.45 396.34 1343.43 360 1343.43 360 1392.8 M 360 1386.79 350 1386.79 M 350 1376.8 360 1376.8 M 360 1366.82 350 1366.82 M 350 1356.83 360 1356.83 M 360 1346.85 350 1346.85 M 404 1346.85 461.11 1346.85 M 461.11 1356.83 409.37 1356.83 M 409.37 1366.82 470.23 1366.82 M 485 1347.8 555 1347.8 565 1357.8 M 588.89 1356.83 784 1356.83 M 784 1346.85 587.83 1346.85 M 577.85 1336.86 784 1336.86 M 784 1326.88 611.96 1326.88 M 620.01 1316.89 784 1316.89 M 784 1306.91 620.01 1306.91 M 617.91 1296.92 785.13 1296.92 M 789.26 1286.94 607.92 1286.94 M 584.33 1286.94 366.76 1286.94 M 356.78 1276.95 797.87 1276.95 M 809 1266.97 346.79 1266.97 M 336.81 1256.98 809 1256.98 M 809 1246.99 326.82 1246.99 M 316.84 1237.01 795.15 1237.01 M 789 1227.02 306.85 1227.02 M 296.87 1217.04 789 1217.04 M 789 1207.05 293.73 1207.05 M 301.4 1197.07 320.49 1197.07 M 311.11 1187.08 305.53 1187.08 M 349.51 1197.07 357.86 1197.07 M 375 1157.8 375 1031.69 421.94 984.74 M 405 917.8 429.11 893.69 510.89 893.69 M 505 837.8 1135 837.8 M 1155 824.01 1155 647.8 M 1131.11 647.89 1087.54 647.89 M 1077.55 657.87 1131.29 657.87 M 1139 667.86 1067.57 667.86 M 1057.58 677.84 1139 677.84 M 1139 687.83 1047.6 687.83 M 1037.61 697.81 1139 697.81 M 1139 707.8 1027.63 707.8 M 1017.64 717.78 1139 717.78 M 1139 727.77 958.81 727.77 M 955 747.8 1005 747.8 M 1005 707.8 945 707.8 M 931.19 727.77 914.03 727.77 M 913.64 717.78 921.2 717.78 M 914.5 737.75 1139 737.75 M 1139 747.74 914.5 747.74 M 914.5 757.72 1139 757.72 M 1139 767.71 914.5 767.71 M 914.5 777.69 1139 777.69 M 1139 787.68 914.18 787.68 M 891 757.8 891 717.8 1064 544.8 1064 390.82 1095 359.82 1095 321.26 1068.46 321.26 1005 257.8 1005 217.8 1045 177.8 1345 177.8 1735 177.8 1815 257.8 1815 354.33 1825 364.33 M 1905 364.33 1915 354.33 1915 257.8 M 1905 431.26 1825 431.26 M 1905 431.26 1931.54 457.8 M 1958.76 488.13 1971.24 488.13 M 1965.81 498.11 1964.19 498.11 M 1964.19 508.1 1965.81 508.1 M 1965.81 518.08 1964.19 518.08 M 1964.19 528.07 1965.81 528.07 M 1965.81 538.05 1964.19 538.05 M 1958.19 548.04 1971.81 548.04 M 1960.99 558.02 1737.4 558.02 M 1727.42 568.01 1951.11 568.01 M 1904.88 548.04 1747.39 548.04 M 1757.37 538.05 1898.88 538.05 M 1955 697.8 1695 697.8 M 1681.2 717.78 1678.77 717.78 M 1708.8 717.78 1952.36 717.78 M 1962.34 727.77 1899.49 727.77 M 1909.48 737.75 1972.33 737.75 M 1982.31 747.74 1919.46 747.74 M 1929.45 757.72 1992.3 757.72 M 2002.28 767.71 1939.43 767.71 M 1949.42 777.69 2028.86 777.69 M 2036.9 787.68 1959.4 787.68 M 1969.39 797.66 2054.11 797.66 M 2101.36 807.65 1979.37 807.65 M 2015 757.8 1955 697.8 M 2007.6 727.77 2037.05 727.77 M 2028.92 737.75 2017.58 737.75 M 2015 757.8 2095 757.8 M 2197.79 817.64 2209.91 817.64 M 2207.78 807.65 2219.89 807.65 M 2217.76 797.66 2229.88 797.66 M 2227.75 787.68 2239.86 787.68 M 2237.73 777.69 2249.85 777.69 M 2247.72 767.71 2259.83 767.71 M 2257.7 757.72 2269.82 757.72 M 2267.69 747.74 2279.8 747.74 M 2275 827.8 2165 937.8 M 2188.89 937.46 2280.87 937.46 M 2271.11 927.47 2197.95 927.47 M 2207.94 917.49 2271.11 917.49 M 2271.51 907.5 2217.92 907.5 M 2227.91 897.52 2281.5 897.52 M 2302.5 887.53 2237.9 887.53 M 2247.88 877.55 2303.24 877.55 M 2304.37 908.43 2295 917.8 M 2304.37 908.43 2345 908.43 2415 908.43 M 2410 947.44 2420 947.44 M 2420 957.43 2410 957.43 M 2410 967.41 2420 967.41 M 2420 977.4 2410 977.4 M 2410 987.38 2350 987.38 M 2350 977.4 2340 977.4 M 2340 967.41 2350 967.41 M 2350 957.43 2340 957.43 M 2340 947.44 2350 947.44 M 2308.31 947.44 2188.89 947.44 M 2179.16 957.43 2299.09 957.43 M 2159.98 867.56 2147.87 867.56 M 2150 877.55 2137.88 877.55 M 2157.85 857.58 2169.97 857.58 M 2167.84 847.59 2179.95 847.59 M 2177.82 837.61 2189.94 837.61 M 2187.81 827.62 2199.92 827.62 M 1895.28 1137.16 1864.72 1137.16 M 1871.12 1147.14 1888.88 1147.14 M 1812.21 1137.16 1803.45 1137.16 M 1776.38 1177.1 1766.69 1177.1 M 1766.69 1187.08 1776.38 1187.08 M 1739.74 1217.04 1596.51 1217.04 M 1606.49 1227.02 1734.88 1227.02 M 1734.88 1237.01 1616.48 1237.01 M 1626.46 1246.99 1766.69 1246.99 M 1771.54 1247.8 1771.54 1294.33 1775 1297.8 M 1766.69 1282.48 1747.91 1282.48 1744.09 1281.46 1740.67 1279.49 1737.88 1276.69 1735.9 1273.27 1734.88 1269.46 1734.88 1252.64 1766.69 1252.64 1766.69 1282.48 M 1766.69 1276.95 1776.38 1276.95 M 1776.38 1266.97 1766.69 1266.97 M 1766.69 1256.98 1776.38 1256.98 M 1804.94 1276.95 1810.72 1276.95 M 1738.14 1276.95 1656.42 1276.95 M 1646.43 1266.97 1734.88 1266.97 M 1734.88 1256.98 1636.45 1256.98 M 1611.16 1276.95 1527.79 1276.95 M 1534.87 1286.94 1621.15 1286.94 M 1631.13 1296.92 1538.78 1296.92 M 1540 1306.91 1641.12 1306.91 M 1651.11 1316.89 1540 1316.89 M 1500 1316.89 1490 1316.89 M 1490 1306.91 1500 1306.91 M 1500 1296.92 1490 1296.92 M 1490 1286.94 1500 1286.94 M 1500 1276.95 1490 1276.95 M 1490 1266.97 1500 1266.97 M 1513.98 1266.97 1601.18 1266.97 M 1591.19 1256.98 1236.81 1256.98 M 1246.79 1266.97 1286.44 1266.97 M 1303.56 1266.97 1386.44 1266.97 M 1386.84 1266.8 1403.16 1266.8 1418.22 1273.04 1429.76 1284.57 1436 1299.64 1436 1375.95 1429.76 1391.02 1418.22 1402.56 1403.16 1408.8 1386.84 1408.8 1371.78 1402.56 1360.24 1391.02 1354 1375.95 1354 1299.64 1360.24 1284.57 1371.78 1273.04 1386.84 1266.8 M 1403.56 1266.97 1476.02 1266.97 M 1462.21 1276.95 1422.13 1276.95 M 1430.74 1286.94 1455.13 1286.94 M 1451.22 1296.92 1434.87 1296.92 M 1436 1306.91 1450 1306.91 M 1450 1316.89 1436 1316.89 M 1436 1326.88 1450 1326.88 M 1436 1336.86 1490 1336.86 M 1495 1337.8 1404 1246.8 1378.02 1246.8 1377.02 1247.8 1335 1247.8 M 1322.13 1276.95 1367.87 1276.95 M 1359.26 1286.94 1330.74 1286.94 M 1334.87 1296.92 1355.13 1296.92 M 1354 1306.91 1336 1306.91 M 1336 1316.89 1354 1316.89 M 1354 1326.88 1336 1326.88 M 1336 1336.86 1354 1336.86 M 1354 1346.85 1336 1346.85 M 1336 1356.83 1354 1356.83 M 1354 1366.82 1336 1366.82 M 1335.65 1376.8 1354.35 1376.8 M 1358.49 1386.79 1331.51 1386.79 M 1324.01 1396.77 1365.99 1396.77 M 1381.91 1406.76 1308.09 1406.76 M 1281.91 1406.76 1208.09 1406.76 M 1224.01 1396.77 1265.99 1396.77 M 1258.49 1386.79 1231.51 1386.79 M 1235.65 1376.8 1254.35 1376.8 M 1254 1366.82 1236 1366.82 M 1236 1356.83 1254 1356.83 M 1254 1346.85 1236 1346.85 M 1236 1336.86 1254 1336.86 M 1254 1326.88 1236 1326.88 M 1236 1316.89 1251.46 1316.89 M 1241.48 1306.91 1236 1306.91 M 1195 1337.8 1039 1181.8 925 1181.8 M 889 1177.1 861 1177.1 M 861 1187.08 889 1187.08 M 889 1197.07 861 1197.07 M 861 1207.05 889 1207.05 M 889 1217.04 861 1217.04 M 861 1227.02 889 1227.02 M 895.15 1237.01 854.85 1237.01 M 841 1246.99 909 1246.99 M 909 1256.98 841 1256.98 M 841 1266.97 909 1266.97 M 897.87 1276.95 852.13 1276.95 M 860.74 1286.94 889.26 1286.94 M 885.13 1296.92 864.87 1296.92 M 866 1306.91 884 1306.91 M 884 1316.89 866 1316.89 M 866 1326.88 884 1326.88 M 884 1336.86 866 1336.86 M 866 1346.85 884 1346.85 M 884 1356.83 866 1356.83 M 866 1366.82 884 1366.82 M 884.35 1376.8 865.65 1376.8 M 861.51 1386.79 888.49 1386.79 M 895.99 1396.77 854.01 1396.77 M 838.09 1406.76 911.91 1406.76 M 938.09 1406.76 1081.91 1406.76 M 1065.99 1396.77 954.01 1396.77 M 961.51 1386.79 1058.49 1386.79 M 1054.35 1376.8 965.65 1376.8 M 966 1366.82 1054 1366.82 M 1054 1356.83 966 1356.83 M 966 1346.85 1054 1346.85 M 1054 1336.86 966 1336.86 M 966 1326.88 1054 1326.88 M 1054 1316.89 966 1316.89 M 966 1306.91 1054 1306.91 M 1055.13 1296.92 964.87 1296.92 M 960.74 1286.94 1059.26 1286.94 M 1067.87 1276.95 952.13 1276.95 M 941 1266.97 1086.44 1266.97 M 1091.55 1256.98 941 1256.98 M 941 1246.99 1081.57 1246.99 M 1071.58 1237.01 954.85 1237.01 M 961 1227.02 1061.6 1227.02 M 1051.61 1217.04 961 1217.04 M 961 1207.05 1041.63 1207.05 M 1105 1147.8 859 1147.8 825 1181.8 M 827.04 1157.13 608.3 1157.13 M 618.28 1147.14 837.03 1147.14 M 847.01 1137.16 628.27 1137.16 M 638.25 1127.17 1051.11 1127.17 M 1061 1103.8 1013.94 1103.8 1007.5 1097.36 1007.5 1076.3 999 1067.8 976.54 1045.33 976.54 982.8 M 1009.19 987.38 1010.81 987.38 M 1010.81 977.4 1009.19 977.4 M 1009.19 967.41 1010.81 967.41 M 1011.94 957.43 1008.06 957.43 M 1043.46 982.8 1106.11 982.8 1111.11 977.8 M 1097.7 957.43 1074.99 957.43 M 1010.81 997.37 1009.19 997.37 M 1008.88 1007.35 1011.12 1007.35 M 1031 1067.8 1295 1067.8 M 1280.65 1087.23 1054.5 1087.23 M 1061 1103.8 1075 1117.8 M 1098.89 1117.19 1451.4 1117.19 M 1441.42 1107.2 1098.19 1107.2 M 1088.2 1097.22 1439 1097.22 M 1461.39 1127.17 1098.89 1127.17 M 1116.99 1137.16 1471.37 1137.16 M 1481.36 1147.14 1126.97 1147.14 M 1136.96 1157.13 1491.34 1157.13 M 1501.33 1167.11 1146.94 1167.11 M 1156.93 1177.1 1511.31 1177.1 M 1521.3 1187.08 1166.91 1187.08 M 1176.9 1197.07 1531.28 1197.07 M 1541.27 1207.05 1186.88 1207.05 M 1196.87 1217.04 1551.25 1217.04 M 1561.24 1227.02 1206.85 1227.02 M 1216.84 1237.01 1571.22 1237.01 M 1581.21 1246.99 1226.82 1246.99 M 1256.78 1276.95 1267.87 1276.95 M 1295 1337.8 1105 1147.8 M 1004.71 1117.19 648.24 1117.19 M 658.22 1107.2 994.72 1107.2 M 975.5 1097.22 668.21 1097.22 M 765 1027.8 705 967.8 575 967.8 M 765 1027.8 855 1027.8 M 862.31 1167.11 889 1167.11 M 925 1213.8 925 1337.8 M 825 1337.8 825 1213.8 M 789 1197.07 568.36 1197.07 M 578.34 1187.08 789 1187.08 M 789 1177.1 588.33 1177.1 M 598.31 1167.11 789 1167.11 M 596.12 1308.92 366.13 1308.92 235 1177.8 M 261.6 1227.02 135 1227.02 M 135 1217.04 192.6 1217.04 M 176.27 1207.05 135 1207.05 M 135 1197.07 168.6 1197.07 M 164.47 1187.08 135 1187.08 M 135 1177.1 164 1177.1 M 165.05 1167.11 135 1167.11 M 135 1157.13 169.18 1157.13 M 177.67 1147.14 135 1147.14 M 135 1137.16 195.98 1137.16 M 293.58 1107.2 359 1107.2 M 359 1097.22 301.33 1097.22 M 305.47 1087.23 359 1087.23 M 359 1077.25 306 1077.25 M 305.01 1067.26 359 1067.26 M 359 1057.28 300.88 1057.28 M 292.48 1047.29 359 1047.29 M 176.57 1007.35 135 1007.35 M 135 997.37 168.73 997.37 M 164.59 987.38 135 987.38 M 135 977.4 164 977.4 M 164.92 967.41 135 967.41 M 135 957.43 169.06 957.43 M 177.37 947.44 135 947.44 M 135 937.46 195.26 937.46 M 176 918.8 356 918.8 M 366.89 895.91 385 887.8 395.11 877.69 1151.52 877.69 1191.41 837.8 1325 837.8 M 1348.89 837.61 1359.58 837.61 M 1359.58 847.59 1348.89 847.59 M 1339.01 857.58 1359.58 857.58 M 1359.58 867.56 1348.55 867.56 M 1348.89 877.55 1359.58 877.55 M 1359.58 887.53 1348.89 887.53 M 1339.07 897.52 1359.58 897.52 M 1415.47 937.46 1519 937.46 M 1519 947.44 1415.47 947.44 M 1415.47 957.43 1519 957.43 M 1511.6 967.41 1415.47 967.41 M 1415.47 977.4 1511.11 977.4 M 1511.11 987.38 1415.47 987.38 M 1415.47 997.37 1520.78 997.37 M 1518.93 1007.35 1415.47 1007.35 M 1415.47 1017.34 1497.79 1017.34 M 1535 977.8 1535 857.8 M 1465 852.81 1465 900.59 M 1359.58 827.62 1348.61 827.62 M 1338.62 817.64 1359.58 817.64 M 1359.58 807.65 1171 807.65 M 1171 797.66 1359.58 797.66 M 1359.58 787.68 1171 787.68 M 1171 777.69 1359.58 777.69 M 1359.58 767.71 1171 767.71 M 1171 757.72 1359.58 757.72 M 1359.58 747.74 1171 747.74 M 1171 737.75 1359.58 737.75 M 1359.58 727.77 1171 727.77 M 1171 717.78 1359.58 717.78 M 1352.37 707.8 1171 707.8 M 1171 697.81 1342.39 697.81 M 1332.4 687.83 1171 687.83 M 1171 677.84 1322.42 677.84 M 1312.43 667.86 1171 667.86 M 1178.71 657.87 1302.45 657.87 M 1272.49 627.92 1168.9 627.92 M 1178.89 637.9 1178.89 657.69 M 1145.1 623.91 1131.11 637.9 M 1117.49 617.93 1262.51 617.93 M 1252.52 607.95 1168.64 607.95 M 1178.62 597.96 1242.54 597.96 M 1232.55 587.98 1178.89 587.98 M 1178.89 577.99 1222.57 577.99 M 1212.58 568.01 1168.99 568.01 M 1192.61 548.04 1080 548.04 M 1080 538.05 1182.63 538.05 M 1172.64 528.07 1080 528.07 M 1080 518.08 1162.66 518.08 M 1152.67 508.1 1114.85 508.1 M 1095.15 508.1 1080 508.1 M 1132.67 498.11 1142.69 498.11 M 1122.16 568.01 1063.42 568.01 M 1053.43 577.99 1112.18 577.99 M 1102.19 587.98 1043.45 587.98 M 1033.46 597.96 1092.21 597.96 M 1082.22 607.95 1023.48 607.95 M 1013.49 617.93 1072.24 617.93 M 1062.25 627.92 1003.51 627.92 M 993.52 637.9 1052.27 637.9 M 1042.28 647.89 983.54 647.89 M 973.55 657.87 1032.3 657.87 M 1022.31 667.86 963.57 667.86 M 953.58 677.84 1012.33 677.84 M 1002.34 687.83 958.81 687.83 M 1005 707.8 1135 577.8 1145 587.8 1155 587.8 M 1141.36 607.95 1127.48 607.95 M 1073.4 558.02 1202.6 558.02 M 1395 547.8 1395 325.78 1384 314.78 1384 216.8 1345 177.8 M 1184 266.8 1184 314.78 1208.02 338.8 1246 338.8 1266.89 359.69 M 1184 266.8 1145 227.8 1095 254.33 M 965 317.8 965 389.82 964 390.82 964 484.78 965 485.78 965 583.8 891 657.8 M 859 657.8 849 647.8 815 647.8 M 791.11 647.89 561 647.89 M 561 643.92 561 671.21 562.38 671.79 571.01 680.42 575.68 691.7 575.68 703.9 571.01 715.18 562.38 723.81 551.1 728.48 538.9 728.48 527.62 723.81 518.99 715.18 518.41 713.8 484.5 713.8 484.5 727.36 478.06 733.8 415.63 733.8 407.63 741.8 835.5 741.8 835.5 728.24 841.94 721.8 875 721.8 875 711.17 892.37 693.8 841.94 693.8 835.5 687.36 835.5 663.8 832.79 663.8 824.9 671.69 805.1 671.69 791.11 657.69 791.11 637.9 675.26 637.9 M 675.68 637.47 669.24 643.92 620.76 643.92 614.31 637.47 614.31 627.26 600.68 627.26 600.68 637.47 594.24 643.92 561 643.92 M 561 657.87 791.29 657.87 M 791.11 657.69 815 681.58 815 727.8 M 835.97 727.77 552.83 727.77 M 537.17 727.77 484.09 727.77 M 484.5 717.78 521.59 717.78 M 535 697.8 545 687.8 545 636.26 570 611.26 645 611.26 M 675.68 607.95 901.36 607.95 M 905.1 611.69 891.11 597.69 891.11 586.54 829.37 524.8 700.32 524.8 690.94 515.43 605.32 429.8 601 429.8 601 430.86 594.56 437.3 535.44 437.3 529 430.86 529 421.3 528.82 421.3 438.37 330.86 435.94 328.43 421.78 322.56 410.24 311.02 404 295.95 404 219.64 410.24 204.57 421.78 193.04 422.36 192.8 414.64 192.8 386 221.44 386 295.95 379.76 311.02 368.22 322.56 353.16 328.8 336.84 328.8 321.78 322.56 310.24 311.02 304 295.95 304 219.64 310.24 204.57 321.78 193.04 336.84 186.8 353.16 186.8 368.22 193.04 368.69 193.5 385.39 176.8 295.7 176.8 161 311.5 161 428.01 165.1 423.91 184.9 423.91 192.79 431.8 218.37 431.8 221.11 429.06 221.11 417.9 235.1 403.91 254.9 403.91 268.89 417.9 268.89 437.69 254.9 451.69 243.74 451.69 241 454.43 231.63 463.8 230 463.8 230 502.8 240 502.8 240 512.8 230 512.8 230 552.8 201.46 552.8 194.46 551.69 187.73 549.5 181.41 546.29 175.68 542.12 170.68 537.11 166.51 531.38 163.3 525.07 161.11 518.34 161 517.65 161 597.94 161.11 597.26 163.3 590.52 166.51 584.21 170.68 578.48 175.68 573.47 181.41 569.31 187.73 566.1 194.46 563.91 201.46 562.8 230 562.8 230 602.8 240 602.8 240 562.8 268.54 562.8 275.54 563.91 282.27 566.1 288.59 569.31 294.32 573.47 299.32 578.48 302.08 582.28 304.45 579.92 301.1 577.99 298.31 575.2 296.34 571.78 295.31 567.96 295.31 549.18 325.16 549.18 325.16 539.49 334.84 539.49 334.84 507.68 351.66 507.68 355.47 508.7 358.9 510.68 361.69 513.47 363.66 516.89 364.68 520.71 364.68 524.26 365.08 522.8 367.05 519.38 369.84 516.58 373.27 514.61 377.08 513.59 402.76 513.59 402.76 539.49 404.57 539.49 404.57 541.3 443.27 541.3 443.27 554.18 442.25 558 440.27 561.42 437.48 564.21 434.06 566.19 430.24 567.21 404.57 567.21 404.57 541.3 402.76 541.3 402.76 567.21 377.08 567.21 373.27 566.19 369.84 564.21 367.05 561.42 365.08 558 364.68 556.53 364.68 567.96 363.66 571.78 361.69 575.2 358.9 577.99 355.55 579.92 360.68 585.05 360.68 599.2 368.06 599.2 368.06 598.83 374.5 592.39 432.82 592.39 439.27 598.83 439.27 631.57 432.82 638.01 394.82 638.01 381 651.83 381 660.01 388.89 667.9 388.89 687.69 374.9 701.69 355.1 701.69 346 692.58 346 719.43 339.63 725.8 378.37 725.8 405.5 698.67 405.5 668.24 411.94 661.8 478.06 661.8 484.5 668.24 484.5 681.8 518.41 681.8 518.99 680.42 527.62 671.79 529 671.21 529 629.64 539.31 619.32 539.31 603.21 529.91 593.8 521.94 593.8 521.94 594.17 515.5 600.61 457.18 600.61 450.73 594.17 450.73 561.43 457.18 554.99 515.5 554.99 521.94 561.43 521.94 561.8 535.31 561.8 535.31 549.18 565.16 549.18 565.16 539.49 574.84 539.49 574.84 507.68 591.66 507.68 595.47 508.7 598.9 510.68 601.69 513.47 603.66 516.89 604.68 520.71 604.68 539.49 574.84 539.49 574.84 549.18 604.68 549.18 604.68 567.96 603.66 571.78 601.69 575.2 598.9 577.99 595.55 579.92 600.68 585.05 600.68 595.26 614.31 595.26 614.31 585.05 619.45 579.92 616.1 577.99 613.31 575.2 611.34 571.78 610.31 567.96 610.31 549.18 640.16 549.18 640.16 539.49 649.84 539.49 649.84 507.68 666.66 507.68 670.47 508.7 673.9 510.68 676.69 513.47 678.66 516.89 679.68 520.71 679.68 539.49 649.84 539.49 649.84 549.18 679.68 549.18 679.68 567.96 678.66 571.78 676.69 575.2 673.9 577.99 670.55 579.92 675.68 585.05 675.68 637.47 M 675.68 627.92 801.1 627.92 M 805.1 623.91 824.9 623.91 832.79 631.8 835.5 631.8 835.5 628.24 841.94 621.8 904.37 621.8 914.48 611.69 905.1 611.69 M 908.24 617.93 675.68 617.93 M 675.68 597.96 891.38 597.96 M 891.11 587.98 675.68 587.98 M 673.89 577.99 882.57 577.99 M 872.58 568.01 679.67 568.01 M 679.68 558.02 862.6 558.02 M 852.61 548.04 649.84 548.04 M 648.46 547.8 735 547.8 765 547.8 791.11 573.91 791.11 657.69 M 801.27 667.86 561 667.86 M 568.44 677.84 835.5 677.84 M 835.5 667.86 828.73 667.86 M 835.97 687.83 574.08 687.83 M 575.68 697.81 888.36 697.81 M 878.37 707.8 574.07 707.8 M 568.41 717.78 875 717.78 M 859 757.8 345 757.8 315 787.8 M 338.89 787.68 561.33 787.68 M 561.11 787.9 575.1 773.91 594.9 773.91 602.79 781.8 787.21 781.8 795.1 773.91 814.9 773.91 828.89 787.9 828.89 807.69 814.9 821.69 795.1 821.69 787.21 813.8 602.79 813.8 594.9 821.69 575.1 821.69 561.11 807.69 561.11 787.9 M 561.11 797.66 338.89 797.66 M 328.93 807.65 561.11 807.65 M 571.05 817.64 333.68 817.64 M 331.21 837.8 291.11 797.69 291.11 777.9 327.21 741.8 385 741.8 429 697.8 M 405.5 697.81 378.77 697.81 M 388.76 687.83 405.5 687.83 M 405.5 677.84 388.89 677.84 M 388.84 667.86 405.88 667.86 M 381 657.87 529 657.87 M 529 647.89 384.94 647.89 M 365 645.2 365 677.8 M 365 645.2 395 615.2 403.66 615.2 M 395 615.2 333.94 615.2 330 611.26 330 712.8 285 757.8 260.98 757.8 164 854.78 164 906.8 176 918.8 M 162.05 927.47 135 927.47 M 135 917.49 152.06 917.49 M 148 907.5 135 907.5 M 135 897.52 148 897.52 M 148 887.53 135 887.53 M 135 877.55 148 877.55 M 148 867.56 135 867.56 M 135 857.58 148 857.58 M 148.56 847.59 135 847.59 M 135 837.61 158.55 837.61 M 168.53 827.62 135 827.62 M 135 817.64 178.52 817.64 M 188.5 807.65 135 807.65 M 135 797.66 198.49 797.66 M 208.47 787.68 135 787.68 M 135 777.69 218.46 777.69 M 228.44 767.71 135 767.71 M 135 757.72 238.43 757.72 M 194.29 747.74 135 747.74 M 135 737.75 176.97 737.75 M 168.89 727.77 135 727.77 M 135 717.78 164.76 717.78 M 160.3 707.8 135 707.8 M 135 697.81 150.32 697.81 M 140.33 687.83 135 687.83 M 161 649.1 184.01 672.11 196.84 666.8 273.16 666.8 288.22 673.04 299.76 684.57 306 699.64 306 714.17 314 706.17 314 643.92 305.76 643.92 299.31 637.47 299.31 637.12 294.32 642.12 288.59 646.29 282.27 649.5 275.54 651.69 268.54 652.8 240 652.8 240 612.8 230 612.8 230 652.8 201.46 652.8 194.46 651.69 187.73 649.5 181.41 646.29 175.68 642.12 170.68 637.11 166.51 631.38 163.3 625.07 161.11 618.34 161 617.65 161 649.1 M 161 647.89 184.56 647.89 M 171.46 637.9 161 637.9 M 161 627.92 164.75 627.92 M 161.04 617.93 161 617.93 M 161 587.98 164.59 587.98 M 161 577.99 171.17 577.99 M 161 568.01 183.97 568.01 M 184.85 548.04 161 548.04 M 161 558.02 295.31 558.02 M 295.33 568.01 286.03 568.01 M 298.83 577.99 301.11 577.99 M 282.27 549.5 275.54 551.69 268.54 552.8 240 552.8 240 512.8 298.98 512.8 301.1 510.68 304.53 508.7 308.34 507.68 325.16 507.68 325.16 539.49 296.95 539.49 294.32 542.12 288.59 546.29 282.27 549.5 M 285.15 548.04 325.16 548.04 M 330 544.33 333.94 540.4 403.66 540.4 566.06 540.4 570 544.33 645 544.33 648.46 547.8 M 640.16 548.04 574.84 548.04 M 565.16 548.04 443.27 548.04 M 443.27 539.49 404.57 539.49 404.57 513.59 430.24 513.59 434.06 514.61 437.48 516.58 440.27 519.38 442.25 522.8 443.27 526.61 443.27 539.49 M 443.27 538.05 535.31 538.05 M 535.31 539.49 535.31 520.71 536.34 516.89 538.31 513.47 541.1 510.68 544.53 508.7 548.34 507.68 565.16 507.68 565.16 539.49 535.31 539.49 M 535.31 528.07 443.27 528.07 M 438.98 518.08 536.02 518.08 M 546.79 508.1 353.21 508.1 M 363.98 518.08 368.35 518.08 M 364.06 541.3 402.76 541.3 402.76 539.49 334.84 539.49 334.84 549.18 364.06 549.18 364.06 541.3 M 364.06 548.04 334.84 548.04 M 334.84 538.05 325.16 538.05 M 325.16 528.07 334.84 528.07 M 334.84 518.08 325.16 518.08 M 325.16 508.1 334.84 508.1 M 309.77 502.8 240 502.8 240 462.8 268.54 462.8 275.54 463.91 282.27 466.1 288.59 469.31 294.32 473.47 299.32 478.48 303.49 484.21 306.7 490.52 308.89 497.26 309.77 502.8 M 309.03 498.11 673.63 498.11 M 668.21 508.1 683.61 508.1 M 690.94 515.43 690.94 515.43 M 693.6 518.08 678.98 518.08 M 679.68 528.07 832.64 528.07 M 842.63 538.05 679.68 538.05 M 649.84 538.05 640.16 538.05 M 640.16 539.49 640.16 507.68 623.34 507.68 619.53 508.7 616.1 510.68 613.31 513.47 611.34 516.89 610.31 520.71 610.31 539.49 640.16 539.49 M 640.16 528.07 649.84 528.07 M 649.84 518.08 640.16 518.08 M 640.16 508.1 649.84 508.1 M 663.64 488.13 305.48 488.13 M 298.98 478.14 653.66 478.14 M 643.67 468.16 286.32 468.16 M 258.4 448.19 623.7 448.19 M 633.69 458.17 237.26 458.17 M 240 468.16 230 468.16 M 230 478.14 240 478.14 M 240 488.13 230 488.13 M 230 498.11 240 498.11 M 240 508.1 306.79 508.1 M 240 518.08 230 518.08 M 230 528.07 240 528.07 M 240 538.05 230 538.05 M 230 548.04 240 548.04 M 240 568.01 230 568.01 M 230 577.99 240 577.99 M 240 587.98 230 587.98 M 230 597.96 240 597.96 M 240 617.93 230 617.93 M 230 627.92 240 627.92 M 240 637.9 230 637.9 M 230 647.89 240 647.89 M 275.71 667.86 314 667.86 M 314 677.84 293.03 677.84 M 301.11 687.83 314 687.83 M 314 697.81 305.24 697.81 M 306 707.8 312.37 707.8 M 346 707.8 396.37 707.8 M 386.39 717.78 346 717.78 M 346 697.81 351.23 697.81 M 411.67 737.75 835.5 737.75 M 835.5 777.69 818.68 777.69 M 828.67 787.68 835.82 787.68 M 828.89 797.66 1139 797.66 M 1139 807.65 828.89 807.65 M 818.95 817.64 1121.38 817.64 M 1155 824.01 1158.89 827.9 1158.89 847.69 1144.9 861.69 367.32 861.69 351.21 877.8 235 877.8 M 331.21 837.8 505 837.8 M 585 797.8 805 797.8 M 791.05 817.64 598.95 817.64 M 598.68 777.69 791.32 777.69 M 945 757.8 955 747.8 M 835.82 627.92 828.9 627.92 M 805.1 623.91 791.11 637.9 M 915 587.8 836 508.8 706.94 508.8 611.94 413.8 565 413.8 556.5 405.3 535.44 405.3 445 314.86 445 257.8 M 404 258.47 386 258.47 M 386 268.45 404 268.45 M 404 278.44 386 278.44 M 386 288.42 404 288.42 M 405.02 298.41 384.98 298.41 M 380.85 308.39 409.15 308.39 M 417.6 318.38 372.4 318.38 M 354.2 328.36 435.8 328.36 M 445.87 338.35 299.37 338.35 M 299.37 332.8 299.37 369.14 298.35 372.96 296.37 376.38 293.58 379.17 290.16 381.15 286.34 382.17 250 382.17 250 332.8 240 332.8 240 382.17 203.66 382.17 199.84 381.15 196.42 379.17 193.63 376.38 191.65 372.96 190.63 369.14 190.63 332.8 240 332.8 240 322.8 190.63 322.8 190.63 286.45 191.65 282.64 193.63 279.22 196.42 276.43 199.84 274.45 203.66 273.43 240 273.43 240 322.8 250 322.8 250 332.8 299.37 332.8 M 299.37 322.8 250 322.8 250 273.43 286.34 273.43 290.16 274.45 293.58 276.43 296.37 279.22 298.35 282.64 299.37 286.45 299.37 322.8 M 299.37 318.38 317.6 318.38 M 309.15 308.39 299.37 308.39 M 299.37 298.41 305.02 298.41 M 304 288.42 299.37 288.42 M 295.59 278.44 304 278.44 M 304 268.45 204.04 268.45 M 194.41 278.44 194.06 278.44 M 190.63 288.42 184.07 288.42 M 190.63 298.41 174.09 298.41 M 164.1 308.39 190.63 308.39 M 190.63 318.38 161 318.38 M 161 328.36 240 328.36 M 245 327.8 275 327.8 315 367.8 M 299.37 368.3 475.82 368.3 M 465.84 358.32 299.37 358.32 M 299.37 348.33 455.85 348.33 M 485.81 378.29 294.46 378.29 M 250 378.29 240 378.29 M 240 368.3 250 368.3 M 250 358.32 240 358.32 M 240 348.33 250 348.33 M 250 338.35 240 338.35 M 250 328.36 335.8 328.36 M 250 318.38 240 318.38 M 240 308.39 250 308.39 M 250 298.41 240 298.41 M 240 288.42 250 288.42 M 250 278.44 240 278.44 M 214.03 258.47 304 258.47 M 304 248.48 224.01 248.48 M 234 238.5 304 238.5 M 304 228.51 243.98 228.51 M 253.97 218.53 304.46 218.53 M 308.6 208.54 263.95 208.54 M 273.94 198.56 316.26 198.56 M 332.56 188.57 283.92 188.57 M 293.91 178.59 383.6 178.59 M 373.62 188.57 357.44 188.57 M 388.91 218.53 404.46 218.53 M 404 228.51 386 228.51 M 386 238.5 404 238.5 M 404 248.48 386 248.48 M 345 239.82 345 257.8 M 345 239.82 408.02 176.8 721.98 176.8 756 210.82 756 343.86 694.56 405.3 673.5 405.3 665 413.8 669 417.8 715 417.8 M 665 381.8 665 307.8 715 257.8 M 615 257.8 565 307.8 565 381.8 M 525.75 418.23 268.89 418.23 M 268.89 428.22 529 428.22 M 515.76 408.25 259.23 408.25 M 245 427.8 225 447.8 175 447.8 M 189.2 428.22 221.11 428.22 M 221.11 418.23 161 418.23 M 161 408.25 230.77 408.25 M 268.38 438.2 613.72 438.2 M 505.78 398.26 161 398.26 M 161 388.28 495.79 388.28 M 565.16 508.1 574.84 508.1 M 574.84 518.08 565.16 518.08 M 565.16 528.07 574.84 528.07 M 574.84 538.05 565.16 538.05 M 535.31 558.02 518.54 558.02 M 536.54 577.8 486.34 577.8 M 450.73 577.99 358.89 577.99 M 360.68 587.98 450.73 587.98 M 454.53 597.96 438.4 597.96 M 439.27 607.95 539.31 607.95 M 539.31 617.93 439.27 617.93 M 439.27 627.92 530.72 627.92 M 529 637.9 432.93 637.9 M 484.12 667.86 529 667.86 M 521.56 677.84 484.5 677.84 M 461 697.8 535 697.8 M 545 697.8 545 687.8 M 600.26 637.9 614.74 637.9 M 614.31 627.92 600.68 627.92 M 570 611.26 536.54 577.8 M 534.07 597.96 518.15 597.96 M 450.73 568.01 364.67 568.01 M 364.68 558.02 365.09 558.02 M 402.76 558.02 404.57 558.02 M 404.57 548.04 402.76 548.04 M 402.76 538.05 404.57 538.05 M 404.57 528.07 402.76 528.07 M 402.76 518.08 404.57 518.08 M 442.23 558.02 454.14 558.02 M 368.93 597.96 360.68 597.96 M 299.74 637.9 298.54 637.9 M 285.44 647.89 314 647.89 M 314 657.87 169.77 657.87 M 179.76 667.86 194.29 667.86 M 347.73 777.69 571.32 777.69 M 600.68 587.98 614.31 587.98 M 616.11 577.99 598.89 577.99 M 604.67 568.01 610.33 568.01 M 610.31 558.02 604.68 558.02 M 604.68 538.05 610.31 538.05 M 610.31 528.07 604.68 528.07 M 603.98 518.08 611.02 518.08 M 621.79 508.1 593.21 508.1 M 815 321.26 841.54 321.26 905 257.8 965 317.8 M 815 254.33 815 197.8 M 1105 437.8 1375.58 708.38 M 1345 757.8 1315 757.8 1295 737.8 M 1311.38 817.64 1171.25 817.64 M 1174.89 827.62 1178.96 827.62 M 1168.13 1047.29 1281.72 1047.29 M 1141.48 1306.91 1136 1306.91 M 1136 1316.89 1151.46 1316.89 M 1154 1326.88 1136 1326.88 M 1136 1336.86 1154 1336.86 M 1154 1346.85 1136 1346.85 M 1136 1356.83 1154 1356.83 M 1154 1366.82 1136 1366.82 M 1135.65 1376.8 1154.35 1376.8 M 1158.49 1386.79 1131.51 1386.79 M 1124.01 1396.77 1165.99 1396.77 M 1181.91 1406.76 1108.09 1406.76 M 1408.09 1406.76 1472.34 1406.76 M 1460.43 1396.77 1424.01 1396.77 M 1431.51 1386.79 1454.17 1386.79 M 1450.87 1376.8 1435.65 1376.8 M 1436 1366.82 1450 1366.82 M 1450 1356.83 1436 1356.83 M 1436 1346.85 1450 1346.85 M 1490 1346.85 1500 1346.85 M 1500 1356.83 1490 1356.83 M 1490 1366.82 1500 1366.82 M 1500 1376.8 1490 1376.8 M 1490 1386.79 1500 1386.79 M 1500 1396.77 1490 1396.77 M 1490 1406.76 1500 1406.76 M 1500 1336.86 1671.08 1336.86 M 1500 1326.88 1490 1326.88 M 2016.21 1276.95 2028.55 1276.95 M 2024.42 1266.97 2021.12 1266.97 M 2021.12 1227.02 2037.79 1227.02 M 2342.14 1476.65 2737.86 1476.65 M 2735 1486.64 2345 1486.64 M 2345 1496.62 2735 1496.62 M 2915.3 1426.73 409.37 1426.73 M 409.37 1386.79 788.49 1386.79 M 784.35 1376.8 579.78 1376.8 M 588.89 1366.82 784 1366.82 M 580.29 1326.88 497.86 1326.88 M 472.14 1326.88 135 1326.88 M 135 1336.86 462.15 1336.86 M 499.77 1366.82 541.11 1366.82 M 550.22 1376.8 409.37 1376.8 M 360 1406.76 350 1406.76 M 350 1416.74 360 1416.74 M 360 1426.73 350 1426.73 M 350 1436.71 360 1436.71 M 360 1446.7 350 1446.7 M 300.63 1376.8 210.8 1376.8 M 179.2 1376.8 135 1376.8 M 135 1366.82 300.63 1366.82 M 300.63 1356.83 135 1356.83 M 135 1346.85 306 1346.85 M 277.76 1316.89 351.46 1316.89 M 341.48 1306.91 293.88 1306.91 M 301.46 1296.92 331.49 1296.92 M 321.51 1286.94 305.59 1286.94 M 306 1276.95 311.52 1276.95 M 196.34 1237.01 135 1237.01 M 135 1246.99 177.82 1246.99 M 169.25 1256.98 135 1256.98 M 135 1266.97 165.11 1266.97 M 164 1276.95 135 1276.95 M 135 1286.94 164.41 1286.94 M 168.54 1296.92 135 1296.92 M 135 1306.91 176.12 1306.91 M 192.24 1316.89 135 1316.89 M 135 1386.79 166.96 1386.79 M 162.02 1396.77 135 1396.77 M 135 1406.76 160.31 1406.76 M 161.16 1416.74 135 1416.74 M 135 1426.73 165.3 1426.73 M 174.86 1436.71 135 1436.71 M 135 1466.67 3005 1466.67 M 416.26 198.56 408.89 198.56 M 408.6 208.54 398.9 208.54 M 274.45 138.65 135 138.65 M 135 148.63 264.47 148.63 M 254.48 158.62 214.87 158.62 M 224.59 168.6 244.5 168.6 M 234.51 178.59 228.73 178.59 M 175.13 158.62 135 158.62 M 135 168.6 165.41 168.6 M 161.27 178.59 135 178.59 M 135 188.57 160.31 188.57 M 161.91 198.56 135 198.56 M 135 208.54 166.69 208.54 M 178.55 218.53 135 218.53 M 135 228.51 184.59 228.51 M 174.6 238.5 135 238.5 M 135 248.48 164.62 248.48 M 154.63 258.47 135 258.47 M 135 268.45 144.65 268.45 M 161 338.35 190.63 338.35 M 190.63 348.33 161 348.33 M 161 358.32 190.63 358.32 M 190.63 368.3 161 368.3 M 161 378.29 195.54 378.29 M 161.07 518.08 161 518.08 M 161 528.07 164.82 528.07 M 161 538.05 171.61 538.05" fill="none" stroke-width="10"/><path d="M 175.31 187.8 175.33 188.68 175.39 189.56 175.49 190.44 175.63 191.32 175.8 192.18 176.02 193.04 176.27 193.88 176.57 194.72 176.89 195.54 177.26 196.34 177.66 197.13 178.1 197.9 178.57 198.65 179.07 199.37 179.61 200.08 180.17 200.75 180.77 201.41 181.39 202.03 182.05 202.63 182.72 203.19 183.43 203.73 184.15 204.23 184.9 204.7 185.67 205.14 186.46 205.54 187.26 205.91 188.08 206.23 188.92 206.53 189.76 206.78 190.62 207 191.48 207.17 192.36 207.31 193.24 207.41 194.12 207.47 195 207.49 195.88 207.47 196.76 207.41 197.64 207.31 198.52 207.17 199.38 207 200.24 206.78 201.08 206.53 201.92 206.23 202.74 205.91 203.54 205.54 204.33 205.14 205.1 204.7 205.85 204.23 206.57 203.73 207.28 203.19 207.95 202.63 208.61 202.03 209.23 201.41 209.83 200.75 210.39 200.08 210.93 199.37 211.43 198.65 211.9 197.9 212.34 197.13 212.74 196.34 213.11 195.54 213.43 194.72 213.73 193.88 213.98 193.04 214.2 192.18 214.37 191.32 214.51 190.44 214.61 189.56 214.67 188.68 214.69 187.8 214.67 186.92 214.61 186.04 214.51 185.16 214.37 184.28 214.2 183.42 213.98 182.56 213.73 181.72 213.43 180.88 213.11 180.06 212.74 179.26 212.34 178.47 211.9 177.7 211.43 176.95 210.93 176.23 210.39 175.52 209.83 174.85 209.23 174.19 208.61 173.57 207.95 172.97 207.28 172.41 206.57 171.87 205.85 171.37 205.1 170.9 204.33 170.46 203.54 170.06 202.74 169.69 201.92 169.37 201.08 169.07 200.24 168.82 199.38 168.6 198.52 168.43 197.64 168.29 196.76 168.19 195.88 168.13 195 168.11 194.12 168.13 193.24 168.19 192.36 168.29 191.48 168.43 190.62 168.6 189.76 168.82 188.92 169.07 188.08 169.37 187.26 169.69 186.46 170.06 185.67 170.46 184.9 170.9 184.15 171.37 183.43 171.87 182.72 172.41 182.05 172.97 181.39 173.57 180.77 174.19 180.17 174.85 179.61 175.52 179.07 176.23 178.57 176.95 178.1 177.7 177.66 178.47 177.26 179.26 176.89 180.06 176.57 180.88 176.27 181.72 176.02 182.56 175.8 183.42 175.63 184.28 175.49 185.16 175.39 186.04 175.33 186.92 175.31 187.8 M 175.31 1407.8 175.33 1408.68 175.39 1409.56 175.49 1410.44 175.63 1411.32 175.8 1412.18 176.02 1413.04 176.27 1413.88 176.57 1414.72 176.89 1415.54 177.26 1416.34 177.66 1417.13 178.1 1417.9 178.57 1418.65 179.07 1419.37 179.61 1420.08 180.17 1420.75 180.77 1421.41 181.39 1422.03 182.05 1422.63 182.72 1423.19 183.43 1423.73 184.15 1424.23 184.9 1424.7 185.67 1425.14 186.46 1425.54 187.26 1425.91 188.08 1426.23 188.92 1426.53 189.76 1426.78 190.62 1427 191.48 1427.17 192.36 1427.31 193.24 1427.41 194.12 1427.47 195 1427.49 195.88 1427.47 196.76 1427.41 197.64 1427.31 198.52 1427.17 199.38 1427 200.24 1426.78 201.08 1426.53 201.92 1426.23 202.74 1425.91 203.54 1425.54 204.33 1425.14 205.1 1424.7 205.85 1424.23 206.57 1423.73 207.28 1423.19 207.95 1422.63 208.61 1422.03 209.23 1421.41 209.83 1420.75 210.39 1420.08 210.93 1419.37 211.43 1418.65 211.9 1417.9 212.34 1417.13 212.74 1416.34 213.11 1415.54 213.43 1414.72 213.73 1413.88 213.98 1413.04 214.2 1412.18 214.37 1411.32 214.51 1410.44 214.61 1409.56 214.67 1408.68 214.69 1407.8 214.67 1406.92 214.61 1406.04 214.51 1405.16 214.37 1404.28 214.2 1403.42 213.98 1402.56 213.73 1401.72 213.43 1400.88 213.11 1400.06 212.74 1399.26 212.34 1398.47 211.9 1397.7 211.43 1396.95 210.93 1396.23 210.39 1395.52 209.83 1394.85 209.23 1394.19 208.61 1393.57 207.95 1392.97 207.28 1392.41 206.57 1391.87 205.85 1391.37 205.1 1390.9 204.33 1390.46 203.54 1390.06 202.74 1389.69 201.92 1389.37 201.08 1389.07 200.24 1388.82 199.38 1388.6 198.52 1388.43 197.64 1388.29 196.76 1388.19 195.88 1388.13 195 1388.11 194.12 1388.13 193.24 1388.19 192.36 1388.29 191.48 1388.43 190.62 1388.6 189.76 1388.82 188.92 1389.07 188.08 1389.37 187.26 1389.69 186.46 1390.06 185.67 1390.46 184.9 1390.9 184.15 1391.37 183.43 1391.87 182.72 1392.41 182.05 1392.97 181.39 1393.57 180.77 1394.19 180.17 1394.85 179.61 1395.52 179.07 1396.23 178.57 1396.95 178.1 1397.7 177.66 1398.47 177.26 1399.26 176.89 1400.06 176.57 1400.88 176.27 1401.72 176.02 1402.56 175.8 1403.42 175.63 1404.28 175.49 1405.16 175.39 1406.04 175.33 1406.92 175.31 1407.8 M 2925.31 1407.8 2925.33 1408.68 2925.39 1409.56 2925.49 1410.44 2925.63 1411.32 2925.8 1412.18 2926.02 1413.04 2926.27 1413.88 2926.57 1414.72 2926.89 1415.54 2927.26 1416.34 2927.66 1417.13 2928.1 1417.9 2928.57 1418.65 2929.07 1419.37 2929.61 1420.08 2930.17 1420.75 2930.77 1421.41 2931.39 1422.03 2932.05 1422.63 2932.72 1423.19 2933.43 1423.73 2934.15 1424.23 2934.9 1424.7 2935.67 1425.14 2936.46 1425.54 2937.26 1425.91 2938.08 1426.23 2938.92 1426.53 2939.76 1426.78 2940.62 1427 2941.48 1427.17 2942.36 1427.31 2943.24 1427.41 2944.12 1427.47 2945 1427.49 2945.88 1427.47 2946.76 1427.41 2947.64 1427.31 2948.52 1427.17 2949.38 1427 2950.24 1426.78 2951.08 1426.53 2951.92 1426.23 2952.74 1425.91 2953.54 1425.54 2954.33 1425.14 2955.1 1424.7 2955.85 1424.23 2956.57 1423.73 2957.28 1423.19 2957.95 1422.63 2958.61 1422.03 2959.23 1421.41 2959.83 1420.75 2960.39 1420.08 2960.93 1419.37 2961.43 1418.65 2961.9 1417.9 2962.34 1417.13 2962.74 1416.34 2963.11 1415.54 2963.43 1414.72 2963.73 1413.88 2963.98 1413.04 2964.2 1412.18 2964.37 1411.32 2964.51 1410.44 2964.61 1409.56 2964.67 1408.68 2964.69 1407.8 2964.67 1406.92 2964.61 1406.04 2964.51 1405.16 2964.37 1404.28 2964.2 1403.42 2963.98 1402.56 2963.73 1401.72 2963.43 1400.88 2963.11 1400.06 2962.74 1399.26 2962.34 1398.47 2961.9 1397.7 2961.43 1396.95 2960.93 1396.23 2960.39 1395.52 2959.83 1394.85 2959.23 1394.19 2958.61 1393.57 2957.95 1392.97 2957.28 1392.41 2956.57 1391.87 2955.85 1391.37 2955.1 1390.9 2954.33 1390.46 2953.54 1390.06 2952.74 1389.69 2951.92 1389.37 2951.08 1389.07 2950.24 1388.82 2949.38 1388.6 2948.52 1388.43 2947.64 1388.29 2946.76 1388.19 2945.88 1388.13 2945 1388.11 2944.12 1388.13 2943.24 1388.19 2942.36 1388.29 2941.48 1388.43 2940.62 1388.6 2939.76 1388.82 2938.92 1389.07 2938.08 1389.37 2937.26 1389.69 2936.46 1390.06 2935.67 1390.46 2934.9 1390.9 2934.15 1391.37 2933.43 1391.87 2932.72 1392.41 2932.05 1392.97 2931.39 1393.57 2930.77 1394.19 2930.17 1394.85 2929.61 1395.52 2929.07 1396.23 2928.57 1396.95 2928.1 1397.7 2927.66 1398.47 2927.26 1399.26 2926.89 1400.06 2926.57 1400.88 2926.27 1401.72 2926.02 1402.56 2925.8 1403.42 2925.63 1404.28 2925.49 1405.16 2925.39 1406.04 2925.33 1406.92 2925.31 1407.8 M 2925.31 187.8 2925.33 188.68 2925.39 189.56 2925.49 190.44 2925.63 191.32 2925.8 192.18 2926.02 193.04 2926.27 193.88 2926.57 194.72 2926.89 195.54 2927.26 196.34 2927.66 197.13 2928.1 197.9 2928.57 198.65 2929.07 199.37 2929.61 200.08 2930.17 200.75 2930.77 201.41 2931.39 202.03 2932.05 202.63 2932.72 203.19 2933.43 203.73 2934.15 204.23 2934.9 204.7 2935.67 205.14 2936.46 205.54 2937.26 205.91 2938.08 206.23 2938.92 206.53 2939.76 206.78 2940.62 207 2941.48 207.17 2942.36 207.31 2943.24 207.41 2944.12 207.47 2945 207.49 2945.88 207.47 2946.76 207.41 2947.64 207.31 2948.52 207.17 2949.38 207 2950.24 206.78 2951.08 206.53 2951.92 206.23 2952.74 205.91 2953.54 205.54 2954.33 205.14 2955.1 204.7 2955.85 204.23 2956.57 203.73 2957.28 203.19 2957.95 202.63 2958.61 202.03 2959.23 201.41 2959.83 200.75 2960.39 200.08 2960.93 199.37 2961.43 198.65 2961.9 197.9 2962.34 197.13 2962.74 196.34 2963.11 195.54 2963.43 194.72 2963.73 193.88 2963.98 193.04 2964.2 192.18 2964.37 191.32 2964.51 190.44 2964.61 189.56 2964.67 188.68 2964.69 187.8 2964.67 186.92 2964.61 186.04 2964.51 185.16 2964.37 184.28 2964.2 183.42 2963.98 182.56 2963.73 181.72 2963.43 180.88 2963.11 180.06 2962.74 179.26 2962.34 178.47 2961.9 177.7 2961.43 176.95 2960.93 176.23 2960.39 175.52 2959.83 174.85 2959.23 174.19 2958.61 173.57 2957.95 172.97 2957.28 172.41 2956.57 171.87 2955.85 171.37 2955.1 170.9 2954.33 170.46 2953.54 170.06 2952.74 169.69 2951.92 169.37 2951.08 169.07 2950.24 168.82 2949.38 168.6 2948.52 168.43 2947.64 168.29 2946.76 168.19 2945.88 168.13 2945 168.11 2944.12 168.13 2943.24 168.19 2942.36 168.29 2941.48 168.43 2940.62 168.6 2939.76 168.82 2938.92 169.07 2938.08 169.37 2937.26 169.69 2936.46 170.06 2935.67 170.46 2934.9 170.9 2934.15 171.37 2933.43 171.87 2932.72 172.41 2932.05 172.97 2931.39 173.57 2930.77 174.19 2930.17 174.85 2929.61 175.52 2929.07 176.23 2928.57 176.95 2928.1 177.7 2927.66 178.47 2927.26 179.26 2926.89 180.06 2926.57 180.88 2926.27 181.72 2926.02 182.56 2925.8 183.42 2925.63 184.28 2925.49 185.16 2925.39 186.04 2925.33 186.92 2925.31 187.8" fill="none" stroke-width="0"/><use xlink:href="#TqhJzKD_ZfD_P6GYQ3HJ_pad-12" x="486.34" y="577.8"/><use xlink:href="#TqhJzKD_ZfD_P6GYQ3HJ_pad-12" x="403.66" y="615.2"/><use xlink:href="#TqhJzKD_ZfD_P6GYQ3HJ_pad-12" x="403.66" y="540.4"/><use xlink:href="#TqhJzKD_ZfD_P6GYQ3HJ_pad-13" x="429" y="697.8"/><use xlink:href="#TqhJzKD_ZfD_P6GYQ3HJ_pad-13" x="461" y="697.8"/><use xlink:href="#TqhJzKD_ZfD_P6GYQ3HJ_pad-13" x="859" y="657.8"/><use xlink:href="#TqhJzKD_ZfD_P6GYQ3HJ_pad-13" x="891" y="657.8"/><use xlink:href="#TqhJzKD_ZfD_P6GYQ3HJ_pad-13" x="891" y="757.8"/><use xlink:href="#TqhJzKD_ZfD_P6GYQ3HJ_pad-13" x="859" y="757.8"/><use xlink:href="#TqhJzKD_ZfD_P6GYQ3HJ_pad-13" x="999" y="1067.8"/><use xlink:href="#TqhJzKD_ZfD_P6GYQ3HJ_pad-13" x="1031" y="1067.8"/><use xlink:href="#TqhJzKD_ZfD_P6GYQ3HJ_pad-13" x="1869" y="1337.8"/><use xlink:href="#TqhJzKD_ZfD_P6GYQ3HJ_pad-13" x="1901" y="1337.8"/><use xlink:href="#TqhJzKD_ZfD_P6GYQ3HJ_pad-13" x="2539" y="927.8"/><use xlink:href="#TqhJzKD_ZfD_P6GYQ3HJ_pad-13" x="2571" y="927.8"/><use xlink:href="#TqhJzKD_ZfD_P6GYQ3HJ_pad-13" x="2571" y="817.8"/><use xlink:href="#TqhJzKD_ZfD_P6GYQ3HJ_pad-13" x="2539" y="817.8"/><use xlink:href="#TqhJzKD_ZfD_P6GYQ3HJ_pad-13" x="2539" y="697.8"/><use xlink:href="#TqhJzKD_ZfD_P6GYQ3HJ_pad-13" x="2571" y="697.8"/><use xlink:href="#TqhJzKD_ZfD_P6GYQ3HJ_pad-13" x="2571" y="587.8"/><use xlink:href="#TqhJzKD_ZfD_P6GYQ3HJ_pad-13" x="2539" y="587.8"/><use xlink:href="#TqhJzKD_ZfD_P6GYQ3HJ_pad-14" x="1905" y="431.26"/><use xlink:href="#TqhJzKD_ZfD_P6GYQ3HJ_pad-14" x="1825" y="431.26"/><use xlink:href="#TqhJzKD_ZfD_P6GYQ3HJ_pad-14" x="1825" y="364.33"/><use xlink:href="#TqhJzKD_ZfD_P6GYQ3HJ_pad-14" x="1905" y="364.33"/><use xlink:href="#TqhJzKD_ZfD_P6GYQ3HJ_pad-14" x="1095" y="321.26"/><use xlink:href="#TqhJzKD_ZfD_P6GYQ3HJ_pad-14" x="1095" y="254.33"/><use xlink:href="#TqhJzKD_ZfD_P6GYQ3HJ_pad-14" x="815" y="254.33"/><use xlink:href="#TqhJzKD_ZfD_P6GYQ3HJ_pad-14" x="815" y="321.26"/><use xlink:href="#TqhJzKD_ZfD_P6GYQ3HJ_pad-14" x="645" y="544.33"/><use xlink:href="#TqhJzKD_ZfD_P6GYQ3HJ_pad-14" x="570" y="544.33"/><use xlink:href="#TqhJzKD_ZfD_P6GYQ3HJ_pad-14" x="570" y="611.26"/><use xlink:href="#TqhJzKD_ZfD_P6GYQ3HJ_pad-14" x="645" y="611.26"/><use xlink:href="#TqhJzKD_ZfD_P6GYQ3HJ_pad-14" x="330" y="611.26"/><use xlink:href="#TqhJzKD_ZfD_P6GYQ3HJ_pad-14" x="330" y="544.33"/><use xlink:href="#TqhJzKD_ZfD_P6GYQ3HJ_pad-15" x="976.54" y="982.8"/><use xlink:href="#TqhJzKD_ZfD_P6GYQ3HJ_pad-15" x="1043.46" y="982.8"/><use xlink:href="#TqhJzKD_ZfD_P6GYQ3HJ_pad-15" x="1771.54" y="1167.8"/><use xlink:href="#TqhJzKD_ZfD_P6GYQ3HJ_pad-15" x="1838.46" y="1167.8"/><use xlink:href="#TqhJzKD_ZfD_P6GYQ3HJ_pad-15" x="1921.54" y="1167.8"/><use xlink:href="#TqhJzKD_ZfD_P6GYQ3HJ_pad-15" x="1988.46" y="1167.8"/><use xlink:href="#TqhJzKD_ZfD_P6GYQ3HJ_pad-15" x="1988.46" y="1247.8"/><use xlink:href="#TqhJzKD_ZfD_P6GYQ3HJ_pad-15" x="1921.54" y="1247.8"/><use xlink:href="#TqhJzKD_ZfD_P6GYQ3HJ_pad-15" x="1838.46" y="1247.8"/><use xlink:href="#TqhJzKD_ZfD_P6GYQ3HJ_pad-15" x="1771.54" y="1247.8"/><use xlink:href="#TqhJzKD_ZfD_P6GYQ3HJ_pad-15" x="1931.54" y="517.8"/><use xlink:href="#TqhJzKD_ZfD_P6GYQ3HJ_pad-15" x="1998.46" y="517.8"/><use xlink:href="#TqhJzKD_ZfD_P6GYQ3HJ_pad-16" x="545" y="697.8"/><path d="M 265 707.8 205 707.8 M 205 607.8 265 607.8 M 265 507.8 205 507.8 M 345 287.8 345 227.8 M 445 227.8 445 287.8 M 615 287.8 615 227.8 M 715 227.8 715 287.8 M 805 407.8 805 467.8 M 905 467.8 905 407.8 M 1005 407.8 1005 467.8 M 1105 467.8 1105 407.8 M 1005 287.8 1005 227.8 M 905 227.8 905 287.8 M 1225 287.8 1225 227.8 M 1325 227.8 1325 287.8 M 1425 287.8 1425 227.8 M 1525 227.8 1525 287.8 M 1815 287.8 1815 227.8 M 1915 227.8 1915 287.8 M 2065 657.8 2125 657.8 M 2125 757.8 2065 757.8 M 2065 1157.8 2125 1157.8 M 2125 1257.8 2065 1257.8 M 1495 1307.8 1495 1367.8 M 1395 1367.8 1395 1307.8 M 1295 1307.8 1295 1367.8 M 1195 1367.8 1195 1307.8 M 1095 1307.8 1095 1367.8 M 925 1367.8 925 1307.8 M 825 1307.8 825 1367.8 M 265 1277.8 205 1277.8 M 205 1177.8 265 1177.8 M 265 1077.8 205 1077.8 M 205 977.8 265 977.8 M 265 877.8 205 877.8" fill="none" stroke-width="60"/><use xlink:href="#TqhJzKD_ZfD_P6GYQ3HJ_pad-18" x="825" y="1181.8"/><use xlink:href="#TqhJzKD_ZfD_P6GYQ3HJ_pad-18" x="825" y="1213.8"/><use xlink:href="#TqhJzKD_ZfD_P6GYQ3HJ_pad-18" x="925" y="1213.8"/><use xlink:href="#TqhJzKD_ZfD_P6GYQ3HJ_pad-18" x="925" y="1181.8"/><use xlink:href="#TqhJzKD_ZfD_P6GYQ3HJ_pad-18" x="1885" y="1093.8"/><use xlink:href="#TqhJzKD_ZfD_P6GYQ3HJ_pad-18" x="1885" y="1061.8"/><use xlink:href="#TqhJzKD_ZfD_P6GYQ3HJ_pad-18" x="665" y="413.8"/><use xlink:href="#TqhJzKD_ZfD_P6GYQ3HJ_pad-18" x="665" y="381.8"/><use xlink:href="#TqhJzKD_ZfD_P6GYQ3HJ_pad-18" x="565" y="381.8"/><use xlink:href="#TqhJzKD_ZfD_P6GYQ3HJ_pad-18" x="565" y="413.8"/><use xlink:href="#TqhJzKD_ZfD_P6GYQ3HJ_pad-19" x="2095" y="517.8"/><use xlink:href="#TqhJzKD_ZfD_P6GYQ3HJ_pad-20" x="355" y="1397.8"/><use xlink:href="#TqhJzKD_ZfD_P6GYQ3HJ_pad-20" x="245" y="327.8"/><use xlink:href="#TqhJzKD_ZfD_P6GYQ3HJ_pad-21" x="2345" y="908.43"/><use xlink:href="#TqhJzKD_ZfD_P6GYQ3HJ_pad-21" x="2415" y="908.43"/><use xlink:href="#TqhJzKD_ZfD_P6GYQ3HJ_pad-21" x="2415" y="987.17"/><use xlink:href="#TqhJzKD_ZfD_P6GYQ3HJ_pad-21" x="2345" y="987.17"/><use xlink:href="#TqhJzKD_ZfD_P6GYQ3HJ_pad-21" x="2755" y="827.17"/><use xlink:href="#TqhJzKD_ZfD_P6GYQ3HJ_pad-21" x="2825" y="827.17"/><use xlink:href="#TqhJzKD_ZfD_P6GYQ3HJ_pad-21" x="2825" y="748.43"/><use xlink:href="#TqhJzKD_ZfD_P6GYQ3HJ_pad-21" x="2755" y="748.43"/><use xlink:href="#TqhJzKD_ZfD_P6GYQ3HJ_pad-22" x="2665" y="717.8"/><use xlink:href="#TqhJzKD_ZfD_P6GYQ3HJ_pad-22" x="2765" y="627.8"/><use xlink:href="#TqhJzKD_ZfD_P6GYQ3HJ_pad-22" x="2815" y="527.8"/><use xlink:href="#TqhJzKD_ZfD_P6GYQ3HJ_pad-22" x="2875" y="827.8"/><use xlink:href="#TqhJzKD_ZfD_P6GYQ3HJ_pad-22" x="2655" y="1097.8"/><use xlink:href="#TqhJzKD_ZfD_P6GYQ3HJ_pad-22" x="2415" y="1037.8"/><use xlink:href="#TqhJzKD_ZfD_P6GYQ3HJ_pad-22" x="2295" y="977.8"/><use xlink:href="#TqhJzKD_ZfD_P6GYQ3HJ_pad-22" x="2295" y="917.8"/><use xlink:href="#TqhJzKD_ZfD_P6GYQ3HJ_pad-22" x="2165" y="937.8"/><use xlink:href="#TqhJzKD_ZfD_P6GYQ3HJ_pad-22" x="2035" y="887.8"/><use xlink:href="#TqhJzKD_ZfD_P6GYQ3HJ_pad-22" x="2025" y="937.8"/><use xlink:href="#TqhJzKD_ZfD_P6GYQ3HJ_pad-22" x="2115" y="827.8"/><use xlink:href="#TqhJzKD_ZfD_P6GYQ3HJ_pad-22" x="1975" y="577.8"/><use xlink:href="#TqhJzKD_ZfD_P6GYQ3HJ_pad-22" x="1695" y="697.8"/><use xlink:href="#TqhJzKD_ZfD_P6GYQ3HJ_pad-22" x="1663.11" y="735.91"/><use xlink:href="#TqhJzKD_ZfD_P6GYQ3HJ_pad-22" x="1635" y="757.8"/><use xlink:href="#TqhJzKD_ZfD_P6GYQ3HJ_pad-22" x="1465" y="852.81"/><use xlink:href="#TqhJzKD_ZfD_P6GYQ3HJ_pad-22" x="1435" y="837.8"/><use xlink:href="#TqhJzKD_ZfD_P6GYQ3HJ_pad-22" x="1465" y="900.59"/><use xlink:href="#TqhJzKD_ZfD_P6GYQ3HJ_pad-22" x="1535" y="977.8"/><use xlink:href="#TqhJzKD_ZfD_P6GYQ3HJ_pad-22" x="1605" y="937.8"/><use xlink:href="#TqhJzKD_ZfD_P6GYQ3HJ_pad-22" x="1511.11" y="1037.8"/><use xlink:href="#TqhJzKD_ZfD_P6GYQ3HJ_pad-22" x="1475" y="1047.8"/><use xlink:href="#TqhJzKD_ZfD_P6GYQ3HJ_pad-22" x="1455" y="1077.8"/><use xlink:href="#TqhJzKD_ZfD_P6GYQ3HJ_pad-22" x="1375.58" y="1053.43"/><use xlink:href="#TqhJzKD_ZfD_P6GYQ3HJ_pad-22" x="1295" y="1067.8"/><use xlink:href="#TqhJzKD_ZfD_P6GYQ3HJ_pad-22" x="1205" y="987.8"/><use xlink:href="#TqhJzKD_ZfD_P6GYQ3HJ_pad-22" x="1111.11" y="977.8"/><use xlink:href="#TqhJzKD_ZfD_P6GYQ3HJ_pad-22" x="1105" y="1037.8"/><use xlink:href="#TqhJzKD_ZfD_P6GYQ3HJ_pad-22" x="1075" y="1117.8"/><use xlink:href="#TqhJzKD_ZfD_P6GYQ3HJ_pad-22" x="855" y="1027.8"/><use xlink:href="#TqhJzKD_ZfD_P6GYQ3HJ_pad-22" x="835" y="947.8"/><use xlink:href="#TqhJzKD_ZfD_P6GYQ3HJ_pad-22" x="885" y="907.8"/><use xlink:href="#TqhJzKD_ZfD_P6GYQ3HJ_pad-22" x="936.89" y="929.69"/><use xlink:href="#TqhJzKD_ZfD_P6GYQ3HJ_pad-22" x="1135" y="837.8"/><use xlink:href="#TqhJzKD_ZfD_P6GYQ3HJ_pad-22" x="1005" y="747.8"/><use xlink:href="#TqhJzKD_ZfD_P6GYQ3HJ_pad-22" x="945" y="757.8"/><use xlink:href="#TqhJzKD_ZfD_P6GYQ3HJ_pad-22" x="945" y="707.8"/><use xlink:href="#TqhJzKD_ZfD_P6GYQ3HJ_pad-22" x="815" y="727.8"/><use xlink:href="#TqhJzKD_ZfD_P6GYQ3HJ_pad-22" x="805" y="797.8"/><use xlink:href="#TqhJzKD_ZfD_P6GYQ3HJ_pad-22" x="585" y="797.8"/><use xlink:href="#TqhJzKD_ZfD_P6GYQ3HJ_pad-22" x="485" y="921.69"/><use xlink:href="#TqhJzKD_ZfD_P6GYQ3HJ_pad-22" x="405" y="917.8"/><use xlink:href="#TqhJzKD_ZfD_P6GYQ3HJ_pad-22" x="366.89" y="895.91"/><use xlink:href="#TqhJzKD_ZfD_P6GYQ3HJ_pad-22" x="315" y="787.8"/><use xlink:href="#TqhJzKD_ZfD_P6GYQ3HJ_pad-22" x="365" y="677.8"/><use xlink:href="#TqhJzKD_ZfD_P6GYQ3HJ_pad-22" x="175" y="447.8"/><use xlink:href="#TqhJzKD_ZfD_P6GYQ3HJ_pad-22" x="245" y="427.8"/><use xlink:href="#TqhJzKD_ZfD_P6GYQ3HJ_pad-22" x="315" y="367.8"/><use xlink:href="#TqhJzKD_ZfD_P6GYQ3HJ_pad-22" x="715" y="417.8"/><use xlink:href="#TqhJzKD_ZfD_P6GYQ3HJ_pad-22" x="735" y="547.8"/><use xlink:href="#TqhJzKD_ZfD_P6GYQ3HJ_pad-22" x="815" y="647.8"/><use xlink:href="#TqhJzKD_ZfD_P6GYQ3HJ_pad-22" x="915" y="587.8"/><use xlink:href="#TqhJzKD_ZfD_P6GYQ3HJ_pad-22" x="1155" y="587.8"/><use xlink:href="#TqhJzKD_ZfD_P6GYQ3HJ_pad-22" x="1155" y="647.8"/><use xlink:href="#TqhJzKD_ZfD_P6GYQ3HJ_pad-22" x="1295" y="737.8"/><use xlink:href="#TqhJzKD_ZfD_P6GYQ3HJ_pad-22" x="1345" y="757.8"/><use xlink:href="#TqhJzKD_ZfD_P6GYQ3HJ_pad-22" x="1405" y="697.8"/><use xlink:href="#TqhJzKD_ZfD_P6GYQ3HJ_pad-22" x="1325" y="837.8"/><use xlink:href="#TqhJzKD_ZfD_P6GYQ3HJ_pad-22" x="1325" y="877.8"/><use xlink:href="#TqhJzKD_ZfD_P6GYQ3HJ_pad-22" x="1665" y="647.8"/><use xlink:href="#TqhJzKD_ZfD_P6GYQ3HJ_pad-22" x="1395" y="547.8"/><use xlink:href="#TqhJzKD_ZfD_P6GYQ3HJ_pad-22" x="1266.89" y="359.69"/><use xlink:href="#TqhJzKD_ZfD_P6GYQ3HJ_pad-22" x="1145" y="227.8"/><use xlink:href="#TqhJzKD_ZfD_P6GYQ3HJ_pad-22" x="815" y="197.8"/><use xlink:href="#TqhJzKD_ZfD_P6GYQ3HJ_pad-22" x="575" y="967.8"/><use xlink:href="#TqhJzKD_ZfD_P6GYQ3HJ_pad-22" x="505" y="1087.8"/><use xlink:href="#TqhJzKD_ZfD_P6GYQ3HJ_pad-22" x="375" y="1157.8"/><use xlink:href="#TqhJzKD_ZfD_P6GYQ3HJ_pad-22" x="335" y="1177.8"/><use xlink:href="#TqhJzKD_ZfD_P6GYQ3HJ_pad-22" x="485" y="1347.8"/><use xlink:href="#TqhJzKD_ZfD_P6GYQ3HJ_pad-22" x="565" y="1357.8"/><use xlink:href="#TqhJzKD_ZfD_P6GYQ3HJ_pad-22" x="596.12" y="1308.92"/><use xlink:href="#TqhJzKD_ZfD_P6GYQ3HJ_pad-22" x="705" y="1267.8"/><use xlink:href="#TqhJzKD_ZfD_P6GYQ3HJ_pad-22" x="705" y="1107.8"/><use xlink:href="#TqhJzKD_ZfD_P6GYQ3HJ_pad-22" x="1335" y="1247.8"/><use xlink:href="#TqhJzKD_ZfD_P6GYQ3HJ_pad-22" x="1775" y="1297.8"/><use xlink:href="#TqhJzKD_ZfD_P6GYQ3HJ_pad-22" x="1955" y="1297.8"/><use xlink:href="#TqhJzKD_ZfD_P6GYQ3HJ_pad-22" x="1975" y="1114.33"/><use xlink:href="#TqhJzKD_ZfD_P6GYQ3HJ_pad-22" x="1775" y="1107.8"/><path d="M 2355 747.8 2469 747.8 2539 817.8 M 2315 637.8 2108.46 431.26 2065 431.26 2035 401.26 2035 282.74 1908.05 155.8 287 155.8 140 302.8 140 657.8 190 707.8 235 707.8 M 235 607.8 298.46 544.33 330 544.33 293.46 507.8 235 507.8 M 1905 431.26 2065 431.26" fill="none" stroke-width="20"/><path d="M 885 997.8 885 1047.8 867.37 1047.8 864.48 1050.69 845.52 1050.69 842.63 1047.8 545 1047.8 505 1087.8 M 835 947.8 885 997.8" fill="none" stroke-width="8"/><use xlink:href="#TqhJzKD_ZfD_P6GYQ3HJ_pad-25" x="2315" y="637.8"/><use xlink:href="#TqhJzKD_ZfD_P6GYQ3HJ_pad-25" x="2355" y="747.8"/><use xlink:href="#TqhJzKD_ZfD_P6GYQ3HJ_pad-25" x="2635" y="817.8"/></g></svg>