<svg version="1.1" xmlns="http://www.w3.org/2000/svg" xmlns:xlink="http://www.w3.org/1999/xlink" stroke-linecap="round" stroke-linejoin="round" stroke-width="0" fill-rule="evenodd" width="2.92in" height="1.72in" viewBox="110 102.8 2920 1720" id="lz-_dK3VfK218Gmm-xnA"><defs><circle cx="0" cy="0" r="21.685" id="lz-_dK3VfK218Gmm-xnA_pad-12"/><rect x="-27" y="-14.5" width="54" height="29" id="lz-_dK3VfK218Gmm-xnA_pad-13"/><rect x="-14.795" y="-11.055" width="29.59" height="22.11" id="lz-_dK3VfK218Gmm-xnA_pad-14"/><rect x="-11.055" y="-14.795" width="22.11" height="29.59" id="lz-_dK3VfK218Gmm-xnA_pad-15"/><rect x="-7.905" y="-30.545" width="15.81" height="61.09" id="lz-_dK3VfK218Gmm-xnA_pad-16"/><rect x="-30.545" y="-7.905" width="61.09" height="15.81" id="lz-_dK3VfK218Gmm-xnA_pad-17"/><rect x="-21.685" y="-37.435" width="43.37" height="74.87" id="lz-_dK3VfK218Gmm-xnA_pad-18"/><rect x="-21.685" y="-23.655" width="43.37" height="47.31" id="lz-_dK3VfK218Gmm-xnA_pad-19"/><rect x="-15.78" y="-21.685" width="31.56" height="43.37" id="lz-_dK3VfK218Gmm-xnA_pad-20"/><rect x="-20.7" y="-21.685" width="41.4" height="43.37" id="lz-_dK3VfK218Gmm-xnA_pad-21"/><rect x="-23.655" y="-21.685" width="47.31" height="43.37" id="lz-_dK3VfK218Gmm-xnA_pad-22"/><rect x="-25.62" y="-37.435" width="51.24" height="74.87" id="lz-_dK3VfK218Gmm-xnA_pad-23"/><rect x="-25.62" y="-25.62" width="51.24" height="51.24" id="lz-_dK3VfK218Gmm-xnA_pad-24"/><rect x="-41.37" y="-41.37" width="82.74" height="82.74" id="lz-_dK3VfK218Gmm-xnA_pad-25"/><rect x="-5.75" y="-11.745" width="11.5" height="23.49" id="lz-_dK3VfK218Gmm-xnA_pad-26"/><rect x="-5.75" y="-13.81" width="11.5" height="27.62" id="lz-_dK3VfK218Gmm-xnA_pad-27"/><rect x="-11.745" y="-5.75" width="23.49" height="11.5" id="lz-_dK3VfK218Gmm-xnA_pad-28"/><rect x="-13.81" y="-5.75" width="27.62" height="11.5" id="lz-_dK3VfK218Gmm-xnA_pad-29"/><polygon points="31.99993,13.25481 13.25481,31.99993 -13.25481,31.99993 -31.99993,13.25481 -31.99993,-13.25481 -13.25481,-31.99993 13.25481,-31.99993 31.99993,-13.25481" id="lz-_dK3VfK218Gmm-xnA_pad-31"/><rect x="-32" y="-22" width="64" height="44" id="lz-_dK3VfK218Gmm-xnA_pad-32"/><rect x="-22" y="-32" width="44" height="64" id="lz-_dK3VfK218Gmm-xnA_pad-33"/><rect x="-22.67" y="-23.26" width="45.34" height="46.52" id="lz-_dK3VfK218Gmm-xnA_pad-34"/><rect x="-19.715" y="-17.75" width="39.43" height="35.5" id="lz-_dK3VfK218Gmm-xnA_pad-35"/></defs><g transform="translate(0,1925.6) scale(1,-1)" fill="currentColor" stroke="currentColor"><path d="M 115 107.8 115 1487.8 2325 1487.8 2325 1817.8 2755 1817.8 2755 1487.8 3025 1487.8 3025 107.8 115 107.8" fill="none" stroke-width="10"/><path d="M 175.31 187.8 175.33 188.68 175.39 189.56 175.49 190.44 175.63 191.32 175.8 192.18 176.02 193.04 176.27 193.88 176.57 194.72 176.89 195.54 177.26 196.34 177.66 197.13 178.1 197.9 178.57 198.65 179.07 199.37 179.61 200.08 180.17 200.75 180.77 201.41 181.39 202.03 182.05 202.63 182.72 203.19 183.43 203.73 184.15 204.23 184.9 204.7 185.67 205.14 186.46 205.54 187.26 205.91 188.08 206.23 188.92 206.53 189.76 206.78 190.62 207 191.48 207.17 192.36 207.31 193.24 207.41 194.12 207.47 195 207.49 195.88 207.47 196.76 207.41 197.64 207.31 198.52 207.17 199.38 207 200.24 206.78 201.08 206.53 201.92 206.23 202.74 205.91 203.54 205.54 204.33 205.14 205.1 204.7 205.85 204.23 206.57 203.73 207.28 203.19 207.95 202.63 208.61 202.03 209.23 201.41 209.83 200.75 210.39 200.08 210.93 199.37 211.43 198.65 211.9 197.9 212.34 197.13 212.74 196.34 213.11 195.54 213.43 194.72 213.73 193.88 213.98 193.04 214.2 192.18 214.37 191.32 214.51 190.44 214.61 189.56 214.67 188.68 214.69 187.8 214.67 186.92 214.61 186.04 214.51 185.16 214.37 184.28 214.2 183.42 213.98 182.56 213.73 181.72 213.43 180.88 213.11 180.06 212.74 179.26 212.34 178.47 211.9 177.7 211.43 176.95 210.93 176.23 210.39 175.52 209.83 174.85 209.23 174.19 208.61 173.57 207.95 172.97 207.28 172.41 206.57 171.87 205.85 171.37 205.1 170.9 204.33 170.46 203.54 170.06 202.74 169.69 201.92 169.37 201.08 169.07 200.24 168.82 199.38 168.6 198.52 168.43 197.64 168.29 196.76 168.19 195.88 168.13 195 168.11 194.12 168.13 193.24 168.19 192.36 168.29 191.48 168.43 190.62 168.6 189.76 168.82 188.92 169.07 188.08 169.37 187.26 169.69 186.46 170.06 185.67 170.46 184.9 170.9 184.15 171.37 183.43 171.87 182.72 172.41 182.05 172.97 181.39 173.57 180.77 174.19 180.17 174.85 179.61 175.52 179.07 176.23 178.57 176.95 178.1 177.7 177.66 178.47 177.26 179.26 176.89 180.06 176.57 180.88 176.27 181.72 176.02 182.56 175.8 183.42 175.63 184.28 175.49 185.16 175.39 186.04 175.33 186.92 175.31 187.8 M 175.31 1407.8 175.33 1408.68 175.39 1409.56 175.49 1410.44 175.63 1411.32 175.8 1412.18 176.02 1413.04 176.27 1413.88 176.57 1414.72 176.89 1415.54 177.26 1416.34 177.66 1417.13 178.1 1417.9 178.57 1418.65 179.07 1419.37 179.61 1420.08 180.17 1420.75 180.77 1421.41 181.39 1422.03 182.05 1422.63 182.72 1423.19 183.43 1423.73 184.15 1424.23 184.9 1424.7 185.67 1425.14 186.46 1425.54 187.26 1425.91 188.08 1426.23 188.92 1426.53 189.76 1426.78 190.62 1427 191.48 1427.17 192.36 1427.31 193.24 1427.41 194.12 1427.47 195 1427.49 195.88 1427.47 196.76 1427.41 197.64 1427.31 198.52 1427.17 199.38 1427 200.24 1426.78 201.08 1426.53 201.92 1426.23 202.74 1425.91 203.54 1425.54 204.33 1425.14 205.1 1424.7 205.85 1424.23 206.57 1423.73 207.28 1423.19 207.95 1422.63 208.61 1422.03 209.23 1421.41 209.83 1420.75 210.39 1420.08 210.93 1419.37 211.43 1418.65 211.9 1417.9 212.34 1417.13 212.74 1416.34 213.11 1415.54 213.43 1414.72 213.73 1413.88 213.98 1413.04 214.2 1412.18 214.37 1411.32 214.51 1410.44 214.61 1409.56 214.67 1408.68 214.69 1407.8 214.67 1406.92 214.61 1406.04 214.51 1405.16 214.37 1404.28 214.2 1403.42 213.98 1402.56 213.73 1401.72 213.43 1400.88 213.11 1400.06 212.74 1399.26 212.34 1398.47 211.9 1397.7 211.43 1396.95 210.93 1396.23 210.39 1395.52 209.83 1394.85 209.23 1394.19 208.61 1393.57 207.95 1392.97 207.28 1392.41 206.57 1391.87 205.85 1391.37 205.1 1390.9 204.33 1390.46 203.54 1390.06 202.74 1389.69 201.92 1389.37 201.08 1389.07 200.24 1388.82 199.38 1388.6 198.52 1388.43 197.64 1388.29 196.76 1388.19 195.88 1388.13 195 1388.11 194.12 1388.13 193.24 1388.19 192.36 1388.29 191.48 1388.43 190.62 1388.6 189.76 1388.82 188.92 1389.07 188.08 1389.37 187.26 1389.69 186.46 1390.06 185.67 1390.46 184.9 1390.9 184.15 1391.37 183.43 1391.87 182.72 1392.41 182.05 1392.97 181.39 1393.57 180.77 1394.19 180.17 1394.85 179.61 1395.52 179.07 1396.23 178.57 1396.95 178.1 1397.7 177.66 1398.47 177.26 1399.26 176.89 1400.06 176.57 1400.88 176.27 1401.72 176.02 1402.56 175.8 1403.42 175.63 1404.28 175.49 1405.16 175.39 1406.04 175.33 1406.92 175.31 1407.8 M 2925.31 1407.8 2925.33 1408.68 2925.39 1409.56 2925.49 1410.44 2925.63 1411.32 2925.8 1412.18 2926.02 1413.04 2926.27 1413.88 2926.57 1414.72 2926.89 1415.54 2927.26 1416.34 2927.66 1417.13 2928.1 1417.9 2928.57 1418.65 2929.07 1419.37 2929.61 1420.08 2930.17 1420.75 2930.77 1421.41 2931.39 1422.03 2932.05 1422.63 2932.72 1423.19 2933.43 1423.73 2934.15 1424.23 2934.9 1424.7 2935.67 1425.14 2936.46 1425.54 2937.26 1425.91 2938.08 1426.23 2938.92 1426.53 2939.76 1426.78 2940.62 1427 2941.48 1427.17 2942.36 1427.31 2943.24 1427.41 2944.12 1427.47 2945 1427.49 2945.88 1427.47 2946.76 1427.41 2947.64 1427.31 2948.52 1427.17 2949.38 1427 2950.24 1426.78 2951.08 1426.53 2951.92 1426.23 2952.74 1425.91 2953.54 1425.54 2954.33 1425.14 2955.1 1424.7 2955.85 1424.23 2956.57 1423.73 2957.28 1423.19 2957.95 1422.63 2958.61 1422.03 2959.23 1421.41 2959.83 1420.75 2960.39 1420.08 2960.93 1419.37 2961.43 1418.65 2961.9 1417.9 2962.34 1417.13 2962.74 1416.34 2963.11 1415.54 2963.43 1414.72 2963.73 1413.88 2963.98 1413.04 2964.2 1412.18 2964.37 1411.32 2964.51 1410.44 2964.61 1409.56 2964.67 1408.68 2964.69 1407.8 2964.67 1406.92 2964.61 1406.04 2964.51 1405.16 2964.37 1404.28 2964.2 1403.42 2963.98 1402.56 2963.73 1401.72 2963.43 1400.88 2963.11 1400.06 2962.74 1399.26 2962.34 1398.47 2961.9 1397.7 2961.43 1396.95 2960.93 1396.23 2960.39 1395.52 2959.83 1394.85 2959.23 1394.19 2958.61 1393.57 2957.95 1392.97 2957.28 1392.41 2956.57 1391.87 2955.85 1391.37 2955.1 1390.9 2954.33 1390.46 2953.54 1390.06 2952.74 1389.69 2951.92 1389.37 2951.08 1389.07 2950.24 1388.82 2949.38 1388.6 2948.52 1388.43 2947.64 1388.29 2946.76 1388.19 2945.88 1388.13 2945 1388.11 2944.12 1388.13 2943.24 1388.19 2942.36 1388.29 2941.48 1388.43 2940.62 1388.6 2939.76 1388.82 2938.92 1389.07 2938.08 1389.37 2937.26 1389.69 2936.46 1390.06 2935.67 1390.46 2934.9 1390.9 2934.15 1391.37 2933.43 1391.87 2932.72 1392.41 2932.05 1392.97 2931.39 1393.57 2930.77 1394.19 2930.17 1394.85 2929.61 1395.52 2929.07 1396.23 2928.57 1396.95 2928.1 1397.7 2927.66 1398.47 2927.26 1399.26 2926.89 1400.06 2926.57 1400.88 2926.27 1401.72 2926.02 1402.56 2925.8 1403.42 2925.63 1404.28 2925.49 1405.16 2925.39 1406.04 2925.33 1406.92 2925.31 1407.8 M 2925.31 187.8 2925.33 188.68 2925.39 189.56 2925.49 190.44 2925.63 191.32 2925.8 192.18 2926.02 193.04 2926.27 193.88 2926.57 194.72 2926.89 195.54 2927.26 196.34 2927.66 197.13 2928.1 197.9 2928.57 198.65 2929.07 199.37 2929.61 200.08 2930.17 200.75 2930.77 201.41 2931.39 202.03 2932.05 202.63 2932.72 203.19 2933.43 203.73 2934.15 204.23 2934.9 204.7 2935.67 205.14 2936.46 205.54 2937.26 205.91 2938.08 206.23 2938.92 206.53 2939.76 206.78 2940.62 207 2941.48 207.17 2942.36 207.31 2943.24 207.41 2944.12 207.47 2945 207.49 2945.88 207.47 2946.76 207.41 2947.64 207.31 2948.52 207.17 2949.38 207 2950.24 206.78 2951.08 206.53 2951.92 206.23 2952.74 205.91 2953.54 205.54 2954.33 205.14 2955.1 204.7 2955.85 204.23 2956.57 203.73 2957.28 203.19 2957.95 202.63 2958.61 202.03 2959.23 201.41 2959.83 200.75 2960.39 200.08 2960.93 199.37 2961.43 198.65 2961.9 197.9 2962.34 197.13 2962.74 196.34 2963.11 195.54 2963.43 194.72 2963.73 193.88 2963.98 193.04 2964.2 192.18 2964.37 191.32 2964.51 190.44 2964.61 189.56 2964.67 188.68 2964.69 187.8 2964.67 186.92 2964.61 186.04 2964.51 185.16 2964.37 184.28 2964.2 183.42 2963.98 182.56 2963.73 181.72 2963.43 180.88 2963.11 180.06 2962.74 179.26 2962.34 178.47 2961.9 177.7 2961.43 176.95 2960.93 176.23 2960.39 175.52 2959.83 174.85 2959.23 174.19 2958.61 173.57 2957.95 172.97 2957.28 172.41 2956.57 171.87 2955.85 171.37 2955.1 170.9 2954.33 170.46 2953.54 170.06 2952.74 169.69 2951.92 169.37 2951.08 169.07 2950.24 168.82 2949.38 168.6 2948.52 168.43 2947.64 168.29 2946.76 168.19 2945.88 168.13 2945 168.11 2944.12 168.13 2943.24 168.19 2942.36 168.29 2941.48 168.43 2940.62 168.6 2939.76 168.82 2938.92 169.07 2938.08 169.37 2937.26 169.69 2936.46 170.06 2935.67 170.46 2934.9 170.9 2934.15 171.37 2933.43 171.87 2932.72 172.41 2932.05 172.97 2931.39 173.57 2930.77 174.19 2930.17 174.85 2929.61 175.52 2929.07 176.23 2928.57 176.95 2928.1 177.7 2927.66 178.47 2927.26 179.26 2926.89 180.06 2926.57 180.88 2926.27 181.72 2926.02 182.56 2925.8 183.42 2925.63 184.28 2925.49 185.16 2925.39 186.04 2925.33 186.92 2925.31 187.8" fill="none" stroke-width="0"/><use xlink:href="#lz-_dK3VfK218Gmm-xnA_pad-12" x="2945" y="187.8"/><use xlink:href="#lz-_dK3VfK218Gmm-xnA_pad-12" x="2005" y="257.8"/><use xlink:href="#lz-_dK3VfK218Gmm-xnA_pad-12" x="1725" y="257.8"/><use xlink:href="#lz-_dK3VfK218Gmm-xnA_pad-12" x="2085" y="857.8"/><use xlink:href="#lz-_dK3VfK218Gmm-xnA_pad-12" x="2085" y="967.8"/><use xlink:href="#lz-_dK3VfK218Gmm-xnA_pad-12" x="1985" y="1087.8"/><use xlink:href="#lz-_dK3VfK218Gmm-xnA_pad-12" x="1985" y="1337.8"/><use xlink:href="#lz-_dK3VfK218Gmm-xnA_pad-12" x="1495" y="1217.8"/><use xlink:href="#lz-_dK3VfK218Gmm-xnA_pad-12" x="1105" y="1097.8"/><use xlink:href="#lz-_dK3VfK218Gmm-xnA_pad-12" x="958.68" y="1084.32"/><use xlink:href="#lz-_dK3VfK218Gmm-xnA_pad-12" x="455" y="882.8"/><use xlink:href="#lz-_dK3VfK218Gmm-xnA_pad-12" x="655" y="782.8"/><use xlink:href="#lz-_dK3VfK218Gmm-xnA_pad-12" x="455" y="707.8"/><use xlink:href="#lz-_dK3VfK218Gmm-xnA_pad-12" x="425" y="1087.8"/><use xlink:href="#lz-_dK3VfK218Gmm-xnA_pad-12" x="360" y="1087.8"/><use xlink:href="#lz-_dK3VfK218Gmm-xnA_pad-12" x="195" y="1407.8"/><use xlink:href="#lz-_dK3VfK218Gmm-xnA_pad-12" x="195" y="187.8"/><use xlink:href="#lz-_dK3VfK218Gmm-xnA_pad-12" x="2945" y="1407.8"/><use xlink:href="#lz-_dK3VfK218Gmm-xnA_pad-13" x="990" y="1188.8"/><use xlink:href="#lz-_dK3VfK218Gmm-xnA_pad-13" x="990" y="1156.8"/><use xlink:href="#lz-_dK3VfK218Gmm-xnA_pad-14" x="473.31" y="1002.48"/><use xlink:href="#lz-_dK3VfK218Gmm-xnA_pad-14" x="473.31" y="963.11"/><use xlink:href="#lz-_dK3VfK218Gmm-xnA_pad-14" x="428.03" y="982.8"/><use xlink:href="#lz-_dK3VfK218Gmm-xnA_pad-14" x="473.31" y="827.48"/><use xlink:href="#lz-_dK3VfK218Gmm-xnA_pad-14" x="473.31" y="788.11"/><use xlink:href="#lz-_dK3VfK218Gmm-xnA_pad-14" x="428.03" y="807.8"/><use xlink:href="#lz-_dK3VfK218Gmm-xnA_pad-15" x="710.31" y="776.11"/><use xlink:href="#lz-_dK3VfK218Gmm-xnA_pad-15" x="749.69" y="776.11"/><use xlink:href="#lz-_dK3VfK218Gmm-xnA_pad-15" x="730" y="730.83"/><use xlink:href="#lz-_dK3VfK218Gmm-xnA_pad-16" x="1271.73" y="641.46"/><use xlink:href="#lz-_dK3VfK218Gmm-xnA_pad-16" x="1291.42" y="641.46"/><use xlink:href="#lz-_dK3VfK218Gmm-xnA_pad-16" x="1311.1" y="641.46"/><use xlink:href="#lz-_dK3VfK218Gmm-xnA_pad-16" x="1330.79" y="641.46"/><use xlink:href="#lz-_dK3VfK218Gmm-xnA_pad-16" x="1350.47" y="641.46"/><use xlink:href="#lz-_dK3VfK218Gmm-xnA_pad-16" x="1370.16" y="641.46"/><use xlink:href="#lz-_dK3VfK218Gmm-xnA_pad-16" x="1389.84" y="641.46"/><use xlink:href="#lz-_dK3VfK218Gmm-xnA_pad-16" x="1409.53" y="641.46"/><use xlink:href="#lz-_dK3VfK218Gmm-xnA_pad-16" x="1429.21" y="641.46"/><use xlink:href="#lz-_dK3VfK218Gmm-xnA_pad-16" x="1448.9" y="641.46"/><use xlink:href="#lz-_dK3VfK218Gmm-xnA_pad-16" x="1468.58" y="641.46"/><use xlink:href="#lz-_dK3VfK218Gmm-xnA_pad-16" x="1488.27" y="641.46"/><use xlink:href="#lz-_dK3VfK218Gmm-xnA_pad-16" x="1488.27" y="974.14"/><use xlink:href="#lz-_dK3VfK218Gmm-xnA_pad-16" x="1468.58" y="974.14"/><use xlink:href="#lz-_dK3VfK218Gmm-xnA_pad-16" x="1448.9" y="974.14"/><use xlink:href="#lz-_dK3VfK218Gmm-xnA_pad-16" x="1429.21" y="974.14"/><use xlink:href="#lz-_dK3VfK218Gmm-xnA_pad-16" x="1409.53" y="974.14"/><use xlink:href="#lz-_dK3VfK218Gmm-xnA_pad-16" x="1389.84" y="974.14"/><use xlink:href="#lz-_dK3VfK218Gmm-xnA_pad-16" x="1370.16" y="974.14"/><use xlink:href="#lz-_dK3VfK218Gmm-xnA_pad-16" x="1350.47" y="974.14"/><use xlink:href="#lz-_dK3VfK218Gmm-xnA_pad-16" x="1330.79" y="974.14"/><use xlink:href="#lz-_dK3VfK218Gmm-xnA_pad-16" x="1311.1" y="974.14"/><use xlink:href="#lz-_dK3VfK218Gmm-xnA_pad-16" x="1291.42" y="974.14"/><use xlink:href="#lz-_dK3VfK218Gmm-xnA_pad-16" x="1271.73" y="974.14"/><use xlink:href="#lz-_dK3VfK218Gmm-xnA_pad-17" x="1213.66" y="916.07"/><use xlink:href="#lz-_dK3VfK218Gmm-xnA_pad-17" x="1213.66" y="896.38"/><use xlink:href="#lz-_dK3VfK218Gmm-xnA_pad-17" x="1213.66" y="876.7"/><use xlink:href="#lz-_dK3VfK218Gmm-xnA_pad-17" x="1213.66" y="857.01"/><use xlink:href="#lz-_dK3VfK218Gmm-xnA_pad-17" x="1213.66" y="837.33"/><use xlink:href="#lz-_dK3VfK218Gmm-xnA_pad-17" x="1213.66" y="817.64"/><use xlink:href="#lz-_dK3VfK218Gmm-xnA_pad-17" x="1213.66" y="797.96"/><use xlink:href="#lz-_dK3VfK218Gmm-xnA_pad-17" x="1213.66" y="778.27"/><use xlink:href="#lz-_dK3VfK218Gmm-xnA_pad-17" x="1213.66" y="758.59"/><use xlink:href="#lz-_dK3VfK218Gmm-xnA_pad-17" x="1213.66" y="738.9"/><use xlink:href="#lz-_dK3VfK218Gmm-xnA_pad-17" x="1213.66" y="719.22"/><use xlink:href="#lz-_dK3VfK218Gmm-xnA_pad-17" x="1213.66" y="699.53"/><use xlink:href="#lz-_dK3VfK218Gmm-xnA_pad-17" x="1546.34" y="699.53"/><use xlink:href="#lz-_dK3VfK218Gmm-xnA_pad-17" x="1546.34" y="719.22"/><use xlink:href="#lz-_dK3VfK218Gmm-xnA_pad-17" x="1546.34" y="738.9"/><use xlink:href="#lz-_dK3VfK218Gmm-xnA_pad-17" x="1546.34" y="758.59"/><use xlink:href="#lz-_dK3VfK218Gmm-xnA_pad-17" x="1546.34" y="778.27"/><use xlink:href="#lz-_dK3VfK218Gmm-xnA_pad-17" x="1546.34" y="797.96"/><use xlink:href="#lz-_dK3VfK218Gmm-xnA_pad-17" x="1546.34" y="817.64"/><use xlink:href="#lz-_dK3VfK218Gmm-xnA_pad-17" x="1546.34" y="837.33"/><use xlink:href="#lz-_dK3VfK218Gmm-xnA_pad-17" x="1546.34" y="857.01"/><use xlink:href="#lz-_dK3VfK218Gmm-xnA_pad-17" x="1546.34" y="876.7"/><use xlink:href="#lz-_dK3VfK218Gmm-xnA_pad-17" x="1546.34" y="896.38"/><use xlink:href="#lz-_dK3VfK218Gmm-xnA_pad-17" x="1546.34" y="916.07"/><use xlink:href="#lz-_dK3VfK218Gmm-xnA_pad-18" x="1605.79" y="507.8"/><use xlink:href="#lz-_dK3VfK218Gmm-xnA_pad-18" x="1704.21" y="507.8"/><use xlink:href="#lz-_dK3VfK218Gmm-xnA_pad-18" x="2369.41" y="1587.8"/><use xlink:href="#lz-_dK3VfK218Gmm-xnA_pad-18" x="2645" y="1587.8"/><use xlink:href="#lz-_dK3VfK218Gmm-xnA_pad-19" x="1730" y="1241.26"/><use xlink:href="#lz-_dK3VfK218Gmm-xnA_pad-19" x="1655" y="1241.26"/><use xlink:href="#lz-_dK3VfK218Gmm-xnA_pad-19" x="1655" y="1174.33"/><use xlink:href="#lz-_dK3VfK218Gmm-xnA_pad-19" x="1730" y="1174.33"/><use xlink:href="#lz-_dK3VfK218Gmm-xnA_pad-19" x="1580" y="1174.33"/><use xlink:href="#lz-_dK3VfK218Gmm-xnA_pad-19" x="1580" y="1241.26"/><use xlink:href="#lz-_dK3VfK218Gmm-xnA_pad-19" x="1405" y="1191.26"/><use xlink:href="#lz-_dK3VfK218Gmm-xnA_pad-19" x="1405" y="1124.33"/><use xlink:href="#lz-_dK3VfK218Gmm-xnA_pad-19" x="1330" y="1124.33"/><use xlink:href="#lz-_dK3VfK218Gmm-xnA_pad-19" x="1330" y="1191.26"/><use xlink:href="#lz-_dK3VfK218Gmm-xnA_pad-19" x="905" y="1211.26"/><use xlink:href="#lz-_dK3VfK218Gmm-xnA_pad-19" x="830" y="1216.26"/><use xlink:href="#lz-_dK3VfK218Gmm-xnA_pad-19" x="755" y="1216.26"/><use xlink:href="#lz-_dK3VfK218Gmm-xnA_pad-19" x="655" y="1216.26"/><use xlink:href="#lz-_dK3VfK218Gmm-xnA_pad-19" x="580" y="1216.26"/><use xlink:href="#lz-_dK3VfK218Gmm-xnA_pad-19" x="505" y="1216.26"/><use xlink:href="#lz-_dK3VfK218Gmm-xnA_pad-19" x="426.77" y="1216.31"/><use xlink:href="#lz-_dK3VfK218Gmm-xnA_pad-19" x="426.77" y="1149.38"/><use xlink:href="#lz-_dK3VfK218Gmm-xnA_pad-19" x="505" y="1149.33"/><use xlink:href="#lz-_dK3VfK218Gmm-xnA_pad-19" x="580" y="1149.33"/><use xlink:href="#lz-_dK3VfK218Gmm-xnA_pad-19" x="655" y="1149.33"/><use xlink:href="#lz-_dK3VfK218Gmm-xnA_pad-19" x="755" y="1149.33"/><use xlink:href="#lz-_dK3VfK218Gmm-xnA_pad-19" x="830" y="1149.33"/><use xlink:href="#lz-_dK3VfK218Gmm-xnA_pad-19" x="905" y="1144.33"/><use xlink:href="#lz-_dK3VfK218Gmm-xnA_pad-19" x="530" y="1016.26"/><use xlink:href="#lz-_dK3VfK218Gmm-xnA_pad-19" x="530" y="949.33"/><use xlink:href="#lz-_dK3VfK218Gmm-xnA_pad-19" x="530" y="841.26"/><use xlink:href="#lz-_dK3VfK218Gmm-xnA_pad-19" x="530" y="774.33"/><use xlink:href="#lz-_dK3VfK218Gmm-xnA_pad-19" x="355" y="774.33"/><use xlink:href="#lz-_dK3VfK218Gmm-xnA_pad-19" x="355" y="841.26"/><use xlink:href="#lz-_dK3VfK218Gmm-xnA_pad-19" x="355" y="949.33"/><use xlink:href="#lz-_dK3VfK218Gmm-xnA_pad-19" x="355" y="1016.26"/><use xlink:href="#lz-_dK3VfK218Gmm-xnA_pad-19" x="1055" y="816.26"/><use xlink:href="#lz-_dK3VfK218Gmm-xnA_pad-19" x="1055" y="749.33"/><use xlink:href="#lz-_dK3VfK218Gmm-xnA_pad-19" x="675" y="571.26"/><use xlink:href="#lz-_dK3VfK218Gmm-xnA_pad-19" x="675" y="504.33"/><use xlink:href="#lz-_dK3VfK218Gmm-xnA_pad-19" x="375" y="504.33"/><use xlink:href="#lz-_dK3VfK218Gmm-xnA_pad-19" x="375" y="571.26"/><use xlink:href="#lz-_dK3VfK218Gmm-xnA_pad-19" x="1630" y="416.26"/><use xlink:href="#lz-_dK3VfK218Gmm-xnA_pad-19" x="1705" y="416.26"/><use xlink:href="#lz-_dK3VfK218Gmm-xnA_pad-19" x="1705" y="349.33"/><use xlink:href="#lz-_dK3VfK218Gmm-xnA_pad-19" x="1630" y="349.33"/><use xlink:href="#lz-_dK3VfK218Gmm-xnA_pad-19" x="1735" y="774.33"/><use xlink:href="#lz-_dK3VfK218Gmm-xnA_pad-19" x="1735" y="841.26"/><use xlink:href="#lz-_dK3VfK218Gmm-xnA_pad-20" x="567.32" y="626.38"/><use xlink:href="#lz-_dK3VfK218Gmm-xnA_pad-20" x="482.68" y="626.38"/><use xlink:href="#lz-_dK3VfK218Gmm-xnA_pad-20" x="482.68" y="449.22"/><use xlink:href="#lz-_dK3VfK218Gmm-xnA_pad-20" x="567.32" y="449.22"/><use xlink:href="#lz-_dK3VfK218Gmm-xnA_pad-21" x="1648.5" y="1082.8"/><use xlink:href="#lz-_dK3VfK218Gmm-xnA_pad-21" x="1711.5" y="1082.8"/><use xlink:href="#lz-_dK3VfK218Gmm-xnA_pad-22" x="1826.54" y="1032.8"/><use xlink:href="#lz-_dK3VfK218Gmm-xnA_pad-22" x="1893.46" y="1032.8"/><use xlink:href="#lz-_dK3VfK218Gmm-xnA_pad-22" x="1713.46" y="1007.8"/><use xlink:href="#lz-_dK3VfK218Gmm-xnA_pad-22" x="1646.54" y="1007.8"/><use xlink:href="#lz-_dK3VfK218Gmm-xnA_pad-22" x="1826.54" y="682.8"/><use xlink:href="#lz-_dK3VfK218Gmm-xnA_pad-22" x="1893.46" y="682.8"/><use xlink:href="#lz-_dK3VfK218Gmm-xnA_pad-22" x="1318.46" y="482.8"/><use xlink:href="#lz-_dK3VfK218Gmm-xnA_pad-22" x="1251.54" y="482.8"/><use xlink:href="#lz-_dK3VfK218Gmm-xnA_pad-22" x="1251.54" y="407.8"/><use xlink:href="#lz-_dK3VfK218Gmm-xnA_pad-22" x="1318.46" y="407.8"/><use xlink:href="#lz-_dK3VfK218Gmm-xnA_pad-22" x="763.46" y="657.8"/><use xlink:href="#lz-_dK3VfK218Gmm-xnA_pad-22" x="696.54" y="657.8"/><use xlink:href="#lz-_dK3VfK218Gmm-xnA_pad-22" x="696.54" y="832.8"/><use xlink:href="#lz-_dK3VfK218Gmm-xnA_pad-22" x="763.46" y="832.8"/><use xlink:href="#lz-_dK3VfK218Gmm-xnA_pad-22" x="383.46" y="412.8"/><use xlink:href="#lz-_dK3VfK218Gmm-xnA_pad-22" x="316.54" y="412.8"/><use xlink:href="#lz-_dK3VfK218Gmm-xnA_pad-23" x="1812.76" y="779.06"/><use xlink:href="#lz-_dK3VfK218Gmm-xnA_pad-23" x="1907.24" y="779.06"/><use xlink:href="#lz-_dK3VfK218Gmm-xnA_pad-23" x="1907.24" y="936.54"/><use xlink:href="#lz-_dK3VfK218Gmm-xnA_pad-23" x="1812.76" y="936.54"/><use xlink:href="#lz-_dK3VfK218Gmm-xnA_pad-24" x="1051.34" y="982.8"/><use xlink:href="#lz-_dK3VfK218Gmm-xnA_pad-24" x="968.66" y="982.8"/><use xlink:href="#lz-_dK3VfK218Gmm-xnA_pad-25" x="1860" y="1367.8"/><use xlink:href="#lz-_dK3VfK218Gmm-xnA_pad-25" x="2121.1" y="215.25"/><use xlink:href="#lz-_dK3VfK218Gmm-xnA_pad-26" x="764.37" y="926.68"/><use xlink:href="#lz-_dK3VfK218Gmm-xnA_pad-26" x="685.63" y="926.68"/><use xlink:href="#lz-_dK3VfK218Gmm-xnA_pad-26" x="685.63" y="1048.92"/><use xlink:href="#lz-_dK3VfK218Gmm-xnA_pad-26" x="764.37" y="1048.92"/><use xlink:href="#lz-_dK3VfK218Gmm-xnA_pad-27" x="748.62" y="1046.85"/><use xlink:href="#lz-_dK3VfK218Gmm-xnA_pad-27" x="732.87" y="1046.85"/><use xlink:href="#lz-_dK3VfK218Gmm-xnA_pad-27" x="717.13" y="1046.85"/><use xlink:href="#lz-_dK3VfK218Gmm-xnA_pad-27" x="701.38" y="1046.85"/><use xlink:href="#lz-_dK3VfK218Gmm-xnA_pad-27" x="701.38" y="928.74"/><use xlink:href="#lz-_dK3VfK218Gmm-xnA_pad-27" x="717.13" y="928.74"/><use xlink:href="#lz-_dK3VfK218Gmm-xnA_pad-27" x="732.87" y="928.74"/><use xlink:href="#lz-_dK3VfK218Gmm-xnA_pad-27" x="748.62" y="928.74"/><use xlink:href="#lz-_dK3VfK218Gmm-xnA_pad-28" x="786.12" y="948.43"/><use xlink:href="#lz-_dK3VfK218Gmm-xnA_pad-28" x="663.88" y="948.43"/><use xlink:href="#lz-_dK3VfK218Gmm-xnA_pad-28" x="663.88" y="1027.17"/><use xlink:href="#lz-_dK3VfK218Gmm-xnA_pad-28" x="786.12" y="1027.17"/><use xlink:href="#lz-_dK3VfK218Gmm-xnA_pad-29" x="784.06" y="1011.42"/><use xlink:href="#lz-_dK3VfK218Gmm-xnA_pad-29" x="784.06" y="995.67"/><use xlink:href="#lz-_dK3VfK218Gmm-xnA_pad-29" x="784.06" y="979.92"/><use xlink:href="#lz-_dK3VfK218Gmm-xnA_pad-29" x="784.06" y="964.18"/><use xlink:href="#lz-_dK3VfK218Gmm-xnA_pad-29" x="665.94" y="964.18"/><use xlink:href="#lz-_dK3VfK218Gmm-xnA_pad-29" x="665.94" y="979.92"/><use xlink:href="#lz-_dK3VfK218Gmm-xnA_pad-29" x="665.94" y="995.67"/><use xlink:href="#lz-_dK3VfK218Gmm-xnA_pad-29" x="665.94" y="1011.42"/><path d="M 265 977.8 205 977.8 M 205 1077.8 265 1077.8 M 265 1177.8 205 1177.8 M 205 1277.8 265 1277.8 M 825 1307.8 825 1367.8 M 925 1367.8 925 1307.8 M 1095 1307.8 1095 1367.8 M 1195 1367.8 1195 1307.8 M 1295 1307.8 1295 1367.8 M 1395 1367.8 1395 1307.8 M 1495 1307.8 1495 1367.8 M 2065 1257.8 2125 1257.8 M 2125 1157.8 2065 1157.8 M 2065 757.8 2125 757.8 M 2125 657.8 2065 657.8 M 1915 287.8 1915 227.8 M 1815 227.8 1815 287.8 M 1525 287.8 1525 227.8 M 1425 227.8 1425 287.8 M 1325 287.8 1325 227.8 M 1225 227.8 1225 287.8 M 1105 407.8 1105 467.8 M 1005 467.8 1005 407.8 M 905 407.8 905 467.8 M 805 467.8 805 407.8 M 715 287.8 715 227.8 M 615 227.8 615 287.8 M 445 287.8 445 227.8 M 345 227.8 345 287.8 M 265 507.8 205 507.8 M 205 607.8 265 607.8 M 265 707.8 205 707.8 M 205 877.8 265 877.8 M 905 287.8 905 227.8 M 1005 227.8 1005 287.8" fill="none" stroke-width="64"/><use xlink:href="#lz-_dK3VfK218Gmm-xnA_pad-31" x="2095" y="517.8"/><use xlink:href="#lz-_dK3VfK218Gmm-xnA_pad-32" x="2235" y="527.8"/><use xlink:href="#lz-_dK3VfK218Gmm-xnA_pad-32" x="2235" y="477.8"/><use xlink:href="#lz-_dK3VfK218Gmm-xnA_pad-32" x="2235" y="427.8"/><use xlink:href="#lz-_dK3VfK218Gmm-xnA_pad-32" x="2235" y="377.8"/><use xlink:href="#lz-_dK3VfK218Gmm-xnA_pad-32" x="2235" y="327.8"/><use xlink:href="#lz-_dK3VfK218Gmm-xnA_pad-32" x="2235" y="277.8"/><use xlink:href="#lz-_dK3VfK218Gmm-xnA_pad-32" x="2235" y="577.8"/><use xlink:href="#lz-_dK3VfK218Gmm-xnA_pad-32" x="2235" y="627.8"/><use xlink:href="#lz-_dK3VfK218Gmm-xnA_pad-32" x="2235" y="677.8"/><use xlink:href="#lz-_dK3VfK218Gmm-xnA_pad-32" x="2235" y="727.8"/><use xlink:href="#lz-_dK3VfK218Gmm-xnA_pad-32" x="2235" y="777.8"/><use xlink:href="#lz-_dK3VfK218Gmm-xnA_pad-32" x="2235" y="827.8"/><use xlink:href="#lz-_dK3VfK218Gmm-xnA_pad-32" x="2235" y="877.8"/><use xlink:href="#lz-_dK3VfK218Gmm-xnA_pad-32" x="2235" y="927.8"/><use xlink:href="#lz-_dK3VfK218Gmm-xnA_pad-32" x="2235" y="977.8"/><use xlink:href="#lz-_dK3VfK218Gmm-xnA_pad-32" x="2235" y="1027.8"/><use xlink:href="#lz-_dK3VfK218Gmm-xnA_pad-32" x="2235" y="1077.8"/><use xlink:href="#lz-_dK3VfK218Gmm-xnA_pad-32" x="2235" y="1127.8"/><use xlink:href="#lz-_dK3VfK218Gmm-xnA_pad-32" x="2235" y="1177.8"/><use xlink:href="#lz-_dK3VfK218Gmm-xnA_pad-32" x="2235" y="1227.8"/><use xlink:href="#lz-_dK3VfK218Gmm-xnA_pad-32" x="2935" y="1227.8"/><use xlink:href="#lz-_dK3VfK218Gmm-xnA_pad-32" x="2935" y="1177.8"/><use xlink:href="#lz-_dK3VfK218Gmm-xnA_pad-32" x="2935" y="1127.8"/><use xlink:href="#lz-_dK3VfK218Gmm-xnA_pad-32" x="2935" y="1077.8"/><use xlink:href="#lz-_dK3VfK218Gmm-xnA_pad-32" x="2935" y="1027.8"/><use xlink:href="#lz-_dK3VfK218Gmm-xnA_pad-32" x="2935" y="977.8"/><use xlink:href="#lz-_dK3VfK218Gmm-xnA_pad-32" x="2935" y="927.8"/><use xlink:href="#lz-_dK3VfK218Gmm-xnA_pad-32" x="2935" y="877.8"/><use xlink:href="#lz-_dK3VfK218Gmm-xnA_pad-32" x="2935" y="827.8"/><use xlink:href="#lz-_dK3VfK218Gmm-xnA_pad-32" x="2935" y="777.8"/><use xlink:href="#lz-_dK3VfK218Gmm-xnA_pad-32" x="2935" y="727.8"/><use xlink:href="#lz-_dK3VfK218Gmm-xnA_pad-32" x="2935" y="677.8"/><use xlink:href="#lz-_dK3VfK218Gmm-xnA_pad-32" x="2935" y="627.8"/><use xlink:href="#lz-_dK3VfK218Gmm-xnA_pad-32" x="2935" y="577.8"/><use xlink:href="#lz-_dK3VfK218Gmm-xnA_pad-32" x="2935" y="527.8"/><use xlink:href="#lz-_dK3VfK218Gmm-xnA_pad-32" x="2935" y="477.8"/><use xlink:href="#lz-_dK3VfK218Gmm-xnA_pad-32" x="2935" y="427.8"/><use xlink:href="#lz-_dK3VfK218Gmm-xnA_pad-32" x="2935" y="377.8"/><use xlink:href="#lz-_dK3VfK218Gmm-xnA_pad-32" x="2935" y="327.8"/><use xlink:href="#lz-_dK3VfK218Gmm-xnA_pad-32" x="2935" y="277.8"/><use xlink:href="#lz-_dK3VfK218Gmm-xnA_pad-33" x="2735" y="1277.8"/><use xlink:href="#lz-_dK3VfK218Gmm-xnA_pad-33" x="2685" y="1277.8"/><use xlink:href="#lz-_dK3VfK218Gmm-xnA_pad-33" x="2635" y="1277.8"/><use xlink:href="#lz-_dK3VfK218Gmm-xnA_pad-33" x="2585" y="1277.8"/><use xlink:href="#lz-_dK3VfK218Gmm-xnA_pad-33" x="2535" y="1277.8"/><use xlink:href="#lz-_dK3VfK218Gmm-xnA_pad-33" x="2485" y="1277.8"/><use xlink:href="#lz-_dK3VfK218Gmm-xnA_pad-33" x="2435" y="1277.8"/><use xlink:href="#lz-_dK3VfK218Gmm-xnA_pad-34" x="2640.55" y="1347.8"/><use xlink:href="#lz-_dK3VfK218Gmm-xnA_pad-34" x="2709.45" y="1347.8"/><use xlink:href="#lz-_dK3VfK218Gmm-xnA_pad-34" x="2709.45" y="1527.8"/><use xlink:href="#lz-_dK3VfK218Gmm-xnA_pad-34" x="2640.55" y="1527.8"/><use xlink:href="#lz-_dK3VfK218Gmm-xnA_pad-35" x="2645" y="1459.29"/><use xlink:href="#lz-_dK3VfK218Gmm-xnA_pad-35" x="2645" y="1396.3"/></g></svg>