<svg version="1.1" xmlns="http://www.w3.org/2000/svg" xmlns:xlink="http://www.w3.org/1999/xlink" stroke-linecap="round" stroke-linejoin="round" stroke-width="0" fill-rule="evenodd" width="27.726575in" height="12.239370000000001in" viewBox="1743.11 1858.315 27726.575 12239.37" id="hGaLgS_aHSLkukK7q334"><defs><circle cx="0" cy="0" r="6.89" id="hGaLgS_aHSLkukK7q334_pad-1"/><circle cx="0" cy="0" r="10.825" id="hGaLgS_aHSLkukK7q334_pad-2"/><circle cx="0" cy="0" r="19.685" id="hGaLgS_aHSLkukK7q334_pad-3"/><circle cx="0" cy="0" r="20" id="hGaLgS_aHSLkukK7q334_pad-4"/></defs><g transform="translate(0,15956) scale(1,-1)" fill="currentColor" stroke="currentColor"><use xlink:href="#hGaLgS_aHSLkukK7q334_pad-1" x="3150" y="3678"/><use xlink:href="#hGaLgS_aHSLkukK7q334_pad-1" x="2450" y="4278"/><use xlink:href="#hGaLgS_aHSLkukK7q334_pad-1" x="1750" y="4478"/><use xlink:href="#hGaLgS_aHSLkukK7q334_pad-1" x="3650" y="6778"/><use xlink:href="#hGaLgS_aHSLkukK7q334_pad-1" x="3150" y="7878"/><use xlink:href="#hGaLgS_aHSLkukK7q334_pad-1" x="3668.9" y="8959.1"/><use xlink:href="#hGaLgS_aHSLkukK7q334_pad-1" x="4050" y="9178"/><use xlink:href="#hGaLgS_aHSLkukK7q334_pad-1" x="4850" y="9216.9"/><use xlink:href="#hGaLgS_aHSLkukK7q334_pad-1" x="5750" y="9678"/><use xlink:href="#hGaLgS_aHSLkukK7q334_pad-1" x="5050" y="10878"/><use xlink:href="#hGaLgS_aHSLkukK7q334_pad-1" x="3750" y="11578"/><use xlink:href="#hGaLgS_aHSLkukK7q334_pad-1" x="3350" y="11778"/><use xlink:href="#hGaLgS_aHSLkukK7q334_pad-1" x="4850" y="13478"/><use xlink:href="#hGaLgS_aHSLkukK7q334_pad-1" x="5650" y="13578"/><use xlink:href="#hGaLgS_aHSLkukK7q334_pad-1" x="5961.2" y="13089.2"/><use xlink:href="#hGaLgS_aHSLkukK7q334_pad-1" x="7050" y="12678"/><use xlink:href="#hGaLgS_aHSLkukK7q334_pad-1" x="7050" y="11078"/><use xlink:href="#hGaLgS_aHSLkukK7q334_pad-1" x="8550" y="10278"/><use xlink:href="#hGaLgS_aHSLkukK7q334_pad-1" x="8350" y="9478"/><use xlink:href="#hGaLgS_aHSLkukK7q334_pad-1" x="8850" y="9078"/><use xlink:href="#hGaLgS_aHSLkukK7q334_pad-1" x="9368.9" y="9296.9"/><use xlink:href="#hGaLgS_aHSLkukK7q334_pad-1" x="11111.1" y="9778"/><use xlink:href="#hGaLgS_aHSLkukK7q334_pad-1" x="11050" y="10378"/><use xlink:href="#hGaLgS_aHSLkukK7q334_pad-1" x="12050" y="9878"/><use xlink:href="#hGaLgS_aHSLkukK7q334_pad-1" x="12950" y="10678"/><use xlink:href="#hGaLgS_aHSLkukK7q334_pad-1" x="13755.8" y="10534.3"/><use xlink:href="#hGaLgS_aHSLkukK7q334_pad-1" x="14550" y="10778"/><use xlink:href="#hGaLgS_aHSLkukK7q334_pad-1" x="14750" y="10478"/><use xlink:href="#hGaLgS_aHSLkukK7q334_pad-1" x="15111.1" y="10378"/><use xlink:href="#hGaLgS_aHSLkukK7q334_pad-1" x="15350" y="9778"/><use xlink:href="#hGaLgS_aHSLkukK7q334_pad-1" x="16050" y="9378"/><use xlink:href="#hGaLgS_aHSLkukK7q334_pad-1" x="14650" y="9005.9"/><use xlink:href="#hGaLgS_aHSLkukK7q334_pad-1" x="14650" y="8528.1"/><use xlink:href="#hGaLgS_aHSLkukK7q334_pad-1" x="14350" y="8378"/><use xlink:href="#hGaLgS_aHSLkukK7q334_pad-1" x="13250" y="8378"/><use xlink:href="#hGaLgS_aHSLkukK7q334_pad-1" x="13250" y="8778"/><use xlink:href="#hGaLgS_aHSLkukK7q334_pad-1" x="13450" y="7578"/><use xlink:href="#hGaLgS_aHSLkukK7q334_pad-1" x="12950" y="7378"/><use xlink:href="#hGaLgS_aHSLkukK7q334_pad-1" x="14050" y="6978"/><use xlink:href="#hGaLgS_aHSLkukK7q334_pad-1" x="16350" y="7578"/><use xlink:href="#hGaLgS_aHSLkukK7q334_pad-1" x="16631.1" y="7359.1"/><use xlink:href="#hGaLgS_aHSLkukK7q334_pad-1" x="16950" y="6978"/><use xlink:href="#hGaLgS_aHSLkukK7q334_pad-1" x="16650" y="6478"/><use xlink:href="#hGaLgS_aHSLkukK7q334_pad-1" x="13950" y="5478"/><use xlink:href="#hGaLgS_aHSLkukK7q334_pad-1" x="11550" y="5878"/><use xlink:href="#hGaLgS_aHSLkukK7q334_pad-1" x="11550" y="6478"/><use xlink:href="#hGaLgS_aHSLkukK7q334_pad-1" x="10050" y="7478"/><use xlink:href="#hGaLgS_aHSLkukK7q334_pad-1" x="9450" y="7578"/><use xlink:href="#hGaLgS_aHSLkukK7q334_pad-1" x="9450" y="7078"/><use xlink:href="#hGaLgS_aHSLkukK7q334_pad-1" x="8150" y="7278"/><use xlink:href="#hGaLgS_aHSLkukK7q334_pad-1" x="8050" y="7978"/><use xlink:href="#hGaLgS_aHSLkukK7q334_pad-1" x="5850" y="7978"/><use xlink:href="#hGaLgS_aHSLkukK7q334_pad-1" x="8150" y="6478"/><use xlink:href="#hGaLgS_aHSLkukK7q334_pad-1" x="9150" y="5878"/><use xlink:href="#hGaLgS_aHSLkukK7q334_pad-1" x="7350" y="5478"/><use xlink:href="#hGaLgS_aHSLkukK7q334_pad-1" x="7150" y="4178"/><use xlink:href="#hGaLgS_aHSLkukK7q334_pad-1" x="8150" y="1978"/><use xlink:href="#hGaLgS_aHSLkukK7q334_pad-1" x="11450" y="2278"/><use xlink:href="#hGaLgS_aHSLkukK7q334_pad-1" x="12668.9" y="3596.9"/><use xlink:href="#hGaLgS_aHSLkukK7q334_pad-1" x="19750" y="5778"/><use xlink:href="#hGaLgS_aHSLkukK7q334_pad-1" x="21150" y="8278"/><use xlink:href="#hGaLgS_aHSLkukK7q334_pad-1" x="20350" y="8878"/><use xlink:href="#hGaLgS_aHSLkukK7q334_pad-1" x="20250" y="9378"/><use xlink:href="#hGaLgS_aHSLkukK7q334_pad-1" x="21650" y="9378"/><use xlink:href="#hGaLgS_aHSLkukK7q334_pad-1" x="22950" y="9178"/><use xlink:href="#hGaLgS_aHSLkukK7q334_pad-1" x="22950" y="9778"/><use xlink:href="#hGaLgS_aHSLkukK7q334_pad-1" x="24150" y="10378"/><use xlink:href="#hGaLgS_aHSLkukK7q334_pad-1" x="26550" y="10978"/><use xlink:href="#hGaLgS_aHSLkukK7q334_pad-1" x="28750" y="8278"/><use xlink:href="#hGaLgS_aHSLkukK7q334_pad-1" x="26650" y="7178"/><use xlink:href="#hGaLgS_aHSLkukK7q334_pad-1" x="27650" y="6278"/><use xlink:href="#hGaLgS_aHSLkukK7q334_pad-1" x="28150" y="5278"/><use xlink:href="#hGaLgS_aHSLkukK7q334_pad-1" x="19750" y="11143.3"/><use xlink:href="#hGaLgS_aHSLkukK7q334_pad-1" x="17750" y="11078"/><use xlink:href="#hGaLgS_aHSLkukK7q334_pad-1" x="17750" y="12978"/><use xlink:href="#hGaLgS_aHSLkukK7q334_pad-1" x="19550" y="12978"/><use xlink:href="#hGaLgS_aHSLkukK7q334_pad-1" x="10750" y="11178"/><use xlink:href="#hGaLgS_aHSLkukK7q334_pad-1" x="13350" y="12478"/><use xlink:href="#hGaLgS_aHSLkukK7q334_pad-1" x="11350" y="8378"/><use xlink:href="#hGaLgS_aHSLkukK7q334_pad-2" x="23150" y="6378"/><use xlink:href="#hGaLgS_aHSLkukK7q334_pad-2" x="23550" y="7478"/><use xlink:href="#hGaLgS_aHSLkukK7q334_pad-2" x="26350" y="8178"/><use xlink:href="#hGaLgS_aHSLkukK7q334_pad-3" x="1950" y="1878"/><use xlink:href="#hGaLgS_aHSLkukK7q334_pad-3" x="1950" y="14078"/><use xlink:href="#hGaLgS_aHSLkukK7q334_pad-3" x="29450" y="14078"/><use xlink:href="#hGaLgS_aHSLkukK7q334_pad-3" x="29450" y="1878"/><use xlink:href="#hGaLgS_aHSLkukK7q334_pad-4" x="3450" y="2578"/><use xlink:href="#hGaLgS_aHSLkukK7q334_pad-4" x="4450" y="2578"/><use xlink:href="#hGaLgS_aHSLkukK7q334_pad-4" x="6150" y="2578"/><use xlink:href="#hGaLgS_aHSLkukK7q334_pad-4" x="7150" y="2578"/><use xlink:href="#hGaLgS_aHSLkukK7q334_pad-4" x="9050" y="2578"/><use xlink:href="#hGaLgS_aHSLkukK7q334_pad-4" x="10050" y="2578"/><use xlink:href="#hGaLgS_aHSLkukK7q334_pad-4" x="12250" y="2578"/><use xlink:href="#hGaLgS_aHSLkukK7q334_pad-4" x="13250" y="2578"/><use xlink:href="#hGaLgS_aHSLkukK7q334_pad-4" x="14250" y="2578"/><use xlink:href="#hGaLgS_aHSLkukK7q334_pad-4" x="15250" y="2578"/><use xlink:href="#hGaLgS_aHSLkukK7q334_pad-4" x="18150" y="2578"/><use xlink:href="#hGaLgS_aHSLkukK7q334_pad-4" x="19150" y="2578"/><use xlink:href="#hGaLgS_aHSLkukK7q334_pad-4" x="20950" y="5178"/><use xlink:href="#hGaLgS_aHSLkukK7q334_pad-4" x="20950" y="6578"/><use xlink:href="#hGaLgS_aHSLkukK7q334_pad-4" x="20950" y="7578"/><use xlink:href="#hGaLgS_aHSLkukK7q334_pad-4" x="20950" y="11578"/><use xlink:href="#hGaLgS_aHSLkukK7q334_pad-4" x="20950" y="12578"/><use xlink:href="#hGaLgS_aHSLkukK7q334_pad-4" x="2350" y="12778"/><use xlink:href="#hGaLgS_aHSLkukK7q334_pad-4" x="2350" y="11778"/><use xlink:href="#hGaLgS_aHSLkukK7q334_pad-4" x="2350" y="10778"/><use xlink:href="#hGaLgS_aHSLkukK7q334_pad-4" x="2350" y="9778"/><use xlink:href="#hGaLgS_aHSLkukK7q334_pad-4" x="2350" y="8778"/><use xlink:href="#hGaLgS_aHSLkukK7q334_pad-4" x="2350" y="7078"/><use xlink:href="#hGaLgS_aHSLkukK7q334_pad-4" x="2350" y="6078"/><use xlink:href="#hGaLgS_aHSLkukK7q334_pad-4" x="2350" y="5078"/><use xlink:href="#hGaLgS_aHSLkukK7q334_pad-4" x="8050" y="4378"/><use xlink:href="#hGaLgS_aHSLkukK7q334_pad-4" x="9050" y="4378"/><use xlink:href="#hGaLgS_aHSLkukK7q334_pad-4" x="10050" y="4378"/><use xlink:href="#hGaLgS_aHSLkukK7q334_pad-4" x="11050" y="4378"/><use xlink:href="#hGaLgS_aHSLkukK7q334_pad-4" x="10950" y="13378"/><use xlink:href="#hGaLgS_aHSLkukK7q334_pad-4" x="11950" y="13378"/><use xlink:href="#hGaLgS_aHSLkukK7q334_pad-4" x="12950" y="13378"/><use xlink:href="#hGaLgS_aHSLkukK7q334_pad-4" x="13950" y="13378"/><use xlink:href="#hGaLgS_aHSLkukK7q334_pad-4" x="14950" y="13378"/><use xlink:href="#hGaLgS_aHSLkukK7q334_pad-4" x="9250" y="13378"/><use xlink:href="#hGaLgS_aHSLkukK7q334_pad-4" x="8250" y="13378"/></g></svg>