<svg version="1.1" xmlns="http://www.w3.org/2000/svg" xmlns:xlink="http://www.w3.org/1999/xlink" stroke-linecap="round" stroke-linejoin="round" stroke-width="0" fill-rule="evenodd" width="57.15mm" height="35.56mm" viewBox="119380 -119380 57150 35560" id="NmxNpkPSYIL_p0zGxqhd"><g transform="translate(0,-203200) scale(1,-1)" fill="currentColor" stroke="currentColor"><path d="M 122920 -95265.556 A 1000 1000 0 0 1 120920 -95265.556 1000 1000 0 0 1 122920 -95265.556 M 120420 -95265.556 123420 -95265.556 M 121920 -93765.556 121920 -96765.556 M 174990 -95265.556 A 1000 1000 0 0 1 172990 -95265.556 1000 1000 0 0 1 174990 -95265.556 M 172490 -95265.556 175490 -95265.556 M 173990 -93765.556 173990 -96765.556 M 122920 -116855.556 A 1000 1000 0 0 1 120920 -116855.556 1000 1000 0 0 1 122920 -116855.556 M 120420 -116855.556 123420 -116855.556 M 121920 -115355.556 121920 -118355.556 M 174990 -116855.556 A 1000 1000 0 0 1 172990 -116855.556 1000 1000 0 0 1 174990 -116855.556 M 172490 -116855.556 175490 -116855.556 M 173990 -115355.556 173990 -118355.556 M 119380 -119380 119380 -83820 176530 -83820 176530 -119380 119380 -119380" fill="none" stroke-width="150"/></g></svg>