<svg version="1.1" xmlns="http://www.w3.org/2000/svg" xmlns:xlink="http://www.w3.org/1999/xlink" stroke-linecap="round" stroke-linejoin="round" stroke-width="0" fill-rule="evenodd" width="54.85008mm" height="33.490034mm" viewBox="120424.7 -117890 54850.08 33490.034" id="Mga1p38LWop3cobb88m-"><g transform="translate(0,-202289.96600000001) scale(1,-1)" fill="currentColor" stroke="currentColor"><path d="M 122086.803 -108304.514 122386.803 -108304.514 M 122456.446 -108775.942 122027.874 -108775.942 122140.374 -107875.942 122568.946 -107875.942 M 122917.16 -108175.942 122842.16 -108775.942 M 122906.446 -108261.657 122954.66 -108218.8 123045.732 -108175.942 123174.303 -108175.942 123254.66 -108218.8 123286.803 -108304.514 123227.874 -108775.942 M 124004.66 -108733.085 123913.589 -108775.942 123742.16 -108775.942 123661.803 -108733.085 123629.66 -108647.371 123672.517 -108304.514 123726.089 -108218.8 123817.16 -108175.942 123988.589 -108175.942 124068.946 -108218.8 124101.089 -108304.514 124090.374 -108390.228 123651.089 -108475.942 M 124427.874 -108775.942 124502.874 -108175.942 M 124481.446 -108347.371 124535.017 -108261.657 124583.232 -108218.8 124674.303 -108175.942 124760.017 -108175.942 M 125445.732 -108175.942 125354.66 -108904.514 125301.089 -108990.228 125252.874 -109033.085 125161.803 -109075.942 125033.232 -109075.942 124952.874 -109033.085 M 125376.089 -108733.085 125285.017 -108775.942 125113.589 -108775.942 125033.232 -108733.085 124995.732 -108690.228 124963.589 -108604.514 124995.732 -108347.371 125049.303 -108261.657 125097.517 -108218.8 125188.589 -108175.942 125360.017 -108175.942 125440.374 -108218.8 M 125788.589 -108175.942 125927.874 -108775.942 M 126217.16 -108175.942 125927.874 -108775.942 125815.374 -108990.228 125767.16 -109033.085 125676.089 -109075.942 M 127170.732 -108775.942 127283.232 -107875.942 M 127229.66 -108304.514 127743.946 -108304.514 M 127685.017 -108775.942 127797.517 -107875.942 M 128499.303 -108775.942 128558.232 -108304.514 128526.089 -108218.8 128445.732 -108175.942 128274.303 -108175.942 128183.232 -108218.8 M 128504.66 -108733.085 128413.589 -108775.942 128199.303 -108775.942 128118.946 -108733.085 128086.803 -108647.371 128097.517 -108561.657 128151.089 -108475.942 128242.16 -108433.085 128456.446 -108433.085 128547.517 -108390.228 M 128927.874 -108775.942 129002.874 -108175.942 M 128981.446 -108347.371 129035.017 -108261.657 129083.232 -108218.8 129174.303 -108175.942 129260.017 -108175.942 M 129474.303 -108175.942 129613.589 -108775.942 129902.874 -108175.942 M 130518.946 -108733.085 130427.875 -108775.942 130256.446 -108775.942 130176.089 -108733.085 130143.946 -108647.371 130186.803 -108304.514 130240.375 -108218.8 130331.446 -108175.942 130502.875 -108175.942 130583.232 -108218.8 130615.374 -108304.514 130604.66 -108390.228 130165.374 -108475.942 M 130904.66 -108733.085 130985.017 -108775.942 131156.446 -108775.942 131247.517 -108733.085 131301.089 -108647.371 131306.446 -108604.514 131274.303 -108518.8 131193.946 -108475.942 131065.375 -108475.942 130985.017 -108433.085 130952.874 -108347.371 130958.232 -108304.514 131011.803 -108218.8 131102.875 -108175.942 131231.446 -108175.942 131311.803 -108218.8 M 131617.16 -108175.942 131960.017 -108175.942 M 131783.232 -107875.942 131686.803 -108647.371 131718.946 -108733.085 131799.303 -108775.942 131885.017 -108775.942 M 132185.017 -108775.942 132260.017 -108175.942 M 132297.517 -107875.942 132249.303 -107918.8 132286.803 -107961.657 132335.017 -107918.8 132297.517 -107875.942 132286.803 -107961.657 M 132688.589 -108175.942 132613.589 -108775.942 M 132677.875 -108261.657 132726.089 -108218.8 132817.16 -108175.942 132945.732 -108175.942 133026.089 -108218.8 133058.232 -108304.514 132999.303 -108775.942 M 133888.589 -108175.942 133797.517 -108904.514 133743.946 -108990.228 133695.732 -109033.085 133604.66 -109075.942 133476.089 -109075.942 133395.732 -109033.085 M 133818.946 -108733.085 133727.875 -108775.942 133556.446 -108775.942 133476.089 -108733.085 133438.589 -108690.228 133406.446 -108604.514 133438.589 -108347.371 133492.16 -108261.657 133540.375 -108218.8 133631.446 -108175.942 133802.875 -108175.942 133883.232 -108218.8 M 122826.089 -109425.942 123340.375 -109425.942 M 122970.732 -110325.942 123083.232 -109425.942 M 123876.089 -110283.085 123785.017 -110325.942 123613.589 -110325.942 123533.232 -110283.085 123501.089 -110197.371 123543.946 -109854.514 123597.517 -109768.8 123688.589 -109725.942 123860.017 -109725.942 123940.375 -109768.8 123972.517 -109854.514 123961.803 -109940.228 123522.517 -110025.942 M 124685.017 -110325.942 124743.946 -109854.514 124711.803 -109768.8 124631.446 -109725.942 124460.017 -109725.942 124368.946 -109768.8 M 124690.375 -110283.085 124599.303 -110325.942 124385.017 -110325.942 124304.66 -110283.085 124272.517 -110197.371 124283.232 -110111.657 124336.803 -110025.942 124427.875 -109983.085 124642.16 -109983.085 124733.232 -109940.228 M 125113.589 -110325.942 125188.589 -109725.942 M 125177.875 -109811.657 125226.089 -109768.8 125317.16 -109725.942 125445.732 -109725.942 125526.089 -109768.8 125558.232 -109854.514 125499.303 -110325.942 M 125558.232 -109854.514 125611.803 -109768.8 125702.875 -109725.942 125831.446 -109725.942 125911.803 -109768.8 125943.946 -109854.514 125885.017 -110325.942 M 126983.232 -109425.942 127497.517 -109425.942 M 127127.875 -110325.942 127240.375 -109425.942 M 128145.732 -109725.942 128070.732 -110325.942 M 127760.017 -109725.942 127701.089 -110197.371 127733.232 -110283.085 127813.589 -110325.942 127942.16 -110325.942 128033.232 -110283.085 128081.446 -110240.228 M 128499.303 -110325.942 128574.303 -109725.942 M 128552.875 -109897.371 128606.446 -109811.657 128654.66 -109768.8 128745.732 -109725.942 128831.446 -109725.942 M 129131.446 -109725.942 129056.446 -110325.942 M 129120.732 -109811.657 129168.946 -109768.8 129260.017 -109725.942 129388.589 -109725.942 129468.946 -109768.8 129501.089 -109854.514 129442.16 -110325.942 M 129854.66 -109425.942 130368.946 -109425.942 M 129999.303 -110325.942 130111.803 -109425.942 M 130942.16 -110325.942 131001.089 -109854.514 130968.946 -109768.8 130888.589 -109725.942 130717.16 -109725.942 130626.089 -109768.8 M 130947.517 -110283.085 130856.446 -110325.942 130642.16 -110325.942 130561.803 -110283.085 130529.66 -110197.371 130540.375 -110111.657 130593.946 -110025.942 130685.017 -109983.085 130899.303 -109983.085 130990.375 -109940.228 M 131370.732 -110325.942 131483.232 -109425.942 M 131440.375 -109768.8 131531.446 -109725.942 131702.875 -109725.942 131783.232 -109768.8 131820.732 -109811.657 131852.875 -109897.371 131820.732 -110154.514 131767.16 -110240.228 131718.946 -110283.085 131627.875 -110325.942 131456.446 -110325.942 131376.089 -110283.085 M 132313.589 -110325.942 132233.232 -110283.085 132201.089 -110197.371 132297.517 -109425.942 M 133004.66 -110283.085 132913.589 -110325.942 132742.16 -110325.942 132661.803 -110283.085 132629.66 -110197.371 132672.517 -109854.514 132726.089 -109768.8 132817.16 -109725.942 132988.589 -109725.942 133068.946 -109768.8 133101.089 -109854.514 133090.375 -109940.228 132651.089 -110025.942" fill="none" stroke-width="200"/><path d="M 170624.533 -96582.7 171157.866 -96582.7 M 170891.2 -96849.366 170891.2 -96316.033 M 166816.885 -100306.676 166840.695 -100235.247 166864.504 -100211.438 166912.123 -100187.628 166983.552 -100187.628 167031.171 -100211.438 167054.98 -100235.247 167078.79 -100282.866 167078.79 -100473.342 166578.79 -100473.342 166578.79 -100306.676 166602.6 -100259.057 166626.409 -100235.247 166674.028 -100211.438 166721.647 -100211.438 166769.266 -100235.247 166793.076 -100259.057 166816.885 -100306.676 166816.885 -100473.342 M 166935.933 -99997.152 166935.933 -99759.057 M 167078.79 -100044.771 166578.79 -99878.104 167078.79 -99711.438 M 166578.79 -99616.2 166578.79 -99330.485 M 167078.79 -99473.342 166578.79 -99473.342 M 167126.409 -99282.866 167126.409 -98901.914 M 166578.79 -98687.628 166578.79 -98592.39 166602.6 -98544.771 166650.219 -98497.152 166745.457 -98473.342 166912.123 -98473.342 167007.361 -98497.152 167054.98 -98544.771 167078.79 -98592.39 167078.79 -98687.628 167054.98 -98735.247 167007.361 -98782.866 166912.123 -98806.676 166745.457 -98806.676 166650.219 -98782.866 166602.6 -98735.247 166578.79 -98687.628 M 166578.79 -98259.057 166983.552 -98259.057 167031.171 -98235.247 167054.98 -98211.438 167078.79 -98163.819 167078.79 -98068.58 167054.98 -98020.961 167031.171 -97997.152 166983.552 -97973.342 166578.79 -97973.342 M 166578.79 -97806.676 166578.79 -97520.961 M 167078.79 -97663.819 166578.79 -97663.819 M 167126.409 -97473.342 167126.409 -97092.39 M 167078.79 -96973.342 166745.457 -96973.342 M 166793.076 -96973.342 166769.266 -96949.533 166745.457 -96901.914 166745.457 -96830.485 166769.266 -96782.866 166816.885 -96759.057 167078.79 -96759.057 M 166816.885 -96759.057 166769.266 -96735.247 166745.457 -96687.628 166745.457 -96616.2 166769.266 -96568.58 166816.885 -96544.771 167078.79 -96544.771 M 167054.98 -96116.2 167078.79 -96163.819 167078.79 -96259.057 167054.98 -96306.676 167007.361 -96330.485 166816.885 -96330.485 166769.266 -96306.676 166745.457 -96259.057 166745.457 -96163.819 166769.266 -96116.2 166816.885 -96092.39 166864.504 -96092.39 166912.123 -96330.485 M 167078.79 -95663.819 166816.885 -95663.819 166769.266 -95687.628 166745.457 -95735.247 166745.457 -95830.485 166769.266 -95878.104 M 167054.98 -95663.819 167078.79 -95711.438 167078.79 -95830.485 167054.98 -95878.104 167007.361 -95901.914 166959.742 -95901.914 166912.123 -95878.104 166888.314 -95830.485 166888.314 -95711.438 166864.504 -95663.819 M 167054.98 -95449.533 167078.79 -95401.914 167078.79 -95306.676 167054.98 -95259.057 167007.361 -95235.247 166983.552 -95235.247 166935.933 -95259.057 166912.123 -95306.676 166912.123 -95378.104 166888.314 -95425.723 166840.695 -95449.533 166816.885 -95449.533 166769.266 -95425.723 166745.457 -95378.104 166745.457 -95306.676 166769.266 -95259.057 M 162613.185 -97768.409 162636.995 -97696.98 162660.804 -97673.171 162708.423 -97649.361 162779.852 -97649.361 162827.471 -97673.171 162851.28 -97696.98 162875.09 -97744.6 162875.09 -97935.076 162375.09 -97935.076 162375.09 -97768.409 162398.9 -97720.79 162422.709 -97696.98 162470.328 -97673.171 162517.947 -97673.171 162565.566 -97696.98 162589.376 -97720.79 162613.185 -97768.409 162613.185 -97935.076 M 162732.233 -97458.885 162732.233 -97220.79 M 162875.09 -97506.504 162375.09 -97339.838 162875.09 -97173.171 M 162375.09 -97077.933 162375.09 -96792.219 M 162875.09 -96935.076 162375.09 -96935.076 M 162922.709 -96744.6 162922.709 -96363.647 M 162375.09 -96149.361 162375.09 -96054.123 162398.9 -96006.504 162446.519 -95958.885 162541.757 -95935.076 162708.423 -95935.076 162803.661 -95958.885 162851.28 -96006.504 162875.09 -96054.123 162875.09 -96149.361 162851.28 -96196.98 162803.661 -96244.6 162708.423 -96268.409 162541.757 -96268.409 162446.519 -96244.6 162398.9 -96196.98 162375.09 -96149.361 M 162375.09 -95720.79 162779.852 -95720.79 162827.471 -95696.98 162851.28 -95673.171 162875.09 -95625.552 162875.09 -95530.314 162851.28 -95482.695 162827.471 -95458.885 162779.852 -95435.076 162375.09 -95435.076 M 162375.09 -95268.409 162375.09 -94982.695 M 162875.09 -95125.552 162375.09 -95125.552 M 170666.6 -99644.152 170642.79 -99691.771 170642.79 -99763.2 170666.6 -99834.628 170714.219 -99882.247 170761.838 -99906.057 170857.076 -99929.866 170928.504 -99929.866 171023.742 -99906.057 171071.361 -99882.247 171118.98 -99834.628 171142.79 -99763.2 171142.79 -99715.58 171118.98 -99644.152 171095.171 -99620.342 170928.504 -99620.342 170928.504 -99715.58 M 171142.79 -99406.057 170642.79 -99406.057 171142.79 -99120.342 170642.79 -99120.342 M 171142.79 -98882.247 170642.79 -98882.247 170642.79 -98763.2 170666.6 -98691.771 170714.219 -98644.152 170761.838 -98620.342 170857.076 -98596.533 170928.504 -98596.533 171023.742 -98620.342 171071.361 -98644.152 171118.98 -98691.771 171142.79 -98763.2 171142.79 -98882.247 M 162398.9 -99694.952 162375.09 -99742.571 162375.09 -99814 162398.9 -99885.428 162446.519 -99933.047 162494.138 -99956.857 162589.376 -99980.666 162660.804 -99980.666 162756.042 -99956.857 162803.661 -99933.047 162851.28 -99885.428 162875.09 -99814 162875.09 -99766.38 162851.28 -99694.952 162827.471 -99671.142 162660.804 -99671.142 162660.804 -99766.38 M 162875.09 -99456.857 162375.09 -99456.857 162875.09 -99171.142 162375.09 -99171.142 M 162875.09 -98933.047 162375.09 -98933.047 162375.09 -98814 162398.9 -98742.571 162446.519 -98694.952 162494.138 -98671.142 162589.376 -98647.333 162660.804 -98647.333 162756.042 -98671.142 162803.661 -98694.952 162851.28 -98742.571 162875.09 -98814 162875.09 -98933.047 M 149725.89 -108385.466 150225.89 -108218.8 149725.89 -108052.133 M 150225.89 -107599.752 149987.795 -107766.419 M 150225.89 -107885.466 149725.89 -107885.466 149725.89 -107694.99 149749.7 -107647.371 149773.509 -107623.561 149821.128 -107599.752 149892.557 -107599.752 149940.176 -107623.561 149963.985 -107647.371 149987.795 -107694.99 149987.795 -107885.466 M 149963.985 -107385.466 149963.985 -107218.8 M 150225.89 -107147.371 150225.89 -107385.466 149725.89 -107385.466 149725.89 -107147.371 M 149963.985 -106766.419 149963.985 -106933.085 M 150225.89 -106933.085 149725.89 -106933.085 149725.89 -106694.99 M 150273.509 -106623.561 150273.509 -106242.609 M 150202.08 -106147.371 150225.89 -106075.942 150225.89 -105956.895 150202.08 -105909.276 150178.271 -105885.466 150130.652 -105861.657 150083.033 -105861.657 150035.414 -105885.466 150011.604 -105909.276 149987.795 -105956.895 149963.985 -106052.133 149940.176 -106099.752 149916.366 -106123.561 149868.747 -106147.371 149821.128 -106147.371 149773.509 -106123.561 149749.7 -106099.752 149725.89 -106052.133 149725.89 -105933.085 149749.7 -105861.657 M 150225.89 -105433.085 149963.985 -105433.085 149916.366 -105456.895 149892.557 -105504.514 149892.557 -105599.752 149916.366 -105647.371 M 150202.08 -105433.085 150225.89 -105480.704 150225.89 -105599.752 150202.08 -105647.371 150154.461 -105671.18 150106.842 -105671.18 150059.223 -105647.371 150035.414 -105599.752 150035.414 -105480.704 150011.604 -105433.085 M 150225.89 -105194.99 149892.557 -105194.99 M 149940.176 -105194.99 149916.366 -105171.18 149892.557 -105123.561 149892.557 -105052.133 149916.366 -105004.514 149963.985 -104980.704 150225.89 -104980.704 M 149963.985 -104980.704 149916.366 -104956.895 149892.557 -104909.276 149892.557 -104837.847 149916.366 -104790.228 149963.985 -104766.419 150225.89 -104766.419 M 149892.557 -104528.323 150392.557 -104528.323 M 149916.366 -104528.323 149892.557 -104480.704 149892.557 -104385.466 149916.366 -104337.847 149940.176 -104314.038 149987.795 -104290.228 150130.652 -104290.228 150178.271 -104314.038 150202.08 -104337.847 150225.89 -104385.466 150225.89 -104480.704 150202.08 -104528.323 M 150225.89 -104004.514 150202.08 -104052.133 150154.461 -104075.942 149725.89 -104075.942 M 150202.08 -103623.561 150225.89 -103671.18 150225.89 -103766.419 150202.08 -103814.038 150154.461 -103837.847 149963.985 -103837.847 149916.366 -103814.038 149892.557 -103766.419 149892.557 -103671.18 149916.366 -103623.561 149963.985 -103599.752 150011.604 -103599.752 150059.223 -103837.847 M 150232.3 -109842.252 150208.49 -109889.871 150208.49 -109961.3 150232.3 -110032.728 150279.919 -110080.347 150327.538 -110104.157 150422.776 -110127.966 150494.204 -110127.966 150589.442 -110104.157 150637.061 -110080.347 150684.68 -110032.728 150708.49 -109961.3 150708.49 -109913.68 150684.68 -109842.252 150660.871 -109818.442 150494.204 -109818.442 150494.204 -109913.68 M 150708.49 -109604.157 150208.49 -109604.157 150708.49 -109318.442 150208.49 -109318.442 M 150708.49 -109080.347 150208.49 -109080.347 150208.49 -108961.3 150232.3 -108889.871 150279.919 -108842.252 150327.538 -108818.442 150422.776 -108794.633 150494.204 -108794.633 150589.442 -108818.442 150637.061 -108842.252 150684.68 -108889.871 150708.49 -108961.3 150708.49 -109080.347 M 148962.3 -98856.752 148938.49 -98904.371 148938.49 -98975.8 148962.3 -99047.228 149009.919 -99094.847 149057.538 -99118.657 149152.776 -99142.466 149224.204 -99142.466 149319.442 -99118.657 149367.061 -99094.847 149414.68 -99047.228 149438.49 -98975.8 149438.49 -98928.18 149414.68 -98856.752 149390.871 -98832.942 149224.204 -98832.942 149224.204 -98928.18 M 149438.49 -98618.657 148938.49 -98618.657 149438.49 -98332.942 148938.49 -98332.942 M 149438.49 -98094.847 148938.49 -98094.847 148938.49 -97975.8 148962.3 -97904.371 149009.919 -97856.752 149057.538 -97832.942 149152.776 -97809.133 149224.204 -97809.133 149319.442 -97832.942 149367.061 -97856.752 149414.68 -97904.371 149438.49 -97975.8 149438.49 -98094.847 M 148938.49 -96591.261 148938.49 -96496.023 148962.3 -96448.404 149009.919 -96400.785 149105.157 -96376.976 149271.823 -96376.976 149367.061 -96400.785 149414.68 -96448.404 149438.49 -96496.023 149438.49 -96591.261 149414.68 -96638.88 149367.061 -96686.5 149271.823 -96710.309 149105.157 -96710.309 149009.919 -96686.5 148962.3 -96638.88 148938.49 -96591.261 M 148938.49 -96162.69 149343.252 -96162.69 149390.871 -96138.88 149414.68 -96115.071 149438.49 -96067.452 149438.49 -95972.214 149414.68 -95924.595 149390.871 -95900.785 149343.252 -95876.976 148938.49 -95876.976 M 148938.49 -95710.309 148938.49 -95424.595 M 149438.49 -95567.452 148938.49 -95567.452 M 149486.109 -95376.976 149486.109 -94996.023 M 149390.871 -94591.261 149414.68 -94615.071 149438.49 -94686.5 149438.49 -94734.119 149414.68 -94805.547 149367.061 -94853.166 149319.442 -94876.976 149224.204 -94900.785 149152.776 -94900.785 149057.538 -94876.976 149009.919 -94853.166 148962.3 -94805.547 148938.49 -94734.119 148938.49 -94686.5 148962.3 -94615.071 148986.109 -94591.261 M 149295.633 -94400.785 149295.633 -94162.69 M 149438.49 -94448.404 148938.49 -94281.738 149438.49 -94115.071 M 149438.49 -93948.404 148938.49 -93948.404 148938.49 -93757.928 148962.3 -93710.309 148986.109 -93686.5 149033.728 -93662.69 149105.157 -93662.69 149152.776 -93686.5 149176.585 -93710.309 149200.395 -93757.928 149200.395 -93948.404 M 132257.195 -105945.785 132328.623 -105969.595 132352.433 -105993.404 132376.242 -106041.023 132376.242 -106112.452 132352.433 -106160.071 132328.623 -106183.88 132281.004 -106207.69 132090.528 -106207.69 132090.528 -105707.69 132257.195 -105707.69 132304.814 -105731.5 132328.623 -105755.309 132352.433 -105802.928 132352.433 -105850.547 132328.623 -105898.166 132304.814 -105921.976 132257.195 -105945.785 132090.528 -105945.785 M 132566.719 -106064.833 132804.814 -106064.833 M 132519.1 -106207.69 132685.766 -105707.69 132852.433 -106207.69 M 132947.671 -105707.69 133233.385 -105707.69 M 133090.528 -106207.69 133090.528 -105707.69 M 133328.623 -105707.69 133614.338 -105707.69 M 133471.48 -106207.69 133471.48 -105707.69 M 133661.957 -106255.309 134042.909 -106255.309 M 134447.671 -106160.071 134423.861 -106183.88 134352.433 -106207.69 134304.814 -106207.69 134233.385 -106183.88 134185.766 -106136.261 134161.957 -106088.642 134138.147 -105993.404 134138.147 -105921.976 134161.957 -105826.738 134185.766 -105779.119 134233.385 -105731.5 134304.814 -105707.69 134352.433 -105707.69 134423.861 -105731.5 134447.671 -105755.309 M 134661.957 -106207.69 134661.957 -105707.69 M 134661.957 -105945.785 134947.671 -105945.785 M 134947.671 -106207.69 134947.671 -105707.69 M 135447.671 -105731.5 135400.052 -105707.69 135328.623 -105707.69 135257.195 -105731.5 135209.576 -105779.119 135185.766 -105826.738 135161.957 -105921.976 135161.957 -105993.404 135185.766 -106088.642 135209.576 -106136.261 135257.195 -106183.88 135328.623 -106207.69 135376.242 -106207.69 135447.671 -106183.88 135471.48 -106160.071 135471.48 -105993.404 135376.242 -105993.404 M 135651.085 -103449.238 135674.895 -103377.809 135698.704 -103354 135746.323 -103330.19 135817.752 -103330.19 135865.371 -103354 135889.18 -103377.809 135912.99 -103425.428 135912.99 -103615.904 135412.99 -103615.904 135412.99 -103449.238 135436.8 -103401.619 135460.609 -103377.809 135508.228 -103354 135555.847 -103354 135603.466 -103377.809 135627.276 -103401.619 135651.085 -103449.238 135651.085 -103615.904 M 135770.133 -103139.714 135770.133 -102901.619 M 135912.99 -103187.333 135412.99 -103020.666 135912.99 -102854 M 135412.99 -102758.761 135412.99 -102473.047 M 135912.99 -102615.904 135412.99 -102615.904 M 135960.609 -102425.428 135960.609 -102044.476 M 135865.371 -101639.714 135889.18 -101663.523 135912.99 -101734.952 135912.99 -101782.571 135889.18 -101854 135841.561 -101901.619 135793.942 -101925.428 135698.704 -101949.238 135627.276 -101949.238 135532.038 -101925.428 135484.419 -101901.619 135436.8 -101854 135412.99 -101782.571 135412.99 -101734.952 135436.8 -101663.523 135460.609 -101639.714 M 135412.99 -101330.19 135412.99 -101234.952 135436.8 -101187.333 135484.419 -101139.714 135579.657 -101115.904 135746.323 -101115.904 135841.561 -101139.714 135889.18 -101187.333 135912.99 -101234.952 135912.99 -101330.19 135889.18 -101377.809 135841.561 -101425.428 135746.323 -101449.238 135579.657 -101449.238 135484.419 -101425.428 135436.8 -101377.809 135412.99 -101330.19 M 135912.99 -100901.619 135412.99 -100901.619 135912.99 -100615.904 135412.99 -100615.904 M 135912.99 -100377.809 135412.99 -100377.809 135912.99 -100092.095 135412.99 -100092.095 M 130721.147 -88662.7 130673.528 -88638.89 130602.1 -88638.89 130530.671 -88662.7 130483.052 -88710.319 130459.242 -88757.938 130435.433 -88853.176 130435.433 -88924.604 130459.242 -89019.842 130483.052 -89067.461 130530.671 -89115.08 130602.1 -89138.89 130649.719 -89138.89 130721.147 -89115.08 130744.957 -89091.271 130744.957 -88924.604 130649.719 -88924.604 M 130959.242 -89138.89 130959.242 -88638.89 131244.957 -89138.89 131244.957 -88638.89 M 131483.052 -89138.89 131483.052 -88638.89 131602.1 -88638.89 131673.528 -88662.7 131721.147 -88710.319 131744.957 -88757.938 131768.766 -88853.176 131768.766 -88924.604 131744.957 -89019.842 131721.147 -89067.461 131673.528 -89115.08 131602.1 -89138.89 131483.052 -89138.89 M 121627.947 -88764.3 121580.328 -88740.49 121508.9 -88740.49 121437.471 -88764.3 121389.852 -88811.919 121366.042 -88859.538 121342.233 -88954.776 121342.233 -89026.204 121366.042 -89121.442 121389.852 -89169.061 121437.471 -89216.68 121508.9 -89240.49 121556.519 -89240.49 121627.947 -89216.68 121651.757 -89192.871 121651.757 -89026.204 121556.519 -89026.204 M 121866.042 -89240.49 121866.042 -88740.49 122151.757 -89240.49 122151.757 -88740.49 M 122389.852 -89240.49 122389.852 -88740.49 122508.9 -88740.49 122580.328 -88764.3 122627.947 -88811.919 122651.757 -88859.538 122675.566 -88954.776 122675.566 -89026.204 122651.757 -89121.442 122627.947 -89169.061 122580.328 -89216.68 122508.9 -89240.49 122389.852 -89240.49 M 124256.833 -88988.1 124790.166 -88988.1 M 124523.5 -89254.766 124523.5 -88721.433 M 128003.333 -88975.4 128536.666 -88975.4 M 128270 -89242.066 128270 -88708.733" fill="none" stroke-width="100"/><path d="M 166000 -93100 145900 -93100 M 166000 -84600 166000 -93100 M 145900 -84600 166000 -84600 M 145900 -93100 145900 -84600" fill="none" stroke-width="200"/><path d="M 163170 -95270 164500 -95270 M 163170 -96600 163170 -95270 M 163170 -97870 165830 -97870 165830 -100470 M 163170 -97870 163170 -100470 165830 -100470 M 148480 -93980 145820 -93980 M 148480 -96580 148480 -93980 M 145820 -96580 145820 -93980 M 148480 -96580 145820 -96580 M 148480 -97850 148480 -99180 147150 -99180 M 130410 -97261.252 130410 -96738.748 M 128990 -97261.252 128990 -96738.748 M 138038.748 -96690 138561.252 -96690 M 138038.748 -98110 138561.252 -98110 M 144710 -96238.748 144710 -96761.252 M 143290 -96238.748 143290 -96761.252 M 140790 -96238.748 140790 -96761.252 M 142210 -96238.748 142210 -96761.252 M 172171.267 -103210 171828.733 -103210 M 172171.267 -102190 171828.733 -102190 M 172271.267 -110190 171928.733 -110190 M 172271.267 -111210 171928.733 -111210 M 152011.252 -103160 151488.748 -103160 M 152011.252 -101740 151488.748 -101740 M 131490 -91071.267 131490 -90728.733 M 132510 -91071.267 132510 -90728.733 M 147741.25 -100656.25 146953.75 -100656.25 M 147347.5 -100262.5 147347.5 -101050 M 143154.437 -101290 142090 -102354.437 M 147845.563 -101290 148910 -102354.437 M 147845.563 -101290 146560 -101290 M 143154.437 -101290 144440 -101290 M 142090 -102354.437 142090 -108110 M 148910 -102354.437 148910 -108110 146560 -108110 M 142090 -108110 144440 -108110 M 155490 -106238.748 155490 -106761.252 M 156910 -106238.748 156910 -106761.252 M 174910 -86290 172560 -86290 M 168090 -86290 170440 -86290 M 168090 -92045.563 168090 -86290 M 174910 -92045.563 174910 -86290 M 173845.563 -93110 172560 -93110 M 169154.437 -93110 170440 -93110 M 169154.437 -93110 168090 -92045.563 M 173845.563 -93110 174910 -92045.563 M 169652.5 -94137.5 169652.5 -93350 M 169258.75 -93743.75 170046.25 -93743.75 M 128110 -97390 125760 -97390 M 121290 -97390 123640 -97390 M 121290 -103145.563 121290 -97390 M 128110 -103145.563 128110 -97390 M 127045.563 -104210 125760 -104210 M 122354.437 -104210 123640 -104210 M 122354.437 -104210 121290 -103145.563 M 127045.563 -104210 128110 -103145.563 M 122852.5 -105237.5 122852.5 -104450 M 122458.75 -104843.75 123246.25 -104843.75 M 120670 -88430 120670 -87100 M 122000 -88430 120670 -88430 M 123270 -88430 123270 -85770 125870 -85770 M 123270 -88430 125870 -88430 125870 -85770 M 132230 -85770 132230 -87100 M 130900 -85770 132230 -85770 M 129630 -85770 129630 -88430 127030 -88430 M 129630 -85770 127030 -85770 127030 -88430 M 134930 -100130 132270 -100130 M 134930 -102730 134930 -100130 M 132270 -102730 132270 -100130 M 134930 -102730 132270 -102730 M 134930 -104000 134930 -105330 133600 -105330 M 153630 -104130 150970 -104130 M 153630 -106730 153630 -104130 M 150970 -106730 150970 -104130 M 153630 -106730 150970 -106730 M 153630 -108000 153630 -109330 152300 -109330 M 167470 -100470 170130 -100470 M 167470 -97870 167470 -100470 M 170130 -97870 170130 -100470 M 167470 -97870 170130 -97870 M 167470 -96600 167470 -95270 168800 -95270 M 143930 -115170 143930 -116500 M 142600 -115170 143930 -115170 M 141330 -115170 141330 -117830 123490 -117830 M 141330 -115170 123490 -115170 123490 -117830 M 165910 -117830 165910 -115170 M 148070 -117830 165910 -117830 M 148070 -115170 165910 -115170 M 148070 -117830 148070 -115170 M 146800 -117830 145470 -117830 145470 -116500 M 145470 -113930 145470 -112600 M 146800 -113930 145470 -113930 M 148070 -113930 148070 -111270 165910 -111270 M 148070 -113930 165910 -113930 165910 -111270 M 123490 -111270 123490 -113930 M 141330 -111270 123490 -111270 M 141330 -113930 123490 -113930 M 141330 -111270 141330 -113930 M 142600 -111270 143930 -111270 143930 -112600 M 134496 -86996 138804 -86996 M 138804 -91304 134496 -91304 M 150546 -94251.7 154854 -94251.7 M 154854 -98559.7 150546 -98559.7 M 128690 -91197.936 128690 -92402.064 M 130510 -91197.936 130510 -92402.064 M 126090 -92402.064 126090 -91197.936 M 127910 -92402.064 127910 -91197.936 M 123490 -92402.064 123490 -91197.936 M 125310 -92402.064 125310 -91197.936 M 139390 -100597.936 139390 -101802.064 M 141210 -100597.936 141210 -101802.064 M 136590 -101802.064 136590 -100597.936 M 138410 -101802.064 138410 -100597.936 M 138410 -107002.064 138410 -105797.936 M 136590 -107002.064 136590 -105797.936 M 128990 -102902.064 128990 -101697.936 M 130810 -102902.064 130810 -101697.936 M 166497.936 -103610 167702.064 -103610 M 166497.936 -101790 167702.064 -101790 M 166390 -106661.252 166390 -106138.748 M 167810 -106661.252 167810 -106138.748 M 163490 -107402.064 163490 -106197.936 M 165310 -107402.064 165310 -106197.936 M 157990 -106197.936 157990 -107402.064 M 159810 -106197.936 159810 -107402.064 M 162310 -106661.252 162310 -106138.748 M 160890 -106661.252 160890 -106138.748 M 140985 -92859.698 141785 -92859.698 M 141385 -93259.698 141385 -92459.698 M 143167 -84769 144233 -84769 M 142932 -84809 144468 -84809 M 142752 -84849 144648 -84849 M 142602 -84889 144798 -84889 M 142471 -84929 144929 -84929 M 142354 -84969 145046 -84969 M 142247 -85009 145153 -85009 M 142148 -85049 145252 -85049 M 142055 -85089 145345 -85089 M 141969 -85129 145431 -85129 M 141887 -85169 145513 -85169 M 141810 -85209 145590 -85209 M 141736 -85249 145664 -85249 M 141666 -85289 145734 -85289 M 141598 -85329 145802 -85329 M 141534 -85369 145866 -85369 M 141472 -85409 145928 -85409 M 141413 -85449 145987 -85449 M 141355 -85489 146045 -85489 M 141300 -85529 146100 -85529 M 141246 -85569 146154 -85569 M 141195 -85609 146205 -85609 M 141144 -85649 146256 -85649 M 141096 -85689 146304 -85689 M 141049 -85729 146351 -85729 M 141003 -85769 146397 -85769 M 140959 -85809 146441 -85809 M 140916 -85849 146484 -85849 M 140874 -85889 146526 -85889 M 140833 -85929 146567 -85929 M 140793 -85969 146607 -85969 M 140755 -86009 146645 -86009 M 140717 -86049 146683 -86049 M 144740 -86089 146719 -86089 M 140681 -86089 142660 -86089 M 144740 -86129 146755 -86129 M 140645 -86129 142660 -86129 M 144740 -86169 146790 -86169 M 140610 -86169 142660 -86169 M 144740 -86209 146824 -86209 M 140576 -86209 142660 -86209 M 144740 -86249 146856 -86249 M 140544 -86249 142660 -86249 M 144740 -86289 146889 -86289 M 140511 -86289 142660 -86289 M 144740 -86329 146920 -86329 M 140480 -86329 142660 -86329 M 144740 -86369 146950 -86369 M 140450 -86369 142660 -86369 M 144740 -86409 146980 -86409 M 140420 -86409 142660 -86409 M 144740 -86449 147009 -86449 M 140391 -86449 142660 -86449 M 144740 -86489 147038 -86489 M 140362 -86489 142660 -86489 M 144740 -86529 147065 -86529 M 140335 -86529 142660 -86529 M 144740 -86569 147092 -86569 M 140308 -86569 142660 -86569 M 144740 -86609 147118 -86609 M 140282 -86609 142660 -86609 M 144740 -86649 147144 -86649 M 140256 -86649 142660 -86649 M 144740 -86689 147169 -86689 M 140231 -86689 142660 -86689 M 144740 -86729 147193 -86729 M 140207 -86729 142660 -86729 M 144740 -86769 147217 -86769 M 140183 -86769 142660 -86769 M 144740 -86809 147240 -86809 M 140160 -86809 142660 -86809 M 144740 -86849 147262 -86849 M 140138 -86849 142660 -86849 M 144740 -86889 147284 -86889 M 140116 -86889 142660 -86889 M 144740 -86929 147306 -86929 M 140094 -86929 142660 -86929 M 144740 -86969 147327 -86969 M 140073 -86969 142660 -86969 M 144740 -87009 147347 -87009 M 140053 -87009 142660 -87009 M 144740 -87049 147366 -87049 M 140034 -87049 142660 -87049 M 144740 -87089 147386 -87089 M 140014 -87089 142660 -87089 M 144740 -87129 147404 -87129 M 139996 -87129 142660 -87129 M 144740 -87169 147422 -87169 M 139978 -87169 142660 -87169 M 144740 -87209 147440 -87209 M 139960 -87209 142660 -87209 M 144740 -87249 147457 -87249 M 139943 -87249 142660 -87249 M 144740 -87289 147474 -87289 M 139926 -87289 142660 -87289 M 144740 -87329 147490 -87329 M 139910 -87329 142660 -87329 M 144740 -87369 147505 -87369 M 139895 -87369 142660 -87369 M 144740 -87409 147521 -87409 M 139879 -87409 142660 -87409 M 144740 -87449 147535 -87449 M 139865 -87449 142660 -87449 M 144740 -87489 147550 -87489 M 139850 -87489 142660 -87489 M 144740 -87529 147563 -87529 M 139837 -87529 142660 -87529 M 144740 -87569 147577 -87569 M 139823 -87569 142660 -87569 M 144740 -87609 147589 -87609 M 139811 -87609 142660 -87609 M 144740 -87649 147602 -87649 M 139798 -87649 142660 -87649 M 144740 -87689 147614 -87689 M 139786 -87689 142660 -87689 M 144740 -87729 147625 -87729 M 139775 -87729 142660 -87729 M 144740 -87769 147636 -87769 M 139764 -87769 142660 -87769 M 144740 -87809 147647 -87809 M 139753 -87809 142660 -87809 M 144740 -87849 147657 -87849 M 139743 -87849 142660 -87849 M 144740 -87889 147667 -87889 M 139733 -87889 142660 -87889 M 144740 -87929 147676 -87929 M 139724 -87929 142660 -87929 M 144740 -87969 147685 -87969 M 139715 -87969 142660 -87969 M 144740 -88009 147694 -88009 M 139706 -88009 142660 -88009 M 144740 -88049 147702 -88049 M 139698 -88049 142660 -88049 M 144740 -88089 147710 -88089 M 139690 -88089 142660 -88089 M 144740 -88129 147717 -88129 M 139683 -88129 142660 -88129 M 139676 -88170 147724 -88170 M 139670 -88210 147730 -88210 M 139663 -88250 147737 -88250 M 139658 -88290 147742 -88290 M 139652 -88330 147748 -88330 M 139648 -88370 147752 -88370 M 139643 -88410 147757 -88410 M 139639 -88450 147761 -88450 M 139635 -88490 147765 -88490 M 139632 -88530 147768 -88530 M 139629 -88570 147771 -88570 M 139626 -88610 147774 -88610 M 139624 -88650 147776 -88650 M 139623 -88690 147777 -88690 M 139621 -88730 147779 -88730 M 139620 -88770 147780 -88770 M 139620 -88810 147780 -88810 M 139620 -88850 147780 -88850 M 147820 -88850 A 4120 4120 0 0 1 139580 -88850 4120 4120 0 0 1 147820 -88850" fill="none" stroke-width="120"/><path d="M 134600 -93700 134900 -93700 134900 -94000 M 132200 -96700 131900 -96700 131900 -96400 M 134900 -96400 134900 -96700 134600 -96700" fill="none" stroke-width="200"/><path d="M 157040.2 -101909.8 157782.426 -101909.8 M 161459.8 -101909.8 161459.8 -101167.323 M 161459.8 -97490.2 160717.574 -97490.2 M 157040.2 -97490.2 157040.2 -98232.677 M 157040.2 -101167.323 157040.2 -101909.8 M 160717.574 -101909.8 161459.8 -101909.8 M 161459.8 -98232.677 161459.8 -97490.2 M 157782.426 -97490.2 157040.2 -97490.2 M 160059.752 -102104.001 160059.752 -102358.001 160440.752 -102358.001 160440.752 -102104.001 160059.752 -102104.001 M 158059.248 -97295.999 158059.248 -97041.999 158440.248 -97041.999 158440.248 -97295.999 158059.248 -97295.999 M 170323.001 -105923 170323.001 -107877 M 171658.139 -107877 172341.861 -107877 M 173676.999 -107877 173676.999 -105923" fill="none" stroke-width="152.4"/><path d="M 163755.485 -94251.471 163898.342 -94299.09 163945.961 -94346.709 163993.58 -94441.947 163993.58 -94584.804 163945.961 -94680.042 163898.342 -94727.661 163803.104 -94775.28 163422.152 -94775.28 163422.152 -93775.28 163755.485 -93775.28 163850.723 -93822.9 163898.342 -93870.519 163945.961 -93965.757 163945.961 -94060.995 163898.342 -94156.233 163850.723 -94203.852 163755.485 -94251.471 163422.152 -94251.471 M 164279.295 -93775.28 164850.723 -93775.28 M 164565.009 -94775.28 164565.009 -93775.28 M 165707.866 -94775.28 165136.438 -94775.28 M 165422.152 -94775.28 165422.152 -93775.28 165326.914 -93918.138 165231.676 -94013.376 165136.438 -94060.995 M 148891.666 -99706.18 148891.666 -100420.466 148844.047 -100563.323 148748.809 -100658.561 148605.952 -100706.18 148510.714 -100706.18 M 149796.428 -100039.514 149796.428 -100706.18 M 149558.333 -99658.561 149320.238 -100372.847 149939.285 -100372.847 M 129805.133 -99696.542 129757.514 -99744.161 129614.657 -99791.78 129519.419 -99791.78 129376.561 -99744.161 129281.323 -99648.923 129233.704 -99553.685 129186.085 -99363.209 129186.085 -99220.352 129233.704 -99029.876 129281.323 -98934.638 129376.561 -98839.4 129519.419 -98791.78 129614.657 -98791.78 129757.514 -98839.4 129805.133 -98887.019 M 130757.514 -99791.78 130186.085 -99791.78 M 130471.8 -99791.78 130471.8 -98791.78 130376.561 -98934.638 130281.323 -99029.876 130186.085 -99077.495 M 138133.333 -96107.142 138085.714 -96154.761 137942.857 -96202.38 137847.619 -96202.38 137704.761 -96154.761 137609.523 -96059.523 137561.904 -95964.285 137514.285 -95773.809 137514.285 -95630.952 137561.904 -95440.476 137609.523 -95345.238 137704.761 -95250 137847.619 -95202.38 137942.857 -95202.38 138085.714 -95250 138133.333 -95297.619 M 138514.285 -95297.619 138561.904 -95250 138657.142 -95202.38 138895.238 -95202.38 138990.476 -95250 139038.095 -95297.619 139085.714 -95392.857 139085.714 -95488.095 139038.095 -95630.952 138466.666 -96202.38 139085.714 -96202.38 M 143813.233 -94451.442 143765.614 -94499.061 143622.757 -94546.68 143527.519 -94546.68 143384.661 -94499.061 143289.423 -94403.823 143241.804 -94308.585 143194.185 -94118.109 143194.185 -93975.252 143241.804 -93784.776 143289.423 -93689.538 143384.661 -93594.3 143527.519 -93546.68 143622.757 -93546.68 143765.614 -93594.3 143813.233 -93641.919 M 144146.566 -93546.68 144765.614 -93546.68 144432.28 -93927.633 144575.138 -93927.633 144670.376 -93975.252 144717.995 -94022.871 144765.614 -94118.109 144765.614 -94356.204 144717.995 -94451.442 144670.376 -94499.061 144575.138 -94546.68 144289.423 -94546.68 144194.185 -94499.061 144146.566 -94451.442 M 141362.133 -94502.242 141314.514 -94549.861 141171.657 -94597.48 141076.419 -94597.48 140933.561 -94549.861 140838.323 -94454.623 140790.704 -94359.385 140743.085 -94168.909 140743.085 -94026.052 140790.704 -93835.576 140838.323 -93740.338 140933.561 -93645.1 141076.419 -93597.48 141171.657 -93597.48 141314.514 -93645.1 141362.133 -93692.719 M 142219.276 -93930.814 142219.276 -94597.48 M 141981.18 -93549.861 141743.085 -94264.147 142362.133 -94264.147 M 171689.733 -101766.642 171642.114 -101814.261 171499.257 -101861.88 171404.019 -101861.88 171261.161 -101814.261 171165.923 -101719.023 171118.304 -101623.785 171070.685 -101433.309 171070.685 -101290.452 171118.304 -101099.976 171165.923 -101004.738 171261.161 -100909.5 171404.019 -100861.88 171499.257 -100861.88 171642.114 -100909.5 171689.733 -100957.119 M 172594.495 -100861.88 172118.304 -100861.88 172070.685 -101338.071 172118.304 -101290.452 172213.542 -101242.833 172451.638 -101242.833 172546.876 -101290.452 172594.495 -101338.071 172642.114 -101433.309 172642.114 -101671.404 172594.495 -101766.642 172546.876 -101814.261 172451.638 -101861.88 172213.542 -101861.88 172118.304 -101814.261 172070.685 -101766.642 M 171816.733 -112764.842 171769.114 -112812.461 171626.257 -112860.08 171531.019 -112860.08 171388.161 -112812.461 171292.923 -112717.223 171245.304 -112621.985 171197.685 -112431.509 171197.685 -112288.652 171245.304 -112098.176 171292.923 -112002.938 171388.161 -111907.7 171531.019 -111860.08 171626.257 -111860.08 171769.114 -111907.7 171816.733 -111955.319 M 172673.876 -111860.08 172483.4 -111860.08 172388.161 -111907.7 172340.542 -111955.319 172245.304 -112098.176 172197.685 -112288.652 172197.685 -112669.604 172245.304 -112764.842 172292.923 -112812.461 172388.161 -112860.08 172578.638 -112860.08 172673.876 -112812.461 172721.495 -112764.842 172769.114 -112669.604 172769.114 -112431.509 172721.495 -112336.271 172673.876 -112288.652 172578.638 -112241.033 172388.161 -112241.033 172292.923 -112288.652 172245.304 -112336.271 172197.685 -112431.509" fill="none" stroke-width="90"/><path d="M 151238.109 -101314.214 151200.014 -101352.309 151085.728 -101390.404 151009.538 -101390.404 150895.252 -101352.309 150819.061 -101276.119 150780.966 -101199.928 150742.871 -101047.547 150742.871 -100933.261 150780.966 -100780.88 150819.061 -100704.69 150895.252 -100628.5 151009.538 -100590.404 151085.728 -100590.404 151200.014 -100628.5 151238.109 -100666.595 M 151847.633 -100971.357 151961.919 -101009.452 152000.014 -101047.547 152038.109 -101123.738 152038.109 -101238.023 152000.014 -101314.214 151961.919 -101352.309 151885.728 -101390.404 151580.966 -101390.404 151580.966 -100590.404 151847.633 -100590.404 151923.823 -100628.5 151961.919 -100666.595 152000.014 -100742.785 152000.014 -100818.976 151961.919 -100895.166 151923.823 -100933.261 151847.633 -100971.357 151580.966 -100971.357 M 152533.347 -101009.452 152533.347 -101390.404 M 152266.68 -100590.404 152533.347 -101009.452 152800.014 -100590.404 M 153066.68 -101390.404 153066.68 -100590.404 153371.442 -100590.404 153447.633 -100628.5 153485.728 -100666.595 153523.823 -100742.785 153523.823 -100857.071 153485.728 -100933.261 153447.633 -100971.357 153371.442 -101009.452 153066.68 -101009.452 M 154285.728 -101390.404 153828.585 -101390.404 M 154057.157 -101390.404 154057.157 -100590.404 153980.966 -100704.69 153904.776 -100780.88 153828.585 -100818.976" fill="none" stroke-width="20"/><path d="M 133711.914 -92074.828 133750.009 -92112.923 133788.104 -92227.209 133788.104 -92303.4 133750.009 -92417.685 133673.819 -92493.876 133597.628 -92531.971 133445.247 -92570.066 133330.961 -92570.066 133178.58 -92531.971 133102.39 -92493.876 133026.2 -92417.685 132988.104 -92303.4 132988.104 -92227.209 133026.2 -92112.923 133064.295 -92074.828 M 133788.104 -91731.971 133254.771 -91731.971 M 132988.104 -91731.971 133026.2 -91770.066 133064.295 -91731.971 133026.2 -91693.876 132988.104 -91731.971 133064.295 -91731.971 M 133254.771 -91351.019 133788.104 -91351.019 M 133330.961 -91351.019 133292.866 -91312.923 133254.771 -91236.733 133254.771 -91122.447 133292.866 -91046.257 133369.057 -91008.161 133788.104 -91008.161 M 133788.104 -90208.161 133788.104 -90665.304 M 133788.104 -90436.733 132988.104 -90436.733 133102.39 -90512.923 133178.58 -90589.114 133216.676 -90665.304 M 133864.295 -90055.78 133864.295 -89446.257 M 133788.104 -88836.733 133788.104 -89293.876 M 133788.104 -89065.304 132988.104 -89065.304 133102.39 -89141.495 133178.58 -89217.685 133216.676 -89293.876 M 144368.2 -110244.7 144334.866 -110278.033 144234.866 -110311.366 144168.2 -110311.366 144068.2 -110278.033 144001.533 -110211.366 143968.2 -110144.7 143934.866 -110011.366 143934.866 -109911.366 143968.2 -109778.033 144001.533 -109711.366 144068.2 -109644.7 144168.2 -109611.366 144234.866 -109611.366 144334.866 -109644.7 144368.2 -109678.033 M 144668.2 -110311.366 144668.2 -109611.366 M 145001.533 -110311.366 145001.533 -109611.366 145401.533 -110311.366 145401.533 -109611.366 M 146101.533 -110311.366 145701.533 -110311.366 M 145901.533 -110311.366 145901.533 -109611.366 145834.866 -109711.366 145768.2 -109778.033 145701.533 -109811.366 M 146234.866 -110378.033 146768.2 -110378.033 M 146901.533 -109678.033 146934.866 -109644.7 147001.533 -109611.366 147168.2 -109611.366 147234.866 -109644.7 147268.2 -109678.033 147301.533 -109744.7 147301.533 -109811.366 147268.2 -109911.366 146868.2 -110311.366 147301.533 -110311.366 M 154898.066 -109101.7 154864.733 -109135.033 154764.733 -109168.366 154698.066 -109168.366 154598.066 -109135.033 154531.4 -109068.366 154498.066 -109001.7 154464.733 -108868.366 154464.733 -108768.366 154498.066 -108635.033 154531.4 -108568.366 154598.066 -108501.7 154698.066 -108468.366 154764.733 -108468.366 154864.733 -108501.7 154898.066 -108535.033 M 155598.066 -109168.366 155364.733 -108835.033 M 155198.066 -109168.366 155198.066 -108468.366 155464.733 -108468.366 155531.4 -108501.7 155564.733 -108535.033 155598.066 -108601.7 155598.066 -108701.7 155564.733 -108768.366 155531.4 -108801.7 155464.733 -108835.033 155198.066 -108835.033 M 155898.066 -108801.7 156131.4 -108801.7 M 156231.4 -109168.366 155898.066 -109168.366 155898.066 -108468.366 156231.4 -108468.366 M 156764.733 -108801.7 156531.4 -108801.7 M 156531.4 -109168.366 156531.4 -108468.366 156864.733 -108468.366 M 157098.066 -108535.033 157131.4 -108501.7 157198.066 -108468.366 157364.733 -108468.366 157431.4 -108501.7 157464.733 -108535.033 157498.066 -108601.7 157498.066 -108668.366 157464.733 -108768.366 157064.733 -109168.366 157498.066 -109168.366 M 167435.714 -91700 167473.809 -91738.095 167511.904 -91852.38 167511.904 -91928.571 167473.809 -92042.857 167397.619 -92119.047 167321.428 -92157.142 167169.047 -92195.238 167054.761 -92195.238 166902.38 -92157.142 166826.19 -92119.047 166750 -92042.857 166711.904 -91928.571 166711.904 -91852.38 166750 -91738.095 166788.095 -91700 M 167473.809 -91395.238 167511.904 -91280.952 167511.904 -91090.476 167473.809 -91014.285 167435.714 -90976.19 167359.523 -90938.095 167283.333 -90938.095 167207.142 -90976.19 167169.047 -91014.285 167130.952 -91090.476 167092.857 -91242.857 167054.761 -91319.047 167016.666 -91357.142 166940.476 -91395.238 166864.285 -91395.238 166788.095 -91357.142 166750 -91319.047 166711.904 -91242.857 166711.904 -91052.38 166750 -90938.095 M 166711.904 -90709.523 166711.904 -90252.38 M 167511.904 -90480.952 166711.904 -90480.952 M 166711.904 -89833.333 166711.904 -89680.952 166750 -89604.761 166826.19 -89528.571 166978.571 -89490.476 167245.238 -89490.476 167397.619 -89528.571 167473.809 -89604.761 167511.904 -89680.952 167511.904 -89833.333 167473.809 -89909.523 167397.619 -89985.714 167245.238 -90023.809 166978.571 -90023.809 166826.19 -89985.714 166750 -89909.523 166711.904 -89833.333 M 167511.904 -88690.476 167130.952 -88957.142 M 167511.904 -89147.619 166711.904 -89147.619 166711.904 -88842.857 166750 -88766.666 166788.095 -88728.571 166864.285 -88690.476 166978.571 -88690.476 167054.761 -88728.571 167092.857 -88766.666 167130.952 -88842.857 167130.952 -89147.619 M 167092.857 -88347.619 167092.857 -88080.952 M 167511.904 -87966.666 167511.904 -88347.619 166711.904 -88347.619 166711.904 -87966.666 M 166788.095 -87661.904 166750 -87623.809 166711.904 -87547.619 166711.904 -87357.142 166750 -87280.952 166788.095 -87242.857 166864.285 -87204.761 166940.476 -87204.761 167054.761 -87242.857 167511.904 -87700 167511.904 -87204.761 M 122815.6 -106711.714 122777.504 -106749.809 122663.219 -106787.904 122587.028 -106787.904 122472.742 -106749.809 122396.552 -106673.619 122358.457 -106597.428 122320.361 -106445.047 122320.361 -106330.761 122358.457 -106178.38 122396.552 -106102.19 122472.742 -106026 122587.028 -105987.904 122663.219 -105987.904 122777.504 -106026 122815.6 -106064.095 M 123120.361 -106749.809 123234.647 -106787.904 123425.123 -106787.904 123501.314 -106749.809 123539.409 -106711.714 123577.504 -106635.523 123577.504 -106559.333 123539.409 -106483.142 123501.314 -106445.047 123425.123 -106406.952 123272.742 -106368.857 123196.552 -106330.761 123158.457 -106292.666 123120.361 -106216.476 123120.361 -106140.285 123158.457 -106064.095 123196.552 -106026 123272.742 -105987.904 123463.219 -105987.904 123577.504 -106026 M 123806.076 -105987.904 124263.219 -105987.904 M 124034.647 -106787.904 124034.647 -105987.904 M 124682.266 -105987.904 124834.647 -105987.904 124910.838 -106026 124987.028 -106102.19 125025.123 -106254.571 125025.123 -106521.238 124987.028 -106673.619 124910.838 -106749.809 124834.647 -106787.904 124682.266 -106787.904 124606.076 -106749.809 124529.885 -106673.619 124491.79 -106521.238 124491.79 -106254.571 124529.885 -106102.19 124606.076 -106026 124682.266 -105987.904 M 125825.123 -106787.904 125558.457 -106406.952 M 125367.98 -106787.904 125367.98 -105987.904 125672.742 -105987.904 125748.933 -106026 125787.028 -106064.095 125825.123 -106140.285 125825.123 -106254.571 125787.028 -106330.761 125748.933 -106368.857 125672.742 -106406.952 125367.98 -106406.952 M 126167.98 -106368.857 126434.647 -106368.857 M 126548.933 -106787.904 126167.98 -106787.904 126167.98 -105987.904 126548.933 -105987.904 M 127310.838 -106787.904 126853.695 -106787.904 M 127082.266 -106787.904 127082.266 -105987.904 127006.076 -106102.19 126929.885 -106178.38 126853.695 -106216.476" fill="none" stroke-width="90"/><path d="M 120464.7 -85106.633 120564.7 -85139.966 120731.366 -85139.966 120798.033 -85106.633 120831.366 -85073.3 120864.7 -85006.633 120864.7 -84939.966 120831.366 -84873.3 120798.033 -84839.966 120731.366 -84806.633 120598.033 -84773.3 120531.366 -84739.966 120498.033 -84706.633 120464.7 -84639.966 120464.7 -84573.3 120498.033 -84506.633 120531.366 -84473.3 120598.033 -84439.966 120764.7 -84439.966 120864.7 -84473.3 M 121264.7 -85139.966 121198.033 -85106.633 121164.7 -85073.3 121131.366 -85006.633 121131.366 -84806.633 121164.7 -84739.966 121198.033 -84706.633 121264.7 -84673.3 121364.7 -84673.3 121431.366 -84706.633 121464.7 -84739.966 121498.033 -84806.633 121498.033 -85006.633 121464.7 -85073.3 121431.366 -85106.633 121364.7 -85139.966 121264.7 -85139.966 M 121898.033 -85139.966 121831.366 -85106.633 121798.033 -85039.966 121798.033 -84439.966 M 122464.7 -85139.966 122464.7 -84773.3 122431.366 -84706.633 122364.7 -84673.3 122231.366 -84673.3 122164.7 -84706.633 M 122464.7 -85106.633 122398.033 -85139.966 122231.366 -85139.966 122164.7 -85106.633 122131.366 -85039.966 122131.366 -84973.3 122164.7 -84906.633 122231.366 -84873.3 122398.033 -84873.3 122464.7 -84839.966 M 122798.033 -85139.966 122798.033 -84673.3 M 122798.033 -84806.633 122831.366 -84739.966 122864.7 -84706.633 122931.366 -84673.3 122998.033 -84673.3 M 123231.366 -85139.966 123231.366 -84439.966 123498.033 -84439.966 123564.7 -84473.3 123598.033 -84506.633 123631.366 -84573.3 123631.366 -84673.3 123598.033 -84739.966 123564.7 -84773.3 123498.033 -84806.633 123231.366 -84806.633 M 124231.366 -85139.966 124231.366 -84773.3 124198.033 -84706.633 124131.366 -84673.3 123998.033 -84673.3 123931.366 -84706.633 M 124231.366 -85106.633 124164.7 -85139.966 123998.033 -85139.966 123931.366 -85106.633 123898.033 -85039.966 123898.033 -84973.3 123931.366 -84906.633 123998.033 -84873.3 124164.7 -84873.3 124231.366 -84839.966 M 124564.7 -84673.3 124564.7 -85139.966 M 124564.7 -84739.966 124598.033 -84706.633 124664.7 -84673.3 124764.7 -84673.3 124831.366 -84706.633 124864.7 -84773.3 124864.7 -85139.966 M 125464.7 -85106.633 125398.033 -85139.966 125264.7 -85139.966 125198.033 -85106.633 125164.7 -85039.966 125164.7 -84773.3 125198.033 -84706.633 125264.7 -84673.3 125398.033 -84673.3 125464.7 -84706.633 125498.033 -84773.3 125498.033 -84839.966 125164.7 -84906.633 M 125898.033 -85139.966 125831.366 -85106.633 125798.033 -85039.966 125798.033 -84439.966 M 126698.033 -85139.966 126698.033 -84439.966 M 127031.366 -85139.966 127031.366 -84439.966 127431.366 -85139.966 127431.366 -84439.966 M 130886.414 -85123.28 130886.414 -84456.614 M 130886.414 -84551.852 130934.033 -84504.233 131029.271 -84456.614 131172.128 -84456.614 131267.366 -84504.233 131314.985 -84599.471 131314.985 -85123.28 M 131314.985 -84599.471 131362.604 -84504.233 131457.842 -84456.614 131600.7 -84456.614 131695.938 -84504.233 131743.557 -84599.471 131743.557 -85123.28 M 132600.7 -85075.661 132505.461 -85123.28 132314.985 -85123.28 132219.747 -85075.661 132172.128 -84980.423 132172.128 -84599.471 132219.747 -84504.233 132314.985 -84456.614 132505.461 -84456.614 132600.7 -84504.233 132648.319 -84599.471 132648.319 -84694.709 132172.128 -84789.947 M 133505.461 -85123.28 133505.461 -84599.471 133457.842 -84504.233 133362.604 -84456.614 133172.128 -84456.614 133076.89 -84504.233 M 133505.461 -85075.661 133410.223 -85123.28 133172.128 -85123.28 133076.89 -85075.661 133029.271 -84980.423 133029.271 -84885.185 133076.89 -84789.947 133172.128 -84742.328 133410.223 -84742.328 133505.461 -84694.709 M 133934.033 -85075.661 134029.271 -85123.28 134219.747 -85123.28 134314.985 -85075.661 134362.604 -84980.423 134362.604 -84932.804 134314.985 -84837.566 134219.747 -84789.947 134076.89 -84789.947 133981.652 -84742.328 133934.033 -84647.09 133934.033 -84599.471 133981.652 -84504.233 134076.89 -84456.614 134219.747 -84456.614 134314.985 -84504.233" fill="none" stroke-width="80"/><path d="M 133283.366 -98677.48 133283.366 -99391.766 133235.747 -99534.623 133140.509 -99629.861 132997.652 -99677.48 132902.414 -99677.48 M 133664.319 -98677.48 134283.366 -98677.48 133950.033 -99058.433 134092.89 -99058.433 134188.128 -99106.052 134235.747 -99153.671 134283.366 -99248.909 134283.366 -99487.004 134235.747 -99582.242 134188.128 -99629.861 134092.89 -99677.48 133807.176 -99677.48 133711.938 -99629.861 133664.319 -99582.242 M 151965.066 -109739.18 151965.066 -110453.466 151917.447 -110596.323 151822.209 -110691.561 151679.352 -110739.18 151584.114 -110739.18 M 152917.447 -109739.18 152441.257 -109739.18 152393.638 -110215.371 152441.257 -110167.752 152536.495 -110120.133 152774.59 -110120.133 152869.828 -110167.752 152917.447 -110215.371 152965.066 -110310.609 152965.066 -110548.704 152917.447 -110643.942 152869.828 -110691.561 152774.59 -110739.18 152536.495 -110739.18 152441.257 -110691.561 152393.638 -110643.942 M 167459.066 -93737.18 167459.066 -94451.466 167411.447 -94594.323 167316.209 -94689.561 167173.352 -94737.18 167078.114 -94737.18 M 168363.828 -93737.18 168173.352 -93737.18 168078.114 -93784.8 168030.495 -93832.419 167935.257 -93975.276 167887.638 -94165.752 167887.638 -94546.704 167935.257 -94641.942 167982.876 -94689.561 168078.114 -94737.18 168268.59 -94737.18 168363.828 -94689.561 168411.447 -94641.942 168459.066 -94546.704 168459.066 -94308.609 168411.447 -94213.371 168363.828 -94165.752 168268.59 -94118.133 168078.114 -94118.133 167982.876 -94165.752 167935.257 -94213.371 167887.638 -94308.609" fill="none" stroke-width="90"/><path d="M 166430.509 -115936.78 167049.557 -115936.78 166716.223 -116317.733 166859.08 -116317.733 166954.319 -116365.352 167001.938 -116412.971 167049.557 -116508.209 167049.557 -116746.304 167001.938 -116841.542 166954.319 -116889.161 166859.08 -116936.78 166573.366 -116936.78 166478.128 -116889.161 166430.509 -116841.542 M 167478.128 -116841.542 167525.747 -116889.161 167478.128 -116936.78 167430.509 -116889.161 167478.128 -116841.542 167478.128 -116936.78 M 167859.08 -115936.78 168478.128 -115936.78 168144.795 -116317.733 168287.652 -116317.733 168382.89 -116365.352 168430.509 -116412.971 168478.128 -116508.209 168478.128 -116746.304 168430.509 -116841.542 168382.89 -116889.161 168287.652 -116936.78 168001.938 -116936.78 167906.7 -116889.161 167859.08 -116841.542 M 168763.842 -115936.78 169097.176 -116936.78 169430.509 -115936.78 M 166865.395 -111831.5 166770.157 -111783.88 166627.3 -111783.88 166484.442 -111831.5 166389.204 -111926.738 166341.585 -112021.976 166293.966 -112212.452 166293.966 -112355.309 166341.585 -112545.785 166389.204 -112641.023 166484.442 -112736.261 166627.3 -112783.88 166722.538 -112783.88 166865.395 -112736.261 166913.014 -112688.642 166913.014 -112355.309 166722.538 -112355.309 M 167341.585 -112783.88 167341.585 -111783.88 167913.014 -112783.88 167913.014 -111783.88 M 168389.204 -112783.88 168389.204 -111783.88 168627.3 -111783.88 168770.157 -111831.5 168865.395 -111926.738 168913.014 -112021.976 168960.633 -112212.452 168960.633 -112355.309 168913.014 -112545.785 168865.395 -112641.023 168770.157 -112736.261 168627.3 -112783.88 168389.204 -112783.88" fill="none" stroke-width="150"/><path d="M 136483.333 -86602.38 136007.142 -86602.38 136007.142 -85602.38 M 137340.476 -86602.38 136769.047 -86602.38 M 137054.761 -86602.38 137054.761 -85602.38 136959.523 -85745.238 136864.285 -85840.476 136769.047 -85888.095 M 156208.433 -95803.98 155732.242 -95803.98 155732.242 -94803.98 M 156494.147 -94899.219 156541.766 -94851.6 156637.004 -94803.98 156875.1 -94803.98 156970.338 -94851.6 157017.957 -94899.219 157065.576 -94994.457 157065.576 -95089.695 157017.957 -95232.552 156446.528 -95803.98 157065.576 -95803.98 M 129538.433 -95207.08 129205.1 -94730.89 M 128967.004 -95207.08 128967.004 -94207.08 129347.957 -94207.08 129443.195 -94254.7 129490.814 -94302.319 129538.433 -94397.557 129538.433 -94540.414 129490.814 -94635.652 129443.195 -94683.271 129347.957 -94730.89 128967.004 -94730.89 M 130490.814 -95207.08 129919.385 -95207.08 M 130205.1 -95207.08 130205.1 -94207.08 130109.861 -94349.938 130014.623 -94445.176 129919.385 -94492.795 M 126922.233 -95232.48 126588.9 -94756.29 M 126350.804 -95232.48 126350.804 -94232.48 126731.757 -94232.48 126826.995 -94280.1 126874.614 -94327.719 126922.233 -94422.957 126922.233 -94565.814 126874.614 -94661.052 126826.995 -94708.671 126731.757 -94756.29 126350.804 -94756.29 M 127303.185 -94327.719 127350.804 -94280.1 127446.042 -94232.48 127684.138 -94232.48 127779.376 -94280.1 127826.995 -94327.719 127874.614 -94422.957 127874.614 -94518.195 127826.995 -94661.052 127255.566 -95232.48 127874.614 -95232.48 M 124191.733 -95232.48 123858.4 -94756.29 M 123620.304 -95232.48 123620.304 -94232.48 124001.257 -94232.48 124096.495 -94280.1 124144.114 -94327.719 124191.733 -94422.957 124191.733 -94565.814 124144.114 -94661.052 124096.495 -94708.671 124001.257 -94756.29 123620.304 -94756.29 M 124525.066 -94232.48 125144.114 -94232.48 124810.78 -94613.433 124953.638 -94613.433 125048.876 -94661.052 125096.495 -94708.671 125144.114 -94803.909 125144.114 -95042.004 125096.495 -95137.242 125048.876 -95184.861 124953.638 -95232.48 124667.923 -95232.48 124572.685 -95184.861 124525.066 -95137.242 M 140257.233 -104973.38 139923.9 -104497.19 M 139685.804 -104973.38 139685.804 -103973.38 140066.757 -103973.38 140161.995 -104021 140209.614 -104068.619 140257.233 -104163.857 140257.233 -104306.714 140209.614 -104401.952 140161.995 -104449.571 140066.757 -104497.19 139685.804 -104497.19 M 141114.376 -104306.714 141114.376 -104973.38 M 140876.28 -103925.761 140638.185 -104640.047 141257.233 -104640.047 M 139390.38 -101309.466 138914.19 -101642.8 M 139390.38 -101880.895 138390.38 -101880.895 138390.38 -101499.942 138438 -101404.704 138485.619 -101357.085 138580.857 -101309.466 138723.714 -101309.466 138818.952 -101357.085 138866.571 -101404.704 138914.19 -101499.942 138914.19 -101880.895 M 138390.38 -100404.704 138390.38 -100880.895 138866.571 -100928.514 138818.952 -100880.895 138771.333 -100785.657 138771.333 -100547.561 138818.952 -100452.323 138866.571 -100404.704 138961.809 -100357.085 139199.904 -100357.085 139295.142 -100404.704 139342.761 -100452.323 139390.38 -100547.561 139390.38 -100785.657 139342.761 -100880.895 139295.142 -100928.514 M 137425.133 -110205.78 137091.8 -109729.59 M 136853.704 -110205.78 136853.704 -109205.78 137234.657 -109205.78 137329.895 -109253.4 137377.514 -109301.019 137425.133 -109396.257 137425.133 -109539.114 137377.514 -109634.352 137329.895 -109681.971 137234.657 -109729.59 136853.704 -109729.59 M 138282.276 -109205.78 138091.8 -109205.78 137996.561 -109253.4 137948.942 -109301.019 137853.704 -109443.876 137806.085 -109634.352 137806.085 -110015.304 137853.704 -110110.542 137901.323 -110158.161 137996.561 -110205.78 138187.038 -110205.78 138282.276 -110158.161 138329.895 -110110.542 138377.514 -110015.304 138377.514 -109777.209 138329.895 -109681.971 138282.276 -109634.352 138187.038 -109586.733 137996.561 -109586.733 137901.323 -109634.352 137853.704 -109681.971 137806.085 -109777.209 M 129894.033 -106078.28 129560.7 -105602.09 M 129322.604 -106078.28 129322.604 -105078.28 129703.557 -105078.28 129798.795 -105125.9 129846.414 -105173.519 129894.033 -105268.757 129894.033 -105411.614 129846.414 -105506.852 129798.795 -105554.471 129703.557 -105602.09 129322.604 -105602.09 M 130227.366 -105078.28 130894.033 -105078.28 130465.461 -106078.28 M 166260.566 -104583.666 166027.233 -104250.333 M 165860.566 -104583.666 165860.566 -103883.666 166127.233 -103883.666 166193.9 -103917 166227.233 -103950.333 166260.566 -104017 166260.566 -104117 166227.233 -104183.666 166193.9 -104217 166127.233 -104250.333 165860.566 -104250.333 M 166693.9 -103883.666 166827.233 -103883.666 166893.9 -103917 166960.566 -103983.666 166993.9 -104117 166993.9 -104350.333 166960.566 -104483.666 166893.9 -104550.333 166827.233 -104583.666 166693.9 -104583.666 166627.233 -104550.333 166560.566 -104483.666 166527.233 -104350.333 166527.233 -104117 166560.566 -103983.666 166627.233 -103917 166693.9 -103883.666 M 167293.9 -104583.666 167293.9 -103883.666 M 167693.9 -104583.666 167393.9 -104183.666 M 167693.9 -103883.666 167293.9 -104283.666 M 168360.566 -104583.666 167960.566 -104583.666 M 168160.566 -104583.666 168160.566 -103883.666 168093.9 -103983.666 168027.233 -104050.333 167960.566 -104083.666 M 166616.166 -109320.766 166382.833 -108987.433 M 166216.166 -109320.766 166216.166 -108620.766 166482.833 -108620.766 166549.5 -108654.1 166582.833 -108687.433 166616.166 -108754.1 166616.166 -108854.1 166582.833 -108920.766 166549.5 -108954.1 166482.833 -108987.433 166216.166 -108987.433 M 167049.5 -108620.766 167182.833 -108620.766 167249.5 -108654.1 167316.166 -108720.766 167349.5 -108854.1 167349.5 -109087.433 167316.166 -109220.766 167249.5 -109287.433 167182.833 -109320.766 167049.5 -109320.766 166982.833 -109287.433 166916.166 -109220.766 166882.833 -109087.433 166882.833 -108854.1 166916.166 -108720.766 166982.833 -108654.1 167049.5 -108620.766 M 167649.5 -109320.766 167649.5 -108620.766 M 168049.5 -109320.766 167749.5 -108920.766 M 168049.5 -108620.766 167649.5 -109020.766 M 168316.166 -108687.433 168349.5 -108654.1 168416.166 -108620.766 168582.833 -108620.766 168649.5 -108654.1 168682.833 -108687.433 168716.166 -108754.1 168716.166 -108820.766 168682.833 -108920.766 168282.833 -109320.766 168716.166 -109320.766 M 163695.166 -110324.066 163461.833 -109990.733 M 163295.166 -110324.066 163295.166 -109624.066 163561.833 -109624.066 163628.5 -109657.4 163661.833 -109690.733 163695.166 -109757.4 163695.166 -109857.4 163661.833 -109924.066 163628.5 -109957.4 163561.833 -109990.733 163295.166 -109990.733 M 164128.5 -109624.066 164261.833 -109624.066 164328.5 -109657.4 164395.166 -109724.066 164428.5 -109857.4 164428.5 -110090.733 164395.166 -110224.066 164328.5 -110290.733 164261.833 -110324.066 164128.5 -110324.066 164061.833 -110290.733 163995.166 -110224.066 163961.833 -110090.733 163961.833 -109857.4 163995.166 -109724.066 164061.833 -109657.4 164128.5 -109624.066 M 164728.5 -110324.066 164728.5 -109624.066 M 165128.5 -110324.066 164828.5 -109924.066 M 165128.5 -109624.066 164728.5 -110024.066 M 165361.833 -109624.066 165795.166 -109624.066 165561.833 -109890.733 165661.833 -109890.733 165728.5 -109924.066 165761.833 -109957.4 165795.166 -110024.066 165795.166 -110190.733 165761.833 -110257.4 165728.5 -110290.733 165661.833 -110324.066 165461.833 -110324.066 165395.166 -110290.733 165361.833 -110257.4 M 158068.266 -110209.766 157834.933 -109876.433 M 157668.266 -110209.766 157668.266 -109509.766 157934.933 -109509.766 158001.6 -109543.1 158034.933 -109576.433 158068.266 -109643.1 158068.266 -109743.1 158034.933 -109809.766 158001.6 -109843.1 157934.933 -109876.433 157668.266 -109876.433 M 158501.6 -109509.766 158634.933 -109509.766 158701.6 -109543.1 158768.266 -109609.766 158801.6 -109743.1 158801.6 -109976.433 158768.266 -110109.766 158701.6 -110176.433 158634.933 -110209.766 158501.6 -110209.766 158434.933 -110176.433 158368.266 -110109.766 158334.933 -109976.433 158334.933 -109743.1 158368.266 -109609.766 158434.933 -109543.1 158501.6 -109509.766 M 159001.6 -109509.766 159234.933 -110209.766 159468.266 -109509.766 M 160068.266 -110209.766 159668.266 -110209.766 M 159868.266 -110209.766 159868.266 -109509.766 159801.6 -109609.766 159734.933 -109676.433 159668.266 -109709.766 M 160913.066 -109295.366 160679.733 -108962.033 M 160513.066 -109295.366 160513.066 -108595.366 160779.733 -108595.366 160846.4 -108628.7 160879.733 -108662.033 160913.066 -108728.7 160913.066 -108828.7 160879.733 -108895.366 160846.4 -108928.7 160779.733 -108962.033 160513.066 -108962.033 M 161346.4 -108595.366 161479.733 -108595.366 161546.4 -108628.7 161613.066 -108695.366 161646.4 -108828.7 161646.4 -109062.033 161613.066 -109195.366 161546.4 -109262.033 161479.733 -109295.366 161346.4 -109295.366 161279.733 -109262.033 161213.066 -109195.366 161179.733 -109062.033 161179.733 -108828.7 161213.066 -108695.366 161279.733 -108628.7 161346.4 -108595.366 M 161846.4 -108595.366 162079.733 -109295.366 162313.066 -108595.366 M 162513.066 -108662.033 162546.4 -108628.7 162613.066 -108595.366 162779.733 -108595.366 162846.4 -108628.7 162879.733 -108662.033 162913.066 -108728.7 162913.066 -108795.366 162879.733 -108895.366 162479.733 -109295.366 162913.066 -109295.366" fill="none" stroke-width="90"/><path d="M 152316.323 -89584.161 152459.18 -89631.78 152697.276 -89631.78 152792.514 -89584.161 152840.133 -89536.542 152887.752 -89441.304 152887.752 -89346.066 152840.133 -89250.828 152792.514 -89203.209 152697.276 -89155.59 152506.8 -89107.971 152411.561 -89060.352 152363.942 -89012.733 152316.323 -88917.495 152316.323 -88822.257 152363.942 -88727.019 152411.561 -88679.4 152506.8 -88631.78 152744.895 -88631.78 152887.752 -88679.4 M 153316.323 -88631.78 153316.323 -89441.304 153363.942 -89536.542 153411.561 -89584.161 153506.8 -89631.78 153697.276 -89631.78 153792.514 -89584.161 153840.133 -89536.542 153887.752 -89441.304 153887.752 -88631.78 M 154363.942 -89631.78 154363.942 -88631.78 154744.895 -88631.78 154840.133 -88679.4 154887.752 -88727.019 154935.371 -88822.257 154935.371 -88965.114 154887.752 -89060.352 154840.133 -89107.971 154744.895 -89155.59 154363.942 -89155.59 M 155363.942 -89107.971 155697.276 -89107.971 M 155840.133 -89631.78 155363.942 -89631.78 155363.942 -88631.78 155840.133 -88631.78 M 156840.133 -89631.78 156506.8 -89155.59 M 156268.704 -89631.78 156268.704 -88631.78 156649.657 -88631.78 156744.895 -88679.4 156792.514 -88727.019 156840.133 -88822.257 156840.133 -88965.114 156792.514 -89060.352 156744.895 -89107.971 156649.657 -89155.59 156268.704 -89155.59 M 157840.133 -89536.542 157792.514 -89584.161 157649.657 -89631.78 157554.419 -89631.78 157411.561 -89584.161 157316.323 -89488.923 157268.704 -89393.685 157221.085 -89203.209 157221.085 -89060.352 157268.704 -88869.876 157316.323 -88774.638 157411.561 -88679.4 157554.419 -88631.78 157649.657 -88631.78 157792.514 -88679.4 157840.133 -88727.019 M 158221.085 -89346.066 158697.276 -89346.066 M 158125.847 -89631.78 158459.18 -88631.78 158792.514 -89631.78 M 159125.847 -89631.78 159125.847 -88631.78 159506.8 -88631.78 159602.038 -88679.4 159649.657 -88727.019 159697.276 -88822.257 159697.276 -88965.114 159649.657 -89060.352 159602.038 -89107.971 159506.8 -89155.59 159125.847 -89155.59" fill="none" stroke-width="150"/><path d="M 131045.261 -98177.309 131159.547 -98215.404 131350.023 -98215.404 131426.214 -98177.309 131464.309 -98139.214 131502.404 -98063.023 131502.404 -97986.833 131464.309 -97910.642 131426.214 -97872.547 131350.023 -97834.452 131197.642 -97796.357 131121.452 -97758.261 131083.357 -97720.166 131045.261 -97643.976 131045.261 -97567.785 131083.357 -97491.595 131121.452 -97453.5 131197.642 -97415.404 131388.119 -97415.404 131502.404 -97453.5 M 131845.261 -98215.404 131845.261 -97415.404 132150.023 -97415.404 132226.214 -97453.5 132264.309 -97491.595 132302.404 -97567.785 132302.404 -97682.071 132264.309 -97758.261 132226.214 -97796.357 132150.023 -97834.452 131845.261 -97834.452 M 132530.976 -97415.404 132797.642 -98215.404 133064.309 -97415.404 M 133750.023 -98215.404 133292.88 -98215.404 M 133521.452 -98215.404 133521.452 -97415.404 133445.261 -97529.69 133369.071 -97605.88 133292.88 -97643.976 M 134245.261 -97415.404 134321.452 -97415.404 134397.642 -97453.5 134435.738 -97491.595 134473.833 -97567.785 134511.928 -97720.166 134511.928 -97910.642 134473.833 -98063.023 134435.738 -98139.214 134397.642 -98177.309 134321.452 -98215.404 134245.261 -98215.404 134169.071 -98177.309 134130.976 -98139.214 134092.88 -98063.023 134054.785 -97910.642 134054.785 -97720.166 134092.88 -97567.785 134130.976 -97491.595 134169.071 -97453.5 134245.261 -97415.404 M 135235.738 -97415.404 134854.785 -97415.404 134816.69 -97796.357 134854.785 -97758.261 134930.976 -97720.166 135121.452 -97720.166 135197.642 -97758.261 135235.738 -97796.357 135273.833 -97872.547 135273.833 -98063.023 135235.738 -98139.214 135197.642 -98177.309 135121.452 -98215.404 134930.976 -98215.404 134854.785 -98177.309 134816.69 -98139.214 M 135769.071 -97415.404 135845.261 -97415.404 135921.452 -97453.5 135959.547 -97491.595 135997.642 -97567.785 136035.738 -97720.166 136035.738 -97910.642 135997.642 -98063.023 135959.547 -98139.214 135921.452 -98177.309 135845.261 -98215.404 135769.071 -98215.404 135692.88 -98177.309 135654.785 -98139.214 135616.69 -98063.023 135578.595 -97910.642 135578.595 -97720.166 135616.69 -97567.785 135654.785 -97491.595 135692.88 -97453.5 135769.071 -97415.404" fill="none" stroke-width="50"/><path d="M 155938.166 -103302.6 156038.166 -103335.933 156071.5 -103369.266 156104.833 -103435.933 156104.833 -103535.933 156071.5 -103602.6 156038.166 -103635.933 155971.5 -103669.266 155704.833 -103669.266 155704.833 -102969.266 155938.166 -102969.266 156004.833 -103002.6 156038.166 -103035.933 156071.5 -103102.6 156071.5 -103169.266 156038.166 -103235.933 156004.833 -103269.266 155938.166 -103302.6 155704.833 -103302.6 M 156871.5 -103735.933 156804.833 -103702.6 156738.166 -103635.933 156638.166 -103535.933 156571.5 -103502.6 156504.833 -103502.6 M 156538.166 -103669.266 156471.5 -103635.933 156404.833 -103569.266 156371.5 -103435.933 156371.5 -103202.6 156404.833 -103069.266 156471.5 -103002.6 156538.166 -102969.266 156671.5 -102969.266 156738.166 -103002.6 156804.833 -103069.266 156838.166 -103202.6 156838.166 -103435.933 156804.833 -103569.266 156738.166 -103635.933 156671.5 -103669.266 156538.166 -103669.266 M 157104.833 -103035.933 157138.166 -103002.6 157204.833 -102969.266 157371.5 -102969.266 157438.166 -103002.6 157471.5 -103035.933 157504.833 -103102.6 157504.833 -103169.266 157471.5 -103269.266 157071.5 -103669.266 157504.833 -103669.266 M 158138.166 -102969.266 157804.833 -102969.266 157771.5 -103302.6 157804.833 -103269.266 157871.5 -103235.933 158038.166 -103235.933 158104.833 -103269.266 158138.166 -103302.6 158171.5 -103369.266 158171.5 -103535.933 158138.166 -103602.6 158104.833 -103635.933 158038.166 -103669.266 157871.5 -103669.266 157804.833 -103635.933 157771.5 -103602.6 M 158804.833 -102969.266 158471.5 -102969.266 158438.166 -103302.6 158471.5 -103269.266 158538.166 -103235.933 158704.833 -103235.933 158771.5 -103269.266 158804.833 -103302.6 158838.166 -103369.266 158838.166 -103535.933 158804.833 -103602.6 158771.5 -103635.933 158704.833 -103669.266 158538.166 -103669.266 158471.5 -103635.933 158438.166 -103602.6 M 159271.5 -102969.266 159338.166 -102969.266 159404.833 -103002.6 159438.166 -103035.933 159471.5 -103102.6 159504.833 -103235.933 159504.833 -103402.6 159471.5 -103535.933 159438.166 -103602.6 159404.833 -103635.933 159338.166 -103669.266 159271.5 -103669.266 159204.833 -103635.933 159171.5 -103602.6 159138.166 -103535.933 159104.833 -103402.6 159104.833 -103235.933 159138.166 -103102.6 159171.5 -103035.933 159204.833 -103002.6 159271.5 -102969.266 M 160138.166 -102969.266 159804.833 -102969.266 159771.5 -103302.6 159804.833 -103269.266 159871.5 -103235.933 160038.166 -103235.933 160104.833 -103269.266 160138.166 -103302.6 160171.5 -103369.266 160171.5 -103535.933 160138.166 -103602.6 160104.833 -103635.933 160038.166 -103669.266 159871.5 -103669.266 159804.833 -103635.933 159771.5 -103602.6 M 160871.5 -103669.266 160638.166 -103335.933 M 160471.5 -103669.266 160471.5 -102969.266 160738.166 -102969.266 160804.833 -103002.6 160838.166 -103035.933 160871.5 -103102.6 160871.5 -103202.6 160838.166 -103269.266 160804.833 -103302.6 160738.166 -103335.933 160471.5 -103335.933 M 161538.166 -103002.6 161471.5 -102969.266 161371.5 -102969.266 161271.5 -103002.6 161204.833 -103069.266 161171.5 -103135.933 161138.166 -103269.266 161138.166 -103369.266 161171.5 -103502.6 161204.833 -103569.266 161271.5 -103635.933 161371.5 -103669.266 161438.166 -103669.266 161538.166 -103635.933 161571.5 -103602.6 161571.5 -103369.266 161438.166 -103369.266 M 162271.5 -103669.266 162038.166 -103335.933 M 161871.5 -103669.266 161871.5 -102969.266 162138.166 -102969.266 162204.833 -103002.6 162238.166 -103035.933 162271.5 -103102.6 162271.5 -103202.6 162238.166 -103269.266 162204.833 -103302.6 162138.166 -103335.933 161871.5 -103335.933 M 162971.5 -103669.266 162738.166 -103335.933 M 162571.5 -103669.266 162571.5 -102969.266 162838.166 -102969.266 162904.833 -103002.6 162938.166 -103035.933 162971.5 -103102.6 162971.5 -103202.6 162938.166 -103269.266 162904.833 -103302.6 162838.166 -103335.933 162571.5 -103335.933" fill="none" stroke-width="80"/><path d="M 156465 -97521.38 156465 -97759.476 M 156226.904 -97664.238 156465 -97759.476 156703.095 -97664.238 M 156322.142 -97949.952 156465 -97759.476 156607.857 -97949.952 M 156465 -97521.38 156465 -97759.476 M 156226.904 -97664.238 156465 -97759.476 156703.095 -97664.238 M 156322.142 -97949.952 156465 -97759.476 156607.857 -97949.952" fill="none" stroke-width="150"/><path d="M 174944.066 -111278.657 174944.066 -110802.466 M 175229.78 -111373.895 174229.78 -111040.561 175229.78 -110707.228 M 175229.78 -110373.895 174229.78 -110373.895 174229.78 -109992.942 174277.4 -109897.704 174325.019 -109850.085 174420.257 -109802.466 174563.114 -109802.466 174658.352 -109850.085 174705.971 -109897.704 174753.59 -109992.942 174753.59 -110373.895 M 174229.78 -109469.133 174229.78 -108802.466 175229.78 -109231.038 M 174229.78 -108516.752 174229.78 -107897.704 174610.733 -108231.038 174610.733 -108088.18 174658.352 -107992.942 174705.971 -107945.323 174801.209 -107897.704 175039.304 -107897.704 175134.542 -107945.323 175182.161 -107992.942 175229.78 -108088.18 175229.78 -108373.895 175182.161 -108469.133 175134.542 -108516.752 M 174229.78 -107040.561 174229.78 -107231.038 174277.4 -107326.276 174325.019 -107373.895 174467.876 -107469.133 174658.352 -107516.752 175039.304 -107516.752 175134.542 -107469.133 175182.161 -107421.514 175229.78 -107326.276 175229.78 -107135.8 175182.161 -107040.561 175134.542 -106992.942 175039.304 -106945.323 174801.209 -106945.323 174705.971 -106992.942 174658.352 -107040.561 174610.733 -107135.8 174610.733 -107326.276 174658.352 -107421.514 174705.971 -107469.133 174801.209 -107516.752 M 174229.78 -106040.561 174229.78 -106516.752 174705.971 -106564.371 174658.352 -106516.752 174610.733 -106421.514 174610.733 -106183.419 174658.352 -106088.18 174705.971 -106040.561 174801.209 -105992.942 175039.304 -105992.942 175134.542 -106040.561 175182.161 -106088.18 175229.78 -106183.419 175229.78 -106421.514 175182.161 -106516.752 175134.542 -106564.371" fill="none" stroke-width="90"/><path d="M 174096.18 -105446 174334.276 -105446 M 174239.038 -105684.095 174334.276 -105446 174239.038 -105207.904 M 174524.752 -105588.857 174334.276 -105446 174524.752 -105303.142 M 174096.18 -105446 174334.276 -105446 M 174239.038 -105684.095 174334.276 -105446 174239.038 -105207.904 M 174524.752 -105588.857 174334.276 -105446 174524.752 -105303.142" fill="none" stroke-width="150"/></g></svg>