<svg version="1.1" xmlns="http://www.w3.org/2000/svg" xmlns:xlink="http://www.w3.org/1999/xlink" stroke-linecap="round" stroke-linejoin="round" stroke-width="0" fill-rule="evenodd" width="47.8mm" height="30.4mm" viewBox="121500 -117000 47800 30400" id="TGaus_RcErbfutWev_VZ"><defs><circle cx="0" cy="0" r="127" id="TGaus_RcErbfutWev_VZ_pad-1"/><circle cx="0" cy="0" r="200" id="TGaus_RcErbfutWev_VZ_pad-2"/><circle cx="0" cy="0" r="400" id="TGaus_RcErbfutWev_VZ_pad-3"/><circle cx="0" cy="0" r="500" id="TGaus_RcErbfutWev_VZ_pad-4"/></defs><g transform="translate(0,-203600) scale(1,-1)" fill="currentColor" stroke="currentColor"><use xlink:href="#TGaus_RcErbfutWev_VZ_pad-1" x="158856" y="-99306"/><use xlink:href="#TGaus_RcErbfutWev_VZ_pad-1" x="158856" y="-100094"/><use xlink:href="#TGaus_RcErbfutWev_VZ_pad-1" x="159644" y="-99306"/><use xlink:href="#TGaus_RcErbfutWev_VZ_pad-1" x="159644" y="-100094"/><use xlink:href="#TGaus_RcErbfutWev_VZ_pad-2" x="127800" y="-106500"/><use xlink:href="#TGaus_RcErbfutWev_VZ_pad-2" x="137100" y="-93400"/><use xlink:href="#TGaus_RcErbfutWev_VZ_pad-2" x="154800" y="-102450"/><use xlink:href="#TGaus_RcErbfutWev_VZ_pad-2" x="161200" y="-94550"/><use xlink:href="#TGaus_RcErbfutWev_VZ_pad-3" x="143700" y="-87100"/><use xlink:href="#TGaus_RcErbfutWev_VZ_pad-3" x="143700" y="-90600"/><use xlink:href="#TGaus_RcErbfutWev_VZ_pad-4" x="147150" y="-95310"/><use xlink:href="#TGaus_RcErbfutWev_VZ_pad-4" x="147150" y="-97850"/><use xlink:href="#TGaus_RcErbfutWev_VZ_pad-4" x="168800" y="-96600"/><use xlink:href="#TGaus_RcErbfutWev_VZ_pad-4" x="168800" y="-99140"/><use xlink:href="#TGaus_RcErbfutWev_VZ_pad-4" x="124820" y="-116500"/><use xlink:href="#TGaus_RcErbfutWev_VZ_pad-4" x="127360" y="-116500"/><use xlink:href="#TGaus_RcErbfutWev_VZ_pad-4" x="129900" y="-116500"/><use xlink:href="#TGaus_RcErbfutWev_VZ_pad-4" x="132440" y="-116500"/><use xlink:href="#TGaus_RcErbfutWev_VZ_pad-4" x="134980" y="-116500"/><use xlink:href="#TGaus_RcErbfutWev_VZ_pad-4" x="137520" y="-116500"/><use xlink:href="#TGaus_RcErbfutWev_VZ_pad-4" x="140060" y="-116500"/><use xlink:href="#TGaus_RcErbfutWev_VZ_pad-4" x="142600" y="-116500"/><use xlink:href="#TGaus_RcErbfutWev_VZ_pad-4" x="124820" y="-112600"/><use xlink:href="#TGaus_RcErbfutWev_VZ_pad-4" x="127360" y="-112600"/><use xlink:href="#TGaus_RcErbfutWev_VZ_pad-4" x="129900" y="-112600"/><use xlink:href="#TGaus_RcErbfutWev_VZ_pad-4" x="132440" y="-112600"/><use xlink:href="#TGaus_RcErbfutWev_VZ_pad-4" x="134980" y="-112600"/><use xlink:href="#TGaus_RcErbfutWev_VZ_pad-4" x="137520" y="-112600"/><use xlink:href="#TGaus_RcErbfutWev_VZ_pad-4" x="140060" y="-112600"/><use xlink:href="#TGaus_RcErbfutWev_VZ_pad-4" x="142600" y="-112600"/><use xlink:href="#TGaus_RcErbfutWev_VZ_pad-4" x="146800" y="-116500"/><use xlink:href="#TGaus_RcErbfutWev_VZ_pad-4" x="149340" y="-116500"/><use xlink:href="#TGaus_RcErbfutWev_VZ_pad-4" x="151880" y="-116500"/><use xlink:href="#TGaus_RcErbfutWev_VZ_pad-4" x="154420" y="-116500"/><use xlink:href="#TGaus_RcErbfutWev_VZ_pad-4" x="156960" y="-116500"/><use xlink:href="#TGaus_RcErbfutWev_VZ_pad-4" x="159500" y="-116500"/><use xlink:href="#TGaus_RcErbfutWev_VZ_pad-4" x="162040" y="-116500"/><use xlink:href="#TGaus_RcErbfutWev_VZ_pad-4" x="164580" y="-116500"/><use xlink:href="#TGaus_RcErbfutWev_VZ_pad-4" x="146800" y="-112600"/><use xlink:href="#TGaus_RcErbfutWev_VZ_pad-4" x="149340" y="-112600"/><use xlink:href="#TGaus_RcErbfutWev_VZ_pad-4" x="151880" y="-112600"/><use xlink:href="#TGaus_RcErbfutWev_VZ_pad-4" x="154420" y="-112600"/><use xlink:href="#TGaus_RcErbfutWev_VZ_pad-4" x="156960" y="-112600"/><use xlink:href="#TGaus_RcErbfutWev_VZ_pad-4" x="159500" y="-112600"/><use xlink:href="#TGaus_RcErbfutWev_VZ_pad-4" x="162040" y="-112600"/><use xlink:href="#TGaus_RcErbfutWev_VZ_pad-4" x="164580" y="-112600"/><use xlink:href="#TGaus_RcErbfutWev_VZ_pad-4" x="128360" y="-87100"/><use xlink:href="#TGaus_RcErbfutWev_VZ_pad-4" x="130900" y="-87100"/><use xlink:href="#TGaus_RcErbfutWev_VZ_pad-4" x="152300" y="-105460"/><use xlink:href="#TGaus_RcErbfutWev_VZ_pad-4" x="152300" y="-108000"/><use xlink:href="#TGaus_RcErbfutWev_VZ_pad-4" x="122000" y="-87100"/><use xlink:href="#TGaus_RcErbfutWev_VZ_pad-4" x="124540" y="-87100"/><use xlink:href="#TGaus_RcErbfutWev_VZ_pad-4" x="164500" y="-96600"/><use xlink:href="#TGaus_RcErbfutWev_VZ_pad-4" x="164500" y="-99140"/><use xlink:href="#TGaus_RcErbfutWev_VZ_pad-4" x="133600" y="-101460"/><use xlink:href="#TGaus_RcErbfutWev_VZ_pad-4" x="133600" y="-104000"/></g></svg>