M48
;DRILL file {KiCad (5.0.1)-3} date 08/04/2020 16:22:04
;FORMAT={-:-/ absolute / metric / decimal}
FMAT,2
METRIC,TZ
T1C0.350
T2C0.400
T3C0.800
T4C1.000
%
G90
G05
M71
T1
X158.856Y-99.306
X158.856Y-100.094
X159.644Y-99.306
X159.644Y-100.094
T2
X127.8Y-106.5
X137.1Y-93.4
X154.8Y-102.45
X161.2Y-94.55
T3
X143.7Y-87.1
X143.7Y-90.6
T4
X164.5Y-96.6
X164.5Y-99.14
X168.8Y-96.6
X168.8Y-99.14
X147.15Y-95.31
X147.15Y-97.85
X146.8Y-112.6
X149.34Y-112.6
X151.88Y-112.6
X154.42Y-112.6
X156.96Y-112.6
X159.5Y-112.6
X162.04Y-112.6
X164.58Y-112.6
X133.6Y-101.46
X133.6Y-104.
X146.8Y-116.5
X149.34Y-116.5
X151.88Y-116.5
X154.42Y-116.5
X156.96Y-116.5
X159.5Y-116.5
X162.04Y-116.5
X164.58Y-116.5
X124.82Y-112.6
X127.36Y-112.6
X129.9Y-112.6
X132.44Y-112.6
X134.98Y-112.6
X137.52Y-112.6
X140.06Y-112.6
X142.6Y-112.6
X122.Y-87.1
X124.54Y-87.1
X152.3Y-105.46
X152.3Y-108.
X128.36Y-87.1
X130.9Y-87.1
X124.82Y-116.5
X127.36Y-116.5
X129.9Y-116.5
X132.44Y-116.5
X134.98Y-116.5
X137.52Y-116.5
X140.06Y-116.5
X142.6Y-116.5
T0
M30
