G04 #@! TF.GenerationSoftware,KiCad,Pcbnew,(5.0.1)-3*
G04 #@! TF.CreationDate,2020-04-08T16:21:39+02:00*
G04 #@! TF.ProjectId,schema_pcb,736368656D615F7063622E6B69636164,rev?*
G04 #@! TF.SameCoordinates,Original*
G04 #@! TF.FileFunction,Legend,Top*
G04 #@! TF.FilePolarity,Positive*
%FSLAX46Y46*%
G04 Gerber Fmt 4.6, Leading zero omitted, Abs format (unit mm)*
G04 Created by KiCad (PCBNEW (5.0.1)-3) date 08/04/2020 16:21:39*
%MOMM*%
%LPD*%
G01*
G04 APERTURE LIST*
%ADD10C,0.200000*%
%ADD11C,0.100000*%
%ADD12C,0.120000*%
%ADD13C,0.152400*%
%ADD14C,0.090000*%
%ADD15C,0.020000*%
%ADD16C,0.080000*%
%ADD17C,0.150000*%
%ADD18C,0.050000*%
G04 APERTURE END LIST*
D10*
X122086803Y-108304514D02*
X122386803Y-108304514D01*
X122456446Y-108775942D02*
X122027874Y-108775942D01*
X122140374Y-107875942D01*
X122568946Y-107875942D01*
X122917160Y-108175942D02*
X122842160Y-108775942D01*
X122906446Y-108261657D02*
X122954660Y-108218800D01*
X123045732Y-108175942D01*
X123174303Y-108175942D01*
X123254660Y-108218800D01*
X123286803Y-108304514D01*
X123227874Y-108775942D01*
X124004660Y-108733085D02*
X123913589Y-108775942D01*
X123742160Y-108775942D01*
X123661803Y-108733085D01*
X123629660Y-108647371D01*
X123672517Y-108304514D01*
X123726089Y-108218800D01*
X123817160Y-108175942D01*
X123988589Y-108175942D01*
X124068946Y-108218800D01*
X124101089Y-108304514D01*
X124090374Y-108390228D01*
X123651089Y-108475942D01*
X124427874Y-108775942D02*
X124502874Y-108175942D01*
X124481446Y-108347371D02*
X124535017Y-108261657D01*
X124583232Y-108218800D01*
X124674303Y-108175942D01*
X124760017Y-108175942D01*
X125445732Y-108175942D02*
X125354660Y-108904514D01*
X125301089Y-108990228D01*
X125252874Y-109033085D01*
X125161803Y-109075942D01*
X125033232Y-109075942D01*
X124952874Y-109033085D01*
X125376089Y-108733085D02*
X125285017Y-108775942D01*
X125113589Y-108775942D01*
X125033232Y-108733085D01*
X124995732Y-108690228D01*
X124963589Y-108604514D01*
X124995732Y-108347371D01*
X125049303Y-108261657D01*
X125097517Y-108218800D01*
X125188589Y-108175942D01*
X125360017Y-108175942D01*
X125440374Y-108218800D01*
X125788589Y-108175942D02*
X125927874Y-108775942D01*
X126217160Y-108175942D02*
X125927874Y-108775942D01*
X125815374Y-108990228D01*
X125767160Y-109033085D01*
X125676089Y-109075942D01*
X127170732Y-108775942D02*
X127283232Y-107875942D01*
X127229660Y-108304514D02*
X127743946Y-108304514D01*
X127685017Y-108775942D02*
X127797517Y-107875942D01*
X128499303Y-108775942D02*
X128558232Y-108304514D01*
X128526089Y-108218800D01*
X128445732Y-108175942D01*
X128274303Y-108175942D01*
X128183232Y-108218800D01*
X128504660Y-108733085D02*
X128413589Y-108775942D01*
X128199303Y-108775942D01*
X128118946Y-108733085D01*
X128086803Y-108647371D01*
X128097517Y-108561657D01*
X128151089Y-108475942D01*
X128242160Y-108433085D01*
X128456446Y-108433085D01*
X128547517Y-108390228D01*
X128927874Y-108775942D02*
X129002874Y-108175942D01*
X128981446Y-108347371D02*
X129035017Y-108261657D01*
X129083232Y-108218800D01*
X129174303Y-108175942D01*
X129260017Y-108175942D01*
X129474303Y-108175942D02*
X129613589Y-108775942D01*
X129902874Y-108175942D01*
X130518946Y-108733085D02*
X130427875Y-108775942D01*
X130256446Y-108775942D01*
X130176089Y-108733085D01*
X130143946Y-108647371D01*
X130186803Y-108304514D01*
X130240375Y-108218800D01*
X130331446Y-108175942D01*
X130502875Y-108175942D01*
X130583232Y-108218800D01*
X130615374Y-108304514D01*
X130604660Y-108390228D01*
X130165374Y-108475942D01*
X130904660Y-108733085D02*
X130985017Y-108775942D01*
X131156446Y-108775942D01*
X131247517Y-108733085D01*
X131301089Y-108647371D01*
X131306446Y-108604514D01*
X131274303Y-108518800D01*
X131193946Y-108475942D01*
X131065375Y-108475942D01*
X130985017Y-108433085D01*
X130952874Y-108347371D01*
X130958232Y-108304514D01*
X131011803Y-108218800D01*
X131102875Y-108175942D01*
X131231446Y-108175942D01*
X131311803Y-108218800D01*
X131617160Y-108175942D02*
X131960017Y-108175942D01*
X131783232Y-107875942D02*
X131686803Y-108647371D01*
X131718946Y-108733085D01*
X131799303Y-108775942D01*
X131885017Y-108775942D01*
X132185017Y-108775942D02*
X132260017Y-108175942D01*
X132297517Y-107875942D02*
X132249303Y-107918800D01*
X132286803Y-107961657D01*
X132335017Y-107918800D01*
X132297517Y-107875942D01*
X132286803Y-107961657D01*
X132688589Y-108175942D02*
X132613589Y-108775942D01*
X132677875Y-108261657D02*
X132726089Y-108218800D01*
X132817160Y-108175942D01*
X132945732Y-108175942D01*
X133026089Y-108218800D01*
X133058232Y-108304514D01*
X132999303Y-108775942D01*
X133888589Y-108175942D02*
X133797517Y-108904514D01*
X133743946Y-108990228D01*
X133695732Y-109033085D01*
X133604660Y-109075942D01*
X133476089Y-109075942D01*
X133395732Y-109033085D01*
X133818946Y-108733085D02*
X133727875Y-108775942D01*
X133556446Y-108775942D01*
X133476089Y-108733085D01*
X133438589Y-108690228D01*
X133406446Y-108604514D01*
X133438589Y-108347371D01*
X133492160Y-108261657D01*
X133540375Y-108218800D01*
X133631446Y-108175942D01*
X133802875Y-108175942D01*
X133883232Y-108218800D01*
X122826089Y-109425942D02*
X123340375Y-109425942D01*
X122970732Y-110325942D02*
X123083232Y-109425942D01*
X123876089Y-110283085D02*
X123785017Y-110325942D01*
X123613589Y-110325942D01*
X123533232Y-110283085D01*
X123501089Y-110197371D01*
X123543946Y-109854514D01*
X123597517Y-109768800D01*
X123688589Y-109725942D01*
X123860017Y-109725942D01*
X123940375Y-109768800D01*
X123972517Y-109854514D01*
X123961803Y-109940228D01*
X123522517Y-110025942D01*
X124685017Y-110325942D02*
X124743946Y-109854514D01*
X124711803Y-109768800D01*
X124631446Y-109725942D01*
X124460017Y-109725942D01*
X124368946Y-109768800D01*
X124690375Y-110283085D02*
X124599303Y-110325942D01*
X124385017Y-110325942D01*
X124304660Y-110283085D01*
X124272517Y-110197371D01*
X124283232Y-110111657D01*
X124336803Y-110025942D01*
X124427875Y-109983085D01*
X124642160Y-109983085D01*
X124733232Y-109940228D01*
X125113589Y-110325942D02*
X125188589Y-109725942D01*
X125177875Y-109811657D02*
X125226089Y-109768800D01*
X125317160Y-109725942D01*
X125445732Y-109725942D01*
X125526089Y-109768800D01*
X125558232Y-109854514D01*
X125499303Y-110325942D01*
X125558232Y-109854514D02*
X125611803Y-109768800D01*
X125702875Y-109725942D01*
X125831446Y-109725942D01*
X125911803Y-109768800D01*
X125943946Y-109854514D01*
X125885017Y-110325942D01*
X126983232Y-109425942D02*
X127497517Y-109425942D01*
X127127875Y-110325942D02*
X127240375Y-109425942D01*
X128145732Y-109725942D02*
X128070732Y-110325942D01*
X127760017Y-109725942D02*
X127701089Y-110197371D01*
X127733232Y-110283085D01*
X127813589Y-110325942D01*
X127942160Y-110325942D01*
X128033232Y-110283085D01*
X128081446Y-110240228D01*
X128499303Y-110325942D02*
X128574303Y-109725942D01*
X128552875Y-109897371D02*
X128606446Y-109811657D01*
X128654660Y-109768800D01*
X128745732Y-109725942D01*
X128831446Y-109725942D01*
X129131446Y-109725942D02*
X129056446Y-110325942D01*
X129120732Y-109811657D02*
X129168946Y-109768800D01*
X129260017Y-109725942D01*
X129388589Y-109725942D01*
X129468946Y-109768800D01*
X129501089Y-109854514D01*
X129442160Y-110325942D01*
X129854660Y-109425942D02*
X130368946Y-109425942D01*
X129999303Y-110325942D02*
X130111803Y-109425942D01*
X130942160Y-110325942D02*
X131001089Y-109854514D01*
X130968946Y-109768800D01*
X130888589Y-109725942D01*
X130717160Y-109725942D01*
X130626089Y-109768800D01*
X130947517Y-110283085D02*
X130856446Y-110325942D01*
X130642160Y-110325942D01*
X130561803Y-110283085D01*
X130529660Y-110197371D01*
X130540375Y-110111657D01*
X130593946Y-110025942D01*
X130685017Y-109983085D01*
X130899303Y-109983085D01*
X130990375Y-109940228D01*
X131370732Y-110325942D02*
X131483232Y-109425942D01*
X131440375Y-109768800D02*
X131531446Y-109725942D01*
X131702875Y-109725942D01*
X131783232Y-109768800D01*
X131820732Y-109811657D01*
X131852875Y-109897371D01*
X131820732Y-110154514D01*
X131767160Y-110240228D01*
X131718946Y-110283085D01*
X131627875Y-110325942D01*
X131456446Y-110325942D01*
X131376089Y-110283085D01*
X132313589Y-110325942D02*
X132233232Y-110283085D01*
X132201089Y-110197371D01*
X132297517Y-109425942D01*
X133004660Y-110283085D02*
X132913589Y-110325942D01*
X132742160Y-110325942D01*
X132661803Y-110283085D01*
X132629660Y-110197371D01*
X132672517Y-109854514D01*
X132726089Y-109768800D01*
X132817160Y-109725942D01*
X132988589Y-109725942D01*
X133068946Y-109768800D01*
X133101089Y-109854514D01*
X133090375Y-109940228D01*
X132651089Y-110025942D01*
D11*
X170624533Y-96582700D02*
X171157866Y-96582700D01*
X170891200Y-96849366D02*
X170891200Y-96316033D01*
X166816885Y-100306676D02*
X166840695Y-100235247D01*
X166864504Y-100211438D01*
X166912123Y-100187628D01*
X166983552Y-100187628D01*
X167031171Y-100211438D01*
X167054980Y-100235247D01*
X167078790Y-100282866D01*
X167078790Y-100473342D01*
X166578790Y-100473342D01*
X166578790Y-100306676D01*
X166602600Y-100259057D01*
X166626409Y-100235247D01*
X166674028Y-100211438D01*
X166721647Y-100211438D01*
X166769266Y-100235247D01*
X166793076Y-100259057D01*
X166816885Y-100306676D01*
X166816885Y-100473342D01*
X166935933Y-99997152D02*
X166935933Y-99759057D01*
X167078790Y-100044771D02*
X166578790Y-99878104D01*
X167078790Y-99711438D01*
X166578790Y-99616200D02*
X166578790Y-99330485D01*
X167078790Y-99473342D02*
X166578790Y-99473342D01*
X167126409Y-99282866D02*
X167126409Y-98901914D01*
X166578790Y-98687628D02*
X166578790Y-98592390D01*
X166602600Y-98544771D01*
X166650219Y-98497152D01*
X166745457Y-98473342D01*
X166912123Y-98473342D01*
X167007361Y-98497152D01*
X167054980Y-98544771D01*
X167078790Y-98592390D01*
X167078790Y-98687628D01*
X167054980Y-98735247D01*
X167007361Y-98782866D01*
X166912123Y-98806676D01*
X166745457Y-98806676D01*
X166650219Y-98782866D01*
X166602600Y-98735247D01*
X166578790Y-98687628D01*
X166578790Y-98259057D02*
X166983552Y-98259057D01*
X167031171Y-98235247D01*
X167054980Y-98211438D01*
X167078790Y-98163819D01*
X167078790Y-98068580D01*
X167054980Y-98020961D01*
X167031171Y-97997152D01*
X166983552Y-97973342D01*
X166578790Y-97973342D01*
X166578790Y-97806676D02*
X166578790Y-97520961D01*
X167078790Y-97663819D02*
X166578790Y-97663819D01*
X167126409Y-97473342D02*
X167126409Y-97092390D01*
X167078790Y-96973342D02*
X166745457Y-96973342D01*
X166793076Y-96973342D02*
X166769266Y-96949533D01*
X166745457Y-96901914D01*
X166745457Y-96830485D01*
X166769266Y-96782866D01*
X166816885Y-96759057D01*
X167078790Y-96759057D01*
X166816885Y-96759057D02*
X166769266Y-96735247D01*
X166745457Y-96687628D01*
X166745457Y-96616200D01*
X166769266Y-96568580D01*
X166816885Y-96544771D01*
X167078790Y-96544771D01*
X167054980Y-96116200D02*
X167078790Y-96163819D01*
X167078790Y-96259057D01*
X167054980Y-96306676D01*
X167007361Y-96330485D01*
X166816885Y-96330485D01*
X166769266Y-96306676D01*
X166745457Y-96259057D01*
X166745457Y-96163819D01*
X166769266Y-96116200D01*
X166816885Y-96092390D01*
X166864504Y-96092390D01*
X166912123Y-96330485D01*
X167078790Y-95663819D02*
X166816885Y-95663819D01*
X166769266Y-95687628D01*
X166745457Y-95735247D01*
X166745457Y-95830485D01*
X166769266Y-95878104D01*
X167054980Y-95663819D02*
X167078790Y-95711438D01*
X167078790Y-95830485D01*
X167054980Y-95878104D01*
X167007361Y-95901914D01*
X166959742Y-95901914D01*
X166912123Y-95878104D01*
X166888314Y-95830485D01*
X166888314Y-95711438D01*
X166864504Y-95663819D01*
X167054980Y-95449533D02*
X167078790Y-95401914D01*
X167078790Y-95306676D01*
X167054980Y-95259057D01*
X167007361Y-95235247D01*
X166983552Y-95235247D01*
X166935933Y-95259057D01*
X166912123Y-95306676D01*
X166912123Y-95378104D01*
X166888314Y-95425723D01*
X166840695Y-95449533D01*
X166816885Y-95449533D01*
X166769266Y-95425723D01*
X166745457Y-95378104D01*
X166745457Y-95306676D01*
X166769266Y-95259057D01*
X162613185Y-97768409D02*
X162636995Y-97696980D01*
X162660804Y-97673171D01*
X162708423Y-97649361D01*
X162779852Y-97649361D01*
X162827471Y-97673171D01*
X162851280Y-97696980D01*
X162875090Y-97744600D01*
X162875090Y-97935076D01*
X162375090Y-97935076D01*
X162375090Y-97768409D01*
X162398900Y-97720790D01*
X162422709Y-97696980D01*
X162470328Y-97673171D01*
X162517947Y-97673171D01*
X162565566Y-97696980D01*
X162589376Y-97720790D01*
X162613185Y-97768409D01*
X162613185Y-97935076D01*
X162732233Y-97458885D02*
X162732233Y-97220790D01*
X162875090Y-97506504D02*
X162375090Y-97339838D01*
X162875090Y-97173171D01*
X162375090Y-97077933D02*
X162375090Y-96792219D01*
X162875090Y-96935076D02*
X162375090Y-96935076D01*
X162922709Y-96744600D02*
X162922709Y-96363647D01*
X162375090Y-96149361D02*
X162375090Y-96054123D01*
X162398900Y-96006504D01*
X162446519Y-95958885D01*
X162541757Y-95935076D01*
X162708423Y-95935076D01*
X162803661Y-95958885D01*
X162851280Y-96006504D01*
X162875090Y-96054123D01*
X162875090Y-96149361D01*
X162851280Y-96196980D01*
X162803661Y-96244600D01*
X162708423Y-96268409D01*
X162541757Y-96268409D01*
X162446519Y-96244600D01*
X162398900Y-96196980D01*
X162375090Y-96149361D01*
X162375090Y-95720790D02*
X162779852Y-95720790D01*
X162827471Y-95696980D01*
X162851280Y-95673171D01*
X162875090Y-95625552D01*
X162875090Y-95530314D01*
X162851280Y-95482695D01*
X162827471Y-95458885D01*
X162779852Y-95435076D01*
X162375090Y-95435076D01*
X162375090Y-95268409D02*
X162375090Y-94982695D01*
X162875090Y-95125552D02*
X162375090Y-95125552D01*
X170666600Y-99644152D02*
X170642790Y-99691771D01*
X170642790Y-99763200D01*
X170666600Y-99834628D01*
X170714219Y-99882247D01*
X170761838Y-99906057D01*
X170857076Y-99929866D01*
X170928504Y-99929866D01*
X171023742Y-99906057D01*
X171071361Y-99882247D01*
X171118980Y-99834628D01*
X171142790Y-99763200D01*
X171142790Y-99715580D01*
X171118980Y-99644152D01*
X171095171Y-99620342D01*
X170928504Y-99620342D01*
X170928504Y-99715580D01*
X171142790Y-99406057D02*
X170642790Y-99406057D01*
X171142790Y-99120342D01*
X170642790Y-99120342D01*
X171142790Y-98882247D02*
X170642790Y-98882247D01*
X170642790Y-98763200D01*
X170666600Y-98691771D01*
X170714219Y-98644152D01*
X170761838Y-98620342D01*
X170857076Y-98596533D01*
X170928504Y-98596533D01*
X171023742Y-98620342D01*
X171071361Y-98644152D01*
X171118980Y-98691771D01*
X171142790Y-98763200D01*
X171142790Y-98882247D01*
X162398900Y-99694952D02*
X162375090Y-99742571D01*
X162375090Y-99814000D01*
X162398900Y-99885428D01*
X162446519Y-99933047D01*
X162494138Y-99956857D01*
X162589376Y-99980666D01*
X162660804Y-99980666D01*
X162756042Y-99956857D01*
X162803661Y-99933047D01*
X162851280Y-99885428D01*
X162875090Y-99814000D01*
X162875090Y-99766380D01*
X162851280Y-99694952D01*
X162827471Y-99671142D01*
X162660804Y-99671142D01*
X162660804Y-99766380D01*
X162875090Y-99456857D02*
X162375090Y-99456857D01*
X162875090Y-99171142D01*
X162375090Y-99171142D01*
X162875090Y-98933047D02*
X162375090Y-98933047D01*
X162375090Y-98814000D01*
X162398900Y-98742571D01*
X162446519Y-98694952D01*
X162494138Y-98671142D01*
X162589376Y-98647333D01*
X162660804Y-98647333D01*
X162756042Y-98671142D01*
X162803661Y-98694952D01*
X162851280Y-98742571D01*
X162875090Y-98814000D01*
X162875090Y-98933047D01*
X149725890Y-108385466D02*
X150225890Y-108218800D01*
X149725890Y-108052133D01*
X150225890Y-107599752D02*
X149987795Y-107766419D01*
X150225890Y-107885466D02*
X149725890Y-107885466D01*
X149725890Y-107694990D01*
X149749700Y-107647371D01*
X149773509Y-107623561D01*
X149821128Y-107599752D01*
X149892557Y-107599752D01*
X149940176Y-107623561D01*
X149963985Y-107647371D01*
X149987795Y-107694990D01*
X149987795Y-107885466D01*
X149963985Y-107385466D02*
X149963985Y-107218800D01*
X150225890Y-107147371D02*
X150225890Y-107385466D01*
X149725890Y-107385466D01*
X149725890Y-107147371D01*
X149963985Y-106766419D02*
X149963985Y-106933085D01*
X150225890Y-106933085D02*
X149725890Y-106933085D01*
X149725890Y-106694990D01*
X150273509Y-106623561D02*
X150273509Y-106242609D01*
X150202080Y-106147371D02*
X150225890Y-106075942D01*
X150225890Y-105956895D01*
X150202080Y-105909276D01*
X150178271Y-105885466D01*
X150130652Y-105861657D01*
X150083033Y-105861657D01*
X150035414Y-105885466D01*
X150011604Y-105909276D01*
X149987795Y-105956895D01*
X149963985Y-106052133D01*
X149940176Y-106099752D01*
X149916366Y-106123561D01*
X149868747Y-106147371D01*
X149821128Y-106147371D01*
X149773509Y-106123561D01*
X149749700Y-106099752D01*
X149725890Y-106052133D01*
X149725890Y-105933085D01*
X149749700Y-105861657D01*
X150225890Y-105433085D02*
X149963985Y-105433085D01*
X149916366Y-105456895D01*
X149892557Y-105504514D01*
X149892557Y-105599752D01*
X149916366Y-105647371D01*
X150202080Y-105433085D02*
X150225890Y-105480704D01*
X150225890Y-105599752D01*
X150202080Y-105647371D01*
X150154461Y-105671180D01*
X150106842Y-105671180D01*
X150059223Y-105647371D01*
X150035414Y-105599752D01*
X150035414Y-105480704D01*
X150011604Y-105433085D01*
X150225890Y-105194990D02*
X149892557Y-105194990D01*
X149940176Y-105194990D02*
X149916366Y-105171180D01*
X149892557Y-105123561D01*
X149892557Y-105052133D01*
X149916366Y-105004514D01*
X149963985Y-104980704D01*
X150225890Y-104980704D01*
X149963985Y-104980704D02*
X149916366Y-104956895D01*
X149892557Y-104909276D01*
X149892557Y-104837847D01*
X149916366Y-104790228D01*
X149963985Y-104766419D01*
X150225890Y-104766419D01*
X149892557Y-104528323D02*
X150392557Y-104528323D01*
X149916366Y-104528323D02*
X149892557Y-104480704D01*
X149892557Y-104385466D01*
X149916366Y-104337847D01*
X149940176Y-104314038D01*
X149987795Y-104290228D01*
X150130652Y-104290228D01*
X150178271Y-104314038D01*
X150202080Y-104337847D01*
X150225890Y-104385466D01*
X150225890Y-104480704D01*
X150202080Y-104528323D01*
X150225890Y-104004514D02*
X150202080Y-104052133D01*
X150154461Y-104075942D01*
X149725890Y-104075942D01*
X150202080Y-103623561D02*
X150225890Y-103671180D01*
X150225890Y-103766419D01*
X150202080Y-103814038D01*
X150154461Y-103837847D01*
X149963985Y-103837847D01*
X149916366Y-103814038D01*
X149892557Y-103766419D01*
X149892557Y-103671180D01*
X149916366Y-103623561D01*
X149963985Y-103599752D01*
X150011604Y-103599752D01*
X150059223Y-103837847D01*
X150232300Y-109842252D02*
X150208490Y-109889871D01*
X150208490Y-109961300D01*
X150232300Y-110032728D01*
X150279919Y-110080347D01*
X150327538Y-110104157D01*
X150422776Y-110127966D01*
X150494204Y-110127966D01*
X150589442Y-110104157D01*
X150637061Y-110080347D01*
X150684680Y-110032728D01*
X150708490Y-109961300D01*
X150708490Y-109913680D01*
X150684680Y-109842252D01*
X150660871Y-109818442D01*
X150494204Y-109818442D01*
X150494204Y-109913680D01*
X150708490Y-109604157D02*
X150208490Y-109604157D01*
X150708490Y-109318442D01*
X150208490Y-109318442D01*
X150708490Y-109080347D02*
X150208490Y-109080347D01*
X150208490Y-108961300D01*
X150232300Y-108889871D01*
X150279919Y-108842252D01*
X150327538Y-108818442D01*
X150422776Y-108794633D01*
X150494204Y-108794633D01*
X150589442Y-108818442D01*
X150637061Y-108842252D01*
X150684680Y-108889871D01*
X150708490Y-108961300D01*
X150708490Y-109080347D01*
X148962300Y-98856752D02*
X148938490Y-98904371D01*
X148938490Y-98975800D01*
X148962300Y-99047228D01*
X149009919Y-99094847D01*
X149057538Y-99118657D01*
X149152776Y-99142466D01*
X149224204Y-99142466D01*
X149319442Y-99118657D01*
X149367061Y-99094847D01*
X149414680Y-99047228D01*
X149438490Y-98975800D01*
X149438490Y-98928180D01*
X149414680Y-98856752D01*
X149390871Y-98832942D01*
X149224204Y-98832942D01*
X149224204Y-98928180D01*
X149438490Y-98618657D02*
X148938490Y-98618657D01*
X149438490Y-98332942D01*
X148938490Y-98332942D01*
X149438490Y-98094847D02*
X148938490Y-98094847D01*
X148938490Y-97975800D01*
X148962300Y-97904371D01*
X149009919Y-97856752D01*
X149057538Y-97832942D01*
X149152776Y-97809133D01*
X149224204Y-97809133D01*
X149319442Y-97832942D01*
X149367061Y-97856752D01*
X149414680Y-97904371D01*
X149438490Y-97975800D01*
X149438490Y-98094847D01*
X148938490Y-96591261D02*
X148938490Y-96496023D01*
X148962300Y-96448404D01*
X149009919Y-96400785D01*
X149105157Y-96376976D01*
X149271823Y-96376976D01*
X149367061Y-96400785D01*
X149414680Y-96448404D01*
X149438490Y-96496023D01*
X149438490Y-96591261D01*
X149414680Y-96638880D01*
X149367061Y-96686500D01*
X149271823Y-96710309D01*
X149105157Y-96710309D01*
X149009919Y-96686500D01*
X148962300Y-96638880D01*
X148938490Y-96591261D01*
X148938490Y-96162690D02*
X149343252Y-96162690D01*
X149390871Y-96138880D01*
X149414680Y-96115071D01*
X149438490Y-96067452D01*
X149438490Y-95972214D01*
X149414680Y-95924595D01*
X149390871Y-95900785D01*
X149343252Y-95876976D01*
X148938490Y-95876976D01*
X148938490Y-95710309D02*
X148938490Y-95424595D01*
X149438490Y-95567452D02*
X148938490Y-95567452D01*
X149486109Y-95376976D02*
X149486109Y-94996023D01*
X149390871Y-94591261D02*
X149414680Y-94615071D01*
X149438490Y-94686500D01*
X149438490Y-94734119D01*
X149414680Y-94805547D01*
X149367061Y-94853166D01*
X149319442Y-94876976D01*
X149224204Y-94900785D01*
X149152776Y-94900785D01*
X149057538Y-94876976D01*
X149009919Y-94853166D01*
X148962300Y-94805547D01*
X148938490Y-94734119D01*
X148938490Y-94686500D01*
X148962300Y-94615071D01*
X148986109Y-94591261D01*
X149295633Y-94400785D02*
X149295633Y-94162690D01*
X149438490Y-94448404D02*
X148938490Y-94281738D01*
X149438490Y-94115071D01*
X149438490Y-93948404D02*
X148938490Y-93948404D01*
X148938490Y-93757928D01*
X148962300Y-93710309D01*
X148986109Y-93686500D01*
X149033728Y-93662690D01*
X149105157Y-93662690D01*
X149152776Y-93686500D01*
X149176585Y-93710309D01*
X149200395Y-93757928D01*
X149200395Y-93948404D01*
X132257195Y-105945785D02*
X132328623Y-105969595D01*
X132352433Y-105993404D01*
X132376242Y-106041023D01*
X132376242Y-106112452D01*
X132352433Y-106160071D01*
X132328623Y-106183880D01*
X132281004Y-106207690D01*
X132090528Y-106207690D01*
X132090528Y-105707690D01*
X132257195Y-105707690D01*
X132304814Y-105731500D01*
X132328623Y-105755309D01*
X132352433Y-105802928D01*
X132352433Y-105850547D01*
X132328623Y-105898166D01*
X132304814Y-105921976D01*
X132257195Y-105945785D01*
X132090528Y-105945785D01*
X132566719Y-106064833D02*
X132804814Y-106064833D01*
X132519100Y-106207690D02*
X132685766Y-105707690D01*
X132852433Y-106207690D01*
X132947671Y-105707690D02*
X133233385Y-105707690D01*
X133090528Y-106207690D02*
X133090528Y-105707690D01*
X133328623Y-105707690D02*
X133614338Y-105707690D01*
X133471480Y-106207690D02*
X133471480Y-105707690D01*
X133661957Y-106255309D02*
X134042909Y-106255309D01*
X134447671Y-106160071D02*
X134423861Y-106183880D01*
X134352433Y-106207690D01*
X134304814Y-106207690D01*
X134233385Y-106183880D01*
X134185766Y-106136261D01*
X134161957Y-106088642D01*
X134138147Y-105993404D01*
X134138147Y-105921976D01*
X134161957Y-105826738D01*
X134185766Y-105779119D01*
X134233385Y-105731500D01*
X134304814Y-105707690D01*
X134352433Y-105707690D01*
X134423861Y-105731500D01*
X134447671Y-105755309D01*
X134661957Y-106207690D02*
X134661957Y-105707690D01*
X134661957Y-105945785D02*
X134947671Y-105945785D01*
X134947671Y-106207690D02*
X134947671Y-105707690D01*
X135447671Y-105731500D02*
X135400052Y-105707690D01*
X135328623Y-105707690D01*
X135257195Y-105731500D01*
X135209576Y-105779119D01*
X135185766Y-105826738D01*
X135161957Y-105921976D01*
X135161957Y-105993404D01*
X135185766Y-106088642D01*
X135209576Y-106136261D01*
X135257195Y-106183880D01*
X135328623Y-106207690D01*
X135376242Y-106207690D01*
X135447671Y-106183880D01*
X135471480Y-106160071D01*
X135471480Y-105993404D01*
X135376242Y-105993404D01*
X135651085Y-103449238D02*
X135674895Y-103377809D01*
X135698704Y-103354000D01*
X135746323Y-103330190D01*
X135817752Y-103330190D01*
X135865371Y-103354000D01*
X135889180Y-103377809D01*
X135912990Y-103425428D01*
X135912990Y-103615904D01*
X135412990Y-103615904D01*
X135412990Y-103449238D01*
X135436800Y-103401619D01*
X135460609Y-103377809D01*
X135508228Y-103354000D01*
X135555847Y-103354000D01*
X135603466Y-103377809D01*
X135627276Y-103401619D01*
X135651085Y-103449238D01*
X135651085Y-103615904D01*
X135770133Y-103139714D02*
X135770133Y-102901619D01*
X135912990Y-103187333D02*
X135412990Y-103020666D01*
X135912990Y-102854000D01*
X135412990Y-102758761D02*
X135412990Y-102473047D01*
X135912990Y-102615904D02*
X135412990Y-102615904D01*
X135960609Y-102425428D02*
X135960609Y-102044476D01*
X135865371Y-101639714D02*
X135889180Y-101663523D01*
X135912990Y-101734952D01*
X135912990Y-101782571D01*
X135889180Y-101854000D01*
X135841561Y-101901619D01*
X135793942Y-101925428D01*
X135698704Y-101949238D01*
X135627276Y-101949238D01*
X135532038Y-101925428D01*
X135484419Y-101901619D01*
X135436800Y-101854000D01*
X135412990Y-101782571D01*
X135412990Y-101734952D01*
X135436800Y-101663523D01*
X135460609Y-101639714D01*
X135412990Y-101330190D02*
X135412990Y-101234952D01*
X135436800Y-101187333D01*
X135484419Y-101139714D01*
X135579657Y-101115904D01*
X135746323Y-101115904D01*
X135841561Y-101139714D01*
X135889180Y-101187333D01*
X135912990Y-101234952D01*
X135912990Y-101330190D01*
X135889180Y-101377809D01*
X135841561Y-101425428D01*
X135746323Y-101449238D01*
X135579657Y-101449238D01*
X135484419Y-101425428D01*
X135436800Y-101377809D01*
X135412990Y-101330190D01*
X135912990Y-100901619D02*
X135412990Y-100901619D01*
X135912990Y-100615904D01*
X135412990Y-100615904D01*
X135912990Y-100377809D02*
X135412990Y-100377809D01*
X135912990Y-100092095D01*
X135412990Y-100092095D01*
X130721147Y-88662700D02*
X130673528Y-88638890D01*
X130602100Y-88638890D01*
X130530671Y-88662700D01*
X130483052Y-88710319D01*
X130459242Y-88757938D01*
X130435433Y-88853176D01*
X130435433Y-88924604D01*
X130459242Y-89019842D01*
X130483052Y-89067461D01*
X130530671Y-89115080D01*
X130602100Y-89138890D01*
X130649719Y-89138890D01*
X130721147Y-89115080D01*
X130744957Y-89091271D01*
X130744957Y-88924604D01*
X130649719Y-88924604D01*
X130959242Y-89138890D02*
X130959242Y-88638890D01*
X131244957Y-89138890D01*
X131244957Y-88638890D01*
X131483052Y-89138890D02*
X131483052Y-88638890D01*
X131602100Y-88638890D01*
X131673528Y-88662700D01*
X131721147Y-88710319D01*
X131744957Y-88757938D01*
X131768766Y-88853176D01*
X131768766Y-88924604D01*
X131744957Y-89019842D01*
X131721147Y-89067461D01*
X131673528Y-89115080D01*
X131602100Y-89138890D01*
X131483052Y-89138890D01*
X121627947Y-88764300D02*
X121580328Y-88740490D01*
X121508900Y-88740490D01*
X121437471Y-88764300D01*
X121389852Y-88811919D01*
X121366042Y-88859538D01*
X121342233Y-88954776D01*
X121342233Y-89026204D01*
X121366042Y-89121442D01*
X121389852Y-89169061D01*
X121437471Y-89216680D01*
X121508900Y-89240490D01*
X121556519Y-89240490D01*
X121627947Y-89216680D01*
X121651757Y-89192871D01*
X121651757Y-89026204D01*
X121556519Y-89026204D01*
X121866042Y-89240490D02*
X121866042Y-88740490D01*
X122151757Y-89240490D01*
X122151757Y-88740490D01*
X122389852Y-89240490D02*
X122389852Y-88740490D01*
X122508900Y-88740490D01*
X122580328Y-88764300D01*
X122627947Y-88811919D01*
X122651757Y-88859538D01*
X122675566Y-88954776D01*
X122675566Y-89026204D01*
X122651757Y-89121442D01*
X122627947Y-89169061D01*
X122580328Y-89216680D01*
X122508900Y-89240490D01*
X122389852Y-89240490D01*
X124256833Y-88988100D02*
X124790166Y-88988100D01*
X124523500Y-89254766D02*
X124523500Y-88721433D01*
X128003333Y-88975400D02*
X128536666Y-88975400D01*
X128270000Y-89242066D02*
X128270000Y-88708733D01*
D10*
X166000000Y-93100000D02*
X145900000Y-93100000D01*
X166000000Y-84600000D02*
X166000000Y-93100000D01*
X145900000Y-84600000D02*
X166000000Y-84600000D01*
X145900000Y-93100000D02*
X145900000Y-84600000D01*
D12*
G04 #@! TO.C,BT1*
X163170000Y-95270000D02*
X164500000Y-95270000D01*
X163170000Y-96600000D02*
X163170000Y-95270000D01*
X163170000Y-97870000D02*
X165830000Y-97870000D01*
X165830000Y-97870000D02*
X165830000Y-100470000D01*
X163170000Y-97870000D02*
X163170000Y-100470000D01*
X163170000Y-100470000D02*
X165830000Y-100470000D01*
G04 #@! TO.C,J4*
X148480000Y-93980000D02*
X145820000Y-93980000D01*
X148480000Y-96580000D02*
X148480000Y-93980000D01*
X145820000Y-96580000D02*
X145820000Y-93980000D01*
X148480000Y-96580000D02*
X145820000Y-96580000D01*
X148480000Y-97850000D02*
X148480000Y-99180000D01*
X148480000Y-99180000D02*
X147150000Y-99180000D01*
G04 #@! TO.C,C1*
X130410000Y-97261252D02*
X130410000Y-96738748D01*
X128990000Y-97261252D02*
X128990000Y-96738748D01*
G04 #@! TO.C,C2*
X138038748Y-96690000D02*
X138561252Y-96690000D01*
X138038748Y-98110000D02*
X138561252Y-98110000D01*
G04 #@! TO.C,C3*
X144710000Y-96238748D02*
X144710000Y-96761252D01*
X143290000Y-96238748D02*
X143290000Y-96761252D01*
G04 #@! TO.C,C4*
X140790000Y-96238748D02*
X140790000Y-96761252D01*
X142210000Y-96238748D02*
X142210000Y-96761252D01*
G04 #@! TO.C,C5*
X172171267Y-103210000D02*
X171828733Y-103210000D01*
X172171267Y-102190000D02*
X171828733Y-102190000D01*
G04 #@! TO.C,C6*
X172271267Y-110190000D02*
X171928733Y-110190000D01*
X172271267Y-111210000D02*
X171928733Y-111210000D01*
G04 #@! TO.C,CBYP1*
X152011252Y-103160000D02*
X151488748Y-103160000D01*
X152011252Y-101740000D02*
X151488748Y-101740000D01*
G04 #@! TO.C,Cin1_1*
X131490000Y-91071267D02*
X131490000Y-90728733D01*
X132510000Y-91071267D02*
X132510000Y-90728733D01*
G04 #@! TO.C,CIN1_2*
X147741250Y-100656250D02*
X146953750Y-100656250D01*
X147347500Y-100262500D02*
X147347500Y-101050000D01*
X143154437Y-101290000D02*
X142090000Y-102354437D01*
X147845563Y-101290000D02*
X148910000Y-102354437D01*
X147845563Y-101290000D02*
X146560000Y-101290000D01*
X143154437Y-101290000D02*
X144440000Y-101290000D01*
X142090000Y-102354437D02*
X142090000Y-108110000D01*
X148910000Y-102354437D02*
X148910000Y-108110000D01*
X148910000Y-108110000D02*
X146560000Y-108110000D01*
X142090000Y-108110000D02*
X144440000Y-108110000D01*
G04 #@! TO.C,CREF2*
X155490000Y-106238748D02*
X155490000Y-106761252D01*
X156910000Y-106238748D02*
X156910000Y-106761252D01*
G04 #@! TO.C,CSTORE2*
X174910000Y-86290000D02*
X172560000Y-86290000D01*
X168090000Y-86290000D02*
X170440000Y-86290000D01*
X168090000Y-92045563D02*
X168090000Y-86290000D01*
X174910000Y-92045563D02*
X174910000Y-86290000D01*
X173845563Y-93110000D02*
X172560000Y-93110000D01*
X169154437Y-93110000D02*
X170440000Y-93110000D01*
X169154437Y-93110000D02*
X168090000Y-92045563D01*
X173845563Y-93110000D02*
X174910000Y-92045563D01*
X169652500Y-94137500D02*
X169652500Y-93350000D01*
X169258750Y-93743750D02*
X170046250Y-93743750D01*
G04 #@! TO.C,CSTORE1*
X128110000Y-97390000D02*
X125760000Y-97390000D01*
X121290000Y-97390000D02*
X123640000Y-97390000D01*
X121290000Y-103145563D02*
X121290000Y-97390000D01*
X128110000Y-103145563D02*
X128110000Y-97390000D01*
X127045563Y-104210000D02*
X125760000Y-104210000D01*
X122354437Y-104210000D02*
X123640000Y-104210000D01*
X122354437Y-104210000D02*
X121290000Y-103145563D01*
X127045563Y-104210000D02*
X128110000Y-103145563D01*
X122852500Y-105237500D02*
X122852500Y-104450000D01*
X122458750Y-104843750D02*
X123246250Y-104843750D01*
G04 #@! TO.C,SolarPanel IN*
X120670000Y-88430000D02*
X120670000Y-87100000D01*
X122000000Y-88430000D02*
X120670000Y-88430000D01*
X123270000Y-88430000D02*
X123270000Y-85770000D01*
X123270000Y-85770000D02*
X125870000Y-85770000D01*
X123270000Y-88430000D02*
X125870000Y-88430000D01*
X125870000Y-88430000D02*
X125870000Y-85770000D01*
G04 #@! TO.C,meas*
X132230000Y-85770000D02*
X132230000Y-87100000D01*
X130900000Y-85770000D02*
X132230000Y-85770000D01*
X129630000Y-85770000D02*
X129630000Y-88430000D01*
X129630000Y-88430000D02*
X127030000Y-88430000D01*
X129630000Y-85770000D02*
X127030000Y-85770000D01*
X127030000Y-85770000D02*
X127030000Y-88430000D01*
G04 #@! TO.C,J3*
X134930000Y-100130000D02*
X132270000Y-100130000D01*
X134930000Y-102730000D02*
X134930000Y-100130000D01*
X132270000Y-102730000D02*
X132270000Y-100130000D01*
X134930000Y-102730000D02*
X132270000Y-102730000D01*
X134930000Y-104000000D02*
X134930000Y-105330000D01*
X134930000Y-105330000D02*
X133600000Y-105330000D01*
G04 #@! TO.C,J5*
X153630000Y-104130000D02*
X150970000Y-104130000D01*
X153630000Y-106730000D02*
X153630000Y-104130000D01*
X150970000Y-106730000D02*
X150970000Y-104130000D01*
X153630000Y-106730000D02*
X150970000Y-106730000D01*
X153630000Y-108000000D02*
X153630000Y-109330000D01*
X153630000Y-109330000D02*
X152300000Y-109330000D01*
G04 #@! TO.C,J6*
X167470000Y-100470000D02*
X170130000Y-100470000D01*
X167470000Y-97870000D02*
X167470000Y-100470000D01*
X170130000Y-97870000D02*
X170130000Y-100470000D01*
X167470000Y-97870000D02*
X170130000Y-97870000D01*
X167470000Y-96600000D02*
X167470000Y-95270000D01*
X167470000Y-95270000D02*
X168800000Y-95270000D01*
G04 #@! TO.C,3.3V*
X143930000Y-115170000D02*
X143930000Y-116500000D01*
X142600000Y-115170000D02*
X143930000Y-115170000D01*
X141330000Y-115170000D02*
X141330000Y-117830000D01*
X141330000Y-117830000D02*
X123490000Y-117830000D01*
X141330000Y-115170000D02*
X123490000Y-115170000D01*
X123490000Y-115170000D02*
X123490000Y-117830000D01*
G04 #@! TO.C,*
X165910000Y-117830000D02*
X165910000Y-115170000D01*
X148070000Y-117830000D02*
X165910000Y-117830000D01*
X148070000Y-115170000D02*
X165910000Y-115170000D01*
X148070000Y-117830000D02*
X148070000Y-115170000D01*
X146800000Y-117830000D02*
X145470000Y-117830000D01*
X145470000Y-117830000D02*
X145470000Y-116500000D01*
G04 #@! TO.C,GND*
X145470000Y-113930000D02*
X145470000Y-112600000D01*
X146800000Y-113930000D02*
X145470000Y-113930000D01*
X148070000Y-113930000D02*
X148070000Y-111270000D01*
X148070000Y-111270000D02*
X165910000Y-111270000D01*
X148070000Y-113930000D02*
X165910000Y-113930000D01*
X165910000Y-113930000D02*
X165910000Y-111270000D01*
G04 #@! TO.C,*
X123490000Y-111270000D02*
X123490000Y-113930000D01*
X141330000Y-111270000D02*
X123490000Y-111270000D01*
X141330000Y-113930000D02*
X123490000Y-113930000D01*
X141330000Y-111270000D02*
X141330000Y-113930000D01*
X142600000Y-111270000D02*
X143930000Y-111270000D01*
X143930000Y-111270000D02*
X143930000Y-112600000D01*
G04 #@! TO.C,L1*
X134496000Y-86996000D02*
X138804000Y-86996000D01*
X138804000Y-91304000D02*
X134496000Y-91304000D01*
G04 #@! TO.C,L2*
X150546000Y-94251700D02*
X154854000Y-94251700D01*
X154854000Y-98559700D02*
X150546000Y-98559700D01*
G04 #@! TO.C,R1*
X128690000Y-91197936D02*
X128690000Y-92402064D01*
X130510000Y-91197936D02*
X130510000Y-92402064D01*
G04 #@! TO.C,R2*
X126090000Y-92402064D02*
X126090000Y-91197936D01*
X127910000Y-92402064D02*
X127910000Y-91197936D01*
G04 #@! TO.C,R3*
X123490000Y-92402064D02*
X123490000Y-91197936D01*
X125310000Y-92402064D02*
X125310000Y-91197936D01*
G04 #@! TO.C,R4*
X139390000Y-100597936D02*
X139390000Y-101802064D01*
X141210000Y-100597936D02*
X141210000Y-101802064D01*
G04 #@! TO.C,R5*
X136590000Y-101802064D02*
X136590000Y-100597936D01*
X138410000Y-101802064D02*
X138410000Y-100597936D01*
G04 #@! TO.C,R6*
X138410000Y-107002064D02*
X138410000Y-105797936D01*
X136590000Y-107002064D02*
X136590000Y-105797936D01*
G04 #@! TO.C,R7*
X128990000Y-102902064D02*
X128990000Y-101697936D01*
X130810000Y-102902064D02*
X130810000Y-101697936D01*
G04 #@! TO.C,ROK1*
X166497936Y-103610000D02*
X167702064Y-103610000D01*
X166497936Y-101790000D02*
X167702064Y-101790000D01*
G04 #@! TO.C,ROK2*
X166390000Y-106661252D02*
X166390000Y-106138748D01*
X167810000Y-106661252D02*
X167810000Y-106138748D01*
G04 #@! TO.C,ROK3*
X163490000Y-107402064D02*
X163490000Y-106197936D01*
X165310000Y-107402064D02*
X165310000Y-106197936D01*
G04 #@! TO.C,ROV1*
X157990000Y-106197936D02*
X157990000Y-107402064D01*
X159810000Y-106197936D02*
X159810000Y-107402064D01*
G04 #@! TO.C,ROV2*
X162310000Y-106661252D02*
X162310000Y-106138748D01*
X160890000Y-106661252D02*
X160890000Y-106138748D01*
G04 #@! TO.C,SUPERCAP*
X140985000Y-92859698D02*
X141785000Y-92859698D01*
X141385000Y-93259698D02*
X141385000Y-92459698D01*
X143167000Y-84769000D02*
X144233000Y-84769000D01*
X142932000Y-84809000D02*
X144468000Y-84809000D01*
X142752000Y-84849000D02*
X144648000Y-84849000D01*
X142602000Y-84889000D02*
X144798000Y-84889000D01*
X142471000Y-84929000D02*
X144929000Y-84929000D01*
X142354000Y-84969000D02*
X145046000Y-84969000D01*
X142247000Y-85009000D02*
X145153000Y-85009000D01*
X142148000Y-85049000D02*
X145252000Y-85049000D01*
X142055000Y-85089000D02*
X145345000Y-85089000D01*
X141969000Y-85129000D02*
X145431000Y-85129000D01*
X141887000Y-85169000D02*
X145513000Y-85169000D01*
X141810000Y-85209000D02*
X145590000Y-85209000D01*
X141736000Y-85249000D02*
X145664000Y-85249000D01*
X141666000Y-85289000D02*
X145734000Y-85289000D01*
X141598000Y-85329000D02*
X145802000Y-85329000D01*
X141534000Y-85369000D02*
X145866000Y-85369000D01*
X141472000Y-85409000D02*
X145928000Y-85409000D01*
X141413000Y-85449000D02*
X145987000Y-85449000D01*
X141355000Y-85489000D02*
X146045000Y-85489000D01*
X141300000Y-85529000D02*
X146100000Y-85529000D01*
X141246000Y-85569000D02*
X146154000Y-85569000D01*
X141195000Y-85609000D02*
X146205000Y-85609000D01*
X141144000Y-85649000D02*
X146256000Y-85649000D01*
X141096000Y-85689000D02*
X146304000Y-85689000D01*
X141049000Y-85729000D02*
X146351000Y-85729000D01*
X141003000Y-85769000D02*
X146397000Y-85769000D01*
X140959000Y-85809000D02*
X146441000Y-85809000D01*
X140916000Y-85849000D02*
X146484000Y-85849000D01*
X140874000Y-85889000D02*
X146526000Y-85889000D01*
X140833000Y-85929000D02*
X146567000Y-85929000D01*
X140793000Y-85969000D02*
X146607000Y-85969000D01*
X140755000Y-86009000D02*
X146645000Y-86009000D01*
X140717000Y-86049000D02*
X146683000Y-86049000D01*
X144740000Y-86089000D02*
X146719000Y-86089000D01*
X140681000Y-86089000D02*
X142660000Y-86089000D01*
X144740000Y-86129000D02*
X146755000Y-86129000D01*
X140645000Y-86129000D02*
X142660000Y-86129000D01*
X144740000Y-86169000D02*
X146790000Y-86169000D01*
X140610000Y-86169000D02*
X142660000Y-86169000D01*
X144740000Y-86209000D02*
X146824000Y-86209000D01*
X140576000Y-86209000D02*
X142660000Y-86209000D01*
X144740000Y-86249000D02*
X146856000Y-86249000D01*
X140544000Y-86249000D02*
X142660000Y-86249000D01*
X144740000Y-86289000D02*
X146889000Y-86289000D01*
X140511000Y-86289000D02*
X142660000Y-86289000D01*
X144740000Y-86329000D02*
X146920000Y-86329000D01*
X140480000Y-86329000D02*
X142660000Y-86329000D01*
X144740000Y-86369000D02*
X146950000Y-86369000D01*
X140450000Y-86369000D02*
X142660000Y-86369000D01*
X144740000Y-86409000D02*
X146980000Y-86409000D01*
X140420000Y-86409000D02*
X142660000Y-86409000D01*
X144740000Y-86449000D02*
X147009000Y-86449000D01*
X140391000Y-86449000D02*
X142660000Y-86449000D01*
X144740000Y-86489000D02*
X147038000Y-86489000D01*
X140362000Y-86489000D02*
X142660000Y-86489000D01*
X144740000Y-86529000D02*
X147065000Y-86529000D01*
X140335000Y-86529000D02*
X142660000Y-86529000D01*
X144740000Y-86569000D02*
X147092000Y-86569000D01*
X140308000Y-86569000D02*
X142660000Y-86569000D01*
X144740000Y-86609000D02*
X147118000Y-86609000D01*
X140282000Y-86609000D02*
X142660000Y-86609000D01*
X144740000Y-86649000D02*
X147144000Y-86649000D01*
X140256000Y-86649000D02*
X142660000Y-86649000D01*
X144740000Y-86689000D02*
X147169000Y-86689000D01*
X140231000Y-86689000D02*
X142660000Y-86689000D01*
X144740000Y-86729000D02*
X147193000Y-86729000D01*
X140207000Y-86729000D02*
X142660000Y-86729000D01*
X144740000Y-86769000D02*
X147217000Y-86769000D01*
X140183000Y-86769000D02*
X142660000Y-86769000D01*
X144740000Y-86809000D02*
X147240000Y-86809000D01*
X140160000Y-86809000D02*
X142660000Y-86809000D01*
X144740000Y-86849000D02*
X147262000Y-86849000D01*
X140138000Y-86849000D02*
X142660000Y-86849000D01*
X144740000Y-86889000D02*
X147284000Y-86889000D01*
X140116000Y-86889000D02*
X142660000Y-86889000D01*
X144740000Y-86929000D02*
X147306000Y-86929000D01*
X140094000Y-86929000D02*
X142660000Y-86929000D01*
X144740000Y-86969000D02*
X147327000Y-86969000D01*
X140073000Y-86969000D02*
X142660000Y-86969000D01*
X144740000Y-87009000D02*
X147347000Y-87009000D01*
X140053000Y-87009000D02*
X142660000Y-87009000D01*
X144740000Y-87049000D02*
X147366000Y-87049000D01*
X140034000Y-87049000D02*
X142660000Y-87049000D01*
X144740000Y-87089000D02*
X147386000Y-87089000D01*
X140014000Y-87089000D02*
X142660000Y-87089000D01*
X144740000Y-87129000D02*
X147404000Y-87129000D01*
X139996000Y-87129000D02*
X142660000Y-87129000D01*
X144740000Y-87169000D02*
X147422000Y-87169000D01*
X139978000Y-87169000D02*
X142660000Y-87169000D01*
X144740000Y-87209000D02*
X147440000Y-87209000D01*
X139960000Y-87209000D02*
X142660000Y-87209000D01*
X144740000Y-87249000D02*
X147457000Y-87249000D01*
X139943000Y-87249000D02*
X142660000Y-87249000D01*
X144740000Y-87289000D02*
X147474000Y-87289000D01*
X139926000Y-87289000D02*
X142660000Y-87289000D01*
X144740000Y-87329000D02*
X147490000Y-87329000D01*
X139910000Y-87329000D02*
X142660000Y-87329000D01*
X144740000Y-87369000D02*
X147505000Y-87369000D01*
X139895000Y-87369000D02*
X142660000Y-87369000D01*
X144740000Y-87409000D02*
X147521000Y-87409000D01*
X139879000Y-87409000D02*
X142660000Y-87409000D01*
X144740000Y-87449000D02*
X147535000Y-87449000D01*
X139865000Y-87449000D02*
X142660000Y-87449000D01*
X144740000Y-87489000D02*
X147550000Y-87489000D01*
X139850000Y-87489000D02*
X142660000Y-87489000D01*
X144740000Y-87529000D02*
X147563000Y-87529000D01*
X139837000Y-87529000D02*
X142660000Y-87529000D01*
X144740000Y-87569000D02*
X147577000Y-87569000D01*
X139823000Y-87569000D02*
X142660000Y-87569000D01*
X144740000Y-87609000D02*
X147589000Y-87609000D01*
X139811000Y-87609000D02*
X142660000Y-87609000D01*
X144740000Y-87649000D02*
X147602000Y-87649000D01*
X139798000Y-87649000D02*
X142660000Y-87649000D01*
X144740000Y-87689000D02*
X147614000Y-87689000D01*
X139786000Y-87689000D02*
X142660000Y-87689000D01*
X144740000Y-87729000D02*
X147625000Y-87729000D01*
X139775000Y-87729000D02*
X142660000Y-87729000D01*
X144740000Y-87769000D02*
X147636000Y-87769000D01*
X139764000Y-87769000D02*
X142660000Y-87769000D01*
X144740000Y-87809000D02*
X147647000Y-87809000D01*
X139753000Y-87809000D02*
X142660000Y-87809000D01*
X144740000Y-87849000D02*
X147657000Y-87849000D01*
X139743000Y-87849000D02*
X142660000Y-87849000D01*
X144740000Y-87889000D02*
X147667000Y-87889000D01*
X139733000Y-87889000D02*
X142660000Y-87889000D01*
X144740000Y-87929000D02*
X147676000Y-87929000D01*
X139724000Y-87929000D02*
X142660000Y-87929000D01*
X144740000Y-87969000D02*
X147685000Y-87969000D01*
X139715000Y-87969000D02*
X142660000Y-87969000D01*
X144740000Y-88009000D02*
X147694000Y-88009000D01*
X139706000Y-88009000D02*
X142660000Y-88009000D01*
X144740000Y-88049000D02*
X147702000Y-88049000D01*
X139698000Y-88049000D02*
X142660000Y-88049000D01*
X144740000Y-88089000D02*
X147710000Y-88089000D01*
X139690000Y-88089000D02*
X142660000Y-88089000D01*
X144740000Y-88129000D02*
X147717000Y-88129000D01*
X139683000Y-88129000D02*
X142660000Y-88129000D01*
X139676000Y-88170000D02*
X147724000Y-88170000D01*
X139670000Y-88210000D02*
X147730000Y-88210000D01*
X139663000Y-88250000D02*
X147737000Y-88250000D01*
X139658000Y-88290000D02*
X147742000Y-88290000D01*
X139652000Y-88330000D02*
X147748000Y-88330000D01*
X139648000Y-88370000D02*
X147752000Y-88370000D01*
X139643000Y-88410000D02*
X147757000Y-88410000D01*
X139639000Y-88450000D02*
X147761000Y-88450000D01*
X139635000Y-88490000D02*
X147765000Y-88490000D01*
X139632000Y-88530000D02*
X147768000Y-88530000D01*
X139629000Y-88570000D02*
X147771000Y-88570000D01*
X139626000Y-88610000D02*
X147774000Y-88610000D01*
X139624000Y-88650000D02*
X147776000Y-88650000D01*
X139623000Y-88690000D02*
X147777000Y-88690000D01*
X139621000Y-88730000D02*
X147779000Y-88730000D01*
X139620000Y-88770000D02*
X147780000Y-88770000D01*
X139620000Y-88810000D02*
X147780000Y-88810000D01*
X139620000Y-88850000D02*
X147780000Y-88850000D01*
X147820000Y-88850000D02*
G75*
G03X147820000Y-88850000I-4120000J0D01*
G01*
D10*
G04 #@! TO.C,SPV1050*
X134600000Y-93700000D02*
X134900000Y-93700000D01*
X134900000Y-93700000D02*
X134900000Y-94000000D01*
X132200000Y-96700000D02*
X131900000Y-96700000D01*
X131900000Y-96700000D02*
X131900000Y-96400000D01*
X134900000Y-96400000D02*
X134900000Y-96700000D01*
X134900000Y-96700000D02*
X134600000Y-96700000D01*
D13*
G04 #@! TO.C,*
X157040200Y-101909800D02*
X157782426Y-101909800D01*
X161459800Y-101909800D02*
X161459800Y-101167323D01*
X161459800Y-97490200D02*
X160717574Y-97490200D01*
X157040200Y-97490200D02*
X157040200Y-98232677D01*
X157040200Y-101167323D02*
X157040200Y-101909800D01*
X160717574Y-101909800D02*
X161459800Y-101909800D01*
X161459800Y-98232677D02*
X161459800Y-97490200D01*
X157782426Y-97490200D02*
X157040200Y-97490200D01*
X160059752Y-102104001D02*
X160059752Y-102358001D01*
X160059752Y-102358001D02*
X160440752Y-102358001D01*
X160440752Y-102358001D02*
X160440752Y-102104001D01*
X160440752Y-102104001D02*
X160059752Y-102104001D01*
X158059248Y-97295999D02*
X158059248Y-97041999D01*
X158059248Y-97041999D02*
X158440248Y-97041999D01*
X158440248Y-97041999D02*
X158440248Y-97295999D01*
X158440248Y-97295999D02*
X158059248Y-97295999D01*
X170323001Y-105923000D02*
X170323001Y-107877000D01*
X171658139Y-107877000D02*
X172341861Y-107877000D01*
X173676999Y-107877000D02*
X173676999Y-105923000D01*
G04 #@! TO.C,BT1*
D14*
X163755485Y-94251471D02*
X163898342Y-94299090D01*
X163945961Y-94346709D01*
X163993580Y-94441947D01*
X163993580Y-94584804D01*
X163945961Y-94680042D01*
X163898342Y-94727661D01*
X163803104Y-94775280D01*
X163422152Y-94775280D01*
X163422152Y-93775280D01*
X163755485Y-93775280D01*
X163850723Y-93822900D01*
X163898342Y-93870519D01*
X163945961Y-93965757D01*
X163945961Y-94060995D01*
X163898342Y-94156233D01*
X163850723Y-94203852D01*
X163755485Y-94251471D01*
X163422152Y-94251471D01*
X164279295Y-93775280D02*
X164850723Y-93775280D01*
X164565009Y-94775280D02*
X164565009Y-93775280D01*
X165707866Y-94775280D02*
X165136438Y-94775280D01*
X165422152Y-94775280D02*
X165422152Y-93775280D01*
X165326914Y-93918138D01*
X165231676Y-94013376D01*
X165136438Y-94060995D01*
G04 #@! TO.C,J4*
X148891666Y-99706180D02*
X148891666Y-100420466D01*
X148844047Y-100563323D01*
X148748809Y-100658561D01*
X148605952Y-100706180D01*
X148510714Y-100706180D01*
X149796428Y-100039514D02*
X149796428Y-100706180D01*
X149558333Y-99658561D02*
X149320238Y-100372847D01*
X149939285Y-100372847D01*
G04 #@! TO.C,C1*
X129805133Y-99696542D02*
X129757514Y-99744161D01*
X129614657Y-99791780D01*
X129519419Y-99791780D01*
X129376561Y-99744161D01*
X129281323Y-99648923D01*
X129233704Y-99553685D01*
X129186085Y-99363209D01*
X129186085Y-99220352D01*
X129233704Y-99029876D01*
X129281323Y-98934638D01*
X129376561Y-98839400D01*
X129519419Y-98791780D01*
X129614657Y-98791780D01*
X129757514Y-98839400D01*
X129805133Y-98887019D01*
X130757514Y-99791780D02*
X130186085Y-99791780D01*
X130471800Y-99791780D02*
X130471800Y-98791780D01*
X130376561Y-98934638D01*
X130281323Y-99029876D01*
X130186085Y-99077495D01*
G04 #@! TO.C,C2*
X138133333Y-96107142D02*
X138085714Y-96154761D01*
X137942857Y-96202380D01*
X137847619Y-96202380D01*
X137704761Y-96154761D01*
X137609523Y-96059523D01*
X137561904Y-95964285D01*
X137514285Y-95773809D01*
X137514285Y-95630952D01*
X137561904Y-95440476D01*
X137609523Y-95345238D01*
X137704761Y-95250000D01*
X137847619Y-95202380D01*
X137942857Y-95202380D01*
X138085714Y-95250000D01*
X138133333Y-95297619D01*
X138514285Y-95297619D02*
X138561904Y-95250000D01*
X138657142Y-95202380D01*
X138895238Y-95202380D01*
X138990476Y-95250000D01*
X139038095Y-95297619D01*
X139085714Y-95392857D01*
X139085714Y-95488095D01*
X139038095Y-95630952D01*
X138466666Y-96202380D01*
X139085714Y-96202380D01*
G04 #@! TO.C,C3*
X143813233Y-94451442D02*
X143765614Y-94499061D01*
X143622757Y-94546680D01*
X143527519Y-94546680D01*
X143384661Y-94499061D01*
X143289423Y-94403823D01*
X143241804Y-94308585D01*
X143194185Y-94118109D01*
X143194185Y-93975252D01*
X143241804Y-93784776D01*
X143289423Y-93689538D01*
X143384661Y-93594300D01*
X143527519Y-93546680D01*
X143622757Y-93546680D01*
X143765614Y-93594300D01*
X143813233Y-93641919D01*
X144146566Y-93546680D02*
X144765614Y-93546680D01*
X144432280Y-93927633D01*
X144575138Y-93927633D01*
X144670376Y-93975252D01*
X144717995Y-94022871D01*
X144765614Y-94118109D01*
X144765614Y-94356204D01*
X144717995Y-94451442D01*
X144670376Y-94499061D01*
X144575138Y-94546680D01*
X144289423Y-94546680D01*
X144194185Y-94499061D01*
X144146566Y-94451442D01*
G04 #@! TO.C,C4*
X141362133Y-94502242D02*
X141314514Y-94549861D01*
X141171657Y-94597480D01*
X141076419Y-94597480D01*
X140933561Y-94549861D01*
X140838323Y-94454623D01*
X140790704Y-94359385D01*
X140743085Y-94168909D01*
X140743085Y-94026052D01*
X140790704Y-93835576D01*
X140838323Y-93740338D01*
X140933561Y-93645100D01*
X141076419Y-93597480D01*
X141171657Y-93597480D01*
X141314514Y-93645100D01*
X141362133Y-93692719D01*
X142219276Y-93930814D02*
X142219276Y-94597480D01*
X141981180Y-93549861D02*
X141743085Y-94264147D01*
X142362133Y-94264147D01*
G04 #@! TO.C,C5*
X171689733Y-101766642D02*
X171642114Y-101814261D01*
X171499257Y-101861880D01*
X171404019Y-101861880D01*
X171261161Y-101814261D01*
X171165923Y-101719023D01*
X171118304Y-101623785D01*
X171070685Y-101433309D01*
X171070685Y-101290452D01*
X171118304Y-101099976D01*
X171165923Y-101004738D01*
X171261161Y-100909500D01*
X171404019Y-100861880D01*
X171499257Y-100861880D01*
X171642114Y-100909500D01*
X171689733Y-100957119D01*
X172594495Y-100861880D02*
X172118304Y-100861880D01*
X172070685Y-101338071D01*
X172118304Y-101290452D01*
X172213542Y-101242833D01*
X172451638Y-101242833D01*
X172546876Y-101290452D01*
X172594495Y-101338071D01*
X172642114Y-101433309D01*
X172642114Y-101671404D01*
X172594495Y-101766642D01*
X172546876Y-101814261D01*
X172451638Y-101861880D01*
X172213542Y-101861880D01*
X172118304Y-101814261D01*
X172070685Y-101766642D01*
G04 #@! TO.C,C6*
X171816733Y-112764842D02*
X171769114Y-112812461D01*
X171626257Y-112860080D01*
X171531019Y-112860080D01*
X171388161Y-112812461D01*
X171292923Y-112717223D01*
X171245304Y-112621985D01*
X171197685Y-112431509D01*
X171197685Y-112288652D01*
X171245304Y-112098176D01*
X171292923Y-112002938D01*
X171388161Y-111907700D01*
X171531019Y-111860080D01*
X171626257Y-111860080D01*
X171769114Y-111907700D01*
X171816733Y-111955319D01*
X172673876Y-111860080D02*
X172483400Y-111860080D01*
X172388161Y-111907700D01*
X172340542Y-111955319D01*
X172245304Y-112098176D01*
X172197685Y-112288652D01*
X172197685Y-112669604D01*
X172245304Y-112764842D01*
X172292923Y-112812461D01*
X172388161Y-112860080D01*
X172578638Y-112860080D01*
X172673876Y-112812461D01*
X172721495Y-112764842D01*
X172769114Y-112669604D01*
X172769114Y-112431509D01*
X172721495Y-112336271D01*
X172673876Y-112288652D01*
X172578638Y-112241033D01*
X172388161Y-112241033D01*
X172292923Y-112288652D01*
X172245304Y-112336271D01*
X172197685Y-112431509D01*
G04 #@! TO.C,CBYP1*
D15*
X151238109Y-101314214D02*
X151200014Y-101352309D01*
X151085728Y-101390404D01*
X151009538Y-101390404D01*
X150895252Y-101352309D01*
X150819061Y-101276119D01*
X150780966Y-101199928D01*
X150742871Y-101047547D01*
X150742871Y-100933261D01*
X150780966Y-100780880D01*
X150819061Y-100704690D01*
X150895252Y-100628500D01*
X151009538Y-100590404D01*
X151085728Y-100590404D01*
X151200014Y-100628500D01*
X151238109Y-100666595D01*
X151847633Y-100971357D02*
X151961919Y-101009452D01*
X152000014Y-101047547D01*
X152038109Y-101123738D01*
X152038109Y-101238023D01*
X152000014Y-101314214D01*
X151961919Y-101352309D01*
X151885728Y-101390404D01*
X151580966Y-101390404D01*
X151580966Y-100590404D01*
X151847633Y-100590404D01*
X151923823Y-100628500D01*
X151961919Y-100666595D01*
X152000014Y-100742785D01*
X152000014Y-100818976D01*
X151961919Y-100895166D01*
X151923823Y-100933261D01*
X151847633Y-100971357D01*
X151580966Y-100971357D01*
X152533347Y-101009452D02*
X152533347Y-101390404D01*
X152266680Y-100590404D02*
X152533347Y-101009452D01*
X152800014Y-100590404D01*
X153066680Y-101390404D02*
X153066680Y-100590404D01*
X153371442Y-100590404D01*
X153447633Y-100628500D01*
X153485728Y-100666595D01*
X153523823Y-100742785D01*
X153523823Y-100857071D01*
X153485728Y-100933261D01*
X153447633Y-100971357D01*
X153371442Y-101009452D01*
X153066680Y-101009452D01*
X154285728Y-101390404D02*
X153828585Y-101390404D01*
X154057157Y-101390404D02*
X154057157Y-100590404D01*
X153980966Y-100704690D01*
X153904776Y-100780880D01*
X153828585Y-100818976D01*
G04 #@! TO.C,Cin1_1*
D14*
X133711914Y-92074828D02*
X133750009Y-92112923D01*
X133788104Y-92227209D01*
X133788104Y-92303400D01*
X133750009Y-92417685D01*
X133673819Y-92493876D01*
X133597628Y-92531971D01*
X133445247Y-92570066D01*
X133330961Y-92570066D01*
X133178580Y-92531971D01*
X133102390Y-92493876D01*
X133026200Y-92417685D01*
X132988104Y-92303400D01*
X132988104Y-92227209D01*
X133026200Y-92112923D01*
X133064295Y-92074828D01*
X133788104Y-91731971D02*
X133254771Y-91731971D01*
X132988104Y-91731971D02*
X133026200Y-91770066D01*
X133064295Y-91731971D01*
X133026200Y-91693876D01*
X132988104Y-91731971D01*
X133064295Y-91731971D01*
X133254771Y-91351019D02*
X133788104Y-91351019D01*
X133330961Y-91351019D02*
X133292866Y-91312923D01*
X133254771Y-91236733D01*
X133254771Y-91122447D01*
X133292866Y-91046257D01*
X133369057Y-91008161D01*
X133788104Y-91008161D01*
X133788104Y-90208161D02*
X133788104Y-90665304D01*
X133788104Y-90436733D02*
X132988104Y-90436733D01*
X133102390Y-90512923D01*
X133178580Y-90589114D01*
X133216676Y-90665304D01*
X133864295Y-90055780D02*
X133864295Y-89446257D01*
X133788104Y-88836733D02*
X133788104Y-89293876D01*
X133788104Y-89065304D02*
X132988104Y-89065304D01*
X133102390Y-89141495D01*
X133178580Y-89217685D01*
X133216676Y-89293876D01*
G04 #@! TO.C,CIN1_2*
X144368200Y-110244700D02*
X144334866Y-110278033D01*
X144234866Y-110311366D01*
X144168200Y-110311366D01*
X144068200Y-110278033D01*
X144001533Y-110211366D01*
X143968200Y-110144700D01*
X143934866Y-110011366D01*
X143934866Y-109911366D01*
X143968200Y-109778033D01*
X144001533Y-109711366D01*
X144068200Y-109644700D01*
X144168200Y-109611366D01*
X144234866Y-109611366D01*
X144334866Y-109644700D01*
X144368200Y-109678033D01*
X144668200Y-110311366D02*
X144668200Y-109611366D01*
X145001533Y-110311366D02*
X145001533Y-109611366D01*
X145401533Y-110311366D01*
X145401533Y-109611366D01*
X146101533Y-110311366D02*
X145701533Y-110311366D01*
X145901533Y-110311366D02*
X145901533Y-109611366D01*
X145834866Y-109711366D01*
X145768200Y-109778033D01*
X145701533Y-109811366D01*
X146234866Y-110378033D02*
X146768200Y-110378033D01*
X146901533Y-109678033D02*
X146934866Y-109644700D01*
X147001533Y-109611366D01*
X147168200Y-109611366D01*
X147234866Y-109644700D01*
X147268200Y-109678033D01*
X147301533Y-109744700D01*
X147301533Y-109811366D01*
X147268200Y-109911366D01*
X146868200Y-110311366D01*
X147301533Y-110311366D01*
G04 #@! TO.C,CREF2*
X154898066Y-109101700D02*
X154864733Y-109135033D01*
X154764733Y-109168366D01*
X154698066Y-109168366D01*
X154598066Y-109135033D01*
X154531400Y-109068366D01*
X154498066Y-109001700D01*
X154464733Y-108868366D01*
X154464733Y-108768366D01*
X154498066Y-108635033D01*
X154531400Y-108568366D01*
X154598066Y-108501700D01*
X154698066Y-108468366D01*
X154764733Y-108468366D01*
X154864733Y-108501700D01*
X154898066Y-108535033D01*
X155598066Y-109168366D02*
X155364733Y-108835033D01*
X155198066Y-109168366D02*
X155198066Y-108468366D01*
X155464733Y-108468366D01*
X155531400Y-108501700D01*
X155564733Y-108535033D01*
X155598066Y-108601700D01*
X155598066Y-108701700D01*
X155564733Y-108768366D01*
X155531400Y-108801700D01*
X155464733Y-108835033D01*
X155198066Y-108835033D01*
X155898066Y-108801700D02*
X156131400Y-108801700D01*
X156231400Y-109168366D02*
X155898066Y-109168366D01*
X155898066Y-108468366D01*
X156231400Y-108468366D01*
X156764733Y-108801700D02*
X156531400Y-108801700D01*
X156531400Y-109168366D02*
X156531400Y-108468366D01*
X156864733Y-108468366D01*
X157098066Y-108535033D02*
X157131400Y-108501700D01*
X157198066Y-108468366D01*
X157364733Y-108468366D01*
X157431400Y-108501700D01*
X157464733Y-108535033D01*
X157498066Y-108601700D01*
X157498066Y-108668366D01*
X157464733Y-108768366D01*
X157064733Y-109168366D01*
X157498066Y-109168366D01*
G04 #@! TO.C,CSTORE2*
X167435714Y-91700000D02*
X167473809Y-91738095D01*
X167511904Y-91852380D01*
X167511904Y-91928571D01*
X167473809Y-92042857D01*
X167397619Y-92119047D01*
X167321428Y-92157142D01*
X167169047Y-92195238D01*
X167054761Y-92195238D01*
X166902380Y-92157142D01*
X166826190Y-92119047D01*
X166750000Y-92042857D01*
X166711904Y-91928571D01*
X166711904Y-91852380D01*
X166750000Y-91738095D01*
X166788095Y-91700000D01*
X167473809Y-91395238D02*
X167511904Y-91280952D01*
X167511904Y-91090476D01*
X167473809Y-91014285D01*
X167435714Y-90976190D01*
X167359523Y-90938095D01*
X167283333Y-90938095D01*
X167207142Y-90976190D01*
X167169047Y-91014285D01*
X167130952Y-91090476D01*
X167092857Y-91242857D01*
X167054761Y-91319047D01*
X167016666Y-91357142D01*
X166940476Y-91395238D01*
X166864285Y-91395238D01*
X166788095Y-91357142D01*
X166750000Y-91319047D01*
X166711904Y-91242857D01*
X166711904Y-91052380D01*
X166750000Y-90938095D01*
X166711904Y-90709523D02*
X166711904Y-90252380D01*
X167511904Y-90480952D02*
X166711904Y-90480952D01*
X166711904Y-89833333D02*
X166711904Y-89680952D01*
X166750000Y-89604761D01*
X166826190Y-89528571D01*
X166978571Y-89490476D01*
X167245238Y-89490476D01*
X167397619Y-89528571D01*
X167473809Y-89604761D01*
X167511904Y-89680952D01*
X167511904Y-89833333D01*
X167473809Y-89909523D01*
X167397619Y-89985714D01*
X167245238Y-90023809D01*
X166978571Y-90023809D01*
X166826190Y-89985714D01*
X166750000Y-89909523D01*
X166711904Y-89833333D01*
X167511904Y-88690476D02*
X167130952Y-88957142D01*
X167511904Y-89147619D02*
X166711904Y-89147619D01*
X166711904Y-88842857D01*
X166750000Y-88766666D01*
X166788095Y-88728571D01*
X166864285Y-88690476D01*
X166978571Y-88690476D01*
X167054761Y-88728571D01*
X167092857Y-88766666D01*
X167130952Y-88842857D01*
X167130952Y-89147619D01*
X167092857Y-88347619D02*
X167092857Y-88080952D01*
X167511904Y-87966666D02*
X167511904Y-88347619D01*
X166711904Y-88347619D01*
X166711904Y-87966666D01*
X166788095Y-87661904D02*
X166750000Y-87623809D01*
X166711904Y-87547619D01*
X166711904Y-87357142D01*
X166750000Y-87280952D01*
X166788095Y-87242857D01*
X166864285Y-87204761D01*
X166940476Y-87204761D01*
X167054761Y-87242857D01*
X167511904Y-87700000D01*
X167511904Y-87204761D01*
G04 #@! TO.C,CSTORE1*
X122815600Y-106711714D02*
X122777504Y-106749809D01*
X122663219Y-106787904D01*
X122587028Y-106787904D01*
X122472742Y-106749809D01*
X122396552Y-106673619D01*
X122358457Y-106597428D01*
X122320361Y-106445047D01*
X122320361Y-106330761D01*
X122358457Y-106178380D01*
X122396552Y-106102190D01*
X122472742Y-106026000D01*
X122587028Y-105987904D01*
X122663219Y-105987904D01*
X122777504Y-106026000D01*
X122815600Y-106064095D01*
X123120361Y-106749809D02*
X123234647Y-106787904D01*
X123425123Y-106787904D01*
X123501314Y-106749809D01*
X123539409Y-106711714D01*
X123577504Y-106635523D01*
X123577504Y-106559333D01*
X123539409Y-106483142D01*
X123501314Y-106445047D01*
X123425123Y-106406952D01*
X123272742Y-106368857D01*
X123196552Y-106330761D01*
X123158457Y-106292666D01*
X123120361Y-106216476D01*
X123120361Y-106140285D01*
X123158457Y-106064095D01*
X123196552Y-106026000D01*
X123272742Y-105987904D01*
X123463219Y-105987904D01*
X123577504Y-106026000D01*
X123806076Y-105987904D02*
X124263219Y-105987904D01*
X124034647Y-106787904D02*
X124034647Y-105987904D01*
X124682266Y-105987904D02*
X124834647Y-105987904D01*
X124910838Y-106026000D01*
X124987028Y-106102190D01*
X125025123Y-106254571D01*
X125025123Y-106521238D01*
X124987028Y-106673619D01*
X124910838Y-106749809D01*
X124834647Y-106787904D01*
X124682266Y-106787904D01*
X124606076Y-106749809D01*
X124529885Y-106673619D01*
X124491790Y-106521238D01*
X124491790Y-106254571D01*
X124529885Y-106102190D01*
X124606076Y-106026000D01*
X124682266Y-105987904D01*
X125825123Y-106787904D02*
X125558457Y-106406952D01*
X125367980Y-106787904D02*
X125367980Y-105987904D01*
X125672742Y-105987904D01*
X125748933Y-106026000D01*
X125787028Y-106064095D01*
X125825123Y-106140285D01*
X125825123Y-106254571D01*
X125787028Y-106330761D01*
X125748933Y-106368857D01*
X125672742Y-106406952D01*
X125367980Y-106406952D01*
X126167980Y-106368857D02*
X126434647Y-106368857D01*
X126548933Y-106787904D02*
X126167980Y-106787904D01*
X126167980Y-105987904D01*
X126548933Y-105987904D01*
X127310838Y-106787904D02*
X126853695Y-106787904D01*
X127082266Y-106787904D02*
X127082266Y-105987904D01*
X127006076Y-106102190D01*
X126929885Y-106178380D01*
X126853695Y-106216476D01*
G04 #@! TO.C,SolarPanel IN*
D16*
X120464700Y-85106633D02*
X120564700Y-85139966D01*
X120731366Y-85139966D01*
X120798033Y-85106633D01*
X120831366Y-85073300D01*
X120864700Y-85006633D01*
X120864700Y-84939966D01*
X120831366Y-84873300D01*
X120798033Y-84839966D01*
X120731366Y-84806633D01*
X120598033Y-84773300D01*
X120531366Y-84739966D01*
X120498033Y-84706633D01*
X120464700Y-84639966D01*
X120464700Y-84573300D01*
X120498033Y-84506633D01*
X120531366Y-84473300D01*
X120598033Y-84439966D01*
X120764700Y-84439966D01*
X120864700Y-84473300D01*
X121264700Y-85139966D02*
X121198033Y-85106633D01*
X121164700Y-85073300D01*
X121131366Y-85006633D01*
X121131366Y-84806633D01*
X121164700Y-84739966D01*
X121198033Y-84706633D01*
X121264700Y-84673300D01*
X121364700Y-84673300D01*
X121431366Y-84706633D01*
X121464700Y-84739966D01*
X121498033Y-84806633D01*
X121498033Y-85006633D01*
X121464700Y-85073300D01*
X121431366Y-85106633D01*
X121364700Y-85139966D01*
X121264700Y-85139966D01*
X121898033Y-85139966D02*
X121831366Y-85106633D01*
X121798033Y-85039966D01*
X121798033Y-84439966D01*
X122464700Y-85139966D02*
X122464700Y-84773300D01*
X122431366Y-84706633D01*
X122364700Y-84673300D01*
X122231366Y-84673300D01*
X122164700Y-84706633D01*
X122464700Y-85106633D02*
X122398033Y-85139966D01*
X122231366Y-85139966D01*
X122164700Y-85106633D01*
X122131366Y-85039966D01*
X122131366Y-84973300D01*
X122164700Y-84906633D01*
X122231366Y-84873300D01*
X122398033Y-84873300D01*
X122464700Y-84839966D01*
X122798033Y-85139966D02*
X122798033Y-84673300D01*
X122798033Y-84806633D02*
X122831366Y-84739966D01*
X122864700Y-84706633D01*
X122931366Y-84673300D01*
X122998033Y-84673300D01*
X123231366Y-85139966D02*
X123231366Y-84439966D01*
X123498033Y-84439966D01*
X123564700Y-84473300D01*
X123598033Y-84506633D01*
X123631366Y-84573300D01*
X123631366Y-84673300D01*
X123598033Y-84739966D01*
X123564700Y-84773300D01*
X123498033Y-84806633D01*
X123231366Y-84806633D01*
X124231366Y-85139966D02*
X124231366Y-84773300D01*
X124198033Y-84706633D01*
X124131366Y-84673300D01*
X123998033Y-84673300D01*
X123931366Y-84706633D01*
X124231366Y-85106633D02*
X124164700Y-85139966D01*
X123998033Y-85139966D01*
X123931366Y-85106633D01*
X123898033Y-85039966D01*
X123898033Y-84973300D01*
X123931366Y-84906633D01*
X123998033Y-84873300D01*
X124164700Y-84873300D01*
X124231366Y-84839966D01*
X124564700Y-84673300D02*
X124564700Y-85139966D01*
X124564700Y-84739966D02*
X124598033Y-84706633D01*
X124664700Y-84673300D01*
X124764700Y-84673300D01*
X124831366Y-84706633D01*
X124864700Y-84773300D01*
X124864700Y-85139966D01*
X125464700Y-85106633D02*
X125398033Y-85139966D01*
X125264700Y-85139966D01*
X125198033Y-85106633D01*
X125164700Y-85039966D01*
X125164700Y-84773300D01*
X125198033Y-84706633D01*
X125264700Y-84673300D01*
X125398033Y-84673300D01*
X125464700Y-84706633D01*
X125498033Y-84773300D01*
X125498033Y-84839966D01*
X125164700Y-84906633D01*
X125898033Y-85139966D02*
X125831366Y-85106633D01*
X125798033Y-85039966D01*
X125798033Y-84439966D01*
X126698033Y-85139966D02*
X126698033Y-84439966D01*
X127031366Y-85139966D02*
X127031366Y-84439966D01*
X127431366Y-85139966D01*
X127431366Y-84439966D01*
G04 #@! TO.C,meas*
X130886414Y-85123280D02*
X130886414Y-84456614D01*
X130886414Y-84551852D02*
X130934033Y-84504233D01*
X131029271Y-84456614D01*
X131172128Y-84456614D01*
X131267366Y-84504233D01*
X131314985Y-84599471D01*
X131314985Y-85123280D01*
X131314985Y-84599471D02*
X131362604Y-84504233D01*
X131457842Y-84456614D01*
X131600700Y-84456614D01*
X131695938Y-84504233D01*
X131743557Y-84599471D01*
X131743557Y-85123280D01*
X132600700Y-85075661D02*
X132505461Y-85123280D01*
X132314985Y-85123280D01*
X132219747Y-85075661D01*
X132172128Y-84980423D01*
X132172128Y-84599471D01*
X132219747Y-84504233D01*
X132314985Y-84456614D01*
X132505461Y-84456614D01*
X132600700Y-84504233D01*
X132648319Y-84599471D01*
X132648319Y-84694709D01*
X132172128Y-84789947D01*
X133505461Y-85123280D02*
X133505461Y-84599471D01*
X133457842Y-84504233D01*
X133362604Y-84456614D01*
X133172128Y-84456614D01*
X133076890Y-84504233D01*
X133505461Y-85075661D02*
X133410223Y-85123280D01*
X133172128Y-85123280D01*
X133076890Y-85075661D01*
X133029271Y-84980423D01*
X133029271Y-84885185D01*
X133076890Y-84789947D01*
X133172128Y-84742328D01*
X133410223Y-84742328D01*
X133505461Y-84694709D01*
X133934033Y-85075661D02*
X134029271Y-85123280D01*
X134219747Y-85123280D01*
X134314985Y-85075661D01*
X134362604Y-84980423D01*
X134362604Y-84932804D01*
X134314985Y-84837566D01*
X134219747Y-84789947D01*
X134076890Y-84789947D01*
X133981652Y-84742328D01*
X133934033Y-84647090D01*
X133934033Y-84599471D01*
X133981652Y-84504233D01*
X134076890Y-84456614D01*
X134219747Y-84456614D01*
X134314985Y-84504233D01*
G04 #@! TO.C,J3*
D14*
X133283366Y-98677480D02*
X133283366Y-99391766D01*
X133235747Y-99534623D01*
X133140509Y-99629861D01*
X132997652Y-99677480D01*
X132902414Y-99677480D01*
X133664319Y-98677480D02*
X134283366Y-98677480D01*
X133950033Y-99058433D01*
X134092890Y-99058433D01*
X134188128Y-99106052D01*
X134235747Y-99153671D01*
X134283366Y-99248909D01*
X134283366Y-99487004D01*
X134235747Y-99582242D01*
X134188128Y-99629861D01*
X134092890Y-99677480D01*
X133807176Y-99677480D01*
X133711938Y-99629861D01*
X133664319Y-99582242D01*
G04 #@! TO.C,J5*
X151965066Y-109739180D02*
X151965066Y-110453466D01*
X151917447Y-110596323D01*
X151822209Y-110691561D01*
X151679352Y-110739180D01*
X151584114Y-110739180D01*
X152917447Y-109739180D02*
X152441257Y-109739180D01*
X152393638Y-110215371D01*
X152441257Y-110167752D01*
X152536495Y-110120133D01*
X152774590Y-110120133D01*
X152869828Y-110167752D01*
X152917447Y-110215371D01*
X152965066Y-110310609D01*
X152965066Y-110548704D01*
X152917447Y-110643942D01*
X152869828Y-110691561D01*
X152774590Y-110739180D01*
X152536495Y-110739180D01*
X152441257Y-110691561D01*
X152393638Y-110643942D01*
G04 #@! TO.C,J6*
X167459066Y-93737180D02*
X167459066Y-94451466D01*
X167411447Y-94594323D01*
X167316209Y-94689561D01*
X167173352Y-94737180D01*
X167078114Y-94737180D01*
X168363828Y-93737180D02*
X168173352Y-93737180D01*
X168078114Y-93784800D01*
X168030495Y-93832419D01*
X167935257Y-93975276D01*
X167887638Y-94165752D01*
X167887638Y-94546704D01*
X167935257Y-94641942D01*
X167982876Y-94689561D01*
X168078114Y-94737180D01*
X168268590Y-94737180D01*
X168363828Y-94689561D01*
X168411447Y-94641942D01*
X168459066Y-94546704D01*
X168459066Y-94308609D01*
X168411447Y-94213371D01*
X168363828Y-94165752D01*
X168268590Y-94118133D01*
X168078114Y-94118133D01*
X167982876Y-94165752D01*
X167935257Y-94213371D01*
X167887638Y-94308609D01*
G04 #@! TO.C,3.3V*
D17*
X166430509Y-115936780D02*
X167049557Y-115936780D01*
X166716223Y-116317733D01*
X166859080Y-116317733D01*
X166954319Y-116365352D01*
X167001938Y-116412971D01*
X167049557Y-116508209D01*
X167049557Y-116746304D01*
X167001938Y-116841542D01*
X166954319Y-116889161D01*
X166859080Y-116936780D01*
X166573366Y-116936780D01*
X166478128Y-116889161D01*
X166430509Y-116841542D01*
X167478128Y-116841542D02*
X167525747Y-116889161D01*
X167478128Y-116936780D01*
X167430509Y-116889161D01*
X167478128Y-116841542D01*
X167478128Y-116936780D01*
X167859080Y-115936780D02*
X168478128Y-115936780D01*
X168144795Y-116317733D01*
X168287652Y-116317733D01*
X168382890Y-116365352D01*
X168430509Y-116412971D01*
X168478128Y-116508209D01*
X168478128Y-116746304D01*
X168430509Y-116841542D01*
X168382890Y-116889161D01*
X168287652Y-116936780D01*
X168001938Y-116936780D01*
X167906700Y-116889161D01*
X167859080Y-116841542D01*
X168763842Y-115936780D02*
X169097176Y-116936780D01*
X169430509Y-115936780D01*
G04 #@! TO.C,*
G04 #@! TO.C,GND*
X166865395Y-111831500D02*
X166770157Y-111783880D01*
X166627300Y-111783880D01*
X166484442Y-111831500D01*
X166389204Y-111926738D01*
X166341585Y-112021976D01*
X166293966Y-112212452D01*
X166293966Y-112355309D01*
X166341585Y-112545785D01*
X166389204Y-112641023D01*
X166484442Y-112736261D01*
X166627300Y-112783880D01*
X166722538Y-112783880D01*
X166865395Y-112736261D01*
X166913014Y-112688642D01*
X166913014Y-112355309D01*
X166722538Y-112355309D01*
X167341585Y-112783880D02*
X167341585Y-111783880D01*
X167913014Y-112783880D01*
X167913014Y-111783880D01*
X168389204Y-112783880D02*
X168389204Y-111783880D01*
X168627300Y-111783880D01*
X168770157Y-111831500D01*
X168865395Y-111926738D01*
X168913014Y-112021976D01*
X168960633Y-112212452D01*
X168960633Y-112355309D01*
X168913014Y-112545785D01*
X168865395Y-112641023D01*
X168770157Y-112736261D01*
X168627300Y-112783880D01*
X168389204Y-112783880D01*
G04 #@! TO.C,*
G04 #@! TO.C,L1*
D14*
X136483333Y-86602380D02*
X136007142Y-86602380D01*
X136007142Y-85602380D01*
X137340476Y-86602380D02*
X136769047Y-86602380D01*
X137054761Y-86602380D02*
X137054761Y-85602380D01*
X136959523Y-85745238D01*
X136864285Y-85840476D01*
X136769047Y-85888095D01*
G04 #@! TO.C,L2*
X156208433Y-95803980D02*
X155732242Y-95803980D01*
X155732242Y-94803980D01*
X156494147Y-94899219D02*
X156541766Y-94851600D01*
X156637004Y-94803980D01*
X156875100Y-94803980D01*
X156970338Y-94851600D01*
X157017957Y-94899219D01*
X157065576Y-94994457D01*
X157065576Y-95089695D01*
X157017957Y-95232552D01*
X156446528Y-95803980D01*
X157065576Y-95803980D01*
G04 #@! TO.C,R1*
X129538433Y-95207080D02*
X129205100Y-94730890D01*
X128967004Y-95207080D02*
X128967004Y-94207080D01*
X129347957Y-94207080D01*
X129443195Y-94254700D01*
X129490814Y-94302319D01*
X129538433Y-94397557D01*
X129538433Y-94540414D01*
X129490814Y-94635652D01*
X129443195Y-94683271D01*
X129347957Y-94730890D01*
X128967004Y-94730890D01*
X130490814Y-95207080D02*
X129919385Y-95207080D01*
X130205100Y-95207080D02*
X130205100Y-94207080D01*
X130109861Y-94349938D01*
X130014623Y-94445176D01*
X129919385Y-94492795D01*
G04 #@! TO.C,R2*
X126922233Y-95232480D02*
X126588900Y-94756290D01*
X126350804Y-95232480D02*
X126350804Y-94232480D01*
X126731757Y-94232480D01*
X126826995Y-94280100D01*
X126874614Y-94327719D01*
X126922233Y-94422957D01*
X126922233Y-94565814D01*
X126874614Y-94661052D01*
X126826995Y-94708671D01*
X126731757Y-94756290D01*
X126350804Y-94756290D01*
X127303185Y-94327719D02*
X127350804Y-94280100D01*
X127446042Y-94232480D01*
X127684138Y-94232480D01*
X127779376Y-94280100D01*
X127826995Y-94327719D01*
X127874614Y-94422957D01*
X127874614Y-94518195D01*
X127826995Y-94661052D01*
X127255566Y-95232480D01*
X127874614Y-95232480D01*
G04 #@! TO.C,R3*
X124191733Y-95232480D02*
X123858400Y-94756290D01*
X123620304Y-95232480D02*
X123620304Y-94232480D01*
X124001257Y-94232480D01*
X124096495Y-94280100D01*
X124144114Y-94327719D01*
X124191733Y-94422957D01*
X124191733Y-94565814D01*
X124144114Y-94661052D01*
X124096495Y-94708671D01*
X124001257Y-94756290D01*
X123620304Y-94756290D01*
X124525066Y-94232480D02*
X125144114Y-94232480D01*
X124810780Y-94613433D01*
X124953638Y-94613433D01*
X125048876Y-94661052D01*
X125096495Y-94708671D01*
X125144114Y-94803909D01*
X125144114Y-95042004D01*
X125096495Y-95137242D01*
X125048876Y-95184861D01*
X124953638Y-95232480D01*
X124667923Y-95232480D01*
X124572685Y-95184861D01*
X124525066Y-95137242D01*
G04 #@! TO.C,R4*
X140257233Y-104973380D02*
X139923900Y-104497190D01*
X139685804Y-104973380D02*
X139685804Y-103973380D01*
X140066757Y-103973380D01*
X140161995Y-104021000D01*
X140209614Y-104068619D01*
X140257233Y-104163857D01*
X140257233Y-104306714D01*
X140209614Y-104401952D01*
X140161995Y-104449571D01*
X140066757Y-104497190D01*
X139685804Y-104497190D01*
X141114376Y-104306714D02*
X141114376Y-104973380D01*
X140876280Y-103925761D02*
X140638185Y-104640047D01*
X141257233Y-104640047D01*
G04 #@! TO.C,R5*
X139390380Y-101309466D02*
X138914190Y-101642800D01*
X139390380Y-101880895D02*
X138390380Y-101880895D01*
X138390380Y-101499942D01*
X138438000Y-101404704D01*
X138485619Y-101357085D01*
X138580857Y-101309466D01*
X138723714Y-101309466D01*
X138818952Y-101357085D01*
X138866571Y-101404704D01*
X138914190Y-101499942D01*
X138914190Y-101880895D01*
X138390380Y-100404704D02*
X138390380Y-100880895D01*
X138866571Y-100928514D01*
X138818952Y-100880895D01*
X138771333Y-100785657D01*
X138771333Y-100547561D01*
X138818952Y-100452323D01*
X138866571Y-100404704D01*
X138961809Y-100357085D01*
X139199904Y-100357085D01*
X139295142Y-100404704D01*
X139342761Y-100452323D01*
X139390380Y-100547561D01*
X139390380Y-100785657D01*
X139342761Y-100880895D01*
X139295142Y-100928514D01*
G04 #@! TO.C,R6*
X137425133Y-110205780D02*
X137091800Y-109729590D01*
X136853704Y-110205780D02*
X136853704Y-109205780D01*
X137234657Y-109205780D01*
X137329895Y-109253400D01*
X137377514Y-109301019D01*
X137425133Y-109396257D01*
X137425133Y-109539114D01*
X137377514Y-109634352D01*
X137329895Y-109681971D01*
X137234657Y-109729590D01*
X136853704Y-109729590D01*
X138282276Y-109205780D02*
X138091800Y-109205780D01*
X137996561Y-109253400D01*
X137948942Y-109301019D01*
X137853704Y-109443876D01*
X137806085Y-109634352D01*
X137806085Y-110015304D01*
X137853704Y-110110542D01*
X137901323Y-110158161D01*
X137996561Y-110205780D01*
X138187038Y-110205780D01*
X138282276Y-110158161D01*
X138329895Y-110110542D01*
X138377514Y-110015304D01*
X138377514Y-109777209D01*
X138329895Y-109681971D01*
X138282276Y-109634352D01*
X138187038Y-109586733D01*
X137996561Y-109586733D01*
X137901323Y-109634352D01*
X137853704Y-109681971D01*
X137806085Y-109777209D01*
G04 #@! TO.C,R7*
X129894033Y-106078280D02*
X129560700Y-105602090D01*
X129322604Y-106078280D02*
X129322604Y-105078280D01*
X129703557Y-105078280D01*
X129798795Y-105125900D01*
X129846414Y-105173519D01*
X129894033Y-105268757D01*
X129894033Y-105411614D01*
X129846414Y-105506852D01*
X129798795Y-105554471D01*
X129703557Y-105602090D01*
X129322604Y-105602090D01*
X130227366Y-105078280D02*
X130894033Y-105078280D01*
X130465461Y-106078280D01*
G04 #@! TO.C,ROK1*
X166260566Y-104583666D02*
X166027233Y-104250333D01*
X165860566Y-104583666D02*
X165860566Y-103883666D01*
X166127233Y-103883666D01*
X166193900Y-103917000D01*
X166227233Y-103950333D01*
X166260566Y-104017000D01*
X166260566Y-104117000D01*
X166227233Y-104183666D01*
X166193900Y-104217000D01*
X166127233Y-104250333D01*
X165860566Y-104250333D01*
X166693900Y-103883666D02*
X166827233Y-103883666D01*
X166893900Y-103917000D01*
X166960566Y-103983666D01*
X166993900Y-104117000D01*
X166993900Y-104350333D01*
X166960566Y-104483666D01*
X166893900Y-104550333D01*
X166827233Y-104583666D01*
X166693900Y-104583666D01*
X166627233Y-104550333D01*
X166560566Y-104483666D01*
X166527233Y-104350333D01*
X166527233Y-104117000D01*
X166560566Y-103983666D01*
X166627233Y-103917000D01*
X166693900Y-103883666D01*
X167293900Y-104583666D02*
X167293900Y-103883666D01*
X167693900Y-104583666D02*
X167393900Y-104183666D01*
X167693900Y-103883666D02*
X167293900Y-104283666D01*
X168360566Y-104583666D02*
X167960566Y-104583666D01*
X168160566Y-104583666D02*
X168160566Y-103883666D01*
X168093900Y-103983666D01*
X168027233Y-104050333D01*
X167960566Y-104083666D01*
G04 #@! TO.C,ROK2*
X166616166Y-109320766D02*
X166382833Y-108987433D01*
X166216166Y-109320766D02*
X166216166Y-108620766D01*
X166482833Y-108620766D01*
X166549500Y-108654100D01*
X166582833Y-108687433D01*
X166616166Y-108754100D01*
X166616166Y-108854100D01*
X166582833Y-108920766D01*
X166549500Y-108954100D01*
X166482833Y-108987433D01*
X166216166Y-108987433D01*
X167049500Y-108620766D02*
X167182833Y-108620766D01*
X167249500Y-108654100D01*
X167316166Y-108720766D01*
X167349500Y-108854100D01*
X167349500Y-109087433D01*
X167316166Y-109220766D01*
X167249500Y-109287433D01*
X167182833Y-109320766D01*
X167049500Y-109320766D01*
X166982833Y-109287433D01*
X166916166Y-109220766D01*
X166882833Y-109087433D01*
X166882833Y-108854100D01*
X166916166Y-108720766D01*
X166982833Y-108654100D01*
X167049500Y-108620766D01*
X167649500Y-109320766D02*
X167649500Y-108620766D01*
X168049500Y-109320766D02*
X167749500Y-108920766D01*
X168049500Y-108620766D02*
X167649500Y-109020766D01*
X168316166Y-108687433D02*
X168349500Y-108654100D01*
X168416166Y-108620766D01*
X168582833Y-108620766D01*
X168649500Y-108654100D01*
X168682833Y-108687433D01*
X168716166Y-108754100D01*
X168716166Y-108820766D01*
X168682833Y-108920766D01*
X168282833Y-109320766D01*
X168716166Y-109320766D01*
G04 #@! TO.C,ROK3*
X163695166Y-110324066D02*
X163461833Y-109990733D01*
X163295166Y-110324066D02*
X163295166Y-109624066D01*
X163561833Y-109624066D01*
X163628500Y-109657400D01*
X163661833Y-109690733D01*
X163695166Y-109757400D01*
X163695166Y-109857400D01*
X163661833Y-109924066D01*
X163628500Y-109957400D01*
X163561833Y-109990733D01*
X163295166Y-109990733D01*
X164128500Y-109624066D02*
X164261833Y-109624066D01*
X164328500Y-109657400D01*
X164395166Y-109724066D01*
X164428500Y-109857400D01*
X164428500Y-110090733D01*
X164395166Y-110224066D01*
X164328500Y-110290733D01*
X164261833Y-110324066D01*
X164128500Y-110324066D01*
X164061833Y-110290733D01*
X163995166Y-110224066D01*
X163961833Y-110090733D01*
X163961833Y-109857400D01*
X163995166Y-109724066D01*
X164061833Y-109657400D01*
X164128500Y-109624066D01*
X164728500Y-110324066D02*
X164728500Y-109624066D01*
X165128500Y-110324066D02*
X164828500Y-109924066D01*
X165128500Y-109624066D02*
X164728500Y-110024066D01*
X165361833Y-109624066D02*
X165795166Y-109624066D01*
X165561833Y-109890733D01*
X165661833Y-109890733D01*
X165728500Y-109924066D01*
X165761833Y-109957400D01*
X165795166Y-110024066D01*
X165795166Y-110190733D01*
X165761833Y-110257400D01*
X165728500Y-110290733D01*
X165661833Y-110324066D01*
X165461833Y-110324066D01*
X165395166Y-110290733D01*
X165361833Y-110257400D01*
G04 #@! TO.C,ROV1*
X158068266Y-110209766D02*
X157834933Y-109876433D01*
X157668266Y-110209766D02*
X157668266Y-109509766D01*
X157934933Y-109509766D01*
X158001600Y-109543100D01*
X158034933Y-109576433D01*
X158068266Y-109643100D01*
X158068266Y-109743100D01*
X158034933Y-109809766D01*
X158001600Y-109843100D01*
X157934933Y-109876433D01*
X157668266Y-109876433D01*
X158501600Y-109509766D02*
X158634933Y-109509766D01*
X158701600Y-109543100D01*
X158768266Y-109609766D01*
X158801600Y-109743100D01*
X158801600Y-109976433D01*
X158768266Y-110109766D01*
X158701600Y-110176433D01*
X158634933Y-110209766D01*
X158501600Y-110209766D01*
X158434933Y-110176433D01*
X158368266Y-110109766D01*
X158334933Y-109976433D01*
X158334933Y-109743100D01*
X158368266Y-109609766D01*
X158434933Y-109543100D01*
X158501600Y-109509766D01*
X159001600Y-109509766D02*
X159234933Y-110209766D01*
X159468266Y-109509766D01*
X160068266Y-110209766D02*
X159668266Y-110209766D01*
X159868266Y-110209766D02*
X159868266Y-109509766D01*
X159801600Y-109609766D01*
X159734933Y-109676433D01*
X159668266Y-109709766D01*
G04 #@! TO.C,ROV2*
X160913066Y-109295366D02*
X160679733Y-108962033D01*
X160513066Y-109295366D02*
X160513066Y-108595366D01*
X160779733Y-108595366D01*
X160846400Y-108628700D01*
X160879733Y-108662033D01*
X160913066Y-108728700D01*
X160913066Y-108828700D01*
X160879733Y-108895366D01*
X160846400Y-108928700D01*
X160779733Y-108962033D01*
X160513066Y-108962033D01*
X161346400Y-108595366D02*
X161479733Y-108595366D01*
X161546400Y-108628700D01*
X161613066Y-108695366D01*
X161646400Y-108828700D01*
X161646400Y-109062033D01*
X161613066Y-109195366D01*
X161546400Y-109262033D01*
X161479733Y-109295366D01*
X161346400Y-109295366D01*
X161279733Y-109262033D01*
X161213066Y-109195366D01*
X161179733Y-109062033D01*
X161179733Y-108828700D01*
X161213066Y-108695366D01*
X161279733Y-108628700D01*
X161346400Y-108595366D01*
X161846400Y-108595366D02*
X162079733Y-109295366D01*
X162313066Y-108595366D01*
X162513066Y-108662033D02*
X162546400Y-108628700D01*
X162613066Y-108595366D01*
X162779733Y-108595366D01*
X162846400Y-108628700D01*
X162879733Y-108662033D01*
X162913066Y-108728700D01*
X162913066Y-108795366D01*
X162879733Y-108895366D01*
X162479733Y-109295366D01*
X162913066Y-109295366D01*
G04 #@! TO.C,SUPERCAP*
D17*
X152316323Y-89584161D02*
X152459180Y-89631780D01*
X152697276Y-89631780D01*
X152792514Y-89584161D01*
X152840133Y-89536542D01*
X152887752Y-89441304D01*
X152887752Y-89346066D01*
X152840133Y-89250828D01*
X152792514Y-89203209D01*
X152697276Y-89155590D01*
X152506800Y-89107971D01*
X152411561Y-89060352D01*
X152363942Y-89012733D01*
X152316323Y-88917495D01*
X152316323Y-88822257D01*
X152363942Y-88727019D01*
X152411561Y-88679400D01*
X152506800Y-88631780D01*
X152744895Y-88631780D01*
X152887752Y-88679400D01*
X153316323Y-88631780D02*
X153316323Y-89441304D01*
X153363942Y-89536542D01*
X153411561Y-89584161D01*
X153506800Y-89631780D01*
X153697276Y-89631780D01*
X153792514Y-89584161D01*
X153840133Y-89536542D01*
X153887752Y-89441304D01*
X153887752Y-88631780D01*
X154363942Y-89631780D02*
X154363942Y-88631780D01*
X154744895Y-88631780D01*
X154840133Y-88679400D01*
X154887752Y-88727019D01*
X154935371Y-88822257D01*
X154935371Y-88965114D01*
X154887752Y-89060352D01*
X154840133Y-89107971D01*
X154744895Y-89155590D01*
X154363942Y-89155590D01*
X155363942Y-89107971D02*
X155697276Y-89107971D01*
X155840133Y-89631780D02*
X155363942Y-89631780D01*
X155363942Y-88631780D01*
X155840133Y-88631780D01*
X156840133Y-89631780D02*
X156506800Y-89155590D01*
X156268704Y-89631780D02*
X156268704Y-88631780D01*
X156649657Y-88631780D01*
X156744895Y-88679400D01*
X156792514Y-88727019D01*
X156840133Y-88822257D01*
X156840133Y-88965114D01*
X156792514Y-89060352D01*
X156744895Y-89107971D01*
X156649657Y-89155590D01*
X156268704Y-89155590D01*
X157840133Y-89536542D02*
X157792514Y-89584161D01*
X157649657Y-89631780D01*
X157554419Y-89631780D01*
X157411561Y-89584161D01*
X157316323Y-89488923D01*
X157268704Y-89393685D01*
X157221085Y-89203209D01*
X157221085Y-89060352D01*
X157268704Y-88869876D01*
X157316323Y-88774638D01*
X157411561Y-88679400D01*
X157554419Y-88631780D01*
X157649657Y-88631780D01*
X157792514Y-88679400D01*
X157840133Y-88727019D01*
X158221085Y-89346066D02*
X158697276Y-89346066D01*
X158125847Y-89631780D02*
X158459180Y-88631780D01*
X158792514Y-89631780D01*
X159125847Y-89631780D02*
X159125847Y-88631780D01*
X159506800Y-88631780D01*
X159602038Y-88679400D01*
X159649657Y-88727019D01*
X159697276Y-88822257D01*
X159697276Y-88965114D01*
X159649657Y-89060352D01*
X159602038Y-89107971D01*
X159506800Y-89155590D01*
X159125847Y-89155590D01*
G04 #@! TO.C,SPV1050*
D18*
X131045261Y-98177309D02*
X131159547Y-98215404D01*
X131350023Y-98215404D01*
X131426214Y-98177309D01*
X131464309Y-98139214D01*
X131502404Y-98063023D01*
X131502404Y-97986833D01*
X131464309Y-97910642D01*
X131426214Y-97872547D01*
X131350023Y-97834452D01*
X131197642Y-97796357D01*
X131121452Y-97758261D01*
X131083357Y-97720166D01*
X131045261Y-97643976D01*
X131045261Y-97567785D01*
X131083357Y-97491595D01*
X131121452Y-97453500D01*
X131197642Y-97415404D01*
X131388119Y-97415404D01*
X131502404Y-97453500D01*
X131845261Y-98215404D02*
X131845261Y-97415404D01*
X132150023Y-97415404D01*
X132226214Y-97453500D01*
X132264309Y-97491595D01*
X132302404Y-97567785D01*
X132302404Y-97682071D01*
X132264309Y-97758261D01*
X132226214Y-97796357D01*
X132150023Y-97834452D01*
X131845261Y-97834452D01*
X132530976Y-97415404D02*
X132797642Y-98215404D01*
X133064309Y-97415404D01*
X133750023Y-98215404D02*
X133292880Y-98215404D01*
X133521452Y-98215404D02*
X133521452Y-97415404D01*
X133445261Y-97529690D01*
X133369071Y-97605880D01*
X133292880Y-97643976D01*
X134245261Y-97415404D02*
X134321452Y-97415404D01*
X134397642Y-97453500D01*
X134435738Y-97491595D01*
X134473833Y-97567785D01*
X134511928Y-97720166D01*
X134511928Y-97910642D01*
X134473833Y-98063023D01*
X134435738Y-98139214D01*
X134397642Y-98177309D01*
X134321452Y-98215404D01*
X134245261Y-98215404D01*
X134169071Y-98177309D01*
X134130976Y-98139214D01*
X134092880Y-98063023D01*
X134054785Y-97910642D01*
X134054785Y-97720166D01*
X134092880Y-97567785D01*
X134130976Y-97491595D01*
X134169071Y-97453500D01*
X134245261Y-97415404D01*
X135235738Y-97415404D02*
X134854785Y-97415404D01*
X134816690Y-97796357D01*
X134854785Y-97758261D01*
X134930976Y-97720166D01*
X135121452Y-97720166D01*
X135197642Y-97758261D01*
X135235738Y-97796357D01*
X135273833Y-97872547D01*
X135273833Y-98063023D01*
X135235738Y-98139214D01*
X135197642Y-98177309D01*
X135121452Y-98215404D01*
X134930976Y-98215404D01*
X134854785Y-98177309D01*
X134816690Y-98139214D01*
X135769071Y-97415404D02*
X135845261Y-97415404D01*
X135921452Y-97453500D01*
X135959547Y-97491595D01*
X135997642Y-97567785D01*
X136035738Y-97720166D01*
X136035738Y-97910642D01*
X135997642Y-98063023D01*
X135959547Y-98139214D01*
X135921452Y-98177309D01*
X135845261Y-98215404D01*
X135769071Y-98215404D01*
X135692880Y-98177309D01*
X135654785Y-98139214D01*
X135616690Y-98063023D01*
X135578595Y-97910642D01*
X135578595Y-97720166D01*
X135616690Y-97567785D01*
X135654785Y-97491595D01*
X135692880Y-97453500D01*
X135769071Y-97415404D01*
G04 #@! TO.C,*
D17*
D16*
X155938166Y-103302600D02*
X156038166Y-103335933D01*
X156071500Y-103369266D01*
X156104833Y-103435933D01*
X156104833Y-103535933D01*
X156071500Y-103602600D01*
X156038166Y-103635933D01*
X155971500Y-103669266D01*
X155704833Y-103669266D01*
X155704833Y-102969266D01*
X155938166Y-102969266D01*
X156004833Y-103002600D01*
X156038166Y-103035933D01*
X156071500Y-103102600D01*
X156071500Y-103169266D01*
X156038166Y-103235933D01*
X156004833Y-103269266D01*
X155938166Y-103302600D01*
X155704833Y-103302600D01*
X156871500Y-103735933D02*
X156804833Y-103702600D01*
X156738166Y-103635933D01*
X156638166Y-103535933D01*
X156571500Y-103502600D01*
X156504833Y-103502600D01*
X156538166Y-103669266D02*
X156471500Y-103635933D01*
X156404833Y-103569266D01*
X156371500Y-103435933D01*
X156371500Y-103202600D01*
X156404833Y-103069266D01*
X156471500Y-103002600D01*
X156538166Y-102969266D01*
X156671500Y-102969266D01*
X156738166Y-103002600D01*
X156804833Y-103069266D01*
X156838166Y-103202600D01*
X156838166Y-103435933D01*
X156804833Y-103569266D01*
X156738166Y-103635933D01*
X156671500Y-103669266D01*
X156538166Y-103669266D01*
X157104833Y-103035933D02*
X157138166Y-103002600D01*
X157204833Y-102969266D01*
X157371500Y-102969266D01*
X157438166Y-103002600D01*
X157471500Y-103035933D01*
X157504833Y-103102600D01*
X157504833Y-103169266D01*
X157471500Y-103269266D01*
X157071500Y-103669266D01*
X157504833Y-103669266D01*
X158138166Y-102969266D02*
X157804833Y-102969266D01*
X157771500Y-103302600D01*
X157804833Y-103269266D01*
X157871500Y-103235933D01*
X158038166Y-103235933D01*
X158104833Y-103269266D01*
X158138166Y-103302600D01*
X158171500Y-103369266D01*
X158171500Y-103535933D01*
X158138166Y-103602600D01*
X158104833Y-103635933D01*
X158038166Y-103669266D01*
X157871500Y-103669266D01*
X157804833Y-103635933D01*
X157771500Y-103602600D01*
X158804833Y-102969266D02*
X158471500Y-102969266D01*
X158438166Y-103302600D01*
X158471500Y-103269266D01*
X158538166Y-103235933D01*
X158704833Y-103235933D01*
X158771500Y-103269266D01*
X158804833Y-103302600D01*
X158838166Y-103369266D01*
X158838166Y-103535933D01*
X158804833Y-103602600D01*
X158771500Y-103635933D01*
X158704833Y-103669266D01*
X158538166Y-103669266D01*
X158471500Y-103635933D01*
X158438166Y-103602600D01*
X159271500Y-102969266D02*
X159338166Y-102969266D01*
X159404833Y-103002600D01*
X159438166Y-103035933D01*
X159471500Y-103102600D01*
X159504833Y-103235933D01*
X159504833Y-103402600D01*
X159471500Y-103535933D01*
X159438166Y-103602600D01*
X159404833Y-103635933D01*
X159338166Y-103669266D01*
X159271500Y-103669266D01*
X159204833Y-103635933D01*
X159171500Y-103602600D01*
X159138166Y-103535933D01*
X159104833Y-103402600D01*
X159104833Y-103235933D01*
X159138166Y-103102600D01*
X159171500Y-103035933D01*
X159204833Y-103002600D01*
X159271500Y-102969266D01*
X160138166Y-102969266D02*
X159804833Y-102969266D01*
X159771500Y-103302600D01*
X159804833Y-103269266D01*
X159871500Y-103235933D01*
X160038166Y-103235933D01*
X160104833Y-103269266D01*
X160138166Y-103302600D01*
X160171500Y-103369266D01*
X160171500Y-103535933D01*
X160138166Y-103602600D01*
X160104833Y-103635933D01*
X160038166Y-103669266D01*
X159871500Y-103669266D01*
X159804833Y-103635933D01*
X159771500Y-103602600D01*
X160871500Y-103669266D02*
X160638166Y-103335933D01*
X160471500Y-103669266D02*
X160471500Y-102969266D01*
X160738166Y-102969266D01*
X160804833Y-103002600D01*
X160838166Y-103035933D01*
X160871500Y-103102600D01*
X160871500Y-103202600D01*
X160838166Y-103269266D01*
X160804833Y-103302600D01*
X160738166Y-103335933D01*
X160471500Y-103335933D01*
X161538166Y-103002600D02*
X161471500Y-102969266D01*
X161371500Y-102969266D01*
X161271500Y-103002600D01*
X161204833Y-103069266D01*
X161171500Y-103135933D01*
X161138166Y-103269266D01*
X161138166Y-103369266D01*
X161171500Y-103502600D01*
X161204833Y-103569266D01*
X161271500Y-103635933D01*
X161371500Y-103669266D01*
X161438166Y-103669266D01*
X161538166Y-103635933D01*
X161571500Y-103602600D01*
X161571500Y-103369266D01*
X161438166Y-103369266D01*
X162271500Y-103669266D02*
X162038166Y-103335933D01*
X161871500Y-103669266D02*
X161871500Y-102969266D01*
X162138166Y-102969266D01*
X162204833Y-103002600D01*
X162238166Y-103035933D01*
X162271500Y-103102600D01*
X162271500Y-103202600D01*
X162238166Y-103269266D01*
X162204833Y-103302600D01*
X162138166Y-103335933D01*
X161871500Y-103335933D01*
X162971500Y-103669266D02*
X162738166Y-103335933D01*
X162571500Y-103669266D02*
X162571500Y-102969266D01*
X162838166Y-102969266D01*
X162904833Y-103002600D01*
X162938166Y-103035933D01*
X162971500Y-103102600D01*
X162971500Y-103202600D01*
X162938166Y-103269266D01*
X162904833Y-103302600D01*
X162838166Y-103335933D01*
X162571500Y-103335933D01*
D17*
X156465000Y-97521380D02*
X156465000Y-97759476D01*
X156226904Y-97664238D02*
X156465000Y-97759476D01*
X156703095Y-97664238D01*
X156322142Y-97949952D02*
X156465000Y-97759476D01*
X156607857Y-97949952D01*
X156465000Y-97521380D02*
X156465000Y-97759476D01*
X156226904Y-97664238D02*
X156465000Y-97759476D01*
X156703095Y-97664238D01*
X156322142Y-97949952D02*
X156465000Y-97759476D01*
X156607857Y-97949952D01*
D14*
X174944066Y-111278657D02*
X174944066Y-110802466D01*
X175229780Y-111373895D02*
X174229780Y-111040561D01*
X175229780Y-110707228D01*
X175229780Y-110373895D02*
X174229780Y-110373895D01*
X174229780Y-109992942D01*
X174277400Y-109897704D01*
X174325019Y-109850085D01*
X174420257Y-109802466D01*
X174563114Y-109802466D01*
X174658352Y-109850085D01*
X174705971Y-109897704D01*
X174753590Y-109992942D01*
X174753590Y-110373895D01*
X174229780Y-109469133D02*
X174229780Y-108802466D01*
X175229780Y-109231038D01*
X174229780Y-108516752D02*
X174229780Y-107897704D01*
X174610733Y-108231038D01*
X174610733Y-108088180D01*
X174658352Y-107992942D01*
X174705971Y-107945323D01*
X174801209Y-107897704D01*
X175039304Y-107897704D01*
X175134542Y-107945323D01*
X175182161Y-107992942D01*
X175229780Y-108088180D01*
X175229780Y-108373895D01*
X175182161Y-108469133D01*
X175134542Y-108516752D01*
X174229780Y-107040561D02*
X174229780Y-107231038D01*
X174277400Y-107326276D01*
X174325019Y-107373895D01*
X174467876Y-107469133D01*
X174658352Y-107516752D01*
X175039304Y-107516752D01*
X175134542Y-107469133D01*
X175182161Y-107421514D01*
X175229780Y-107326276D01*
X175229780Y-107135800D01*
X175182161Y-107040561D01*
X175134542Y-106992942D01*
X175039304Y-106945323D01*
X174801209Y-106945323D01*
X174705971Y-106992942D01*
X174658352Y-107040561D01*
X174610733Y-107135800D01*
X174610733Y-107326276D01*
X174658352Y-107421514D01*
X174705971Y-107469133D01*
X174801209Y-107516752D01*
X174229780Y-106040561D02*
X174229780Y-106516752D01*
X174705971Y-106564371D01*
X174658352Y-106516752D01*
X174610733Y-106421514D01*
X174610733Y-106183419D01*
X174658352Y-106088180D01*
X174705971Y-106040561D01*
X174801209Y-105992942D01*
X175039304Y-105992942D01*
X175134542Y-106040561D01*
X175182161Y-106088180D01*
X175229780Y-106183419D01*
X175229780Y-106421514D01*
X175182161Y-106516752D01*
X175134542Y-106564371D01*
D17*
X174096180Y-105446000D02*
X174334276Y-105446000D01*
X174239038Y-105684095D02*
X174334276Y-105446000D01*
X174239038Y-105207904D01*
X174524752Y-105588857D02*
X174334276Y-105446000D01*
X174524752Y-105303142D01*
X174096180Y-105446000D02*
X174334276Y-105446000D01*
X174239038Y-105684095D02*
X174334276Y-105446000D01*
X174239038Y-105207904D01*
X174524752Y-105588857D02*
X174334276Y-105446000D01*
X174524752Y-105303142D01*
G04 #@! TD*
M02*
