<svg version="1.1" xmlns="http://www.w3.org/2000/svg" xmlns:xlink="http://www.w3.org/1999/xlink" stroke-linecap="round" stroke-linejoin="round" stroke-width="0" fill-rule="evenodd" width="48.606359mm" height="31.202mm" viewBox="121099 -117401 48606.359 31202" id="rBSy1GIPHKE-hP7WUU7P"><g transform="translate(0,-203600) scale(1,-1)" fill="currentColor" stroke="currentColor"><path d="M 164690.443 -115605.519 164756.627 -115612.037 164869.853 -115646.384 164926.467 -115663.557 165065.087 -115737.652 165082.991 -115747.222 165118.729 -115776.552 165220.186 -115859.814 165303.448 -115961.271 165332.778 -115997.009 165332.779 -115997.011 165416.443 -116153.533 165416.443 -116153.534 165467.963 -116323.373 165485.359 -116500 165467.963 -116676.627 165433.616 -116789.853 165416.443 -116846.467 165342.348 -116985.087 165332.778 -117002.991 165303.448 -117038.729 165220.186 -117140.186 165118.729 -117223.448 165082.991 -117252.778 165082.989 -117252.779 164926.467 -117336.443 164869.853 -117353.616 164756.627 -117387.963 164690.442 -117394.482 164624.26 -117401 164535.74 -117401 164469.558 -117394.482 164403.373 -117387.963 164290.147 -117353.616 164233.533 -117336.443 164077.011 -117252.779 164077.009 -117252.778 164041.271 -117223.448 163939.814 -117140.186 163856.552 -117038.729 163827.222 -117002.991 163817.652 -116985.087 163743.557 -116846.467 163726.384 -116789.853 163692.037 -116676.627 163674.641 -116500 163692.037 -116323.373 163743.557 -116153.534 163743.557 -116153.533 163827.221 -115997.011 163827.222 -115997.009 163856.552 -115961.271 163939.814 -115859.814 164041.271 -115776.552 164077.009 -115747.222 164094.913 -115737.652 164233.533 -115663.557 164290.147 -115646.384 164403.373 -115612.037 164469.557 -115605.519 164535.74 -115599 164624.26 -115599 164690.443 -115605.519 164690.443 -115605.519"/><path d="M 132550.443 -115605.519 132616.627 -115612.037 132729.853 -115646.384 132786.467 -115663.557 132925.087 -115737.652 132942.991 -115747.222 132978.729 -115776.552 133080.186 -115859.814 133163.448 -115961.271 133192.778 -115997.009 133192.779 -115997.011 133276.443 -116153.533 133276.443 -116153.534 133327.963 -116323.373 133345.359 -116500 133327.963 -116676.627 133293.616 -116789.853 133276.443 -116846.467 133202.348 -116985.087 133192.778 -117002.991 133163.448 -117038.729 133080.186 -117140.186 132978.729 -117223.448 132942.991 -117252.778 132942.989 -117252.779 132786.467 -117336.443 132729.853 -117353.616 132616.627 -117387.963 132550.442 -117394.482 132484.26 -117401 132395.74 -117401 132329.558 -117394.482 132263.373 -117387.963 132150.147 -117353.616 132093.533 -117336.443 131937.011 -117252.779 131937.009 -117252.778 131901.271 -117223.448 131799.814 -117140.186 131716.552 -117038.729 131687.222 -117002.991 131677.652 -116985.087 131603.557 -116846.467 131586.384 -116789.853 131552.037 -116676.627 131534.641 -116500 131552.037 -116323.373 131603.557 -116153.534 131603.557 -116153.533 131687.221 -115997.011 131687.222 -115997.009 131716.552 -115961.271 131799.814 -115859.814 131901.271 -115776.552 131937.009 -115747.222 131954.913 -115737.652 132093.533 -115663.557 132150.147 -115646.384 132263.373 -115612.037 132329.557 -115605.519 132395.74 -115599 132484.26 -115599 132550.443 -115605.519 132550.443 -115605.519"/><path d="M 154530.443 -115605.519 154596.627 -115612.037 154709.853 -115646.384 154766.467 -115663.557 154905.087 -115737.652 154922.991 -115747.222 154958.729 -115776.552 155060.186 -115859.814 155143.448 -115961.271 155172.778 -115997.009 155172.779 -115997.011 155256.443 -116153.533 155256.443 -116153.534 155307.963 -116323.373 155325.359 -116500 155307.963 -116676.627 155273.616 -116789.853 155256.443 -116846.467 155182.348 -116985.087 155172.778 -117002.991 155143.448 -117038.729 155060.186 -117140.186 154958.729 -117223.448 154922.991 -117252.778 154922.989 -117252.779 154766.467 -117336.443 154709.853 -117353.616 154596.627 -117387.963 154530.442 -117394.482 154464.26 -117401 154375.74 -117401 154309.558 -117394.482 154243.373 -117387.963 154130.147 -117353.616 154073.533 -117336.443 153917.011 -117252.779 153917.009 -117252.778 153881.271 -117223.448 153779.814 -117140.186 153696.552 -117038.729 153667.222 -117002.991 153657.652 -116985.087 153583.557 -116846.467 153566.384 -116789.853 153532.037 -116676.627 153514.641 -116500 153532.037 -116323.373 153583.557 -116153.534 153583.557 -116153.533 153667.221 -115997.011 153667.222 -115997.009 153696.552 -115961.271 153779.814 -115859.814 153881.271 -115776.552 153917.009 -115747.222 153934.913 -115737.652 154073.533 -115663.557 154130.147 -115646.384 154243.373 -115612.037 154309.557 -115605.519 154375.74 -115599 154464.26 -115599 154530.443 -115605.519 154530.443 -115605.519"/><path d="M 151990.443 -115605.519 152056.627 -115612.037 152169.853 -115646.384 152226.467 -115663.557 152365.087 -115737.652 152382.991 -115747.222 152418.729 -115776.552 152520.186 -115859.814 152603.448 -115961.271 152632.778 -115997.009 152632.779 -115997.011 152716.443 -116153.533 152716.443 -116153.534 152767.963 -116323.373 152785.359 -116500 152767.963 -116676.627 152733.616 -116789.853 152716.443 -116846.467 152642.348 -116985.087 152632.778 -117002.991 152603.448 -117038.729 152520.186 -117140.186 152418.729 -117223.448 152382.991 -117252.778 152382.989 -117252.779 152226.467 -117336.443 152169.853 -117353.616 152056.627 -117387.963 151990.442 -117394.482 151924.26 -117401 151835.74 -117401 151769.558 -117394.482 151703.373 -117387.963 151590.147 -117353.616 151533.533 -117336.443 151377.011 -117252.779 151377.009 -117252.778 151341.271 -117223.448 151239.814 -117140.186 151156.552 -117038.729 151127.222 -117002.991 151117.652 -116985.087 151043.557 -116846.467 151026.384 -116789.853 150992.037 -116676.627 150974.641 -116500 150992.037 -116323.373 151043.557 -116153.534 151043.557 -116153.533 151127.221 -115997.011 151127.222 -115997.009 151156.552 -115961.271 151239.814 -115859.814 151341.271 -115776.552 151377.009 -115747.222 151394.913 -115737.652 151533.533 -115663.557 151590.147 -115646.384 151703.373 -115612.037 151769.557 -115605.519 151835.74 -115599 151924.26 -115599 151990.443 -115605.519 151990.443 -115605.519"/><path d="M 149450.443 -115605.519 149516.627 -115612.037 149629.853 -115646.384 149686.467 -115663.557 149825.087 -115737.652 149842.991 -115747.222 149878.729 -115776.552 149980.186 -115859.814 150063.448 -115961.271 150092.778 -115997.009 150092.779 -115997.011 150176.443 -116153.533 150176.443 -116153.534 150227.963 -116323.373 150245.359 -116500 150227.963 -116676.627 150193.616 -116789.853 150176.443 -116846.467 150102.348 -116985.087 150092.778 -117002.991 150063.448 -117038.729 149980.186 -117140.186 149878.729 -117223.448 149842.991 -117252.778 149842.989 -117252.779 149686.467 -117336.443 149629.853 -117353.616 149516.627 -117387.963 149450.442 -117394.482 149384.26 -117401 149295.74 -117401 149229.558 -117394.482 149163.373 -117387.963 149050.147 -117353.616 148993.533 -117336.443 148837.011 -117252.779 148837.009 -117252.778 148801.271 -117223.448 148699.814 -117140.186 148616.552 -117038.729 148587.222 -117002.991 148577.652 -116985.087 148503.557 -116846.467 148486.384 -116789.853 148452.037 -116676.627 148434.641 -116500 148452.037 -116323.373 148503.557 -116153.534 148503.557 -116153.533 148587.221 -115997.011 148587.222 -115997.009 148616.552 -115961.271 148699.814 -115859.814 148801.271 -115776.552 148837.009 -115747.222 148854.913 -115737.652 148993.533 -115663.557 149050.147 -115646.384 149163.373 -115612.037 149229.557 -115605.519 149295.74 -115599 149384.26 -115599 149450.443 -115605.519 149450.443 -115605.519"/><path d="M 147701 -117401 145899 -117401 145899 -115599 147701 -115599 147701 -117401 147701 -117401"/><path d="M 143501 -117401 141699 -117401 141699 -115599 143501 -115599 143501 -117401 143501 -117401"/><path d="M 140170.443 -115605.519 140236.627 -115612.037 140349.853 -115646.384 140406.467 -115663.557 140545.087 -115737.652 140562.991 -115747.222 140598.729 -115776.552 140700.186 -115859.814 140783.448 -115961.271 140812.778 -115997.009 140812.779 -115997.011 140896.443 -116153.533 140896.443 -116153.534 140947.963 -116323.373 140965.359 -116500 140947.963 -116676.627 140913.616 -116789.853 140896.443 -116846.467 140822.348 -116985.087 140812.778 -117002.991 140783.448 -117038.729 140700.186 -117140.186 140598.729 -117223.448 140562.991 -117252.778 140562.989 -117252.779 140406.467 -117336.443 140349.853 -117353.616 140236.627 -117387.963 140170.442 -117394.482 140104.26 -117401 140015.74 -117401 139949.558 -117394.482 139883.373 -117387.963 139770.147 -117353.616 139713.533 -117336.443 139557.011 -117252.779 139557.009 -117252.778 139521.271 -117223.448 139419.814 -117140.186 139336.552 -117038.729 139307.222 -117002.991 139297.652 -116985.087 139223.557 -116846.467 139206.384 -116789.853 139172.037 -116676.627 139154.641 -116500 139172.037 -116323.373 139223.557 -116153.534 139223.557 -116153.533 139307.221 -115997.011 139307.222 -115997.009 139336.552 -115961.271 139419.814 -115859.814 139521.271 -115776.552 139557.009 -115747.222 139574.913 -115737.652 139713.533 -115663.557 139770.147 -115646.384 139883.373 -115612.037 139949.557 -115605.519 140015.74 -115599 140104.26 -115599 140170.443 -115605.519 140170.443 -115605.519"/><path d="M 137630.443 -115605.519 137696.627 -115612.037 137809.853 -115646.384 137866.467 -115663.557 138005.087 -115737.652 138022.991 -115747.222 138058.729 -115776.552 138160.186 -115859.814 138243.448 -115961.271 138272.778 -115997.009 138272.779 -115997.011 138356.443 -116153.533 138356.443 -116153.534 138407.963 -116323.373 138425.359 -116500 138407.963 -116676.627 138373.616 -116789.853 138356.443 -116846.467 138282.348 -116985.087 138272.778 -117002.991 138243.448 -117038.729 138160.186 -117140.186 138058.729 -117223.448 138022.991 -117252.778 138022.989 -117252.779 137866.467 -117336.443 137809.853 -117353.616 137696.627 -117387.963 137630.442 -117394.482 137564.26 -117401 137475.74 -117401 137409.558 -117394.482 137343.373 -117387.963 137230.147 -117353.616 137173.533 -117336.443 137017.011 -117252.779 137017.009 -117252.778 136981.271 -117223.448 136879.814 -117140.186 136796.552 -117038.729 136767.222 -117002.991 136757.652 -116985.087 136683.557 -116846.467 136666.384 -116789.853 136632.037 -116676.627 136614.641 -116500 136632.037 -116323.373 136683.557 -116153.534 136683.557 -116153.533 136767.221 -115997.011 136767.222 -115997.009 136796.552 -115961.271 136879.814 -115859.814 136981.271 -115776.552 137017.009 -115747.222 137034.913 -115737.652 137173.533 -115663.557 137230.147 -115646.384 137343.373 -115612.037 137409.557 -115605.519 137475.74 -115599 137564.26 -115599 137630.443 -115605.519 137630.443 -115605.519"/><path d="M 135090.443 -115605.519 135156.627 -115612.037 135269.853 -115646.384 135326.467 -115663.557 135465.087 -115737.652 135482.991 -115747.222 135518.729 -115776.552 135620.186 -115859.814 135703.448 -115961.271 135732.778 -115997.009 135732.779 -115997.011 135816.443 -116153.533 135816.443 -116153.534 135867.963 -116323.373 135885.359 -116500 135867.963 -116676.627 135833.616 -116789.853 135816.443 -116846.467 135742.348 -116985.087 135732.778 -117002.991 135703.448 -117038.729 135620.186 -117140.186 135518.729 -117223.448 135482.991 -117252.778 135482.989 -117252.779 135326.467 -117336.443 135269.853 -117353.616 135156.627 -117387.963 135090.442 -117394.482 135024.26 -117401 134935.74 -117401 134869.558 -117394.482 134803.373 -117387.963 134690.147 -117353.616 134633.533 -117336.443 134477.011 -117252.779 134477.009 -117252.778 134441.271 -117223.448 134339.814 -117140.186 134256.552 -117038.729 134227.222 -117002.991 134217.652 -116985.087 134143.557 -116846.467 134126.384 -116789.853 134092.037 -116676.627 134074.641 -116500 134092.037 -116323.373 134143.557 -116153.534 134143.557 -116153.533 134227.221 -115997.011 134227.222 -115997.009 134256.552 -115961.271 134339.814 -115859.814 134441.271 -115776.552 134477.009 -115747.222 134494.913 -115737.652 134633.533 -115663.557 134690.147 -115646.384 134803.373 -115612.037 134869.557 -115605.519 134935.74 -115599 135024.26 -115599 135090.443 -115605.519 135090.443 -115605.519"/><path d="M 130010.443 -115605.519 130076.627 -115612.037 130189.853 -115646.384 130246.467 -115663.557 130385.087 -115737.652 130402.991 -115747.222 130438.729 -115776.552 130540.186 -115859.814 130623.448 -115961.271 130652.778 -115997.009 130652.779 -115997.011 130736.443 -116153.533 130736.443 -116153.534 130787.963 -116323.373 130805.359 -116500 130787.963 -116676.627 130753.616 -116789.853 130736.443 -116846.467 130662.348 -116985.087 130652.778 -117002.991 130623.448 -117038.729 130540.186 -117140.186 130438.729 -117223.448 130402.991 -117252.778 130402.989 -117252.779 130246.467 -117336.443 130189.853 -117353.616 130076.627 -117387.963 130010.442 -117394.482 129944.26 -117401 129855.74 -117401 129789.558 -117394.482 129723.373 -117387.963 129610.147 -117353.616 129553.533 -117336.443 129397.011 -117252.779 129397.009 -117252.778 129361.271 -117223.448 129259.814 -117140.186 129176.552 -117038.729 129147.222 -117002.991 129137.652 -116985.087 129063.557 -116846.467 129046.384 -116789.853 129012.037 -116676.627 128994.641 -116500 129012.037 -116323.373 129063.557 -116153.534 129063.557 -116153.533 129147.221 -115997.011 129147.222 -115997.009 129176.552 -115961.271 129259.814 -115859.814 129361.271 -115776.552 129397.009 -115747.222 129414.913 -115737.652 129553.533 -115663.557 129610.147 -115646.384 129723.373 -115612.037 129789.557 -115605.519 129855.74 -115599 129944.26 -115599 130010.443 -115605.519 130010.443 -115605.519"/><path d="M 127470.443 -115605.519 127536.627 -115612.037 127649.853 -115646.384 127706.467 -115663.557 127845.087 -115737.652 127862.991 -115747.222 127898.729 -115776.552 128000.186 -115859.814 128083.448 -115961.271 128112.778 -115997.009 128112.779 -115997.011 128196.443 -116153.533 128196.443 -116153.534 128247.963 -116323.373 128265.359 -116500 128247.963 -116676.627 128213.616 -116789.853 128196.443 -116846.467 128122.348 -116985.087 128112.778 -117002.991 128083.448 -117038.729 128000.186 -117140.186 127898.729 -117223.448 127862.991 -117252.778 127862.989 -117252.779 127706.467 -117336.443 127649.853 -117353.616 127536.627 -117387.963 127470.442 -117394.482 127404.26 -117401 127315.74 -117401 127249.558 -117394.482 127183.373 -117387.963 127070.147 -117353.616 127013.533 -117336.443 126857.011 -117252.779 126857.009 -117252.778 126821.271 -117223.448 126719.814 -117140.186 126636.552 -117038.729 126607.222 -117002.991 126597.652 -116985.087 126523.557 -116846.467 126506.384 -116789.853 126472.037 -116676.627 126454.641 -116500 126472.037 -116323.373 126523.557 -116153.534 126523.557 -116153.533 126607.221 -115997.011 126607.222 -115997.009 126636.552 -115961.271 126719.814 -115859.814 126821.271 -115776.552 126857.009 -115747.222 126874.913 -115737.652 127013.533 -115663.557 127070.147 -115646.384 127183.373 -115612.037 127249.557 -115605.519 127315.74 -115599 127404.26 -115599 127470.443 -115605.519 127470.443 -115605.519"/><path d="M 124930.443 -115605.519 124996.627 -115612.037 125109.853 -115646.384 125166.467 -115663.557 125305.087 -115737.652 125322.991 -115747.222 125358.729 -115776.552 125460.186 -115859.814 125543.448 -115961.271 125572.778 -115997.009 125572.779 -115997.011 125656.443 -116153.533 125656.443 -116153.534 125707.963 -116323.373 125725.359 -116500 125707.963 -116676.627 125673.616 -116789.853 125656.443 -116846.467 125582.348 -116985.087 125572.778 -117002.991 125543.448 -117038.729 125460.186 -117140.186 125358.729 -117223.448 125322.991 -117252.778 125322.989 -117252.779 125166.467 -117336.443 125109.853 -117353.616 124996.627 -117387.963 124930.442 -117394.482 124864.26 -117401 124775.74 -117401 124709.558 -117394.482 124643.373 -117387.963 124530.147 -117353.616 124473.533 -117336.443 124317.011 -117252.779 124317.009 -117252.778 124281.271 -117223.448 124179.814 -117140.186 124096.552 -117038.729 124067.222 -117002.991 124057.652 -116985.087 123983.557 -116846.467 123966.384 -116789.853 123932.037 -116676.627 123914.641 -116500 123932.037 -116323.373 123983.557 -116153.534 123983.557 -116153.533 124067.221 -115997.011 124067.222 -115997.009 124096.552 -115961.271 124179.814 -115859.814 124281.271 -115776.552 124317.009 -115747.222 124334.913 -115737.652 124473.533 -115663.557 124530.147 -115646.384 124643.373 -115612.037 124709.557 -115605.519 124775.74 -115599 124864.26 -115599 124930.443 -115605.519 124930.443 -115605.519"/><path d="M 157070.443 -115605.519 157136.627 -115612.037 157249.853 -115646.384 157306.467 -115663.557 157445.087 -115737.652 157462.991 -115747.222 157498.729 -115776.552 157600.186 -115859.814 157683.448 -115961.271 157712.778 -115997.009 157712.779 -115997.011 157796.443 -116153.533 157796.443 -116153.534 157847.963 -116323.373 157865.359 -116500 157847.963 -116676.627 157813.616 -116789.853 157796.443 -116846.467 157722.348 -116985.087 157712.778 -117002.991 157683.448 -117038.729 157600.186 -117140.186 157498.729 -117223.448 157462.991 -117252.778 157462.989 -117252.779 157306.467 -117336.443 157249.853 -117353.616 157136.627 -117387.963 157070.442 -117394.482 157004.26 -117401 156915.74 -117401 156849.558 -117394.482 156783.373 -117387.963 156670.147 -117353.616 156613.533 -117336.443 156457.011 -117252.779 156457.009 -117252.778 156421.271 -117223.448 156319.814 -117140.186 156236.552 -117038.729 156207.222 -117002.991 156197.652 -116985.087 156123.557 -116846.467 156106.384 -116789.853 156072.037 -116676.627 156054.641 -116500 156072.037 -116323.373 156123.557 -116153.534 156123.557 -116153.533 156207.221 -115997.011 156207.222 -115997.009 156236.552 -115961.271 156319.814 -115859.814 156421.271 -115776.552 156457.009 -115747.222 156474.913 -115737.652 156613.533 -115663.557 156670.147 -115646.384 156783.373 -115612.037 156849.557 -115605.519 156915.74 -115599 157004.26 -115599 157070.443 -115605.519 157070.443 -115605.519"/><path d="M 159610.443 -115605.519 159676.627 -115612.037 159789.853 -115646.384 159846.467 -115663.557 159985.087 -115737.652 160002.991 -115747.222 160038.729 -115776.552 160140.186 -115859.814 160223.448 -115961.271 160252.778 -115997.009 160252.779 -115997.011 160336.443 -116153.533 160336.443 -116153.534 160387.963 -116323.373 160405.359 -116500 160387.963 -116676.627 160353.616 -116789.853 160336.443 -116846.467 160262.348 -116985.087 160252.778 -117002.991 160223.448 -117038.729 160140.186 -117140.186 160038.729 -117223.448 160002.991 -117252.778 160002.989 -117252.779 159846.467 -117336.443 159789.853 -117353.616 159676.627 -117387.963 159610.442 -117394.482 159544.26 -117401 159455.74 -117401 159389.558 -117394.482 159323.373 -117387.963 159210.147 -117353.616 159153.533 -117336.443 158997.011 -117252.779 158997.009 -117252.778 158961.271 -117223.448 158859.814 -117140.186 158776.552 -117038.729 158747.222 -117002.991 158737.652 -116985.087 158663.557 -116846.467 158646.384 -116789.853 158612.037 -116676.627 158594.641 -116500 158612.037 -116323.373 158663.557 -116153.534 158663.557 -116153.533 158747.221 -115997.011 158747.222 -115997.009 158776.552 -115961.271 158859.814 -115859.814 158961.271 -115776.552 158997.009 -115747.222 159014.913 -115737.652 159153.533 -115663.557 159210.147 -115646.384 159323.373 -115612.037 159389.557 -115605.519 159455.74 -115599 159544.26 -115599 159610.443 -115605.519 159610.443 -115605.519"/><path d="M 162150.443 -115605.519 162216.627 -115612.037 162329.853 -115646.384 162386.467 -115663.557 162525.087 -115737.652 162542.991 -115747.222 162578.729 -115776.552 162680.186 -115859.814 162763.448 -115961.271 162792.778 -115997.009 162792.779 -115997.011 162876.443 -116153.533 162876.443 -116153.534 162927.963 -116323.373 162945.359 -116500 162927.963 -116676.627 162893.616 -116789.853 162876.443 -116846.467 162802.348 -116985.087 162792.778 -117002.991 162763.448 -117038.729 162680.186 -117140.186 162578.729 -117223.448 162542.991 -117252.778 162542.989 -117252.779 162386.467 -117336.443 162329.853 -117353.616 162216.627 -117387.963 162150.442 -117394.482 162084.26 -117401 161995.74 -117401 161929.558 -117394.482 161863.373 -117387.963 161750.147 -117353.616 161693.533 -117336.443 161537.011 -117252.779 161537.009 -117252.778 161501.271 -117223.448 161399.814 -117140.186 161316.552 -117038.729 161287.222 -117002.991 161277.652 -116985.087 161203.557 -116846.467 161186.384 -116789.853 161152.037 -116676.627 161134.641 -116500 161152.037 -116323.373 161203.557 -116153.534 161203.557 -116153.533 161287.221 -115997.011 161287.222 -115997.009 161316.552 -115961.271 161399.814 -115859.814 161501.271 -115776.552 161537.009 -115747.222 161554.913 -115737.652 161693.533 -115663.557 161750.147 -115646.384 161863.373 -115612.037 161929.557 -115605.519 161995.74 -115599 162084.26 -115599 162150.443 -115605.519 162150.443 -115605.519"/><path d="M 132550.442 -111705.518 132616.627 -111712.037 132729.853 -111746.384 132786.467 -111763.557 132925.087 -111837.652 132942.991 -111847.222 132978.729 -111876.552 133080.186 -111959.814 133163.448 -112061.271 133192.778 -112097.009 133192.779 -112097.011 133276.443 -112253.533 133276.443 -112253.534 133327.963 -112423.373 133345.359 -112600 133327.963 -112776.627 133293.616 -112889.853 133276.443 -112946.467 133202.348 -113085.087 133192.778 -113102.991 133163.448 -113138.729 133080.186 -113240.186 132978.729 -113323.448 132942.991 -113352.778 132942.989 -113352.779 132786.467 -113436.443 132729.853 -113453.616 132616.627 -113487.963 132550.442 -113494.482 132484.26 -113501 132395.74 -113501 132329.558 -113494.482 132263.373 -113487.963 132150.147 -113453.616 132093.533 -113436.443 131937.011 -113352.779 131937.009 -113352.778 131901.271 -113323.448 131799.814 -113240.186 131716.552 -113138.729 131687.222 -113102.991 131677.652 -113085.087 131603.557 -112946.467 131586.384 -112889.853 131552.037 -112776.627 131534.641 -112600 131552.037 -112423.373 131603.557 -112253.534 131603.557 -112253.533 131687.221 -112097.011 131687.222 -112097.009 131716.552 -112061.271 131799.814 -111959.814 131901.271 -111876.552 131937.009 -111847.222 131954.913 -111837.652 132093.533 -111763.557 132150.147 -111746.384 132263.373 -111712.037 132329.558 -111705.518 132395.74 -111699 132484.26 -111699 132550.442 -111705.518 132550.442 -111705.518"/><path d="M 130010.442 -111705.518 130076.627 -111712.037 130189.853 -111746.384 130246.467 -111763.557 130385.087 -111837.652 130402.991 -111847.222 130438.729 -111876.552 130540.186 -111959.814 130623.448 -112061.271 130652.778 -112097.009 130652.779 -112097.011 130736.443 -112253.533 130736.443 -112253.534 130787.963 -112423.373 130805.359 -112600 130787.963 -112776.627 130753.616 -112889.853 130736.443 -112946.467 130662.348 -113085.087 130652.778 -113102.991 130623.448 -113138.729 130540.186 -113240.186 130438.729 -113323.448 130402.991 -113352.778 130402.989 -113352.779 130246.467 -113436.443 130189.853 -113453.616 130076.627 -113487.963 130010.442 -113494.482 129944.26 -113501 129855.74 -113501 129789.558 -113494.482 129723.373 -113487.963 129610.147 -113453.616 129553.533 -113436.443 129397.011 -113352.779 129397.009 -113352.778 129361.271 -113323.448 129259.814 -113240.186 129176.552 -113138.729 129147.222 -113102.991 129137.652 -113085.087 129063.557 -112946.467 129046.384 -112889.853 129012.037 -112776.627 128994.641 -112600 129012.037 -112423.373 129063.557 -112253.534 129063.557 -112253.533 129147.221 -112097.011 129147.222 -112097.009 129176.552 -112061.271 129259.814 -111959.814 129361.271 -111876.552 129397.009 -111847.222 129414.913 -111837.652 129553.533 -111763.557 129610.147 -111746.384 129723.373 -111712.037 129789.558 -111705.518 129855.74 -111699 129944.26 -111699 130010.442 -111705.518 130010.442 -111705.518"/><path d="M 135090.442 -111705.518 135156.627 -111712.037 135269.853 -111746.384 135326.467 -111763.557 135465.087 -111837.652 135482.991 -111847.222 135518.729 -111876.552 135620.186 -111959.814 135703.448 -112061.271 135732.778 -112097.009 135732.779 -112097.011 135816.443 -112253.533 135816.443 -112253.534 135867.963 -112423.373 135885.359 -112600 135867.963 -112776.627 135833.616 -112889.853 135816.443 -112946.467 135742.348 -113085.087 135732.778 -113102.991 135703.448 -113138.729 135620.186 -113240.186 135518.729 -113323.448 135482.991 -113352.778 135482.989 -113352.779 135326.467 -113436.443 135269.853 -113453.616 135156.627 -113487.963 135090.442 -113494.482 135024.26 -113501 134935.74 -113501 134869.558 -113494.482 134803.373 -113487.963 134690.147 -113453.616 134633.533 -113436.443 134477.011 -113352.779 134477.009 -113352.778 134441.271 -113323.448 134339.814 -113240.186 134256.552 -113138.729 134227.222 -113102.991 134217.652 -113085.087 134143.557 -112946.467 134126.384 -112889.853 134092.037 -112776.627 134074.641 -112600 134092.037 -112423.373 134143.557 -112253.534 134143.557 -112253.533 134227.221 -112097.011 134227.222 -112097.009 134256.552 -112061.271 134339.814 -111959.814 134441.271 -111876.552 134477.009 -111847.222 134494.913 -111837.652 134633.533 -111763.557 134690.147 -111746.384 134803.373 -111712.037 134869.558 -111705.518 134935.74 -111699 135024.26 -111699 135090.442 -111705.518 135090.442 -111705.518"/><path d="M 127470.442 -111705.518 127536.627 -111712.037 127649.853 -111746.384 127706.467 -111763.557 127845.087 -111837.652 127862.991 -111847.222 127898.729 -111876.552 128000.186 -111959.814 128083.448 -112061.271 128112.778 -112097.009 128112.779 -112097.011 128196.443 -112253.533 128196.443 -112253.534 128247.963 -112423.373 128265.359 -112600 128247.963 -112776.627 128213.616 -112889.853 128196.443 -112946.467 128122.348 -113085.087 128112.778 -113102.991 128083.448 -113138.729 128000.186 -113240.186 127898.729 -113323.448 127862.991 -113352.778 127862.989 -113352.779 127706.467 -113436.443 127649.853 -113453.616 127536.627 -113487.963 127470.442 -113494.482 127404.26 -113501 127315.74 -113501 127249.558 -113494.482 127183.373 -113487.963 127070.147 -113453.616 127013.533 -113436.443 126857.011 -113352.779 126857.009 -113352.778 126821.271 -113323.448 126719.814 -113240.186 126636.552 -113138.729 126607.222 -113102.991 126597.652 -113085.087 126523.557 -112946.467 126506.384 -112889.853 126472.037 -112776.627 126454.641 -112600 126472.037 -112423.373 126523.557 -112253.534 126523.557 -112253.533 126607.221 -112097.011 126607.222 -112097.009 126636.552 -112061.271 126719.814 -111959.814 126821.271 -111876.552 126857.009 -111847.222 126874.913 -111837.652 127013.533 -111763.557 127070.147 -111746.384 127183.373 -111712.037 127249.558 -111705.518 127315.74 -111699 127404.26 -111699 127470.442 -111705.518 127470.442 -111705.518"/><path d="M 124930.442 -111705.518 124996.627 -111712.037 125109.853 -111746.384 125166.467 -111763.557 125305.087 -111837.652 125322.991 -111847.222 125358.729 -111876.552 125460.186 -111959.814 125543.448 -112061.271 125572.778 -112097.009 125572.779 -112097.011 125656.443 -112253.533 125656.443 -112253.534 125707.963 -112423.373 125725.359 -112600 125707.963 -112776.627 125673.616 -112889.853 125656.443 -112946.467 125582.348 -113085.087 125572.778 -113102.991 125543.448 -113138.729 125460.186 -113240.186 125358.729 -113323.448 125322.991 -113352.778 125322.989 -113352.779 125166.467 -113436.443 125109.853 -113453.616 124996.627 -113487.963 124930.442 -113494.482 124864.26 -113501 124775.74 -113501 124709.558 -113494.482 124643.373 -113487.963 124530.147 -113453.616 124473.533 -113436.443 124317.011 -113352.779 124317.009 -113352.778 124281.271 -113323.448 124179.814 -113240.186 124096.552 -113138.729 124067.222 -113102.991 124057.652 -113085.087 123983.557 -112946.467 123966.384 -112889.853 123932.037 -112776.627 123914.641 -112600 123932.037 -112423.373 123983.557 -112253.534 123983.557 -112253.533 124067.221 -112097.011 124067.222 -112097.009 124096.552 -112061.271 124179.814 -111959.814 124281.271 -111876.552 124317.009 -111847.222 124334.913 -111837.652 124473.533 -111763.557 124530.147 -111746.384 124643.373 -111712.037 124709.558 -111705.518 124775.74 -111699 124864.26 -111699 124930.442 -111705.518 124930.442 -111705.518"/><path d="M 164690.442 -111705.518 164756.627 -111712.037 164869.853 -111746.384 164926.467 -111763.557 165065.087 -111837.652 165082.991 -111847.222 165118.729 -111876.552 165220.186 -111959.814 165303.448 -112061.271 165332.778 -112097.009 165332.779 -112097.011 165416.443 -112253.533 165416.443 -112253.534 165467.963 -112423.373 165485.359 -112600 165467.963 -112776.627 165433.616 -112889.853 165416.443 -112946.467 165342.348 -113085.087 165332.778 -113102.991 165303.448 -113138.729 165220.186 -113240.186 165118.729 -113323.448 165082.991 -113352.778 165082.989 -113352.779 164926.467 -113436.443 164869.853 -113453.616 164756.627 -113487.963 164690.442 -113494.482 164624.26 -113501 164535.74 -113501 164469.558 -113494.482 164403.373 -113487.963 164290.147 -113453.616 164233.533 -113436.443 164077.011 -113352.779 164077.009 -113352.778 164041.271 -113323.448 163939.814 -113240.186 163856.552 -113138.729 163827.222 -113102.991 163817.652 -113085.087 163743.557 -112946.467 163726.384 -112889.853 163692.037 -112776.627 163674.641 -112600 163692.037 -112423.373 163743.557 -112253.534 163743.557 -112253.533 163827.221 -112097.011 163827.222 -112097.009 163856.552 -112061.271 163939.814 -111959.814 164041.271 -111876.552 164077.009 -111847.222 164094.913 -111837.652 164233.533 -111763.557 164290.147 -111746.384 164403.373 -111712.037 164469.558 -111705.518 164535.74 -111699 164624.26 -111699 164690.442 -111705.518 164690.442 -111705.518"/><path d="M 159610.442 -111705.518 159676.627 -111712.037 159789.853 -111746.384 159846.467 -111763.557 159985.087 -111837.652 160002.991 -111847.222 160038.729 -111876.552 160140.186 -111959.814 160223.448 -112061.271 160252.778 -112097.009 160252.779 -112097.011 160336.443 -112253.533 160336.443 -112253.534 160387.963 -112423.373 160405.359 -112600 160387.963 -112776.627 160353.616 -112889.853 160336.443 -112946.467 160262.348 -113085.087 160252.778 -113102.991 160223.448 -113138.729 160140.186 -113240.186 160038.729 -113323.448 160002.991 -113352.778 160002.989 -113352.779 159846.467 -113436.443 159789.853 -113453.616 159676.627 -113487.963 159610.442 -113494.482 159544.26 -113501 159455.74 -113501 159389.558 -113494.482 159323.373 -113487.963 159210.147 -113453.616 159153.533 -113436.443 158997.011 -113352.779 158997.009 -113352.778 158961.271 -113323.448 158859.814 -113240.186 158776.552 -113138.729 158747.222 -113102.991 158737.652 -113085.087 158663.557 -112946.467 158646.384 -112889.853 158612.037 -112776.627 158594.641 -112600 158612.037 -112423.373 158663.557 -112253.534 158663.557 -112253.533 158747.221 -112097.011 158747.222 -112097.009 158776.552 -112061.271 158859.814 -111959.814 158961.271 -111876.552 158997.009 -111847.222 159014.913 -111837.652 159153.533 -111763.557 159210.147 -111746.384 159323.373 -111712.037 159389.558 -111705.518 159455.74 -111699 159544.26 -111699 159610.442 -111705.518 159610.442 -111705.518"/><path d="M 157070.442 -111705.518 157136.627 -111712.037 157249.853 -111746.384 157306.467 -111763.557 157445.087 -111837.652 157462.991 -111847.222 157498.729 -111876.552 157600.186 -111959.814 157683.448 -112061.271 157712.778 -112097.009 157712.779 -112097.011 157796.443 -112253.533 157796.443 -112253.534 157847.963 -112423.373 157865.359 -112600 157847.963 -112776.627 157813.616 -112889.853 157796.443 -112946.467 157722.348 -113085.087 157712.778 -113102.991 157683.448 -113138.729 157600.186 -113240.186 157498.729 -113323.448 157462.991 -113352.778 157462.989 -113352.779 157306.467 -113436.443 157249.853 -113453.616 157136.627 -113487.963 157070.442 -113494.482 157004.26 -113501 156915.74 -113501 156849.558 -113494.482 156783.373 -113487.963 156670.147 -113453.616 156613.533 -113436.443 156457.011 -113352.779 156457.009 -113352.778 156421.271 -113323.448 156319.814 -113240.186 156236.552 -113138.729 156207.222 -113102.991 156197.652 -113085.087 156123.557 -112946.467 156106.384 -112889.853 156072.037 -112776.627 156054.641 -112600 156072.037 -112423.373 156123.557 -112253.534 156123.557 -112253.533 156207.221 -112097.011 156207.222 -112097.009 156236.552 -112061.271 156319.814 -111959.814 156421.271 -111876.552 156457.009 -111847.222 156474.913 -111837.652 156613.533 -111763.557 156670.147 -111746.384 156783.373 -111712.037 156849.558 -111705.518 156915.74 -111699 157004.26 -111699 157070.442 -111705.518 157070.442 -111705.518"/><path d="M 162150.442 -111705.518 162216.627 -111712.037 162329.853 -111746.384 162386.467 -111763.557 162525.087 -111837.652 162542.991 -111847.222 162578.729 -111876.552 162680.186 -111959.814 162763.448 -112061.271 162792.778 -112097.009 162792.779 -112097.011 162876.443 -112253.533 162876.443 -112253.534 162927.963 -112423.373 162945.359 -112600 162927.963 -112776.627 162893.616 -112889.853 162876.443 -112946.467 162802.348 -113085.087 162792.778 -113102.991 162763.448 -113138.729 162680.186 -113240.186 162578.729 -113323.448 162542.991 -113352.778 162542.989 -113352.779 162386.467 -113436.443 162329.853 -113453.616 162216.627 -113487.963 162150.442 -113494.482 162084.26 -113501 161995.74 -113501 161929.558 -113494.482 161863.373 -113487.963 161750.147 -113453.616 161693.533 -113436.443 161537.011 -113352.779 161537.009 -113352.778 161501.271 -113323.448 161399.814 -113240.186 161316.552 -113138.729 161287.222 -113102.991 161277.652 -113085.087 161203.557 -112946.467 161186.384 -112889.853 161152.037 -112776.627 161134.641 -112600 161152.037 -112423.373 161203.557 -112253.534 161203.557 -112253.533 161287.221 -112097.011 161287.222 -112097.009 161316.552 -112061.271 161399.814 -111959.814 161501.271 -111876.552 161537.009 -111847.222 161554.913 -111837.652 161693.533 -111763.557 161750.147 -111746.384 161863.373 -111712.037 161929.558 -111705.518 161995.74 -111699 162084.26 -111699 162150.442 -111705.518 162150.442 -111705.518"/><path d="M 151990.442 -111705.518 152056.627 -111712.037 152169.853 -111746.384 152226.467 -111763.557 152365.087 -111837.652 152382.991 -111847.222 152418.729 -111876.552 152520.186 -111959.814 152603.448 -112061.271 152632.778 -112097.009 152632.779 -112097.011 152716.443 -112253.533 152716.443 -112253.534 152767.963 -112423.373 152785.359 -112600 152767.963 -112776.627 152733.616 -112889.853 152716.443 -112946.467 152642.348 -113085.087 152632.778 -113102.991 152603.448 -113138.729 152520.186 -113240.186 152418.729 -113323.448 152382.991 -113352.778 152382.989 -113352.779 152226.467 -113436.443 152169.853 -113453.616 152056.627 -113487.963 151990.442 -113494.482 151924.26 -113501 151835.74 -113501 151769.558 -113494.482 151703.373 -113487.963 151590.147 -113453.616 151533.533 -113436.443 151377.011 -113352.779 151377.009 -113352.778 151341.271 -113323.448 151239.814 -113240.186 151156.552 -113138.729 151127.222 -113102.991 151117.652 -113085.087 151043.557 -112946.467 151026.384 -112889.853 150992.037 -112776.627 150974.641 -112600 150992.037 -112423.373 151043.557 -112253.534 151043.557 -112253.533 151127.221 -112097.011 151127.222 -112097.009 151156.552 -112061.271 151239.814 -111959.814 151341.271 -111876.552 151377.009 -111847.222 151394.913 -111837.652 151533.533 -111763.557 151590.147 -111746.384 151703.373 -111712.037 151769.558 -111705.518 151835.74 -111699 151924.26 -111699 151990.442 -111705.518 151990.442 -111705.518"/><path d="M 149450.442 -111705.518 149516.627 -111712.037 149629.853 -111746.384 149686.467 -111763.557 149825.087 -111837.652 149842.991 -111847.222 149878.729 -111876.552 149980.186 -111959.814 150063.448 -112061.271 150092.778 -112097.009 150092.779 -112097.011 150176.443 -112253.533 150176.443 -112253.534 150227.963 -112423.373 150245.359 -112600 150227.963 -112776.627 150193.616 -112889.853 150176.443 -112946.467 150102.348 -113085.087 150092.778 -113102.991 150063.448 -113138.729 149980.186 -113240.186 149878.729 -113323.448 149842.991 -113352.778 149842.989 -113352.779 149686.467 -113436.443 149629.853 -113453.616 149516.627 -113487.963 149450.442 -113494.482 149384.26 -113501 149295.74 -113501 149229.558 -113494.482 149163.373 -113487.963 149050.147 -113453.616 148993.533 -113436.443 148837.011 -113352.779 148837.009 -113352.778 148801.271 -113323.448 148699.814 -113240.186 148616.552 -113138.729 148587.222 -113102.991 148577.652 -113085.087 148503.557 -112946.467 148486.384 -112889.853 148452.037 -112776.627 148434.641 -112600 148452.037 -112423.373 148503.557 -112253.534 148503.557 -112253.533 148587.221 -112097.011 148587.222 -112097.009 148616.552 -112061.271 148699.814 -111959.814 148801.271 -111876.552 148837.009 -111847.222 148854.913 -111837.652 148993.533 -111763.557 149050.147 -111746.384 149163.373 -111712.037 149229.558 -111705.518 149295.74 -111699 149384.26 -111699 149450.442 -111705.518 149450.442 -111705.518"/><path d="M 147701 -113501 145899 -113501 145899 -111699 147701 -111699 147701 -113501 147701 -113501"/><path d="M 143501 -113501 141699 -113501 141699 -111699 143501 -111699 143501 -113501 143501 -113501"/><path d="M 140170.442 -111705.518 140236.627 -111712.037 140349.853 -111746.384 140406.467 -111763.557 140545.087 -111837.652 140562.991 -111847.222 140598.729 -111876.552 140700.186 -111959.814 140783.448 -112061.271 140812.778 -112097.009 140812.779 -112097.011 140896.443 -112253.533 140896.443 -112253.534 140947.963 -112423.373 140965.359 -112600 140947.963 -112776.627 140913.616 -112889.853 140896.443 -112946.467 140822.348 -113085.087 140812.778 -113102.991 140783.448 -113138.729 140700.186 -113240.186 140598.729 -113323.448 140562.991 -113352.778 140562.989 -113352.779 140406.467 -113436.443 140349.853 -113453.616 140236.627 -113487.963 140170.442 -113494.482 140104.26 -113501 140015.74 -113501 139949.558 -113494.482 139883.373 -113487.963 139770.147 -113453.616 139713.533 -113436.443 139557.011 -113352.779 139557.009 -113352.778 139521.271 -113323.448 139419.814 -113240.186 139336.552 -113138.729 139307.222 -113102.991 139297.652 -113085.087 139223.557 -112946.467 139206.384 -112889.853 139172.037 -112776.627 139154.641 -112600 139172.037 -112423.373 139223.557 -112253.534 139223.557 -112253.533 139307.221 -112097.011 139307.222 -112097.009 139336.552 -112061.271 139419.814 -111959.814 139521.271 -111876.552 139557.009 -111847.222 139574.913 -111837.652 139713.533 -111763.557 139770.147 -111746.384 139883.373 -111712.037 139949.558 -111705.518 140015.74 -111699 140104.26 -111699 140170.442 -111705.518 140170.442 -111705.518"/><path d="M 137630.442 -111705.518 137696.627 -111712.037 137809.853 -111746.384 137866.467 -111763.557 138005.087 -111837.652 138022.991 -111847.222 138058.729 -111876.552 138160.186 -111959.814 138243.448 -112061.271 138272.778 -112097.009 138272.779 -112097.011 138356.443 -112253.533 138356.443 -112253.534 138407.963 -112423.373 138425.359 -112600 138407.963 -112776.627 138373.616 -112889.853 138356.443 -112946.467 138282.348 -113085.087 138272.778 -113102.991 138243.448 -113138.729 138160.186 -113240.186 138058.729 -113323.448 138022.991 -113352.778 138022.989 -113352.779 137866.467 -113436.443 137809.853 -113453.616 137696.627 -113487.963 137630.442 -113494.482 137564.26 -113501 137475.74 -113501 137409.558 -113494.482 137343.373 -113487.963 137230.147 -113453.616 137173.533 -113436.443 137017.011 -113352.779 137017.009 -113352.778 136981.271 -113323.448 136879.814 -113240.186 136796.552 -113138.729 136767.222 -113102.991 136757.652 -113085.087 136683.557 -112946.467 136666.384 -112889.853 136632.037 -112776.627 136614.641 -112600 136632.037 -112423.373 136683.557 -112253.534 136683.557 -112253.533 136767.221 -112097.011 136767.222 -112097.009 136796.552 -112061.271 136879.814 -111959.814 136981.271 -111876.552 137017.009 -111847.222 137034.913 -111837.652 137173.533 -111763.557 137230.147 -111746.384 137343.373 -111712.037 137409.558 -111705.518 137475.74 -111699 137564.26 -111699 137630.442 -111705.518 137630.442 -111705.518"/><path d="M 154530.442 -111705.518 154596.627 -111712.037 154709.853 -111746.384 154766.467 -111763.557 154905.087 -111837.652 154922.991 -111847.222 154958.729 -111876.552 155060.186 -111959.814 155143.448 -112061.271 155172.778 -112097.009 155172.779 -112097.011 155256.443 -112253.533 155256.443 -112253.534 155307.963 -112423.373 155325.359 -112600 155307.963 -112776.627 155273.616 -112889.853 155256.443 -112946.467 155182.348 -113085.087 155172.778 -113102.991 155143.448 -113138.729 155060.186 -113240.186 154958.729 -113323.448 154922.991 -113352.778 154922.989 -113352.779 154766.467 -113436.443 154709.853 -113453.616 154596.627 -113487.963 154530.442 -113494.482 154464.26 -113501 154375.74 -113501 154309.558 -113494.482 154243.373 -113487.963 154130.147 -113453.616 154073.533 -113436.443 153917.011 -113352.779 153917.009 -113352.778 153881.271 -113323.448 153779.814 -113240.186 153696.552 -113138.729 153667.222 -113102.991 153657.652 -113085.087 153583.557 -112946.467 153566.384 -112889.853 153532.037 -112776.627 153514.641 -112600 153532.037 -112423.373 153583.557 -112253.534 153583.557 -112253.533 153667.221 -112097.011 153667.222 -112097.009 153696.552 -112061.271 153779.814 -111959.814 153881.271 -111876.552 153917.009 -111847.222 153934.913 -111837.652 154073.533 -111763.557 154130.147 -111746.384 154243.373 -111712.037 154309.558 -111705.518 154375.74 -111699 154464.26 -111699 154530.442 -111705.518 154530.442 -111705.518"/><path d="M 153201 -108901 151399 -108901 151399 -107099 153201 -107099 153201 -108901 153201 -108901"/><path d="M 152410.442 -104565.518 152476.627 -104572.037 152589.853 -104606.384 152646.467 -104623.557 152785.087 -104697.652 152802.991 -104707.222 152838.729 -104736.552 152940.186 -104819.814 153023.448 -104921.271 153052.778 -104957.009 153052.779 -104957.011 153136.443 -105113.533 153136.443 -105113.534 153187.963 -105283.373 153205.359 -105460 153187.963 -105636.627 153153.616 -105749.853 153136.443 -105806.467 153062.348 -105945.087 153052.778 -105962.991 153023.448 -105998.729 152940.186 -106100.186 152838.729 -106183.448 152802.991 -106212.778 152802.989 -106212.779 152646.467 -106296.443 152589.853 -106313.616 152476.627 -106347.963 152410.443 -106354.481 152344.26 -106361 152255.74 -106361 152189.557 -106354.481 152123.373 -106347.963 152010.147 -106313.616 151953.533 -106296.443 151797.011 -106212.779 151797.009 -106212.778 151761.271 -106183.448 151659.814 -106100.186 151576.552 -105998.729 151547.222 -105962.991 151537.652 -105945.087 151463.557 -105806.467 151446.384 -105749.853 151412.037 -105636.627 151394.641 -105460 151412.037 -105283.373 151463.557 -105113.534 151463.557 -105113.533 151547.221 -104957.011 151547.222 -104957.009 151576.552 -104921.271 151659.814 -104819.814 151761.271 -104736.552 151797.009 -104707.222 151814.913 -104697.652 151953.533 -104623.557 152010.147 -104606.384 152123.373 -104572.037 152189.558 -104565.518 152255.74 -104559 152344.26 -104559 152410.442 -104565.518 152410.442 -104565.518"/><path d="M 134501 -104901 132699 -104901 132699 -103099 134501 -103099 134501 -104901 134501 -104901"/><path d="M 133710.443 -100565.519 133776.627 -100572.037 133889.853 -100606.384 133946.467 -100623.557 134085.087 -100697.652 134102.991 -100707.222 134138.729 -100736.552 134240.186 -100819.814 134323.448 -100921.271 134352.778 -100957.009 134352.779 -100957.011 134436.443 -101113.533 134436.443 -101113.534 134487.963 -101283.373 134505.359 -101460 134487.963 -101636.627 134453.616 -101749.853 134436.443 -101806.467 134362.348 -101945.087 134352.778 -101962.991 134323.448 -101998.729 134240.186 -102100.186 134138.729 -102183.448 134102.991 -102212.778 134102.989 -102212.779 133946.467 -102296.443 133889.853 -102313.616 133776.627 -102347.963 133710.442 -102354.482 133644.26 -102361 133555.74 -102361 133489.557 -102354.481 133423.373 -102347.963 133310.147 -102313.616 133253.533 -102296.443 133097.011 -102212.779 133097.009 -102212.778 133061.271 -102183.448 132959.814 -102100.186 132876.552 -101998.729 132847.222 -101962.991 132837.652 -101945.087 132763.557 -101806.467 132746.384 -101749.853 132712.037 -101636.627 132694.641 -101460 132712.037 -101283.373 132763.557 -101113.534 132763.557 -101113.533 132847.221 -100957.011 132847.222 -100957.009 132876.552 -100921.271 132959.814 -100819.814 133061.271 -100736.552 133097.009 -100707.222 133114.913 -100697.652 133253.533 -100623.557 133310.147 -100606.384 133423.373 -100572.037 133489.557 -100565.519 133555.74 -100559 133644.26 -100559 133710.443 -100565.519 133710.443 -100565.519"/><path d="M 158945.262 -99013.019 158976.563 -99025.985 159000.772 -99036.012 159000.773 -99036.013 159050.728 -99069.392 159093.208 -99111.872 159093.209 -99111.874 159126.588 -99161.828 159134.515 -99180.967 159146.066 -99202.578 159161.612 -99221.52 159180.554 -99237.065 159202.165 -99248.616 159225.614 -99255.729 159250 -99258.131 159274.387 -99255.729 159297.836 -99248.616 159319.447 -99237.065 159338.389 -99221.519 159353.934 -99202.577 159365.485 -99180.967 159373.412 -99161.828 159406.791 -99111.874 159406.792 -99111.872 159449.272 -99069.392 159499.227 -99036.013 159499.228 -99036.012 159523.437 -99025.985 159554.738 -99013.019 159613.658 -99001.3 159673.742 -99001.3 159732.662 -99013.019 159763.963 -99025.985 159788.172 -99036.012 159788.173 -99036.013 159838.128 -99069.392 159880.608 -99111.872 159880.609 -99111.874 159913.988 -99161.828 159921.915 -99180.967 159936.981 -99217.338 159948.7 -99276.258 159948.7 -99336.342 159936.981 -99395.262 159924.015 -99426.563 159913.988 -99450.772 159913.987 -99450.773 159880.608 -99500.728 159838.128 -99543.208 159812.979 -99560.012 159788.172 -99576.588 159769.03 -99584.517 159747.422 -99596.066 159728.48 -99611.612 159712.935 -99630.554 159701.384 -99652.165 159694.271 -99675.614 159691.869 -99700 159694.271 -99724.387 159701.384 -99747.836 159712.935 -99769.447 159728.481 -99788.389 159747.423 -99803.934 159769.03 -99815.483 159788.172 -99823.412 159788.173 -99823.413 159838.128 -99856.792 159880.608 -99899.272 159880.609 -99899.274 159913.988 -99949.228 159921.915 -99968.367 159936.981 -100004.738 159948.7 -100063.658 159948.7 -100123.742 159936.981 -100182.662 159924.015 -100213.963 159913.988 -100238.172 159913.987 -100238.173 159880.608 -100288.128 159838.128 -100330.608 159812.979 -100347.412 159788.172 -100363.988 159763.963 -100374.015 159732.662 -100386.981 159673.742 -100398.7 159613.658 -100398.7 159554.738 -100386.981 159523.437 -100374.015 159499.228 -100363.988 159474.421 -100347.412 159449.272 -100330.608 159406.792 -100288.128 159373.413 -100238.173 159373.412 -100238.172 159365.483 -100219.03 159353.934 -100197.422 159338.388 -100178.48 159319.446 -100162.935 159297.835 -100151.384 159274.386 -100144.271 159250 -100141.869 159225.613 -100144.271 159202.164 -100151.384 159180.553 -100162.935 159161.611 -100178.481 159146.066 -100197.423 159134.517 -100219.03 159126.588 -100238.172 159126.587 -100238.173 159093.208 -100288.128 159050.728 -100330.608 159025.579 -100347.412 159000.772 -100363.988 158976.563 -100374.015 158945.262 -100386.981 158886.342 -100398.7 158826.258 -100398.7 158767.338 -100386.981 158736.037 -100374.015 158711.828 -100363.988 158687.021 -100347.412 158661.872 -100330.608 158619.392 -100288.128 158586.013 -100238.173 158586.012 -100238.172 158575.985 -100213.963 158563.019 -100182.662 158551.3 -100123.742 158551.3 -100063.658 158563.019 -100004.738 158578.085 -99968.367 158586.012 -99949.228 158619.391 -99899.274 158619.392 -99899.272 158661.872 -99856.792 158711.827 -99823.413 158711.828 -99823.412 158730.97 -99815.483 158752.578 -99803.934 158771.52 -99788.388 158787.065 -99769.446 158798.616 -99747.835 158805.729 -99724.386 158808.131 -99700 158904.469 -99700 158906.871 -99724.387 158913.984 -99747.836 158925.535 -99769.447 158941.081 -99788.389 158960.023 -99803.934 158981.63 -99815.483 159000.772 -99823.412 159000.773 -99823.413 159050.728 -99856.792 159093.208 -99899.272 159093.209 -99899.274 159126.588 -99949.228 159134.515 -99968.367 159146.066 -99989.978 159161.612 -100008.92 159180.554 -100024.465 159202.165 -100036.016 159225.614 -100043.129 159250 -100045.531 159274.387 -100043.129 159297.836 -100036.016 159319.447 -100024.465 159338.389 -100008.919 159353.934 -99989.977 159365.485 -99968.367 159373.412 -99949.228 159406.791 -99899.274 159406.792 -99899.272 159449.272 -99856.792 159499.227 -99823.413 159499.228 -99823.412 159518.37 -99815.483 159539.978 -99803.934 159558.92 -99788.388 159574.465 -99769.446 159586.016 -99747.835 159593.129 -99724.386 159595.531 -99700 159593.129 -99675.613 159586.016 -99652.164 159574.465 -99630.553 159558.919 -99611.611 159539.977 -99596.066 159518.37 -99584.517 159499.228 -99576.588 159474.421 -99560.012 159449.272 -99543.208 159406.792 -99500.728 159373.413 -99450.773 159373.412 -99450.772 159365.483 -99431.63 159353.934 -99410.022 159338.388 -99391.08 159319.446 -99375.535 159297.835 -99363.984 159274.386 -99356.871 159250 -99354.469 159225.613 -99356.871 159202.164 -99363.984 159180.553 -99375.535 159161.611 -99391.081 159146.066 -99410.023 159134.517 -99431.63 159126.588 -99450.772 159126.587 -99450.773 159093.208 -99500.728 159050.728 -99543.208 159025.579 -99560.012 159000.772 -99576.588 158981.63 -99584.517 158960.022 -99596.066 158941.08 -99611.612 158925.535 -99630.554 158913.984 -99652.165 158906.871 -99675.614 158904.469 -99700 158808.131 -99700 158805.729 -99675.613 158798.616 -99652.164 158787.065 -99630.553 158771.519 -99611.611 158752.577 -99596.066 158730.97 -99584.517 158711.828 -99576.588 158687.021 -99560.012 158661.872 -99543.208 158619.392 -99500.728 158586.013 -99450.773 158586.012 -99450.772 158575.985 -99426.563 158563.019 -99395.262 158551.3 -99336.342 158551.3 -99276.258 158563.019 -99217.338 158578.085 -99180.967 158586.012 -99161.828 158619.391 -99111.874 158619.392 -99111.872 158661.872 -99069.392 158711.827 -99036.013 158711.828 -99036.012 158736.037 -99025.985 158767.338 -99013.019 158826.258 -99001.3 158886.342 -99001.3 158945.262 -99013.019 158945.262 -99013.019"/><path d="M 164610.443 -98245.519 164676.627 -98252.037 164789.853 -98286.384 164846.467 -98303.557 164985.087 -98377.652 165002.991 -98387.222 165038.729 -98416.552 165140.186 -98499.814 165223.448 -98601.271 165252.778 -98637.009 165252.779 -98637.011 165336.443 -98793.533 165336.443 -98793.534 165387.963 -98963.373 165405.359 -99140 165387.963 -99316.627 165364.109 -99395.262 165336.443 -99486.467 165284.034 -99584.515 165252.778 -99642.991 165245.249 -99652.165 165140.186 -99780.186 165046.841 -99856.791 165002.991 -99892.778 165002.989 -99892.779 164846.467 -99976.443 164801.847 -99989.978 164676.627 -100027.963 164610.443 -100034.481 164544.26 -100041 164455.74 -100041 164389.557 -100034.481 164323.373 -100027.963 164198.153 -99989.978 164153.533 -99976.443 163997.011 -99892.779 163997.009 -99892.778 163953.159 -99856.791 163859.814 -99780.186 163754.751 -99652.165 163747.222 -99642.991 163715.966 -99584.515 163663.557 -99486.467 163635.891 -99395.262 163612.037 -99316.627 163594.641 -99140 163612.037 -98963.373 163663.557 -98793.534 163663.557 -98793.533 163747.221 -98637.011 163747.222 -98637.009 163776.552 -98601.271 163859.814 -98499.814 163961.271 -98416.552 163997.009 -98387.222 164014.913 -98377.652 164153.533 -98303.557 164210.147 -98286.384 164323.373 -98252.037 164389.558 -98245.518 164455.74 -98239 164544.26 -98239 164610.443 -98245.519 164610.443 -98245.519"/><path d="M 168910.443 -98245.519 168976.627 -98252.037 169089.853 -98286.384 169146.467 -98303.557 169285.087 -98377.652 169302.991 -98387.222 169338.729 -98416.552 169440.186 -98499.814 169523.448 -98601.271 169552.778 -98637.009 169552.779 -98637.011 169636.443 -98793.533 169636.443 -98793.534 169687.963 -98963.373 169705.359 -99140 169687.963 -99316.627 169664.109 -99395.262 169636.443 -99486.467 169584.034 -99584.515 169552.778 -99642.991 169545.249 -99652.165 169440.186 -99780.186 169346.841 -99856.791 169302.991 -99892.778 169302.989 -99892.779 169146.467 -99976.443 169101.847 -99989.978 168976.627 -100027.963 168910.443 -100034.481 168844.26 -100041 168755.74 -100041 168689.557 -100034.481 168623.373 -100027.963 168498.153 -99989.978 168453.533 -99976.443 168297.011 -99892.779 168297.009 -99892.778 168253.159 -99856.791 168159.814 -99780.186 168054.751 -99652.165 168047.222 -99642.991 168015.966 -99584.515 167963.557 -99486.467 167935.891 -99395.262 167912.037 -99316.627 167894.641 -99140 167912.037 -98963.373 167963.557 -98793.534 167963.557 -98793.533 168047.221 -98637.011 168047.222 -98637.009 168076.552 -98601.271 168159.814 -98499.814 168261.271 -98416.552 168297.009 -98387.222 168314.913 -98377.652 168453.533 -98303.557 168510.147 -98286.384 168623.373 -98252.037 168689.558 -98245.518 168755.74 -98239 168844.26 -98239 168910.443 -98245.519 168910.443 -98245.519"/><path d="M 148051 -98751 146249 -98751 146249 -96949 148051 -96949 148051 -98751 148051 -98751"/><path d="M 169701 -97501 167899 -97501 167899 -95699 169701 -95699 169701 -97501 169701 -97501"/><path d="M 165401 -97501 163599 -97501 163599 -95699 165401 -95699 165401 -97501 165401 -97501"/><path d="M 147260.442 -94415.518 147326.627 -94422.037 147439.853 -94456.384 147496.467 -94473.557 147635.087 -94547.652 147652.991 -94557.222 147688.729 -94586.552 147790.186 -94669.814 147873.448 -94771.271 147902.778 -94807.009 147902.779 -94807.011 147986.443 -94963.533 147986.443 -94963.534 148037.963 -95133.373 148055.359 -95310 148037.963 -95486.627 148003.616 -95599.853 147986.443 -95656.467 147963.708 -95699 147902.778 -95812.991 147873.448 -95848.729 147790.186 -95950.186 147688.729 -96033.448 147652.991 -96062.778 147652.989 -96062.779 147496.467 -96146.443 147439.853 -96163.616 147326.627 -96197.963 147260.443 -96204.481 147194.26 -96211 147105.74 -96211 147039.557 -96204.481 146973.373 -96197.963 146860.147 -96163.616 146803.533 -96146.443 146647.011 -96062.779 146647.009 -96062.778 146611.271 -96033.448 146509.814 -95950.186 146426.552 -95848.729 146397.222 -95812.991 146336.292 -95699 146313.557 -95656.467 146296.384 -95599.853 146262.037 -95486.627 146244.641 -95310 146262.037 -95133.373 146313.557 -94963.534 146313.557 -94963.533 146397.221 -94807.011 146397.222 -94807.009 146426.552 -94771.271 146509.814 -94669.814 146611.271 -94586.552 146647.009 -94557.222 146664.913 -94547.652 146803.533 -94473.557 146860.147 -94456.384 146973.373 -94422.037 147039.558 -94415.518 147105.74 -94409 147194.26 -94409 147260.442 -94415.518 147260.442 -94415.518"/><path d="M 144551 -91451 142849 -91451 142849 -89749 144551 -89749 144551 -91451 144551 -91451"/><path d="M 124650.443 -86205.519 124716.627 -86212.037 124829.853 -86246.384 124886.467 -86263.557 125025.087 -86337.652 125042.991 -86347.222 125078.729 -86376.552 125180.186 -86459.814 125260.369 -86557.519 125292.778 -86597.009 125292.779 -86597.011 125376.443 -86753.533 125376.443 -86753.534 125427.963 -86923.373 125445.359 -87100 125427.963 -87276.627 125406.243 -87348.228 125376.443 -87446.467 125302.348 -87585.087 125292.778 -87602.991 125263.448 -87638.729 125180.186 -87740.186 125078.729 -87823.448 125042.991 -87852.778 125042.989 -87852.779 124886.467 -87936.443 124838.478 -87951 124716.627 -87987.963 124650.442 -87994.482 124584.26 -88001 124495.74 -88001 124429.558 -87994.482 124363.373 -87987.963 124241.522 -87951 124193.533 -87936.443 124037.011 -87852.779 124037.009 -87852.778 124001.271 -87823.448 123899.814 -87740.186 123816.552 -87638.729 123787.222 -87602.991 123777.652 -87585.087 123703.557 -87446.467 123673.757 -87348.228 123652.037 -87276.627 123634.641 -87100 123652.037 -86923.373 123703.557 -86753.534 123703.557 -86753.533 123787.221 -86597.011 123787.222 -86597.009 123819.631 -86557.519 123899.814 -86459.814 124001.271 -86376.552 124037.009 -86347.222 124054.913 -86337.652 124193.533 -86263.557 124250.147 -86246.384 124363.373 -86212.037 124429.557 -86205.519 124495.74 -86199 124584.26 -86199 124650.443 -86205.519 124650.443 -86205.519"/><path d="M 128470.443 -86205.519 128536.627 -86212.037 128649.853 -86246.384 128706.467 -86263.557 128845.087 -86337.652 128862.991 -86347.222 128898.729 -86376.552 129000.186 -86459.814 129080.369 -86557.519 129112.778 -86597.009 129112.779 -86597.011 129196.443 -86753.533 129196.443 -86753.534 129247.963 -86923.373 129265.359 -87100 129247.963 -87276.627 129226.243 -87348.228 129196.443 -87446.467 129122.348 -87585.087 129112.778 -87602.991 129083.448 -87638.729 129000.186 -87740.186 128898.729 -87823.448 128862.991 -87852.778 128862.989 -87852.779 128706.467 -87936.443 128658.478 -87951 128536.627 -87987.963 128470.442 -87994.482 128404.26 -88001 128315.74 -88001 128249.558 -87994.482 128183.373 -87987.963 128061.522 -87951 128013.533 -87936.443 127857.011 -87852.779 127857.009 -87852.778 127821.271 -87823.448 127719.814 -87740.186 127636.552 -87638.729 127607.222 -87602.991 127597.652 -87585.087 127523.557 -87446.467 127493.757 -87348.228 127472.037 -87276.627 127454.641 -87100 127472.037 -86923.373 127523.557 -86753.534 127523.557 -86753.533 127607.221 -86597.011 127607.222 -86597.009 127639.631 -86557.519 127719.814 -86459.814 127821.271 -86376.552 127857.009 -86347.222 127874.913 -86337.652 128013.533 -86263.557 128070.147 -86246.384 128183.373 -86212.037 128249.557 -86205.519 128315.74 -86199 128404.26 -86199 128470.443 -86205.519 128470.443 -86205.519"/><path d="M 131801 -88001 129999 -88001 129999 -86199 131801 -86199 131801 -88001 131801 -88001"/><path d="M 122901 -88001 121099 -88001 121099 -86199 122901 -86199 122901 -88001 122901 -88001"/><path d="M 143948.228 -86281.703 144103.1 -86345.853 144242.481 -86438.985 144361.015 -86557.519 144454.147 -86696.9 144518.297 -86851.772 144551 -87016.184 144551 -87183.816 144518.297 -87348.228 144454.147 -87503.1 144361.015 -87642.481 144242.481 -87761.015 144103.1 -87854.147 143948.228 -87918.297 143783.816 -87951 143616.184 -87951 143451.772 -87918.297 143296.9 -87854.147 143157.519 -87761.015 143038.985 -87642.481 142945.853 -87503.1 142881.703 -87348.228 142849 -87183.816 142849 -87016.184 142881.703 -86851.772 142945.853 -86696.9 143038.985 -86557.519 143157.519 -86438.985 143296.9 -86345.853 143451.772 -86281.703 143616.184 -86249 143783.816 -86249 143948.228 -86281.703 143948.228 -86281.703"/></g></svg>