<svg version="1.1" xmlns="http://www.w3.org/2000/svg" xmlns:xlink="http://www.w3.org/1999/xlink" stroke-linecap="round" stroke-linejoin="round" stroke-width="0" fill-rule="evenodd" width="55.984001mm" height="34.394mm" viewBox="119963 -118797 55984.001 34394" id="rgWgEwQPO_v58sHoSvWq"><defs><rect x="-850" y="-850" width="1700" height="1700" rx="850" ry="850" id="rgWgEwQPO_v58sHoSvWq_pad-10"/><rect x="-850" y="-850" width="1700" height="1700" id="rgWgEwQPO_v58sHoSvWq_pad-11"/><circle cx="0" cy="0" r="800" id="rgWgEwQPO_v58sHoSvWq_pad-12"/><rect x="-800" y="-800" width="1600" height="1600" id="rgWgEwQPO_v58sHoSvWq_pad-13"/><circle cx="0" cy="0" r="254" id="rgWgEwQPO_v58sHoSvWq_pad-14"/><circle cx="0" cy="0" r="600" id="rgWgEwQPO_v58sHoSvWq_pad-15"/></defs><g transform="translate(0,-203200) scale(1,-1)" fill="currentColor" stroke="currentColor"><use xlink:href="#rgWgEwQPO_v58sHoSvWq_pad-10" x="164500" y="-99140"/><use xlink:href="#rgWgEwQPO_v58sHoSvWq_pad-11" x="164500" y="-96600"/><use xlink:href="#rgWgEwQPO_v58sHoSvWq_pad-11" x="147150" y="-97850"/><use xlink:href="#rgWgEwQPO_v58sHoSvWq_pad-10" x="147150" y="-95310"/><use xlink:href="#rgWgEwQPO_v58sHoSvWq_pad-10" x="124540" y="-87100"/><use xlink:href="#rgWgEwQPO_v58sHoSvWq_pad-11" x="122000" y="-87100"/><use xlink:href="#rgWgEwQPO_v58sHoSvWq_pad-10" x="128360" y="-87100"/><use xlink:href="#rgWgEwQPO_v58sHoSvWq_pad-11" x="130900" y="-87100"/><use xlink:href="#rgWgEwQPO_v58sHoSvWq_pad-11" x="133600" y="-104000"/><use xlink:href="#rgWgEwQPO_v58sHoSvWq_pad-10" x="133600" y="-101460"/><use xlink:href="#rgWgEwQPO_v58sHoSvWq_pad-11" x="152300" y="-108000"/><use xlink:href="#rgWgEwQPO_v58sHoSvWq_pad-10" x="152300" y="-105460"/><use xlink:href="#rgWgEwQPO_v58sHoSvWq_pad-11" x="168800" y="-96600"/><use xlink:href="#rgWgEwQPO_v58sHoSvWq_pad-10" x="168800" y="-99140"/><use xlink:href="#rgWgEwQPO_v58sHoSvWq_pad-10" x="124820" y="-116500"/><use xlink:href="#rgWgEwQPO_v58sHoSvWq_pad-10" x="127360" y="-116500"/><use xlink:href="#rgWgEwQPO_v58sHoSvWq_pad-10" x="129900" y="-116500"/><use xlink:href="#rgWgEwQPO_v58sHoSvWq_pad-10" x="132440" y="-116500"/><use xlink:href="#rgWgEwQPO_v58sHoSvWq_pad-10" x="134980" y="-116500"/><use xlink:href="#rgWgEwQPO_v58sHoSvWq_pad-10" x="137520" y="-116500"/><use xlink:href="#rgWgEwQPO_v58sHoSvWq_pad-10" x="140060" y="-116500"/><use xlink:href="#rgWgEwQPO_v58sHoSvWq_pad-11" x="142600" y="-116500"/><use xlink:href="#rgWgEwQPO_v58sHoSvWq_pad-11" x="146800" y="-116500"/><use xlink:href="#rgWgEwQPO_v58sHoSvWq_pad-10" x="149340" y="-116500"/><use xlink:href="#rgWgEwQPO_v58sHoSvWq_pad-10" x="151880" y="-116500"/><use xlink:href="#rgWgEwQPO_v58sHoSvWq_pad-10" x="154420" y="-116500"/><use xlink:href="#rgWgEwQPO_v58sHoSvWq_pad-10" x="156960" y="-116500"/><use xlink:href="#rgWgEwQPO_v58sHoSvWq_pad-10" x="159500" y="-116500"/><use xlink:href="#rgWgEwQPO_v58sHoSvWq_pad-10" x="162040" y="-116500"/><use xlink:href="#rgWgEwQPO_v58sHoSvWq_pad-10" x="164580" y="-116500"/><use xlink:href="#rgWgEwQPO_v58sHoSvWq_pad-10" x="164580" y="-112600"/><use xlink:href="#rgWgEwQPO_v58sHoSvWq_pad-10" x="162040" y="-112600"/><use xlink:href="#rgWgEwQPO_v58sHoSvWq_pad-10" x="159500" y="-112600"/><use xlink:href="#rgWgEwQPO_v58sHoSvWq_pad-10" x="156960" y="-112600"/><use xlink:href="#rgWgEwQPO_v58sHoSvWq_pad-10" x="154420" y="-112600"/><use xlink:href="#rgWgEwQPO_v58sHoSvWq_pad-10" x="151880" y="-112600"/><use xlink:href="#rgWgEwQPO_v58sHoSvWq_pad-10" x="149340" y="-112600"/><use xlink:href="#rgWgEwQPO_v58sHoSvWq_pad-11" x="146800" y="-112600"/><use xlink:href="#rgWgEwQPO_v58sHoSvWq_pad-11" x="142600" y="-112600"/><use xlink:href="#rgWgEwQPO_v58sHoSvWq_pad-10" x="140060" y="-112600"/><use xlink:href="#rgWgEwQPO_v58sHoSvWq_pad-10" x="137520" y="-112600"/><use xlink:href="#rgWgEwQPO_v58sHoSvWq_pad-10" x="134980" y="-112600"/><use xlink:href="#rgWgEwQPO_v58sHoSvWq_pad-10" x="132440" y="-112600"/><use xlink:href="#rgWgEwQPO_v58sHoSvWq_pad-10" x="129900" y="-112600"/><use xlink:href="#rgWgEwQPO_v58sHoSvWq_pad-10" x="127360" y="-112600"/><use xlink:href="#rgWgEwQPO_v58sHoSvWq_pad-10" x="124820" y="-112600"/><use xlink:href="#rgWgEwQPO_v58sHoSvWq_pad-12" x="143700" y="-87100"/><use xlink:href="#rgWgEwQPO_v58sHoSvWq_pad-13" x="143700" y="-90600"/><use xlink:href="#rgWgEwQPO_v58sHoSvWq_pad-14" x="158856.3" y="-100093.7"/><use xlink:href="#rgWgEwQPO_v58sHoSvWq_pad-14" x="158856.3" y="-99306.3"/><use xlink:href="#rgWgEwQPO_v58sHoSvWq_pad-14" x="159643.7" y="-100093.7"/><use xlink:href="#rgWgEwQPO_v58sHoSvWq_pad-14" x="159643.7" y="-99306.3"/><use xlink:href="#rgWgEwQPO_v58sHoSvWq_pad-15" x="161200" y="-94550"/><use xlink:href="#rgWgEwQPO_v58sHoSvWq_pad-15" x="154800.002" y="-102450"/><use xlink:href="#rgWgEwQPO_v58sHoSvWq_pad-15" x="127800" y="-106500"/><use xlink:href="#rgWgEwQPO_v58sHoSvWq_pad-15" x="137099.999" y="-93400"/><path d="M 154800.002 -100949.998 154800.002 -101601.472 154800.002 -102450 M 161200 -94550 154800.002 -100949.998 M 127800 -106500 127800 -106500 127800 -102699.999 136500 -93999.999 137099.999 -93400" fill="none" stroke-width="500"/><path d="M 175820.001 -118670 120090 -118670 120090 -116856.892 123378.514 -116856.892 123624.817 -117381.358 124053.076 -117771.645 124463.11 -117941.476 124693 -117820.155 124693 -116627 124947 -116627 124947 -117820.155 125176.89 -117941.476 125586.924 -117771.645 126015.183 -117381.358 126090 -117222.046 126164.817 -117381.358 126593.076 -117771.645 127003.11 -117941.476 127233 -117820.155 127233 -116627 127487 -116627 127487 -117820.155 127716.89 -117941.476 128126.924 -117771.645 128555.183 -117381.358 128630 -117222.046 128704.817 -117381.358 129133.076 -117771.645 129543.11 -117941.476 129773 -117820.155 129773 -116627 130027 -116627 130027 -117820.155 130256.89 -117941.476 130666.924 -117771.645 131095.183 -117381.358 131170 -117222.046 131244.817 -117381.358 131673.076 -117771.645 132083.11 -117941.476 132313 -117820.155 132313 -116627 132567 -116627 132567 -117820.155 132796.89 -117941.476 133206.924 -117771.645 133635.183 -117381.358 133710 -117222.046 133784.817 -117381.358 134213.076 -117771.645 134623.11 -117941.476 134853 -117820.155 134853 -116627 135107 -116627 135107 -117820.155 135336.89 -117941.476 135746.924 -117771.645 136175.183 -117381.358 136250 -117222.046 136324.817 -117381.358 136753.076 -117771.645 137163.11 -117941.476 137393 -117820.155 137393 -116627 137647 -116627 137647 -117820.155 137876.89 -117941.476 138286.924 -117771.645 138715.183 -117381.358 138790 -117222.046 138864.817 -117381.358 139293.076 -117771.645 139703.11 -117941.476 139933 -117820.155 139933 -116627 140187 -116627 140187 -117820.155 140416.89 -117941.476 140826.924 -117771.645 141124.864 -117500.122 141211.673 -117709.698 141390.301 -117888.327 141623.69 -117985 142314.25 -117985 142473 -117826.25 142473 -116627 142727 -116627 142727 -117826.25 142885.75 -117985 143576.31 -117985 143809.699 -117888.327 143988.327 -117709.698 144085 -117476.309 144085 -116785.75 145315 -116785.75 145315 -117476.309 145411.673 -117709.698 145590.301 -117888.327 145823.69 -117985 146514.25 -117985 146673 -117826.25 146673 -116627 146927 -116627 146927 -117826.25 147085.75 -117985 147776.31 -117985 148009.699 -117888.327 148188.327 -117709.698 148275.136 -117500.122 148573.076 -117771.645 148983.11 -117941.476 149213 -117820.155 149213 -116627 149467 -116627 149467 -117820.155 149696.89 -117941.476 150106.924 -117771.645 150535.183 -117381.358 150610 -117222.046 150684.817 -117381.358 151113.076 -117771.645 151523.11 -117941.476 151753 -117820.155 151753 -116627 152007 -116627 152007 -117820.155 152236.89 -117941.476 152646.924 -117771.645 153075.183 -117381.358 153150 -117222.046 153224.817 -117381.358 153653.076 -117771.645 154063.11 -117941.476 154293 -117820.155 154293 -116627 154547 -116627 154547 -117820.155 154776.89 -117941.476 155186.924 -117771.645 155615.183 -117381.358 155690 -117222.046 155764.817 -117381.358 156193.076 -117771.645 156603.11 -117941.476 156833 -117820.155 156833 -116627 157087 -116627 157087 -117820.155 157316.89 -117941.476 157726.924 -117771.645 158155.183 -117381.358 158230 -117222.046 158304.817 -117381.358 158733.076 -117771.645 159143.11 -117941.476 159373 -117820.155 159373 -116627 159627 -116627 159627 -117820.155 159856.89 -117941.476 160266.924 -117771.645 160695.183 -117381.358 160770 -117222.046 160844.817 -117381.358 161273.076 -117771.645 161683.11 -117941.476 161913 -117820.155 161913 -116627 162167 -116627 162167 -117820.155 162396.89 -117941.476 162806.924 -117771.645 163235.183 -117381.358 163310 -117222.046 163384.817 -117381.358 163813.076 -117771.645 164223.11 -117941.476 164453 -117820.155 164453 -116627 164707 -116627 164707 -117820.155 164936.89 -117941.476 165346.924 -117771.645 165775.183 -117381.358 166021.486 -116856.892 165900.819 -116627 164707 -116627 164453 -116627 162167 -116627 161913 -116627 159627 -116627 159373 -116627 157087 -116627 156833 -116627 154547 -116627 154293 -116627 152007 -116627 151753 -116627 149467 -116627 149213 -116627 146927 -116627 146673 -116627 145473.75 -116627 145315 -116785.75 144085 -116785.75 143926.25 -116627 142727 -116627 142473 -116627 140187 -116627 139933 -116627 137647 -116627 137393 -116627 135107 -116627 134853 -116627 132567 -116627 132313 -116627 130027 -116627 129773 -116627 127487 -116627 127233 -116627 124947 -116627 124693 -116627 123499.181 -116627 123378.514 -116856.892 120090 -116856.892 120090 -116143.108 123378.514 -116143.108 123499.181 -116373 124693 -116373 124693 -115179.845 124947 -115179.845 124947 -116373 127233 -116373 127233 -115179.845 127487 -115179.845 127487 -116373 129773 -116373 129773 -115179.845 130027 -115179.845 130027 -116373 132313 -116373 132313 -115179.845 132567 -115179.845 132567 -116373 134853 -116373 134853 -115179.845 135107 -115179.845 135107 -116373 137393 -116373 137393 -115179.845 137647 -115179.845 137647 -116373 139933 -116373 139933 -115179.845 140187 -115179.845 140187 -116373 142473 -116373 142473 -115173.75 142727 -115173.75 142727 -116373 143926.25 -116373 144085 -116214.25 144085 -115523.691 145315 -115523.691 145315 -116214.25 145473.75 -116373 146673 -116373 146673 -115173.75 146927 -115173.75 146927 -116373 149213 -116373 149213 -115179.845 149467 -115179.845 149467 -116373 151753 -116373 151753 -115179.845 152007 -115179.845 152007 -116373 154293 -116373 154293 -115179.845 154547 -115179.845 154547 -116373 156833 -116373 156833 -115179.845 157087 -115179.845 157087 -116373 159373 -116373 159373 -115179.845 159627 -115179.845 159627 -116373 161913 -116373 161913 -115179.845 162167 -115179.845 162167 -116373 164453 -116373 164453 -115179.845 164707 -115179.845 164707 -116373 165900.819 -116373 166021.486 -116143.108 165775.183 -115618.642 165346.924 -115228.355 164936.89 -115058.524 164707 -115179.845 164453 -115179.845 164223.11 -115058.524 163813.076 -115228.355 163384.817 -115618.642 163310 -115777.954 163235.183 -115618.642 162806.924 -115228.355 162396.89 -115058.524 162167 -115179.845 161913 -115179.845 161683.11 -115058.524 161273.076 -115228.355 160844.817 -115618.642 160770 -115777.954 160695.183 -115618.642 160266.924 -115228.355 159856.89 -115058.524 159627 -115179.845 159373 -115179.845 159143.11 -115058.524 158733.076 -115228.355 158304.817 -115618.642 158230 -115777.954 158155.183 -115618.642 157726.924 -115228.355 157316.89 -115058.524 157087 -115179.845 156833 -115179.845 156603.11 -115058.524 156193.076 -115228.355 155764.817 -115618.642 155690 -115777.954 155615.183 -115618.642 155186.924 -115228.355 154776.89 -115058.524 154547 -115179.845 154293 -115179.845 154063.11 -115058.524 153653.076 -115228.355 153224.817 -115618.642 153150 -115777.954 153075.183 -115618.642 152646.924 -115228.355 152236.89 -115058.524 152007 -115179.845 151753 -115179.845 151523.11 -115058.524 151113.076 -115228.355 150684.817 -115618.642 150610 -115777.954 150535.183 -115618.642 150106.924 -115228.355 149696.89 -115058.524 149467 -115179.845 149213 -115179.845 148983.11 -115058.524 148573.076 -115228.355 148275.136 -115499.878 148188.327 -115290.302 148009.699 -115111.673 147776.31 -115015 147085.75 -115015 146927 -115173.75 146673 -115173.75 146514.25 -115015 145823.69 -115015 145590.301 -115111.673 145411.673 -115290.302 145315 -115523.691 144085 -115523.691 143988.327 -115290.302 143809.699 -115111.673 143576.31 -115015 142885.75 -115015 142727 -115173.75 142473 -115173.75 142314.25 -115015 141623.69 -115015 141390.301 -115111.673 141211.673 -115290.302 141124.864 -115499.878 140826.924 -115228.355 140416.89 -115058.524 140187 -115179.845 139933 -115179.845 139703.11 -115058.524 139293.076 -115228.355 138864.817 -115618.642 138790 -115777.954 138715.183 -115618.642 138286.924 -115228.355 137876.89 -115058.524 137647 -115179.845 137393 -115179.845 137163.11 -115058.524 136753.076 -115228.355 136324.817 -115618.642 136250 -115777.954 136175.183 -115618.642 135746.924 -115228.355 135336.89 -115058.524 135107 -115179.845 134853 -115179.845 134623.11 -115058.524 134213.076 -115228.355 133784.817 -115618.642 133710 -115777.954 133635.183 -115618.642 133206.924 -115228.355 132796.89 -115058.524 132567 -115179.845 132313 -115179.845 132083.11 -115058.524 131673.076 -115228.355 131244.817 -115618.642 131170 -115777.954 131095.183 -115618.642 130666.924 -115228.355 130256.89 -115058.524 130027 -115179.845 129773 -115179.845 129543.11 -115058.524 129133.076 -115228.355 128704.817 -115618.642 128630 -115777.954 128555.183 -115618.642 128126.924 -115228.355 127716.89 -115058.524 127487 -115179.845 127233 -115179.845 127003.11 -115058.524 126593.076 -115228.355 126164.817 -115618.642 126090 -115777.954 126015.183 -115618.642 125586.924 -115228.355 125176.89 -115058.524 124947 -115179.845 124693 -115179.845 124463.11 -115058.524 124053.076 -115228.355 123624.817 -115618.642 123378.514 -116143.108 120090 -116143.108 120090 -114427 167640 -114427 167688.601 -114417.333 167729.803 -114389.803 167757.333 -114348.601 167767 -114300 167767 -108077 175820.001 -108077 175820.001 -118670 175820.001 -118670"/><path d="M 175820.001 -118670 120090 -118670 120090 -116856.892 123378.514 -116856.892 123624.817 -117381.358 124053.076 -117771.645 124463.11 -117941.476 124693 -117820.155 124693 -116627 124947 -116627 124947 -117820.155 125176.89 -117941.476 125586.924 -117771.645 126015.183 -117381.358 126090 -117222.046 126164.817 -117381.358 126593.076 -117771.645 127003.11 -117941.476 127233 -117820.155 127233 -116627 127487 -116627 127487 -117820.155 127716.89 -117941.476 128126.924 -117771.645 128555.183 -117381.358 128630 -117222.046 128704.817 -117381.358 129133.076 -117771.645 129543.11 -117941.476 129773 -117820.155 129773 -116627 130027 -116627 130027 -117820.155 130256.89 -117941.476 130666.924 -117771.645 131095.183 -117381.358 131170 -117222.046 131244.817 -117381.358 131673.076 -117771.645 132083.11 -117941.476 132313 -117820.155 132313 -116627 132567 -116627 132567 -117820.155 132796.89 -117941.476 133206.924 -117771.645 133635.183 -117381.358 133710 -117222.046 133784.817 -117381.358 134213.076 -117771.645 134623.11 -117941.476 134853 -117820.155 134853 -116627 135107 -116627 135107 -117820.155 135336.89 -117941.476 135746.924 -117771.645 136175.183 -117381.358 136250 -117222.046 136324.817 -117381.358 136753.076 -117771.645 137163.11 -117941.476 137393 -117820.155 137393 -116627 137647 -116627 137647 -117820.155 137876.89 -117941.476 138286.924 -117771.645 138715.183 -117381.358 138790 -117222.046 138864.817 -117381.358 139293.076 -117771.645 139703.11 -117941.476 139933 -117820.155 139933 -116627 140187 -116627 140187 -117820.155 140416.89 -117941.476 140826.924 -117771.645 141124.864 -117500.122 141211.673 -117709.698 141390.301 -117888.327 141623.69 -117985 142314.25 -117985 142473 -117826.25 142473 -116627 142727 -116627 142727 -117826.25 142885.75 -117985 143576.31 -117985 143809.699 -117888.327 143988.327 -117709.698 144085 -117476.309 144085 -116785.75 145315 -116785.75 145315 -117476.309 145411.673 -117709.698 145590.301 -117888.327 145823.69 -117985 146514.25 -117985 146673 -117826.25 146673 -116627 146927 -116627 146927 -117826.25 147085.75 -117985 147776.31 -117985 148009.699 -117888.327 148188.327 -117709.698 148275.136 -117500.122 148573.076 -117771.645 148983.11 -117941.476 149213 -117820.155 149213 -116627 149467 -116627 149467 -117820.155 149696.89 -117941.476 150106.924 -117771.645 150535.183 -117381.358 150610 -117222.046 150684.817 -117381.358 151113.076 -117771.645 151523.11 -117941.476 151753 -117820.155 151753 -116627 152007 -116627 152007 -117820.155 152236.89 -117941.476 152646.924 -117771.645 153075.183 -117381.358 153150 -117222.046 153224.817 -117381.358 153653.076 -117771.645 154063.11 -117941.476 154293 -117820.155 154293 -116627 154547 -116627 154547 -117820.155 154776.89 -117941.476 155186.924 -117771.645 155615.183 -117381.358 155690 -117222.046 155764.817 -117381.358 156193.076 -117771.645 156603.11 -117941.476 156833 -117820.155 156833 -116627 157087 -116627 157087 -117820.155 157316.89 -117941.476 157726.924 -117771.645 158155.183 -117381.358 158230 -117222.046 158304.817 -117381.358 158733.076 -117771.645 159143.11 -117941.476 159373 -117820.155 159373 -116627 159627 -116627 159627 -117820.155 159856.89 -117941.476 160266.924 -117771.645 160695.183 -117381.358 160770 -117222.046 160844.817 -117381.358 161273.076 -117771.645 161683.11 -117941.476 161913 -117820.155 161913 -116627 162167 -116627 162167 -117820.155 162396.89 -117941.476 162806.924 -117771.645 163235.183 -117381.358 163310 -117222.046 163384.817 -117381.358 163813.076 -117771.645 164223.11 -117941.476 164453 -117820.155 164453 -116627 164707 -116627 164707 -117820.155 164936.89 -117941.476 165346.924 -117771.645 165775.183 -117381.358 166021.486 -116856.892 165900.819 -116627 164707 -116627 164453 -116627 162167 -116627 161913 -116627 159627 -116627 159373 -116627 157087 -116627 156833 -116627 154547 -116627 154293 -116627 152007 -116627 151753 -116627 149467 -116627 149213 -116627 146927 -116627 146673 -116627 145473.75 -116627 145315 -116785.75 144085 -116785.75 143926.25 -116627 142727 -116627 142473 -116627 140187 -116627 139933 -116627 137647 -116627 137393 -116627 135107 -116627 134853 -116627 132567 -116627 132313 -116627 130027 -116627 129773 -116627 127487 -116627 127233 -116627 124947 -116627 124693 -116627 123499.181 -116627 123378.514 -116856.892 120090 -116856.892 120090 -116143.108 123378.514 -116143.108 123499.181 -116373 124693 -116373 124693 -115179.845 124947 -115179.845 124947 -116373 127233 -116373 127233 -115179.845 127487 -115179.845 127487 -116373 129773 -116373 129773 -115179.845 130027 -115179.845 130027 -116373 132313 -116373 132313 -115179.845 132567 -115179.845 132567 -116373 134853 -116373 134853 -115179.845 135107 -115179.845 135107 -116373 137393 -116373 137393 -115179.845 137647 -115179.845 137647 -116373 139933 -116373 139933 -115179.845 140187 -115179.845 140187 -116373 142473 -116373 142473 -115173.75 142727 -115173.75 142727 -116373 143926.25 -116373 144085 -116214.25 144085 -115523.691 145315 -115523.691 145315 -116214.25 145473.75 -116373 146673 -116373 146673 -115173.75 146927 -115173.75 146927 -116373 149213 -116373 149213 -115179.845 149467 -115179.845 149467 -116373 151753 -116373 151753 -115179.845 152007 -115179.845 152007 -116373 154293 -116373 154293 -115179.845 154547 -115179.845 154547 -116373 156833 -116373 156833 -115179.845 157087 -115179.845 157087 -116373 159373 -116373 159373 -115179.845 159627 -115179.845 159627 -116373 161913 -116373 161913 -115179.845 162167 -115179.845 162167 -116373 164453 -116373 164453 -115179.845 164707 -115179.845 164707 -116373 165900.819 -116373 166021.486 -116143.108 165775.183 -115618.642 165346.924 -115228.355 164936.89 -115058.524 164707 -115179.845 164453 -115179.845 164223.11 -115058.524 163813.076 -115228.355 163384.817 -115618.642 163310 -115777.954 163235.183 -115618.642 162806.924 -115228.355 162396.89 -115058.524 162167 -115179.845 161913 -115179.845 161683.11 -115058.524 161273.076 -115228.355 160844.817 -115618.642 160770 -115777.954 160695.183 -115618.642 160266.924 -115228.355 159856.89 -115058.524 159627 -115179.845 159373 -115179.845 159143.11 -115058.524 158733.076 -115228.355 158304.817 -115618.642 158230 -115777.954 158155.183 -115618.642 157726.924 -115228.355 157316.89 -115058.524 157087 -115179.845 156833 -115179.845 156603.11 -115058.524 156193.076 -115228.355 155764.817 -115618.642 155690 -115777.954 155615.183 -115618.642 155186.924 -115228.355 154776.89 -115058.524 154547 -115179.845 154293 -115179.845 154063.11 -115058.524 153653.076 -115228.355 153224.817 -115618.642 153150 -115777.954 153075.183 -115618.642 152646.924 -115228.355 152236.89 -115058.524 152007 -115179.845 151753 -115179.845 151523.11 -115058.524 151113.076 -115228.355 150684.817 -115618.642 150610 -115777.954 150535.183 -115618.642 150106.924 -115228.355 149696.89 -115058.524 149467 -115179.845 149213 -115179.845 148983.11 -115058.524 148573.076 -115228.355 148275.136 -115499.878 148188.327 -115290.302 148009.699 -115111.673 147776.31 -115015 147085.75 -115015 146927 -115173.75 146673 -115173.75 146514.25 -115015 145823.69 -115015 145590.301 -115111.673 145411.673 -115290.302 145315 -115523.691 144085 -115523.691 143988.327 -115290.302 143809.699 -115111.673 143576.31 -115015 142885.75 -115015 142727 -115173.75 142473 -115173.75 142314.25 -115015 141623.69 -115015 141390.301 -115111.673 141211.673 -115290.302 141124.864 -115499.878 140826.924 -115228.355 140416.89 -115058.524 140187 -115179.845 139933 -115179.845 139703.11 -115058.524 139293.076 -115228.355 138864.817 -115618.642 138790 -115777.954 138715.183 -115618.642 138286.924 -115228.355 137876.89 -115058.524 137647 -115179.845 137393 -115179.845 137163.11 -115058.524 136753.076 -115228.355 136324.817 -115618.642 136250 -115777.954 136175.183 -115618.642 135746.924 -115228.355 135336.89 -115058.524 135107 -115179.845 134853 -115179.845 134623.11 -115058.524 134213.076 -115228.355 133784.817 -115618.642 133710 -115777.954 133635.183 -115618.642 133206.924 -115228.355 132796.89 -115058.524 132567 -115179.845 132313 -115179.845 132083.11 -115058.524 131673.076 -115228.355 131244.817 -115618.642 131170 -115777.954 131095.183 -115618.642 130666.924 -115228.355 130256.89 -115058.524 130027 -115179.845 129773 -115179.845 129543.11 -115058.524 129133.076 -115228.355 128704.817 -115618.642 128630 -115777.954 128555.183 -115618.642 128126.924 -115228.355 127716.89 -115058.524 127487 -115179.845 127233 -115179.845 127003.11 -115058.524 126593.076 -115228.355 126164.817 -115618.642 126090 -115777.954 126015.183 -115618.642 125586.924 -115228.355 125176.89 -115058.524 124947 -115179.845 124693 -115179.845 124463.11 -115058.524 124053.076 -115228.355 123624.817 -115618.642 123378.514 -116143.108 120090 -116143.108 120090 -114427 167640 -114427 167688.601 -114417.333 167729.803 -114389.803 167757.333 -114348.601 167767 -114300 167767 -108077 175820.001 -108077 175820.001 -118670" fill="none" stroke-width="254"/><path d="M 175820.001 -106553 166370 -106553 166321.399 -106562.667 166280.197 -106590.197 166252.667 -106631.399 166243 -106680 166243 -112903 165993.199 -112903 165900.819 -112727 164707 -112727 164707 -112747 164453 -112747 164453 -112727 162167 -112727 162167 -112747 161913 -112747 161913 -112727 159627 -112727 159627 -112747 159373 -112747 159373 -112727 157087 -112727 157087 -112747 156833 -112747 156833 -112727 154547 -112727 154547 -112747 154293 -112747 154293 -112727 152007 -112727 152007 -112747 151753 -112747 151753 -112727 149467 -112727 149467 -112747 149213 -112747 149213 -112727 146927 -112727 146927 -112747 146673 -112747 146673 -112727 145473.75 -112727 145315 -112885.75 145315 -112903 144085 -112903 144085 -112885.75 143926.25 -112727 142727 -112727 142727 -112747 142473 -112747 142473 -112727 140187 -112727 140187 -112747 139933 -112747 139933 -112727 137647 -112727 137647 -112747 137393 -112747 137393 -112727 135107 -112727 135107 -112747 134853 -112747 134853 -112727 132567 -112727 132567 -112747 132313 -112747 132313 -112727 130027 -112727 130027 -112747 129773 -112747 129773 -112727 127487 -112727 127487 -112747 127233 -112747 127233 -112727 124947 -112727 124947 -112747 124693 -112747 124693 -112727 123499.181 -112727 123406.801 -112903 120090 -112903 120090 -112243.108 123378.514 -112243.108 123499.181 -112473 124693 -112473 124693 -111279.845 124947 -111279.845 124947 -112473 127233 -112473 127233 -111279.845 127487 -111279.845 127487 -112473 129773 -112473 129773 -111279.845 130027 -111279.845 130027 -112473 132313 -112473 132313 -111279.845 132567 -111279.845 132567 -112473 134853 -112473 134853 -111279.845 135107 -111279.845 135107 -112473 137393 -112473 137393 -111279.845 137647 -111279.845 137647 -112473 139933 -112473 139933 -111279.845 140187 -111279.845 140187 -112473 142473 -112473 142473 -111273.75 142727 -111273.75 142727 -112473 143926.25 -112473 144085 -112314.25 144085 -111623.691 145315 -111623.691 145315 -112314.25 145473.75 -112473 146673 -112473 146673 -111273.75 146927 -111273.75 146927 -112473 149213 -112473 149213 -111279.845 149467 -111279.845 149467 -112473 151753 -112473 151753 -111279.845 152007 -111279.845 152007 -112473 154293 -112473 154293 -111279.845 154547 -111279.845 154547 -112473 156833 -112473 156833 -111279.845 157087 -111279.845 157087 -112473 159373 -112473 159373 -111279.845 159627 -111279.845 159627 -112473 161913 -112473 161913 -111279.845 162167 -111279.845 162167 -112473 164453 -112473 164453 -111279.845 164707 -111279.845 164707 -112473 165900.819 -112473 166021.486 -112243.108 165775.183 -111718.642 165346.924 -111328.355 164936.89 -111158.524 164707 -111279.845 164453 -111279.845 164223.11 -111158.524 163813.076 -111328.355 163384.817 -111718.642 163310 -111877.954 163235.183 -111718.642 162806.924 -111328.355 162396.89 -111158.524 162167 -111279.845 161913 -111279.845 161683.11 -111158.524 161273.076 -111328.355 160844.817 -111718.642 160770 -111877.954 160695.183 -111718.642 160266.924 -111328.355 159856.89 -111158.524 159627 -111279.845 159373 -111279.845 159143.11 -111158.524 158733.076 -111328.355 158304.817 -111718.642 158230 -111877.954 158155.183 -111718.642 157726.924 -111328.355 157316.89 -111158.524 157087 -111279.845 156833 -111279.845 156603.11 -111158.524 156193.076 -111328.355 155764.817 -111718.642 155690 -111877.954 155615.183 -111718.642 155186.924 -111328.355 154776.89 -111158.524 154547 -111279.845 154293 -111279.845 154063.11 -111158.524 153653.076 -111328.355 153224.817 -111718.642 153150 -111877.954 153075.183 -111718.642 152646.924 -111328.355 152236.89 -111158.524 152007 -111279.845 151753 -111279.845 151523.11 -111158.524 151113.076 -111328.355 150684.817 -111718.642 150610 -111877.954 150535.183 -111718.642 150106.924 -111328.355 149696.89 -111158.524 149467 -111279.845 149213 -111279.845 148983.11 -111158.524 148573.076 -111328.355 148275.136 -111599.878 148188.327 -111390.302 148009.699 -111211.673 147776.31 -111115 147085.75 -111115 146927 -111273.75 146673 -111273.75 146514.25 -111115 145823.69 -111115 145590.301 -111211.673 145411.673 -111390.302 145315 -111623.691 144085 -111623.691 143988.327 -111390.302 143809.699 -111211.673 143576.31 -111115 142885.75 -111115 142727 -111273.75 142473 -111273.75 142314.25 -111115 141623.69 -111115 141390.301 -111211.673 141211.673 -111390.302 141124.864 -111599.878 140826.924 -111328.355 140416.89 -111158.524 140187 -111279.845 139933 -111279.845 139703.11 -111158.524 139293.076 -111328.355 138864.817 -111718.642 138790 -111877.954 138715.183 -111718.642 138286.924 -111328.355 137876.89 -111158.524 137647 -111279.845 137393 -111279.845 137163.11 -111158.524 136753.076 -111328.355 136324.817 -111718.642 136250 -111877.954 136175.183 -111718.642 135746.924 -111328.355 135336.89 -111158.524 135107 -111279.845 134853 -111279.845 134623.11 -111158.524 134213.076 -111328.355 133784.817 -111718.642 133710 -111877.954 133635.183 -111718.642 133206.924 -111328.355 132796.89 -111158.524 132567 -111279.845 132313 -111279.845 132083.11 -111158.524 131673.076 -111328.355 131244.817 -111718.642 131170 -111877.954 131095.183 -111718.642 130666.924 -111328.355 130256.89 -111158.524 130027 -111279.845 129773 -111279.845 129543.11 -111158.524 129133.076 -111328.355 128704.817 -111718.642 128630 -111877.954 128555.183 -111718.642 128126.924 -111328.355 127716.89 -111158.524 127487 -111279.845 127233 -111279.845 127003.11 -111158.524 126593.076 -111328.355 126164.817 -111718.642 126090 -111877.954 126015.183 -111718.642 125586.924 -111328.355 125176.89 -111158.524 124947 -111279.845 124693 -111279.845 124463.11 -111158.524 124053.076 -111328.355 123624.817 -111718.642 123378.514 -112243.108 120090 -112243.108 120090 -108285.75 150815 -108285.75 150815 -108976.31 150911.673 -109209.699 151090.302 -109388.327 151323.691 -109485 152014.25 -109485 152173 -109326.25 152173 -108127 152427 -108127 152427 -109326.25 152585.75 -109485 153276.309 -109485 153509.698 -109388.327 153688.327 -109209.699 153785 -108976.31 153785 -108285.75 153626.25 -108127 152427 -108127 152173 -108127 150973.75 -108127 150815 -108285.75 120090 -108285.75 120090 -106254.343 126565 -106254.343 126565 -106745.657 126753.018 -107199.571 127100.429 -107546.982 127554.343 -107735 128045.657 -107735 128499.571 -107546.982 128846.982 -107199.571 129035 -106745.657 129035 -106254.343 128846.982 -105800.429 128685 -105638.447 128685 -103066.577 130291.577 -101460 132085.908 -101460 132201.161 -102039.418 132529.375 -102530.625 132547.619 -102542.816 132502.235 -102551.843 132292.191 -102692.191 132151.843 -102902.235 132102.56 -103150 132102.56 -104850 132151.843 -105097.765 132292.191 -105307.809 132502.235 -105448.157 132750 -105497.44 134450 -105497.44 134638.225 -105460 150785.908 -105460 150901.161 -106039.418 151229.375 -106530.625 151251.033 -106545.096 151090.302 -106611.673 150911.673 -106790.301 150815 -107023.69 150815 -107714.25 150973.75 -107873 152173 -107873 152173 -107853 152427 -107853 152427 -107873 153626.25 -107873 153785 -107714.25 153785 -107023.69 153688.327 -106790.301 153509.698 -106611.673 153348.967 -106545.096 153370.625 -106530.625 153698.839 -106039.418 153814.092 -105460 153698.839 -104880.582 153370.625 -104389.375 152879.418 -104061.161 152446.256 -103975 152153.744 -103975 151720.582 -104061.161 151229.375 -104389.375 150901.161 -104880.582 150785.908 -105460 134638.225 -105460 134697.765 -105448.157 134907.809 -105307.809 135048.157 -105097.765 135097.44 -104850 135097.44 -103150 135048.157 -102902.235 134907.809 -102692.191 134697.765 -102551.843 134652.381 -102542.816 134670.625 -102530.625 134888.639 -102204.343 153565.002 -102204.343 153565.002 -102695.657 153753.02 -103149.571 154100.431 -103496.982 154554.345 -103685 155045.659 -103685 155499.573 -103496.982 155846.984 -103149.571 156035.002 -102695.657 156035.002 -102204.343 155846.984 -101750.429 155685.002 -101588.447 155685.002 -101316.576 158034.608 -98966.97 157967.3 -99129.467 157967.3 -99483.133 158057.129 -99700 157967.3 -99916.867 157967.3 -100270.533 158102.642 -100597.278 158352.722 -100847.358 158679.467 -100982.7 159033.133 -100982.7 159250 -100892.871 159466.867 -100982.7 159820.533 -100982.7 160147.278 -100847.358 160397.358 -100597.278 160532.7 -100270.533 160532.7 -99916.867 160442.871 -99700 160527.001 -99496.89 163058.524 -99496.89 163228.355 -99906.924 163618.642 -100335.183 164143.108 -100581.486 164373 -100460.819 164373 -99267 164627 -99267 164627 -100460.819 164856.892 -100581.486 165381.358 -100335.183 165771.645 -99906.924 165941.476 -99496.89 167358.524 -99496.89 167528.355 -99906.924 167918.642 -100335.183 168443.108 -100581.486 168673 -100460.819 168673 -99267 168927 -99267 168927 -100460.819 169156.892 -100581.486 169681.358 -100335.183 170071.645 -99906.924 170241.476 -99496.89 170120.155 -99267 168927 -99267 168673 -99267 167479.845 -99267 167358.524 -99496.89 165941.476 -99496.89 165820.155 -99267 164627 -99267 164373 -99267 163179.845 -99267 163058.524 -99496.89 160527.001 -99496.89 160532.7 -99483.133 160532.7 -99129.467 160397.358 -98802.722 160147.278 -98552.642 159820.533 -98417.3 159466.867 -98417.3 159250 -98507.129 159033.133 -98417.3 158679.467 -98417.3 158516.97 -98484.608 161216.579 -95785 161445.657 -95785 161530.154 -95750 163002.56 -95750 163002.56 -97450 163051.843 -97697.765 163192.191 -97907.809 163402.235 -98048.157 163505.708 -98068.739 163228.355 -98373.076 163058.524 -98783.11 163179.845 -99013 164373 -99013 164373 -98993 164627 -98993 164627 -99013 165820.155 -99013 165941.476 -98783.11 165771.645 -98373.076 165494.292 -98068.739 165597.765 -98048.157 165807.809 -97907.809 165948.157 -97697.765 165997.44 -97450 165997.44 -95750 167302.56 -95750 167302.56 -97450 167351.843 -97697.765 167492.191 -97907.809 167702.235 -98048.157 167805.708 -98068.739 167528.355 -98373.076 167358.524 -98783.11 167479.845 -99013 168673 -99013 168673 -98993 168927 -98993 168927 -99013 170120.155 -99013 170241.476 -98783.11 170071.645 -98373.076 169794.292 -98068.739 169897.765 -98048.157 170107.809 -97907.809 170248.157 -97697.765 170297.44 -97450 170297.44 -95750 170248.157 -95502.235 170107.809 -95292.191 169897.765 -95151.843 169650 -95102.56 167950 -95102.56 167702.235 -95151.843 167492.191 -95292.191 167351.843 -95502.235 167302.56 -95750 165997.44 -95750 165948.157 -95502.235 165807.809 -95292.191 165597.765 -95151.843 165350 -95102.56 163650 -95102.56 163402.235 -95151.843 163192.191 -95292.191 163051.843 -95502.235 163002.56 -95750 161530.154 -95750 161899.571 -95596.982 162246.982 -95249.571 162435 -94795.657 162435 -94304.343 162246.982 -93850.429 161899.571 -93503.018 161445.657 -93315 160954.343 -93315 160500.429 -93503.018 160153.018 -93850.429 159965 -94304.343 159965 -94533.421 154235.849 -100262.573 154161.953 -100311.949 153966.35 -100604.689 153915.002 -100862.834 153915.002 -100862.837 153897.665 -100949.998 153915.002 -101037.159 153915.002 -101588.447 153753.02 -101750.429 153565.002 -102204.343 134888.639 -102204.343 134998.839 -102039.418 135114.092 -101460 134998.839 -100880.582 134670.625 -100389.375 134179.418 -100061.161 133746.256 -99975 133453.744 -99975 133020.582 -100061.161 132529.375 -100389.375 132201.161 -100880.582 132085.908 -101460 130291.577 -101460 133615.827 -98135.75 145665 -98135.75 145665 -98826.31 145761.673 -99059.699 145940.302 -99238.327 146173.691 -99335 146864.25 -99335 147023 -99176.25 147023 -97977 147277 -97977 147277 -99176.25 147435.75 -99335 148126.309 -99335 148359.698 -99238.327 148538.327 -99059.699 148635 -98826.31 148635 -98135.75 148476.25 -97977 147277 -97977 147023 -97977 145823.75 -97977 145665 -98135.75 133615.827 -98135.75 136441.577 -95310 145635.908 -95310 145751.161 -95889.418 146079.375 -96380.625 146101.033 -96395.096 145940.302 -96461.673 145761.673 -96640.301 145665 -96873.69 145665 -97564.25 145823.75 -97723 147023 -97723 147023 -97703 147277 -97703 147277 -97723 148476.25 -97723 148635 -97564.25 148635 -96873.69 148538.327 -96640.301 148359.698 -96461.673 148198.967 -96395.096 148220.625 -96380.625 148548.839 -95889.418 148664.092 -95310 148548.839 -94730.582 148220.625 -94239.375 147729.418 -93911.161 147296.256 -93825 147003.744 -93825 146570.582 -93911.161 146079.375 -94239.375 145751.161 -94730.582 145635.908 -95310 136441.577 -95310 137116.578 -94635 137345.656 -94635 137799.57 -94446.982 138146.981 -94099.571 138334.999 -93645.657 138334.999 -93154.343 138146.981 -92700.429 137799.57 -92353.018 137345.656 -92165 136854.342 -92165 136400.428 -92353.018 136053.017 -92700.429 135864.999 -93154.343 135864.999 -93383.421 127235.845 -102012.576 127161.952 -102061.95 127112.578 -102135.843 127112.576 -102135.845 126966.348 -102354.69 126897.663 -102699.999 126915.001 -102787.164 126915 -105638.447 126753.018 -105800.429 126565 -106254.343 120090 -106254.343 120090 -89800 142252.56 -89800 142252.56 -91400 142301.843 -91647.765 142442.191 -91857.809 142652.235 -91998.157 142900 -92047.44 144500 -92047.44 144747.765 -91998.157 144957.809 -91857.809 145098.157 -91647.765 145147.44 -91400 145147.44 -89800 145098.157 -89552.235 144957.809 -89342.191 144747.765 -89201.843 144500 -89152.56 142900 -89152.56 142652.235 -89201.843 142442.191 -89342.191 142301.843 -89552.235 142252.56 -89800 120090 -89800 120090 -87385.75 120515 -87385.75 120515 -88076.309 120611.673 -88309.698 120790.301 -88488.327 121023.69 -88585 121714.25 -88585 121873 -88426.25 121873 -87227 120673.75 -87227 120515 -87385.75 120090 -87385.75 120090 -86123.691 120515 -86123.691 120515 -86814.25 120673.75 -86973 121873 -86973 121873 -85773.75 122127 -85773.75 122127 -86973 122147 -86973 122147 -87227 122127 -87227 122127 -88426.25 122285.75 -88585 122976.31 -88585 123209.699 -88488.327 123388.327 -88309.698 123454.904 -88148.967 123469.375 -88170.625 123960.582 -88498.839 124393.744 -88585 124686.256 -88585 125119.418 -88498.839 125610.625 -88170.625 125938.839 -87679.418 126054.092 -87100 126845.908 -87100 126961.161 -87679.418 127289.375 -88170.625 127780.582 -88498.839 128213.744 -88585 128506.256 -88585 128939.418 -88498.839 129430.625 -88170.625 129445.096 -88148.967 129511.673 -88309.698 129690.301 -88488.327 129923.69 -88585 130614.25 -88585 130773 -88426.25 130773 -87227 131027 -87227 131027 -88426.25 131185.75 -88585 131876.31 -88585 132109.699 -88488.327 132288.327 -88309.698 132371.978 -88107.745 142871.861 -88107.745 142945.995 -88353.864 143483.223 -88546.965 144053.454 -88519.778 144454.005 -88353.864 144528.139 -88107.745 143700 -87279.605 142871.861 -88107.745 132371.978 -88107.745 132385 -88076.309 132385 -87385.75 132226.25 -87227 131027 -87227 130773 -87227 130753 -87227 130753 -86973 130773 -86973 130773 -85773.75 131027 -85773.75 131027 -86973 132226.25 -86973 132316.027 -86883.223 142253.035 -86883.223 142280.222 -87453.454 142446.136 -87854.005 142692.255 -87928.139 143520.395 -87100 143879.605 -87100 144707.745 -87928.139 144953.864 -87854.005 145146.965 -87316.777 145119.778 -86746.546 144953.864 -86345.995 144707.745 -86271.861 143879.605 -87100 143520.395 -87100 142692.255 -86271.861 142446.136 -86345.995 142253.035 -86883.223 132316.027 -86883.223 132385 -86814.25 132385 -86123.691 132371.979 -86092.255 142871.861 -86092.255 143700 -86920.395 144528.139 -86092.255 144454.005 -85846.136 143916.777 -85653.035 143346.546 -85680.222 142945.995 -85846.136 142871.861 -86092.255 132371.979 -86092.255 132288.327 -85890.302 132109.699 -85711.673 131876.31 -85615 131185.75 -85615 131027 -85773.75 130773 -85773.75 130614.25 -85615 129923.69 -85615 129690.301 -85711.673 129511.673 -85890.302 129445.096 -86051.033 129430.625 -86029.375 128939.418 -85701.161 128506.256 -85615 128213.744 -85615 127780.582 -85701.161 127289.375 -86029.375 126961.161 -86520.582 126845.908 -87100 126054.092 -87100 125938.839 -86520.582 125610.625 -86029.375 125119.418 -85701.161 124686.256 -85615 124393.744 -85615 123960.582 -85701.161 123469.375 -86029.375 123454.904 -86051.033 123388.327 -85890.302 123209.699 -85711.673 122976.31 -85615 122285.75 -85615 122127 -85773.75 121873 -85773.75 121714.25 -85615 121023.69 -85615 120790.301 -85711.673 120611.673 -85890.302 120515 -86123.691 120090 -86123.691 120090 -84530 175820 -84530 175820.001 -106553 175820.001 -106553"/><path d="M 175820.001 -106553 166370 -106553 166321.399 -106562.667 166280.197 -106590.197 166252.667 -106631.399 166243 -106680 166243 -112903 165993.199 -112903 165900.819 -112727 164707 -112727 164707 -112747 164453 -112747 164453 -112727 162167 -112727 162167 -112747 161913 -112747 161913 -112727 159627 -112727 159627 -112747 159373 -112747 159373 -112727 157087 -112727 157087 -112747 156833 -112747 156833 -112727 154547 -112727 154547 -112747 154293 -112747 154293 -112727 152007 -112727 152007 -112747 151753 -112747 151753 -112727 149467 -112727 149467 -112747 149213 -112747 149213 -112727 146927 -112727 146927 -112747 146673 -112747 146673 -112727 145473.75 -112727 145315 -112885.75 145315 -112903 144085 -112903 144085 -112885.75 143926.25 -112727 142727 -112727 142727 -112747 142473 -112747 142473 -112727 140187 -112727 140187 -112747 139933 -112747 139933 -112727 137647 -112727 137647 -112747 137393 -112747 137393 -112727 135107 -112727 135107 -112747 134853 -112747 134853 -112727 132567 -112727 132567 -112747 132313 -112747 132313 -112727 130027 -112727 130027 -112747 129773 -112747 129773 -112727 127487 -112727 127487 -112747 127233 -112747 127233 -112727 124947 -112727 124947 -112747 124693 -112747 124693 -112727 123499.181 -112727 123406.801 -112903 120090 -112903 120090 -112243.108 123378.514 -112243.108 123499.181 -112473 124693 -112473 124693 -111279.845 124947 -111279.845 124947 -112473 127233 -112473 127233 -111279.845 127487 -111279.845 127487 -112473 129773 -112473 129773 -111279.845 130027 -111279.845 130027 -112473 132313 -112473 132313 -111279.845 132567 -111279.845 132567 -112473 134853 -112473 134853 -111279.845 135107 -111279.845 135107 -112473 137393 -112473 137393 -111279.845 137647 -111279.845 137647 -112473 139933 -112473 139933 -111279.845 140187 -111279.845 140187 -112473 142473 -112473 142473 -111273.75 142727 -111273.75 142727 -112473 143926.25 -112473 144085 -112314.25 144085 -111623.691 145315 -111623.691 145315 -112314.25 145473.75 -112473 146673 -112473 146673 -111273.75 146927 -111273.75 146927 -112473 149213 -112473 149213 -111279.845 149467 -111279.845 149467 -112473 151753 -112473 151753 -111279.845 152007 -111279.845 152007 -112473 154293 -112473 154293 -111279.845 154547 -111279.845 154547 -112473 156833 -112473 156833 -111279.845 157087 -111279.845 157087 -112473 159373 -112473 159373 -111279.845 159627 -111279.845 159627 -112473 161913 -112473 161913 -111279.845 162167 -111279.845 162167 -112473 164453 -112473 164453 -111279.845 164707 -111279.845 164707 -112473 165900.819 -112473 166021.486 -112243.108 165775.183 -111718.642 165346.924 -111328.355 164936.89 -111158.524 164707 -111279.845 164453 -111279.845 164223.11 -111158.524 163813.076 -111328.355 163384.817 -111718.642 163310 -111877.954 163235.183 -111718.642 162806.924 -111328.355 162396.89 -111158.524 162167 -111279.845 161913 -111279.845 161683.11 -111158.524 161273.076 -111328.355 160844.817 -111718.642 160770 -111877.954 160695.183 -111718.642 160266.924 -111328.355 159856.89 -111158.524 159627 -111279.845 159373 -111279.845 159143.11 -111158.524 158733.076 -111328.355 158304.817 -111718.642 158230 -111877.954 158155.183 -111718.642 157726.924 -111328.355 157316.89 -111158.524 157087 -111279.845 156833 -111279.845 156603.11 -111158.524 156193.076 -111328.355 155764.817 -111718.642 155690 -111877.954 155615.183 -111718.642 155186.924 -111328.355 154776.89 -111158.524 154547 -111279.845 154293 -111279.845 154063.11 -111158.524 153653.076 -111328.355 153224.817 -111718.642 153150 -111877.954 153075.183 -111718.642 152646.924 -111328.355 152236.89 -111158.524 152007 -111279.845 151753 -111279.845 151523.11 -111158.524 151113.076 -111328.355 150684.817 -111718.642 150610 -111877.954 150535.183 -111718.642 150106.924 -111328.355 149696.89 -111158.524 149467 -111279.845 149213 -111279.845 148983.11 -111158.524 148573.076 -111328.355 148275.136 -111599.878 148188.327 -111390.302 148009.699 -111211.673 147776.31 -111115 147085.75 -111115 146927 -111273.75 146673 -111273.75 146514.25 -111115 145823.69 -111115 145590.301 -111211.673 145411.673 -111390.302 145315 -111623.691 144085 -111623.691 143988.327 -111390.302 143809.699 -111211.673 143576.31 -111115 142885.75 -111115 142727 -111273.75 142473 -111273.75 142314.25 -111115 141623.69 -111115 141390.301 -111211.673 141211.673 -111390.302 141124.864 -111599.878 140826.924 -111328.355 140416.89 -111158.524 140187 -111279.845 139933 -111279.845 139703.11 -111158.524 139293.076 -111328.355 138864.817 -111718.642 138790 -111877.954 138715.183 -111718.642 138286.924 -111328.355 137876.89 -111158.524 137647 -111279.845 137393 -111279.845 137163.11 -111158.524 136753.076 -111328.355 136324.817 -111718.642 136250 -111877.954 136175.183 -111718.642 135746.924 -111328.355 135336.89 -111158.524 135107 -111279.845 134853 -111279.845 134623.11 -111158.524 134213.076 -111328.355 133784.817 -111718.642 133710 -111877.954 133635.183 -111718.642 133206.924 -111328.355 132796.89 -111158.524 132567 -111279.845 132313 -111279.845 132083.11 -111158.524 131673.076 -111328.355 131244.817 -111718.642 131170 -111877.954 131095.183 -111718.642 130666.924 -111328.355 130256.89 -111158.524 130027 -111279.845 129773 -111279.845 129543.11 -111158.524 129133.076 -111328.355 128704.817 -111718.642 128630 -111877.954 128555.183 -111718.642 128126.924 -111328.355 127716.89 -111158.524 127487 -111279.845 127233 -111279.845 127003.11 -111158.524 126593.076 -111328.355 126164.817 -111718.642 126090 -111877.954 126015.183 -111718.642 125586.924 -111328.355 125176.89 -111158.524 124947 -111279.845 124693 -111279.845 124463.11 -111158.524 124053.076 -111328.355 123624.817 -111718.642 123378.514 -112243.108 120090 -112243.108 120090 -108285.75 150815 -108285.75 150815 -108976.31 150911.673 -109209.699 151090.302 -109388.327 151323.691 -109485 152014.25 -109485 152173 -109326.25 152173 -108127 152427 -108127 152427 -109326.25 152585.75 -109485 153276.309 -109485 153509.698 -109388.327 153688.327 -109209.699 153785 -108976.31 153785 -108285.75 153626.25 -108127 152427 -108127 152173 -108127 150973.75 -108127 150815 -108285.75 120090 -108285.75 120090 -106254.343 126565 -106254.343 126565 -106745.657 126753.018 -107199.571 127100.429 -107546.982 127554.343 -107735 128045.657 -107735 128499.571 -107546.982 128846.982 -107199.571 129035 -106745.657 129035 -106254.343 128846.982 -105800.429 128685 -105638.447 128685 -103066.577 130291.577 -101460 132085.908 -101460 132201.161 -102039.418 132529.375 -102530.625 132547.619 -102542.816 132502.235 -102551.843 132292.191 -102692.191 132151.843 -102902.235 132102.56 -103150 132102.56 -104850 132151.843 -105097.765 132292.191 -105307.809 132502.235 -105448.157 132750 -105497.44 134450 -105497.44 134638.225 -105460 150785.908 -105460 150901.161 -106039.418 151229.375 -106530.625 151251.033 -106545.096 151090.302 -106611.673 150911.673 -106790.301 150815 -107023.69 150815 -107714.25 150973.75 -107873 152173 -107873 152173 -107853 152427 -107853 152427 -107873 153626.25 -107873 153785 -107714.25 153785 -107023.69 153688.327 -106790.301 153509.698 -106611.673 153348.967 -106545.096 153370.625 -106530.625 153698.839 -106039.418 153814.092 -105460 153698.839 -104880.582 153370.625 -104389.375 152879.418 -104061.161 152446.256 -103975 152153.744 -103975 151720.582 -104061.161 151229.375 -104389.375 150901.161 -104880.582 150785.908 -105460 134638.225 -105460 134697.765 -105448.157 134907.809 -105307.809 135048.157 -105097.765 135097.44 -104850 135097.44 -103150 135048.157 -102902.235 134907.809 -102692.191 134697.765 -102551.843 134652.381 -102542.816 134670.625 -102530.625 134888.639 -102204.343 153565.002 -102204.343 153565.002 -102695.657 153753.02 -103149.571 154100.431 -103496.982 154554.345 -103685 155045.659 -103685 155499.573 -103496.982 155846.984 -103149.571 156035.002 -102695.657 156035.002 -102204.343 155846.984 -101750.429 155685.002 -101588.447 155685.002 -101316.576 158034.608 -98966.97 157967.3 -99129.467 157967.3 -99483.133 158057.129 -99700 157967.3 -99916.867 157967.3 -100270.533 158102.642 -100597.278 158352.722 -100847.358 158679.467 -100982.7 159033.133 -100982.7 159250 -100892.871 159466.867 -100982.7 159820.533 -100982.7 160147.278 -100847.358 160397.358 -100597.278 160532.7 -100270.533 160532.7 -99916.867 160442.871 -99700 160527.001 -99496.89 163058.524 -99496.89 163228.355 -99906.924 163618.642 -100335.183 164143.108 -100581.486 164373 -100460.819 164373 -99267 164627 -99267 164627 -100460.819 164856.892 -100581.486 165381.358 -100335.183 165771.645 -99906.924 165941.476 -99496.89 167358.524 -99496.89 167528.355 -99906.924 167918.642 -100335.183 168443.108 -100581.486 168673 -100460.819 168673 -99267 168927 -99267 168927 -100460.819 169156.892 -100581.486 169681.358 -100335.183 170071.645 -99906.924 170241.476 -99496.89 170120.155 -99267 168927 -99267 168673 -99267 167479.845 -99267 167358.524 -99496.89 165941.476 -99496.89 165820.155 -99267 164627 -99267 164373 -99267 163179.845 -99267 163058.524 -99496.89 160527.001 -99496.89 160532.7 -99483.133 160532.7 -99129.467 160397.358 -98802.722 160147.278 -98552.642 159820.533 -98417.3 159466.867 -98417.3 159250 -98507.129 159033.133 -98417.3 158679.467 -98417.3 158516.97 -98484.608 161216.579 -95785 161445.657 -95785 161530.154 -95750 163002.56 -95750 163002.56 -97450 163051.843 -97697.765 163192.191 -97907.809 163402.235 -98048.157 163505.708 -98068.739 163228.355 -98373.076 163058.524 -98783.11 163179.845 -99013 164373 -99013 164373 -98993 164627 -98993 164627 -99013 165820.155 -99013 165941.476 -98783.11 165771.645 -98373.076 165494.292 -98068.739 165597.765 -98048.157 165807.809 -97907.809 165948.157 -97697.765 165997.44 -97450 165997.44 -95750 167302.56 -95750 167302.56 -97450 167351.843 -97697.765 167492.191 -97907.809 167702.235 -98048.157 167805.708 -98068.739 167528.355 -98373.076 167358.524 -98783.11 167479.845 -99013 168673 -99013 168673 -98993 168927 -98993 168927 -99013 170120.155 -99013 170241.476 -98783.11 170071.645 -98373.076 169794.292 -98068.739 169897.765 -98048.157 170107.809 -97907.809 170248.157 -97697.765 170297.44 -97450 170297.44 -95750 170248.157 -95502.235 170107.809 -95292.191 169897.765 -95151.843 169650 -95102.56 167950 -95102.56 167702.235 -95151.843 167492.191 -95292.191 167351.843 -95502.235 167302.56 -95750 165997.44 -95750 165948.157 -95502.235 165807.809 -95292.191 165597.765 -95151.843 165350 -95102.56 163650 -95102.56 163402.235 -95151.843 163192.191 -95292.191 163051.843 -95502.235 163002.56 -95750 161530.154 -95750 161899.571 -95596.982 162246.982 -95249.571 162435 -94795.657 162435 -94304.343 162246.982 -93850.429 161899.571 -93503.018 161445.657 -93315 160954.343 -93315 160500.429 -93503.018 160153.018 -93850.429 159965 -94304.343 159965 -94533.421 154235.849 -100262.573 154161.953 -100311.949 153966.35 -100604.689 153915.002 -100862.834 153915.002 -100862.837 153897.665 -100949.998 153915.002 -101037.159 153915.002 -101588.447 153753.02 -101750.429 153565.002 -102204.343 134888.639 -102204.343 134998.839 -102039.418 135114.092 -101460 134998.839 -100880.582 134670.625 -100389.375 134179.418 -100061.161 133746.256 -99975 133453.744 -99975 133020.582 -100061.161 132529.375 -100389.375 132201.161 -100880.582 132085.908 -101460 130291.577 -101460 133615.827 -98135.75 145665 -98135.75 145665 -98826.31 145761.673 -99059.699 145940.302 -99238.327 146173.691 -99335 146864.25 -99335 147023 -99176.25 147023 -97977 147277 -97977 147277 -99176.25 147435.75 -99335 148126.309 -99335 148359.698 -99238.327 148538.327 -99059.699 148635 -98826.31 148635 -98135.75 148476.25 -97977 147277 -97977 147023 -97977 145823.75 -97977 145665 -98135.75 133615.827 -98135.75 136441.577 -95310 145635.908 -95310 145751.161 -95889.418 146079.375 -96380.625 146101.033 -96395.096 145940.302 -96461.673 145761.673 -96640.301 145665 -96873.69 145665 -97564.25 145823.75 -97723 147023 -97723 147023 -97703 147277 -97703 147277 -97723 148476.25 -97723 148635 -97564.25 148635 -96873.69 148538.327 -96640.301 148359.698 -96461.673 148198.967 -96395.096 148220.625 -96380.625 148548.839 -95889.418 148664.092 -95310 148548.839 -94730.582 148220.625 -94239.375 147729.418 -93911.161 147296.256 -93825 147003.744 -93825 146570.582 -93911.161 146079.375 -94239.375 145751.161 -94730.582 145635.908 -95310 136441.577 -95310 137116.578 -94635 137345.656 -94635 137799.57 -94446.982 138146.981 -94099.571 138334.999 -93645.657 138334.999 -93154.343 138146.981 -92700.429 137799.57 -92353.018 137345.656 -92165 136854.342 -92165 136400.428 -92353.018 136053.017 -92700.429 135864.999 -93154.343 135864.999 -93383.421 127235.845 -102012.576 127161.952 -102061.95 127112.578 -102135.843 127112.576 -102135.845 126966.348 -102354.69 126897.663 -102699.999 126915.001 -102787.164 126915 -105638.447 126753.018 -105800.429 126565 -106254.343 120090 -106254.343 120090 -89800 142252.56 -89800 142252.56 -91400 142301.843 -91647.765 142442.191 -91857.809 142652.235 -91998.157 142900 -92047.44 144500 -92047.44 144747.765 -91998.157 144957.809 -91857.809 145098.157 -91647.765 145147.44 -91400 145147.44 -89800 145098.157 -89552.235 144957.809 -89342.191 144747.765 -89201.843 144500 -89152.56 142900 -89152.56 142652.235 -89201.843 142442.191 -89342.191 142301.843 -89552.235 142252.56 -89800 120090 -89800 120090 -87385.75 120515 -87385.75 120515 -88076.309 120611.673 -88309.698 120790.301 -88488.327 121023.69 -88585 121714.25 -88585 121873 -88426.25 121873 -87227 120673.75 -87227 120515 -87385.75 120090 -87385.75 120090 -86123.691 120515 -86123.691 120515 -86814.25 120673.75 -86973 121873 -86973 121873 -85773.75 122127 -85773.75 122127 -86973 122147 -86973 122147 -87227 122127 -87227 122127 -88426.25 122285.75 -88585 122976.31 -88585 123209.699 -88488.327 123388.327 -88309.698 123454.904 -88148.967 123469.375 -88170.625 123960.582 -88498.839 124393.744 -88585 124686.256 -88585 125119.418 -88498.839 125610.625 -88170.625 125938.839 -87679.418 126054.092 -87100 126845.908 -87100 126961.161 -87679.418 127289.375 -88170.625 127780.582 -88498.839 128213.744 -88585 128506.256 -88585 128939.418 -88498.839 129430.625 -88170.625 129445.096 -88148.967 129511.673 -88309.698 129690.301 -88488.327 129923.69 -88585 130614.25 -88585 130773 -88426.25 130773 -87227 131027 -87227 131027 -88426.25 131185.75 -88585 131876.31 -88585 132109.699 -88488.327 132288.327 -88309.698 132371.978 -88107.745 142871.861 -88107.745 142945.995 -88353.864 143483.223 -88546.965 144053.454 -88519.778 144454.005 -88353.864 144528.139 -88107.745 143700 -87279.605 142871.861 -88107.745 132371.978 -88107.745 132385 -88076.309 132385 -87385.75 132226.25 -87227 131027 -87227 130773 -87227 130753 -87227 130753 -86973 130773 -86973 130773 -85773.75 131027 -85773.75 131027 -86973 132226.25 -86973 132316.027 -86883.223 142253.035 -86883.223 142280.222 -87453.454 142446.136 -87854.005 142692.255 -87928.139 143520.395 -87100 143879.605 -87100 144707.745 -87928.139 144953.864 -87854.005 145146.965 -87316.777 145119.778 -86746.546 144953.864 -86345.995 144707.745 -86271.861 143879.605 -87100 143520.395 -87100 142692.255 -86271.861 142446.136 -86345.995 142253.035 -86883.223 132316.027 -86883.223 132385 -86814.25 132385 -86123.691 132371.979 -86092.255 142871.861 -86092.255 143700 -86920.395 144528.139 -86092.255 144454.005 -85846.136 143916.777 -85653.035 143346.546 -85680.222 142945.995 -85846.136 142871.861 -86092.255 132371.979 -86092.255 132288.327 -85890.302 132109.699 -85711.673 131876.31 -85615 131185.75 -85615 131027 -85773.75 130773 -85773.75 130614.25 -85615 129923.69 -85615 129690.301 -85711.673 129511.673 -85890.302 129445.096 -86051.033 129430.625 -86029.375 128939.418 -85701.161 128506.256 -85615 128213.744 -85615 127780.582 -85701.161 127289.375 -86029.375 126961.161 -86520.582 126845.908 -87100 126054.092 -87100 125938.839 -86520.582 125610.625 -86029.375 125119.418 -85701.161 124686.256 -85615 124393.744 -85615 123960.582 -85701.161 123469.375 -86029.375 123454.904 -86051.033 123388.327 -85890.302 123209.699 -85711.673 122976.31 -85615 122285.75 -85615 122127 -85773.75 121873 -85773.75 121714.25 -85615 121023.69 -85615 120790.301 -85711.673 120611.673 -85890.302 120515 -86123.691 120090 -86123.691 120090 -84530 175820 -84530 175820.001 -106553" fill="none" stroke-width="254"/></g></svg>