<svg version="1.1" xmlns="http://www.w3.org/2000/svg" xmlns:xlink="http://www.w3.org/1999/xlink" stroke-linecap="round" stroke-linejoin="round" stroke-width="0" fill-rule="evenodd" width="52.452mm" height="32.302mm" viewBox="121099 -117401 52452 32302" id="svGY5lnrG8OhyF6eDQCU"><g transform="translate(0,-202500) scale(1,-1)" fill="currentColor" stroke="currentColor"><path d="M 158161.5 -98611.5 160338.5 -98611.5 160338.5 -99106.3 158161.5 -99106.3 158161.5 -98611.5 M 158161.5 -99506.3 160338.5 -99506.3 160338.5 -99893.7 158161.5 -99893.7 158161.5 -99506.3 M 158161.5 -100293.7 160338.5 -100293.7 160338.5 -100788.5 158161.5 -100788.5 158161.5 -100293.7 M 158161.5 -98611.5 158656.3 -98611.5 158656.3 -100788.5 158161.5 -100788.5 158161.5 -98611.5 M 159443.7 -98611.5 159056.3 -98611.5 159056.3 -100788.5 159443.7 -100788.5 159443.7 -98611.5 M 159843.7 -98611.5 160338.5 -98611.5 160338.5 -100788.5 159843.7 -100788.5 159843.7 -98611.5" fill="none" stroke-width="152.4"/><path d="M 127470.443 -115605.519 127536.627 -115612.037 127649.853 -115646.384 127706.467 -115663.557 127845.087 -115737.652 127862.991 -115747.222 127898.729 -115776.552 128000.186 -115859.814 128083.448 -115961.271 128112.778 -115997.009 128112.779 -115997.011 128196.443 -116153.533 128196.443 -116153.534 128247.963 -116323.373 128265.359 -116500 128247.963 -116676.627 128213.616 -116789.853 128196.443 -116846.467 128122.348 -116985.087 128112.778 -117002.991 128083.448 -117038.729 128000.186 -117140.186 127898.729 -117223.448 127862.991 -117252.778 127862.989 -117252.779 127706.467 -117336.443 127649.853 -117353.616 127536.627 -117387.963 127470.442 -117394.482 127404.26 -117401 127315.74 -117401 127249.558 -117394.482 127183.373 -117387.963 127070.147 -117353.616 127013.533 -117336.443 126857.011 -117252.779 126857.009 -117252.778 126821.271 -117223.448 126719.814 -117140.186 126636.552 -117038.729 126607.222 -117002.991 126597.652 -116985.087 126523.557 -116846.467 126506.384 -116789.853 126472.037 -116676.627 126454.641 -116500 126472.037 -116323.373 126523.557 -116153.534 126523.557 -116153.533 126607.221 -115997.011 126607.222 -115997.009 126636.552 -115961.271 126719.814 -115859.814 126821.271 -115776.552 126857.009 -115747.222 126874.913 -115737.652 127013.533 -115663.557 127070.147 -115646.384 127183.373 -115612.037 127249.557 -115605.519 127315.74 -115599 127404.26 -115599 127470.443 -115605.519 127470.443 -115605.519"/><path d="M 164690.443 -115605.519 164756.627 -115612.037 164869.853 -115646.384 164926.467 -115663.557 165065.087 -115737.652 165082.991 -115747.222 165118.729 -115776.552 165220.186 -115859.814 165303.448 -115961.271 165332.778 -115997.009 165332.779 -115997.011 165416.443 -116153.533 165416.443 -116153.534 165467.963 -116323.373 165485.359 -116500 165467.963 -116676.627 165433.616 -116789.853 165416.443 -116846.467 165342.348 -116985.087 165332.778 -117002.991 165303.448 -117038.729 165220.186 -117140.186 165118.729 -117223.448 165082.991 -117252.778 165082.989 -117252.779 164926.467 -117336.443 164869.853 -117353.616 164756.627 -117387.963 164690.442 -117394.482 164624.26 -117401 164535.74 -117401 164469.558 -117394.482 164403.373 -117387.963 164290.147 -117353.616 164233.533 -117336.443 164077.011 -117252.779 164077.009 -117252.778 164041.271 -117223.448 163939.814 -117140.186 163856.552 -117038.729 163827.222 -117002.991 163817.652 -116985.087 163743.557 -116846.467 163726.384 -116789.853 163692.037 -116676.627 163674.641 -116500 163692.037 -116323.373 163743.557 -116153.534 163743.557 -116153.533 163827.221 -115997.011 163827.222 -115997.009 163856.552 -115961.271 163939.814 -115859.814 164041.271 -115776.552 164077.009 -115747.222 164094.913 -115737.652 164233.533 -115663.557 164290.147 -115646.384 164403.373 -115612.037 164469.557 -115605.519 164535.74 -115599 164624.26 -115599 164690.443 -115605.519 164690.443 -115605.519"/><path d="M 147701 -117401 145899 -117401 145899 -115599 147701 -115599 147701 -117401 147701 -117401"/><path d="M 149450.443 -115605.519 149516.627 -115612.037 149629.853 -115646.384 149686.467 -115663.557 149825.087 -115737.652 149842.991 -115747.222 149878.729 -115776.552 149980.186 -115859.814 150063.448 -115961.271 150092.778 -115997.009 150092.779 -115997.011 150176.443 -116153.533 150176.443 -116153.534 150227.963 -116323.373 150245.359 -116500 150227.963 -116676.627 150193.616 -116789.853 150176.443 -116846.467 150102.348 -116985.087 150092.778 -117002.991 150063.448 -117038.729 149980.186 -117140.186 149878.729 -117223.448 149842.991 -117252.778 149842.989 -117252.779 149686.467 -117336.443 149629.853 -117353.616 149516.627 -117387.963 149450.442 -117394.482 149384.26 -117401 149295.74 -117401 149229.558 -117394.482 149163.373 -117387.963 149050.147 -117353.616 148993.533 -117336.443 148837.011 -117252.779 148837.009 -117252.778 148801.271 -117223.448 148699.814 -117140.186 148616.552 -117038.729 148587.222 -117002.991 148577.652 -116985.087 148503.557 -116846.467 148486.384 -116789.853 148452.037 -116676.627 148434.641 -116500 148452.037 -116323.373 148503.557 -116153.534 148503.557 -116153.533 148587.221 -115997.011 148587.222 -115997.009 148616.552 -115961.271 148699.814 -115859.814 148801.271 -115776.552 148837.009 -115747.222 148854.913 -115737.652 148993.533 -115663.557 149050.147 -115646.384 149163.373 -115612.037 149229.557 -115605.519 149295.74 -115599 149384.26 -115599 149450.443 -115605.519 149450.443 -115605.519"/><path d="M 151990.443 -115605.519 152056.627 -115612.037 152169.853 -115646.384 152226.467 -115663.557 152365.087 -115737.652 152382.991 -115747.222 152418.729 -115776.552 152520.186 -115859.814 152603.448 -115961.271 152632.778 -115997.009 152632.779 -115997.011 152716.443 -116153.533 152716.443 -116153.534 152767.963 -116323.373 152785.359 -116500 152767.963 -116676.627 152733.616 -116789.853 152716.443 -116846.467 152642.348 -116985.087 152632.778 -117002.991 152603.448 -117038.729 152520.186 -117140.186 152418.729 -117223.448 152382.991 -117252.778 152382.989 -117252.779 152226.467 -117336.443 152169.853 -117353.616 152056.627 -117387.963 151990.442 -117394.482 151924.26 -117401 151835.74 -117401 151769.558 -117394.482 151703.373 -117387.963 151590.147 -117353.616 151533.533 -117336.443 151377.011 -117252.779 151377.009 -117252.778 151341.271 -117223.448 151239.814 -117140.186 151156.552 -117038.729 151127.222 -117002.991 151117.652 -116985.087 151043.557 -116846.467 151026.384 -116789.853 150992.037 -116676.627 150974.641 -116500 150992.037 -116323.373 151043.557 -116153.534 151043.557 -116153.533 151127.221 -115997.011 151127.222 -115997.009 151156.552 -115961.271 151239.814 -115859.814 151341.271 -115776.552 151377.009 -115747.222 151394.913 -115737.652 151533.533 -115663.557 151590.147 -115646.384 151703.373 -115612.037 151769.557 -115605.519 151835.74 -115599 151924.26 -115599 151990.443 -115605.519 151990.443 -115605.519"/><path d="M 154530.443 -115605.519 154596.627 -115612.037 154709.853 -115646.384 154766.467 -115663.557 154905.087 -115737.652 154922.991 -115747.222 154958.729 -115776.552 155060.186 -115859.814 155143.448 -115961.271 155172.778 -115997.009 155172.779 -115997.011 155256.443 -116153.533 155256.443 -116153.534 155307.963 -116323.373 155325.359 -116500 155307.963 -116676.627 155273.616 -116789.853 155256.443 -116846.467 155182.348 -116985.087 155172.778 -117002.991 155143.448 -117038.729 155060.186 -117140.186 154958.729 -117223.448 154922.991 -117252.778 154922.989 -117252.779 154766.467 -117336.443 154709.853 -117353.616 154596.627 -117387.963 154530.442 -117394.482 154464.26 -117401 154375.74 -117401 154309.558 -117394.482 154243.373 -117387.963 154130.147 -117353.616 154073.533 -117336.443 153917.011 -117252.779 153917.009 -117252.778 153881.271 -117223.448 153779.814 -117140.186 153696.552 -117038.729 153667.222 -117002.991 153657.652 -116985.087 153583.557 -116846.467 153566.384 -116789.853 153532.037 -116676.627 153514.641 -116500 153532.037 -116323.373 153583.557 -116153.534 153583.557 -116153.533 153667.221 -115997.011 153667.222 -115997.009 153696.552 -115961.271 153779.814 -115859.814 153881.271 -115776.552 153917.009 -115747.222 153934.913 -115737.652 154073.533 -115663.557 154130.147 -115646.384 154243.373 -115612.037 154309.557 -115605.519 154375.74 -115599 154464.26 -115599 154530.443 -115605.519 154530.443 -115605.519"/><path d="M 157070.443 -115605.519 157136.627 -115612.037 157249.853 -115646.384 157306.467 -115663.557 157445.087 -115737.652 157462.991 -115747.222 157498.729 -115776.552 157600.186 -115859.814 157683.448 -115961.271 157712.778 -115997.009 157712.779 -115997.011 157796.443 -116153.533 157796.443 -116153.534 157847.963 -116323.373 157865.359 -116500 157847.963 -116676.627 157813.616 -116789.853 157796.443 -116846.467 157722.348 -116985.087 157712.778 -117002.991 157683.448 -117038.729 157600.186 -117140.186 157498.729 -117223.448 157462.991 -117252.778 157462.989 -117252.779 157306.467 -117336.443 157249.853 -117353.616 157136.627 -117387.963 157070.442 -117394.482 157004.26 -117401 156915.74 -117401 156849.558 -117394.482 156783.373 -117387.963 156670.147 -117353.616 156613.533 -117336.443 156457.011 -117252.779 156457.009 -117252.778 156421.271 -117223.448 156319.814 -117140.186 156236.552 -117038.729 156207.222 -117002.991 156197.652 -116985.087 156123.557 -116846.467 156106.384 -116789.853 156072.037 -116676.627 156054.641 -116500 156072.037 -116323.373 156123.557 -116153.534 156123.557 -116153.533 156207.221 -115997.011 156207.222 -115997.009 156236.552 -115961.271 156319.814 -115859.814 156421.271 -115776.552 156457.009 -115747.222 156474.913 -115737.652 156613.533 -115663.557 156670.147 -115646.384 156783.373 -115612.037 156849.557 -115605.519 156915.74 -115599 157004.26 -115599 157070.443 -115605.519 157070.443 -115605.519"/><path d="M 159610.443 -115605.519 159676.627 -115612.037 159789.853 -115646.384 159846.467 -115663.557 159985.087 -115737.652 160002.991 -115747.222 160038.729 -115776.552 160140.186 -115859.814 160223.448 -115961.271 160252.778 -115997.009 160252.779 -115997.011 160336.443 -116153.533 160336.443 -116153.534 160387.963 -116323.373 160405.359 -116500 160387.963 -116676.627 160353.616 -116789.853 160336.443 -116846.467 160262.348 -116985.087 160252.778 -117002.991 160223.448 -117038.729 160140.186 -117140.186 160038.729 -117223.448 160002.991 -117252.778 160002.989 -117252.779 159846.467 -117336.443 159789.853 -117353.616 159676.627 -117387.963 159610.442 -117394.482 159544.26 -117401 159455.74 -117401 159389.558 -117394.482 159323.373 -117387.963 159210.147 -117353.616 159153.533 -117336.443 158997.011 -117252.779 158997.009 -117252.778 158961.271 -117223.448 158859.814 -117140.186 158776.552 -117038.729 158747.222 -117002.991 158737.652 -116985.087 158663.557 -116846.467 158646.384 -116789.853 158612.037 -116676.627 158594.641 -116500 158612.037 -116323.373 158663.557 -116153.534 158663.557 -116153.533 158747.221 -115997.011 158747.222 -115997.009 158776.552 -115961.271 158859.814 -115859.814 158961.271 -115776.552 158997.009 -115747.222 159014.913 -115737.652 159153.533 -115663.557 159210.147 -115646.384 159323.373 -115612.037 159389.557 -115605.519 159455.74 -115599 159544.26 -115599 159610.443 -115605.519 159610.443 -115605.519"/><path d="M 162150.443 -115605.519 162216.627 -115612.037 162329.853 -115646.384 162386.467 -115663.557 162525.087 -115737.652 162542.991 -115747.222 162578.729 -115776.552 162680.186 -115859.814 162763.448 -115961.271 162792.778 -115997.009 162792.779 -115997.011 162876.443 -116153.533 162876.443 -116153.534 162927.963 -116323.373 162945.359 -116500 162927.963 -116676.627 162893.616 -116789.853 162876.443 -116846.467 162802.348 -116985.087 162792.778 -117002.991 162763.448 -117038.729 162680.186 -117140.186 162578.729 -117223.448 162542.991 -117252.778 162542.989 -117252.779 162386.467 -117336.443 162329.853 -117353.616 162216.627 -117387.963 162150.442 -117394.482 162084.26 -117401 161995.74 -117401 161929.558 -117394.482 161863.373 -117387.963 161750.147 -117353.616 161693.533 -117336.443 161537.011 -117252.779 161537.009 -117252.778 161501.271 -117223.448 161399.814 -117140.186 161316.552 -117038.729 161287.222 -117002.991 161277.652 -116985.087 161203.557 -116846.467 161186.384 -116789.853 161152.037 -116676.627 161134.641 -116500 161152.037 -116323.373 161203.557 -116153.534 161203.557 -116153.533 161287.221 -115997.011 161287.222 -115997.009 161316.552 -115961.271 161399.814 -115859.814 161501.271 -115776.552 161537.009 -115747.222 161554.913 -115737.652 161693.533 -115663.557 161750.147 -115646.384 161863.373 -115612.037 161929.557 -115605.519 161995.74 -115599 162084.26 -115599 162150.443 -115605.519 162150.443 -115605.519"/><path d="M 143501 -117401 141699 -117401 141699 -115599 143501 -115599 143501 -117401 143501 -117401"/><path d="M 140170.443 -115605.519 140236.627 -115612.037 140349.853 -115646.384 140406.467 -115663.557 140545.087 -115737.652 140562.991 -115747.222 140598.729 -115776.552 140700.186 -115859.814 140783.448 -115961.271 140812.778 -115997.009 140812.779 -115997.011 140896.443 -116153.533 140896.443 -116153.534 140947.963 -116323.373 140965.359 -116500 140947.963 -116676.627 140913.616 -116789.853 140896.443 -116846.467 140822.348 -116985.087 140812.778 -117002.991 140783.448 -117038.729 140700.186 -117140.186 140598.729 -117223.448 140562.991 -117252.778 140562.989 -117252.779 140406.467 -117336.443 140349.853 -117353.616 140236.627 -117387.963 140170.442 -117394.482 140104.26 -117401 140015.74 -117401 139949.558 -117394.482 139883.373 -117387.963 139770.147 -117353.616 139713.533 -117336.443 139557.011 -117252.779 139557.009 -117252.778 139521.271 -117223.448 139419.814 -117140.186 139336.552 -117038.729 139307.222 -117002.991 139297.652 -116985.087 139223.557 -116846.467 139206.384 -116789.853 139172.037 -116676.627 139154.641 -116500 139172.037 -116323.373 139223.557 -116153.534 139223.557 -116153.533 139307.221 -115997.011 139307.222 -115997.009 139336.552 -115961.271 139419.814 -115859.814 139521.271 -115776.552 139557.009 -115747.222 139574.913 -115737.652 139713.533 -115663.557 139770.147 -115646.384 139883.373 -115612.037 139949.557 -115605.519 140015.74 -115599 140104.26 -115599 140170.443 -115605.519 140170.443 -115605.519"/><path d="M 137630.443 -115605.519 137696.627 -115612.037 137809.853 -115646.384 137866.467 -115663.557 138005.087 -115737.652 138022.991 -115747.222 138058.729 -115776.552 138160.186 -115859.814 138243.448 -115961.271 138272.778 -115997.009 138272.779 -115997.011 138356.443 -116153.533 138356.443 -116153.534 138407.963 -116323.373 138425.359 -116500 138407.963 -116676.627 138373.616 -116789.853 138356.443 -116846.467 138282.348 -116985.087 138272.778 -117002.991 138243.448 -117038.729 138160.186 -117140.186 138058.729 -117223.448 138022.991 -117252.778 138022.989 -117252.779 137866.467 -117336.443 137809.853 -117353.616 137696.627 -117387.963 137630.442 -117394.482 137564.26 -117401 137475.74 -117401 137409.558 -117394.482 137343.373 -117387.963 137230.147 -117353.616 137173.533 -117336.443 137017.011 -117252.779 137017.009 -117252.778 136981.271 -117223.448 136879.814 -117140.186 136796.552 -117038.729 136767.222 -117002.991 136757.652 -116985.087 136683.557 -116846.467 136666.384 -116789.853 136632.037 -116676.627 136614.641 -116500 136632.037 -116323.373 136683.557 -116153.534 136683.557 -116153.533 136767.221 -115997.011 136767.222 -115997.009 136796.552 -115961.271 136879.814 -115859.814 136981.271 -115776.552 137017.009 -115747.222 137034.913 -115737.652 137173.533 -115663.557 137230.147 -115646.384 137343.373 -115612.037 137409.557 -115605.519 137475.74 -115599 137564.26 -115599 137630.443 -115605.519 137630.443 -115605.519"/><path d="M 135090.443 -115605.519 135156.627 -115612.037 135269.853 -115646.384 135326.467 -115663.557 135465.087 -115737.652 135482.991 -115747.222 135518.729 -115776.552 135620.186 -115859.814 135703.448 -115961.271 135732.778 -115997.009 135732.779 -115997.011 135816.443 -116153.533 135816.443 -116153.534 135867.963 -116323.373 135885.359 -116500 135867.963 -116676.627 135833.616 -116789.853 135816.443 -116846.467 135742.348 -116985.087 135732.778 -117002.991 135703.448 -117038.729 135620.186 -117140.186 135518.729 -117223.448 135482.991 -117252.778 135482.989 -117252.779 135326.467 -117336.443 135269.853 -117353.616 135156.627 -117387.963 135090.442 -117394.482 135024.26 -117401 134935.74 -117401 134869.558 -117394.482 134803.373 -117387.963 134690.147 -117353.616 134633.533 -117336.443 134477.011 -117252.779 134477.009 -117252.778 134441.271 -117223.448 134339.814 -117140.186 134256.552 -117038.729 134227.222 -117002.991 134217.652 -116985.087 134143.557 -116846.467 134126.384 -116789.853 134092.037 -116676.627 134074.641 -116500 134092.037 -116323.373 134143.557 -116153.534 134143.557 -116153.533 134227.221 -115997.011 134227.222 -115997.009 134256.552 -115961.271 134339.814 -115859.814 134441.271 -115776.552 134477.009 -115747.222 134494.913 -115737.652 134633.533 -115663.557 134690.147 -115646.384 134803.373 -115612.037 134869.557 -115605.519 134935.74 -115599 135024.26 -115599 135090.443 -115605.519 135090.443 -115605.519"/><path d="M 132550.443 -115605.519 132616.627 -115612.037 132729.853 -115646.384 132786.467 -115663.557 132925.087 -115737.652 132942.991 -115747.222 132978.729 -115776.552 133080.186 -115859.814 133163.448 -115961.271 133192.778 -115997.009 133192.779 -115997.011 133276.443 -116153.533 133276.443 -116153.534 133327.963 -116323.373 133345.359 -116500 133327.963 -116676.627 133293.616 -116789.853 133276.443 -116846.467 133202.348 -116985.087 133192.778 -117002.991 133163.448 -117038.729 133080.186 -117140.186 132978.729 -117223.448 132942.991 -117252.778 132942.989 -117252.779 132786.467 -117336.443 132729.853 -117353.616 132616.627 -117387.963 132550.442 -117394.482 132484.26 -117401 132395.74 -117401 132329.558 -117394.482 132263.373 -117387.963 132150.147 -117353.616 132093.533 -117336.443 131937.011 -117252.779 131937.009 -117252.778 131901.271 -117223.448 131799.814 -117140.186 131716.552 -117038.729 131687.222 -117002.991 131677.652 -116985.087 131603.557 -116846.467 131586.384 -116789.853 131552.037 -116676.627 131534.641 -116500 131552.037 -116323.373 131603.557 -116153.534 131603.557 -116153.533 131687.221 -115997.011 131687.222 -115997.009 131716.552 -115961.271 131799.814 -115859.814 131901.271 -115776.552 131937.009 -115747.222 131954.913 -115737.652 132093.533 -115663.557 132150.147 -115646.384 132263.373 -115612.037 132329.557 -115605.519 132395.74 -115599 132484.26 -115599 132550.443 -115605.519 132550.443 -115605.519"/><path d="M 130010.443 -115605.519 130076.627 -115612.037 130189.853 -115646.384 130246.467 -115663.557 130385.087 -115737.652 130402.991 -115747.222 130438.729 -115776.552 130540.186 -115859.814 130623.448 -115961.271 130652.778 -115997.009 130652.779 -115997.011 130736.443 -116153.533 130736.443 -116153.534 130787.963 -116323.373 130805.359 -116500 130787.963 -116676.627 130753.616 -116789.853 130736.443 -116846.467 130662.348 -116985.087 130652.778 -117002.991 130623.448 -117038.729 130540.186 -117140.186 130438.729 -117223.448 130402.991 -117252.778 130402.989 -117252.779 130246.467 -117336.443 130189.853 -117353.616 130076.627 -117387.963 130010.442 -117394.482 129944.26 -117401 129855.74 -117401 129789.558 -117394.482 129723.373 -117387.963 129610.147 -117353.616 129553.533 -117336.443 129397.011 -117252.779 129397.009 -117252.778 129361.271 -117223.448 129259.814 -117140.186 129176.552 -117038.729 129147.222 -117002.991 129137.652 -116985.087 129063.557 -116846.467 129046.384 -116789.853 129012.037 -116676.627 128994.641 -116500 129012.037 -116323.373 129063.557 -116153.534 129063.557 -116153.533 129147.221 -115997.011 129147.222 -115997.009 129176.552 -115961.271 129259.814 -115859.814 129361.271 -115776.552 129397.009 -115747.222 129414.913 -115737.652 129553.533 -115663.557 129610.147 -115646.384 129723.373 -115612.037 129789.557 -115605.519 129855.74 -115599 129944.26 -115599 130010.443 -115605.519 130010.443 -115605.519"/><path d="M 124930.443 -115605.519 124996.627 -115612.037 125109.853 -115646.384 125166.467 -115663.557 125305.087 -115737.652 125322.991 -115747.222 125358.729 -115776.552 125460.186 -115859.814 125543.448 -115961.271 125572.778 -115997.009 125572.779 -115997.011 125656.443 -116153.533 125656.443 -116153.534 125707.963 -116323.373 125725.359 -116500 125707.963 -116676.627 125673.616 -116789.853 125656.443 -116846.467 125582.348 -116985.087 125572.778 -117002.991 125543.448 -117038.729 125460.186 -117140.186 125358.729 -117223.448 125322.991 -117252.778 125322.989 -117252.779 125166.467 -117336.443 125109.853 -117353.616 124996.627 -117387.963 124930.442 -117394.482 124864.26 -117401 124775.74 -117401 124709.558 -117394.482 124643.373 -117387.963 124530.147 -117353.616 124473.533 -117336.443 124317.011 -117252.779 124317.009 -117252.778 124281.271 -117223.448 124179.814 -117140.186 124096.552 -117038.729 124067.222 -117002.991 124057.652 -116985.087 123983.557 -116846.467 123966.384 -116789.853 123932.037 -116676.627 123914.641 -116500 123932.037 -116323.373 123983.557 -116153.534 123983.557 -116153.533 124067.221 -115997.011 124067.222 -115997.009 124096.552 -115961.271 124179.814 -115859.814 124281.271 -115776.552 124317.009 -115747.222 124334.913 -115737.652 124473.533 -115663.557 124530.147 -115646.384 124643.373 -115612.037 124709.557 -115605.519 124775.74 -115599 124864.26 -115599 124930.443 -115605.519 124930.443 -115605.519"/><path d="M 137630.442 -111705.518 137696.627 -111712.037 137809.853 -111746.384 137866.467 -111763.557 138005.087 -111837.652 138022.991 -111847.222 138058.729 -111876.552 138160.186 -111959.814 138243.448 -112061.271 138272.778 -112097.009 138272.779 -112097.011 138356.443 -112253.533 138356.443 -112253.534 138407.963 -112423.373 138425.359 -112600 138407.963 -112776.627 138373.616 -112889.853 138356.443 -112946.467 138282.348 -113085.087 138272.778 -113102.991 138243.448 -113138.729 138160.186 -113240.186 138058.729 -113323.448 138022.991 -113352.778 138022.989 -113352.779 137866.467 -113436.443 137809.853 -113453.616 137696.627 -113487.963 137630.442 -113494.482 137564.26 -113501 137475.74 -113501 137409.558 -113494.482 137343.373 -113487.963 137230.147 -113453.616 137173.533 -113436.443 137017.011 -113352.779 137017.009 -113352.778 136981.271 -113323.448 136879.814 -113240.186 136796.552 -113138.729 136767.222 -113102.991 136757.652 -113085.087 136683.557 -112946.467 136666.384 -112889.853 136632.037 -112776.627 136614.641 -112600 136632.037 -112423.373 136683.557 -112253.534 136683.557 -112253.533 136767.221 -112097.011 136767.222 -112097.009 136796.552 -112061.271 136879.814 -111959.814 136981.271 -111876.552 137017.009 -111847.222 137034.913 -111837.652 137173.533 -111763.557 137230.147 -111746.384 137343.373 -111712.037 137409.558 -111705.518 137475.74 -111699 137564.26 -111699 137630.442 -111705.518 137630.442 -111705.518"/><path d="M 135090.442 -111705.518 135156.627 -111712.037 135269.853 -111746.384 135326.467 -111763.557 135465.087 -111837.652 135482.991 -111847.222 135518.729 -111876.552 135620.186 -111959.814 135703.448 -112061.271 135732.778 -112097.009 135732.779 -112097.011 135816.443 -112253.533 135816.443 -112253.534 135867.963 -112423.373 135885.359 -112600 135867.963 -112776.627 135833.616 -112889.853 135816.443 -112946.467 135742.348 -113085.087 135732.778 -113102.991 135703.448 -113138.729 135620.186 -113240.186 135518.729 -113323.448 135482.991 -113352.778 135482.989 -113352.779 135326.467 -113436.443 135269.853 -113453.616 135156.627 -113487.963 135090.442 -113494.482 135024.26 -113501 134935.74 -113501 134869.558 -113494.482 134803.373 -113487.963 134690.147 -113453.616 134633.533 -113436.443 134477.011 -113352.779 134477.009 -113352.778 134441.271 -113323.448 134339.814 -113240.186 134256.552 -113138.729 134227.222 -113102.991 134217.652 -113085.087 134143.557 -112946.467 134126.384 -112889.853 134092.037 -112776.627 134074.641 -112600 134092.037 -112423.373 134143.557 -112253.534 134143.557 -112253.533 134227.221 -112097.011 134227.222 -112097.009 134256.552 -112061.271 134339.814 -111959.814 134441.271 -111876.552 134477.009 -111847.222 134494.913 -111837.652 134633.533 -111763.557 134690.147 -111746.384 134803.373 -111712.037 134869.558 -111705.518 134935.74 -111699 135024.26 -111699 135090.442 -111705.518 135090.442 -111705.518"/><path d="M 132550.442 -111705.518 132616.627 -111712.037 132729.853 -111746.384 132786.467 -111763.557 132925.087 -111837.652 132942.991 -111847.222 132978.729 -111876.552 133080.186 -111959.814 133163.448 -112061.271 133192.778 -112097.009 133192.779 -112097.011 133276.443 -112253.533 133276.443 -112253.534 133327.963 -112423.373 133345.359 -112600 133327.963 -112776.627 133293.616 -112889.853 133276.443 -112946.467 133202.348 -113085.087 133192.778 -113102.991 133163.448 -113138.729 133080.186 -113240.186 132978.729 -113323.448 132942.991 -113352.778 132942.989 -113352.779 132786.467 -113436.443 132729.853 -113453.616 132616.627 -113487.963 132550.442 -113494.482 132484.26 -113501 132395.74 -113501 132329.558 -113494.482 132263.373 -113487.963 132150.147 -113453.616 132093.533 -113436.443 131937.011 -113352.779 131937.009 -113352.778 131901.271 -113323.448 131799.814 -113240.186 131716.552 -113138.729 131687.222 -113102.991 131677.652 -113085.087 131603.557 -112946.467 131586.384 -112889.853 131552.037 -112776.627 131534.641 -112600 131552.037 -112423.373 131603.557 -112253.534 131603.557 -112253.533 131687.221 -112097.011 131687.222 -112097.009 131716.552 -112061.271 131799.814 -111959.814 131901.271 -111876.552 131937.009 -111847.222 131954.913 -111837.652 132093.533 -111763.557 132150.147 -111746.384 132263.373 -111712.037 132329.558 -111705.518 132395.74 -111699 132484.26 -111699 132550.442 -111705.518 132550.442 -111705.518"/><path d="M 130010.442 -111705.518 130076.627 -111712.037 130189.853 -111746.384 130246.467 -111763.557 130385.087 -111837.652 130402.991 -111847.222 130438.729 -111876.552 130540.186 -111959.814 130623.448 -112061.271 130652.778 -112097.009 130652.779 -112097.011 130736.443 -112253.533 130736.443 -112253.534 130787.963 -112423.373 130805.359 -112600 130787.963 -112776.627 130753.616 -112889.853 130736.443 -112946.467 130662.348 -113085.087 130652.778 -113102.991 130623.448 -113138.729 130540.186 -113240.186 130438.729 -113323.448 130402.991 -113352.778 130402.989 -113352.779 130246.467 -113436.443 130189.853 -113453.616 130076.627 -113487.963 130010.442 -113494.482 129944.26 -113501 129855.74 -113501 129789.558 -113494.482 129723.373 -113487.963 129610.147 -113453.616 129553.533 -113436.443 129397.011 -113352.779 129397.009 -113352.778 129361.271 -113323.448 129259.814 -113240.186 129176.552 -113138.729 129147.222 -113102.991 129137.652 -113085.087 129063.557 -112946.467 129046.384 -112889.853 129012.037 -112776.627 128994.641 -112600 129012.037 -112423.373 129063.557 -112253.534 129063.557 -112253.533 129147.221 -112097.011 129147.222 -112097.009 129176.552 -112061.271 129259.814 -111959.814 129361.271 -111876.552 129397.009 -111847.222 129414.913 -111837.652 129553.533 -111763.557 129610.147 -111746.384 129723.373 -111712.037 129789.558 -111705.518 129855.74 -111699 129944.26 -111699 130010.442 -111705.518 130010.442 -111705.518"/><path d="M 127470.442 -111705.518 127536.627 -111712.037 127649.853 -111746.384 127706.467 -111763.557 127845.087 -111837.652 127862.991 -111847.222 127898.729 -111876.552 128000.186 -111959.814 128083.448 -112061.271 128112.778 -112097.009 128112.779 -112097.011 128196.443 -112253.533 128196.443 -112253.534 128247.963 -112423.373 128265.359 -112600 128247.963 -112776.627 128213.616 -112889.853 128196.443 -112946.467 128122.348 -113085.087 128112.778 -113102.991 128083.448 -113138.729 128000.186 -113240.186 127898.729 -113323.448 127862.991 -113352.778 127862.989 -113352.779 127706.467 -113436.443 127649.853 -113453.616 127536.627 -113487.963 127470.442 -113494.482 127404.26 -113501 127315.74 -113501 127249.558 -113494.482 127183.373 -113487.963 127070.147 -113453.616 127013.533 -113436.443 126857.011 -113352.779 126857.009 -113352.778 126821.271 -113323.448 126719.814 -113240.186 126636.552 -113138.729 126607.222 -113102.991 126597.652 -113085.087 126523.557 -112946.467 126506.384 -112889.853 126472.037 -112776.627 126454.641 -112600 126472.037 -112423.373 126523.557 -112253.534 126523.557 -112253.533 126607.221 -112097.011 126607.222 -112097.009 126636.552 -112061.271 126719.814 -111959.814 126821.271 -111876.552 126857.009 -111847.222 126874.913 -111837.652 127013.533 -111763.557 127070.147 -111746.384 127183.373 -111712.037 127249.558 -111705.518 127315.74 -111699 127404.26 -111699 127470.442 -111705.518 127470.442 -111705.518"/><path d="M 124930.442 -111705.518 124996.627 -111712.037 125109.853 -111746.384 125166.467 -111763.557 125305.087 -111837.652 125322.991 -111847.222 125358.729 -111876.552 125460.186 -111959.814 125543.448 -112061.271 125572.778 -112097.009 125572.779 -112097.011 125656.443 -112253.533 125656.443 -112253.534 125707.963 -112423.373 125725.359 -112600 125707.963 -112776.627 125673.616 -112889.853 125656.443 -112946.467 125582.348 -113085.087 125572.778 -113102.991 125543.448 -113138.729 125460.186 -113240.186 125358.729 -113323.448 125322.991 -113352.778 125322.989 -113352.779 125166.467 -113436.443 125109.853 -113453.616 124996.627 -113487.963 124930.442 -113494.482 124864.26 -113501 124775.74 -113501 124709.558 -113494.482 124643.373 -113487.963 124530.147 -113453.616 124473.533 -113436.443 124317.011 -113352.779 124317.009 -113352.778 124281.271 -113323.448 124179.814 -113240.186 124096.552 -113138.729 124067.222 -113102.991 124057.652 -113085.087 123983.557 -112946.467 123966.384 -112889.853 123932.037 -112776.627 123914.641 -112600 123932.037 -112423.373 123983.557 -112253.534 123983.557 -112253.533 124067.221 -112097.011 124067.222 -112097.009 124096.552 -112061.271 124179.814 -111959.814 124281.271 -111876.552 124317.009 -111847.222 124334.913 -111837.652 124473.533 -111763.557 124530.147 -111746.384 124643.373 -111712.037 124709.558 -111705.518 124775.74 -111699 124864.26 -111699 124930.442 -111705.518 124930.442 -111705.518"/><path d="M 143501 -113501 141699 -113501 141699 -111699 143501 -111699 143501 -113501 143501 -113501"/><path d="M 164690.442 -111705.518 164756.627 -111712.037 164869.853 -111746.384 164926.467 -111763.557 165065.087 -111837.652 165082.991 -111847.222 165118.729 -111876.552 165220.186 -111959.814 165303.448 -112061.271 165332.778 -112097.009 165332.779 -112097.011 165416.443 -112253.533 165416.443 -112253.534 165467.963 -112423.373 165485.359 -112600 165467.963 -112776.627 165433.616 -112889.853 165416.443 -112946.467 165342.348 -113085.087 165332.778 -113102.991 165303.448 -113138.729 165220.186 -113240.186 165118.729 -113323.448 165082.991 -113352.778 165082.989 -113352.779 164926.467 -113436.443 164869.853 -113453.616 164756.627 -113487.963 164690.442 -113494.482 164624.26 -113501 164535.74 -113501 164469.558 -113494.482 164403.373 -113487.963 164290.147 -113453.616 164233.533 -113436.443 164077.011 -113352.779 164077.009 -113352.778 164041.271 -113323.448 163939.814 -113240.186 163856.552 -113138.729 163827.222 -113102.991 163817.652 -113085.087 163743.557 -112946.467 163726.384 -112889.853 163692.037 -112776.627 163674.641 -112600 163692.037 -112423.373 163743.557 -112253.534 163743.557 -112253.533 163827.221 -112097.011 163827.222 -112097.009 163856.552 -112061.271 163939.814 -111959.814 164041.271 -111876.552 164077.009 -111847.222 164094.913 -111837.652 164233.533 -111763.557 164290.147 -111746.384 164403.373 -111712.037 164469.558 -111705.518 164535.74 -111699 164624.26 -111699 164690.442 -111705.518 164690.442 -111705.518"/><path d="M 159610.442 -111705.518 159676.627 -111712.037 159789.853 -111746.384 159846.467 -111763.557 159985.087 -111837.652 160002.991 -111847.222 160038.729 -111876.552 160140.186 -111959.814 160223.448 -112061.271 160252.778 -112097.009 160252.779 -112097.011 160336.443 -112253.533 160336.443 -112253.534 160387.963 -112423.373 160405.359 -112600 160387.963 -112776.627 160353.616 -112889.853 160336.443 -112946.467 160262.348 -113085.087 160252.778 -113102.991 160223.448 -113138.729 160140.186 -113240.186 160038.729 -113323.448 160002.991 -113352.778 160002.989 -113352.779 159846.467 -113436.443 159789.853 -113453.616 159676.627 -113487.963 159610.442 -113494.482 159544.26 -113501 159455.74 -113501 159389.558 -113494.482 159323.373 -113487.963 159210.147 -113453.616 159153.533 -113436.443 158997.011 -113352.779 158997.009 -113352.778 158961.271 -113323.448 158859.814 -113240.186 158776.552 -113138.729 158747.222 -113102.991 158737.652 -113085.087 158663.557 -112946.467 158646.384 -112889.853 158612.037 -112776.627 158594.641 -112600 158612.037 -112423.373 158663.557 -112253.534 158663.557 -112253.533 158747.221 -112097.011 158747.222 -112097.009 158776.552 -112061.271 158859.814 -111959.814 158961.271 -111876.552 158997.009 -111847.222 159014.913 -111837.652 159153.533 -111763.557 159210.147 -111746.384 159323.373 -111712.037 159389.558 -111705.518 159455.74 -111699 159544.26 -111699 159610.442 -111705.518 159610.442 -111705.518"/><path d="M 157070.442 -111705.518 157136.627 -111712.037 157249.853 -111746.384 157306.467 -111763.557 157445.087 -111837.652 157462.991 -111847.222 157498.729 -111876.552 157600.186 -111959.814 157683.448 -112061.271 157712.778 -112097.009 157712.779 -112097.011 157796.443 -112253.533 157796.443 -112253.534 157847.963 -112423.373 157865.359 -112600 157847.963 -112776.627 157813.616 -112889.853 157796.443 -112946.467 157722.348 -113085.087 157712.778 -113102.991 157683.448 -113138.729 157600.186 -113240.186 157498.729 -113323.448 157462.991 -113352.778 157462.989 -113352.779 157306.467 -113436.443 157249.853 -113453.616 157136.627 -113487.963 157070.442 -113494.482 157004.26 -113501 156915.74 -113501 156849.558 -113494.482 156783.373 -113487.963 156670.147 -113453.616 156613.533 -113436.443 156457.011 -113352.779 156457.009 -113352.778 156421.271 -113323.448 156319.814 -113240.186 156236.552 -113138.729 156207.222 -113102.991 156197.652 -113085.087 156123.557 -112946.467 156106.384 -112889.853 156072.037 -112776.627 156054.641 -112600 156072.037 -112423.373 156123.557 -112253.534 156123.557 -112253.533 156207.221 -112097.011 156207.222 -112097.009 156236.552 -112061.271 156319.814 -111959.814 156421.271 -111876.552 156457.009 -111847.222 156474.913 -111837.652 156613.533 -111763.557 156670.147 -111746.384 156783.373 -111712.037 156849.558 -111705.518 156915.74 -111699 157004.26 -111699 157070.442 -111705.518 157070.442 -111705.518"/><path d="M 154530.442 -111705.518 154596.627 -111712.037 154709.853 -111746.384 154766.467 -111763.557 154905.087 -111837.652 154922.991 -111847.222 154958.729 -111876.552 155060.186 -111959.814 155143.448 -112061.271 155172.778 -112097.009 155172.779 -112097.011 155256.443 -112253.533 155256.443 -112253.534 155307.963 -112423.373 155325.359 -112600 155307.963 -112776.627 155273.616 -112889.853 155256.443 -112946.467 155182.348 -113085.087 155172.778 -113102.991 155143.448 -113138.729 155060.186 -113240.186 154958.729 -113323.448 154922.991 -113352.778 154922.989 -113352.779 154766.467 -113436.443 154709.853 -113453.616 154596.627 -113487.963 154530.442 -113494.482 154464.26 -113501 154375.74 -113501 154309.558 -113494.482 154243.373 -113487.963 154130.147 -113453.616 154073.533 -113436.443 153917.011 -113352.779 153917.009 -113352.778 153881.271 -113323.448 153779.814 -113240.186 153696.552 -113138.729 153667.222 -113102.991 153657.652 -113085.087 153583.557 -112946.467 153566.384 -112889.853 153532.037 -112776.627 153514.641 -112600 153532.037 -112423.373 153583.557 -112253.534 153583.557 -112253.533 153667.221 -112097.011 153667.222 -112097.009 153696.552 -112061.271 153779.814 -111959.814 153881.271 -111876.552 153917.009 -111847.222 153934.913 -111837.652 154073.533 -111763.557 154130.147 -111746.384 154243.373 -111712.037 154309.558 -111705.518 154375.74 -111699 154464.26 -111699 154530.442 -111705.518 154530.442 -111705.518"/><path d="M 151990.442 -111705.518 152056.627 -111712.037 152169.853 -111746.384 152226.467 -111763.557 152365.087 -111837.652 152382.991 -111847.222 152418.729 -111876.552 152520.186 -111959.814 152603.448 -112061.271 152632.778 -112097.009 152632.779 -112097.011 152716.443 -112253.533 152716.443 -112253.534 152767.963 -112423.373 152785.359 -112600 152767.963 -112776.627 152733.616 -112889.853 152716.443 -112946.467 152642.348 -113085.087 152632.778 -113102.991 152603.448 -113138.729 152520.186 -113240.186 152418.729 -113323.448 152382.991 -113352.778 152382.989 -113352.779 152226.467 -113436.443 152169.853 -113453.616 152056.627 -113487.963 151990.442 -113494.482 151924.26 -113501 151835.74 -113501 151769.558 -113494.482 151703.373 -113487.963 151590.147 -113453.616 151533.533 -113436.443 151377.011 -113352.779 151377.009 -113352.778 151341.271 -113323.448 151239.814 -113240.186 151156.552 -113138.729 151127.222 -113102.991 151117.652 -113085.087 151043.557 -112946.467 151026.384 -112889.853 150992.037 -112776.627 150974.641 -112600 150992.037 -112423.373 151043.557 -112253.534 151043.557 -112253.533 151127.221 -112097.011 151127.222 -112097.009 151156.552 -112061.271 151239.814 -111959.814 151341.271 -111876.552 151377.009 -111847.222 151394.913 -111837.652 151533.533 -111763.557 151590.147 -111746.384 151703.373 -111712.037 151769.558 -111705.518 151835.74 -111699 151924.26 -111699 151990.442 -111705.518 151990.442 -111705.518"/><path d="M 149450.442 -111705.518 149516.627 -111712.037 149629.853 -111746.384 149686.467 -111763.557 149825.087 -111837.652 149842.991 -111847.222 149878.729 -111876.552 149980.186 -111959.814 150063.448 -112061.271 150092.778 -112097.009 150092.779 -112097.011 150176.443 -112253.533 150176.443 -112253.534 150227.963 -112423.373 150245.359 -112600 150227.963 -112776.627 150193.616 -112889.853 150176.443 -112946.467 150102.348 -113085.087 150092.778 -113102.991 150063.448 -113138.729 149980.186 -113240.186 149878.729 -113323.448 149842.991 -113352.778 149842.989 -113352.779 149686.467 -113436.443 149629.853 -113453.616 149516.627 -113487.963 149450.442 -113494.482 149384.26 -113501 149295.74 -113501 149229.558 -113494.482 149163.373 -113487.963 149050.147 -113453.616 148993.533 -113436.443 148837.011 -113352.779 148837.009 -113352.778 148801.271 -113323.448 148699.814 -113240.186 148616.552 -113138.729 148587.222 -113102.991 148577.652 -113085.087 148503.557 -112946.467 148486.384 -112889.853 148452.037 -112776.627 148434.641 -112600 148452.037 -112423.373 148503.557 -112253.534 148503.557 -112253.533 148587.221 -112097.011 148587.222 -112097.009 148616.552 -112061.271 148699.814 -111959.814 148801.271 -111876.552 148837.009 -111847.222 148854.913 -111837.652 148993.533 -111763.557 149050.147 -111746.384 149163.373 -111712.037 149229.558 -111705.518 149295.74 -111699 149384.26 -111699 149450.442 -111705.518 149450.442 -111705.518"/><path d="M 147701 -113501 145899 -113501 145899 -111699 147701 -111699 147701 -113501 147701 -113501"/><path d="M 140170.442 -111705.518 140236.627 -111712.037 140349.853 -111746.384 140406.467 -111763.557 140545.087 -111837.652 140562.991 -111847.222 140598.729 -111876.552 140700.186 -111959.814 140783.448 -112061.271 140812.778 -112097.009 140812.779 -112097.011 140896.443 -112253.533 140896.443 -112253.534 140947.963 -112423.373 140965.359 -112600 140947.963 -112776.627 140913.616 -112889.853 140896.443 -112946.467 140822.348 -113085.087 140812.778 -113102.991 140783.448 -113138.729 140700.186 -113240.186 140598.729 -113323.448 140562.991 -113352.778 140562.989 -113352.779 140406.467 -113436.443 140349.853 -113453.616 140236.627 -113487.963 140170.442 -113494.482 140104.26 -113501 140015.74 -113501 139949.558 -113494.482 139883.373 -113487.963 139770.147 -113453.616 139713.533 -113436.443 139557.011 -113352.779 139557.009 -113352.778 139521.271 -113323.448 139419.814 -113240.186 139336.552 -113138.729 139307.222 -113102.991 139297.652 -113085.087 139223.557 -112946.467 139206.384 -112889.853 139172.037 -112776.627 139154.641 -112600 139172.037 -112423.373 139223.557 -112253.534 139223.557 -112253.533 139307.221 -112097.011 139307.222 -112097.009 139336.552 -112061.271 139419.814 -111959.814 139521.271 -111876.552 139557.009 -111847.222 139574.913 -111837.652 139713.533 -111763.557 139770.147 -111746.384 139883.373 -111712.037 139949.558 -111705.518 140015.74 -111699 140104.26 -111699 140170.442 -111705.518 140170.442 -111705.518"/><path d="M 162150.442 -111705.518 162216.627 -111712.037 162329.853 -111746.384 162386.467 -111763.557 162525.087 -111837.652 162542.991 -111847.222 162578.729 -111876.552 162680.186 -111959.814 162763.448 -112061.271 162792.778 -112097.009 162792.779 -112097.011 162876.443 -112253.533 162876.443 -112253.534 162927.963 -112423.373 162945.359 -112600 162927.963 -112776.627 162893.616 -112889.853 162876.443 -112946.467 162802.348 -113085.087 162792.778 -113102.991 162763.448 -113138.729 162680.186 -113240.186 162578.729 -113323.448 162542.991 -113352.778 162542.989 -113352.779 162386.467 -113436.443 162329.853 -113453.616 162216.627 -113487.963 162150.442 -113494.482 162084.26 -113501 161995.74 -113501 161929.558 -113494.482 161863.373 -113487.963 161750.147 -113453.616 161693.533 -113436.443 161537.011 -113352.779 161537.009 -113352.778 161501.271 -113323.448 161399.814 -113240.186 161316.552 -113138.729 161287.222 -113102.991 161277.652 -113085.087 161203.557 -112946.467 161186.384 -112889.853 161152.037 -112776.627 161134.641 -112600 161152.037 -112423.373 161203.557 -112253.534 161203.557 -112253.533 161287.221 -112097.011 161287.222 -112097.009 161316.552 -112061.271 161399.814 -111959.814 161501.271 -111876.552 161537.009 -111847.222 161554.913 -111837.652 161693.533 -111763.557 161750.147 -111746.384 161863.373 -111712.037 161929.558 -111705.518 161995.74 -111699 162084.26 -111699 162150.442 -111705.518 162150.442 -111705.518"/><path d="M 173389.499 -110178.445 173426.993 -110189.819 173461.557 -110208.294 173491.847 -110233.153 173516.706 -110263.443 173535.181 -110298.007 173546.555 -110335.501 173551 -110380.638 173551 -111019.362 173546.555 -111064.499 173535.181 -111101.993 173516.706 -111136.557 173491.847 -111166.847 173461.557 -111191.706 173426.993 -111210.181 173389.499 -111221.555 173344.362 -111226 172605.638 -111226 172560.501 -111221.555 172523.007 -111210.181 172488.443 -111191.706 172458.153 -111166.847 172433.294 -111136.557 172414.819 -111101.993 172403.445 -111064.499 172399 -111019.362 172399 -110380.638 172403.445 -110335.501 172414.819 -110298.007 172433.294 -110263.443 172458.153 -110233.153 172488.443 -110208.294 172523.007 -110189.819 172560.501 -110178.445 172605.638 -110174 173344.362 -110174 173389.499 -110178.445 173389.499 -110178.445"/><path d="M 171639.499 -110178.445 171676.993 -110189.819 171711.557 -110208.294 171741.847 -110233.153 171766.706 -110263.443 171785.181 -110298.007 171796.555 -110335.501 171801 -110380.638 171801 -111019.362 171796.555 -111064.499 171785.181 -111101.993 171766.706 -111136.557 171741.847 -111166.847 171711.557 -111191.706 171676.993 -111210.181 171639.499 -111221.555 171594.362 -111226 170855.638 -111226 170810.501 -111221.555 170773.007 -111210.181 170738.443 -111191.706 170708.153 -111166.847 170683.294 -111136.557 170664.819 -111101.993 170653.445 -111064.499 170649 -111019.362 170649 -110380.638 170653.445 -110335.501 170664.819 -110298.007 170683.294 -110263.443 170708.153 -110233.153 170738.443 -110208.294 170773.007 -110189.819 170810.501 -110178.445 170855.638 -110174 171594.362 -110174 171639.499 -110178.445 171639.499 -110178.445"/><path d="M 146351 -109301 144649 -109301 144649 -105699 146351 -105699 146351 -109301 146351 -109301"/><path d="M 165175.562 -107528.181 165210.477 -107538.773 165242.665 -107555.978 165270.873 -107579.127 165294.022 -107607.335 165311.227 -107639.523 165321.819 -107674.438 165326 -107716.895 165326 -108858.105 165321.819 -108900.562 165311.227 -108935.477 165294.022 -108967.665 165270.873 -108995.873 165242.665 -109019.022 165210.477 -109036.227 165175.562 -109046.819 165133.105 -109051 163666.895 -109051 163624.438 -109046.819 163589.523 -109036.227 163557.335 -109019.022 163529.127 -108995.873 163505.978 -108967.665 163488.773 -108935.477 163478.181 -108900.562 163474 -108858.105 163474 -107716.895 163478.181 -107674.438 163488.773 -107639.523 163505.978 -107607.335 163529.127 -107579.127 163557.335 -107555.978 163589.523 -107538.773 163624.438 -107528.181 163666.895 -107524 165133.105 -107524 165175.562 -107528.181 165175.562 -107528.181"/><path d="M 159675.562 -107528.181 159710.477 -107538.773 159742.665 -107555.978 159770.873 -107579.127 159794.022 -107607.335 159811.227 -107639.523 159821.819 -107674.438 159826 -107716.895 159826 -108858.105 159821.819 -108900.562 159811.227 -108935.477 159794.022 -108967.665 159770.873 -108995.873 159742.665 -109019.022 159710.477 -109036.227 159675.562 -109046.819 159633.105 -109051 158166.895 -109051 158124.438 -109046.819 158089.523 -109036.227 158057.335 -109019.022 158029.127 -108995.873 158005.978 -108967.665 157988.773 -108935.477 157978.181 -108900.562 157974 -108858.105 157974 -107716.895 157978.181 -107674.438 157988.773 -107639.523 158005.978 -107607.335 158029.127 -107579.127 158057.335 -107555.978 158089.523 -107538.773 158124.438 -107528.181 158166.895 -107524 159633.105 -107524 159675.562 -107528.181 159675.562 -107528.181"/><path d="M 153201 -108901 151399 -108901 151399 -107099 153201 -107099 153201 -108901 153201 -108901"/><path d="M 173276.401 -108806.6 172623.601 -108806.6 172623.601 -107393.4 173276.401 -107393.4 173276.401 -108806.6 173276.401 -108806.6"/><path d="M 171376.399 -108806.6 170723.599 -108806.6 170723.599 -107393.4 171376.399 -107393.4 171376.399 -108806.6 171376.399 -108806.6"/><path d="M 138275.562 -107128.181 138310.477 -107138.773 138342.665 -107155.978 138370.873 -107179.127 138394.022 -107207.335 138411.227 -107239.523 138421.819 -107274.438 138426 -107316.895 138426 -108458.105 138421.819 -108500.562 138411.227 -108535.477 138394.022 -108567.665 138370.873 -108595.873 138342.665 -108619.022 138310.477 -108636.227 138275.562 -108646.819 138233.105 -108651 136766.895 -108651 136724.438 -108646.819 136689.523 -108636.227 136657.335 -108619.022 136629.127 -108595.873 136605.978 -108567.665 136588.773 -108535.477 136578.181 -108500.562 136574 -108458.105 136574 -107316.895 136578.181 -107274.438 136588.773 -107239.523 136605.978 -107207.335 136629.127 -107179.127 136657.335 -107155.978 136689.523 -107138.773 136724.438 -107128.181 136766.895 -107124 138233.105 -107124 138275.562 -107128.181 138275.562 -107128.181"/><path d="M 156788.677 -106903.465 156826.364 -106914.898 156861.103 -106933.466 156891.548 -106958.452 156916.534 -106988.897 156935.102 -107023.636 156946.535 -107061.323 156951 -107106.661 156951 -107943.339 156946.535 -107988.677 156935.102 -108026.364 156916.534 -108061.103 156891.548 -108091.548 156861.103 -108116.534 156826.364 -108135.102 156788.677 -108146.535 156743.339 -108151 155656.661 -108151 155611.323 -108146.535 155573.636 -108135.102 155538.897 -108116.534 155508.452 -108091.548 155483.466 -108061.103 155464.898 -108026.364 155453.465 -107988.677 155449 -107943.339 155449 -107106.661 155453.465 -107061.323 155464.898 -107023.636 155483.466 -106988.897 155508.452 -106958.452 155538.897 -106933.466 155573.636 -106914.898 155611.323 -106903.465 155656.661 -106899 156743.339 -106899 156788.677 -106903.465 156788.677 -106903.465"/><path d="M 162188.677 -106803.465 162226.364 -106814.898 162261.103 -106833.466 162291.548 -106858.452 162316.534 -106888.897 162335.102 -106923.636 162346.535 -106961.323 162351 -107006.661 162351 -107843.339 162346.535 -107888.677 162335.102 -107926.364 162316.534 -107961.103 162291.548 -107991.548 162261.103 -108016.534 162226.364 -108035.102 162188.677 -108046.535 162143.339 -108051 161056.661 -108051 161011.323 -108046.535 160973.636 -108035.102 160938.897 -108016.534 160908.452 -107991.548 160883.466 -107961.103 160864.898 -107926.364 160853.465 -107888.677 160849 -107843.339 160849 -107006.661 160853.465 -106961.323 160864.898 -106923.636 160883.466 -106888.897 160908.452 -106858.452 160938.897 -106833.466 160973.636 -106814.898 161011.323 -106803.465 161056.661 -106799 162143.339 -106799 162188.677 -106803.465 162188.677 -106803.465"/><path d="M 167688.677 -106803.465 167726.364 -106814.898 167761.103 -106833.466 167791.548 -106858.452 167816.534 -106888.897 167835.102 -106923.636 167846.535 -106961.323 167851 -107006.661 167851 -107843.339 167846.535 -107888.677 167835.102 -107926.364 167816.534 -107961.103 167791.548 -107991.548 167761.103 -108016.534 167726.364 -108035.102 167688.677 -108046.535 167643.339 -108051 166556.661 -108051 166511.323 -108046.535 166473.636 -108035.102 166438.897 -108016.534 166408.452 -107991.548 166383.466 -107961.103 166364.898 -107926.364 166353.465 -107888.677 166349 -107843.339 166349 -107006.661 166353.465 -106961.323 166364.898 -106923.636 166383.466 -106888.897 166408.452 -106858.452 166438.897 -106833.466 166473.636 -106814.898 166511.323 -106803.465 166556.661 -106799 167643.339 -106799 167688.677 -106803.465 167688.677 -106803.465"/><path d="M 171376.399 -106406.6 170723.599 -106406.6 170723.599 -104993.4 171376.399 -104993.4 171376.399 -106406.6 171376.399 -106406.6"/><path d="M 172326.4 -106406.6 171673.6 -106406.6 171673.6 -104993.4 172326.4 -104993.4 172326.4 -106406.6 172326.4 -106406.6"/><path d="M 173276.401 -106406.6 172623.601 -106406.6 172623.601 -104993.4 173276.401 -104993.4 173276.401 -106406.6 173276.401 -106406.6"/><path d="M 152392.72 -104563.773 152476.627 -104572.037 152549.517 -104594.148 152646.467 -104623.557 152785.087 -104697.652 152802.991 -104707.222 152811.708 -104714.376 152940.186 -104819.814 153012.928 -104908.452 153052.778 -104957.009 153052.779 -104957.011 153136.443 -105113.533 153153.616 -105170.147 153187.963 -105283.373 153205.359 -105460 153187.963 -105636.627 153176.019 -105676 153136.443 -105806.467 153090.008 -105893.339 153052.778 -105962.991 153034.632 -105985.102 152940.186 -106100.186 152838.729 -106183.448 152802.991 -106212.778 152802.989 -106212.779 152646.467 -106296.443 152589.853 -106313.616 152476.627 -106347.963 152410.443 -106354.481 152344.26 -106361 152255.74 -106361 152189.557 -106354.481 152123.373 -106347.963 152010.147 -106313.616 151953.533 -106296.443 151797.011 -106212.779 151797.009 -106212.778 151761.271 -106183.448 151659.814 -106100.186 151565.368 -105985.102 151547.222 -105962.991 151509.992 -105893.339 151463.557 -105806.467 151423.981 -105676 151412.037 -105636.627 151394.641 -105460 151412.037 -105283.373 151446.384 -105170.147 151463.557 -105113.533 151547.221 -104957.011 151547.222 -104957.009 151587.072 -104908.452 151659.814 -104819.814 151788.292 -104714.376 151797.009 -104707.222 151814.913 -104697.652 151953.533 -104623.557 152050.483 -104594.148 152123.373 -104572.037 152207.28 -104563.773 152255.74 -104559 152344.26 -104559 152392.72 -104563.773 152392.72 -104563.773"/><path d="M 156788.677 -104853.465 156826.364 -104864.898 156861.103 -104883.466 156891.548 -104908.452 156916.534 -104938.897 156935.102 -104973.636 156946.535 -105011.323 156951 -105056.661 156951 -105893.339 156946.535 -105938.677 156935.102 -105976.364 156916.534 -106011.103 156891.548 -106041.548 156861.103 -106066.534 156826.364 -106085.102 156788.677 -106096.535 156743.339 -106101 155656.661 -106101 155611.323 -106096.535 155573.636 -106085.102 155538.897 -106066.534 155508.452 -106041.548 155483.466 -106011.103 155464.898 -105976.364 155453.465 -105938.677 155449 -105893.339 155449 -105056.661 155453.465 -105011.323 155464.898 -104973.636 155483.466 -104938.897 155508.452 -104908.452 155538.897 -104883.466 155573.636 -104864.898 155611.323 -104853.465 155656.661 -104849 156743.339 -104849 156788.677 -104853.465 156788.677 -104853.465"/><path d="M 165175.562 -104553.181 165210.477 -104563.773 165242.665 -104580.978 165270.873 -104604.127 165294.022 -104632.335 165311.227 -104664.523 165321.819 -104699.438 165326 -104741.895 165326 -105883.105 165321.819 -105925.562 165311.227 -105960.477 165294.022 -105992.665 165270.873 -106020.873 165242.665 -106044.022 165210.477 -106061.227 165175.562 -106071.819 165133.105 -106076 163666.895 -106076 163624.438 -106071.819 163589.523 -106061.227 163557.335 -106044.022 163529.127 -106020.873 163505.978 -105992.665 163488.773 -105960.477 163478.181 -105925.562 163474 -105883.105 163474 -104741.895 163478.181 -104699.438 163488.773 -104664.523 163505.978 -104632.335 163529.127 -104604.127 163557.335 -104580.978 163589.523 -104563.773 163624.438 -104553.181 163666.895 -104549 165133.105 -104549 165175.562 -104553.181 165175.562 -104553.181"/><path d="M 159675.562 -104553.181 159710.477 -104563.773 159742.665 -104580.978 159770.873 -104604.127 159794.022 -104632.335 159811.227 -104664.523 159821.819 -104699.438 159826 -104741.895 159826 -105883.105 159821.819 -105925.562 159811.227 -105960.477 159794.022 -105992.665 159770.873 -106020.873 159742.665 -106044.022 159710.477 -106061.227 159675.562 -106071.819 159633.105 -106076 158166.895 -106076 158124.438 -106071.819 158089.523 -106061.227 158057.335 -106044.022 158029.127 -106020.873 158005.978 -105992.665 157988.773 -105960.477 157978.181 -105925.562 157974 -105883.105 157974 -104741.895 157978.181 -104699.438 157988.773 -104664.523 158005.978 -104632.335 158029.127 -104604.127 158057.335 -104580.978 158089.523 -104563.773 158124.438 -104553.181 158166.895 -104549 159633.105 -104549 159675.562 -104553.181 159675.562 -104553.181"/><path d="M 162188.677 -104753.465 162226.364 -104764.898 162261.103 -104783.466 162291.548 -104808.452 162316.534 -104838.897 162335.102 -104873.636 162346.535 -104911.323 162351 -104956.661 162351 -105793.339 162346.535 -105838.677 162335.102 -105876.364 162316.534 -105911.103 162291.548 -105941.548 162261.103 -105966.534 162226.364 -105985.102 162188.677 -105996.535 162143.339 -106001 161056.661 -106001 161011.323 -105996.535 160973.636 -105985.102 160938.897 -105966.534 160908.452 -105941.548 160883.466 -105911.103 160864.898 -105876.364 160853.465 -105838.677 160849 -105793.339 160849 -104956.661 160853.465 -104911.323 160864.898 -104873.636 160883.466 -104838.897 160908.452 -104808.452 160938.897 -104783.466 160973.636 -104764.898 161011.323 -104753.465 161056.661 -104749 162143.339 -104749 162188.677 -104753.465 162188.677 -104753.465"/><path d="M 167688.677 -104753.465 167726.364 -104764.898 167761.103 -104783.466 167791.548 -104808.452 167816.534 -104838.897 167835.102 -104873.636 167846.535 -104911.323 167851 -104956.661 167851 -105793.339 167846.535 -105838.677 167835.102 -105876.364 167816.534 -105911.103 167791.548 -105941.548 167761.103 -105966.534 167726.364 -105985.102 167688.677 -105996.535 167643.339 -106001 166556.661 -106001 166511.323 -105996.535 166473.636 -105985.102 166438.897 -105966.534 166408.452 -105941.548 166383.466 -105911.103 166364.898 -105876.364 166353.465 -105838.677 166349 -105793.339 166349 -104956.661 166353.465 -104911.323 166364.898 -104873.636 166383.466 -104838.897 166408.452 -104808.452 166438.897 -104783.466 166473.636 -104764.898 166511.323 -104753.465 166556.661 -104749 167643.339 -104749 167688.677 -104753.465 167688.677 -104753.465"/><path d="M 138275.562 -104153.181 138310.477 -104163.773 138342.665 -104180.978 138370.873 -104204.127 138394.022 -104232.335 138411.227 -104264.523 138421.819 -104299.438 138426 -104341.895 138426 -105483.105 138421.819 -105525.562 138411.227 -105560.477 138394.022 -105592.665 138370.873 -105620.873 138342.665 -105644.022 138310.477 -105661.227 138275.562 -105671.819 138233.105 -105676 136766.895 -105676 136724.438 -105671.819 136689.523 -105661.227 136657.335 -105644.022 136629.127 -105620.873 136605.978 -105592.665 136588.773 -105560.477 136578.181 -105525.562 136574 -105483.105 136574 -104341.895 136578.181 -104299.438 136588.773 -104264.523 136605.978 -104232.335 136629.127 -104204.127 136657.335 -104180.978 136689.523 -104163.773 136724.438 -104153.181 136766.895 -104149 138233.105 -104149 138275.562 -104153.181 138275.562 -104153.181"/><path d="M 125551 -105401 123849 -105401 123849 -101799 125551 -101799 125551 -105401 125551 -105401"/><path d="M 134501 -104901 132699 -104901 132699 -103099 134501 -103099 134501 -104901 134501 -104901"/><path d="M 130675.562 -103028.181 130710.477 -103038.773 130742.665 -103055.978 130770.873 -103079.127 130794.022 -103107.335 130811.227 -103139.523 130821.819 -103174.438 130826 -103216.895 130826 -104358.105 130821.819 -104400.562 130811.227 -104435.477 130794.022 -104467.665 130770.873 -104495.873 130742.665 -104519.022 130710.477 -104536.227 130675.562 -104546.819 130633.105 -104551 129166.895 -104551 129124.438 -104546.819 129089.523 -104536.227 129057.335 -104519.022 129029.127 -104495.873 129005.978 -104467.665 128988.773 -104435.477 128978.181 -104400.562 128974 -104358.105 128974 -103216.895 128978.181 -103174.438 128988.773 -103139.523 129005.978 -103107.335 129029.127 -103079.127 129057.335 -103055.978 129089.523 -103038.773 129124.438 -103028.181 129166.895 -103024 130633.105 -103024 130675.562 -103028.181 130675.562 -103028.181"/><path d="M 146351 -103701 144649 -103701 144649 -100099 146351 -100099 146351 -103701 146351 -103701"/><path d="M 166225.562 -101778.181 166260.477 -101788.773 166292.665 -101805.978 166320.873 -101829.127 166344.022 -101857.335 166361.227 -101889.523 166371.819 -101924.438 166376 -101966.895 166376 -103433.105 166371.819 -103475.562 166361.227 -103510.477 166344.022 -103542.665 166320.873 -103570.873 166292.665 -103594.022 166260.477 -103611.227 166225.562 -103621.819 166183.105 -103626 165041.895 -103626 164999.438 -103621.819 164964.523 -103611.227 164932.335 -103594.022 164904.127 -103570.873 164880.978 -103542.665 164863.773 -103510.477 164853.181 -103475.562 164849 -103433.105 164849 -101966.895 164853.181 -101924.438 164863.773 -101889.523 164880.978 -101857.335 164904.127 -101829.127 164932.335 -101805.978 164964.523 -101788.773 164999.438 -101778.181 165041.895 -101774 166183.105 -101774 166225.562 -101778.181 166225.562 -101778.181"/><path d="M 169200.562 -101778.181 169235.477 -101788.773 169267.665 -101805.978 169295.873 -101829.127 169319.022 -101857.335 169336.227 -101889.523 169346.819 -101924.438 169351 -101966.895 169351 -103433.105 169346.819 -103475.562 169336.227 -103510.477 169319.022 -103542.665 169295.873 -103570.873 169267.665 -103594.022 169235.477 -103611.227 169200.562 -103621.819 169158.105 -103626 168016.895 -103626 167974.438 -103621.819 167939.523 -103611.227 167907.335 -103594.022 167879.127 -103570.873 167855.978 -103542.665 167838.773 -103510.477 167828.181 -103475.562 167824 -103433.105 167824 -101966.895 167828.181 -101924.438 167838.773 -101889.523 167855.978 -101857.335 167879.127 -101829.127 167907.335 -101805.978 167939.523 -101788.773 167974.438 -101778.181 168016.895 -101774 169158.105 -101774 169200.562 -101778.181 169200.562 -101778.181"/><path d="M 141075.562 -101928.181 141110.477 -101938.773 141142.665 -101955.978 141170.873 -101979.127 141194.022 -102007.335 141211.227 -102039.523 141221.819 -102074.438 141226 -102116.895 141226 -103258.105 141221.819 -103300.562 141211.227 -103335.477 141194.022 -103367.665 141170.873 -103395.873 141142.665 -103419.022 141110.477 -103436.227 141075.562 -103446.819 141033.105 -103451 139566.895 -103451 139524.438 -103446.819 139489.523 -103436.227 139457.335 -103419.022 139429.127 -103395.873 139405.978 -103367.665 139388.773 -103335.477 139378.181 -103300.562 139374 -103258.105 139374 -102116.895 139378.181 -102074.438 139388.773 -102039.523 139405.978 -102007.335 139429.127 -101979.127 139457.335 -101955.978 139489.523 -101938.773 139524.438 -101928.181 139566.895 -101924 141033.105 -101924 141075.562 -101928.181 141075.562 -101928.181"/><path d="M 138275.562 -101928.181 138310.477 -101938.773 138342.665 -101955.978 138370.873 -101979.127 138394.022 -102007.335 138411.227 -102039.523 138421.819 -102074.438 138426 -102116.895 138426 -103258.105 138421.819 -103300.562 138411.227 -103335.477 138394.022 -103367.665 138370.873 -103395.873 138342.665 -103419.022 138310.477 -103436.227 138275.562 -103446.819 138233.105 -103451 136766.895 -103451 136724.438 -103446.819 136689.523 -103436.227 136657.335 -103419.022 136629.127 -103395.873 136605.978 -103367.665 136588.773 -103335.477 136578.181 -103300.562 136574 -103258.105 136574 -102116.895 136578.181 -102074.438 136588.773 -102039.523 136605.978 -102007.335 136629.127 -101979.127 136657.335 -101955.978 136689.523 -101938.773 136724.438 -101928.181 136766.895 -101924 138233.105 -101924 138275.562 -101928.181 138275.562 -101928.181"/><path d="M 171539.499 -102178.445 171576.993 -102189.819 171611.557 -102208.294 171641.847 -102233.153 171666.706 -102263.443 171685.181 -102298.007 171696.555 -102335.501 171701 -102380.638 171701 -103019.362 171696.555 -103064.499 171685.181 -103101.993 171666.706 -103136.557 171641.847 -103166.847 171611.557 -103191.706 171576.993 -103210.181 171539.499 -103221.555 171494.362 -103226 170755.638 -103226 170710.501 -103221.555 170673.007 -103210.181 170638.443 -103191.706 170608.153 -103166.847 170583.294 -103136.557 170564.819 -103101.993 170553.445 -103064.499 170549 -103019.362 170549 -102380.638 170553.445 -102335.501 170564.819 -102298.007 170583.294 -102263.443 170608.153 -102233.153 170638.443 -102208.294 170673.007 -102189.819 170710.501 -102178.445 170755.638 -102174 171494.362 -102174 171539.499 -102178.445 171539.499 -102178.445"/><path d="M 173289.499 -102178.445 173326.993 -102189.819 173361.557 -102208.294 173391.847 -102233.153 173416.706 -102263.443 173435.181 -102298.007 173446.555 -102335.501 173451 -102380.638 173451 -103019.362 173446.555 -103064.499 173435.181 -103101.993 173416.706 -103136.557 173391.847 -103166.847 173361.557 -103191.706 173326.993 -103210.181 173289.499 -103221.555 173244.362 -103226 172505.638 -103226 172460.501 -103221.555 172423.007 -103210.181 172388.443 -103191.706 172358.153 -103166.847 172333.294 -103136.557 172314.819 -103101.993 172303.445 -103064.499 172299 -103019.362 172299 -102380.638 172303.445 -102335.501 172314.819 -102298.007 172333.294 -102263.443 172358.153 -102233.153 172388.443 -102208.294 172423.007 -102189.819 172460.501 -102178.445 172505.638 -102174 173244.362 -102174 173289.499 -102178.445 173289.499 -102178.445"/><path d="M 151188.677 -101703.465 151226.364 -101714.898 151261.103 -101733.466 151291.548 -101758.452 151316.534 -101788.897 151335.102 -101823.636 151346.535 -101861.323 151351 -101906.661 151351 -102993.339 151346.535 -103038.677 151335.102 -103076.364 151316.534 -103111.103 151291.548 -103141.548 151261.103 -103166.534 151226.364 -103185.102 151188.677 -103196.535 151143.339 -103201 150306.661 -103201 150261.323 -103196.535 150223.636 -103185.102 150188.897 -103166.534 150158.452 -103141.548 150133.466 -103111.103 150114.898 -103076.364 150103.465 -103038.677 150099 -102993.339 150099 -101906.661 150103.465 -101861.323 150114.898 -101823.636 150133.466 -101788.897 150158.452 -101758.452 150188.897 -101733.466 150223.636 -101714.898 150261.323 -101703.465 150306.661 -101699 151143.339 -101699 151188.677 -101703.465 151188.677 -101703.465"/><path d="M 153238.677 -101703.465 153276.364 -101714.898 153311.103 -101733.466 153341.548 -101758.452 153366.534 -101788.897 153385.102 -101823.636 153396.535 -101861.323 153401 -101906.661 153401 -102993.339 153396.535 -103038.677 153385.102 -103076.364 153366.534 -103111.103 153341.548 -103141.548 153311.103 -103166.534 153276.364 -103185.102 153238.677 -103196.535 153193.339 -103201 152356.661 -103201 152311.323 -103196.535 152273.636 -103185.102 152238.897 -103166.534 152208.452 -103141.548 152183.466 -103111.103 152164.898 -103076.364 152153.465 -103038.677 152149 -102993.339 152149 -101906.661 152153.465 -101861.323 152164.898 -101823.636 152183.466 -101788.897 152208.452 -101758.452 152238.897 -101733.466 152273.636 -101714.898 152311.323 -101703.465 152356.661 -101699 153193.339 -101699 153238.677 -101703.465 153238.677 -101703.465"/><path d="M 133710.443 -100565.519 133776.627 -100572.037 133889.853 -100606.384 133946.467 -100623.557 134085.087 -100697.652 134102.991 -100707.222 134138.729 -100736.552 134240.186 -100819.814 134300.578 -100893.403 134352.778 -100957.009 134352.779 -100957.011 134436.443 -101113.533 134436.443 -101113.534 134487.963 -101283.373 134505.359 -101460 134487.963 -101636.627 134469.042 -101699 134436.443 -101806.467 134370.868 -101929.148 134352.778 -101962.991 134347.725 -101969.148 134240.186 -102100.186 134150.242 -102174 134102.991 -102212.778 134102.989 -102212.779 133946.467 -102296.443 133889.853 -102313.616 133776.627 -102347.963 133710.442 -102354.482 133644.26 -102361 133555.74 -102361 133489.557 -102354.481 133423.373 -102347.963 133310.147 -102313.616 133253.533 -102296.443 133097.011 -102212.779 133097.009 -102212.778 133049.758 -102174 132959.814 -102100.186 132852.275 -101969.148 132847.222 -101962.991 132829.132 -101929.148 132763.557 -101806.467 132730.958 -101699 132712.037 -101636.627 132694.641 -101460 132712.037 -101283.373 132763.557 -101113.534 132763.557 -101113.533 132847.221 -100957.011 132847.222 -100957.009 132899.422 -100893.403 132959.814 -100819.814 133061.271 -100736.552 133097.009 -100707.222 133114.913 -100697.652 133253.533 -100623.557 133310.147 -100606.384 133423.373 -100572.037 133489.557 -100565.519 133555.74 -100559 133644.26 -100559 133710.443 -100565.519 133710.443 -100565.519"/><path d="M 160441.252 -98383.999 160443.654 -98408.385 160450.767 -98431.834 160462.318 -98453.445 160477.864 -98472.387 160496.806 -98487.933 160518.417 -98499.484 160541.866 -98506.597 160566.252 -98508.999 161451 -98508.999 161451 -100891.001 160566.252 -100891.001 160541.866 -100893.403 160518.417 -100900.516 160496.806 -100912.067 160477.864 -100927.613 160462.318 -100946.555 160450.767 -100968.166 160443.654 -100991.615 160441.252 -101016.001 160441.252 -101901 158058.748 -101901 158058.748 -101016.001 158056.346 -100991.615 158049.233 -100968.166 158037.682 -100946.555 158022.136 -100927.613 158003.194 -100912.067 157981.583 -100900.516 157958.134 -100893.403 157933.748 -100891.001 157049 -100891.001 157049 -98508.999 157933.748 -98508.999 157958.134 -98506.597 157981.583 -98499.484 158003.194 -98487.933 158022.136 -98472.387 158037.682 -98453.445 158049.233 -98431.834 158056.346 -98408.385 158058.748 -98383.999 158058.748 -97499 160441.252 -97499 160441.252 -98383.999 160441.252 -98383.999"/><path d="M 130675.562 -100053.181 130710.477 -100063.773 130742.665 -100080.978 130770.873 -100104.127 130794.022 -100132.335 130811.227 -100164.523 130821.819 -100199.438 130826 -100241.895 130826 -101383.105 130821.819 -101425.562 130811.227 -101460.477 130794.022 -101492.665 130770.873 -101520.873 130742.665 -101544.022 130710.477 -101561.227 130675.562 -101571.819 130633.105 -101576 129166.895 -101576 129124.438 -101571.819 129089.523 -101561.227 129057.335 -101544.022 129029.127 -101520.873 129005.978 -101492.665 128988.773 -101460.477 128978.181 -101425.562 128974 -101383.105 128974 -100241.895 128978.181 -100199.438 128988.773 -100164.523 129005.978 -100132.335 129029.127 -100104.127 129057.335 -100080.978 129089.523 -100063.773 129124.438 -100053.181 129166.895 -100049 130633.105 -100049 130675.562 -100053.181 130675.562 -100053.181"/><path d="M 138275.562 -98953.181 138310.477 -98963.773 138342.665 -98980.978 138370.873 -99004.127 138394.022 -99032.335 138411.227 -99064.523 138421.819 -99099.438 138426 -99141.895 138426 -100283.105 138421.819 -100325.562 138411.227 -100360.477 138394.022 -100392.665 138370.873 -100420.873 138342.665 -100444.022 138310.477 -100461.227 138275.562 -100471.819 138233.105 -100476 136766.895 -100476 136724.438 -100471.819 136689.523 -100461.227 136657.335 -100444.022 136629.127 -100420.873 136605.978 -100392.665 136588.773 -100360.477 136578.181 -100325.562 136574 -100283.105 136574 -99141.895 136578.181 -99099.438 136588.773 -99064.523 136605.978 -99032.335 136629.127 -99004.127 136657.335 -98980.978 136689.523 -98963.773 136724.438 -98953.181 136766.895 -98949 138233.105 -98949 138275.562 -98953.181 138275.562 -98953.181"/><path d="M 141075.562 -98953.181 141110.477 -98963.773 141142.665 -98980.978 141170.873 -99004.127 141194.022 -99032.335 141211.227 -99064.523 141221.819 -99099.438 141226 -99141.895 141226 -100283.105 141221.819 -100325.562 141211.227 -100360.477 141194.022 -100392.665 141170.873 -100420.873 141142.665 -100444.022 141110.477 -100461.227 141075.562 -100471.819 141033.105 -100476 139566.895 -100476 139524.438 -100471.819 139489.523 -100461.227 139457.335 -100444.022 139429.127 -100420.873 139405.978 -100392.665 139388.773 -100360.477 139378.181 -100325.562 139374 -100283.105 139374 -99141.895 139378.181 -99099.438 139388.773 -99064.523 139405.978 -99032.335 139429.127 -99004.127 139457.335 -98980.978 139489.523 -98963.773 139524.438 -98953.181 139566.895 -98949 141033.105 -98949 141075.562 -98953.181 141075.562 -98953.181"/><path d="M 164610.443 -98245.519 164676.627 -98252.037 164789.853 -98286.384 164846.467 -98303.557 164985.087 -98377.652 165002.991 -98387.222 165028.778 -98408.385 165140.186 -98499.814 165198.837 -98571.282 165252.778 -98637.009 165252.779 -98637.011 165336.443 -98793.533 165336.443 -98793.534 165387.963 -98963.373 165405.359 -99140 165387.963 -99316.627 165381.983 -99336.34 165336.443 -99486.467 165275.982 -99599.579 165252.778 -99642.991 165223.448 -99678.729 165140.186 -99780.186 165046.841 -99856.791 165002.991 -99892.778 165002.989 -99892.779 164846.467 -99976.443 164789.853 -99993.616 164676.627 -100027.963 164610.443 -100034.481 164544.26 -100041 164455.74 -100041 164389.557 -100034.481 164323.373 -100027.963 164210.147 -99993.616 164153.533 -99976.443 163997.011 -99892.779 163997.009 -99892.778 163953.159 -99856.791 163859.814 -99780.186 163776.552 -99678.729 163747.222 -99642.991 163724.018 -99599.579 163663.557 -99486.467 163618.017 -99336.34 163612.037 -99316.627 163594.641 -99140 163612.037 -98963.373 163663.557 -98793.534 163663.557 -98793.533 163747.221 -98637.011 163747.222 -98637.009 163801.163 -98571.282 163859.814 -98499.814 163971.222 -98408.385 163997.009 -98387.222 164014.913 -98377.652 164153.533 -98303.557 164210.147 -98286.384 164323.373 -98252.037 164389.558 -98245.518 164455.74 -98239 164544.26 -98239 164610.443 -98245.519 164610.443 -98245.519"/><path d="M 168910.443 -98245.519 168976.627 -98252.037 169089.853 -98286.384 169146.467 -98303.557 169285.087 -98377.652 169302.991 -98387.222 169328.778 -98408.385 169440.186 -98499.814 169498.837 -98571.282 169552.778 -98637.009 169552.779 -98637.011 169636.443 -98793.533 169636.443 -98793.534 169687.963 -98963.373 169705.359 -99140 169687.963 -99316.627 169681.983 -99336.34 169636.443 -99486.467 169575.982 -99599.579 169552.778 -99642.991 169523.448 -99678.729 169440.186 -99780.186 169346.841 -99856.791 169302.991 -99892.778 169302.989 -99892.779 169146.467 -99976.443 169089.853 -99993.616 168976.627 -100027.963 168910.443 -100034.481 168844.26 -100041 168755.74 -100041 168689.557 -100034.481 168623.373 -100027.963 168510.147 -99993.616 168453.533 -99976.443 168297.011 -99892.779 168297.009 -99892.778 168253.159 -99856.791 168159.814 -99780.186 168076.552 -99678.729 168047.222 -99642.991 168024.018 -99599.579 167963.557 -99486.467 167918.017 -99336.34 167912.037 -99316.627 167894.641 -99140 167912.037 -98963.373 167963.557 -98793.534 167963.557 -98793.533 168047.221 -98637.011 168047.222 -98637.009 168101.163 -98571.282 168159.814 -98499.814 168271.222 -98408.385 168297.009 -98387.222 168314.913 -98377.652 168453.533 -98303.557 168510.147 -98286.384 168623.373 -98252.037 168689.558 -98245.518 168755.74 -98239 168844.26 -98239 168910.443 -98245.519 168910.443 -98245.519"/><path d="M 125551 -99801 123849 -99801 123849 -96199 125551 -96199 125551 -99801 125551 -99801"/><path d="M 148051 -98751 146249 -98751 146249 -96949 148051 -96949 148051 -98751 148051 -98751"/><path d="M 130288.677 -97403.465 130326.364 -97414.898 130361.103 -97433.466 130391.548 -97458.452 130416.534 -97488.897 130435.102 -97523.636 130446.535 -97561.323 130451 -97606.661 130451 -98443.339 130446.535 -98488.677 130435.102 -98526.364 130416.534 -98561.103 130391.548 -98591.548 130361.103 -98616.534 130326.364 -98635.102 130288.677 -98646.535 130243.339 -98651 129156.661 -98651 129111.323 -98646.535 129073.636 -98635.102 129038.897 -98616.534 129008.452 -98591.548 128983.466 -98561.103 128964.898 -98526.364 128953.465 -98488.677 128949 -98443.339 128949 -97606.661 128953.465 -97561.323 128964.898 -97523.636 128983.466 -97488.897 129008.452 -97458.452 129038.897 -97433.466 129073.636 -97414.898 129111.323 -97403.465 129156.661 -97399 130243.339 -97399 130288.677 -97403.465 130288.677 -97403.465"/><path d="M 152056 -98156.7 150974 -98156.7 150974 -94654.7 152056 -94654.7 152056 -98156.7 152056 -98156.7"/><path d="M 154426 -98156.7 153344 -98156.7 153344 -94654.7 154426 -94654.7 154426 -98156.7 154426 -98156.7"/><path d="M 144588.677 -96903.465 144626.364 -96914.898 144661.103 -96933.466 144691.548 -96958.452 144716.534 -96988.897 144735.102 -97023.636 144746.535 -97061.323 144751 -97106.661 144751 -97943.339 144746.535 -97988.677 144735.102 -98026.364 144716.534 -98061.103 144691.548 -98091.548 144661.103 -98116.534 144626.364 -98135.102 144588.677 -98146.535 144543.339 -98151 143456.661 -98151 143411.323 -98146.535 143373.636 -98135.102 143338.897 -98116.534 143308.452 -98091.548 143283.466 -98061.103 143264.898 -98026.364 143253.465 -97988.677 143249 -97943.339 143249 -97106.661 143253.465 -97061.323 143264.898 -97023.636 143283.466 -96988.897 143308.452 -96958.452 143338.897 -96933.466 143373.636 -96914.898 143411.323 -96903.465 143456.661 -96899 144543.339 -96899 144588.677 -96903.465 144588.677 -96903.465"/><path d="M 139788.677 -96653.465 139826.364 -96664.898 139861.103 -96683.466 139891.548 -96708.452 139916.534 -96738.897 139935.102 -96773.636 139946.535 -96811.323 139951 -96856.661 139951 -97943.339 139946.535 -97988.677 139935.102 -98026.364 139916.534 -98061.103 139891.548 -98091.548 139861.103 -98116.534 139826.364 -98135.102 139788.677 -98146.535 139743.339 -98151 138906.661 -98151 138861.323 -98146.535 138823.636 -98135.102 138788.897 -98116.534 138758.452 -98091.548 138733.466 -98061.103 138714.898 -98026.364 138703.465 -97988.677 138699 -97943.339 138699 -96856.661 138703.465 -96811.323 138714.898 -96773.636 138733.466 -96738.897 138758.452 -96708.452 138788.897 -96683.466 138823.636 -96664.898 138861.323 -96653.465 138906.661 -96649 139743.339 -96649 139788.677 -96653.465 139788.677 -96653.465"/><path d="M 142088.677 -96903.465 142126.364 -96914.898 142161.103 -96933.466 142191.548 -96958.452 142216.534 -96988.897 142235.102 -97023.636 142246.535 -97061.323 142251 -97106.661 142251 -97943.339 142246.535 -97988.677 142235.102 -98026.364 142216.534 -98061.103 142191.548 -98091.548 142161.103 -98116.534 142126.364 -98135.102 142088.677 -98146.535 142043.339 -98151 140956.661 -98151 140911.323 -98146.535 140873.636 -98135.102 140838.897 -98116.534 140808.452 -98091.548 140783.466 -98061.103 140764.898 -98026.364 140753.465 -97988.677 140749 -97943.339 140749 -97106.661 140753.465 -97061.323 140764.898 -97023.636 140783.466 -96988.897 140808.452 -96958.452 140838.897 -96933.466 140873.636 -96914.898 140911.323 -96903.465 140956.661 -96899 142043.339 -96899 142088.677 -96903.465 142088.677 -96903.465"/><path d="M 137738.677 -96653.465 137776.364 -96664.898 137811.103 -96683.466 137841.548 -96708.452 137866.534 -96738.897 137885.102 -96773.636 137896.535 -96811.323 137901 -96856.661 137901 -97943.339 137896.535 -97988.677 137885.102 -98026.364 137866.534 -98061.103 137841.548 -98091.548 137811.103 -98116.534 137776.364 -98135.102 137738.677 -98146.535 137693.339 -98151 136856.661 -98151 136811.323 -98146.535 136773.636 -98135.102 136738.897 -98116.534 136708.452 -98091.548 136683.466 -98061.103 136664.898 -98026.364 136653.465 -97988.677 136649 -97943.339 136649 -96856.661 136653.465 -96811.323 136664.898 -96773.636 136683.466 -96738.897 136708.452 -96708.452 136738.897 -96683.466 136773.636 -96664.898 136811.323 -96653.465 136856.661 -96649 137693.339 -96649 137738.677 -96653.465 137738.677 -96653.465"/><path d="M 169701 -97501 167899 -97501 167899 -95699 169701 -95699 169701 -97501 169701 -97501"/><path d="M 165401 -97501 163599 -97501 163599 -95699 165401 -95699 165401 -97501 165401 -97501"/><path d="M 134351 -94124 134353.402 -94148.386 134360.515 -94171.835 134372.066 -94193.446 134387.612 -94212.388 134406.554 -94227.934 134428.165 -94239.485 134451.614 -94246.598 134476 -94249 135376 -94249 135376 -96151 134476 -96151 134451.614 -96153.402 134428.165 -96160.515 134406.554 -96172.066 134387.612 -96187.612 134372.066 -96206.554 134360.515 -96228.165 134353.402 -96251.614 134351 -96276 134351 -97176 132449 -97176 132449 -96276 132446.598 -96251.614 132439.485 -96228.165 132427.934 -96206.554 132412.388 -96187.612 132393.446 -96172.066 132371.835 -96160.515 132348.386 -96153.402 132324 -96151 131424 -96151 131424 -94249 132324 -94249 132348.386 -94246.598 132371.835 -94239.485 132393.446 -94227.934 132412.388 -94212.388 132427.934 -94193.446 132439.485 -94171.835 132446.598 -94148.386 132449 -94124 132449 -93224 134351 -93224 134351 -94124 134351 -94124"/><path d="M 130288.677 -95353.465 130326.364 -95364.898 130361.103 -95383.466 130391.548 -95408.452 130416.534 -95438.897 130435.102 -95473.636 130446.535 -95511.323 130451 -95556.661 130451 -96393.339 130446.535 -96438.677 130435.102 -96476.364 130416.534 -96511.103 130391.548 -96541.548 130361.103 -96566.534 130326.364 -96585.102 130288.677 -96596.535 130243.339 -96601 129156.661 -96601 129111.323 -96596.535 129073.636 -96585.102 129038.897 -96566.534 129008.452 -96541.548 128983.466 -96511.103 128964.898 -96476.364 128953.465 -96438.677 128949 -96393.339 128949 -95556.661 128953.465 -95511.323 128964.898 -95473.636 128983.466 -95438.897 129008.452 -95408.452 129038.897 -95383.466 129073.636 -95364.898 129111.323 -95353.465 129156.661 -95349 130243.339 -95349 130288.677 -95353.465 130288.677 -95353.465"/><path d="M 147260.442 -94415.518 147326.627 -94422.037 147439.853 -94456.384 147496.467 -94473.557 147635.087 -94547.652 147652.991 -94557.222 147688.729 -94586.552 147790.186 -94669.814 147873.448 -94771.271 147902.778 -94807.009 147902.779 -94807.011 147986.443 -94963.533 148000.94 -95011.323 148037.963 -95133.373 148055.359 -95310 148037.963 -95486.627 148028.744 -95517.017 147986.443 -95656.467 147963.708 -95699 147902.778 -95812.991 147873.448 -95848.729 147790.186 -95950.186 147715.957 -96011.103 147652.991 -96062.778 147652.989 -96062.779 147496.467 -96146.443 147450.077 -96160.515 147326.627 -96197.963 147260.443 -96204.481 147194.26 -96211 147105.74 -96211 147039.557 -96204.481 146973.373 -96197.963 146849.923 -96160.515 146803.533 -96146.443 146647.011 -96062.779 146647.009 -96062.778 146584.043 -96011.103 146509.814 -95950.186 146426.552 -95848.729 146397.222 -95812.991 146336.292 -95699 146313.557 -95656.467 146271.256 -95517.017 146262.037 -95486.627 146244.641 -95310 146262.037 -95133.373 146299.06 -95011.323 146313.557 -94963.533 146397.221 -94807.011 146397.222 -94807.009 146426.552 -94771.271 146509.814 -94669.814 146611.271 -94586.552 146647.009 -94557.222 146664.913 -94547.652 146803.533 -94473.557 146860.147 -94456.384 146973.373 -94422.037 147039.558 -94415.518 147105.74 -94409 147194.26 -94409 147260.442 -94415.518 147260.442 -94415.518"/><path d="M 144588.677 -94853.465 144626.364 -94864.898 144661.103 -94883.466 144691.548 -94908.452 144716.534 -94938.897 144735.102 -94973.636 144746.535 -95011.323 144751 -95056.661 144751 -95893.339 144746.535 -95938.677 144735.102 -95976.364 144716.534 -96011.103 144691.548 -96041.548 144661.103 -96066.534 144626.364 -96085.102 144588.677 -96096.535 144543.339 -96101 143456.661 -96101 143411.323 -96096.535 143373.636 -96085.102 143338.897 -96066.534 143308.452 -96041.548 143283.466 -96011.103 143264.898 -95976.364 143253.465 -95938.677 143249 -95893.339 143249 -95056.661 143253.465 -95011.323 143264.898 -94973.636 143283.466 -94938.897 143308.452 -94908.452 143338.897 -94883.466 143373.636 -94864.898 143411.323 -94853.465 143456.661 -94849 144543.339 -94849 144588.677 -94853.465 144588.677 -94853.465"/><path d="M 142088.677 -94853.465 142126.364 -94864.898 142161.103 -94883.466 142191.548 -94908.452 142216.534 -94938.897 142235.102 -94973.636 142246.535 -95011.323 142251 -95056.661 142251 -95893.339 142246.535 -95938.677 142235.102 -95976.364 142216.534 -96011.103 142191.548 -96041.548 142161.103 -96066.534 142126.364 -96085.102 142088.677 -96096.535 142043.339 -96101 140956.661 -96101 140911.323 -96096.535 140873.636 -96085.102 140838.897 -96066.534 140808.452 -96041.548 140783.466 -96011.103 140764.898 -95976.364 140753.465 -95938.677 140749 -95893.339 140749 -95056.661 140753.465 -95011.323 140764.898 -94973.636 140783.466 -94938.897 140808.452 -94908.452 140838.897 -94883.466 140873.636 -94864.898 140911.323 -94853.465 140956.661 -94849 142043.339 -94849 142088.677 -94853.465 142088.677 -94853.465"/><path d="M 172351 -94301 170649 -94301 170649 -90699 172351 -90699 172351 -94301 172351 -94301"/><path d="M 125175.562 -92528.181 125210.477 -92538.773 125242.665 -92555.978 125270.873 -92579.127 125294.022 -92607.335 125311.227 -92639.523 125321.819 -92674.438 125326 -92716.895 125326 -93858.105 125321.819 -93900.562 125311.227 -93935.477 125294.022 -93967.665 125270.873 -93995.873 125242.665 -94019.022 125210.477 -94036.227 125175.562 -94046.819 125133.105 -94051 123666.895 -94051 123624.438 -94046.819 123589.523 -94036.227 123557.335 -94019.022 123529.127 -93995.873 123505.978 -93967.665 123488.773 -93935.477 123478.181 -93900.562 123474 -93858.105 123474 -92716.895 123478.181 -92674.438 123488.773 -92639.523 123505.978 -92607.335 123529.127 -92579.127 123557.335 -92555.978 123589.523 -92538.773 123624.438 -92528.181 123666.895 -92524 125133.105 -92524 125175.562 -92528.181 125175.562 -92528.181"/><path d="M 130375.562 -92528.181 130410.477 -92538.773 130442.665 -92555.978 130470.873 -92579.127 130494.022 -92607.335 130511.227 -92639.523 130521.819 -92674.438 130526 -92716.895 130526 -93858.105 130521.819 -93900.562 130511.227 -93935.477 130494.022 -93967.665 130470.873 -93995.873 130442.665 -94019.022 130410.477 -94036.227 130375.562 -94046.819 130333.105 -94051 128866.895 -94051 128824.438 -94046.819 128789.523 -94036.227 128757.335 -94019.022 128729.127 -93995.873 128705.978 -93967.665 128688.773 -93935.477 128678.181 -93900.562 128674 -93858.105 128674 -92716.895 128678.181 -92674.438 128688.773 -92639.523 128705.978 -92607.335 128729.127 -92579.127 128757.335 -92555.978 128789.523 -92538.773 128824.438 -92528.181 128866.895 -92524 130333.105 -92524 130375.562 -92528.181 130375.562 -92528.181"/><path d="M 127775.562 -92528.181 127810.477 -92538.773 127842.665 -92555.978 127870.873 -92579.127 127894.022 -92607.335 127911.227 -92639.523 127921.819 -92674.438 127926 -92716.895 127926 -93858.105 127921.819 -93900.562 127911.227 -93935.477 127894.022 -93967.665 127870.873 -93995.873 127842.665 -94019.022 127810.477 -94036.227 127775.562 -94046.819 127733.105 -94051 126266.895 -94051 126224.438 -94046.819 126189.523 -94036.227 126157.335 -94019.022 126129.127 -93995.873 126105.978 -93967.665 126088.773 -93935.477 126078.181 -93900.562 126074 -93858.105 126074 -92716.895 126078.181 -92674.438 126088.773 -92639.523 126105.978 -92607.335 126129.127 -92579.127 126157.335 -92555.978 126189.523 -92538.773 126224.438 -92528.181 126266.895 -92524 127733.105 -92524 127775.562 -92528.181 127775.562 -92528.181"/><path d="M 132364.499 -91203.445 132401.993 -91214.819 132436.557 -91233.294 132466.847 -91258.153 132491.706 -91288.443 132510.181 -91323.007 132521.555 -91360.501 132526 -91405.638 132526 -92144.362 132521.555 -92189.499 132510.181 -92226.993 132491.706 -92261.557 132466.847 -92291.847 132436.557 -92316.706 132401.993 -92335.181 132364.499 -92346.555 132319.362 -92351 131680.638 -92351 131635.501 -92346.555 131598.007 -92335.181 131563.443 -92316.706 131533.153 -92291.847 131508.294 -92261.557 131489.819 -92226.993 131478.445 -92189.499 131474 -92144.362 131474 -91405.638 131478.445 -91360.501 131489.819 -91323.007 131508.294 -91288.443 131533.153 -91258.153 131563.443 -91233.294 131598.007 -91214.819 131635.501 -91203.445 131680.638 -91199 132319.362 -91199 132364.499 -91203.445 132364.499 -91203.445"/><path d="M 144551 -91451 142849 -91451 142849 -89749 144551 -89749 144551 -91451 144551 -91451"/><path d="M 127775.562 -89553.181 127810.477 -89563.773 127842.665 -89580.978 127870.873 -89604.127 127894.022 -89632.335 127911.227 -89664.523 127921.819 -89699.438 127926 -89741.895 127926 -90883.105 127921.819 -90925.562 127911.227 -90960.477 127894.022 -90992.665 127870.873 -91020.873 127842.665 -91044.022 127810.477 -91061.227 127775.562 -91071.819 127733.105 -91076 126266.895 -91076 126224.438 -91071.819 126189.523 -91061.227 126157.335 -91044.022 126129.127 -91020.873 126105.978 -90992.665 126088.773 -90960.477 126078.181 -90925.562 126074 -90883.105 126074 -89741.895 126078.181 -89699.438 126088.773 -89664.523 126105.978 -89632.335 126129.127 -89604.127 126157.335 -89580.978 126189.523 -89563.773 126224.438 -89553.181 126266.895 -89549 127733.105 -89549 127775.562 -89553.181 127775.562 -89553.181"/><path d="M 125175.562 -89553.181 125210.477 -89563.773 125242.665 -89580.978 125270.873 -89604.127 125294.022 -89632.335 125311.227 -89664.523 125321.819 -89699.438 125326 -89741.895 125326 -90883.105 125321.819 -90925.562 125311.227 -90960.477 125294.022 -90992.665 125270.873 -91020.873 125242.665 -91044.022 125210.477 -91061.227 125175.562 -91071.819 125133.105 -91076 123666.895 -91076 123624.438 -91071.819 123589.523 -91061.227 123557.335 -91044.022 123529.127 -91020.873 123505.978 -90992.665 123488.773 -90960.477 123478.181 -90925.562 123474 -90883.105 123474 -89741.895 123478.181 -89699.438 123488.773 -89664.523 123505.978 -89632.335 123529.127 -89604.127 123557.335 -89580.978 123589.523 -89563.773 123624.438 -89553.181 123666.895 -89549 125133.105 -89549 125175.562 -89553.181 125175.562 -89553.181"/><path d="M 130375.562 -89553.181 130410.477 -89563.773 130442.665 -89580.978 130470.873 -89604.127 130494.022 -89632.335 130511.227 -89664.523 130521.819 -89699.438 130526 -89741.895 130526 -90883.105 130521.819 -90925.562 130511.227 -90960.477 130494.022 -90992.665 130470.873 -91020.873 130442.665 -91044.022 130410.477 -91061.227 130375.562 -91071.819 130333.105 -91076 128866.895 -91076 128824.438 -91071.819 128789.523 -91061.227 128757.335 -91044.022 128729.127 -91020.873 128705.978 -90992.665 128688.773 -90960.477 128678.181 -90925.562 128674 -90883.105 128674 -89741.895 128678.181 -89699.438 128688.773 -89664.523 128705.978 -89632.335 128729.127 -89604.127 128757.335 -89580.978 128789.523 -89563.773 128824.438 -89553.181 128866.895 -89549 130333.105 -89549 130375.562 -89553.181 130375.562 -89553.181"/><path d="M 136006 -90901 134924 -90901 134924 -87399 136006 -87399 136006 -90901 136006 -90901"/><path d="M 138376 -90901 137294 -90901 137294 -87399 138376 -87399 138376 -90901 138376 -90901"/><path d="M 132364.499 -89453.445 132401.993 -89464.819 132436.557 -89483.294 132466.847 -89508.153 132491.706 -89538.443 132510.181 -89573.007 132521.555 -89610.501 132526 -89655.638 132526 -90394.362 132521.555 -90439.499 132510.181 -90476.993 132491.706 -90511.557 132466.847 -90541.847 132436.557 -90566.706 132401.993 -90585.181 132364.499 -90596.555 132319.362 -90601 131680.638 -90601 131635.501 -90596.555 131598.007 -90585.181 131563.443 -90566.706 131533.153 -90541.847 131508.294 -90511.557 131489.819 -90476.993 131478.445 -90439.499 131474 -90394.362 131474 -89655.638 131478.445 -89610.501 131489.819 -89573.007 131508.294 -89538.443 131533.153 -89508.153 131563.443 -89483.294 131598.007 -89464.819 131635.501 -89453.445 131680.638 -89449 132319.362 -89449 132364.499 -89453.445 132364.499 -89453.445"/><path d="M 172351 -88701 170649 -88701 170649 -85099 172351 -85099 172351 -88701 172351 -88701"/><path d="M 131801 -88001 129999 -88001 129999 -86199 131801 -86199 131801 -88001 131801 -88001"/><path d="M 128470.443 -86205.519 128536.627 -86212.037 128649.853 -86246.384 128706.467 -86263.557 128845.087 -86337.652 128862.991 -86347.222 128898.729 -86376.552 129000.186 -86459.814 129080.369 -86557.519 129112.778 -86597.009 129112.779 -86597.011 129196.443 -86753.533 129196.443 -86753.534 129247.963 -86923.373 129265.359 -87100 129247.963 -87276.627 129226.243 -87348.228 129196.443 -87446.467 129122.348 -87585.087 129112.778 -87602.991 129083.448 -87638.729 129000.186 -87740.186 128898.729 -87823.448 128862.991 -87852.778 128862.989 -87852.779 128706.467 -87936.443 128658.478 -87951 128536.627 -87987.963 128470.442 -87994.482 128404.26 -88001 128315.74 -88001 128249.558 -87994.482 128183.373 -87987.963 128061.522 -87951 128013.533 -87936.443 127857.011 -87852.779 127857.009 -87852.778 127821.271 -87823.448 127719.814 -87740.186 127636.552 -87638.729 127607.222 -87602.991 127597.652 -87585.087 127523.557 -87446.467 127493.757 -87348.228 127472.037 -87276.627 127454.641 -87100 127472.037 -86923.373 127523.557 -86753.534 127523.557 -86753.533 127607.221 -86597.011 127607.222 -86597.009 127639.631 -86557.519 127719.814 -86459.814 127821.271 -86376.552 127857.009 -86347.222 127874.913 -86337.652 128013.533 -86263.557 128070.147 -86246.384 128183.373 -86212.037 128249.557 -86205.519 128315.74 -86199 128404.26 -86199 128470.443 -86205.519 128470.443 -86205.519"/><path d="M 122901 -88001 121099 -88001 121099 -86199 122901 -86199 122901 -88001 122901 -88001"/><path d="M 124650.443 -86205.519 124716.627 -86212.037 124829.853 -86246.384 124886.467 -86263.557 125025.087 -86337.652 125042.991 -86347.222 125078.729 -86376.552 125180.186 -86459.814 125260.369 -86557.519 125292.778 -86597.009 125292.779 -86597.011 125376.443 -86753.533 125376.443 -86753.534 125427.963 -86923.373 125445.359 -87100 125427.963 -87276.627 125406.243 -87348.228 125376.443 -87446.467 125302.348 -87585.087 125292.778 -87602.991 125263.448 -87638.729 125180.186 -87740.186 125078.729 -87823.448 125042.991 -87852.778 125042.989 -87852.779 124886.467 -87936.443 124838.478 -87951 124716.627 -87987.963 124650.442 -87994.482 124584.26 -88001 124495.74 -88001 124429.558 -87994.482 124363.373 -87987.963 124241.522 -87951 124193.533 -87936.443 124037.011 -87852.779 124037.009 -87852.778 124001.271 -87823.448 123899.814 -87740.186 123816.552 -87638.729 123787.222 -87602.991 123777.652 -87585.087 123703.557 -87446.467 123673.757 -87348.228 123652.037 -87276.627 123634.641 -87100 123652.037 -86923.373 123703.557 -86753.534 123703.557 -86753.533 123787.221 -86597.011 123787.222 -86597.009 123819.631 -86557.519 123899.814 -86459.814 124001.271 -86376.552 124037.009 -86347.222 124054.913 -86337.652 124193.533 -86263.557 124250.147 -86246.384 124363.373 -86212.037 124429.557 -86205.519 124495.74 -86199 124584.26 -86199 124650.443 -86205.519 124650.443 -86205.519"/><path d="M 143948.228 -86281.703 144103.1 -86345.853 144242.481 -86438.985 144361.015 -86557.519 144454.147 -86696.9 144518.297 -86851.772 144551 -87016.184 144551 -87183.816 144518.297 -87348.228 144454.147 -87503.1 144361.015 -87642.481 144242.481 -87761.015 144103.1 -87854.147 143948.228 -87918.297 143783.816 -87951 143616.184 -87951 143451.772 -87918.297 143296.9 -87854.147 143157.519 -87761.015 143038.985 -87642.481 142945.853 -87503.1 142881.703 -87348.228 142849 -87183.816 142849 -87016.184 142881.703 -86851.772 142945.853 -86696.9 143038.985 -86557.519 143157.519 -86438.985 143296.9 -86345.853 143451.772 -86281.703 143616.184 -86249 143783.816 -86249 143948.228 -86281.703 143948.228 -86281.703"/></g></svg>