G04 #@! TF.GenerationSoftware,KiCad,Pcbnew,(5.0.1)-3*
G04 #@! TF.CreationDate,2020-03-31T21:31:38+02:00*
G04 #@! TF.ProjectId,schema_pcb,736368656D615F7063622E6B69636164,rev?*
G04 #@! TF.SameCoordinates,Original*
G04 #@! TF.FileFunction,Copper,L2,Bot,Signal*
G04 #@! TF.FilePolarity,Positive*
%FSLAX46Y46*%
G04 Gerber Fmt 4.6, Leading zero omitted, Abs format (unit mm)*
G04 Created by KiCad (PCBNEW (5.0.1)-3) date 31/03/2020 21:31:38*
%MOMM*%
%LPD*%
G01*
G04 APERTURE LIST*
G04 #@! TA.AperFunction,ComponentPad*
%ADD10O,1.700000X1.700000*%
G04 #@! TD*
G04 #@! TA.AperFunction,ComponentPad*
%ADD11R,1.700000X1.700000*%
G04 #@! TD*
G04 #@! TA.AperFunction,ComponentPad*
%ADD12C,1.600000*%
G04 #@! TD*
G04 #@! TA.AperFunction,ComponentPad*
%ADD13R,1.600000X1.600000*%
G04 #@! TD*
G04 #@! TA.AperFunction,ComponentPad*
%ADD14C,0.508000*%
G04 #@! TD*
G04 #@! TA.AperFunction,ViaPad*
%ADD15C,1.200000*%
G04 #@! TD*
G04 #@! TA.AperFunction,Conductor*
%ADD16C,0.500000*%
G04 #@! TD*
G04 #@! TA.AperFunction,Conductor*
%ADD17C,0.254000*%
G04 #@! TD*
G04 APERTURE END LIST*
D10*
G04 #@! TO.P,BT1,2*
G04 #@! TO.N,GND*
X164500000Y-99140000D03*
D11*
G04 #@! TO.P,BT1,1*
G04 #@! TO.N,Net-(BT1-Pad1)*
X164500000Y-96600000D03*
G04 #@! TD*
G04 #@! TO.P,J4,1*
G04 #@! TO.N,GND*
X147150000Y-97850000D03*
D10*
G04 #@! TO.P,J4,2*
G04 #@! TO.N,/BatteryLoader/input*
X147150000Y-95310000D03*
G04 #@! TD*
G04 #@! TO.P,SolarPanel IN,2*
G04 #@! TO.N,Net-(Cin1_1-Pad1)*
X124540000Y-87100000D03*
D11*
G04 #@! TO.P,SolarPanel IN,1*
G04 #@! TO.N,GND*
X122000000Y-87100000D03*
G04 #@! TD*
D10*
G04 #@! TO.P,meas,2*
G04 #@! TO.N,Net-(Cin1_1-Pad1)*
X128360000Y-87100000D03*
D11*
G04 #@! TO.P,meas,1*
G04 #@! TO.N,GND*
X130900000Y-87100000D03*
G04 #@! TD*
G04 #@! TO.P,J3,1*
G04 #@! TO.N,Net-(J3-Pad1)*
X133600000Y-104000000D03*
D10*
G04 #@! TO.P,J3,2*
G04 #@! TO.N,Net-(J3-Pad2)*
X133600000Y-101460000D03*
G04 #@! TD*
D11*
G04 #@! TO.P,J5,1*
G04 #@! TO.N,GND*
X152300000Y-108000000D03*
D10*
G04 #@! TO.P,J5,2*
G04 #@! TO.N,Net-(CREF2-Pad1)*
X152300000Y-105460000D03*
G04 #@! TD*
D11*
G04 #@! TO.P,J6,1*
G04 #@! TO.N,Net-(BT1-Pad1)*
X168800000Y-96600000D03*
D10*
G04 #@! TO.P,J6,2*
G04 #@! TO.N,GND*
X168800000Y-99140000D03*
G04 #@! TD*
G04 #@! TO.P,3.3V,8*
G04 #@! TO.N,Net-(C6-Pad1)*
X124820000Y-116500000D03*
G04 #@! TO.P,3.3V,7*
X127360000Y-116500000D03*
G04 #@! TO.P,3.3V,6*
X129900000Y-116500000D03*
G04 #@! TO.P,3.3V,5*
X132440000Y-116500000D03*
G04 #@! TO.P,3.3V,4*
X134980000Y-116500000D03*
G04 #@! TO.P,3.3V,3*
X137520000Y-116500000D03*
G04 #@! TO.P,3.3V,2*
X140060000Y-116500000D03*
D11*
G04 #@! TO.P,3.3V,1*
X142600000Y-116500000D03*
G04 #@! TD*
G04 #@! TO.P,,1*
G04 #@! TO.N,Net-(C6-Pad1)*
X146800000Y-116500000D03*
D10*
G04 #@! TO.P,,2*
X149340000Y-116500000D03*
G04 #@! TO.P,,3*
X151880000Y-116500000D03*
G04 #@! TO.P,,4*
X154420000Y-116500000D03*
G04 #@! TO.P,,5*
X156960000Y-116500000D03*
G04 #@! TO.P,,6*
X159500000Y-116500000D03*
G04 #@! TO.P,,7*
X162040000Y-116500000D03*
G04 #@! TO.P,,8*
X164580000Y-116500000D03*
G04 #@! TD*
G04 #@! TO.P,GND,8*
G04 #@! TO.N,GND*
X164580000Y-112600000D03*
G04 #@! TO.P,GND,7*
X162040000Y-112600000D03*
G04 #@! TO.P,GND,6*
X159500000Y-112600000D03*
G04 #@! TO.P,GND,5*
X156960000Y-112600000D03*
G04 #@! TO.P,GND,4*
X154420000Y-112600000D03*
G04 #@! TO.P,GND,3*
X151880000Y-112600000D03*
G04 #@! TO.P,GND,2*
X149340000Y-112600000D03*
D11*
G04 #@! TO.P,GND,1*
X146800000Y-112600000D03*
G04 #@! TD*
G04 #@! TO.P,,1*
G04 #@! TO.N,GND*
X142600000Y-112600000D03*
D10*
G04 #@! TO.P,,2*
X140060000Y-112600000D03*
G04 #@! TO.P,,3*
X137520000Y-112600000D03*
G04 #@! TO.P,,4*
X134980000Y-112600000D03*
G04 #@! TO.P,,5*
X132440000Y-112600000D03*
G04 #@! TO.P,,6*
X129900000Y-112600000D03*
G04 #@! TO.P,,7*
X127360000Y-112600000D03*
G04 #@! TO.P,,8*
X124820000Y-112600000D03*
G04 #@! TD*
D12*
G04 #@! TO.P,SUPERCAP,2*
G04 #@! TO.N,GND*
X143700000Y-87100000D03*
D13*
G04 #@! TO.P,SUPERCAP,1*
G04 #@! TO.N,Net-(SUPERCAP1-Pad1)*
X143700000Y-90600000D03*
G04 #@! TD*
D14*
G04 #@! TO.P,,V*
G04 #@! TO.N,N/C*
X158856300Y-100093700D03*
X158856300Y-99306300D03*
X159643700Y-100093700D03*
X159643700Y-99306300D03*
G04 #@! TD*
D15*
G04 #@! TO.N,Net-(C5-Pad1)*
X161200000Y-94550000D03*
X154800002Y-102450000D03*
G04 #@! TO.N,Net-(CSTORE1-Pad1)*
X127800000Y-106500000D03*
X137099999Y-93400000D03*
G04 #@! TD*
D16*
G04 #@! TO.N,Net-(C5-Pad1)*
X154800002Y-100949998D02*
X154800002Y-101601472D01*
X154800002Y-101601472D02*
X154800002Y-102450000D01*
X161200000Y-94550000D02*
X154800002Y-100949998D01*
G04 #@! TO.N,Net-(CSTORE1-Pad1)*
X127800000Y-106500000D02*
X127800000Y-106500000D01*
X127800000Y-106500000D02*
X127800000Y-102699999D01*
X127800000Y-102699999D02*
X136500000Y-93999999D01*
X136500000Y-93999999D02*
X137099999Y-93400000D01*
G04 #@! TD*
D17*
G04 #@! TO.N,Net-(C6-Pad1)*
G36*
X175820001Y-118670000D02*
X120090000Y-118670000D01*
X120090000Y-116856892D01*
X123378514Y-116856892D01*
X123624817Y-117381358D01*
X124053076Y-117771645D01*
X124463110Y-117941476D01*
X124693000Y-117820155D01*
X124693000Y-116627000D01*
X124947000Y-116627000D01*
X124947000Y-117820155D01*
X125176890Y-117941476D01*
X125586924Y-117771645D01*
X126015183Y-117381358D01*
X126090000Y-117222046D01*
X126164817Y-117381358D01*
X126593076Y-117771645D01*
X127003110Y-117941476D01*
X127233000Y-117820155D01*
X127233000Y-116627000D01*
X127487000Y-116627000D01*
X127487000Y-117820155D01*
X127716890Y-117941476D01*
X128126924Y-117771645D01*
X128555183Y-117381358D01*
X128630000Y-117222046D01*
X128704817Y-117381358D01*
X129133076Y-117771645D01*
X129543110Y-117941476D01*
X129773000Y-117820155D01*
X129773000Y-116627000D01*
X130027000Y-116627000D01*
X130027000Y-117820155D01*
X130256890Y-117941476D01*
X130666924Y-117771645D01*
X131095183Y-117381358D01*
X131170000Y-117222046D01*
X131244817Y-117381358D01*
X131673076Y-117771645D01*
X132083110Y-117941476D01*
X132313000Y-117820155D01*
X132313000Y-116627000D01*
X132567000Y-116627000D01*
X132567000Y-117820155D01*
X132796890Y-117941476D01*
X133206924Y-117771645D01*
X133635183Y-117381358D01*
X133710000Y-117222046D01*
X133784817Y-117381358D01*
X134213076Y-117771645D01*
X134623110Y-117941476D01*
X134853000Y-117820155D01*
X134853000Y-116627000D01*
X135107000Y-116627000D01*
X135107000Y-117820155D01*
X135336890Y-117941476D01*
X135746924Y-117771645D01*
X136175183Y-117381358D01*
X136250000Y-117222046D01*
X136324817Y-117381358D01*
X136753076Y-117771645D01*
X137163110Y-117941476D01*
X137393000Y-117820155D01*
X137393000Y-116627000D01*
X137647000Y-116627000D01*
X137647000Y-117820155D01*
X137876890Y-117941476D01*
X138286924Y-117771645D01*
X138715183Y-117381358D01*
X138790000Y-117222046D01*
X138864817Y-117381358D01*
X139293076Y-117771645D01*
X139703110Y-117941476D01*
X139933000Y-117820155D01*
X139933000Y-116627000D01*
X140187000Y-116627000D01*
X140187000Y-117820155D01*
X140416890Y-117941476D01*
X140826924Y-117771645D01*
X141124864Y-117500122D01*
X141211673Y-117709698D01*
X141390301Y-117888327D01*
X141623690Y-117985000D01*
X142314250Y-117985000D01*
X142473000Y-117826250D01*
X142473000Y-116627000D01*
X142727000Y-116627000D01*
X142727000Y-117826250D01*
X142885750Y-117985000D01*
X143576310Y-117985000D01*
X143809699Y-117888327D01*
X143988327Y-117709698D01*
X144085000Y-117476309D01*
X144085000Y-116785750D01*
X145315000Y-116785750D01*
X145315000Y-117476309D01*
X145411673Y-117709698D01*
X145590301Y-117888327D01*
X145823690Y-117985000D01*
X146514250Y-117985000D01*
X146673000Y-117826250D01*
X146673000Y-116627000D01*
X146927000Y-116627000D01*
X146927000Y-117826250D01*
X147085750Y-117985000D01*
X147776310Y-117985000D01*
X148009699Y-117888327D01*
X148188327Y-117709698D01*
X148275136Y-117500122D01*
X148573076Y-117771645D01*
X148983110Y-117941476D01*
X149213000Y-117820155D01*
X149213000Y-116627000D01*
X149467000Y-116627000D01*
X149467000Y-117820155D01*
X149696890Y-117941476D01*
X150106924Y-117771645D01*
X150535183Y-117381358D01*
X150610000Y-117222046D01*
X150684817Y-117381358D01*
X151113076Y-117771645D01*
X151523110Y-117941476D01*
X151753000Y-117820155D01*
X151753000Y-116627000D01*
X152007000Y-116627000D01*
X152007000Y-117820155D01*
X152236890Y-117941476D01*
X152646924Y-117771645D01*
X153075183Y-117381358D01*
X153150000Y-117222046D01*
X153224817Y-117381358D01*
X153653076Y-117771645D01*
X154063110Y-117941476D01*
X154293000Y-117820155D01*
X154293000Y-116627000D01*
X154547000Y-116627000D01*
X154547000Y-117820155D01*
X154776890Y-117941476D01*
X155186924Y-117771645D01*
X155615183Y-117381358D01*
X155690000Y-117222046D01*
X155764817Y-117381358D01*
X156193076Y-117771645D01*
X156603110Y-117941476D01*
X156833000Y-117820155D01*
X156833000Y-116627000D01*
X157087000Y-116627000D01*
X157087000Y-117820155D01*
X157316890Y-117941476D01*
X157726924Y-117771645D01*
X158155183Y-117381358D01*
X158230000Y-117222046D01*
X158304817Y-117381358D01*
X158733076Y-117771645D01*
X159143110Y-117941476D01*
X159373000Y-117820155D01*
X159373000Y-116627000D01*
X159627000Y-116627000D01*
X159627000Y-117820155D01*
X159856890Y-117941476D01*
X160266924Y-117771645D01*
X160695183Y-117381358D01*
X160770000Y-117222046D01*
X160844817Y-117381358D01*
X161273076Y-117771645D01*
X161683110Y-117941476D01*
X161913000Y-117820155D01*
X161913000Y-116627000D01*
X162167000Y-116627000D01*
X162167000Y-117820155D01*
X162396890Y-117941476D01*
X162806924Y-117771645D01*
X163235183Y-117381358D01*
X163310000Y-117222046D01*
X163384817Y-117381358D01*
X163813076Y-117771645D01*
X164223110Y-117941476D01*
X164453000Y-117820155D01*
X164453000Y-116627000D01*
X164707000Y-116627000D01*
X164707000Y-117820155D01*
X164936890Y-117941476D01*
X165346924Y-117771645D01*
X165775183Y-117381358D01*
X166021486Y-116856892D01*
X165900819Y-116627000D01*
X164707000Y-116627000D01*
X164453000Y-116627000D01*
X162167000Y-116627000D01*
X161913000Y-116627000D01*
X159627000Y-116627000D01*
X159373000Y-116627000D01*
X157087000Y-116627000D01*
X156833000Y-116627000D01*
X154547000Y-116627000D01*
X154293000Y-116627000D01*
X152007000Y-116627000D01*
X151753000Y-116627000D01*
X149467000Y-116627000D01*
X149213000Y-116627000D01*
X146927000Y-116627000D01*
X146673000Y-116627000D01*
X145473750Y-116627000D01*
X145315000Y-116785750D01*
X144085000Y-116785750D01*
X143926250Y-116627000D01*
X142727000Y-116627000D01*
X142473000Y-116627000D01*
X140187000Y-116627000D01*
X139933000Y-116627000D01*
X137647000Y-116627000D01*
X137393000Y-116627000D01*
X135107000Y-116627000D01*
X134853000Y-116627000D01*
X132567000Y-116627000D01*
X132313000Y-116627000D01*
X130027000Y-116627000D01*
X129773000Y-116627000D01*
X127487000Y-116627000D01*
X127233000Y-116627000D01*
X124947000Y-116627000D01*
X124693000Y-116627000D01*
X123499181Y-116627000D01*
X123378514Y-116856892D01*
X120090000Y-116856892D01*
X120090000Y-116143108D01*
X123378514Y-116143108D01*
X123499181Y-116373000D01*
X124693000Y-116373000D01*
X124693000Y-115179845D01*
X124947000Y-115179845D01*
X124947000Y-116373000D01*
X127233000Y-116373000D01*
X127233000Y-115179845D01*
X127487000Y-115179845D01*
X127487000Y-116373000D01*
X129773000Y-116373000D01*
X129773000Y-115179845D01*
X130027000Y-115179845D01*
X130027000Y-116373000D01*
X132313000Y-116373000D01*
X132313000Y-115179845D01*
X132567000Y-115179845D01*
X132567000Y-116373000D01*
X134853000Y-116373000D01*
X134853000Y-115179845D01*
X135107000Y-115179845D01*
X135107000Y-116373000D01*
X137393000Y-116373000D01*
X137393000Y-115179845D01*
X137647000Y-115179845D01*
X137647000Y-116373000D01*
X139933000Y-116373000D01*
X139933000Y-115179845D01*
X140187000Y-115179845D01*
X140187000Y-116373000D01*
X142473000Y-116373000D01*
X142473000Y-115173750D01*
X142727000Y-115173750D01*
X142727000Y-116373000D01*
X143926250Y-116373000D01*
X144085000Y-116214250D01*
X144085000Y-115523691D01*
X145315000Y-115523691D01*
X145315000Y-116214250D01*
X145473750Y-116373000D01*
X146673000Y-116373000D01*
X146673000Y-115173750D01*
X146927000Y-115173750D01*
X146927000Y-116373000D01*
X149213000Y-116373000D01*
X149213000Y-115179845D01*
X149467000Y-115179845D01*
X149467000Y-116373000D01*
X151753000Y-116373000D01*
X151753000Y-115179845D01*
X152007000Y-115179845D01*
X152007000Y-116373000D01*
X154293000Y-116373000D01*
X154293000Y-115179845D01*
X154547000Y-115179845D01*
X154547000Y-116373000D01*
X156833000Y-116373000D01*
X156833000Y-115179845D01*
X157087000Y-115179845D01*
X157087000Y-116373000D01*
X159373000Y-116373000D01*
X159373000Y-115179845D01*
X159627000Y-115179845D01*
X159627000Y-116373000D01*
X161913000Y-116373000D01*
X161913000Y-115179845D01*
X162167000Y-115179845D01*
X162167000Y-116373000D01*
X164453000Y-116373000D01*
X164453000Y-115179845D01*
X164707000Y-115179845D01*
X164707000Y-116373000D01*
X165900819Y-116373000D01*
X166021486Y-116143108D01*
X165775183Y-115618642D01*
X165346924Y-115228355D01*
X164936890Y-115058524D01*
X164707000Y-115179845D01*
X164453000Y-115179845D01*
X164223110Y-115058524D01*
X163813076Y-115228355D01*
X163384817Y-115618642D01*
X163310000Y-115777954D01*
X163235183Y-115618642D01*
X162806924Y-115228355D01*
X162396890Y-115058524D01*
X162167000Y-115179845D01*
X161913000Y-115179845D01*
X161683110Y-115058524D01*
X161273076Y-115228355D01*
X160844817Y-115618642D01*
X160770000Y-115777954D01*
X160695183Y-115618642D01*
X160266924Y-115228355D01*
X159856890Y-115058524D01*
X159627000Y-115179845D01*
X159373000Y-115179845D01*
X159143110Y-115058524D01*
X158733076Y-115228355D01*
X158304817Y-115618642D01*
X158230000Y-115777954D01*
X158155183Y-115618642D01*
X157726924Y-115228355D01*
X157316890Y-115058524D01*
X157087000Y-115179845D01*
X156833000Y-115179845D01*
X156603110Y-115058524D01*
X156193076Y-115228355D01*
X155764817Y-115618642D01*
X155690000Y-115777954D01*
X155615183Y-115618642D01*
X155186924Y-115228355D01*
X154776890Y-115058524D01*
X154547000Y-115179845D01*
X154293000Y-115179845D01*
X154063110Y-115058524D01*
X153653076Y-115228355D01*
X153224817Y-115618642D01*
X153150000Y-115777954D01*
X153075183Y-115618642D01*
X152646924Y-115228355D01*
X152236890Y-115058524D01*
X152007000Y-115179845D01*
X151753000Y-115179845D01*
X151523110Y-115058524D01*
X151113076Y-115228355D01*
X150684817Y-115618642D01*
X150610000Y-115777954D01*
X150535183Y-115618642D01*
X150106924Y-115228355D01*
X149696890Y-115058524D01*
X149467000Y-115179845D01*
X149213000Y-115179845D01*
X148983110Y-115058524D01*
X148573076Y-115228355D01*
X148275136Y-115499878D01*
X148188327Y-115290302D01*
X148009699Y-115111673D01*
X147776310Y-115015000D01*
X147085750Y-115015000D01*
X146927000Y-115173750D01*
X146673000Y-115173750D01*
X146514250Y-115015000D01*
X145823690Y-115015000D01*
X145590301Y-115111673D01*
X145411673Y-115290302D01*
X145315000Y-115523691D01*
X144085000Y-115523691D01*
X143988327Y-115290302D01*
X143809699Y-115111673D01*
X143576310Y-115015000D01*
X142885750Y-115015000D01*
X142727000Y-115173750D01*
X142473000Y-115173750D01*
X142314250Y-115015000D01*
X141623690Y-115015000D01*
X141390301Y-115111673D01*
X141211673Y-115290302D01*
X141124864Y-115499878D01*
X140826924Y-115228355D01*
X140416890Y-115058524D01*
X140187000Y-115179845D01*
X139933000Y-115179845D01*
X139703110Y-115058524D01*
X139293076Y-115228355D01*
X138864817Y-115618642D01*
X138790000Y-115777954D01*
X138715183Y-115618642D01*
X138286924Y-115228355D01*
X137876890Y-115058524D01*
X137647000Y-115179845D01*
X137393000Y-115179845D01*
X137163110Y-115058524D01*
X136753076Y-115228355D01*
X136324817Y-115618642D01*
X136250000Y-115777954D01*
X136175183Y-115618642D01*
X135746924Y-115228355D01*
X135336890Y-115058524D01*
X135107000Y-115179845D01*
X134853000Y-115179845D01*
X134623110Y-115058524D01*
X134213076Y-115228355D01*
X133784817Y-115618642D01*
X133710000Y-115777954D01*
X133635183Y-115618642D01*
X133206924Y-115228355D01*
X132796890Y-115058524D01*
X132567000Y-115179845D01*
X132313000Y-115179845D01*
X132083110Y-115058524D01*
X131673076Y-115228355D01*
X131244817Y-115618642D01*
X131170000Y-115777954D01*
X131095183Y-115618642D01*
X130666924Y-115228355D01*
X130256890Y-115058524D01*
X130027000Y-115179845D01*
X129773000Y-115179845D01*
X129543110Y-115058524D01*
X129133076Y-115228355D01*
X128704817Y-115618642D01*
X128630000Y-115777954D01*
X128555183Y-115618642D01*
X128126924Y-115228355D01*
X127716890Y-115058524D01*
X127487000Y-115179845D01*
X127233000Y-115179845D01*
X127003110Y-115058524D01*
X126593076Y-115228355D01*
X126164817Y-115618642D01*
X126090000Y-115777954D01*
X126015183Y-115618642D01*
X125586924Y-115228355D01*
X125176890Y-115058524D01*
X124947000Y-115179845D01*
X124693000Y-115179845D01*
X124463110Y-115058524D01*
X124053076Y-115228355D01*
X123624817Y-115618642D01*
X123378514Y-116143108D01*
X120090000Y-116143108D01*
X120090000Y-114427000D01*
X167640000Y-114427000D01*
X167688601Y-114417333D01*
X167729803Y-114389803D01*
X167757333Y-114348601D01*
X167767000Y-114300000D01*
X167767000Y-108077000D01*
X175820001Y-108077000D01*
X175820001Y-118670000D01*
X175820001Y-118670000D01*
G37*
X175820001Y-118670000D02*
X120090000Y-118670000D01*
X120090000Y-116856892D01*
X123378514Y-116856892D01*
X123624817Y-117381358D01*
X124053076Y-117771645D01*
X124463110Y-117941476D01*
X124693000Y-117820155D01*
X124693000Y-116627000D01*
X124947000Y-116627000D01*
X124947000Y-117820155D01*
X125176890Y-117941476D01*
X125586924Y-117771645D01*
X126015183Y-117381358D01*
X126090000Y-117222046D01*
X126164817Y-117381358D01*
X126593076Y-117771645D01*
X127003110Y-117941476D01*
X127233000Y-117820155D01*
X127233000Y-116627000D01*
X127487000Y-116627000D01*
X127487000Y-117820155D01*
X127716890Y-117941476D01*
X128126924Y-117771645D01*
X128555183Y-117381358D01*
X128630000Y-117222046D01*
X128704817Y-117381358D01*
X129133076Y-117771645D01*
X129543110Y-117941476D01*
X129773000Y-117820155D01*
X129773000Y-116627000D01*
X130027000Y-116627000D01*
X130027000Y-117820155D01*
X130256890Y-117941476D01*
X130666924Y-117771645D01*
X131095183Y-117381358D01*
X131170000Y-117222046D01*
X131244817Y-117381358D01*
X131673076Y-117771645D01*
X132083110Y-117941476D01*
X132313000Y-117820155D01*
X132313000Y-116627000D01*
X132567000Y-116627000D01*
X132567000Y-117820155D01*
X132796890Y-117941476D01*
X133206924Y-117771645D01*
X133635183Y-117381358D01*
X133710000Y-117222046D01*
X133784817Y-117381358D01*
X134213076Y-117771645D01*
X134623110Y-117941476D01*
X134853000Y-117820155D01*
X134853000Y-116627000D01*
X135107000Y-116627000D01*
X135107000Y-117820155D01*
X135336890Y-117941476D01*
X135746924Y-117771645D01*
X136175183Y-117381358D01*
X136250000Y-117222046D01*
X136324817Y-117381358D01*
X136753076Y-117771645D01*
X137163110Y-117941476D01*
X137393000Y-117820155D01*
X137393000Y-116627000D01*
X137647000Y-116627000D01*
X137647000Y-117820155D01*
X137876890Y-117941476D01*
X138286924Y-117771645D01*
X138715183Y-117381358D01*
X138790000Y-117222046D01*
X138864817Y-117381358D01*
X139293076Y-117771645D01*
X139703110Y-117941476D01*
X139933000Y-117820155D01*
X139933000Y-116627000D01*
X140187000Y-116627000D01*
X140187000Y-117820155D01*
X140416890Y-117941476D01*
X140826924Y-117771645D01*
X141124864Y-117500122D01*
X141211673Y-117709698D01*
X141390301Y-117888327D01*
X141623690Y-117985000D01*
X142314250Y-117985000D01*
X142473000Y-117826250D01*
X142473000Y-116627000D01*
X142727000Y-116627000D01*
X142727000Y-117826250D01*
X142885750Y-117985000D01*
X143576310Y-117985000D01*
X143809699Y-117888327D01*
X143988327Y-117709698D01*
X144085000Y-117476309D01*
X144085000Y-116785750D01*
X145315000Y-116785750D01*
X145315000Y-117476309D01*
X145411673Y-117709698D01*
X145590301Y-117888327D01*
X145823690Y-117985000D01*
X146514250Y-117985000D01*
X146673000Y-117826250D01*
X146673000Y-116627000D01*
X146927000Y-116627000D01*
X146927000Y-117826250D01*
X147085750Y-117985000D01*
X147776310Y-117985000D01*
X148009699Y-117888327D01*
X148188327Y-117709698D01*
X148275136Y-117500122D01*
X148573076Y-117771645D01*
X148983110Y-117941476D01*
X149213000Y-117820155D01*
X149213000Y-116627000D01*
X149467000Y-116627000D01*
X149467000Y-117820155D01*
X149696890Y-117941476D01*
X150106924Y-117771645D01*
X150535183Y-117381358D01*
X150610000Y-117222046D01*
X150684817Y-117381358D01*
X151113076Y-117771645D01*
X151523110Y-117941476D01*
X151753000Y-117820155D01*
X151753000Y-116627000D01*
X152007000Y-116627000D01*
X152007000Y-117820155D01*
X152236890Y-117941476D01*
X152646924Y-117771645D01*
X153075183Y-117381358D01*
X153150000Y-117222046D01*
X153224817Y-117381358D01*
X153653076Y-117771645D01*
X154063110Y-117941476D01*
X154293000Y-117820155D01*
X154293000Y-116627000D01*
X154547000Y-116627000D01*
X154547000Y-117820155D01*
X154776890Y-117941476D01*
X155186924Y-117771645D01*
X155615183Y-117381358D01*
X155690000Y-117222046D01*
X155764817Y-117381358D01*
X156193076Y-117771645D01*
X156603110Y-117941476D01*
X156833000Y-117820155D01*
X156833000Y-116627000D01*
X157087000Y-116627000D01*
X157087000Y-117820155D01*
X157316890Y-117941476D01*
X157726924Y-117771645D01*
X158155183Y-117381358D01*
X158230000Y-117222046D01*
X158304817Y-117381358D01*
X158733076Y-117771645D01*
X159143110Y-117941476D01*
X159373000Y-117820155D01*
X159373000Y-116627000D01*
X159627000Y-116627000D01*
X159627000Y-117820155D01*
X159856890Y-117941476D01*
X160266924Y-117771645D01*
X160695183Y-117381358D01*
X160770000Y-117222046D01*
X160844817Y-117381358D01*
X161273076Y-117771645D01*
X161683110Y-117941476D01*
X161913000Y-117820155D01*
X161913000Y-116627000D01*
X162167000Y-116627000D01*
X162167000Y-117820155D01*
X162396890Y-117941476D01*
X162806924Y-117771645D01*
X163235183Y-117381358D01*
X163310000Y-117222046D01*
X163384817Y-117381358D01*
X163813076Y-117771645D01*
X164223110Y-117941476D01*
X164453000Y-117820155D01*
X164453000Y-116627000D01*
X164707000Y-116627000D01*
X164707000Y-117820155D01*
X164936890Y-117941476D01*
X165346924Y-117771645D01*
X165775183Y-117381358D01*
X166021486Y-116856892D01*
X165900819Y-116627000D01*
X164707000Y-116627000D01*
X164453000Y-116627000D01*
X162167000Y-116627000D01*
X161913000Y-116627000D01*
X159627000Y-116627000D01*
X159373000Y-116627000D01*
X157087000Y-116627000D01*
X156833000Y-116627000D01*
X154547000Y-116627000D01*
X154293000Y-116627000D01*
X152007000Y-116627000D01*
X151753000Y-116627000D01*
X149467000Y-116627000D01*
X149213000Y-116627000D01*
X146927000Y-116627000D01*
X146673000Y-116627000D01*
X145473750Y-116627000D01*
X145315000Y-116785750D01*
X144085000Y-116785750D01*
X143926250Y-116627000D01*
X142727000Y-116627000D01*
X142473000Y-116627000D01*
X140187000Y-116627000D01*
X139933000Y-116627000D01*
X137647000Y-116627000D01*
X137393000Y-116627000D01*
X135107000Y-116627000D01*
X134853000Y-116627000D01*
X132567000Y-116627000D01*
X132313000Y-116627000D01*
X130027000Y-116627000D01*
X129773000Y-116627000D01*
X127487000Y-116627000D01*
X127233000Y-116627000D01*
X124947000Y-116627000D01*
X124693000Y-116627000D01*
X123499181Y-116627000D01*
X123378514Y-116856892D01*
X120090000Y-116856892D01*
X120090000Y-116143108D01*
X123378514Y-116143108D01*
X123499181Y-116373000D01*
X124693000Y-116373000D01*
X124693000Y-115179845D01*
X124947000Y-115179845D01*
X124947000Y-116373000D01*
X127233000Y-116373000D01*
X127233000Y-115179845D01*
X127487000Y-115179845D01*
X127487000Y-116373000D01*
X129773000Y-116373000D01*
X129773000Y-115179845D01*
X130027000Y-115179845D01*
X130027000Y-116373000D01*
X132313000Y-116373000D01*
X132313000Y-115179845D01*
X132567000Y-115179845D01*
X132567000Y-116373000D01*
X134853000Y-116373000D01*
X134853000Y-115179845D01*
X135107000Y-115179845D01*
X135107000Y-116373000D01*
X137393000Y-116373000D01*
X137393000Y-115179845D01*
X137647000Y-115179845D01*
X137647000Y-116373000D01*
X139933000Y-116373000D01*
X139933000Y-115179845D01*
X140187000Y-115179845D01*
X140187000Y-116373000D01*
X142473000Y-116373000D01*
X142473000Y-115173750D01*
X142727000Y-115173750D01*
X142727000Y-116373000D01*
X143926250Y-116373000D01*
X144085000Y-116214250D01*
X144085000Y-115523691D01*
X145315000Y-115523691D01*
X145315000Y-116214250D01*
X145473750Y-116373000D01*
X146673000Y-116373000D01*
X146673000Y-115173750D01*
X146927000Y-115173750D01*
X146927000Y-116373000D01*
X149213000Y-116373000D01*
X149213000Y-115179845D01*
X149467000Y-115179845D01*
X149467000Y-116373000D01*
X151753000Y-116373000D01*
X151753000Y-115179845D01*
X152007000Y-115179845D01*
X152007000Y-116373000D01*
X154293000Y-116373000D01*
X154293000Y-115179845D01*
X154547000Y-115179845D01*
X154547000Y-116373000D01*
X156833000Y-116373000D01*
X156833000Y-115179845D01*
X157087000Y-115179845D01*
X157087000Y-116373000D01*
X159373000Y-116373000D01*
X159373000Y-115179845D01*
X159627000Y-115179845D01*
X159627000Y-116373000D01*
X161913000Y-116373000D01*
X161913000Y-115179845D01*
X162167000Y-115179845D01*
X162167000Y-116373000D01*
X164453000Y-116373000D01*
X164453000Y-115179845D01*
X164707000Y-115179845D01*
X164707000Y-116373000D01*
X165900819Y-116373000D01*
X166021486Y-116143108D01*
X165775183Y-115618642D01*
X165346924Y-115228355D01*
X164936890Y-115058524D01*
X164707000Y-115179845D01*
X164453000Y-115179845D01*
X164223110Y-115058524D01*
X163813076Y-115228355D01*
X163384817Y-115618642D01*
X163310000Y-115777954D01*
X163235183Y-115618642D01*
X162806924Y-115228355D01*
X162396890Y-115058524D01*
X162167000Y-115179845D01*
X161913000Y-115179845D01*
X161683110Y-115058524D01*
X161273076Y-115228355D01*
X160844817Y-115618642D01*
X160770000Y-115777954D01*
X160695183Y-115618642D01*
X160266924Y-115228355D01*
X159856890Y-115058524D01*
X159627000Y-115179845D01*
X159373000Y-115179845D01*
X159143110Y-115058524D01*
X158733076Y-115228355D01*
X158304817Y-115618642D01*
X158230000Y-115777954D01*
X158155183Y-115618642D01*
X157726924Y-115228355D01*
X157316890Y-115058524D01*
X157087000Y-115179845D01*
X156833000Y-115179845D01*
X156603110Y-115058524D01*
X156193076Y-115228355D01*
X155764817Y-115618642D01*
X155690000Y-115777954D01*
X155615183Y-115618642D01*
X155186924Y-115228355D01*
X154776890Y-115058524D01*
X154547000Y-115179845D01*
X154293000Y-115179845D01*
X154063110Y-115058524D01*
X153653076Y-115228355D01*
X153224817Y-115618642D01*
X153150000Y-115777954D01*
X153075183Y-115618642D01*
X152646924Y-115228355D01*
X152236890Y-115058524D01*
X152007000Y-115179845D01*
X151753000Y-115179845D01*
X151523110Y-115058524D01*
X151113076Y-115228355D01*
X150684817Y-115618642D01*
X150610000Y-115777954D01*
X150535183Y-115618642D01*
X150106924Y-115228355D01*
X149696890Y-115058524D01*
X149467000Y-115179845D01*
X149213000Y-115179845D01*
X148983110Y-115058524D01*
X148573076Y-115228355D01*
X148275136Y-115499878D01*
X148188327Y-115290302D01*
X148009699Y-115111673D01*
X147776310Y-115015000D01*
X147085750Y-115015000D01*
X146927000Y-115173750D01*
X146673000Y-115173750D01*
X146514250Y-115015000D01*
X145823690Y-115015000D01*
X145590301Y-115111673D01*
X145411673Y-115290302D01*
X145315000Y-115523691D01*
X144085000Y-115523691D01*
X143988327Y-115290302D01*
X143809699Y-115111673D01*
X143576310Y-115015000D01*
X142885750Y-115015000D01*
X142727000Y-115173750D01*
X142473000Y-115173750D01*
X142314250Y-115015000D01*
X141623690Y-115015000D01*
X141390301Y-115111673D01*
X141211673Y-115290302D01*
X141124864Y-115499878D01*
X140826924Y-115228355D01*
X140416890Y-115058524D01*
X140187000Y-115179845D01*
X139933000Y-115179845D01*
X139703110Y-115058524D01*
X139293076Y-115228355D01*
X138864817Y-115618642D01*
X138790000Y-115777954D01*
X138715183Y-115618642D01*
X138286924Y-115228355D01*
X137876890Y-115058524D01*
X137647000Y-115179845D01*
X137393000Y-115179845D01*
X137163110Y-115058524D01*
X136753076Y-115228355D01*
X136324817Y-115618642D01*
X136250000Y-115777954D01*
X136175183Y-115618642D01*
X135746924Y-115228355D01*
X135336890Y-115058524D01*
X135107000Y-115179845D01*
X134853000Y-115179845D01*
X134623110Y-115058524D01*
X134213076Y-115228355D01*
X133784817Y-115618642D01*
X133710000Y-115777954D01*
X133635183Y-115618642D01*
X133206924Y-115228355D01*
X132796890Y-115058524D01*
X132567000Y-115179845D01*
X132313000Y-115179845D01*
X132083110Y-115058524D01*
X131673076Y-115228355D01*
X131244817Y-115618642D01*
X131170000Y-115777954D01*
X131095183Y-115618642D01*
X130666924Y-115228355D01*
X130256890Y-115058524D01*
X130027000Y-115179845D01*
X129773000Y-115179845D01*
X129543110Y-115058524D01*
X129133076Y-115228355D01*
X128704817Y-115618642D01*
X128630000Y-115777954D01*
X128555183Y-115618642D01*
X128126924Y-115228355D01*
X127716890Y-115058524D01*
X127487000Y-115179845D01*
X127233000Y-115179845D01*
X127003110Y-115058524D01*
X126593076Y-115228355D01*
X126164817Y-115618642D01*
X126090000Y-115777954D01*
X126015183Y-115618642D01*
X125586924Y-115228355D01*
X125176890Y-115058524D01*
X124947000Y-115179845D01*
X124693000Y-115179845D01*
X124463110Y-115058524D01*
X124053076Y-115228355D01*
X123624817Y-115618642D01*
X123378514Y-116143108D01*
X120090000Y-116143108D01*
X120090000Y-114427000D01*
X167640000Y-114427000D01*
X167688601Y-114417333D01*
X167729803Y-114389803D01*
X167757333Y-114348601D01*
X167767000Y-114300000D01*
X167767000Y-108077000D01*
X175820001Y-108077000D01*
X175820001Y-118670000D01*
G04 #@! TO.N,GND*
G36*
X175820001Y-106553000D02*
X166370000Y-106553000D01*
X166321399Y-106562667D01*
X166280197Y-106590197D01*
X166252667Y-106631399D01*
X166243000Y-106680000D01*
X166243000Y-112903000D01*
X165993199Y-112903000D01*
X165900819Y-112727000D01*
X164707000Y-112727000D01*
X164707000Y-112747000D01*
X164453000Y-112747000D01*
X164453000Y-112727000D01*
X162167000Y-112727000D01*
X162167000Y-112747000D01*
X161913000Y-112747000D01*
X161913000Y-112727000D01*
X159627000Y-112727000D01*
X159627000Y-112747000D01*
X159373000Y-112747000D01*
X159373000Y-112727000D01*
X157087000Y-112727000D01*
X157087000Y-112747000D01*
X156833000Y-112747000D01*
X156833000Y-112727000D01*
X154547000Y-112727000D01*
X154547000Y-112747000D01*
X154293000Y-112747000D01*
X154293000Y-112727000D01*
X152007000Y-112727000D01*
X152007000Y-112747000D01*
X151753000Y-112747000D01*
X151753000Y-112727000D01*
X149467000Y-112727000D01*
X149467000Y-112747000D01*
X149213000Y-112747000D01*
X149213000Y-112727000D01*
X146927000Y-112727000D01*
X146927000Y-112747000D01*
X146673000Y-112747000D01*
X146673000Y-112727000D01*
X145473750Y-112727000D01*
X145315000Y-112885750D01*
X145315000Y-112903000D01*
X144085000Y-112903000D01*
X144085000Y-112885750D01*
X143926250Y-112727000D01*
X142727000Y-112727000D01*
X142727000Y-112747000D01*
X142473000Y-112747000D01*
X142473000Y-112727000D01*
X140187000Y-112727000D01*
X140187000Y-112747000D01*
X139933000Y-112747000D01*
X139933000Y-112727000D01*
X137647000Y-112727000D01*
X137647000Y-112747000D01*
X137393000Y-112747000D01*
X137393000Y-112727000D01*
X135107000Y-112727000D01*
X135107000Y-112747000D01*
X134853000Y-112747000D01*
X134853000Y-112727000D01*
X132567000Y-112727000D01*
X132567000Y-112747000D01*
X132313000Y-112747000D01*
X132313000Y-112727000D01*
X130027000Y-112727000D01*
X130027000Y-112747000D01*
X129773000Y-112747000D01*
X129773000Y-112727000D01*
X127487000Y-112727000D01*
X127487000Y-112747000D01*
X127233000Y-112747000D01*
X127233000Y-112727000D01*
X124947000Y-112727000D01*
X124947000Y-112747000D01*
X124693000Y-112747000D01*
X124693000Y-112727000D01*
X123499181Y-112727000D01*
X123406801Y-112903000D01*
X120090000Y-112903000D01*
X120090000Y-112243108D01*
X123378514Y-112243108D01*
X123499181Y-112473000D01*
X124693000Y-112473000D01*
X124693000Y-111279845D01*
X124947000Y-111279845D01*
X124947000Y-112473000D01*
X127233000Y-112473000D01*
X127233000Y-111279845D01*
X127487000Y-111279845D01*
X127487000Y-112473000D01*
X129773000Y-112473000D01*
X129773000Y-111279845D01*
X130027000Y-111279845D01*
X130027000Y-112473000D01*
X132313000Y-112473000D01*
X132313000Y-111279845D01*
X132567000Y-111279845D01*
X132567000Y-112473000D01*
X134853000Y-112473000D01*
X134853000Y-111279845D01*
X135107000Y-111279845D01*
X135107000Y-112473000D01*
X137393000Y-112473000D01*
X137393000Y-111279845D01*
X137647000Y-111279845D01*
X137647000Y-112473000D01*
X139933000Y-112473000D01*
X139933000Y-111279845D01*
X140187000Y-111279845D01*
X140187000Y-112473000D01*
X142473000Y-112473000D01*
X142473000Y-111273750D01*
X142727000Y-111273750D01*
X142727000Y-112473000D01*
X143926250Y-112473000D01*
X144085000Y-112314250D01*
X144085000Y-111623691D01*
X145315000Y-111623691D01*
X145315000Y-112314250D01*
X145473750Y-112473000D01*
X146673000Y-112473000D01*
X146673000Y-111273750D01*
X146927000Y-111273750D01*
X146927000Y-112473000D01*
X149213000Y-112473000D01*
X149213000Y-111279845D01*
X149467000Y-111279845D01*
X149467000Y-112473000D01*
X151753000Y-112473000D01*
X151753000Y-111279845D01*
X152007000Y-111279845D01*
X152007000Y-112473000D01*
X154293000Y-112473000D01*
X154293000Y-111279845D01*
X154547000Y-111279845D01*
X154547000Y-112473000D01*
X156833000Y-112473000D01*
X156833000Y-111279845D01*
X157087000Y-111279845D01*
X157087000Y-112473000D01*
X159373000Y-112473000D01*
X159373000Y-111279845D01*
X159627000Y-111279845D01*
X159627000Y-112473000D01*
X161913000Y-112473000D01*
X161913000Y-111279845D01*
X162167000Y-111279845D01*
X162167000Y-112473000D01*
X164453000Y-112473000D01*
X164453000Y-111279845D01*
X164707000Y-111279845D01*
X164707000Y-112473000D01*
X165900819Y-112473000D01*
X166021486Y-112243108D01*
X165775183Y-111718642D01*
X165346924Y-111328355D01*
X164936890Y-111158524D01*
X164707000Y-111279845D01*
X164453000Y-111279845D01*
X164223110Y-111158524D01*
X163813076Y-111328355D01*
X163384817Y-111718642D01*
X163310000Y-111877954D01*
X163235183Y-111718642D01*
X162806924Y-111328355D01*
X162396890Y-111158524D01*
X162167000Y-111279845D01*
X161913000Y-111279845D01*
X161683110Y-111158524D01*
X161273076Y-111328355D01*
X160844817Y-111718642D01*
X160770000Y-111877954D01*
X160695183Y-111718642D01*
X160266924Y-111328355D01*
X159856890Y-111158524D01*
X159627000Y-111279845D01*
X159373000Y-111279845D01*
X159143110Y-111158524D01*
X158733076Y-111328355D01*
X158304817Y-111718642D01*
X158230000Y-111877954D01*
X158155183Y-111718642D01*
X157726924Y-111328355D01*
X157316890Y-111158524D01*
X157087000Y-111279845D01*
X156833000Y-111279845D01*
X156603110Y-111158524D01*
X156193076Y-111328355D01*
X155764817Y-111718642D01*
X155690000Y-111877954D01*
X155615183Y-111718642D01*
X155186924Y-111328355D01*
X154776890Y-111158524D01*
X154547000Y-111279845D01*
X154293000Y-111279845D01*
X154063110Y-111158524D01*
X153653076Y-111328355D01*
X153224817Y-111718642D01*
X153150000Y-111877954D01*
X153075183Y-111718642D01*
X152646924Y-111328355D01*
X152236890Y-111158524D01*
X152007000Y-111279845D01*
X151753000Y-111279845D01*
X151523110Y-111158524D01*
X151113076Y-111328355D01*
X150684817Y-111718642D01*
X150610000Y-111877954D01*
X150535183Y-111718642D01*
X150106924Y-111328355D01*
X149696890Y-111158524D01*
X149467000Y-111279845D01*
X149213000Y-111279845D01*
X148983110Y-111158524D01*
X148573076Y-111328355D01*
X148275136Y-111599878D01*
X148188327Y-111390302D01*
X148009699Y-111211673D01*
X147776310Y-111115000D01*
X147085750Y-111115000D01*
X146927000Y-111273750D01*
X146673000Y-111273750D01*
X146514250Y-111115000D01*
X145823690Y-111115000D01*
X145590301Y-111211673D01*
X145411673Y-111390302D01*
X145315000Y-111623691D01*
X144085000Y-111623691D01*
X143988327Y-111390302D01*
X143809699Y-111211673D01*
X143576310Y-111115000D01*
X142885750Y-111115000D01*
X142727000Y-111273750D01*
X142473000Y-111273750D01*
X142314250Y-111115000D01*
X141623690Y-111115000D01*
X141390301Y-111211673D01*
X141211673Y-111390302D01*
X141124864Y-111599878D01*
X140826924Y-111328355D01*
X140416890Y-111158524D01*
X140187000Y-111279845D01*
X139933000Y-111279845D01*
X139703110Y-111158524D01*
X139293076Y-111328355D01*
X138864817Y-111718642D01*
X138790000Y-111877954D01*
X138715183Y-111718642D01*
X138286924Y-111328355D01*
X137876890Y-111158524D01*
X137647000Y-111279845D01*
X137393000Y-111279845D01*
X137163110Y-111158524D01*
X136753076Y-111328355D01*
X136324817Y-111718642D01*
X136250000Y-111877954D01*
X136175183Y-111718642D01*
X135746924Y-111328355D01*
X135336890Y-111158524D01*
X135107000Y-111279845D01*
X134853000Y-111279845D01*
X134623110Y-111158524D01*
X134213076Y-111328355D01*
X133784817Y-111718642D01*
X133710000Y-111877954D01*
X133635183Y-111718642D01*
X133206924Y-111328355D01*
X132796890Y-111158524D01*
X132567000Y-111279845D01*
X132313000Y-111279845D01*
X132083110Y-111158524D01*
X131673076Y-111328355D01*
X131244817Y-111718642D01*
X131170000Y-111877954D01*
X131095183Y-111718642D01*
X130666924Y-111328355D01*
X130256890Y-111158524D01*
X130027000Y-111279845D01*
X129773000Y-111279845D01*
X129543110Y-111158524D01*
X129133076Y-111328355D01*
X128704817Y-111718642D01*
X128630000Y-111877954D01*
X128555183Y-111718642D01*
X128126924Y-111328355D01*
X127716890Y-111158524D01*
X127487000Y-111279845D01*
X127233000Y-111279845D01*
X127003110Y-111158524D01*
X126593076Y-111328355D01*
X126164817Y-111718642D01*
X126090000Y-111877954D01*
X126015183Y-111718642D01*
X125586924Y-111328355D01*
X125176890Y-111158524D01*
X124947000Y-111279845D01*
X124693000Y-111279845D01*
X124463110Y-111158524D01*
X124053076Y-111328355D01*
X123624817Y-111718642D01*
X123378514Y-112243108D01*
X120090000Y-112243108D01*
X120090000Y-108285750D01*
X150815000Y-108285750D01*
X150815000Y-108976310D01*
X150911673Y-109209699D01*
X151090302Y-109388327D01*
X151323691Y-109485000D01*
X152014250Y-109485000D01*
X152173000Y-109326250D01*
X152173000Y-108127000D01*
X152427000Y-108127000D01*
X152427000Y-109326250D01*
X152585750Y-109485000D01*
X153276309Y-109485000D01*
X153509698Y-109388327D01*
X153688327Y-109209699D01*
X153785000Y-108976310D01*
X153785000Y-108285750D01*
X153626250Y-108127000D01*
X152427000Y-108127000D01*
X152173000Y-108127000D01*
X150973750Y-108127000D01*
X150815000Y-108285750D01*
X120090000Y-108285750D01*
X120090000Y-106254343D01*
X126565000Y-106254343D01*
X126565000Y-106745657D01*
X126753018Y-107199571D01*
X127100429Y-107546982D01*
X127554343Y-107735000D01*
X128045657Y-107735000D01*
X128499571Y-107546982D01*
X128846982Y-107199571D01*
X129035000Y-106745657D01*
X129035000Y-106254343D01*
X128846982Y-105800429D01*
X128685000Y-105638447D01*
X128685000Y-103066577D01*
X130291577Y-101460000D01*
X132085908Y-101460000D01*
X132201161Y-102039418D01*
X132529375Y-102530625D01*
X132547619Y-102542816D01*
X132502235Y-102551843D01*
X132292191Y-102692191D01*
X132151843Y-102902235D01*
X132102560Y-103150000D01*
X132102560Y-104850000D01*
X132151843Y-105097765D01*
X132292191Y-105307809D01*
X132502235Y-105448157D01*
X132750000Y-105497440D01*
X134450000Y-105497440D01*
X134638225Y-105460000D01*
X150785908Y-105460000D01*
X150901161Y-106039418D01*
X151229375Y-106530625D01*
X151251033Y-106545096D01*
X151090302Y-106611673D01*
X150911673Y-106790301D01*
X150815000Y-107023690D01*
X150815000Y-107714250D01*
X150973750Y-107873000D01*
X152173000Y-107873000D01*
X152173000Y-107853000D01*
X152427000Y-107853000D01*
X152427000Y-107873000D01*
X153626250Y-107873000D01*
X153785000Y-107714250D01*
X153785000Y-107023690D01*
X153688327Y-106790301D01*
X153509698Y-106611673D01*
X153348967Y-106545096D01*
X153370625Y-106530625D01*
X153698839Y-106039418D01*
X153814092Y-105460000D01*
X153698839Y-104880582D01*
X153370625Y-104389375D01*
X152879418Y-104061161D01*
X152446256Y-103975000D01*
X152153744Y-103975000D01*
X151720582Y-104061161D01*
X151229375Y-104389375D01*
X150901161Y-104880582D01*
X150785908Y-105460000D01*
X134638225Y-105460000D01*
X134697765Y-105448157D01*
X134907809Y-105307809D01*
X135048157Y-105097765D01*
X135097440Y-104850000D01*
X135097440Y-103150000D01*
X135048157Y-102902235D01*
X134907809Y-102692191D01*
X134697765Y-102551843D01*
X134652381Y-102542816D01*
X134670625Y-102530625D01*
X134888639Y-102204343D01*
X153565002Y-102204343D01*
X153565002Y-102695657D01*
X153753020Y-103149571D01*
X154100431Y-103496982D01*
X154554345Y-103685000D01*
X155045659Y-103685000D01*
X155499573Y-103496982D01*
X155846984Y-103149571D01*
X156035002Y-102695657D01*
X156035002Y-102204343D01*
X155846984Y-101750429D01*
X155685002Y-101588447D01*
X155685002Y-101316576D01*
X158034608Y-98966970D01*
X157967300Y-99129467D01*
X157967300Y-99483133D01*
X158057129Y-99700000D01*
X157967300Y-99916867D01*
X157967300Y-100270533D01*
X158102642Y-100597278D01*
X158352722Y-100847358D01*
X158679467Y-100982700D01*
X159033133Y-100982700D01*
X159250000Y-100892871D01*
X159466867Y-100982700D01*
X159820533Y-100982700D01*
X160147278Y-100847358D01*
X160397358Y-100597278D01*
X160532700Y-100270533D01*
X160532700Y-99916867D01*
X160442871Y-99700000D01*
X160527001Y-99496890D01*
X163058524Y-99496890D01*
X163228355Y-99906924D01*
X163618642Y-100335183D01*
X164143108Y-100581486D01*
X164373000Y-100460819D01*
X164373000Y-99267000D01*
X164627000Y-99267000D01*
X164627000Y-100460819D01*
X164856892Y-100581486D01*
X165381358Y-100335183D01*
X165771645Y-99906924D01*
X165941476Y-99496890D01*
X167358524Y-99496890D01*
X167528355Y-99906924D01*
X167918642Y-100335183D01*
X168443108Y-100581486D01*
X168673000Y-100460819D01*
X168673000Y-99267000D01*
X168927000Y-99267000D01*
X168927000Y-100460819D01*
X169156892Y-100581486D01*
X169681358Y-100335183D01*
X170071645Y-99906924D01*
X170241476Y-99496890D01*
X170120155Y-99267000D01*
X168927000Y-99267000D01*
X168673000Y-99267000D01*
X167479845Y-99267000D01*
X167358524Y-99496890D01*
X165941476Y-99496890D01*
X165820155Y-99267000D01*
X164627000Y-99267000D01*
X164373000Y-99267000D01*
X163179845Y-99267000D01*
X163058524Y-99496890D01*
X160527001Y-99496890D01*
X160532700Y-99483133D01*
X160532700Y-99129467D01*
X160397358Y-98802722D01*
X160147278Y-98552642D01*
X159820533Y-98417300D01*
X159466867Y-98417300D01*
X159250000Y-98507129D01*
X159033133Y-98417300D01*
X158679467Y-98417300D01*
X158516970Y-98484608D01*
X161216579Y-95785000D01*
X161445657Y-95785000D01*
X161530154Y-95750000D01*
X163002560Y-95750000D01*
X163002560Y-97450000D01*
X163051843Y-97697765D01*
X163192191Y-97907809D01*
X163402235Y-98048157D01*
X163505708Y-98068739D01*
X163228355Y-98373076D01*
X163058524Y-98783110D01*
X163179845Y-99013000D01*
X164373000Y-99013000D01*
X164373000Y-98993000D01*
X164627000Y-98993000D01*
X164627000Y-99013000D01*
X165820155Y-99013000D01*
X165941476Y-98783110D01*
X165771645Y-98373076D01*
X165494292Y-98068739D01*
X165597765Y-98048157D01*
X165807809Y-97907809D01*
X165948157Y-97697765D01*
X165997440Y-97450000D01*
X165997440Y-95750000D01*
X167302560Y-95750000D01*
X167302560Y-97450000D01*
X167351843Y-97697765D01*
X167492191Y-97907809D01*
X167702235Y-98048157D01*
X167805708Y-98068739D01*
X167528355Y-98373076D01*
X167358524Y-98783110D01*
X167479845Y-99013000D01*
X168673000Y-99013000D01*
X168673000Y-98993000D01*
X168927000Y-98993000D01*
X168927000Y-99013000D01*
X170120155Y-99013000D01*
X170241476Y-98783110D01*
X170071645Y-98373076D01*
X169794292Y-98068739D01*
X169897765Y-98048157D01*
X170107809Y-97907809D01*
X170248157Y-97697765D01*
X170297440Y-97450000D01*
X170297440Y-95750000D01*
X170248157Y-95502235D01*
X170107809Y-95292191D01*
X169897765Y-95151843D01*
X169650000Y-95102560D01*
X167950000Y-95102560D01*
X167702235Y-95151843D01*
X167492191Y-95292191D01*
X167351843Y-95502235D01*
X167302560Y-95750000D01*
X165997440Y-95750000D01*
X165948157Y-95502235D01*
X165807809Y-95292191D01*
X165597765Y-95151843D01*
X165350000Y-95102560D01*
X163650000Y-95102560D01*
X163402235Y-95151843D01*
X163192191Y-95292191D01*
X163051843Y-95502235D01*
X163002560Y-95750000D01*
X161530154Y-95750000D01*
X161899571Y-95596982D01*
X162246982Y-95249571D01*
X162435000Y-94795657D01*
X162435000Y-94304343D01*
X162246982Y-93850429D01*
X161899571Y-93503018D01*
X161445657Y-93315000D01*
X160954343Y-93315000D01*
X160500429Y-93503018D01*
X160153018Y-93850429D01*
X159965000Y-94304343D01*
X159965000Y-94533421D01*
X154235849Y-100262573D01*
X154161953Y-100311949D01*
X153966350Y-100604689D01*
X153915002Y-100862834D01*
X153915002Y-100862837D01*
X153897665Y-100949998D01*
X153915002Y-101037159D01*
X153915002Y-101588447D01*
X153753020Y-101750429D01*
X153565002Y-102204343D01*
X134888639Y-102204343D01*
X134998839Y-102039418D01*
X135114092Y-101460000D01*
X134998839Y-100880582D01*
X134670625Y-100389375D01*
X134179418Y-100061161D01*
X133746256Y-99975000D01*
X133453744Y-99975000D01*
X133020582Y-100061161D01*
X132529375Y-100389375D01*
X132201161Y-100880582D01*
X132085908Y-101460000D01*
X130291577Y-101460000D01*
X133615827Y-98135750D01*
X145665000Y-98135750D01*
X145665000Y-98826310D01*
X145761673Y-99059699D01*
X145940302Y-99238327D01*
X146173691Y-99335000D01*
X146864250Y-99335000D01*
X147023000Y-99176250D01*
X147023000Y-97977000D01*
X147277000Y-97977000D01*
X147277000Y-99176250D01*
X147435750Y-99335000D01*
X148126309Y-99335000D01*
X148359698Y-99238327D01*
X148538327Y-99059699D01*
X148635000Y-98826310D01*
X148635000Y-98135750D01*
X148476250Y-97977000D01*
X147277000Y-97977000D01*
X147023000Y-97977000D01*
X145823750Y-97977000D01*
X145665000Y-98135750D01*
X133615827Y-98135750D01*
X136441577Y-95310000D01*
X145635908Y-95310000D01*
X145751161Y-95889418D01*
X146079375Y-96380625D01*
X146101033Y-96395096D01*
X145940302Y-96461673D01*
X145761673Y-96640301D01*
X145665000Y-96873690D01*
X145665000Y-97564250D01*
X145823750Y-97723000D01*
X147023000Y-97723000D01*
X147023000Y-97703000D01*
X147277000Y-97703000D01*
X147277000Y-97723000D01*
X148476250Y-97723000D01*
X148635000Y-97564250D01*
X148635000Y-96873690D01*
X148538327Y-96640301D01*
X148359698Y-96461673D01*
X148198967Y-96395096D01*
X148220625Y-96380625D01*
X148548839Y-95889418D01*
X148664092Y-95310000D01*
X148548839Y-94730582D01*
X148220625Y-94239375D01*
X147729418Y-93911161D01*
X147296256Y-93825000D01*
X147003744Y-93825000D01*
X146570582Y-93911161D01*
X146079375Y-94239375D01*
X145751161Y-94730582D01*
X145635908Y-95310000D01*
X136441577Y-95310000D01*
X137116578Y-94635000D01*
X137345656Y-94635000D01*
X137799570Y-94446982D01*
X138146981Y-94099571D01*
X138334999Y-93645657D01*
X138334999Y-93154343D01*
X138146981Y-92700429D01*
X137799570Y-92353018D01*
X137345656Y-92165000D01*
X136854342Y-92165000D01*
X136400428Y-92353018D01*
X136053017Y-92700429D01*
X135864999Y-93154343D01*
X135864999Y-93383421D01*
X127235845Y-102012576D01*
X127161952Y-102061950D01*
X127112578Y-102135843D01*
X127112576Y-102135845D01*
X126966348Y-102354690D01*
X126897663Y-102699999D01*
X126915001Y-102787164D01*
X126915000Y-105638447D01*
X126753018Y-105800429D01*
X126565000Y-106254343D01*
X120090000Y-106254343D01*
X120090000Y-89800000D01*
X142252560Y-89800000D01*
X142252560Y-91400000D01*
X142301843Y-91647765D01*
X142442191Y-91857809D01*
X142652235Y-91998157D01*
X142900000Y-92047440D01*
X144500000Y-92047440D01*
X144747765Y-91998157D01*
X144957809Y-91857809D01*
X145098157Y-91647765D01*
X145147440Y-91400000D01*
X145147440Y-89800000D01*
X145098157Y-89552235D01*
X144957809Y-89342191D01*
X144747765Y-89201843D01*
X144500000Y-89152560D01*
X142900000Y-89152560D01*
X142652235Y-89201843D01*
X142442191Y-89342191D01*
X142301843Y-89552235D01*
X142252560Y-89800000D01*
X120090000Y-89800000D01*
X120090000Y-87385750D01*
X120515000Y-87385750D01*
X120515000Y-88076309D01*
X120611673Y-88309698D01*
X120790301Y-88488327D01*
X121023690Y-88585000D01*
X121714250Y-88585000D01*
X121873000Y-88426250D01*
X121873000Y-87227000D01*
X120673750Y-87227000D01*
X120515000Y-87385750D01*
X120090000Y-87385750D01*
X120090000Y-86123691D01*
X120515000Y-86123691D01*
X120515000Y-86814250D01*
X120673750Y-86973000D01*
X121873000Y-86973000D01*
X121873000Y-85773750D01*
X122127000Y-85773750D01*
X122127000Y-86973000D01*
X122147000Y-86973000D01*
X122147000Y-87227000D01*
X122127000Y-87227000D01*
X122127000Y-88426250D01*
X122285750Y-88585000D01*
X122976310Y-88585000D01*
X123209699Y-88488327D01*
X123388327Y-88309698D01*
X123454904Y-88148967D01*
X123469375Y-88170625D01*
X123960582Y-88498839D01*
X124393744Y-88585000D01*
X124686256Y-88585000D01*
X125119418Y-88498839D01*
X125610625Y-88170625D01*
X125938839Y-87679418D01*
X126054092Y-87100000D01*
X126845908Y-87100000D01*
X126961161Y-87679418D01*
X127289375Y-88170625D01*
X127780582Y-88498839D01*
X128213744Y-88585000D01*
X128506256Y-88585000D01*
X128939418Y-88498839D01*
X129430625Y-88170625D01*
X129445096Y-88148967D01*
X129511673Y-88309698D01*
X129690301Y-88488327D01*
X129923690Y-88585000D01*
X130614250Y-88585000D01*
X130773000Y-88426250D01*
X130773000Y-87227000D01*
X131027000Y-87227000D01*
X131027000Y-88426250D01*
X131185750Y-88585000D01*
X131876310Y-88585000D01*
X132109699Y-88488327D01*
X132288327Y-88309698D01*
X132371978Y-88107745D01*
X142871861Y-88107745D01*
X142945995Y-88353864D01*
X143483223Y-88546965D01*
X144053454Y-88519778D01*
X144454005Y-88353864D01*
X144528139Y-88107745D01*
X143700000Y-87279605D01*
X142871861Y-88107745D01*
X132371978Y-88107745D01*
X132385000Y-88076309D01*
X132385000Y-87385750D01*
X132226250Y-87227000D01*
X131027000Y-87227000D01*
X130773000Y-87227000D01*
X130753000Y-87227000D01*
X130753000Y-86973000D01*
X130773000Y-86973000D01*
X130773000Y-85773750D01*
X131027000Y-85773750D01*
X131027000Y-86973000D01*
X132226250Y-86973000D01*
X132316027Y-86883223D01*
X142253035Y-86883223D01*
X142280222Y-87453454D01*
X142446136Y-87854005D01*
X142692255Y-87928139D01*
X143520395Y-87100000D01*
X143879605Y-87100000D01*
X144707745Y-87928139D01*
X144953864Y-87854005D01*
X145146965Y-87316777D01*
X145119778Y-86746546D01*
X144953864Y-86345995D01*
X144707745Y-86271861D01*
X143879605Y-87100000D01*
X143520395Y-87100000D01*
X142692255Y-86271861D01*
X142446136Y-86345995D01*
X142253035Y-86883223D01*
X132316027Y-86883223D01*
X132385000Y-86814250D01*
X132385000Y-86123691D01*
X132371979Y-86092255D01*
X142871861Y-86092255D01*
X143700000Y-86920395D01*
X144528139Y-86092255D01*
X144454005Y-85846136D01*
X143916777Y-85653035D01*
X143346546Y-85680222D01*
X142945995Y-85846136D01*
X142871861Y-86092255D01*
X132371979Y-86092255D01*
X132288327Y-85890302D01*
X132109699Y-85711673D01*
X131876310Y-85615000D01*
X131185750Y-85615000D01*
X131027000Y-85773750D01*
X130773000Y-85773750D01*
X130614250Y-85615000D01*
X129923690Y-85615000D01*
X129690301Y-85711673D01*
X129511673Y-85890302D01*
X129445096Y-86051033D01*
X129430625Y-86029375D01*
X128939418Y-85701161D01*
X128506256Y-85615000D01*
X128213744Y-85615000D01*
X127780582Y-85701161D01*
X127289375Y-86029375D01*
X126961161Y-86520582D01*
X126845908Y-87100000D01*
X126054092Y-87100000D01*
X125938839Y-86520582D01*
X125610625Y-86029375D01*
X125119418Y-85701161D01*
X124686256Y-85615000D01*
X124393744Y-85615000D01*
X123960582Y-85701161D01*
X123469375Y-86029375D01*
X123454904Y-86051033D01*
X123388327Y-85890302D01*
X123209699Y-85711673D01*
X122976310Y-85615000D01*
X122285750Y-85615000D01*
X122127000Y-85773750D01*
X121873000Y-85773750D01*
X121714250Y-85615000D01*
X121023690Y-85615000D01*
X120790301Y-85711673D01*
X120611673Y-85890302D01*
X120515000Y-86123691D01*
X120090000Y-86123691D01*
X120090000Y-84530000D01*
X175820000Y-84530000D01*
X175820001Y-106553000D01*
X175820001Y-106553000D01*
G37*
X175820001Y-106553000D02*
X166370000Y-106553000D01*
X166321399Y-106562667D01*
X166280197Y-106590197D01*
X166252667Y-106631399D01*
X166243000Y-106680000D01*
X166243000Y-112903000D01*
X165993199Y-112903000D01*
X165900819Y-112727000D01*
X164707000Y-112727000D01*
X164707000Y-112747000D01*
X164453000Y-112747000D01*
X164453000Y-112727000D01*
X162167000Y-112727000D01*
X162167000Y-112747000D01*
X161913000Y-112747000D01*
X161913000Y-112727000D01*
X159627000Y-112727000D01*
X159627000Y-112747000D01*
X159373000Y-112747000D01*
X159373000Y-112727000D01*
X157087000Y-112727000D01*
X157087000Y-112747000D01*
X156833000Y-112747000D01*
X156833000Y-112727000D01*
X154547000Y-112727000D01*
X154547000Y-112747000D01*
X154293000Y-112747000D01*
X154293000Y-112727000D01*
X152007000Y-112727000D01*
X152007000Y-112747000D01*
X151753000Y-112747000D01*
X151753000Y-112727000D01*
X149467000Y-112727000D01*
X149467000Y-112747000D01*
X149213000Y-112747000D01*
X149213000Y-112727000D01*
X146927000Y-112727000D01*
X146927000Y-112747000D01*
X146673000Y-112747000D01*
X146673000Y-112727000D01*
X145473750Y-112727000D01*
X145315000Y-112885750D01*
X145315000Y-112903000D01*
X144085000Y-112903000D01*
X144085000Y-112885750D01*
X143926250Y-112727000D01*
X142727000Y-112727000D01*
X142727000Y-112747000D01*
X142473000Y-112747000D01*
X142473000Y-112727000D01*
X140187000Y-112727000D01*
X140187000Y-112747000D01*
X139933000Y-112747000D01*
X139933000Y-112727000D01*
X137647000Y-112727000D01*
X137647000Y-112747000D01*
X137393000Y-112747000D01*
X137393000Y-112727000D01*
X135107000Y-112727000D01*
X135107000Y-112747000D01*
X134853000Y-112747000D01*
X134853000Y-112727000D01*
X132567000Y-112727000D01*
X132567000Y-112747000D01*
X132313000Y-112747000D01*
X132313000Y-112727000D01*
X130027000Y-112727000D01*
X130027000Y-112747000D01*
X129773000Y-112747000D01*
X129773000Y-112727000D01*
X127487000Y-112727000D01*
X127487000Y-112747000D01*
X127233000Y-112747000D01*
X127233000Y-112727000D01*
X124947000Y-112727000D01*
X124947000Y-112747000D01*
X124693000Y-112747000D01*
X124693000Y-112727000D01*
X123499181Y-112727000D01*
X123406801Y-112903000D01*
X120090000Y-112903000D01*
X120090000Y-112243108D01*
X123378514Y-112243108D01*
X123499181Y-112473000D01*
X124693000Y-112473000D01*
X124693000Y-111279845D01*
X124947000Y-111279845D01*
X124947000Y-112473000D01*
X127233000Y-112473000D01*
X127233000Y-111279845D01*
X127487000Y-111279845D01*
X127487000Y-112473000D01*
X129773000Y-112473000D01*
X129773000Y-111279845D01*
X130027000Y-111279845D01*
X130027000Y-112473000D01*
X132313000Y-112473000D01*
X132313000Y-111279845D01*
X132567000Y-111279845D01*
X132567000Y-112473000D01*
X134853000Y-112473000D01*
X134853000Y-111279845D01*
X135107000Y-111279845D01*
X135107000Y-112473000D01*
X137393000Y-112473000D01*
X137393000Y-111279845D01*
X137647000Y-111279845D01*
X137647000Y-112473000D01*
X139933000Y-112473000D01*
X139933000Y-111279845D01*
X140187000Y-111279845D01*
X140187000Y-112473000D01*
X142473000Y-112473000D01*
X142473000Y-111273750D01*
X142727000Y-111273750D01*
X142727000Y-112473000D01*
X143926250Y-112473000D01*
X144085000Y-112314250D01*
X144085000Y-111623691D01*
X145315000Y-111623691D01*
X145315000Y-112314250D01*
X145473750Y-112473000D01*
X146673000Y-112473000D01*
X146673000Y-111273750D01*
X146927000Y-111273750D01*
X146927000Y-112473000D01*
X149213000Y-112473000D01*
X149213000Y-111279845D01*
X149467000Y-111279845D01*
X149467000Y-112473000D01*
X151753000Y-112473000D01*
X151753000Y-111279845D01*
X152007000Y-111279845D01*
X152007000Y-112473000D01*
X154293000Y-112473000D01*
X154293000Y-111279845D01*
X154547000Y-111279845D01*
X154547000Y-112473000D01*
X156833000Y-112473000D01*
X156833000Y-111279845D01*
X157087000Y-111279845D01*
X157087000Y-112473000D01*
X159373000Y-112473000D01*
X159373000Y-111279845D01*
X159627000Y-111279845D01*
X159627000Y-112473000D01*
X161913000Y-112473000D01*
X161913000Y-111279845D01*
X162167000Y-111279845D01*
X162167000Y-112473000D01*
X164453000Y-112473000D01*
X164453000Y-111279845D01*
X164707000Y-111279845D01*
X164707000Y-112473000D01*
X165900819Y-112473000D01*
X166021486Y-112243108D01*
X165775183Y-111718642D01*
X165346924Y-111328355D01*
X164936890Y-111158524D01*
X164707000Y-111279845D01*
X164453000Y-111279845D01*
X164223110Y-111158524D01*
X163813076Y-111328355D01*
X163384817Y-111718642D01*
X163310000Y-111877954D01*
X163235183Y-111718642D01*
X162806924Y-111328355D01*
X162396890Y-111158524D01*
X162167000Y-111279845D01*
X161913000Y-111279845D01*
X161683110Y-111158524D01*
X161273076Y-111328355D01*
X160844817Y-111718642D01*
X160770000Y-111877954D01*
X160695183Y-111718642D01*
X160266924Y-111328355D01*
X159856890Y-111158524D01*
X159627000Y-111279845D01*
X159373000Y-111279845D01*
X159143110Y-111158524D01*
X158733076Y-111328355D01*
X158304817Y-111718642D01*
X158230000Y-111877954D01*
X158155183Y-111718642D01*
X157726924Y-111328355D01*
X157316890Y-111158524D01*
X157087000Y-111279845D01*
X156833000Y-111279845D01*
X156603110Y-111158524D01*
X156193076Y-111328355D01*
X155764817Y-111718642D01*
X155690000Y-111877954D01*
X155615183Y-111718642D01*
X155186924Y-111328355D01*
X154776890Y-111158524D01*
X154547000Y-111279845D01*
X154293000Y-111279845D01*
X154063110Y-111158524D01*
X153653076Y-111328355D01*
X153224817Y-111718642D01*
X153150000Y-111877954D01*
X153075183Y-111718642D01*
X152646924Y-111328355D01*
X152236890Y-111158524D01*
X152007000Y-111279845D01*
X151753000Y-111279845D01*
X151523110Y-111158524D01*
X151113076Y-111328355D01*
X150684817Y-111718642D01*
X150610000Y-111877954D01*
X150535183Y-111718642D01*
X150106924Y-111328355D01*
X149696890Y-111158524D01*
X149467000Y-111279845D01*
X149213000Y-111279845D01*
X148983110Y-111158524D01*
X148573076Y-111328355D01*
X148275136Y-111599878D01*
X148188327Y-111390302D01*
X148009699Y-111211673D01*
X147776310Y-111115000D01*
X147085750Y-111115000D01*
X146927000Y-111273750D01*
X146673000Y-111273750D01*
X146514250Y-111115000D01*
X145823690Y-111115000D01*
X145590301Y-111211673D01*
X145411673Y-111390302D01*
X145315000Y-111623691D01*
X144085000Y-111623691D01*
X143988327Y-111390302D01*
X143809699Y-111211673D01*
X143576310Y-111115000D01*
X142885750Y-111115000D01*
X142727000Y-111273750D01*
X142473000Y-111273750D01*
X142314250Y-111115000D01*
X141623690Y-111115000D01*
X141390301Y-111211673D01*
X141211673Y-111390302D01*
X141124864Y-111599878D01*
X140826924Y-111328355D01*
X140416890Y-111158524D01*
X140187000Y-111279845D01*
X139933000Y-111279845D01*
X139703110Y-111158524D01*
X139293076Y-111328355D01*
X138864817Y-111718642D01*
X138790000Y-111877954D01*
X138715183Y-111718642D01*
X138286924Y-111328355D01*
X137876890Y-111158524D01*
X137647000Y-111279845D01*
X137393000Y-111279845D01*
X137163110Y-111158524D01*
X136753076Y-111328355D01*
X136324817Y-111718642D01*
X136250000Y-111877954D01*
X136175183Y-111718642D01*
X135746924Y-111328355D01*
X135336890Y-111158524D01*
X135107000Y-111279845D01*
X134853000Y-111279845D01*
X134623110Y-111158524D01*
X134213076Y-111328355D01*
X133784817Y-111718642D01*
X133710000Y-111877954D01*
X133635183Y-111718642D01*
X133206924Y-111328355D01*
X132796890Y-111158524D01*
X132567000Y-111279845D01*
X132313000Y-111279845D01*
X132083110Y-111158524D01*
X131673076Y-111328355D01*
X131244817Y-111718642D01*
X131170000Y-111877954D01*
X131095183Y-111718642D01*
X130666924Y-111328355D01*
X130256890Y-111158524D01*
X130027000Y-111279845D01*
X129773000Y-111279845D01*
X129543110Y-111158524D01*
X129133076Y-111328355D01*
X128704817Y-111718642D01*
X128630000Y-111877954D01*
X128555183Y-111718642D01*
X128126924Y-111328355D01*
X127716890Y-111158524D01*
X127487000Y-111279845D01*
X127233000Y-111279845D01*
X127003110Y-111158524D01*
X126593076Y-111328355D01*
X126164817Y-111718642D01*
X126090000Y-111877954D01*
X126015183Y-111718642D01*
X125586924Y-111328355D01*
X125176890Y-111158524D01*
X124947000Y-111279845D01*
X124693000Y-111279845D01*
X124463110Y-111158524D01*
X124053076Y-111328355D01*
X123624817Y-111718642D01*
X123378514Y-112243108D01*
X120090000Y-112243108D01*
X120090000Y-108285750D01*
X150815000Y-108285750D01*
X150815000Y-108976310D01*
X150911673Y-109209699D01*
X151090302Y-109388327D01*
X151323691Y-109485000D01*
X152014250Y-109485000D01*
X152173000Y-109326250D01*
X152173000Y-108127000D01*
X152427000Y-108127000D01*
X152427000Y-109326250D01*
X152585750Y-109485000D01*
X153276309Y-109485000D01*
X153509698Y-109388327D01*
X153688327Y-109209699D01*
X153785000Y-108976310D01*
X153785000Y-108285750D01*
X153626250Y-108127000D01*
X152427000Y-108127000D01*
X152173000Y-108127000D01*
X150973750Y-108127000D01*
X150815000Y-108285750D01*
X120090000Y-108285750D01*
X120090000Y-106254343D01*
X126565000Y-106254343D01*
X126565000Y-106745657D01*
X126753018Y-107199571D01*
X127100429Y-107546982D01*
X127554343Y-107735000D01*
X128045657Y-107735000D01*
X128499571Y-107546982D01*
X128846982Y-107199571D01*
X129035000Y-106745657D01*
X129035000Y-106254343D01*
X128846982Y-105800429D01*
X128685000Y-105638447D01*
X128685000Y-103066577D01*
X130291577Y-101460000D01*
X132085908Y-101460000D01*
X132201161Y-102039418D01*
X132529375Y-102530625D01*
X132547619Y-102542816D01*
X132502235Y-102551843D01*
X132292191Y-102692191D01*
X132151843Y-102902235D01*
X132102560Y-103150000D01*
X132102560Y-104850000D01*
X132151843Y-105097765D01*
X132292191Y-105307809D01*
X132502235Y-105448157D01*
X132750000Y-105497440D01*
X134450000Y-105497440D01*
X134638225Y-105460000D01*
X150785908Y-105460000D01*
X150901161Y-106039418D01*
X151229375Y-106530625D01*
X151251033Y-106545096D01*
X151090302Y-106611673D01*
X150911673Y-106790301D01*
X150815000Y-107023690D01*
X150815000Y-107714250D01*
X150973750Y-107873000D01*
X152173000Y-107873000D01*
X152173000Y-107853000D01*
X152427000Y-107853000D01*
X152427000Y-107873000D01*
X153626250Y-107873000D01*
X153785000Y-107714250D01*
X153785000Y-107023690D01*
X153688327Y-106790301D01*
X153509698Y-106611673D01*
X153348967Y-106545096D01*
X153370625Y-106530625D01*
X153698839Y-106039418D01*
X153814092Y-105460000D01*
X153698839Y-104880582D01*
X153370625Y-104389375D01*
X152879418Y-104061161D01*
X152446256Y-103975000D01*
X152153744Y-103975000D01*
X151720582Y-104061161D01*
X151229375Y-104389375D01*
X150901161Y-104880582D01*
X150785908Y-105460000D01*
X134638225Y-105460000D01*
X134697765Y-105448157D01*
X134907809Y-105307809D01*
X135048157Y-105097765D01*
X135097440Y-104850000D01*
X135097440Y-103150000D01*
X135048157Y-102902235D01*
X134907809Y-102692191D01*
X134697765Y-102551843D01*
X134652381Y-102542816D01*
X134670625Y-102530625D01*
X134888639Y-102204343D01*
X153565002Y-102204343D01*
X153565002Y-102695657D01*
X153753020Y-103149571D01*
X154100431Y-103496982D01*
X154554345Y-103685000D01*
X155045659Y-103685000D01*
X155499573Y-103496982D01*
X155846984Y-103149571D01*
X156035002Y-102695657D01*
X156035002Y-102204343D01*
X155846984Y-101750429D01*
X155685002Y-101588447D01*
X155685002Y-101316576D01*
X158034608Y-98966970D01*
X157967300Y-99129467D01*
X157967300Y-99483133D01*
X158057129Y-99700000D01*
X157967300Y-99916867D01*
X157967300Y-100270533D01*
X158102642Y-100597278D01*
X158352722Y-100847358D01*
X158679467Y-100982700D01*
X159033133Y-100982700D01*
X159250000Y-100892871D01*
X159466867Y-100982700D01*
X159820533Y-100982700D01*
X160147278Y-100847358D01*
X160397358Y-100597278D01*
X160532700Y-100270533D01*
X160532700Y-99916867D01*
X160442871Y-99700000D01*
X160527001Y-99496890D01*
X163058524Y-99496890D01*
X163228355Y-99906924D01*
X163618642Y-100335183D01*
X164143108Y-100581486D01*
X164373000Y-100460819D01*
X164373000Y-99267000D01*
X164627000Y-99267000D01*
X164627000Y-100460819D01*
X164856892Y-100581486D01*
X165381358Y-100335183D01*
X165771645Y-99906924D01*
X165941476Y-99496890D01*
X167358524Y-99496890D01*
X167528355Y-99906924D01*
X167918642Y-100335183D01*
X168443108Y-100581486D01*
X168673000Y-100460819D01*
X168673000Y-99267000D01*
X168927000Y-99267000D01*
X168927000Y-100460819D01*
X169156892Y-100581486D01*
X169681358Y-100335183D01*
X170071645Y-99906924D01*
X170241476Y-99496890D01*
X170120155Y-99267000D01*
X168927000Y-99267000D01*
X168673000Y-99267000D01*
X167479845Y-99267000D01*
X167358524Y-99496890D01*
X165941476Y-99496890D01*
X165820155Y-99267000D01*
X164627000Y-99267000D01*
X164373000Y-99267000D01*
X163179845Y-99267000D01*
X163058524Y-99496890D01*
X160527001Y-99496890D01*
X160532700Y-99483133D01*
X160532700Y-99129467D01*
X160397358Y-98802722D01*
X160147278Y-98552642D01*
X159820533Y-98417300D01*
X159466867Y-98417300D01*
X159250000Y-98507129D01*
X159033133Y-98417300D01*
X158679467Y-98417300D01*
X158516970Y-98484608D01*
X161216579Y-95785000D01*
X161445657Y-95785000D01*
X161530154Y-95750000D01*
X163002560Y-95750000D01*
X163002560Y-97450000D01*
X163051843Y-97697765D01*
X163192191Y-97907809D01*
X163402235Y-98048157D01*
X163505708Y-98068739D01*
X163228355Y-98373076D01*
X163058524Y-98783110D01*
X163179845Y-99013000D01*
X164373000Y-99013000D01*
X164373000Y-98993000D01*
X164627000Y-98993000D01*
X164627000Y-99013000D01*
X165820155Y-99013000D01*
X165941476Y-98783110D01*
X165771645Y-98373076D01*
X165494292Y-98068739D01*
X165597765Y-98048157D01*
X165807809Y-97907809D01*
X165948157Y-97697765D01*
X165997440Y-97450000D01*
X165997440Y-95750000D01*
X167302560Y-95750000D01*
X167302560Y-97450000D01*
X167351843Y-97697765D01*
X167492191Y-97907809D01*
X167702235Y-98048157D01*
X167805708Y-98068739D01*
X167528355Y-98373076D01*
X167358524Y-98783110D01*
X167479845Y-99013000D01*
X168673000Y-99013000D01*
X168673000Y-98993000D01*
X168927000Y-98993000D01*
X168927000Y-99013000D01*
X170120155Y-99013000D01*
X170241476Y-98783110D01*
X170071645Y-98373076D01*
X169794292Y-98068739D01*
X169897765Y-98048157D01*
X170107809Y-97907809D01*
X170248157Y-97697765D01*
X170297440Y-97450000D01*
X170297440Y-95750000D01*
X170248157Y-95502235D01*
X170107809Y-95292191D01*
X169897765Y-95151843D01*
X169650000Y-95102560D01*
X167950000Y-95102560D01*
X167702235Y-95151843D01*
X167492191Y-95292191D01*
X167351843Y-95502235D01*
X167302560Y-95750000D01*
X165997440Y-95750000D01*
X165948157Y-95502235D01*
X165807809Y-95292191D01*
X165597765Y-95151843D01*
X165350000Y-95102560D01*
X163650000Y-95102560D01*
X163402235Y-95151843D01*
X163192191Y-95292191D01*
X163051843Y-95502235D01*
X163002560Y-95750000D01*
X161530154Y-95750000D01*
X161899571Y-95596982D01*
X162246982Y-95249571D01*
X162435000Y-94795657D01*
X162435000Y-94304343D01*
X162246982Y-93850429D01*
X161899571Y-93503018D01*
X161445657Y-93315000D01*
X160954343Y-93315000D01*
X160500429Y-93503018D01*
X160153018Y-93850429D01*
X159965000Y-94304343D01*
X159965000Y-94533421D01*
X154235849Y-100262573D01*
X154161953Y-100311949D01*
X153966350Y-100604689D01*
X153915002Y-100862834D01*
X153915002Y-100862837D01*
X153897665Y-100949998D01*
X153915002Y-101037159D01*
X153915002Y-101588447D01*
X153753020Y-101750429D01*
X153565002Y-102204343D01*
X134888639Y-102204343D01*
X134998839Y-102039418D01*
X135114092Y-101460000D01*
X134998839Y-100880582D01*
X134670625Y-100389375D01*
X134179418Y-100061161D01*
X133746256Y-99975000D01*
X133453744Y-99975000D01*
X133020582Y-100061161D01*
X132529375Y-100389375D01*
X132201161Y-100880582D01*
X132085908Y-101460000D01*
X130291577Y-101460000D01*
X133615827Y-98135750D01*
X145665000Y-98135750D01*
X145665000Y-98826310D01*
X145761673Y-99059699D01*
X145940302Y-99238327D01*
X146173691Y-99335000D01*
X146864250Y-99335000D01*
X147023000Y-99176250D01*
X147023000Y-97977000D01*
X147277000Y-97977000D01*
X147277000Y-99176250D01*
X147435750Y-99335000D01*
X148126309Y-99335000D01*
X148359698Y-99238327D01*
X148538327Y-99059699D01*
X148635000Y-98826310D01*
X148635000Y-98135750D01*
X148476250Y-97977000D01*
X147277000Y-97977000D01*
X147023000Y-97977000D01*
X145823750Y-97977000D01*
X145665000Y-98135750D01*
X133615827Y-98135750D01*
X136441577Y-95310000D01*
X145635908Y-95310000D01*
X145751161Y-95889418D01*
X146079375Y-96380625D01*
X146101033Y-96395096D01*
X145940302Y-96461673D01*
X145761673Y-96640301D01*
X145665000Y-96873690D01*
X145665000Y-97564250D01*
X145823750Y-97723000D01*
X147023000Y-97723000D01*
X147023000Y-97703000D01*
X147277000Y-97703000D01*
X147277000Y-97723000D01*
X148476250Y-97723000D01*
X148635000Y-97564250D01*
X148635000Y-96873690D01*
X148538327Y-96640301D01*
X148359698Y-96461673D01*
X148198967Y-96395096D01*
X148220625Y-96380625D01*
X148548839Y-95889418D01*
X148664092Y-95310000D01*
X148548839Y-94730582D01*
X148220625Y-94239375D01*
X147729418Y-93911161D01*
X147296256Y-93825000D01*
X147003744Y-93825000D01*
X146570582Y-93911161D01*
X146079375Y-94239375D01*
X145751161Y-94730582D01*
X145635908Y-95310000D01*
X136441577Y-95310000D01*
X137116578Y-94635000D01*
X137345656Y-94635000D01*
X137799570Y-94446982D01*
X138146981Y-94099571D01*
X138334999Y-93645657D01*
X138334999Y-93154343D01*
X138146981Y-92700429D01*
X137799570Y-92353018D01*
X137345656Y-92165000D01*
X136854342Y-92165000D01*
X136400428Y-92353018D01*
X136053017Y-92700429D01*
X135864999Y-93154343D01*
X135864999Y-93383421D01*
X127235845Y-102012576D01*
X127161952Y-102061950D01*
X127112578Y-102135843D01*
X127112576Y-102135845D01*
X126966348Y-102354690D01*
X126897663Y-102699999D01*
X126915001Y-102787164D01*
X126915000Y-105638447D01*
X126753018Y-105800429D01*
X126565000Y-106254343D01*
X120090000Y-106254343D01*
X120090000Y-89800000D01*
X142252560Y-89800000D01*
X142252560Y-91400000D01*
X142301843Y-91647765D01*
X142442191Y-91857809D01*
X142652235Y-91998157D01*
X142900000Y-92047440D01*
X144500000Y-92047440D01*
X144747765Y-91998157D01*
X144957809Y-91857809D01*
X145098157Y-91647765D01*
X145147440Y-91400000D01*
X145147440Y-89800000D01*
X145098157Y-89552235D01*
X144957809Y-89342191D01*
X144747765Y-89201843D01*
X144500000Y-89152560D01*
X142900000Y-89152560D01*
X142652235Y-89201843D01*
X142442191Y-89342191D01*
X142301843Y-89552235D01*
X142252560Y-89800000D01*
X120090000Y-89800000D01*
X120090000Y-87385750D01*
X120515000Y-87385750D01*
X120515000Y-88076309D01*
X120611673Y-88309698D01*
X120790301Y-88488327D01*
X121023690Y-88585000D01*
X121714250Y-88585000D01*
X121873000Y-88426250D01*
X121873000Y-87227000D01*
X120673750Y-87227000D01*
X120515000Y-87385750D01*
X120090000Y-87385750D01*
X120090000Y-86123691D01*
X120515000Y-86123691D01*
X120515000Y-86814250D01*
X120673750Y-86973000D01*
X121873000Y-86973000D01*
X121873000Y-85773750D01*
X122127000Y-85773750D01*
X122127000Y-86973000D01*
X122147000Y-86973000D01*
X122147000Y-87227000D01*
X122127000Y-87227000D01*
X122127000Y-88426250D01*
X122285750Y-88585000D01*
X122976310Y-88585000D01*
X123209699Y-88488327D01*
X123388327Y-88309698D01*
X123454904Y-88148967D01*
X123469375Y-88170625D01*
X123960582Y-88498839D01*
X124393744Y-88585000D01*
X124686256Y-88585000D01*
X125119418Y-88498839D01*
X125610625Y-88170625D01*
X125938839Y-87679418D01*
X126054092Y-87100000D01*
X126845908Y-87100000D01*
X126961161Y-87679418D01*
X127289375Y-88170625D01*
X127780582Y-88498839D01*
X128213744Y-88585000D01*
X128506256Y-88585000D01*
X128939418Y-88498839D01*
X129430625Y-88170625D01*
X129445096Y-88148967D01*
X129511673Y-88309698D01*
X129690301Y-88488327D01*
X129923690Y-88585000D01*
X130614250Y-88585000D01*
X130773000Y-88426250D01*
X130773000Y-87227000D01*
X131027000Y-87227000D01*
X131027000Y-88426250D01*
X131185750Y-88585000D01*
X131876310Y-88585000D01*
X132109699Y-88488327D01*
X132288327Y-88309698D01*
X132371978Y-88107745D01*
X142871861Y-88107745D01*
X142945995Y-88353864D01*
X143483223Y-88546965D01*
X144053454Y-88519778D01*
X144454005Y-88353864D01*
X144528139Y-88107745D01*
X143700000Y-87279605D01*
X142871861Y-88107745D01*
X132371978Y-88107745D01*
X132385000Y-88076309D01*
X132385000Y-87385750D01*
X132226250Y-87227000D01*
X131027000Y-87227000D01*
X130773000Y-87227000D01*
X130753000Y-87227000D01*
X130753000Y-86973000D01*
X130773000Y-86973000D01*
X130773000Y-85773750D01*
X131027000Y-85773750D01*
X131027000Y-86973000D01*
X132226250Y-86973000D01*
X132316027Y-86883223D01*
X142253035Y-86883223D01*
X142280222Y-87453454D01*
X142446136Y-87854005D01*
X142692255Y-87928139D01*
X143520395Y-87100000D01*
X143879605Y-87100000D01*
X144707745Y-87928139D01*
X144953864Y-87854005D01*
X145146965Y-87316777D01*
X145119778Y-86746546D01*
X144953864Y-86345995D01*
X144707745Y-86271861D01*
X143879605Y-87100000D01*
X143520395Y-87100000D01*
X142692255Y-86271861D01*
X142446136Y-86345995D01*
X142253035Y-86883223D01*
X132316027Y-86883223D01*
X132385000Y-86814250D01*
X132385000Y-86123691D01*
X132371979Y-86092255D01*
X142871861Y-86092255D01*
X143700000Y-86920395D01*
X144528139Y-86092255D01*
X144454005Y-85846136D01*
X143916777Y-85653035D01*
X143346546Y-85680222D01*
X142945995Y-85846136D01*
X142871861Y-86092255D01*
X132371979Y-86092255D01*
X132288327Y-85890302D01*
X132109699Y-85711673D01*
X131876310Y-85615000D01*
X131185750Y-85615000D01*
X131027000Y-85773750D01*
X130773000Y-85773750D01*
X130614250Y-85615000D01*
X129923690Y-85615000D01*
X129690301Y-85711673D01*
X129511673Y-85890302D01*
X129445096Y-86051033D01*
X129430625Y-86029375D01*
X128939418Y-85701161D01*
X128506256Y-85615000D01*
X128213744Y-85615000D01*
X127780582Y-85701161D01*
X127289375Y-86029375D01*
X126961161Y-86520582D01*
X126845908Y-87100000D01*
X126054092Y-87100000D01*
X125938839Y-86520582D01*
X125610625Y-86029375D01*
X125119418Y-85701161D01*
X124686256Y-85615000D01*
X124393744Y-85615000D01*
X123960582Y-85701161D01*
X123469375Y-86029375D01*
X123454904Y-86051033D01*
X123388327Y-85890302D01*
X123209699Y-85711673D01*
X122976310Y-85615000D01*
X122285750Y-85615000D01*
X122127000Y-85773750D01*
X121873000Y-85773750D01*
X121714250Y-85615000D01*
X121023690Y-85615000D01*
X120790301Y-85711673D01*
X120611673Y-85890302D01*
X120515000Y-86123691D01*
X120090000Y-86123691D01*
X120090000Y-84530000D01*
X175820000Y-84530000D01*
X175820001Y-106553000D01*
G04 #@! TD*
M02*
